<svg width="1200" height="675" viewBox="0 0 1200 675" fill="none" xmlns="http://www.w3.org/2000/svg">
<g clip-path="url(#clip0_6_3010)">
<rect width="1200" height="675" fill="#FFD1E9"/>
<rect width="508" height="666" fill="#F4F4EF"/>
<rect x="337" y="130" width="1244.97" height="27.1021" fill="#006A56"/>
<rect x="337" y="184.203" width="1244.97" height="27.1021" fill="#006A56"/>
<rect x="337" y="238.41" width="1244.97" height="27.1021" fill="#006A56"/>
<rect x="337" y="292.613" width="1244.97" height="27.1021" fill="#006A56"/>
<rect x="337" y="346.816" width="1244.97" height="27.1021" fill="#006A56"/>
<rect x="337" y="401.02" width="1244.97" height="27.1021" fill="#006A56"/>
<rect x="337" y="455.227" width="1244.97" height="27.1021" fill="#006A56"/>
<rect x="337" y="509.43" width="1244.97" height="27.1021" fill="#006A56"/>
<circle cx="171.141" cy="224.141" r="54.1408" fill="#00EEC5"/>
<circle cx="339.578" cy="224.141" r="54.1408" fill="#00EEC5"/>
<circle cx="508.016" cy="224.141" r="54.1408" fill="#00EEC5"/>
<circle cx="676.453" cy="224.141" r="54.1408" fill="#00EEC5"/>
<circle cx="844.895" cy="224.141" r="54.1408" fill="#00EEC5"/>
<circle cx="1013.33" cy="224.141" r="54.1408" fill="#00EEC5"/>
<path fill-rule="evenodd" clip-rule="evenodd" d="M-467.349 494.542C-493.291 478.896 -521.072 478.895 -547.034 494.543L-550.336 473.856C-522.224 456.913 -492.141 456.912 -464.046 473.856C-464.045 473.856 -464.046 473.856 -464.046 473.856L-431.752 493.314C-405.79 508.961 -378.009 508.961 -352.066 493.315L-319.771 473.856C-319.771 473.856 -319.771 473.856 -319.771 473.856C-291.66 456.913 -261.576 456.912 -233.481 473.856C-233.48 473.856 -233.481 473.856 -233.481 473.856L-201.187 493.314C-175.225 508.961 -147.444 508.961 -121.501 493.315L-89.2062 473.856C-89.206 473.856 -89.2064 473.856 -89.2062 473.856C-61.0948 456.913 -31.011 456.912 -2.91616 473.856C-2.91565 473.856 -2.91667 473.856 -2.91616 473.856L29.3779 493.314C55.3397 508.961 83.121 508.961 109.064 493.315L141.359 473.856C169.471 456.913 199.555 456.912 227.65 473.857L224.346 494.542C198.403 478.896 170.623 478.895 144.661 494.543L112.368 514C112.367 514 112.368 514 112.368 514C84.2728 530.944 54.1877 530.944 26.0762 514L-6.21742 494.543C-32.16 478.897 -59.9421 478.895 -85.9039 494.543L-118.197 514C-146.292 530.945 -176.376 530.944 -204.488 514.001C-204.488 514.001 -204.488 514.001 -204.488 514.001L-236.782 494.543C-262.725 478.897 -290.507 478.895 -316.469 494.543L-348.762 514C-376.857 530.945 -406.941 530.944 -435.053 514.001C-435.053 514.001 -435.053 514.001 -435.053 514.001L-467.349 494.542Z" fill="#00EEC5"/>
<path fill-rule="evenodd" clip-rule="evenodd" d="M-467.349 574.456C-493.291 558.81 -521.072 558.809 -547.034 574.457L-550.336 553.77C-522.224 536.827 -492.141 536.826 -464.046 553.77C-464.045 553.77 -464.046 553.77 -464.046 553.77L-431.752 573.228C-405.79 588.875 -378.009 588.875 -352.066 573.229L-319.771 553.77C-319.771 553.77 -319.771 553.771 -319.771 553.77C-291.66 536.827 -261.576 536.826 -233.481 553.77C-233.48 553.77 -233.481 553.77 -233.481 553.77L-201.187 573.228C-175.225 588.875 -147.444 588.875 -121.501 573.229L-89.2062 553.77C-89.206 553.77 -89.2064 553.771 -89.2062 553.77C-61.0948 536.827 -31.011 536.826 -2.91616 553.77C-2.91565 553.77 -2.91667 553.77 -2.91616 553.77L29.3779 573.228C55.3397 588.875 83.121 588.875 109.064 573.229L141.359 553.77C169.471 536.827 199.555 536.826 227.65 553.771L224.346 574.456C198.403 558.81 170.623 558.809 144.661 574.457L112.368 593.914C112.367 593.914 112.368 593.914 112.368 593.914C84.2728 610.858 54.1877 610.858 26.0762 593.914L-6.21742 574.457C-32.16 558.811 -59.9421 558.809 -85.9039 574.457L-118.197 593.914C-146.292 610.859 -176.376 610.858 -204.488 593.915C-204.488 593.915 -204.488 593.915 -204.488 593.915L-236.782 574.457C-262.725 558.811 -290.507 558.809 -316.469 574.457L-348.762 593.914C-376.857 610.859 -406.941 610.858 -435.053 593.915C-435.053 593.915 -435.053 593.915 -435.053 593.915L-467.349 574.456Z" fill="#00EEC5"/>
<path fill-rule="evenodd" clip-rule="evenodd" d="M-467.349 654.37C-493.291 638.724 -521.072 638.723 -547.034 654.371L-550.336 633.685C-522.224 616.741 -492.141 616.74 -464.046 633.684C-464.045 633.684 -464.046 633.684 -464.046 633.684L-431.752 653.142C-405.79 668.789 -378.009 668.789 -352.066 653.143L-319.771 633.685C-319.771 633.684 -319.771 633.685 -319.771 633.685C-291.66 616.741 -261.576 616.74 -233.481 633.684C-233.48 633.684 -233.481 633.684 -233.481 633.684L-201.187 653.142C-175.225 668.789 -147.444 668.789 -121.501 653.143L-89.2062 633.685C-89.206 633.684 -89.2064 633.685 -89.2062 633.685C-61.0948 616.741 -31.011 616.74 -2.91616 633.684C-2.91565 633.684 -2.91667 633.684 -2.91616 633.684L29.3779 653.142C55.3397 668.789 83.121 668.789 109.064 653.143L141.359 633.685C169.471 616.741 199.555 616.74 227.65 633.685L224.346 654.37C198.403 638.724 170.623 638.723 144.661 654.371L112.368 673.828C112.367 673.828 112.368 673.828 112.368 673.828C84.2728 690.772 54.1877 690.772 26.0762 673.829L-6.21742 654.371C-32.16 638.725 -59.9421 638.723 -85.9039 654.371L-118.197 673.828C-146.292 690.773 -176.376 690.772 -204.488 673.829C-204.488 673.829 -204.488 673.829 -204.488 673.829L-236.782 654.371C-262.725 638.725 -290.507 638.723 -316.469 654.371L-348.762 673.828C-376.857 690.773 -406.941 690.772 -435.053 673.829C-435.053 673.829 -435.053 673.829 -435.053 673.829L-467.349 654.37Z" fill="#00EEC5"/>
</g>
<defs>
<clipPath id="clip0_6_3010">
<rect width="1200" height="675" fill="white"/>
</clipPath>
</defs>
</svg>
