<svg width="1184" height="666" viewBox="0 0 1184 666" fill="none" xmlns="http://www.w3.org/2000/svg">
<g clip-path="url(#clip0_1_2700)">
<rect width="1184" height="666" fill="#FFD1E9"/>
<rect width="508" height="666" fill="#F4F4EF"/>
<rect x="337" y="130" width="1244.97" height="27.1021" fill="#006A56"/>
<rect x="337" y="184.205" width="1244.97" height="27.1021" fill="#006A56"/>
<rect x="337" y="238.408" width="1244.97" height="27.1021" fill="#006A56"/>
<rect x="337" y="292.611" width="1244.97" height="27.1021" fill="#006A56"/>
<rect x="337" y="346.816" width="1244.97" height="27.1021" fill="#006A56"/>
<rect x="337" y="401.02" width="1244.97" height="27.1021" fill="#006A56"/>
<rect x="337" y="455.225" width="1244.97" height="27.1021" fill="#006A56"/>
<rect x="337" y="509.428" width="1244.97" height="27.1021" fill="#006A56"/>
<circle cx="171.141" cy="224.141" r="54.1408" fill="#00EEC5"/>
<circle cx="339.578" cy="224.141" r="54.1408" fill="#00EEC5"/>
<circle cx="508.016" cy="224.141" r="54.1408" fill="#00EEC5"/>
<circle cx="676.453" cy="224.141" r="54.1408" fill="#00EEC5"/>
<circle cx="844.895" cy="224.141" r="54.1408" fill="#00EEC5"/>
<circle cx="1013.33" cy="224.141" r="54.1408" fill="#00EEC5"/>
<path fill-rule="evenodd" clip-rule="evenodd" d="M-461.119 487.949C-486.716 472.511 -514.126 472.51 -539.742 487.949L-543 467.538C-515.263 450.821 -485.581 450.82 -457.86 467.538C-457.86 467.538 -457.861 467.538 -457.86 467.538L-425.997 486.736C-400.381 502.175 -372.971 502.175 -347.374 486.737L-315.509 467.538C-315.509 467.538 -315.509 467.539 -315.509 467.538C-287.773 450.821 -258.09 450.82 -230.37 467.538C-230.369 467.538 -230.37 467.538 -230.37 467.538L-198.506 486.736C-172.891 502.175 -145.48 502.175 -119.883 486.737L-88.0187 467.538C-88.0185 467.538 -88.0189 467.539 -88.0187 467.538C-60.2821 450.821 -30.5995 450.82 -2.87917 467.538C-2.87867 467.538 -2.87968 467.538 -2.87917 467.538L28.9843 486.736C54.6 502.175 82.0108 502.175 107.608 486.737L139.472 467.538C167.209 450.821 196.892 450.82 224.613 467.539L221.353 487.949C195.756 472.511 168.346 472.51 142.73 487.949L110.868 507.147C110.867 507.147 110.868 507.146 110.868 507.147C83.1472 523.865 53.4633 523.865 25.7266 507.147L-6.13641 487.949C-31.7331 472.512 -59.1448 472.51 -84.7604 487.949L-116.623 507.147C-144.344 523.866 -174.026 523.865 -201.764 507.148C-201.764 507.147 -201.763 507.148 -201.764 507.148L-233.627 487.949C-259.224 472.512 -286.635 472.51 -312.251 487.949L-344.114 507.147C-371.834 523.866 -401.517 523.865 -429.254 507.148C-429.254 507.147 -429.254 507.148 -429.254 507.148L-461.119 487.949Z" fill="#00EEC5"/>
<path fill-rule="evenodd" clip-rule="evenodd" d="M-461.119 566.798C-486.716 551.36 -514.126 551.36 -539.742 566.799L-543 546.388C-515.263 529.671 -485.581 529.67 -457.86 546.388C-457.86 546.388 -457.861 546.387 -457.86 546.388L-425.997 565.586C-400.381 581.025 -372.971 581.025 -347.374 565.587L-315.509 546.388C-315.509 546.388 -315.509 546.388 -315.509 546.388C-287.773 529.671 -258.09 529.67 -230.37 546.388C-230.369 546.388 -230.37 546.388 -230.37 546.388L-198.506 565.586C-172.891 581.025 -145.48 581.025 -119.883 565.587L-88.0187 546.388C-88.0185 546.388 -88.0189 546.388 -88.0187 546.388C-60.2821 529.671 -30.5995 529.67 -2.87917 546.388C-2.87867 546.388 -2.87968 546.388 -2.87917 546.388L28.9843 565.586C54.6 581.025 82.0108 581.025 107.608 565.587L139.472 546.388C167.209 529.67 196.892 529.67 224.613 546.389L221.353 566.798C195.756 551.36 168.346 551.36 142.73 566.799L110.868 585.996C110.867 585.997 110.868 585.996 110.868 585.996C83.1472 602.714 53.4633 602.714 25.7266 585.997L-6.13641 566.799C-31.7331 551.361 -59.1448 551.36 -84.7604 566.799L-116.623 585.996C-144.344 602.715 -174.026 602.715 -201.764 585.997C-201.764 585.997 -201.763 585.997 -201.764 585.997L-233.627 566.799C-259.224 551.361 -286.635 551.36 -312.251 566.799L-344.114 585.996C-371.834 602.715 -401.517 602.715 -429.254 585.997C-429.254 585.997 -429.254 585.997 -429.254 585.997L-461.119 566.798Z" fill="#00EEC5"/>
<path fill-rule="evenodd" clip-rule="evenodd" d="M-461.119 645.648C-486.716 630.21 -514.126 630.209 -539.742 645.648L-543 625.238C-515.263 608.52 -485.581 608.519 -457.86 625.237C-457.86 625.238 -457.861 625.237 -457.86 625.237L-425.997 644.436C-400.381 659.875 -372.971 659.874 -347.374 644.436L-315.509 625.238C-315.509 625.238 -315.509 625.238 -315.509 625.238C-287.773 608.521 -258.09 608.519 -230.37 625.237C-230.369 625.238 -230.37 625.237 -230.37 625.237L-198.506 644.436C-172.891 659.875 -145.48 659.874 -119.883 644.436L-88.0187 625.238C-88.0185 625.238 -88.0189 625.238 -88.0187 625.238C-60.2821 608.521 -30.5995 608.519 -2.87917 625.237C-2.87867 625.238 -2.87968 625.237 -2.87917 625.237L28.9843 644.436C54.6 659.875 82.0108 659.874 107.608 644.436L139.472 625.238C167.209 608.52 196.892 608.519 224.613 625.238L221.353 645.648C195.756 630.21 168.346 630.209 142.73 645.648L110.868 664.846C110.867 664.846 110.868 664.846 110.868 664.846C83.1472 681.564 53.4633 681.564 25.7266 664.847L-6.13641 645.649C-31.7331 630.211 -59.1448 630.209 -84.7604 645.648L-116.623 664.846C-144.344 681.565 -174.026 681.564 -201.764 664.847C-201.764 664.847 -201.763 664.847 -201.764 664.847L-233.627 645.649C-259.224 630.211 -286.635 630.209 -312.251 645.648L-344.114 664.846C-371.834 681.565 -401.517 681.564 -429.254 664.847C-429.254 664.847 -429.254 664.847 -429.254 664.847L-461.119 645.648Z" fill="#00EEC5"/>
</g>
<defs>
<clipPath id="clip0_1_2700">
<rect width="1184" height="666" fill="white"/>
</clipPath>
</defs>
</svg>
