<svg width="1184" height="666" viewBox="0 0 1184 666" fill="none" xmlns="http://www.w3.org/2000/svg">
<g clip-path="url(#clip0_1_2687)">
<rect width="1184" height="666" fill="#FFD1E9"/>
<path fill-rule="evenodd" clip-rule="evenodd" d="M62.5 598C208.579 598 327 479.579 327 333.5C327 187.421 208.579 69 62.5 69C-83.5794 69 -202 187.421 -202 333.5C-202 479.579 -83.5794 598 62.5 598ZM62.5 494.275C151.293 494.275 223.275 422.293 223.275 333.5C223.275 244.707 151.293 172.725 62.5 172.725C-26.2933 172.725 -98.2745 244.707 -98.2745 333.5C-98.2745 422.293 -26.2933 494.275 62.5 494.275Z" fill="#006A56"/>
<path fill-rule="evenodd" clip-rule="evenodd" d="M591.5 598C737.579 598 856 479.579 856 333.5C856 187.421 737.579 69 591.5 69C445.421 69 327 187.421 327 333.5C327 479.579 445.421 598 591.5 598ZM591.5 494.275C680.293 494.275 752.275 422.293 752.275 333.5C752.275 244.707 680.293 172.725 591.5 172.725C502.707 172.725 430.725 244.707 430.725 333.5C430.725 422.293 502.707 494.275 591.5 494.275Z" fill="#393A3D"/>
<path fill-rule="evenodd" clip-rule="evenodd" d="M1120.5 598C1266.58 598 1385 479.579 1385 333.5C1385 187.421 1266.58 69 1120.5 69C974.421 69 856 187.421 856 333.5C856 479.579 974.421 598 1120.5 598ZM1120.5 494.275C1209.29 494.275 1281.27 422.293 1281.27 333.5C1281.27 244.707 1209.29 172.725 1120.5 172.725C1031.71 172.725 959.725 244.707 959.725 333.5C959.725 422.293 1031.71 494.275 1120.5 494.275Z" fill="#006A56"/>
<path fill-rule="evenodd" clip-rule="evenodd" d="M288.88 185.838C264.345 171.041 238.071 171.04 213.516 185.839L207 145.018C235.797 127.662 266.615 127.66 295.397 145.018C295.398 145.018 295.397 145.017 295.397 145.018C295.398 145.018 295.4 145.019 295.4 145.019L327.261 164.216C351.816 179.015 378.091 179.015 402.625 164.218L402.628 164.216L434.491 145.018C434.491 145.018 434.49 145.018 434.491 145.018C463.287 127.662 494.106 127.66 522.888 145.018C522.889 145.018 522.89 145.019 522.891 145.019L554.751 164.216C579.306 179.015 605.581 179.015 630.116 164.218L630.119 164.216L661.981 145.018C661.982 145.018 661.981 145.018 661.981 145.018C690.778 127.662 721.597 127.66 750.379 145.018C750.38 145.018 750.381 145.019 750.382 145.019L782.242 164.216C806.797 179.015 833.072 179.015 857.607 164.218L857.61 164.216L889.472 145.018C889.472 145.018 889.472 145.018 889.472 145.018C918.27 127.662 949.09 127.66 977.872 145.019L971.352 185.838C946.817 171.041 920.543 171.04 895.989 185.839L864.127 205.036C864.126 205.037 864.125 205.038 864.124 205.038C835.342 222.396 804.524 222.394 775.727 205.038L743.864 185.84L743.861 185.838C719.327 171.041 693.053 171.04 668.498 185.839L636.636 205.036C636.635 205.037 636.634 205.038 636.633 205.038C607.851 222.396 577.034 222.394 548.237 205.038C548.237 205.038 548.237 205.038 548.237 205.038L516.371 185.838C491.836 171.041 465.562 171.04 441.007 185.839L409.146 205.036C409.145 205.037 409.144 205.038 409.143 205.038C380.361 222.396 349.543 222.394 320.746 205.038C320.746 205.038 320.747 205.038 320.746 205.038L288.88 185.838Z" fill="#00EEC5"/>
<path fill-rule="evenodd" clip-rule="evenodd" d="M288.88 264.688C264.345 249.891 238.071 249.889 213.516 264.689L207 223.868C235.797 206.511 266.615 206.509 295.397 223.867C295.398 223.867 295.397 223.867 295.397 223.867C295.398 223.868 295.4 223.869 295.4 223.869L327.261 243.065C351.816 257.865 378.091 257.864 402.625 243.067L402.628 243.065L434.491 223.868C434.491 223.868 434.49 223.868 434.491 223.868C463.287 206.512 494.106 206.51 522.888 223.867C522.889 223.868 522.89 223.868 522.891 223.869L554.751 243.065C579.306 257.865 605.581 257.864 630.116 243.067L630.119 243.065L661.981 223.868C661.982 223.868 661.981 223.868 661.981 223.868C690.778 206.512 721.597 206.51 750.379 223.867C750.38 223.868 750.381 223.868 750.382 223.869L782.242 243.065C806.797 257.865 833.072 257.864 857.607 243.067L857.61 243.065L889.472 223.868C889.472 223.868 889.472 223.868 889.472 223.868C918.27 206.511 949.09 206.51 977.872 223.869L971.352 264.688C946.817 249.891 920.543 249.889 895.989 264.689L864.127 283.886C864.126 283.887 864.125 283.887 864.124 283.888C835.342 301.246 804.524 301.244 775.727 283.887L743.864 264.69L743.861 264.688C719.327 249.891 693.053 249.889 668.498 264.689L636.636 283.886C636.635 283.887 636.634 283.887 636.633 283.888C607.851 301.245 577.034 301.244 548.237 283.888C548.237 283.888 548.237 283.888 548.237 283.888L516.371 264.688C491.836 249.891 465.562 249.889 441.007 264.689L409.146 283.886C409.145 283.887 409.144 283.887 409.143 283.888C380.361 301.245 349.543 301.244 320.746 283.888C320.746 283.888 320.747 283.888 320.746 283.888L288.88 264.688Z" fill="#00EEC5"/>
<path fill-rule="evenodd" clip-rule="evenodd" d="M288.88 343.537C264.345 328.74 238.071 328.739 213.516 343.539L207 302.717C235.797 285.361 266.615 285.359 295.397 302.717C295.398 302.717 295.397 302.717 295.397 302.717C295.398 302.717 295.4 302.718 295.4 302.719L327.261 321.915C351.816 336.715 378.091 336.714 402.625 321.917L402.628 321.915L434.491 302.717C434.491 302.717 434.49 302.718 434.491 302.717C463.287 285.361 494.106 285.359 522.888 302.717C522.889 302.717 522.89 302.718 522.891 302.719L554.751 321.915C579.306 336.715 605.581 336.714 630.116 321.917L630.119 321.915L661.981 302.717C661.982 302.717 661.981 302.718 661.981 302.717C690.778 285.361 721.597 285.359 750.379 302.717C750.38 302.717 750.381 302.718 750.382 302.719L782.242 321.915C806.797 336.715 833.072 336.714 857.607 321.917L857.61 321.915L889.472 302.717C889.472 302.717 889.472 302.718 889.472 302.717C918.27 285.361 949.09 285.359 977.872 302.719L971.352 343.537C946.817 328.74 920.543 328.739 895.989 343.539L864.127 362.736C864.126 362.736 864.125 362.737 864.124 362.737C835.342 380.095 804.524 380.093 775.727 362.737L743.864 343.539L743.861 343.537C719.327 328.74 693.053 328.739 668.498 343.539L636.636 362.736C636.635 362.736 636.634 362.737 636.633 362.737C607.851 380.095 577.034 380.093 548.237 362.737C548.237 362.737 548.237 362.738 548.237 362.737L516.371 343.537C491.836 328.74 465.562 328.739 441.007 343.539L409.146 362.736C409.145 362.736 409.144 362.737 409.143 362.737C380.361 380.095 349.543 380.093 320.746 362.737C320.746 362.737 320.747 362.738 320.746 362.737L288.88 343.537Z" fill="#00EEC5"/>
<path fill-rule="evenodd" clip-rule="evenodd" d="M288.88 422.387C264.345 407.59 238.071 407.589 213.516 422.388L207 381.567C235.797 364.21 266.615 364.209 295.397 381.566C295.398 381.567 295.397 381.566 295.397 381.566C295.398 381.567 295.4 381.568 295.4 381.568L327.261 400.765C351.816 415.564 378.091 415.564 402.625 400.766L402.628 400.765L434.491 381.567C434.491 381.567 434.49 381.567 434.491 381.567C463.287 364.211 494.106 364.209 522.888 381.566C522.889 381.567 522.89 381.568 522.891 381.568L554.751 400.765C579.306 415.564 605.581 415.564 630.116 400.766L630.119 400.765L661.981 381.567C661.982 381.567 661.981 381.567 661.981 381.567C690.778 364.211 721.597 364.209 750.379 381.566C750.38 381.567 750.381 381.568 750.382 381.568L782.242 400.765C806.797 415.564 833.072 415.564 857.607 400.766L857.61 400.765L889.472 381.567C889.472 381.567 889.472 381.567 889.472 381.567C918.27 364.21 949.09 364.209 977.872 381.568L971.352 422.387C946.817 407.59 920.543 407.589 895.989 422.388L864.127 441.585C864.126 441.586 864.125 441.586 864.124 441.587C835.342 458.945 804.524 458.943 775.727 441.586L743.864 422.389L743.861 422.387C719.327 407.59 693.053 407.589 668.498 422.388L636.636 441.585C636.635 441.586 636.634 441.586 636.633 441.587C607.851 458.945 577.034 458.943 548.237 441.587C548.237 441.587 548.237 441.587 548.237 441.587L516.371 422.387C491.836 407.59 465.562 407.589 441.007 422.388L409.146 441.585C409.145 441.586 409.144 441.586 409.143 441.587C380.361 458.945 349.543 458.943 320.746 441.587C320.746 441.587 320.747 441.587 320.746 441.587L288.88 422.387Z" fill="#00EEC5"/>
<path fill-rule="evenodd" clip-rule="evenodd" d="M288.88 501.235C264.345 486.437 238.071 486.436 213.516 501.236L207 460.415C235.797 443.058 266.615 443.056 295.397 460.414C295.398 460.414 295.397 460.414 295.397 460.414C295.398 460.415 295.4 460.415 295.4 460.416L327.261 479.612C351.816 494.412 378.091 494.411 402.625 479.614L402.628 479.612L434.491 460.415C434.491 460.414 434.49 460.415 434.491 460.415C463.287 443.059 494.106 443.056 522.888 460.414C522.889 460.415 522.89 460.415 522.891 460.416L554.751 479.612C579.306 494.412 605.581 494.411 630.116 479.614L630.119 479.612L661.981 460.415C661.982 460.414 661.981 460.415 661.981 460.415C690.778 443.059 721.597 443.056 750.379 460.414C750.38 460.415 750.381 460.415 750.382 460.416L782.242 479.612C806.797 494.412 833.072 494.411 857.607 479.614L857.61 479.612L889.472 460.415C889.472 460.414 889.472 460.415 889.472 460.415C918.27 443.058 949.09 443.056 977.872 460.416L971.352 501.235C946.817 486.437 920.543 486.436 895.989 501.236L864.127 520.433C864.126 520.433 864.125 520.434 864.124 520.435C835.342 537.792 804.524 537.791 775.727 520.434L743.864 501.237L743.861 501.235C719.327 486.437 693.053 486.436 668.498 501.236L636.636 520.433C636.635 520.433 636.634 520.434 636.633 520.435C607.851 537.792 577.034 537.791 548.237 520.435C548.237 520.434 548.237 520.435 548.237 520.435L516.371 501.235C491.836 486.437 465.562 486.436 441.007 501.236L409.146 520.433C409.145 520.433 409.144 520.434 409.143 520.435C380.361 537.792 349.543 537.791 320.746 520.435C320.746 520.434 320.747 520.435 320.746 520.435L288.88 501.235Z" fill="#00EEC5"/>
</g>
<defs>
<clipPath id="clip0_1_2687">
<rect width="1184" height="666" fill="white"/>
</clipPath>
</defs>
</svg>
