<svg width="1184" height="666" viewBox="0 0 1184 666" fill="none" xmlns="http://www.w3.org/2000/svg">
<g clip-path="url(#clip0_1_2489)">
<rect width="1184" height="666" fill="#F4F4EF"/>
<circle cx="591.5" cy="332.5" r="185.5" fill="#FFD1E9"/>
<rect x="380" y="544.459" width="423.459" height="84.6919" transform="rotate(-90 380 544.459)" fill="#00EEC5"/>
<rect x="549.383" y="544.459" width="423.459" height="84.6919" transform="rotate(-90 549.383 544.459)" fill="#00EEC5"/>
<rect x="718.766" y="544.459" width="423.459" height="84.6919" transform="rotate(-90 718.766 544.459)" fill="#00EEC5"/>
<path fill-rule="evenodd" clip-rule="evenodd" d="M-460.119 175.949C-485.716 160.511 -513.126 160.51 -538.742 175.949L-542 155.538C-514.263 138.821 -484.581 138.82 -456.86 155.538C-456.86 155.538 -456.861 155.538 -456.86 155.538L-424.997 174.736C-399.381 190.175 -371.971 190.175 -346.374 174.737L-314.509 155.538C-314.509 155.538 -314.509 155.539 -314.509 155.538C-286.773 138.821 -257.09 138.82 -229.37 155.538C-229.369 155.538 -229.37 155.538 -229.37 155.538L-197.506 174.736C-171.891 190.175 -144.48 190.175 -118.883 174.737L-87.0187 155.538C-87.0185 155.538 -87.0189 155.539 -87.0187 155.538C-59.2821 138.821 -29.5995 138.82 -1.87917 155.538C-1.87867 155.538 -1.87968 155.538 -1.87917 155.538L29.9843 174.736C55.6 190.175 83.0108 190.175 108.608 174.737L140.472 155.538C168.209 138.821 197.892 138.82 225.613 155.539L222.353 175.949C196.756 160.511 169.346 160.51 143.73 175.949L111.868 195.147C111.867 195.147 111.868 195.146 111.868 195.147C84.1472 211.865 54.4633 211.865 26.7266 195.147L-5.13641 175.949C-30.7331 160.512 -58.1448 160.51 -83.7604 175.949L-115.623 195.147C-143.344 211.866 -173.026 211.865 -200.764 195.148C-200.764 195.147 -200.763 195.148 -200.764 195.148L-232.627 175.949C-258.224 160.512 -285.635 160.51 -311.251 175.949L-343.114 195.147C-370.834 211.866 -400.517 211.865 -428.254 195.148C-428.254 195.147 -428.254 195.148 -428.254 195.148L-460.119 175.949Z" fill="#006A56"/>
<path fill-rule="evenodd" clip-rule="evenodd" d="M-460.119 254.798C-485.716 239.36 -513.126 239.36 -538.742 254.799L-542 234.388C-514.263 217.671 -484.581 217.67 -456.86 234.388C-456.86 234.388 -456.861 234.387 -456.86 234.388L-424.997 253.586C-399.381 269.025 -371.971 269.025 -346.374 253.587L-314.509 234.388C-314.509 234.388 -314.509 234.388 -314.509 234.388C-286.773 217.671 -257.09 217.67 -229.37 234.388C-229.369 234.388 -229.37 234.388 -229.37 234.388L-197.506 253.586C-171.891 269.025 -144.48 269.025 -118.883 253.587L-87.0187 234.388C-87.0185 234.388 -87.0189 234.388 -87.0187 234.388C-59.2821 217.671 -29.5995 217.67 -1.87917 234.388C-1.87867 234.388 -1.87968 234.388 -1.87917 234.388L29.9843 253.586C55.6 269.025 83.0108 269.025 108.608 253.587L140.472 234.388C168.209 217.67 197.892 217.67 225.613 234.389L222.353 254.798C196.756 239.36 169.346 239.36 143.73 254.799L111.868 273.996C111.867 273.997 111.868 273.996 111.868 273.996C84.1472 290.714 54.4633 290.714 26.7266 273.997L-5.13641 254.799C-30.7331 239.361 -58.1448 239.36 -83.7604 254.799L-115.623 273.996C-143.344 290.715 -173.026 290.715 -200.764 273.997C-200.764 273.997 -200.763 273.997 -200.764 273.997L-232.627 254.799C-258.224 239.361 -285.635 239.36 -311.251 254.799L-343.114 273.996C-370.834 290.715 -400.517 290.715 -428.254 273.997C-428.254 273.997 -428.254 273.997 -428.254 273.997L-460.119 254.798Z" fill="#006A56"/>
<path fill-rule="evenodd" clip-rule="evenodd" d="M-460.119 333.648C-485.716 318.21 -513.126 318.209 -538.742 333.648L-542 313.238C-514.263 296.52 -484.581 296.519 -456.86 313.237C-456.86 313.238 -456.861 313.237 -456.86 313.237L-424.997 332.436C-399.381 347.875 -371.971 347.874 -346.374 332.436L-314.509 313.238C-314.509 313.238 -314.509 313.238 -314.509 313.238C-286.773 296.521 -257.09 296.519 -229.37 313.237C-229.369 313.238 -229.37 313.237 -229.37 313.237L-197.506 332.436C-171.891 347.875 -144.48 347.874 -118.883 332.436L-87.0187 313.238C-87.0185 313.238 -87.0189 313.238 -87.0187 313.238C-59.2821 296.521 -29.5995 296.519 -1.87917 313.237C-1.87867 313.238 -1.87968 313.237 -1.87917 313.237L29.9843 332.436C55.6 347.875 83.0108 347.874 108.608 332.436L140.472 313.238C168.209 296.52 197.892 296.519 225.613 313.238L222.353 333.648C196.756 318.21 169.346 318.209 143.73 333.648L111.868 352.846C111.867 352.846 111.868 352.846 111.868 352.846C84.1472 369.564 54.4633 369.564 26.7266 352.847L-5.13641 333.649C-30.7331 318.211 -58.1448 318.209 -83.7604 333.648L-115.623 352.846C-143.344 369.565 -173.026 369.564 -200.764 352.847C-200.764 352.847 -200.763 352.847 -200.764 352.847L-232.627 333.649C-258.224 318.211 -285.635 318.209 -311.251 333.648L-343.114 352.846C-370.834 369.565 -400.517 369.564 -428.254 352.847C-428.254 352.847 -428.254 352.847 -428.254 352.847L-460.119 333.648Z" fill="#006A56"/>
<path fill-rule="evenodd" clip-rule="evenodd" d="M-460.119 412.497C-485.716 397.06 -513.126 397.059 -538.742 412.498L-542 392.087C-514.263 375.37 -484.581 375.369 -456.86 392.087C-456.86 392.087 -456.861 392.087 -456.86 392.087L-424.997 411.285C-399.381 426.724 -371.971 426.724 -346.374 411.286L-314.509 392.087C-314.509 392.087 -314.509 392.087 -314.509 392.087C-286.773 375.37 -257.09 375.369 -229.37 392.087C-229.369 392.087 -229.37 392.087 -229.37 392.087L-197.506 411.285C-171.891 426.724 -144.48 426.724 -118.883 411.286L-87.0187 392.087C-87.0185 392.087 -87.0189 392.087 -87.0187 392.087C-59.2821 375.37 -29.5995 375.369 -1.87917 392.087C-1.87867 392.087 -1.87968 392.087 -1.87917 392.087L29.9843 411.285C55.6 426.724 83.0108 426.724 108.608 411.286L140.472 392.087C168.209 375.37 197.892 375.369 225.613 392.088L222.353 412.497C196.756 397.06 169.346 397.059 143.73 412.498L111.868 431.696C111.867 431.696 111.868 431.695 111.868 431.696C84.1472 448.414 54.4633 448.414 26.7266 431.696L-5.13641 412.498C-30.7331 397.06 -58.1448 397.059 -83.7604 412.498L-115.623 431.696C-143.344 448.414 -173.026 448.414 -200.764 431.696C-200.764 431.696 -200.763 431.697 -200.764 431.696L-232.627 412.498C-258.224 397.06 -285.635 397.059 -311.251 412.498L-343.114 431.696C-370.834 448.414 -400.517 448.414 -428.254 431.696C-428.254 431.696 -428.254 431.697 -428.254 431.696L-460.119 412.497Z" fill="#006A56"/>
<path fill-rule="evenodd" clip-rule="evenodd" d="M-460.119 491.345C-485.716 475.907 -513.126 475.907 -538.742 491.346L-542 470.935C-514.263 454.217 -484.581 454.217 -456.86 470.935C-456.86 470.935 -456.861 470.934 -456.86 470.935L-424.997 490.133C-399.381 505.572 -371.971 505.572 -346.374 490.134L-314.509 470.935C-314.509 470.935 -314.509 470.935 -314.509 470.935C-286.773 454.218 -257.09 454.217 -229.37 470.935C-229.369 470.935 -229.37 470.934 -229.37 470.935L-197.506 490.133C-171.891 505.572 -144.48 505.572 -118.883 490.134L-87.0187 470.935C-87.0185 470.935 -87.0189 470.935 -87.0187 470.935C-59.2821 454.218 -29.5995 454.217 -1.87917 470.935C-1.87867 470.935 -1.87968 470.934 -1.87917 470.935L29.9843 490.133C55.6 505.572 83.0108 505.572 108.608 490.134L140.472 470.935C168.209 454.217 197.892 454.217 225.613 470.936L222.353 491.345C196.756 475.907 169.346 475.907 143.73 491.346L111.868 510.543C111.867 510.543 111.868 510.543 111.868 510.543C84.1472 527.261 54.4633 527.261 26.7266 510.544L-5.13641 491.346C-30.7331 475.908 -58.1448 475.907 -83.7604 491.346L-115.623 510.543C-143.344 527.262 -173.026 527.262 -200.764 510.544C-200.764 510.544 -200.763 510.544 -200.764 510.544L-232.627 491.346C-258.224 475.908 -285.635 475.907 -311.251 491.346L-343.114 510.543C-370.834 527.262 -400.517 527.262 -428.254 510.544C-428.254 510.544 -428.254 510.544 -428.254 510.544L-460.119 491.345Z" fill="#006A56"/>
<path fill-rule="evenodd" clip-rule="evenodd" d="M343.881 175.949C318.284 160.511 290.874 160.51 265.258 175.949L262 155.538C289.737 138.821 319.419 138.82 347.14 155.538C347.14 155.538 347.139 155.538 347.14 155.538L379.003 174.736C404.619 190.175 432.029 190.175 457.626 174.737L489.491 155.538C489.491 155.538 489.491 155.539 489.491 155.538C517.227 138.821 546.91 138.82 574.63 155.538C574.631 155.538 574.63 155.538 574.63 155.538L606.494 174.736C632.109 190.175 659.52 190.175 685.117 174.737L716.981 155.538C716.981 155.538 716.981 155.539 716.981 155.538C744.718 138.821 774.401 138.82 802.121 155.538C802.121 155.538 802.12 155.538 802.121 155.538L833.984 174.736C859.6 190.175 887.011 190.175 912.608 174.737L944.472 155.538C972.209 138.821 1001.89 138.82 1029.61 155.539L1026.35 175.949C1000.76 160.511 973.346 160.51 947.73 175.949L915.868 195.147C915.867 195.147 915.868 195.146 915.868 195.147C888.147 211.865 858.463 211.865 830.727 195.147L798.864 175.949C773.267 160.512 745.855 160.51 720.24 175.949L688.377 195.147C660.656 211.866 630.974 211.865 603.236 195.148C603.236 195.147 603.237 195.148 603.236 195.148L571.373 175.949C545.776 160.512 518.365 160.51 492.749 175.949L460.886 195.147C433.166 211.866 403.483 211.865 375.746 195.148C375.746 195.147 375.746 195.148 375.746 195.148L343.881 175.949Z" fill="#393A3D"/>
<path fill-rule="evenodd" clip-rule="evenodd" d="M343.881 254.798C318.284 239.36 290.874 239.36 265.258 254.799L262 234.388C289.737 217.671 319.419 217.67 347.14 234.388C347.14 234.388 347.139 234.387 347.14 234.388L379.003 253.586C404.619 269.025 432.029 269.025 457.626 253.587L489.491 234.388C489.491 234.388 489.491 234.388 489.491 234.388C517.227 217.671 546.91 217.67 574.63 234.388C574.631 234.388 574.63 234.388 574.63 234.388L606.494 253.586C632.109 269.025 659.52 269.025 685.117 253.587L716.981 234.388C716.981 234.388 716.981 234.388 716.981 234.388C744.718 217.671 774.401 217.67 802.121 234.388C802.121 234.388 802.12 234.388 802.121 234.388L833.984 253.586C859.6 269.025 887.011 269.025 912.608 253.587L944.472 234.388C972.209 217.67 1001.89 217.67 1029.61 234.389L1026.35 254.798C1000.76 239.36 973.346 239.36 947.73 254.799L915.868 273.996C915.867 273.997 915.868 273.996 915.868 273.996C888.147 290.714 858.463 290.714 830.727 273.997L798.864 254.799C773.267 239.361 745.855 239.36 720.24 254.799L688.377 273.996C660.656 290.715 630.974 290.715 603.236 273.997C603.236 273.997 603.237 273.997 603.236 273.997L571.373 254.799C545.776 239.361 518.365 239.36 492.749 254.799L460.886 273.996C433.166 290.715 403.483 290.715 375.746 273.997C375.746 273.997 375.746 273.997 375.746 273.997L343.881 254.798Z" fill="#393A3D"/>
<path fill-rule="evenodd" clip-rule="evenodd" d="M343.881 333.648C318.284 318.21 290.874 318.209 265.258 333.648L262 313.238C289.737 296.52 319.419 296.519 347.14 313.237C347.14 313.238 347.139 313.237 347.14 313.237L379.003 332.436C404.619 347.875 432.029 347.874 457.626 332.436L489.491 313.238C489.491 313.238 489.491 313.238 489.491 313.238C517.227 296.521 546.91 296.519 574.63 313.237C574.631 313.238 574.63 313.237 574.63 313.237L606.494 332.436C632.109 347.875 659.52 347.874 685.117 332.436L716.981 313.238C716.981 313.238 716.981 313.238 716.981 313.238C744.718 296.521 774.401 296.519 802.121 313.237C802.121 313.238 802.12 313.237 802.121 313.237L833.984 332.436C859.6 347.875 887.011 347.874 912.608 332.436L944.472 313.238C972.209 296.52 1001.89 296.519 1029.61 313.238L1026.35 333.648C1000.76 318.21 973.346 318.209 947.73 333.648L915.868 352.846C915.867 352.846 915.868 352.846 915.868 352.846C888.147 369.564 858.463 369.564 830.727 352.847L798.864 333.649C773.267 318.211 745.855 318.209 720.24 333.648L688.377 352.846C660.656 369.565 630.974 369.564 603.236 352.847C603.236 352.847 603.237 352.847 603.236 352.847L571.373 333.649C545.776 318.211 518.365 318.209 492.749 333.648L460.886 352.846C433.166 369.565 403.483 369.564 375.746 352.847C375.746 352.847 375.746 352.847 375.746 352.847L343.881 333.648Z" fill="#393A3D"/>
<path fill-rule="evenodd" clip-rule="evenodd" d="M343.881 412.497C318.284 397.06 290.874 397.059 265.258 412.498L262 392.087C289.737 375.37 319.419 375.369 347.14 392.087C347.14 392.087 347.139 392.087 347.14 392.087L379.003 411.285C404.619 426.724 432.029 426.724 457.626 411.286L489.491 392.087C489.491 392.087 489.491 392.087 489.491 392.087C517.227 375.37 546.91 375.369 574.63 392.087C574.631 392.087 574.63 392.087 574.63 392.087L606.494 411.285C632.109 426.724 659.52 426.724 685.117 411.286L716.981 392.087C716.981 392.087 716.981 392.087 716.981 392.087C744.718 375.37 774.401 375.369 802.121 392.087C802.121 392.087 802.12 392.087 802.121 392.087L833.984 411.285C859.6 426.724 887.011 426.724 912.608 411.286L944.472 392.087C972.209 375.37 1001.89 375.369 1029.61 392.088L1026.35 412.497C1000.76 397.06 973.346 397.059 947.73 412.498L915.868 431.696C915.867 431.696 915.868 431.695 915.868 431.696C888.147 448.414 858.463 448.414 830.727 431.696L798.864 412.498C773.267 397.06 745.855 397.059 720.24 412.498L688.377 431.696C660.656 448.414 630.974 448.414 603.236 431.696C603.236 431.696 603.237 431.697 603.236 431.696L571.373 412.498C545.776 397.06 518.365 397.059 492.749 412.498L460.886 431.696C433.166 448.414 403.483 448.414 375.746 431.696C375.746 431.696 375.746 431.697 375.746 431.696L343.881 412.497Z" fill="#393A3D"/>
<path fill-rule="evenodd" clip-rule="evenodd" d="M343.881 491.345C318.284 475.907 290.874 475.907 265.258 491.346L262 470.935C289.737 454.217 319.419 454.217 347.14 470.935C347.14 470.935 347.139 470.934 347.14 470.935L379.003 490.133C404.619 505.572 432.029 505.572 457.626 490.134L489.491 470.935C489.491 470.935 489.491 470.935 489.491 470.935C517.227 454.218 546.91 454.217 574.63 470.935C574.631 470.935 574.63 470.934 574.63 470.935L606.494 490.133C632.109 505.572 659.52 505.572 685.117 490.134L716.981 470.935C716.981 470.935 716.981 470.935 716.981 470.935C744.718 454.218 774.401 454.217 802.121 470.935C802.121 470.935 802.12 470.934 802.121 470.935L833.984 490.133C859.6 505.572 887.011 505.572 912.608 490.134L944.472 470.935C972.209 454.217 1001.89 454.217 1029.61 470.936L1026.35 491.345C1000.76 475.907 973.346 475.907 947.73 491.346L915.868 510.543C915.867 510.543 915.868 510.543 915.868 510.543C888.147 527.261 858.463 527.261 830.727 510.544L798.864 491.346C773.267 475.908 745.855 475.907 720.24 491.346L688.377 510.543C660.656 527.262 630.974 527.262 603.236 510.544C603.236 510.544 603.237 510.544 603.236 510.544L571.373 491.346C545.776 475.908 518.365 475.907 492.749 491.346L460.886 510.543C433.166 527.262 403.483 527.262 375.746 510.544C375.746 510.544 375.746 510.544 375.746 510.544L343.881 491.345Z" fill="#393A3D"/>
<path fill-rule="evenodd" clip-rule="evenodd" d="M1147.88 175.949C1122.28 160.511 1094.87 160.51 1069.26 175.949L1066 155.538C1093.74 138.821 1123.42 138.82 1151.14 155.538C1151.14 155.538 1151.14 155.538 1151.14 155.538L1183 174.736C1208.62 190.175 1236.03 190.175 1261.63 174.737L1293.49 155.538C1293.49 155.538 1293.49 155.539 1293.49 155.538C1321.23 138.821 1350.91 138.82 1378.63 155.538C1378.63 155.538 1378.63 155.538 1378.63 155.538L1410.49 174.736C1436.11 190.175 1463.52 190.175 1489.12 174.737L1520.98 155.538C1520.98 155.538 1520.98 155.539 1520.98 155.538C1548.72 138.821 1578.4 138.82 1606.12 155.538C1606.12 155.538 1606.12 155.538 1606.12 155.538L1637.98 174.736C1663.6 190.175 1691.01 190.175 1716.61 174.737L1748.47 155.538C1776.21 138.821 1805.89 138.82 1833.61 155.539L1830.35 175.949C1804.76 160.511 1777.35 160.51 1751.73 175.949L1719.87 195.147C1719.87 195.147 1719.87 195.146 1719.87 195.147C1692.15 211.865 1662.46 211.865 1634.73 195.147L1602.86 175.949C1577.27 160.512 1549.86 160.51 1524.24 175.949L1492.38 195.147C1464.66 211.866 1434.97 211.865 1407.24 195.148C1407.24 195.147 1407.24 195.148 1407.24 195.148L1375.37 175.949C1349.78 160.512 1322.36 160.51 1296.75 175.949L1264.89 195.147C1237.17 211.866 1207.48 211.865 1179.75 195.148C1179.75 195.147 1179.75 195.148 1179.75 195.148L1147.88 175.949Z" fill="#006A56"/>
<path fill-rule="evenodd" clip-rule="evenodd" d="M1147.88 254.798C1122.28 239.36 1094.87 239.36 1069.26 254.799L1066 234.388C1093.74 217.671 1123.42 217.67 1151.14 234.388C1151.14 234.388 1151.14 234.387 1151.14 234.388L1183 253.586C1208.62 269.025 1236.03 269.025 1261.63 253.587L1293.49 234.388C1293.49 234.388 1293.49 234.388 1293.49 234.388C1321.23 217.671 1350.91 217.67 1378.63 234.388C1378.63 234.388 1378.63 234.388 1378.63 234.388L1410.49 253.586C1436.11 269.025 1463.52 269.025 1489.12 253.587L1520.98 234.388C1520.98 234.388 1520.98 234.388 1520.98 234.388C1548.72 217.671 1578.4 217.67 1606.12 234.388C1606.12 234.388 1606.12 234.388 1606.12 234.388L1637.98 253.586C1663.6 269.025 1691.01 269.025 1716.61 253.587L1748.47 234.388C1776.21 217.67 1805.89 217.67 1833.61 234.389L1830.35 254.798C1804.76 239.36 1777.35 239.36 1751.73 254.799L1719.87 273.996C1719.87 273.997 1719.87 273.996 1719.87 273.996C1692.15 290.714 1662.46 290.714 1634.73 273.997L1602.86 254.799C1577.27 239.361 1549.86 239.36 1524.24 254.799L1492.38 273.996C1464.66 290.715 1434.97 290.715 1407.24 273.997C1407.24 273.997 1407.24 273.997 1407.24 273.997L1375.37 254.799C1349.78 239.361 1322.36 239.36 1296.75 254.799L1264.89 273.996C1237.17 290.715 1207.48 290.715 1179.75 273.997C1179.75 273.997 1179.75 273.997 1179.75 273.997L1147.88 254.798Z" fill="#006A56"/>
<path fill-rule="evenodd" clip-rule="evenodd" d="M1147.88 333.648C1122.28 318.21 1094.87 318.209 1069.26 333.648L1066 313.238C1093.74 296.52 1123.42 296.519 1151.14 313.237C1151.14 313.238 1151.14 313.237 1151.14 313.237L1183 332.436C1208.62 347.875 1236.03 347.874 1261.63 332.436L1293.49 313.238C1293.49 313.238 1293.49 313.238 1293.49 313.238C1321.23 296.521 1350.91 296.519 1378.63 313.237C1378.63 313.238 1378.63 313.237 1378.63 313.237L1410.49 332.436C1436.11 347.875 1463.52 347.874 1489.12 332.436L1520.98 313.238C1520.98 313.238 1520.98 313.238 1520.98 313.238C1548.72 296.521 1578.4 296.519 1606.12 313.237C1606.12 313.238 1606.12 313.237 1606.12 313.237L1637.98 332.436C1663.6 347.875 1691.01 347.874 1716.61 332.436L1748.47 313.238C1776.21 296.52 1805.89 296.519 1833.61 313.238L1830.35 333.648C1804.76 318.21 1777.35 318.209 1751.73 333.648L1719.87 352.846C1719.87 352.846 1719.87 352.846 1719.87 352.846C1692.15 369.564 1662.46 369.564 1634.73 352.847L1602.86 333.649C1577.27 318.211 1549.86 318.209 1524.24 333.648L1492.38 352.846C1464.66 369.565 1434.97 369.564 1407.24 352.847C1407.24 352.847 1407.24 352.847 1407.24 352.847L1375.37 333.649C1349.78 318.211 1322.36 318.209 1296.75 333.648L1264.89 352.846C1237.17 369.565 1207.48 369.564 1179.75 352.847C1179.75 352.847 1179.75 352.847 1179.75 352.847L1147.88 333.648Z" fill="#006A56"/>
<path fill-rule="evenodd" clip-rule="evenodd" d="M1147.88 412.497C1122.28 397.06 1094.87 397.059 1069.26 412.498L1066 392.087C1093.74 375.37 1123.42 375.369 1151.14 392.087C1151.14 392.087 1151.14 392.087 1151.14 392.087L1183 411.285C1208.62 426.724 1236.03 426.724 1261.63 411.286L1293.49 392.087C1293.49 392.087 1293.49 392.087 1293.49 392.087C1321.23 375.37 1350.91 375.369 1378.63 392.087C1378.63 392.087 1378.63 392.087 1378.63 392.087L1410.49 411.285C1436.11 426.724 1463.52 426.724 1489.12 411.286L1520.98 392.087C1520.98 392.087 1520.98 392.087 1520.98 392.087C1548.72 375.37 1578.4 375.369 1606.12 392.087C1606.12 392.087 1606.12 392.087 1606.12 392.087L1637.98 411.285C1663.6 426.724 1691.01 426.724 1716.61 411.286L1748.47 392.087C1776.21 375.37 1805.89 375.369 1833.61 392.088L1830.35 412.497C1804.76 397.06 1777.35 397.059 1751.73 412.498L1719.87 431.696C1719.87 431.696 1719.87 431.695 1719.87 431.696C1692.15 448.414 1662.46 448.414 1634.73 431.696L1602.86 412.498C1577.27 397.06 1549.86 397.059 1524.24 412.498L1492.38 431.696C1464.66 448.414 1434.97 448.414 1407.24 431.696C1407.24 431.696 1407.24 431.697 1407.24 431.696L1375.37 412.498C1349.78 397.06 1322.36 397.059 1296.75 412.498L1264.89 431.696C1237.17 448.414 1207.48 448.414 1179.75 431.696C1179.75 431.696 1179.75 431.697 1179.75 431.696L1147.88 412.497Z" fill="#006A56"/>
<path fill-rule="evenodd" clip-rule="evenodd" d="M1147.88 491.345C1122.28 475.907 1094.87 475.907 1069.26 491.346L1066 470.935C1093.74 454.217 1123.42 454.217 1151.14 470.935C1151.14 470.935 1151.14 470.934 1151.14 470.935L1183 490.133C1208.62 505.572 1236.03 505.572 1261.63 490.134L1293.49 470.935C1293.49 470.935 1293.49 470.935 1293.49 470.935C1321.23 454.218 1350.91 454.217 1378.63 470.935C1378.63 470.935 1378.63 470.934 1378.63 470.935L1410.49 490.133C1436.11 505.572 1463.52 505.572 1489.12 490.134L1520.98 470.935C1520.98 470.935 1520.98 470.935 1520.98 470.935C1548.72 454.218 1578.4 454.217 1606.12 470.935C1606.12 470.935 1606.12 470.934 1606.12 470.935L1637.98 490.133C1663.6 505.572 1691.01 505.572 1716.61 490.134L1748.47 470.935C1776.21 454.217 1805.89 454.217 1833.61 470.936L1830.35 491.345C1804.76 475.907 1777.35 475.907 1751.73 491.346L1719.87 510.543C1719.87 510.543 1719.87 510.543 1719.87 510.543C1692.15 527.261 1662.46 527.261 1634.73 510.544L1602.86 491.346C1577.27 475.908 1549.86 475.907 1524.24 491.346L1492.38 510.543C1464.66 527.262 1434.97 527.262 1407.24 510.544C1407.24 510.544 1407.24 510.544 1407.24 510.544L1375.37 491.346C1349.78 475.908 1322.36 475.907 1296.75 491.346L1264.89 510.543C1237.17 527.262 1207.48 527.262 1179.75 510.544C1179.75 510.544 1179.75 510.544 1179.75 510.544L1147.88 491.345Z" fill="#006A56"/>
</g>
<defs>
<clipPath id="clip0_1_2489">
<rect width="1184" height="666" fill="white"/>
</clipPath>
</defs>
</svg>
