<svg width="1200" height="675" viewBox="0 0 1200 675" fill="none" xmlns="http://www.w3.org/2000/svg">
<rect width="1200" height="675" fill="#F4F4EF"/>
<rect x="102" y="121" width="1012.07" height="84.6919" fill="#FFD1E9"/>
<rect x="102" y="290.383" width="1012.07" height="84.6919" fill="#FFD1E9"/>
<rect x="102" y="459.77" width="1012.07" height="84.6919" fill="#FFD1E9"/>
<circle cx="57.2911" cy="59.2911" r="31.2911" fill="#00EEC5"/>
<circle cx="154.643" cy="59.2911" r="31.2911" fill="#00EEC5"/>
<circle cx="251.994" cy="59.2911" r="31.2911" fill="#00EEC5"/>
<circle cx="349.342" cy="59.2911" r="31.2911" fill="#00EEC5"/>
<circle cx="446.69" cy="59.2911" r="31.2911" fill="#00EEC5"/>
<circle cx="544.041" cy="59.2911" r="31.2911" fill="#00EEC5"/>
<circle cx="639.322" cy="59.2911" r="31.2911" fill="#00EEC5"/>
<circle cx="736.674" cy="59.2911" r="31.2911" fill="#00EEC5"/>
<circle cx="834.026" cy="59.2911" r="31.2911" fill="#00EEC5"/>
<circle cx="931.373" cy="59.2911" r="31.2911" fill="#00EEC5"/>
<circle cx="1028.72" cy="59.2911" r="31.2911" fill="#00EEC5"/>
<circle cx="1126.07" cy="59.2911" r="31.2911" fill="#00EEC5"/>
<circle cx="57.2911" cy="168.873" r="31.2911" fill="#00EEC5"/>
<circle cx="154.643" cy="168.873" r="31.2911" fill="#00EEC5"/>
<circle cx="251.994" cy="168.873" r="31.2911" fill="#00EEC5"/>
<circle cx="349.342" cy="168.873" r="31.2911" fill="#00EEC5"/>
<circle cx="446.69" cy="168.873" r="31.2911" fill="#00EEC5"/>
<circle cx="544.041" cy="168.873" r="31.2911" fill="#00EEC5"/>
<circle cx="639.322" cy="168.873" r="31.2911" fill="#00EEC5"/>
<circle cx="736.674" cy="168.873" r="31.2911" fill="#00EEC5"/>
<circle cx="834.026" cy="168.873" r="31.2911" fill="#00EEC5"/>
<circle cx="931.373" cy="168.873" r="31.2911" fill="#00EEC5"/>
<circle cx="1028.72" cy="168.873" r="31.2911" fill="#00EEC5"/>
<circle cx="1126.07" cy="168.873" r="31.2911" fill="#00EEC5"/>
<circle cx="57.2911" cy="278.455" r="31.2911" fill="#00EEC5"/>
<circle cx="154.643" cy="278.455" r="31.2911" fill="#00EEC5"/>
<circle cx="251.994" cy="278.455" r="31.2911" fill="#00EEC5"/>
<circle cx="349.342" cy="278.455" r="31.2911" fill="#00EEC5"/>
<circle cx="446.69" cy="278.455" r="31.2911" fill="#00EEC5"/>
<circle cx="544.041" cy="278.455" r="31.2911" fill="#00EEC5"/>
<circle cx="639.322" cy="278.455" r="31.2911" fill="#00EEC5"/>
<circle cx="736.674" cy="278.455" r="31.2911" fill="#00EEC5"/>
<circle cx="834.026" cy="278.455" r="31.2911" fill="#00EEC5"/>
<circle cx="931.373" cy="278.455" r="31.2911" fill="#00EEC5"/>
<circle cx="1028.72" cy="278.455" r="31.2911" fill="#00EEC5"/>
<circle cx="1126.07" cy="278.455" r="31.2911" fill="#00EEC5"/>
<circle cx="57.2911" cy="388.037" r="31.2911" fill="#00EEC5"/>
<circle cx="154.643" cy="388.037" r="31.2911" fill="#00EEC5"/>
<circle cx="251.994" cy="388.037" r="31.2911" fill="#00EEC5"/>
<circle cx="349.342" cy="388.037" r="31.2911" fill="#00EEC5"/>
<circle cx="446.69" cy="388.037" r="31.2911" fill="#00EEC5"/>
<circle cx="544.041" cy="388.037" r="31.2911" fill="#00EEC5"/>
<circle cx="639.322" cy="388.037" r="31.2911" fill="#00EEC5"/>
<circle cx="736.674" cy="388.037" r="31.2911" fill="#00EEC5"/>
<circle cx="834.026" cy="388.037" r="31.2911" fill="#00EEC5"/>
<circle cx="931.373" cy="388.037" r="31.2911" fill="#00EEC5"/>
<circle cx="1028.72" cy="388.037" r="31.2911" fill="#00EEC5"/>
<circle cx="1126.07" cy="388.037" r="31.2911" fill="#00EEC5"/>
<circle cx="57.2911" cy="497.619" r="31.2911" fill="#00EEC5"/>
<circle cx="154.643" cy="497.619" r="31.2911" fill="#00EEC5"/>
<circle cx="251.994" cy="497.619" r="31.2911" fill="#00EEC5"/>
<circle cx="349.342" cy="497.619" r="31.2911" fill="#00EEC5"/>
<circle cx="446.69" cy="497.619" r="31.2911" fill="#00EEC5"/>
<circle cx="544.041" cy="497.619" r="31.2911" fill="#00EEC5"/>
<circle cx="639.322" cy="497.619" r="31.2911" fill="#00EEC5"/>
<circle cx="736.674" cy="497.619" r="31.2911" fill="#00EEC5"/>
<circle cx="834.026" cy="497.619" r="31.2911" fill="#00EEC5"/>
<circle cx="931.373" cy="497.619" r="31.2911" fill="#00EEC5"/>
<circle cx="1028.72" cy="497.619" r="31.2911" fill="#00EEC5"/>
<circle cx="1126.07" cy="497.619" r="31.2911" fill="#00EEC5"/>
<circle cx="57.2911" cy="607.201" r="31.2911" fill="#00EEC5"/>
<circle cx="154.643" cy="607.201" r="31.2911" fill="#00EEC5"/>
<circle cx="251.994" cy="607.201" r="31.2911" fill="#00EEC5"/>
<circle cx="349.342" cy="607.201" r="31.2911" fill="#00EEC5"/>
<circle cx="446.69" cy="607.201" r="31.2911" fill="#00EEC5"/>
<circle cx="544.041" cy="607.201" r="31.2911" fill="#00EEC5"/>
<circle cx="639.322" cy="607.201" r="31.2911" fill="#00EEC5"/>
<circle cx="736.674" cy="607.201" r="31.2911" fill="#00EEC5"/>
<circle cx="834.026" cy="607.201" r="31.2911" fill="#00EEC5"/>
<circle cx="931.373" cy="607.201" r="31.2911" fill="#00EEC5"/>
<circle cx="1028.72" cy="607.201" r="31.2911" fill="#00EEC5"/>
<circle cx="1126.07" cy="607.201" r="31.2911" fill="#00EEC5"/>
<path d="M635.797 271.602C568.088 203.892 458.309 203.892 390.6 271.602C322.89 339.311 322.89 449.09 390.6 516.799L438.678 468.721C397.521 427.564 397.521 360.836 438.678 319.679C479.834 278.523 546.562 278.523 587.719 319.679L635.797 271.602Z" fill="#393A3D"/>
<path d="M548.789 394.195C616.498 461.905 726.277 461.905 793.986 394.195C861.696 326.486 861.696 216.707 793.986 148.998L745.908 197.076C787.065 238.233 787.065 304.961 745.908 346.117C704.752 387.274 638.024 387.274 596.867 346.117L548.789 394.195Z" fill="#006A56"/>
</svg>
