<svg width="1184" height="666" viewBox="0 0 1184 666" fill="none" xmlns="http://www.w3.org/2000/svg">
<g clip-path="url(#clip0_1_2479)">
<rect width="1184" height="666" fill="#F4F4EF"/>
<path d="M956 -31C690.904 -296.096 261.097 -296.097 -3.99979 -31.0001C-269.096 234.096 -269.096 663.903 -3.99987 929L956 -31Z" fill="#FFD1E9"/>
<path fill-rule="evenodd" clip-rule="evenodd" d="M99.5482 76.8233C57.7998 51.644 13.0935 51.643 -28.6858 76.8242L-34 43.5344C11.2388 16.268 59.6509 16.2665 104.863 43.5339C104.864 43.5343 104.862 43.5334 104.863 43.5339L156.833 74.8461C198.612 100.027 243.319 100.027 285.068 74.8476L337.039 43.5344C337.039 43.5342 337.038 43.5345 337.039 43.5344C382.277 16.2685 430.69 16.2667 475.902 43.5339C475.903 43.5343 475.901 43.5334 475.902 43.5339L527.871 74.8461C569.651 100.027 614.358 100.027 656.106 74.8476L708.077 43.5344C708.078 43.5342 708.077 43.5345 708.077 43.5344C753.316 16.2685 801.729 16.2667 846.941 43.5339C846.941 43.5343 846.94 43.5334 846.941 43.5339L898.91 74.8461C940.689 100.027 985.397 100.027 1027.15 74.8476L1079.12 43.5344C1124.36 16.2675 1172.77 16.2665 1217.98 43.5353L1212.66 76.8233C1170.92 51.644 1126.21 51.643 1084.43 76.8242L1032.46 108.136C1032.46 108.136 1032.46 108.135 1032.46 108.136C987.25 135.403 938.835 135.403 893.597 108.137L841.628 76.8247C799.88 51.6455 755.171 51.643 713.392 76.8242L661.424 108.136C616.211 135.404 567.798 135.403 522.559 108.137C522.559 108.137 522.559 108.137 522.559 108.137L470.589 76.8247C428.841 51.6455 384.132 51.643 342.353 76.8242L290.385 108.136C245.172 135.404 196.76 135.403 151.52 108.137C151.52 108.137 151.52 108.137 151.52 108.137L99.5482 76.8233Z" fill="#393A3D"/>
<path fill-rule="evenodd" clip-rule="evenodd" d="M99.5482 205.427C57.7998 180.248 13.0935 180.247 -28.6858 205.428L-34 172.138C11.2388 144.872 59.6509 144.87 104.863 172.137C104.864 172.138 104.862 172.137 104.863 172.137L156.833 203.45C198.612 228.631 243.319 228.63 285.068 203.451L337.039 172.138C337.039 172.138 337.038 172.138 337.039 172.138C382.277 144.872 430.69 144.87 475.902 172.137C475.903 172.138 475.901 172.137 475.902 172.137L527.871 203.45C569.651 228.631 614.358 228.63 656.106 203.451L708.077 172.138C708.078 172.138 708.077 172.138 708.077 172.138C753.316 144.872 801.729 144.87 846.941 172.137C846.941 172.138 846.94 172.137 846.941 172.137L898.91 203.45C940.689 228.631 985.397 228.63 1027.15 203.451L1079.12 172.138C1124.36 144.871 1172.77 144.87 1217.98 172.139L1212.66 205.427C1170.92 180.248 1126.21 180.247 1084.43 205.428L1032.46 236.739C1032.46 236.74 1032.46 236.739 1032.46 236.739C987.25 264.006 938.835 264.006 893.597 236.74L841.628 205.428C799.88 180.249 755.171 180.247 713.392 205.428L661.424 236.739C616.211 264.008 567.798 264.007 522.559 236.741C522.559 236.74 522.559 236.741 522.559 236.741L470.589 205.428C428.841 180.249 384.132 180.247 342.353 205.428L290.385 236.739C245.172 264.008 196.76 264.007 151.52 236.741C151.52 236.74 151.52 236.741 151.52 236.741L99.5482 205.427Z" fill="#393A3D"/>
<path fill-rule="evenodd" clip-rule="evenodd" d="M99.5482 334.032C57.7998 308.853 13.0935 308.852 -28.6858 334.033L-34 300.743C11.2388 273.477 59.6509 273.476 104.863 300.743C104.864 300.743 104.862 300.742 104.863 300.743L156.833 332.055C198.612 357.236 243.319 357.236 285.068 332.057L337.039 300.743C337.039 300.743 337.038 300.744 337.039 300.743C382.277 273.478 430.69 273.476 475.902 300.743C475.903 300.743 475.901 300.742 475.902 300.743L527.871 332.055C569.651 357.236 614.358 357.236 656.106 332.057L708.077 300.743C708.078 300.743 708.077 300.744 708.077 300.743C753.316 273.478 801.729 273.476 846.941 300.743C846.941 300.743 846.94 300.742 846.941 300.743L898.91 332.055C940.689 357.236 985.397 357.236 1027.15 332.057L1079.12 300.743C1124.36 273.477 1172.77 273.476 1217.98 300.744L1212.66 334.032C1170.92 308.853 1126.21 308.852 1084.43 334.033L1032.46 365.345C1032.46 365.345 1032.46 365.344 1032.46 365.345C987.25 392.612 938.835 392.612 893.597 365.346L841.628 334.034C799.88 308.854 755.171 308.852 713.392 334.033L661.424 365.345C616.211 392.613 567.798 392.612 522.559 365.346C522.559 365.346 522.559 365.346 522.559 365.346L470.589 334.034C428.841 308.854 384.132 308.852 342.353 334.033L290.385 365.345C245.172 392.613 196.76 392.612 151.52 365.346C151.52 365.346 151.52 365.346 151.52 365.346L99.5482 334.032Z" fill="#393A3D"/>
<path fill-rule="evenodd" clip-rule="evenodd" d="M99.5482 462.636C57.7998 437.457 13.0935 437.456 -28.6858 462.637L-34 429.347C11.2388 402.081 59.6509 402.079 104.863 429.346C104.864 429.347 104.862 429.346 104.863 429.346L156.833 460.659C198.612 485.84 243.319 485.839 285.068 460.66L337.039 429.347C337.039 429.347 337.038 429.347 337.039 429.347C382.277 402.081 430.69 402.079 475.902 429.346C475.903 429.347 475.901 429.346 475.902 429.346L527.871 460.659C569.651 485.84 614.358 485.839 656.106 460.66L708.077 429.347C708.078 429.347 708.077 429.347 708.077 429.347C753.316 402.081 801.729 402.079 846.941 429.346C846.941 429.347 846.94 429.346 846.941 429.346L898.91 460.659C940.689 485.84 985.397 485.839 1027.15 460.66L1079.12 429.347C1124.36 402.08 1172.77 402.079 1217.98 429.348L1212.66 462.636C1170.92 437.457 1126.21 437.456 1084.43 462.637L1032.46 493.948C1032.46 493.949 1032.46 493.948 1032.46 493.948C987.25 521.215 938.835 521.215 893.597 493.949L841.628 462.637C799.88 437.458 755.171 437.456 713.392 462.637L661.424 493.948C616.211 521.217 567.798 521.216 522.559 493.95C522.559 493.949 522.559 493.95 522.559 493.95L470.589 462.637C428.841 437.458 384.132 437.456 342.353 462.637L290.385 493.948C245.172 521.217 196.76 521.216 151.52 493.95C151.52 493.949 151.52 493.95 151.52 493.95L99.5482 462.636Z" fill="#393A3D"/>
<path fill-rule="evenodd" clip-rule="evenodd" d="M99.5482 591.237C57.7998 566.058 13.0935 566.057 -28.6858 591.238L-34 557.948C11.2388 530.682 59.6509 530.681 104.863 557.948C104.864 557.948 104.862 557.947 104.863 557.948L156.833 589.26C198.612 614.441 243.319 614.441 285.068 589.262L337.039 557.948C337.039 557.948 337.038 557.949 337.039 557.948C382.277 530.683 430.69 530.681 475.902 557.948C475.903 557.948 475.901 557.947 475.902 557.948L527.871 589.26C569.651 614.441 614.358 614.441 656.106 589.262L708.077 557.948C708.078 557.948 708.077 557.949 708.077 557.948C753.316 530.683 801.729 530.681 846.941 557.948C846.941 557.948 846.94 557.947 846.941 557.948L898.91 589.26C940.689 614.441 985.397 614.441 1027.15 589.262L1079.12 557.948C1124.36 530.682 1172.77 530.681 1217.98 557.949L1212.66 591.237C1170.92 566.058 1126.21 566.057 1084.43 591.238L1032.46 622.55C1032.46 622.55 1032.46 622.549 1032.46 622.55C987.25 649.817 938.835 649.817 893.597 622.551L841.628 591.239C799.88 566.06 755.171 566.057 713.392 591.238L661.424 622.55C616.211 649.818 567.798 649.817 522.559 622.551C522.559 622.551 522.559 622.551 522.559 622.551L470.589 591.239C428.841 566.06 384.132 566.057 342.353 591.238L290.385 622.55C245.172 649.818 196.76 649.817 151.52 622.551C151.52 622.551 151.52 622.551 151.52 622.551L99.5482 591.237Z" fill="#393A3D"/>
<path d="M480.641 443.998C603.247 566.605 802.032 566.605 924.639 443.998C1047.25 321.391 1047.25 122.606 924.639 -0.00072511L480.641 443.998Z" fill="#006A56"/>
<path d="M703 222.002C580.393 99.3951 381.608 99.395 259.001 222.002C136.394 344.609 136.394 543.394 259.001 666.001L703 222.002Z" fill="#00EEC5"/>
</g>
<defs>
<clipPath id="clip0_1_2479">
<rect width="1184" height="666" fill="white"/>
</clipPath>
</defs>
</svg>
