<svg width="1200" height="675" viewBox="0 0 1200 675" fill="none" xmlns="http://www.w3.org/2000/svg">
<g clip-path="url(#clip0_6_2624)">
<rect width="1200" height="675" fill="#FFD1E9"/>
<circle cx="1040.5" cy="346.5" r="489.5" fill="#F4F4EF"/>
<path fill-rule="evenodd" clip-rule="evenodd" d="M135.935 96C138.053 103.226 141.234 110.391 145.477 117.433L164.936 149.728C180.582 175.67 180.582 203.451 164.935 229.413L145.477 261.707C128.533 289.802 128.534 319.886 145.477 347.997L164.936 380.293C180.582 406.235 180.582 434.016 164.935 459.978L145.477 492.272C128.533 520.367 128.534 550.451 145.477 578.562L166.164 575.26C150.516 549.298 150.517 521.518 166.163 495.575L185.622 463.279C202.565 435.167 202.566 405.084 185.621 376.988L166.164 344.695C150.516 318.733 150.518 290.951 166.164 265.009L185.622 232.714C202.565 204.603 202.566 174.519 185.621 146.423L166.164 114.13C162.57 108.168 159.802 102.11 157.859 96H135.935Z" fill="#393A3D"/>
<path fill-rule="evenodd" clip-rule="evenodd" d="M201.036 96C203.154 103.226 206.335 110.391 210.579 117.433L230.037 149.728C245.684 175.67 245.684 203.451 230.036 229.413L210.579 261.707C193.635 289.802 193.636 319.886 210.579 347.997L230.037 380.293C245.684 406.235 245.684 434.016 230.036 459.978L210.579 492.272C193.635 520.367 193.636 550.451 210.579 578.562L231.265 575.26C215.618 549.298 215.618 521.518 231.265 495.575L250.723 463.279C267.667 435.167 267.667 405.084 250.722 376.988L231.265 344.695C215.618 318.733 215.619 290.951 231.266 265.009L250.723 232.714C267.667 204.603 267.667 174.519 250.722 146.423L231.265 114.13C227.672 108.168 224.904 102.11 222.961 96H201.036Z" fill="#393A3D"/>
<path fill-rule="evenodd" clip-rule="evenodd" d="M266.142 96C268.26 103.226 271.441 110.391 275.684 117.433L295.143 149.728C310.789 175.67 310.789 203.451 295.142 229.413L275.684 261.707C258.74 289.802 258.741 319.886 275.684 347.997L295.143 380.293C310.789 406.235 310.789 434.016 295.142 459.978L275.684 492.272C258.74 520.367 258.741 550.451 275.685 578.562L296.371 575.26C280.723 549.298 280.724 521.518 296.37 495.575L315.829 463.279C332.772 435.167 332.773 405.084 315.828 376.988L296.371 344.695C280.723 318.733 280.725 290.951 296.371 265.009L315.829 232.714C332.772 204.603 332.773 174.519 315.828 146.423L296.371 114.13C292.777 108.168 290.009 102.11 288.066 96H266.142Z" fill="#393A3D"/>
<path fill-rule="evenodd" clip-rule="evenodd" d="M331.243 96C333.361 103.226 336.542 110.391 340.786 117.433L360.244 149.728C375.891 175.67 375.891 203.451 360.243 229.413L340.786 261.707C323.842 289.802 323.843 319.886 340.786 347.997L360.244 380.293C375.891 406.235 375.891 434.016 360.243 459.978L340.786 492.272C323.842 520.367 323.843 550.451 340.786 578.562L361.473 575.26C345.825 549.298 345.825 521.518 361.472 495.575L380.93 463.279C397.874 435.167 397.874 405.084 380.929 376.988L361.473 344.695C345.825 318.733 345.826 290.951 361.473 265.009L380.93 232.714C397.874 204.603 397.874 174.519 380.929 146.423L361.473 114.13C357.879 108.168 355.111 102.11 353.168 96H331.243Z" fill="#393A3D"/>
<path fill-rule="evenodd" clip-rule="evenodd" d="M396.345 96C398.463 103.226 401.644 110.391 405.888 117.433L425.346 149.728C440.992 175.67 440.993 203.451 425.345 229.413L405.887 261.707C388.943 289.802 388.945 319.886 405.888 347.997L425.346 380.293C440.992 406.235 440.993 434.016 425.345 459.978L405.887 492.272C388.943 520.367 388.944 550.451 405.888 578.562L426.574 575.26C410.926 549.298 410.927 521.518 426.573 495.575L446.032 463.279C462.975 435.167 462.976 405.084 446.031 376.988L426.574 344.695C410.926 318.733 410.928 290.951 426.574 265.009L446.032 232.714C462.975 204.603 462.976 174.519 446.031 146.423L426.574 114.13C422.981 108.168 420.212 102.11 418.269 96H396.345Z" fill="#393A3D"/>
<circle cx="748.897" cy="56.8972" r="23.8972" fill="#00EEC5"/>
<circle cx="823.245" cy="56.8972" r="23.8972" fill="#00EEC5"/>
<circle cx="897.592" cy="56.8972" r="23.8972" fill="#00EEC5"/>
<circle cx="971.936" cy="56.8972" r="23.8972" fill="#00EEC5"/>
<circle cx="1046.28" cy="56.8972" r="23.8972" fill="#00EEC5"/>
<circle cx="1120.63" cy="56.8972" r="23.8972" fill="#00EEC5"/>
<circle cx="748.897" cy="148.897" r="23.8972" fill="#00EEC5"/>
<circle cx="1120.63" cy="148.897" r="23.8972" fill="#00EEC5"/>
<circle cx="748.897" cy="240.897" r="23.8972" fill="#00EEC5"/>
<circle cx="1120.63" cy="240.897" r="23.8972" fill="#00EEC5"/>
<circle cx="748.897" cy="332.897" r="23.8972" fill="#00EEC5"/>
<circle cx="1120.63" cy="332.897" r="23.8972" fill="#00EEC5"/>
<circle cx="748.897" cy="424.897" r="23.8972" fill="#00EEC5"/>
<circle cx="1120.63" cy="424.897" r="23.8972" fill="#00EEC5"/>
<circle cx="748.897" cy="516.897" r="23.8972" fill="#00EEC5"/>
<circle cx="1120.63" cy="516.897" r="23.8972" fill="#00EEC5"/>
<circle cx="748.897" cy="608.897" r="23.8972" fill="#00EEC5"/>
<circle cx="823.245" cy="608.897" r="23.8972" fill="#00EEC5"/>
<circle cx="897.592" cy="608.897" r="23.8972" fill="#00EEC5"/>
<circle cx="971.936" cy="608.897" r="23.8972" fill="#00EEC5"/>
<circle cx="1046.28" cy="608.897" r="23.8972" fill="#00EEC5"/>
<circle cx="1120.63" cy="608.897" r="23.8972" fill="#00EEC5"/>
<rect x="829" y="126" width="211.73" height="27.666" fill="#006A56"/>
<rect x="829" y="181.332" width="211.73" height="27.666" fill="#006A56"/>
<rect x="829" y="236.664" width="211.73" height="27.666" fill="#006A56"/>
<rect x="829" y="291.996" width="211.73" height="27.666" fill="#006A56"/>
<rect x="829" y="347.328" width="211.73" height="27.666" fill="#006A56"/>
<rect x="829" y="402.66" width="211.73" height="27.666" fill="#006A56"/>
<rect x="829" y="457.992" width="211.73" height="27.666" fill="#006A56"/>
<rect x="829" y="513.324" width="211.73" height="27.666" fill="#006A56"/>
</g>
<defs>
<clipPath id="clip0_6_2624">
<rect width="1200" height="675" fill="white"/>
</clipPath>
</defs>
</svg>
