<svg width="1200" height="675" viewBox="0 0 1200 675" fill="none" xmlns="http://www.w3.org/2000/svg">
<rect width="1200" height="675" fill="#F4F4EF"/>
<path d="M1184 254V668H770L1184 254Z" fill="#FFD1E9"/>
<path fill-rule="evenodd" clip-rule="evenodd" d="M299.073 181.068C273.577 165.692 246.275 165.691 220.761 181.069L217.516 160.739C245.143 144.088 274.708 144.087 302.319 160.739C302.319 160.739 302.318 160.738 302.319 160.739L334.057 179.861C359.571 195.239 386.873 195.239 412.369 179.862L444.108 160.739C444.108 160.739 444.108 160.739 444.108 160.739C471.735 144.088 501.3 144.087 528.911 160.739C528.911 160.739 528.91 160.738 528.911 160.739L560.649 179.861C586.163 195.239 613.466 195.239 638.961 179.862L670.7 160.739C670.7 160.739 670.7 160.739 670.7 160.739C698.327 144.088 727.892 144.087 755.503 160.739C755.503 160.739 755.502 160.738 755.503 160.739L787.241 179.861C812.755 195.239 840.058 195.239 865.553 179.862L897.292 160.739C924.919 144.087 954.485 144.087 982.096 160.74L978.849 181.068C953.354 165.692 926.052 165.691 900.537 181.069L868.8 200.191C868.8 200.191 868.801 200.19 868.8 200.191C841.19 216.843 811.623 216.843 783.996 200.191L752.259 181.069C726.763 165.692 699.46 165.691 673.945 181.069L642.208 200.191C614.597 216.844 585.032 216.843 557.404 200.192C557.404 200.192 557.404 200.192 557.404 200.192L525.667 181.069C500.171 165.692 472.868 165.691 447.353 181.069L415.616 200.191C388.005 216.844 358.44 216.843 330.812 200.192C330.812 200.192 330.812 200.192 330.812 200.192L299.073 181.068Z" fill="#00EEC5"/>
<path fill-rule="evenodd" clip-rule="evenodd" d="M299.073 259.607C273.577 244.231 246.275 244.23 220.761 259.608L217.516 239.278C245.143 222.627 274.708 222.626 302.319 239.278C302.319 239.278 302.318 239.277 302.319 239.278L334.057 258.4C359.571 273.778 386.873 273.778 412.369 258.401L444.108 239.278C444.108 239.278 444.108 239.278 444.108 239.278C471.735 222.627 501.3 222.626 528.911 239.278C528.911 239.278 528.91 239.277 528.911 239.278L560.649 258.4C586.163 273.778 613.466 273.778 638.961 258.401L670.7 239.278C670.7 239.278 670.7 239.278 670.7 239.278C698.327 222.627 727.892 222.626 755.503 239.278C755.503 239.278 755.502 239.277 755.503 239.278L787.241 258.4C812.755 273.778 840.058 273.778 865.553 258.401L897.292 239.278C924.919 222.626 954.485 222.626 982.096 239.279L978.849 259.607C953.354 244.231 926.052 244.23 900.537 259.608L868.8 278.73C868.8 278.73 868.801 278.729 868.8 278.73C841.19 295.382 811.623 295.382 783.996 278.73L752.259 259.608C726.763 244.231 699.46 244.23 673.945 259.608L642.208 278.73C614.597 295.383 585.032 295.382 557.404 278.731C557.404 278.731 557.404 278.731 557.404 278.731L525.667 259.608C500.171 244.231 472.868 244.23 447.353 259.608L415.616 278.73C388.005 295.383 358.44 295.382 330.812 278.731C330.812 278.731 330.812 278.731 330.812 278.731L299.073 259.607Z" fill="#00EEC5"/>
<path fill-rule="evenodd" clip-rule="evenodd" d="M299.073 338.147C273.577 322.77 246.275 322.769 220.761 338.147L217.516 317.817C245.143 301.166 274.708 301.165 302.319 317.817C302.319 317.817 302.318 317.816 302.319 317.817L334.057 336.939C359.571 352.317 386.873 352.317 412.369 336.94L444.108 317.817C444.108 317.817 444.108 317.817 444.108 317.817C471.735 301.166 501.3 301.165 528.911 317.817C528.911 317.817 528.91 317.816 528.911 317.817L560.649 336.939C586.163 352.317 613.466 352.317 638.961 336.94L670.7 317.817C670.7 317.817 670.7 317.817 670.7 317.817C698.327 301.166 727.892 301.165 755.503 317.817C755.503 317.817 755.502 317.816 755.503 317.817L787.241 336.939C812.755 352.317 840.058 352.317 865.553 336.94L897.292 317.817C924.919 301.165 954.485 301.165 982.096 317.818L978.849 338.147C953.354 322.77 926.052 322.769 900.537 338.147L868.8 357.269C868.8 357.269 868.801 357.269 868.8 357.269C841.19 373.921 811.623 373.921 783.996 357.269L752.259 338.147C726.763 322.771 699.46 322.769 673.945 338.147L642.208 357.269C614.597 373.922 585.032 373.921 557.404 357.27C557.404 357.27 557.404 357.27 557.404 357.27L525.667 338.147C500.171 322.771 472.868 322.769 447.353 338.147L415.616 357.269C388.005 373.922 358.44 373.921 330.812 357.27C330.812 357.27 330.812 357.27 330.812 357.27L299.073 338.147Z" fill="#00EEC5"/>
<path fill-rule="evenodd" clip-rule="evenodd" d="M299.073 416.682C273.577 401.305 246.275 401.304 220.761 416.682L217.516 396.352C245.143 379.701 274.708 379.7 302.319 396.352C302.319 396.352 302.318 396.352 302.319 396.352L334.057 415.474C359.571 430.852 386.873 430.852 412.369 415.475L444.108 396.352C444.108 396.352 444.108 396.352 444.108 396.352C471.735 379.701 501.3 379.7 528.911 396.352C528.911 396.352 528.91 396.352 528.911 396.352L560.649 415.474C586.163 430.852 613.466 430.852 638.961 415.475L670.7 396.352C670.7 396.352 670.7 396.352 670.7 396.352C698.327 379.701 727.892 379.7 755.503 396.352C755.503 396.352 755.502 396.352 755.503 396.352L787.241 415.474C812.755 430.852 840.058 430.852 865.553 415.475L897.292 396.352C924.919 379.701 954.485 379.7 982.096 396.353L978.849 416.682C953.354 401.305 926.052 401.304 900.537 416.682L868.8 435.804C868.8 435.804 868.801 435.804 868.8 435.804C841.19 452.456 811.623 452.456 783.996 435.805L752.259 416.683C726.763 401.306 699.46 401.304 673.945 416.682L642.208 435.804C614.597 452.457 585.032 452.456 557.404 435.805C557.404 435.805 557.404 435.805 557.404 435.805L525.667 416.683C500.171 401.306 472.868 401.304 447.353 416.682L415.616 435.804C388.005 452.457 358.44 452.456 330.812 435.805C330.812 435.805 330.812 435.805 330.812 435.805L299.073 416.682Z" fill="#00EEC5"/>
<path fill-rule="evenodd" clip-rule="evenodd" d="M299.073 495.221C273.577 479.844 246.275 479.843 220.761 495.221L217.516 474.891C245.143 458.24 274.708 458.239 302.319 474.891C302.319 474.891 302.318 474.891 302.319 474.891L334.057 494.013C359.571 509.391 386.873 509.391 412.369 494.014L444.108 474.891C444.108 474.891 444.108 474.891 444.108 474.891C471.735 458.24 501.3 458.239 528.911 474.891C528.911 474.891 528.91 474.891 528.911 474.891L560.649 494.013C586.163 509.391 613.466 509.391 638.961 494.014L670.7 474.891C670.7 474.891 670.7 474.891 670.7 474.891C698.327 458.24 727.892 458.239 755.503 474.891C755.503 474.891 755.502 474.891 755.503 474.891L787.241 494.013C812.755 509.391 840.058 509.391 865.553 494.014L897.292 474.891C924.919 458.24 954.485 458.239 982.096 474.892L978.849 495.221C953.354 479.844 926.052 479.843 900.537 495.221L868.8 514.343C868.8 514.343 868.801 514.343 868.8 514.343C841.19 530.995 811.623 530.995 783.996 514.344L752.259 495.222C726.763 479.845 699.46 479.843 673.945 495.221L642.208 514.343C614.597 530.996 585.032 530.995 557.404 514.344C557.404 514.344 557.404 514.344 557.404 514.344L525.667 495.222C500.171 479.845 472.868 479.843 447.353 495.221L415.616 514.343C388.005 530.996 358.44 530.995 330.812 514.344C330.812 514.344 330.812 514.344 330.812 514.344L299.073 495.221Z" fill="#00EEC5"/>
<rect x="190" y="126" width="211.73" height="27.666" fill="#393A3D"/>
<rect x="190" y="181.332" width="211.73" height="27.666" fill="#393A3D"/>
<rect x="190" y="236.664" width="211.73" height="27.666" fill="#393A3D"/>
<rect x="190" y="291.996" width="211.73" height="27.666" fill="#393A3D"/>
<rect x="190" y="347.328" width="211.73" height="27.666" fill="#393A3D"/>
<rect x="190" y="402.66" width="211.73" height="27.666" fill="#393A3D"/>
<rect x="190" y="457.992" width="211.73" height="27.666" fill="#393A3D"/>
<rect x="190" y="513.324" width="211.73" height="27.666" fill="#393A3D"/>
<rect x="486" y="126" width="211.73" height="27.666" fill="#393A3D"/>
<rect x="486" y="181.332" width="211.73" height="27.666" fill="#393A3D"/>
<rect x="486" y="236.664" width="211.73" height="27.666" fill="#393A3D"/>
<rect x="486" y="291.996" width="211.73" height="27.666" fill="#393A3D"/>
<rect x="486" y="347.328" width="211.73" height="27.666" fill="#393A3D"/>
<rect x="486" y="402.66" width="211.73" height="27.666" fill="#393A3D"/>
<rect x="486" y="457.992" width="211.73" height="27.666" fill="#393A3D"/>
<rect x="486" y="513.324" width="211.73" height="27.666" fill="#393A3D"/>
<rect x="782" y="126" width="211.73" height="27.666" fill="#393A3D"/>
<rect x="782" y="181.332" width="211.73" height="27.666" fill="#393A3D"/>
<rect x="782" y="236.664" width="211.73" height="27.666" fill="#393A3D"/>
<rect x="782" y="291.996" width="211.73" height="27.666" fill="#393A3D"/>
<rect x="782" y="347.328" width="211.73" height="27.666" fill="#393A3D"/>
<rect x="782" y="402.66" width="211.73" height="27.666" fill="#393A3D"/>
<rect x="782" y="457.992" width="211.73" height="27.666" fill="#393A3D"/>
<rect x="782" y="513.324" width="211.73" height="27.666" fill="#393A3D"/>
</svg>
