<svg width="1184" height="666" viewBox="0 0 1184 666" fill="none" xmlns="http://www.w3.org/2000/svg">
<rect width="1184" height="666" fill="#F4F4EF"/>
<rect x="102" y="121" width="1012.07" height="84.6919" fill="#FFD1E9"/>
<rect x="102" y="290.385" width="1012.07" height="84.6919" fill="#FFD1E9"/>
<rect x="102" y="459.768" width="1012.07" height="84.6919" fill="#FFD1E9"/>
<circle cx="57.2911" cy="59.2911" r="31.2911" fill="#00EEC5"/>
<circle cx="154.643" cy="59.2911" r="31.2911" fill="#00EEC5"/>
<circle cx="251.994" cy="59.2911" r="31.2911" fill="#00EEC5"/>
<circle cx="349.342" cy="59.2911" r="31.2911" fill="#00EEC5"/>
<circle cx="446.69" cy="59.2911" r="31.2911" fill="#00EEC5"/>
<circle cx="544.041" cy="59.2911" r="31.2911" fill="#00EEC5"/>
<circle cx="639.322" cy="59.2911" r="31.2911" fill="#00EEC5"/>
<circle cx="736.674" cy="59.2911" r="31.2911" fill="#00EEC5"/>
<circle cx="834.026" cy="59.2911" r="31.2911" fill="#00EEC5"/>
<circle cx="931.373" cy="59.2911" r="31.2911" fill="#00EEC5"/>
<circle cx="1028.72" cy="59.2911" r="31.2911" fill="#00EEC5"/>
<circle cx="1126.07" cy="59.2911" r="31.2911" fill="#00EEC5"/>
<circle cx="57.2911" cy="168.873" r="31.2911" fill="#00EEC5"/>
<circle cx="154.643" cy="168.873" r="31.2911" fill="#00EEC5"/>
<circle cx="251.994" cy="168.873" r="31.2911" fill="#00EEC5"/>
<circle cx="349.342" cy="168.873" r="31.2911" fill="#00EEC5"/>
<circle cx="446.69" cy="168.873" r="31.2911" fill="#00EEC5"/>
<circle cx="544.041" cy="168.873" r="31.2911" fill="#00EEC5"/>
<circle cx="639.322" cy="168.873" r="31.2911" fill="#00EEC5"/>
<circle cx="736.674" cy="168.873" r="31.2911" fill="#00EEC5"/>
<circle cx="834.026" cy="168.873" r="31.2911" fill="#00EEC5"/>
<circle cx="931.373" cy="168.873" r="31.2911" fill="#00EEC5"/>
<circle cx="1028.72" cy="168.873" r="31.2911" fill="#00EEC5"/>
<circle cx="1126.07" cy="168.873" r="31.2911" fill="#00EEC5"/>
<circle cx="57.2911" cy="278.455" r="31.2911" fill="#00EEC5"/>
<circle cx="154.643" cy="278.455" r="31.2911" fill="#00EEC5"/>
<circle cx="251.994" cy="278.455" r="31.2911" fill="#00EEC5"/>
<circle cx="349.342" cy="278.455" r="31.2911" fill="#00EEC5"/>
<circle cx="446.69" cy="278.455" r="31.2911" fill="#00EEC5"/>
<circle cx="544.041" cy="278.455" r="31.2911" fill="#00EEC5"/>
<circle cx="639.322" cy="278.455" r="31.2911" fill="#00EEC5"/>
<circle cx="736.674" cy="278.455" r="31.2911" fill="#00EEC5"/>
<circle cx="834.026" cy="278.455" r="31.2911" fill="#00EEC5"/>
<circle cx="931.373" cy="278.455" r="31.2911" fill="#00EEC5"/>
<circle cx="1028.72" cy="278.455" r="31.2911" fill="#00EEC5"/>
<circle cx="1126.07" cy="278.455" r="31.2911" fill="#00EEC5"/>
<circle cx="57.2911" cy="388.037" r="31.2911" fill="#00EEC5"/>
<circle cx="154.643" cy="388.037" r="31.2911" fill="#00EEC5"/>
<circle cx="251.994" cy="388.037" r="31.2911" fill="#00EEC5"/>
<circle cx="349.342" cy="388.037" r="31.2911" fill="#00EEC5"/>
<circle cx="446.69" cy="388.037" r="31.2911" fill="#00EEC5"/>
<circle cx="544.041" cy="388.037" r="31.2911" fill="#00EEC5"/>
<circle cx="639.322" cy="388.037" r="31.2911" fill="#00EEC5"/>
<circle cx="736.674" cy="388.037" r="31.2911" fill="#00EEC5"/>
<circle cx="834.026" cy="388.037" r="31.2911" fill="#00EEC5"/>
<circle cx="931.373" cy="388.037" r="31.2911" fill="#00EEC5"/>
<circle cx="1028.72" cy="388.037" r="31.2911" fill="#00EEC5"/>
<circle cx="1126.07" cy="388.037" r="31.2911" fill="#00EEC5"/>
<circle cx="57.2911" cy="497.619" r="31.2911" fill="#00EEC5"/>
<circle cx="154.643" cy="497.619" r="31.2911" fill="#00EEC5"/>
<circle cx="251.994" cy="497.619" r="31.2911" fill="#00EEC5"/>
<circle cx="349.342" cy="497.619" r="31.2911" fill="#00EEC5"/>
<circle cx="446.69" cy="497.619" r="31.2911" fill="#00EEC5"/>
<circle cx="544.041" cy="497.619" r="31.2911" fill="#00EEC5"/>
<circle cx="639.322" cy="497.619" r="31.2911" fill="#00EEC5"/>
<circle cx="736.674" cy="497.619" r="31.2911" fill="#00EEC5"/>
<circle cx="834.026" cy="497.619" r="31.2911" fill="#00EEC5"/>
<circle cx="931.373" cy="497.619" r="31.2911" fill="#00EEC5"/>
<circle cx="1028.72" cy="497.619" r="31.2911" fill="#00EEC5"/>
<circle cx="1126.07" cy="497.619" r="31.2911" fill="#00EEC5"/>
<circle cx="57.2911" cy="607.201" r="31.2911" fill="#00EEC5"/>
<circle cx="154.643" cy="607.201" r="31.2911" fill="#00EEC5"/>
<circle cx="251.994" cy="607.201" r="31.2911" fill="#00EEC5"/>
<circle cx="349.342" cy="607.201" r="31.2911" fill="#00EEC5"/>
<circle cx="446.69" cy="607.201" r="31.2911" fill="#00EEC5"/>
<circle cx="544.041" cy="607.201" r="31.2911" fill="#00EEC5"/>
<circle cx="639.322" cy="607.201" r="31.2911" fill="#00EEC5"/>
<circle cx="736.674" cy="607.201" r="31.2911" fill="#00EEC5"/>
<circle cx="834.026" cy="607.201" r="31.2911" fill="#00EEC5"/>
<circle cx="931.373" cy="607.201" r="31.2911" fill="#00EEC5"/>
<circle cx="1028.72" cy="607.201" r="31.2911" fill="#00EEC5"/>
<circle cx="1126.07" cy="607.201" r="31.2911" fill="#00EEC5"/>
<path d="M635.797 271.6C568.088 203.89 458.309 203.89 390.6 271.6C322.89 339.309 322.89 449.088 390.6 516.797L438.678 468.719C397.521 427.562 397.521 360.834 438.678 319.678C479.834 278.521 546.562 278.521 587.719 319.678L635.797 271.6Z" fill="#393A3D"/>
<path d="M548.789 394.197C616.498 461.907 726.277 461.907 793.986 394.197C861.696 326.488 861.696 216.709 793.986 149L745.908 197.078C787.065 238.235 787.065 304.963 745.908 346.119C704.752 387.276 638.024 387.276 596.867 346.119L548.789 394.197Z" fill="#006A56"/>
</svg>
