<svg width="1200" height="675" viewBox="0 0 1200 675" fill="none" xmlns="http://www.w3.org/2000/svg">
<g clip-path="url(#clip0_6_2572)">
<rect width="1200" height="675" fill="#F4F4EF"/>
<circle cx="535.553" cy="332.553" r="249.553" fill="#00EEC5"/>
<rect width="462" height="666" fill="#FFD1E9"/>
<mask id="mask0_6_2572" style="mask-type:alpha" maskUnits="userSpaceOnUse" x="0" y="0" width="462" height="666">
<rect width="462" height="666" fill="#FFD1E9"/>
</mask>
<g mask="url(#mask0_6_2572)">
<circle cx="535.553" cy="332.553" r="249.553" fill="#006A56"/>
</g>
<rect y="130" width="1244.97" height="27.1021" fill="#393A3D"/>
<rect y="184.203" width="1244.97" height="27.1021" fill="#393A3D"/>
<rect y="238.41" width="1244.97" height="27.1021" fill="#393A3D"/>
<rect y="292.613" width="1244.97" height="27.1021" fill="#393A3D"/>
<rect y="346.816" width="1244.97" height="27.1021" fill="#393A3D"/>
<rect y="401.02" width="1244.97" height="27.1021" fill="#393A3D"/>
<rect y="455.227" width="1244.97" height="27.1021" fill="#393A3D"/>
<rect y="509.43" width="1244.97" height="27.1021" fill="#393A3D"/>
<rect y="509.43" width="1244.97" height="27.1021" fill="#393A3D"/>
<path fill-rule="evenodd" clip-rule="evenodd" d="M994.5 428C1047.24 428 1090 385.243 1090 332.5C1090 279.757 1047.24 237 994.5 237C941.757 237 899 279.757 899 332.5C899 385.243 941.757 428 994.5 428ZM994.5 390.549C1026.56 390.549 1052.55 364.56 1052.55 332.5C1052.55 300.44 1026.56 274.451 994.5 274.451C962.44 274.451 936.451 300.44 936.451 332.5C936.451 364.56 962.44 390.549 994.5 390.549Z" fill="#00EEC5"/>
</g>
<defs>
<clipPath id="clip0_6_2572">
<rect width="1200" height="675" fill="white"/>
</clipPath>
</defs>
</svg>
