<svg width="1200" height="675" viewBox="0 0 1200 675" fill="none" xmlns="http://www.w3.org/2000/svg">
<g clip-path="url(#clip0_6_2469)">
<rect width="1200" height="675" fill="#F4F4EF"/>
<path d="M1315 -135V666H514L1315 -135Z" fill="#FFD1E9"/>
<circle cx="991.5" cy="332.5" r="106.5" fill="#00EEC5"/>
<path d="M2.00272e-05 232V666H434L2.00272e-05 232Z" fill="#FFD1E9"/>
<path fill-rule="evenodd" clip-rule="evenodd" d="M100.462 96C102.58 103.226 105.761 110.391 110.005 117.433L129.463 149.728C145.109 175.67 145.11 203.451 129.462 229.413L110.004 261.707C93.0606 289.802 93.0617 319.886 110.005 347.997L129.463 380.293C145.109 406.235 145.11 434.016 129.462 459.978L110.004 492.272C93.0605 520.367 93.0614 550.451 110.005 578.562L130.691 575.26C115.044 549.298 115.044 521.518 130.691 495.575L150.149 463.279C167.093 435.167 167.093 405.084 150.148 376.988L130.691 344.695C115.044 318.733 115.045 290.951 130.692 265.009L150.149 232.714C167.093 204.603 167.093 174.519 150.148 146.423L130.691 114.13C127.098 108.168 124.33 102.11 122.387 96H100.462Z" fill="#393A3D"/>
<path fill-rule="evenodd" clip-rule="evenodd" d="M165.564 96C167.682 103.226 170.863 110.391 175.106 117.433L194.565 149.728C210.211 175.67 210.211 203.451 194.564 229.413L175.106 261.707C158.162 289.802 158.163 319.886 175.106 347.997L194.565 380.293C210.211 406.235 210.211 434.016 194.564 459.978L175.106 492.272C158.162 520.367 158.163 550.451 175.106 578.562L195.793 575.26C180.145 549.298 180.146 521.518 195.792 495.575L215.251 463.279C232.194 435.167 232.195 405.084 215.25 376.988L195.793 344.695C180.145 318.733 180.147 290.951 195.793 265.009L215.251 232.714C232.194 204.603 232.195 174.519 215.25 146.423L195.793 114.13C192.199 108.168 189.431 102.11 187.488 96H165.564Z" fill="#393A3D"/>
<path fill-rule="evenodd" clip-rule="evenodd" d="M230.669 96C232.787 103.226 235.968 110.391 240.212 117.433L259.67 149.728C275.316 175.67 275.317 203.451 259.669 229.413L240.212 261.707C223.268 289.802 223.269 319.886 240.212 347.997L259.67 380.293C275.316 406.235 275.317 434.016 259.669 459.978L240.212 492.272C223.268 520.367 223.268 550.451 240.212 578.562L260.898 575.26C245.251 549.298 245.251 521.518 260.898 495.575L280.356 463.279C297.3 435.167 297.3 405.084 280.355 376.988L260.898 344.695C245.251 318.733 245.252 290.951 260.899 265.009L280.356 232.714C297.3 204.603 297.3 174.519 280.355 146.423L260.898 114.13C257.305 108.168 254.537 102.11 252.594 96H230.669Z" fill="#393A3D"/>
<path fill-rule="evenodd" clip-rule="evenodd" d="M295.771 96C297.889 103.226 301.07 110.391 305.313 117.433L324.772 149.728C340.418 175.67 340.418 203.451 324.771 229.413L305.313 261.707C288.369 289.802 288.37 319.886 305.313 347.997L324.772 380.293C340.418 406.235 340.418 434.016 324.771 459.978L305.313 492.272C288.369 520.367 288.37 550.451 305.313 578.562L326 575.26C310.352 549.298 310.353 521.518 325.999 495.575L345.458 463.279C362.401 435.167 362.402 405.084 345.457 376.988L326 344.695C310.352 318.733 310.354 290.951 326 265.009L345.458 232.714C362.401 204.603 362.402 174.519 345.457 146.423L326 114.13C322.406 108.168 319.638 102.11 317.695 96H295.771Z" fill="#393A3D"/>
<path fill-rule="evenodd" clip-rule="evenodd" d="M360.872 96C362.99 103.226 366.171 110.391 370.415 117.433L389.873 149.728C405.52 175.67 405.52 203.451 389.872 229.413L370.415 261.707C353.471 289.802 353.472 319.886 370.415 347.997L389.873 380.293C405.52 406.235 405.52 434.016 389.872 459.978L370.415 492.272C353.471 520.367 353.472 550.451 370.415 578.562L391.101 575.26C375.454 549.298 375.454 521.518 391.101 495.575L410.559 463.279C427.503 435.167 427.503 405.084 410.558 376.988L391.101 344.695C375.454 318.733 375.455 290.951 391.102 265.009L410.559 232.714C427.503 204.603 427.503 174.519 410.558 146.423L391.101 114.13C387.508 108.168 384.74 102.11 382.797 96H360.872Z" fill="#393A3D"/>
<mask id="mask0_6_2469" style="mask-type:alpha" maskUnits="userSpaceOnUse" x="0" y="232" width="434" height="434">
<path d="M2.00272e-05 232V666H434L2.00272e-05 232Z" fill="#FFD1E9"/>
</mask>
<g mask="url(#mask0_6_2469)">
<path fill-rule="evenodd" clip-rule="evenodd" d="M100.462 96C102.58 103.226 105.761 110.391 110.005 117.433L129.463 149.728C145.109 175.67 145.11 203.451 129.462 229.413L110.004 261.707C93.0606 289.802 93.0617 319.886 110.005 347.997L129.463 380.293C145.109 406.235 145.11 434.016 129.462 459.978L110.004 492.272C93.0605 520.367 93.0614 550.451 110.005 578.562L130.691 575.26C115.044 549.298 115.044 521.518 130.691 495.575L150.149 463.279C167.093 435.167 167.093 405.084 150.148 376.988L130.691 344.695C115.044 318.733 115.045 290.951 130.692 265.009L150.149 232.714C167.093 204.603 167.093 174.519 150.148 146.423L130.691 114.13C127.098 108.168 124.33 102.11 122.387 96H100.462Z" fill="#00EEC5"/>
<path fill-rule="evenodd" clip-rule="evenodd" d="M165.564 96C167.682 103.226 170.863 110.391 175.106 117.433L194.565 149.728C210.211 175.67 210.211 203.451 194.564 229.413L175.106 261.707C158.162 289.802 158.163 319.886 175.106 347.997L194.565 380.293C210.211 406.235 210.211 434.016 194.564 459.978L175.106 492.272C158.162 520.367 158.163 550.451 175.106 578.562L195.793 575.26C180.145 549.298 180.146 521.518 195.792 495.575L215.251 463.279C232.194 435.167 232.195 405.084 215.25 376.988L195.793 344.695C180.145 318.733 180.147 290.951 195.793 265.009L215.251 232.714C232.194 204.603 232.195 174.519 215.25 146.423L195.793 114.13C192.199 108.168 189.431 102.11 187.488 96H165.564Z" fill="#00EEC5"/>
<path fill-rule="evenodd" clip-rule="evenodd" d="M230.669 96C232.787 103.226 235.968 110.391 240.212 117.433L259.67 149.728C275.316 175.67 275.317 203.451 259.669 229.413L240.212 261.707C223.268 289.802 223.269 319.886 240.212 347.997L259.67 380.293C275.316 406.235 275.317 434.016 259.669 459.978L240.212 492.272C223.268 520.367 223.268 550.451 240.212 578.562L260.898 575.26C245.251 549.298 245.251 521.518 260.898 495.575L280.356 463.279C297.3 435.167 297.3 405.084 280.355 376.988L260.898 344.695C245.251 318.733 245.252 290.951 260.899 265.009L280.356 232.714C297.3 204.603 297.3 174.519 280.355 146.423L260.898 114.13C257.305 108.168 254.537 102.11 252.594 96H230.669Z" fill="#00EEC5"/>
<path fill-rule="evenodd" clip-rule="evenodd" d="M295.771 96C297.889 103.226 301.07 110.391 305.313 117.433L324.772 149.728C340.418 175.67 340.418 203.451 324.771 229.413L305.313 261.707C288.369 289.802 288.37 319.886 305.313 347.997L324.772 380.293C340.418 406.235 340.418 434.016 324.771 459.978L305.313 492.272C288.369 520.367 288.37 550.451 305.313 578.562L326 575.26C310.352 549.298 310.353 521.518 325.999 495.575L345.458 463.279C362.401 435.167 362.402 405.084 345.457 376.988L326 344.695C310.352 318.733 310.354 290.951 326 265.009L345.458 232.714C362.401 204.603 362.402 174.519 345.457 146.423L326 114.13C322.406 108.168 319.638 102.11 317.695 96H295.771Z" fill="#00EEC5"/>
<path fill-rule="evenodd" clip-rule="evenodd" d="M360.872 96C362.99 103.226 366.171 110.391 370.415 117.433L389.873 149.728C405.52 175.67 405.52 203.451 389.872 229.413L370.415 261.707C353.471 289.802 353.472 319.886 370.415 347.997L389.873 380.293C405.52 406.235 405.52 434.016 389.872 459.978L370.415 492.272C353.471 520.367 353.472 550.451 370.415 578.562L391.101 575.26C375.454 549.298 375.454 521.518 391.101 495.575L410.559 463.279C427.503 435.167 427.503 405.084 410.558 376.988L391.101 344.695C375.454 318.733 375.455 290.951 391.102 265.009L410.559 232.714C427.503 204.603 427.503 174.519 410.558 146.423L391.101 114.13C387.508 108.168 384.74 102.11 382.797 96H360.872Z" fill="#00EEC5"/>
</g>
<path fill-rule="evenodd" clip-rule="evenodd" d="M884.5 468C959.335 468 1020 407.335 1020 332.5C1020 257.665 959.335 197 884.5 197C809.665 197 749 257.665 749 332.5C749 407.335 809.665 468 884.5 468ZM884.5 414.863C929.988 414.863 966.863 377.988 966.863 332.5C966.863 287.012 929.988 250.137 884.5 250.137C839.012 250.137 802.137 287.012 802.137 332.5C802.137 377.988 839.012 414.863 884.5 414.863Z" fill="#006A56"/>
</g>
<defs>
<clipPath id="clip0_6_2469">
<rect width="1200" height="675" fill="white"/>
</clipPath>
</defs>
</svg>
