<svg width="1184" height="666" viewBox="0 0 1184 666" fill="none" xmlns="http://www.w3.org/2000/svg">
<rect width="1184" height="666" fill="#F4F4EF"/>
<rect x="817" width="367" height="333" fill="#FFD1E9"/>
<circle cx="841.5" cy="332.5" r="249.5" fill="#00EEC5"/>
<mask id="mask0_1_2285" style="mask-type:alpha" maskUnits="userSpaceOnUse" x="817" y="0" width="367" height="333">
<rect x="817" width="367" height="333" fill="#FFD1E9"/>
</mask>
<g mask="url(#mask0_1_2285)">
<circle cx="841.5" cy="332.5" r="249.5" fill="#006A56"/>
</g>
<path fill-rule="evenodd" clip-rule="evenodd" d="M98.5096 96C100.592 102.696 103.602 109.335 107.538 115.867L126.737 147.731C142.175 173.328 142.175 200.739 126.736 226.354L107.538 258.218C90.8202 285.938 90.8213 315.621 107.538 343.357L126.737 375.222C142.175 400.819 142.175 428.229 126.736 453.845L107.538 485.709C90.8201 513.429 90.821 543.111 107.539 570.848L127.949 567.59C112.51 541.974 112.511 514.564 127.949 488.967L147.148 457.102C163.865 429.365 163.866 399.682 147.147 371.962L127.949 340.099C112.51 314.484 112.512 287.072 127.949 261.475L147.148 229.612C163.865 201.875 163.866 172.192 147.147 144.471L127.949 112.609C124.655 107.142 122.063 101.595 120.175 96H98.5096Z" fill="#393A3D"/>
<path fill-rule="evenodd" clip-rule="evenodd" d="M162.744 96C164.827 102.696 167.836 109.335 171.773 115.867L190.972 147.731C206.409 173.328 206.41 200.739 190.971 226.354L171.773 258.218C155.055 285.938 155.056 315.621 171.773 343.357L190.972 375.222C206.409 400.819 206.41 428.229 190.971 453.845L171.773 485.709C155.054 513.429 155.055 543.111 171.773 570.848L192.184 567.59C176.744 541.974 176.745 514.564 192.183 488.967L211.382 457.102C228.099 429.365 228.1 399.682 211.381 371.962L192.184 340.099C176.744 314.484 176.746 287.072 192.184 261.475L211.382 229.612C228.099 201.875 228.1 172.192 211.381 144.471L192.183 112.609C188.889 107.142 186.298 101.595 184.409 96H162.744Z" fill="#393A3D"/>
<path fill-rule="evenodd" clip-rule="evenodd" d="M226.978 96C229.061 102.696 232.071 109.335 236.007 115.867L255.206 147.731C270.644 173.328 270.644 200.739 255.205 226.354L236.007 258.218C219.289 285.938 219.29 315.621 236.007 343.357L255.206 375.222C270.644 400.819 270.644 428.229 255.205 453.845L236.007 485.709C219.289 513.429 219.29 543.111 236.007 570.848L256.418 567.59C240.979 541.974 240.979 514.564 256.417 488.967L275.616 457.102C292.334 429.365 292.334 399.682 275.615 371.962L256.418 340.099C240.979 314.484 240.98 287.072 256.418 261.475L275.616 229.612C292.334 201.875 292.334 172.192 275.615 144.471L256.418 112.609C253.123 107.142 250.532 101.595 248.643 96H226.978Z" fill="#393A3D"/>
<path fill-rule="evenodd" clip-rule="evenodd" d="M291.213 96C293.295 102.696 296.305 109.335 300.242 115.867L319.44 147.731C334.878 173.328 334.879 200.739 319.439 226.354L300.241 258.218C283.523 285.938 283.524 315.621 300.242 343.357L319.44 375.222C334.878 400.819 334.879 428.229 319.439 453.845L300.241 485.709C283.523 513.429 283.524 543.111 300.242 570.848L320.652 567.59C305.213 541.974 305.214 514.564 320.652 488.967L339.851 457.102C356.568 429.365 356.569 399.682 339.85 371.962L320.652 340.099C305.213 314.484 305.215 287.072 320.653 261.475L339.851 229.612C356.568 201.875 356.569 172.192 339.85 144.471L320.652 112.609C317.358 107.142 314.766 101.595 312.878 96H291.213Z" fill="#393A3D"/>
<path fill-rule="evenodd" clip-rule="evenodd" d="M355.447 96C357.53 102.696 360.539 109.335 364.476 115.867L383.675 147.731C399.113 173.328 399.113 200.739 383.674 226.354L364.476 258.218C347.758 285.938 347.759 315.621 364.476 343.357L383.675 375.222C399.113 400.819 399.113 428.229 383.674 453.845L364.476 485.709C347.758 513.429 347.759 543.111 364.476 570.848L384.887 567.59C369.448 541.974 369.448 514.564 384.886 488.967L404.085 457.102C420.803 429.365 420.803 399.682 404.084 371.962L384.887 340.099C369.448 314.484 369.449 287.072 384.887 261.475L404.085 229.612C420.803 201.875 420.803 172.192 404.084 144.471L384.887 112.609C381.592 107.142 379.001 101.595 377.112 96H355.447Z" fill="#393A3D"/>
</svg>
