<svg width="1200" height="675" viewBox="0 0 1200 675" fill="none" xmlns="http://www.w3.org/2000/svg">
<g clip-path="url(#clip0_6_2442)">
<rect width="1200" height="675" fill="#F4F4EF"/>
<ellipse cx="206.5" cy="221.5" rx="488.5" ry="471.5" fill="#FFD1E9"/>
<path d="M958.5 0L1186.7 392.25H730.302L958.5 0Z" fill="#006A56"/>
<path fill-rule="evenodd" clip-rule="evenodd" d="M276.569 178.327C250.627 162.681 222.846 162.68 196.884 178.328L193.582 157.642C221.694 140.698 251.777 140.697 279.872 157.641C279.873 157.642 279.872 157.641 279.872 157.641L312.166 177.099C338.128 192.746 365.909 192.746 391.852 177.1L424.147 157.642C424.147 157.641 424.147 157.642 424.147 157.642C452.258 140.698 482.342 140.697 510.437 157.641C510.438 157.642 510.436 157.641 510.437 157.641L542.731 177.099C568.693 192.746 596.474 192.746 622.417 177.1L654.712 157.642C654.712 157.641 654.712 157.642 654.712 157.642C682.823 140.698 712.907 140.697 741.002 157.641C741.002 157.642 741.001 157.641 741.002 157.641L773.296 177.099C799.258 192.746 827.039 192.746 852.982 177.1L885.277 157.642C913.389 140.698 943.473 140.697 971.568 157.642L968.264 178.327C942.321 162.681 914.541 162.68 888.579 178.328L856.286 197.785C856.285 197.785 856.286 197.785 856.286 197.785C828.191 214.729 798.106 214.729 769.994 197.786L737.701 178.328C711.758 162.682 683.976 162.68 658.014 178.328L625.721 197.785C597.626 214.73 567.542 214.729 539.43 197.786C539.43 197.786 539.43 197.786 539.43 197.786L507.136 178.328C481.193 162.682 453.411 162.68 427.449 178.328L395.156 197.785C367.061 214.73 336.977 214.729 308.865 197.786C308.865 197.786 308.865 197.786 308.865 197.786L276.569 178.327Z" fill="#393A3D"/>
<path fill-rule="evenodd" clip-rule="evenodd" d="M276.569 258.241C250.627 242.595 222.846 242.594 196.884 258.242L193.582 237.556C221.694 220.612 251.777 220.611 279.872 237.555C279.873 237.556 279.872 237.555 279.872 237.555L312.166 257.013C338.128 272.661 365.909 272.66 391.852 257.014L424.147 237.556C424.147 237.555 424.147 237.556 424.147 237.556C452.258 220.613 482.342 220.611 510.437 237.555C510.438 237.556 510.436 237.555 510.437 237.555L542.731 257.013C568.693 272.661 596.474 272.66 622.417 257.014L654.712 237.556C654.712 237.555 654.712 237.556 654.712 237.556C682.823 220.612 712.907 220.611 741.002 237.555C741.002 237.556 741.001 237.555 741.002 237.555L773.296 257.013C799.258 272.661 827.039 272.66 852.982 257.014L885.277 237.556C913.389 220.612 943.473 220.611 971.568 237.556L968.264 258.241C942.321 242.595 914.541 242.594 888.579 258.242L856.286 277.699C856.285 277.699 856.286 277.699 856.286 277.699C828.191 294.643 798.106 294.643 769.994 277.7L737.701 258.242C711.758 242.596 683.976 242.594 658.014 258.242L625.721 277.699C597.626 294.644 567.542 294.643 539.43 277.7C539.43 277.7 539.43 277.7 539.43 277.7L507.136 258.242C481.193 242.596 453.411 242.594 427.449 258.242L395.156 277.699C367.061 294.644 336.977 294.643 308.865 277.7C308.865 277.7 308.865 277.7 308.865 277.7L276.569 258.241Z" fill="#393A3D"/>
<path fill-rule="evenodd" clip-rule="evenodd" d="M276.569 338.156C250.627 322.509 222.846 322.508 196.884 338.156L193.582 317.47C221.694 300.526 251.777 300.525 279.872 317.469C279.873 317.47 279.872 317.469 279.872 317.469L312.166 336.927C338.128 352.575 365.909 352.574 391.852 336.928L424.147 317.47C424.147 317.47 424.147 317.47 424.147 317.47C452.258 300.527 482.342 300.525 510.437 317.469C510.438 317.47 510.436 317.469 510.437 317.469L542.731 336.927C568.693 352.575 596.474 352.574 622.417 336.928L654.712 317.47C654.712 317.47 654.712 317.47 654.712 317.47C682.823 300.527 712.907 300.525 741.002 317.469C741.002 317.47 741.001 317.469 741.002 317.469L773.296 336.927C799.258 352.575 827.039 352.574 852.982 336.928L885.277 317.47C913.389 300.526 943.473 300.525 971.568 317.47L968.264 338.156C942.321 322.509 914.541 322.508 888.579 338.156L856.286 357.613C856.285 357.613 856.286 357.613 856.286 357.613C828.191 374.557 798.106 374.557 769.994 357.614L737.701 338.156C711.758 322.51 683.976 322.508 658.014 338.156L625.721 357.613C597.626 374.558 567.542 374.557 539.43 357.614C539.43 357.614 539.43 357.614 539.43 357.614L507.136 338.156C481.193 322.51 453.411 322.508 427.449 338.156L395.156 357.613C367.061 374.558 336.977 374.557 308.865 357.614C308.865 357.614 308.865 357.614 308.865 357.614L276.569 338.156Z" fill="#393A3D"/>
<path fill-rule="evenodd" clip-rule="evenodd" d="M276.569 418.073C250.627 402.427 222.846 402.426 196.884 418.074L193.582 397.388C221.694 380.444 251.777 380.443 279.872 397.387C279.873 397.388 279.872 397.387 279.872 397.387L312.166 416.845C338.128 432.493 365.909 432.492 391.852 416.846L424.147 397.388C424.147 397.388 424.147 397.388 424.147 397.388C452.258 380.445 482.342 380.443 510.437 397.387C510.438 397.388 510.436 397.387 510.437 397.387L542.731 416.845C568.693 432.493 596.474 432.492 622.417 416.846L654.712 397.388C654.712 397.388 654.712 397.388 654.712 397.388C682.823 380.445 712.907 380.443 741.002 397.387C741.002 397.388 741.001 397.387 741.002 397.387L773.296 416.845C799.258 432.493 827.039 432.492 852.982 416.846L885.277 397.388C913.389 380.444 943.473 380.443 971.568 397.388L968.264 418.073C942.321 402.427 914.541 402.426 888.579 418.074L856.286 437.531C856.285 437.531 856.286 437.531 856.286 437.531C828.191 454.475 798.106 454.475 769.994 437.532L737.701 418.074C711.758 402.428 683.976 402.426 658.014 418.074L625.721 437.531C597.626 454.476 567.542 454.475 539.43 437.532C539.43 437.532 539.43 437.532 539.43 437.532L507.136 418.074C481.193 402.428 453.411 402.426 427.449 418.074L395.156 437.531C367.061 454.476 336.977 454.475 308.865 437.532C308.865 437.532 308.865 437.532 308.865 437.532L276.569 418.073Z" fill="#393A3D"/>
<path fill-rule="evenodd" clip-rule="evenodd" d="M276.569 497.988C250.627 482.341 222.846 482.34 196.884 497.988L193.582 477.302C221.694 460.358 251.777 460.357 279.872 477.301C279.873 477.302 279.872 477.301 279.872 477.301L312.166 496.759C338.128 512.407 365.909 512.406 391.852 496.76L424.147 477.302C424.147 477.302 424.147 477.302 424.147 477.302C452.258 460.359 482.342 460.357 510.437 477.301C510.438 477.302 510.436 477.301 510.437 477.301L542.731 496.759C568.693 512.407 596.474 512.406 622.417 496.76L654.712 477.302C654.712 477.302 654.712 477.302 654.712 477.302C682.823 460.359 712.907 460.357 741.002 477.301C741.002 477.302 741.001 477.301 741.002 477.301L773.296 496.759C799.258 512.407 827.039 512.406 852.982 496.76L885.277 477.302C913.389 460.358 943.473 460.357 971.568 477.302L968.264 497.988C942.321 482.341 914.541 482.34 888.579 497.988L856.286 517.445C856.285 517.445 856.286 517.445 856.286 517.445C828.191 534.389 798.106 534.389 769.994 517.446L737.701 497.988C711.758 482.342 683.976 482.34 658.014 497.988L625.721 517.445C597.626 534.39 567.542 534.389 539.43 517.446C539.43 517.446 539.43 517.446 539.43 517.446L507.136 497.988C481.193 482.342 453.411 482.34 427.449 497.988L395.156 517.445C367.061 534.39 336.977 534.389 308.865 517.446C308.865 517.446 308.865 517.446 308.865 517.446L276.569 497.988Z" fill="#393A3D"/>
<circle cx="33.3529" cy="33.3529" r="33.3529" transform="matrix(1 0 0 -1 623 692.703)" fill="#00EEC5"/>
<circle cx="33.3529" cy="33.3529" r="33.3529" transform="matrix(1 0 0 -1 726.766 692.703)" fill="#00EEC5"/>
<circle cx="33.3529" cy="33.3529" r="33.3529" transform="matrix(1 0 0 -1 830.527 692.703)" fill="#00EEC5"/>
<circle cx="33.3529" cy="33.3529" r="33.3529" transform="matrix(1 0 0 -1 934.293 692.703)" fill="#00EEC5"/>
<circle cx="33.3529" cy="33.3529" r="33.3529" transform="matrix(1 0 0 -1 1038.06 692.703)" fill="#00EEC5"/>
<circle cx="33.3529" cy="33.3529" r="33.3529" transform="matrix(1 0 0 -1 1141.82 692.703)" fill="#00EEC5"/>
</g>
<defs>
<clipPath id="clip0_6_2442">
<rect width="1200" height="675" fill="white"/>
</clipPath>
</defs>
</svg>
