<svg width="1184" height="666" viewBox="0 0 1184 666" fill="none" xmlns="http://www.w3.org/2000/svg">
<g clip-path="url(#clip0_1_2204)">
<rect width="1184" height="666" fill="#FFD1E9"/>
<circle cx="1040.5" cy="346.5" r="489.5" fill="#F4F4EF"/>
<path fill-rule="evenodd" clip-rule="evenodd" d="M134.51 96C136.592 102.696 139.602 109.335 143.538 115.867L162.737 147.731C178.175 173.328 178.175 200.739 162.736 226.354L143.538 258.218C126.82 285.938 126.821 315.621 143.538 343.357L162.737 375.222C178.175 400.819 178.175 428.229 162.736 453.845L143.538 485.709C126.82 513.429 126.821 543.111 143.539 570.848L163.949 567.59C148.51 541.974 148.511 514.564 163.949 488.967L183.148 457.102C199.865 429.365 199.866 399.682 183.147 371.962L163.949 340.099C148.51 314.484 148.512 287.072 163.949 261.475L183.148 229.612C199.865 201.875 199.866 172.192 183.147 144.471L163.949 112.609C160.655 107.142 158.063 101.595 156.175 96H134.51Z" fill="#393A3D"/>
<path fill-rule="evenodd" clip-rule="evenodd" d="M198.744 96C200.827 102.696 203.836 109.335 207.773 115.867L226.972 147.731C242.409 173.328 242.41 200.739 226.971 226.354L207.773 258.218C191.055 285.938 191.056 315.621 207.773 343.357L226.972 375.222C242.409 400.819 242.41 428.229 226.971 453.845L207.773 485.709C191.054 513.429 191.055 543.111 207.773 570.848L228.184 567.59C212.744 541.974 212.745 514.564 228.183 488.967L247.382 457.102C264.099 429.365 264.1 399.682 247.381 371.962L228.184 340.099C212.744 314.484 212.746 287.072 228.184 261.475L247.382 229.612C264.099 201.875 264.1 172.192 247.381 144.471L228.183 112.609C224.889 107.142 222.298 101.595 220.409 96H198.744Z" fill="#393A3D"/>
<path fill-rule="evenodd" clip-rule="evenodd" d="M262.978 96C265.061 102.696 268.071 109.335 272.007 115.867L291.206 147.731C306.644 173.328 306.644 200.739 291.205 226.354L272.007 258.218C255.289 285.938 255.29 315.621 272.007 343.357L291.206 375.222C306.644 400.819 306.644 428.229 291.205 453.845L272.007 485.709C255.289 513.429 255.29 543.111 272.007 570.848L292.418 567.59C276.979 541.974 276.979 514.564 292.417 488.967L311.616 457.102C328.334 429.365 328.334 399.682 311.615 371.962L292.418 340.099C276.979 314.484 276.98 287.072 292.418 261.475L311.616 229.612C328.334 201.875 328.334 172.192 311.615 144.471L292.418 112.609C289.123 107.142 286.532 101.595 284.643 96H262.978Z" fill="#393A3D"/>
<path fill-rule="evenodd" clip-rule="evenodd" d="M327.213 96C329.295 102.696 332.305 109.335 336.242 115.867L355.44 147.731C370.878 173.328 370.879 200.739 355.439 226.354L336.241 258.218C319.523 285.938 319.524 315.621 336.242 343.357L355.44 375.222C370.878 400.819 370.879 428.229 355.439 453.845L336.241 485.709C319.523 513.429 319.524 543.111 336.242 570.848L356.652 567.59C341.213 541.974 341.214 514.564 356.652 488.967L375.851 457.102C392.568 429.365 392.569 399.682 375.85 371.962L356.652 340.099C341.213 314.484 341.215 287.072 356.653 261.475L375.851 229.612C392.568 201.875 392.569 172.192 375.85 144.471L356.652 112.609C353.358 107.142 350.766 101.595 348.878 96H327.213Z" fill="#393A3D"/>
<path fill-rule="evenodd" clip-rule="evenodd" d="M391.447 96C393.53 102.696 396.539 109.335 400.476 115.867L419.675 147.731C435.113 173.328 435.113 200.739 419.674 226.354L400.476 258.218C383.758 285.938 383.759 315.621 400.476 343.357L419.675 375.222C435.113 400.819 435.113 428.229 419.674 453.845L400.476 485.709C383.758 513.429 383.759 543.111 400.476 570.848L420.887 567.59C405.448 541.974 405.448 514.564 420.886 488.967L440.085 457.102C456.803 429.365 456.803 399.682 440.084 371.962L420.887 340.099C405.448 314.484 405.449 287.072 420.887 261.475L440.085 229.612C456.803 201.875 456.803 172.192 440.084 144.471L420.887 112.609C417.592 107.142 415.001 101.595 413.112 96H391.447Z" fill="#393A3D"/>
<circle cx="748.897" cy="56.8972" r="23.8972" fill="#00EEC5"/>
<circle cx="823.245" cy="56.8972" r="23.8972" fill="#00EEC5"/>
<circle cx="897.592" cy="56.8972" r="23.8972" fill="#00EEC5"/>
<circle cx="971.936" cy="56.8972" r="23.8972" fill="#00EEC5"/>
<circle cx="1046.28" cy="56.8972" r="23.8972" fill="#00EEC5"/>
<circle cx="1120.63" cy="56.8972" r="23.8972" fill="#00EEC5"/>
<circle cx="748.897" cy="148.897" r="23.8972" fill="#00EEC5"/>
<circle cx="1120.63" cy="148.897" r="23.8972" fill="#00EEC5"/>
<circle cx="748.897" cy="240.897" r="23.8972" fill="#00EEC5"/>
<circle cx="1120.63" cy="240.897" r="23.8972" fill="#00EEC5"/>
<circle cx="748.897" cy="332.897" r="23.8972" fill="#00EEC5"/>
<circle cx="1120.63" cy="332.897" r="23.8972" fill="#00EEC5"/>
<circle cx="748.897" cy="424.897" r="23.8972" fill="#00EEC5"/>
<circle cx="1120.63" cy="424.897" r="23.8972" fill="#00EEC5"/>
<circle cx="748.897" cy="516.897" r="23.8972" fill="#00EEC5"/>
<circle cx="1120.63" cy="516.897" r="23.8972" fill="#00EEC5"/>
<circle cx="748.897" cy="608.897" r="23.8972" fill="#00EEC5"/>
<circle cx="823.245" cy="608.897" r="23.8972" fill="#00EEC5"/>
<circle cx="897.592" cy="608.897" r="23.8972" fill="#00EEC5"/>
<circle cx="971.936" cy="608.897" r="23.8972" fill="#00EEC5"/>
<circle cx="1046.28" cy="608.897" r="23.8972" fill="#00EEC5"/>
<circle cx="1120.63" cy="608.897" r="23.8972" fill="#00EEC5"/>
<rect x="829" y="126" width="211.73" height="27.666" fill="#006A56"/>
<rect x="829" y="181.332" width="211.73" height="27.666" fill="#006A56"/>
<rect x="829" y="236.664" width="211.73" height="27.666" fill="#006A56"/>
<rect x="829" y="291.996" width="211.73" height="27.666" fill="#006A56"/>
<rect x="829" y="347.328" width="211.73" height="27.666" fill="#006A56"/>
<rect x="829" y="402.66" width="211.73" height="27.666" fill="#006A56"/>
<rect x="829" y="457.992" width="211.73" height="27.666" fill="#006A56"/>
<rect x="829" y="513.324" width="211.73" height="27.666" fill="#006A56"/>
</g>
<defs>
<clipPath id="clip0_1_2204">
<rect width="1184" height="666" fill="white"/>
</clipPath>
</defs>
</svg>
