<svg width="1184" height="666" viewBox="0 0 1184 666" fill="none" xmlns="http://www.w3.org/2000/svg">
<g clip-path="url(#clip0_1_2115)">
<rect width="1184" height="666" fill="#F4F4EF"/>
<path d="M1315 -135V666H514L1315 -135Z" fill="#FFD1E9"/>
<circle cx="991.5" cy="332.5" r="106.5" fill="#00EEC5"/>
<path d="M2.00272e-05 232V666H434L2.00272e-05 232Z" fill="#FFD1E9"/>
<path fill-rule="evenodd" clip-rule="evenodd" d="M99.5096 96C101.592 102.696 104.602 109.335 108.538 115.867L127.737 147.731C143.175 173.328 143.175 200.739 127.736 226.354L108.538 258.218C91.8202 285.938 91.8213 315.621 108.538 343.357L127.737 375.222C143.175 400.819 143.175 428.229 127.736 453.845L108.538 485.709C91.8201 513.429 91.821 543.111 108.539 570.848L128.949 567.59C113.51 541.974 113.511 514.564 128.949 488.967L148.148 457.102C164.865 429.365 164.866 399.682 148.147 371.962L128.949 340.099C113.51 314.484 113.512 287.072 128.949 261.475L148.148 229.612C164.865 201.875 164.866 172.192 148.147 144.471L128.949 112.609C125.655 107.142 123.063 101.595 121.175 96H99.5096Z" fill="#393A3D"/>
<path fill-rule="evenodd" clip-rule="evenodd" d="M163.744 96C165.827 102.696 168.836 109.335 172.773 115.867L191.972 147.731C207.409 173.328 207.41 200.739 191.971 226.354L172.773 258.218C156.055 285.938 156.056 315.621 172.773 343.357L191.972 375.222C207.409 400.819 207.41 428.229 191.971 453.845L172.773 485.709C156.054 513.429 156.055 543.111 172.773 570.848L193.184 567.59C177.744 541.974 177.745 514.564 193.183 488.967L212.382 457.102C229.099 429.365 229.1 399.682 212.381 371.962L193.184 340.099C177.744 314.484 177.746 287.072 193.184 261.475L212.382 229.612C229.099 201.875 229.1 172.192 212.381 144.471L193.183 112.609C189.889 107.142 187.298 101.595 185.409 96H163.744Z" fill="#393A3D"/>
<path fill-rule="evenodd" clip-rule="evenodd" d="M227.978 96C230.061 102.696 233.071 109.335 237.007 115.867L256.206 147.731C271.644 173.328 271.644 200.739 256.205 226.354L237.007 258.218C220.289 285.938 220.29 315.621 237.007 343.357L256.206 375.222C271.644 400.819 271.644 428.229 256.205 453.845L237.007 485.709C220.289 513.429 220.29 543.111 237.007 570.848L257.418 567.59C241.979 541.974 241.979 514.564 257.417 488.967L276.616 457.102C293.334 429.365 293.334 399.682 276.615 371.962L257.418 340.099C241.979 314.484 241.98 287.072 257.418 261.475L276.616 229.612C293.334 201.875 293.334 172.192 276.615 144.471L257.418 112.609C254.123 107.142 251.532 101.595 249.643 96H227.978Z" fill="#393A3D"/>
<path fill-rule="evenodd" clip-rule="evenodd" d="M292.213 96C294.295 102.696 297.305 109.335 301.242 115.867L320.44 147.731C335.878 173.328 335.879 200.739 320.439 226.354L301.241 258.218C284.523 285.938 284.524 315.621 301.242 343.357L320.44 375.222C335.878 400.819 335.879 428.229 320.439 453.845L301.241 485.709C284.523 513.429 284.524 543.111 301.242 570.848L321.652 567.59C306.213 541.974 306.214 514.564 321.652 488.967L340.851 457.102C357.568 429.365 357.569 399.682 340.85 371.962L321.652 340.099C306.213 314.484 306.215 287.072 321.653 261.475L340.851 229.612C357.568 201.875 357.569 172.192 340.85 144.471L321.652 112.609C318.358 107.142 315.766 101.595 313.878 96H292.213Z" fill="#393A3D"/>
<path fill-rule="evenodd" clip-rule="evenodd" d="M356.447 96C358.53 102.696 361.539 109.335 365.476 115.867L384.675 147.731C400.113 173.328 400.113 200.739 384.674 226.354L365.476 258.218C348.758 285.938 348.759 315.621 365.476 343.357L384.675 375.222C400.113 400.819 400.113 428.229 384.674 453.845L365.476 485.709C348.758 513.429 348.759 543.111 365.476 570.848L385.887 567.59C370.448 541.974 370.448 514.564 385.886 488.967L405.085 457.102C421.803 429.365 421.803 399.682 405.084 371.962L385.887 340.099C370.448 314.484 370.449 287.072 385.887 261.475L405.085 229.612C421.803 201.875 421.803 172.192 405.084 144.471L385.887 112.609C382.592 107.142 380.001 101.595 378.112 96H356.447Z" fill="#393A3D"/>
<mask id="mask0_1_2115" style="mask-type:alpha" maskUnits="userSpaceOnUse" x="0" y="232" width="434" height="434">
<path d="M2.00272e-05 232V666H434L2.00272e-05 232Z" fill="#FFD1E9"/>
</mask>
<g mask="url(#mask0_1_2115)">
<path fill-rule="evenodd" clip-rule="evenodd" d="M99.5096 96C101.592 102.696 104.602 109.335 108.538 115.867L127.737 147.731C143.175 173.328 143.175 200.739 127.736 226.354L108.538 258.218C91.8202 285.938 91.8213 315.621 108.538 343.357L127.737 375.222C143.175 400.819 143.175 428.229 127.736 453.845L108.538 485.709C91.8201 513.429 91.821 543.111 108.539 570.848L128.949 567.59C113.51 541.974 113.511 514.564 128.949 488.967L148.148 457.102C164.865 429.365 164.866 399.682 148.147 371.962L128.949 340.099C113.51 314.484 113.512 287.072 128.949 261.475L148.148 229.612C164.865 201.875 164.866 172.192 148.147 144.471L128.949 112.609C125.655 107.142 123.063 101.595 121.175 96H99.5096Z" fill="#00EEC5"/>
<path fill-rule="evenodd" clip-rule="evenodd" d="M163.744 96C165.827 102.696 168.836 109.335 172.773 115.867L191.972 147.731C207.409 173.328 207.41 200.739 191.971 226.354L172.773 258.218C156.055 285.938 156.056 315.621 172.773 343.357L191.972 375.222C207.409 400.819 207.41 428.229 191.971 453.845L172.773 485.709C156.054 513.429 156.055 543.111 172.773 570.848L193.184 567.59C177.744 541.974 177.745 514.564 193.183 488.967L212.382 457.102C229.099 429.365 229.1 399.682 212.381 371.962L193.184 340.099C177.744 314.484 177.746 287.072 193.184 261.475L212.382 229.612C229.099 201.875 229.1 172.192 212.381 144.471L193.183 112.609C189.889 107.142 187.298 101.595 185.409 96H163.744Z" fill="#00EEC5"/>
<path fill-rule="evenodd" clip-rule="evenodd" d="M227.978 96C230.061 102.696 233.071 109.335 237.007 115.867L256.206 147.731C271.644 173.328 271.644 200.739 256.205 226.354L237.007 258.218C220.289 285.938 220.29 315.621 237.007 343.357L256.206 375.222C271.644 400.819 271.644 428.229 256.205 453.845L237.007 485.709C220.289 513.429 220.29 543.111 237.007 570.848L257.418 567.59C241.979 541.974 241.979 514.564 257.417 488.967L276.616 457.102C293.334 429.365 293.334 399.682 276.615 371.962L257.418 340.099C241.979 314.484 241.98 287.072 257.418 261.475L276.616 229.612C293.334 201.875 293.334 172.192 276.615 144.471L257.418 112.609C254.123 107.142 251.532 101.595 249.643 96H227.978Z" fill="#00EEC5"/>
<path fill-rule="evenodd" clip-rule="evenodd" d="M292.213 96C294.295 102.696 297.305 109.335 301.242 115.867L320.44 147.731C335.878 173.328 335.879 200.739 320.439 226.354L301.241 258.218C284.523 285.938 284.524 315.621 301.242 343.357L320.44 375.222C335.878 400.819 335.879 428.229 320.439 453.845L301.241 485.709C284.523 513.429 284.524 543.111 301.242 570.848L321.652 567.59C306.213 541.974 306.214 514.564 321.652 488.967L340.851 457.102C357.568 429.365 357.569 399.682 340.85 371.962L321.652 340.099C306.213 314.484 306.215 287.072 321.653 261.475L340.851 229.612C357.568 201.875 357.569 172.192 340.85 144.471L321.652 112.609C318.358 107.142 315.766 101.595 313.878 96H292.213Z" fill="#00EEC5"/>
<path fill-rule="evenodd" clip-rule="evenodd" d="M356.447 96C358.53 102.696 361.539 109.335 365.476 115.867L384.675 147.731C400.113 173.328 400.113 200.739 384.674 226.354L365.476 258.218C348.758 285.938 348.759 315.621 365.476 343.357L384.675 375.222C400.113 400.819 400.113 428.229 384.674 453.845L365.476 485.709C348.758 513.429 348.759 543.111 365.476 570.848L385.887 567.59C370.448 541.974 370.448 514.564 385.886 488.967L405.085 457.102C421.803 429.365 421.803 399.682 405.084 371.962L385.887 340.099C370.448 314.484 370.449 287.072 385.887 261.475L405.085 229.612C421.803 201.875 421.803 172.192 405.084 144.471L385.887 112.609C382.592 107.142 380.001 101.595 378.112 96H356.447Z" fill="#00EEC5"/>
</g>
<path fill-rule="evenodd" clip-rule="evenodd" d="M884.5 468C959.335 468 1020 407.335 1020 332.5C1020 257.665 959.335 197 884.5 197C809.665 197 749 257.665 749 332.5C749 407.335 809.665 468 884.5 468ZM884.5 414.863C929.988 414.863 966.863 377.988 966.863 332.5C966.863 287.012 929.988 250.137 884.5 250.137C839.012 250.137 802.137 287.012 802.137 332.5C802.137 377.988 839.012 414.863 884.5 414.863Z" fill="#006A56"/>
</g>
<defs>
<clipPath id="clip0_1_2115">
<rect width="1184" height="666" fill="white"/>
</clipPath>
</defs>
</svg>
