<svg width="1184" height="666" viewBox="0 0 1184 666" fill="none" xmlns="http://www.w3.org/2000/svg">
<g clip-path="url(#clip0_1_1992)">
<rect width="1184" height="666" fill="#FFD1E9"/>
<rect x="1023" width="161" height="672" fill="#F4F4EF"/>
<circle cx="156" cy="138" r="238" fill="#00EEC5"/>
<path fill-rule="evenodd" clip-rule="evenodd" d="M393.5 508C439.616 508 477 470.616 477 424.5C477 378.384 439.616 341 393.5 341C347.384 341 310 378.384 310 424.5C310 470.616 347.384 508 393.5 508ZM393.5 475.255C421.531 475.255 444.255 452.531 444.255 424.5C444.255 396.469 421.531 373.745 393.5 373.745C365.469 373.745 342.745 396.469 342.745 424.5C342.745 452.531 365.469 475.255 393.5 475.255Z" fill="#006A56"/>
<rect x="913" y="130" width="1244.97" height="27.1021" fill="#393A3D"/>
<rect x="913" y="184.203" width="1244.97" height="27.1021" fill="#393A3D"/>
<rect x="913" y="238.41" width="1244.97" height="27.1021" fill="#393A3D"/>
<rect x="913" y="292.613" width="1244.97" height="27.1021" fill="#393A3D"/>
<rect x="913" y="346.816" width="1244.97" height="27.1021" fill="#393A3D"/>
<rect x="913" y="401.02" width="1244.97" height="27.1021" fill="#393A3D"/>
<rect x="913" y="455.227" width="1244.97" height="27.1021" fill="#393A3D"/>
<rect x="913" y="509.43" width="1244.97" height="27.1021" fill="#393A3D"/>
</g>
<defs>
<clipPath id="clip0_1_1992">
<rect width="1184" height="666" fill="white"/>
</clipPath>
</defs>
</svg>
