<svg width="1184" height="666" viewBox="0 0 1184 666" fill="none" xmlns="http://www.w3.org/2000/svg">
<rect width="1184" height="666" fill="#F4F4EF"/>
<rect width="590" height="666" fill="#FFD1E9"/>
<path fill-rule="evenodd" clip-rule="evenodd" d="M591.553 582.107C729.378 582.107 841.107 470.378 841.107 332.553C841.107 194.729 729.378 83 591.553 83C453.729 83 342 194.729 342 332.553C342 470.378 453.729 582.107 591.553 582.107ZM591.553 484.243C675.329 484.243 743.243 416.329 743.243 332.553C743.243 248.778 675.329 180.864 591.553 180.864C507.778 180.864 439.864 248.778 439.864 332.553C439.864 416.329 507.778 484.243 591.553 484.243Z" fill="#00EEC5"/>
<path fill-rule="evenodd" clip-rule="evenodd" d="M287.881 175.949C262.284 160.511 234.874 160.51 209.258 175.949L206 155.538C233.737 138.821 263.419 138.82 291.14 155.538C291.14 155.538 291.139 155.538 291.14 155.538L323.003 174.736C348.619 190.175 376.029 190.175 401.626 174.737L433.491 155.538C433.491 155.538 433.491 155.539 433.491 155.538C461.227 138.821 490.91 138.82 518.63 155.538C518.631 155.538 518.63 155.538 518.63 155.538L550.494 174.736C576.109 190.175 603.52 190.175 629.117 174.737L660.981 155.538C660.981 155.538 660.981 155.539 660.981 155.538C688.718 138.821 718.401 138.82 746.121 155.538C746.121 155.538 746.12 155.538 746.121 155.538L777.984 174.736C803.6 190.175 831.011 190.175 856.608 174.737L888.472 155.538C916.209 138.821 945.892 138.82 973.613 155.539L970.353 175.949C944.756 160.511 917.346 160.51 891.73 175.949L859.868 195.147C859.867 195.147 859.868 195.146 859.868 195.147C832.147 211.865 802.463 211.865 774.727 195.147L742.864 175.949C717.267 160.512 689.855 160.51 664.24 175.949L632.377 195.147C604.656 211.866 574.974 211.865 547.236 195.148C547.236 195.147 547.237 195.148 547.236 195.148L515.373 175.949C489.776 160.512 462.365 160.51 436.749 175.949L404.886 195.147C377.166 211.866 347.483 211.865 319.746 195.148C319.746 195.147 319.746 195.148 319.746 195.148L287.881 175.949Z" fill="#393A3D"/>
<path fill-rule="evenodd" clip-rule="evenodd" d="M287.881 254.798C262.284 239.36 234.874 239.36 209.258 254.799L206 234.388C233.737 217.671 263.419 217.67 291.14 234.388C291.14 234.388 291.139 234.387 291.14 234.388L323.003 253.586C348.619 269.025 376.029 269.025 401.626 253.587L433.491 234.388C433.491 234.388 433.491 234.388 433.491 234.388C461.227 217.671 490.91 217.67 518.63 234.388C518.631 234.388 518.63 234.388 518.63 234.388L550.494 253.586C576.109 269.025 603.52 269.025 629.117 253.587L660.981 234.388C660.981 234.388 660.981 234.388 660.981 234.388C688.718 217.671 718.401 217.67 746.121 234.388C746.121 234.388 746.12 234.388 746.121 234.388L777.984 253.586C803.6 269.025 831.011 269.025 856.608 253.587L888.472 234.388C916.209 217.67 945.892 217.67 973.613 234.389L970.353 254.798C944.756 239.36 917.346 239.36 891.73 254.799L859.868 273.996C859.867 273.997 859.868 273.996 859.868 273.996C832.147 290.714 802.463 290.714 774.727 273.997L742.864 254.799C717.267 239.361 689.855 239.36 664.24 254.799L632.377 273.996C604.656 290.715 574.974 290.715 547.236 273.997C547.236 273.997 547.237 273.997 547.236 273.997L515.373 254.799C489.776 239.361 462.365 239.36 436.749 254.799L404.886 273.996C377.166 290.715 347.483 290.715 319.746 273.997C319.746 273.997 319.746 273.997 319.746 273.997L287.881 254.798Z" fill="#393A3D"/>
<path fill-rule="evenodd" clip-rule="evenodd" d="M287.881 333.648C262.284 318.21 234.874 318.209 209.258 333.648L206 313.238C233.737 296.52 263.419 296.519 291.14 313.237C291.14 313.238 291.139 313.237 291.14 313.237L323.003 332.436C348.619 347.875 376.029 347.874 401.626 332.436L433.491 313.238C433.491 313.238 433.491 313.238 433.491 313.238C461.227 296.521 490.91 296.519 518.63 313.237C518.631 313.238 518.63 313.237 518.63 313.237L550.494 332.436C576.109 347.875 603.52 347.874 629.117 332.436L660.981 313.238C660.981 313.238 660.981 313.238 660.981 313.238C688.718 296.521 718.401 296.519 746.121 313.237C746.121 313.238 746.12 313.237 746.121 313.237L777.984 332.436C803.6 347.875 831.011 347.874 856.608 332.436L888.472 313.238C916.209 296.52 945.892 296.519 973.613 313.238L970.353 333.648C944.756 318.21 917.346 318.209 891.73 333.648L859.868 352.846C859.867 352.846 859.868 352.846 859.868 352.846C832.147 369.564 802.463 369.564 774.727 352.847L742.864 333.649C717.267 318.211 689.855 318.209 664.24 333.648L632.377 352.846C604.656 369.565 574.974 369.564 547.236 352.847C547.236 352.847 547.237 352.847 547.236 352.847L515.373 333.649C489.776 318.211 462.365 318.209 436.749 333.648L404.886 352.846C377.166 369.565 347.483 369.564 319.746 352.847C319.746 352.847 319.746 352.847 319.746 352.847L287.881 333.648Z" fill="#393A3D"/>
<path fill-rule="evenodd" clip-rule="evenodd" d="M287.881 412.497C262.284 397.06 234.874 397.059 209.258 412.498L206 392.087C233.737 375.37 263.419 375.369 291.14 392.087C291.14 392.087 291.139 392.087 291.14 392.087L323.003 411.285C348.619 426.724 376.029 426.724 401.626 411.286L433.491 392.087C433.491 392.087 433.491 392.087 433.491 392.087C461.227 375.37 490.91 375.369 518.63 392.087C518.631 392.087 518.63 392.087 518.63 392.087L550.494 411.285C576.109 426.724 603.52 426.724 629.117 411.286L660.981 392.087C660.981 392.087 660.981 392.087 660.981 392.087C688.718 375.37 718.401 375.369 746.121 392.087C746.121 392.087 746.12 392.087 746.121 392.087L777.984 411.285C803.6 426.724 831.011 426.724 856.608 411.286L888.472 392.087C916.209 375.37 945.892 375.369 973.613 392.088L970.353 412.497C944.756 397.06 917.346 397.059 891.73 412.498L859.868 431.696C859.867 431.696 859.868 431.695 859.868 431.696C832.147 448.414 802.463 448.414 774.727 431.696L742.864 412.498C717.267 397.06 689.855 397.059 664.24 412.498L632.377 431.696C604.656 448.414 574.974 448.414 547.236 431.696C547.236 431.696 547.237 431.697 547.236 431.696L515.373 412.498C489.776 397.06 462.365 397.059 436.749 412.498L404.886 431.696C377.166 448.414 347.483 448.414 319.746 431.696C319.746 431.696 319.746 431.697 319.746 431.696L287.881 412.497Z" fill="#393A3D"/>
<path fill-rule="evenodd" clip-rule="evenodd" d="M287.881 491.345C262.284 475.907 234.874 475.907 209.258 491.346L206 470.935C233.737 454.217 263.419 454.217 291.14 470.935C291.14 470.935 291.139 470.934 291.14 470.935L323.003 490.133C348.619 505.572 376.029 505.572 401.626 490.134L433.491 470.935C433.491 470.935 433.491 470.935 433.491 470.935C461.227 454.218 490.91 454.217 518.63 470.935C518.631 470.935 518.63 470.934 518.63 470.935L550.494 490.133C576.109 505.572 603.52 505.572 629.117 490.134L660.981 470.935C660.981 470.935 660.981 470.935 660.981 470.935C688.718 454.218 718.401 454.217 746.121 470.935C746.121 470.935 746.12 470.934 746.121 470.935L777.984 490.133C803.6 505.572 831.011 505.572 856.608 490.134L888.472 470.935C916.209 454.217 945.892 454.217 973.613 470.936L970.353 491.345C944.756 475.907 917.346 475.907 891.73 491.346L859.868 510.543C859.867 510.543 859.868 510.543 859.868 510.543C832.147 527.261 802.463 527.261 774.727 510.544L742.864 491.346C717.267 475.908 689.855 475.907 664.24 491.346L632.377 510.543C604.656 527.262 574.974 527.262 547.236 510.544C547.236 510.544 547.237 510.544 547.236 510.544L515.373 491.346C489.776 475.908 462.365 475.907 436.749 491.346L404.886 510.543C377.166 527.262 347.483 527.262 319.746 510.544C319.746 510.544 319.746 510.544 319.746 510.544L287.881 491.345Z" fill="#393A3D"/>
</svg>
