<svg width="1200" height="675" viewBox="0 0 1200 675" fill="none" xmlns="http://www.w3.org/2000/svg">
<g clip-path="url(#clip0_6_2972)">
<rect width="1200" height="675" fill="#F4F4EF"/>
<circle cx="591.5" cy="332.5" r="185.5" fill="#FFD1E9"/>
<rect x="380" y="544.461" width="423.459" height="84.6919" transform="rotate(-90 380 544.461)" fill="#00EEC5"/>
<rect x="549.383" y="544.461" width="423.459" height="84.6919" transform="rotate(-90 549.383 544.461)" fill="#00EEC5"/>
<rect x="718.766" y="544.461" width="423.459" height="84.6919" transform="rotate(-90 718.766 544.461)" fill="#00EEC5"/>
<path fill-rule="evenodd" clip-rule="evenodd" d="M-466.337 178.327C-492.279 162.681 -520.06 162.68 -546.022 178.328L-549.324 157.642C-521.213 140.698 -491.129 140.697 -463.034 157.641C-463.034 157.642 -463.035 157.641 -463.034 157.641L-430.74 177.099C-404.778 192.746 -376.997 192.746 -351.054 177.1L-318.759 157.642C-318.759 157.641 -318.76 157.642 -318.759 157.642C-290.648 140.698 -260.564 140.697 -232.469 157.641C-232.469 157.642 -232.47 157.641 -232.469 157.641L-200.175 177.099C-174.213 192.746 -146.432 192.746 -120.49 177.1L-88.1945 157.642C-88.1943 157.641 -88.1947 157.642 -88.1945 157.642C-60.0831 140.698 -29.9993 140.697 -1.90444 157.641C-1.90393 157.642 -1.90495 157.641 -1.90444 157.641L30.3896 177.099C56.3514 192.746 84.1327 192.746 110.075 177.1L142.37 157.642C170.482 140.698 200.566 140.697 228.662 157.642L225.358 178.327C199.415 162.681 171.634 162.68 145.673 178.328L113.38 197.785C113.379 197.785 113.38 197.785 113.38 197.785C85.2845 214.729 55.1994 214.729 27.0879 197.786L-5.2057 178.328C-31.1483 162.682 -58.9304 162.68 -84.8922 178.328L-117.185 197.785C-145.281 214.73 -175.364 214.729 -203.476 197.786C-203.477 197.786 -203.476 197.786 -203.476 197.786L-235.77 178.328C-261.713 162.682 -289.495 162.68 -315.457 178.328L-347.75 197.785C-375.845 214.73 -405.929 214.729 -434.041 197.786C-434.041 197.786 -434.041 197.786 -434.041 197.786L-466.337 178.327Z" fill="#006A56"/>
<path fill-rule="evenodd" clip-rule="evenodd" d="M-466.337 258.241C-492.279 242.595 -520.06 242.594 -546.022 258.242L-549.324 237.556C-521.213 220.612 -491.129 220.611 -463.034 237.555C-463.034 237.556 -463.035 237.555 -463.034 237.555L-430.74 257.013C-404.778 272.661 -376.997 272.66 -351.054 257.014L-318.759 237.556C-318.759 237.555 -318.76 237.556 -318.759 237.556C-290.648 220.613 -260.564 220.611 -232.469 237.555C-232.469 237.556 -232.47 237.555 -232.469 237.555L-200.175 257.013C-174.213 272.661 -146.432 272.66 -120.49 257.014L-88.1945 237.556C-88.1943 237.555 -88.1947 237.556 -88.1945 237.556C-60.0831 220.612 -29.9993 220.611 -1.90444 237.555C-1.90393 237.556 -1.90495 237.555 -1.90444 237.555L30.3896 257.013C56.3514 272.661 84.1327 272.66 110.075 257.014L142.37 237.556C170.482 220.612 200.566 220.611 228.662 237.556L225.358 258.241C199.415 242.595 171.634 242.594 145.673 258.242L113.38 277.699C113.379 277.699 113.38 277.699 113.38 277.699C85.2845 294.643 55.1994 294.643 27.0879 277.7L-5.2057 258.242C-31.1483 242.596 -58.9304 242.594 -84.8922 258.242L-117.185 277.699C-145.281 294.644 -175.364 294.643 -203.476 277.7C-203.477 277.7 -203.476 277.7 -203.476 277.7L-235.77 258.242C-261.713 242.596 -289.495 242.594 -315.457 258.242L-347.75 277.699C-375.845 294.644 -405.929 294.643 -434.041 277.7C-434.041 277.7 -434.041 277.7 -434.041 277.7L-466.337 258.241Z" fill="#006A56"/>
<path fill-rule="evenodd" clip-rule="evenodd" d="M-466.337 338.156C-492.279 322.509 -520.06 322.508 -546.022 338.156L-549.324 317.47C-521.213 300.526 -491.129 300.525 -463.034 317.469C-463.034 317.47 -463.035 317.469 -463.034 317.469L-430.74 336.927C-404.778 352.575 -376.997 352.574 -351.054 336.928L-318.759 317.47C-318.759 317.47 -318.76 317.47 -318.759 317.47C-290.648 300.527 -260.564 300.525 -232.469 317.469C-232.469 317.47 -232.47 317.469 -232.469 317.469L-200.175 336.927C-174.213 352.575 -146.432 352.574 -120.49 336.928L-88.1945 317.47C-88.1943 317.47 -88.1947 317.47 -88.1945 317.47C-60.0831 300.527 -29.9993 300.525 -1.90444 317.469C-1.90393 317.47 -1.90495 317.469 -1.90444 317.469L30.3896 336.927C56.3514 352.575 84.1327 352.574 110.075 336.928L142.37 317.47C170.482 300.526 200.566 300.525 228.662 317.47L225.358 338.156C199.415 322.509 171.634 322.508 145.673 338.156L113.38 357.613C113.379 357.613 113.38 357.613 113.38 357.613C85.2845 374.557 55.1994 374.557 27.0879 357.614L-5.2057 338.156C-31.1483 322.51 -58.9304 322.508 -84.8922 338.156L-117.185 357.613C-145.281 374.558 -175.364 374.557 -203.476 357.614C-203.477 357.614 -203.476 357.614 -203.476 357.614L-235.77 338.156C-261.713 322.51 -289.495 322.508 -315.457 338.156L-347.75 357.613C-375.845 374.558 -405.929 374.557 -434.041 357.614C-434.041 357.614 -434.041 357.614 -434.041 357.614L-466.337 338.156Z" fill="#006A56"/>
<path fill-rule="evenodd" clip-rule="evenodd" d="M-466.337 418.073C-492.279 402.427 -520.06 402.426 -546.022 418.074L-549.324 397.388C-521.213 380.444 -491.129 380.443 -463.034 397.387C-463.034 397.388 -463.035 397.387 -463.034 397.387L-430.74 416.845C-404.778 432.493 -376.997 432.492 -351.054 416.846L-318.759 397.388C-318.759 397.388 -318.76 397.388 -318.759 397.388C-290.648 380.445 -260.564 380.443 -232.469 397.387C-232.469 397.388 -232.47 397.387 -232.469 397.387L-200.175 416.845C-174.213 432.493 -146.432 432.492 -120.49 416.846L-88.1945 397.388C-88.1943 397.388 -88.1947 397.388 -88.1945 397.388C-60.0831 380.445 -29.9993 380.443 -1.90444 397.387C-1.90393 397.388 -1.90495 397.387 -1.90444 397.387L30.3896 416.845C56.3514 432.493 84.1327 432.492 110.075 416.846L142.37 397.388C170.482 380.444 200.566 380.443 228.662 397.388L225.358 418.073C199.415 402.427 171.634 402.426 145.673 418.074L113.38 437.531C113.379 437.531 113.38 437.531 113.38 437.531C85.2845 454.475 55.1994 454.475 27.0879 437.532L-5.2057 418.074C-31.1483 402.428 -58.9304 402.426 -84.8922 418.074L-117.185 437.531C-145.281 454.476 -175.364 454.475 -203.476 437.532C-203.477 437.532 -203.476 437.532 -203.476 437.532L-235.77 418.074C-261.713 402.428 -289.495 402.426 -315.457 418.074L-347.75 437.531C-375.845 454.476 -405.929 454.475 -434.041 437.532C-434.041 437.532 -434.041 437.532 -434.041 437.532L-466.337 418.073Z" fill="#006A56"/>
<path fill-rule="evenodd" clip-rule="evenodd" d="M-466.337 497.988C-492.279 482.341 -520.06 482.34 -546.022 497.988L-549.324 477.302C-521.213 460.358 -491.129 460.357 -463.034 477.301C-463.034 477.302 -463.035 477.301 -463.034 477.301L-430.74 496.759C-404.778 512.407 -376.997 512.406 -351.054 496.76L-318.759 477.302C-318.759 477.302 -318.76 477.302 -318.759 477.302C-290.648 460.359 -260.564 460.357 -232.469 477.301C-232.469 477.302 -232.47 477.301 -232.469 477.301L-200.175 496.759C-174.213 512.407 -146.432 512.406 -120.49 496.76L-88.1945 477.302C-88.1943 477.302 -88.1947 477.302 -88.1945 477.302C-60.0831 460.359 -29.9993 460.357 -1.90444 477.301C-1.90393 477.302 -1.90495 477.301 -1.90444 477.301L30.3896 496.759C56.3514 512.407 84.1327 512.406 110.075 496.76L142.37 477.302C170.482 460.358 200.566 460.357 228.662 477.302L225.358 497.988C199.415 482.341 171.634 482.34 145.673 497.988L113.38 517.445C113.379 517.445 113.38 517.445 113.38 517.445C85.2845 534.389 55.1994 534.389 27.0879 517.446L-5.2057 497.988C-31.1483 482.342 -58.9304 482.34 -84.8922 497.988L-117.185 517.445C-145.281 534.39 -175.364 534.389 -203.476 517.446C-203.477 517.446 -203.476 517.446 -203.476 517.446L-235.77 497.988C-261.713 482.342 -289.495 482.34 -315.457 497.988L-347.75 517.445C-375.845 534.39 -405.929 534.389 -434.041 517.446C-434.041 517.446 -434.041 517.446 -434.041 517.446L-466.337 497.988Z" fill="#006A56"/>
<path fill-rule="evenodd" clip-rule="evenodd" d="M348.526 178.327C322.584 162.681 294.803 162.68 268.841 178.328L265.539 157.642C293.651 140.698 323.734 140.697 351.829 157.641C351.83 157.642 351.829 157.641 351.829 157.641L384.123 177.099C410.085 192.746 437.866 192.746 463.809 177.1L496.104 157.642C496.104 157.641 496.104 157.642 496.104 157.642C524.215 140.698 554.299 140.697 582.394 157.641C582.395 157.642 582.394 157.641 582.394 157.641L614.688 177.099C640.65 192.746 668.431 192.746 694.374 177.1L726.669 157.642C726.669 157.641 726.669 157.642 726.669 157.642C754.78 140.698 784.864 140.697 812.959 157.641C812.959 157.642 812.958 157.641 812.959 157.641L845.253 177.099C871.215 192.746 898.996 192.746 924.939 177.1L957.234 157.642C985.346 140.698 1015.43 140.697 1043.53 157.642L1040.22 178.327C1014.28 162.681 986.498 162.68 960.536 178.328L928.243 197.785C928.242 197.785 928.243 197.785 928.243 197.785C900.148 214.729 870.063 214.729 841.951 197.786L809.658 178.328C783.715 162.682 755.933 162.68 729.971 178.328L697.678 197.785C669.583 214.73 639.499 214.729 611.387 197.786C611.387 197.786 611.387 197.786 611.387 197.786L579.093 178.328C553.15 162.682 525.368 162.68 499.406 178.328L467.113 197.785C439.018 214.73 408.934 214.729 380.822 197.786C380.822 197.786 380.822 197.786 380.822 197.786L348.526 178.327Z" fill="#393A3D"/>
<path fill-rule="evenodd" clip-rule="evenodd" d="M348.526 258.241C322.584 242.595 294.803 242.594 268.841 258.242L265.539 237.556C293.651 220.612 323.734 220.611 351.829 237.555C351.83 237.556 351.829 237.555 351.829 237.555L384.123 257.013C410.085 272.661 437.866 272.66 463.809 257.014L496.104 237.556C496.104 237.555 496.104 237.556 496.104 237.556C524.215 220.613 554.299 220.611 582.394 237.555C582.395 237.556 582.394 237.555 582.394 237.555L614.688 257.013C640.65 272.661 668.431 272.66 694.374 257.014L726.669 237.556C726.669 237.555 726.669 237.556 726.669 237.556C754.78 220.612 784.864 220.611 812.959 237.555C812.959 237.556 812.958 237.555 812.959 237.555L845.253 257.013C871.215 272.661 898.996 272.66 924.939 257.014L957.234 237.556C985.346 220.612 1015.43 220.611 1043.53 237.556L1040.22 258.241C1014.28 242.595 986.498 242.594 960.536 258.242L928.243 277.699C928.242 277.699 928.243 277.699 928.243 277.699C900.148 294.643 870.063 294.643 841.951 277.7L809.658 258.242C783.715 242.596 755.933 242.594 729.971 258.242L697.678 277.699C669.583 294.644 639.499 294.643 611.387 277.7C611.387 277.7 611.387 277.7 611.387 277.7L579.093 258.242C553.15 242.596 525.368 242.594 499.406 258.242L467.113 277.699C439.018 294.644 408.934 294.643 380.822 277.7C380.822 277.7 380.822 277.7 380.822 277.7L348.526 258.241Z" fill="#393A3D"/>
<path fill-rule="evenodd" clip-rule="evenodd" d="M348.526 338.156C322.584 322.509 294.803 322.508 268.841 338.156L265.539 317.47C293.651 300.526 323.734 300.525 351.829 317.469C351.83 317.47 351.829 317.469 351.829 317.469L384.123 336.927C410.085 352.575 437.866 352.574 463.809 336.928L496.104 317.47C496.104 317.47 496.104 317.47 496.104 317.47C524.215 300.527 554.299 300.525 582.394 317.469C582.395 317.47 582.394 317.469 582.394 317.469L614.688 336.927C640.65 352.575 668.431 352.574 694.374 336.928L726.669 317.47C726.669 317.47 726.669 317.47 726.669 317.47C754.78 300.527 784.864 300.525 812.959 317.469C812.959 317.47 812.958 317.469 812.959 317.469L845.253 336.927C871.215 352.575 898.996 352.574 924.939 336.928L957.234 317.47C985.346 300.526 1015.43 300.525 1043.53 317.47L1040.22 338.156C1014.28 322.509 986.498 322.508 960.536 338.156L928.243 357.613C928.242 357.613 928.243 357.613 928.243 357.613C900.148 374.557 870.063 374.557 841.951 357.614L809.658 338.156C783.715 322.51 755.933 322.508 729.971 338.156L697.678 357.613C669.583 374.558 639.499 374.557 611.387 357.614C611.387 357.614 611.387 357.614 611.387 357.614L579.093 338.156C553.15 322.51 525.368 322.508 499.406 338.156L467.113 357.613C439.018 374.558 408.934 374.557 380.822 357.614C380.822 357.614 380.822 357.614 380.822 357.614L348.526 338.156Z" fill="#393A3D"/>
<path fill-rule="evenodd" clip-rule="evenodd" d="M348.526 418.073C322.584 402.427 294.803 402.426 268.841 418.074L265.539 397.388C293.651 380.444 323.734 380.443 351.829 397.387C351.83 397.388 351.829 397.387 351.829 397.387L384.123 416.845C410.085 432.493 437.866 432.492 463.809 416.846L496.104 397.388C496.104 397.388 496.104 397.388 496.104 397.388C524.215 380.445 554.299 380.443 582.394 397.387C582.395 397.388 582.394 397.387 582.394 397.387L614.688 416.845C640.65 432.493 668.431 432.492 694.374 416.846L726.669 397.388C726.669 397.388 726.669 397.388 726.669 397.388C754.78 380.445 784.864 380.443 812.959 397.387C812.959 397.388 812.958 397.387 812.959 397.387L845.253 416.845C871.215 432.493 898.996 432.492 924.939 416.846L957.234 397.388C985.346 380.444 1015.43 380.443 1043.53 397.388L1040.22 418.073C1014.28 402.427 986.498 402.426 960.536 418.074L928.243 437.531C928.242 437.531 928.243 437.531 928.243 437.531C900.148 454.475 870.063 454.475 841.951 437.532L809.658 418.074C783.715 402.428 755.933 402.426 729.971 418.074L697.678 437.531C669.583 454.476 639.499 454.475 611.387 437.532C611.387 437.532 611.387 437.532 611.387 437.532L579.093 418.074C553.15 402.428 525.368 402.426 499.406 418.074L467.113 437.531C439.018 454.476 408.934 454.475 380.822 437.532C380.822 437.532 380.822 437.532 380.822 437.532L348.526 418.073Z" fill="#393A3D"/>
<path fill-rule="evenodd" clip-rule="evenodd" d="M348.526 497.988C322.584 482.341 294.803 482.34 268.841 497.988L265.539 477.302C293.651 460.358 323.734 460.357 351.829 477.301C351.83 477.302 351.829 477.301 351.829 477.301L384.123 496.759C410.085 512.407 437.866 512.406 463.809 496.76L496.104 477.302C496.104 477.302 496.104 477.302 496.104 477.302C524.215 460.359 554.299 460.357 582.394 477.301C582.395 477.302 582.394 477.301 582.394 477.301L614.688 496.759C640.65 512.407 668.431 512.406 694.374 496.76L726.669 477.302C726.669 477.302 726.669 477.302 726.669 477.302C754.78 460.359 784.864 460.357 812.959 477.301C812.959 477.302 812.958 477.301 812.959 477.301L845.253 496.759C871.215 512.407 898.996 512.406 924.939 496.76L957.234 477.302C985.346 460.358 1015.43 460.357 1043.53 477.302L1040.22 497.988C1014.28 482.341 986.498 482.34 960.536 497.988L928.243 517.445C928.242 517.445 928.243 517.445 928.243 517.445C900.148 534.389 870.063 534.389 841.951 517.446L809.658 497.988C783.715 482.342 755.933 482.34 729.971 497.988L697.678 517.445C669.583 534.39 639.499 534.389 611.387 517.446C611.387 517.446 611.387 517.446 611.387 517.446L579.093 497.988C553.15 482.342 525.368 482.34 499.406 497.988L467.113 517.445C439.018 534.39 408.934 534.389 380.822 517.446C380.822 517.446 380.822 517.446 380.822 517.446L348.526 497.988Z" fill="#393A3D"/>
<path fill-rule="evenodd" clip-rule="evenodd" d="M1163.39 178.327C1137.45 162.681 1109.67 162.68 1083.71 178.328L1080.41 157.642C1108.52 140.698 1138.6 140.697 1166.7 157.641C1166.7 157.642 1166.7 157.641 1166.7 157.641L1198.99 177.099C1224.95 192.746 1252.73 192.746 1278.68 177.1L1310.97 157.642C1310.97 157.641 1310.97 157.642 1310.97 157.642C1339.08 140.698 1369.17 140.697 1397.26 157.641C1397.26 157.642 1397.26 157.641 1397.26 157.641L1429.56 177.099C1455.52 192.746 1483.3 192.746 1509.24 177.1L1541.54 157.642C1541.54 157.641 1541.54 157.642 1541.54 157.642C1569.65 140.698 1599.73 140.697 1627.83 157.641C1627.83 157.642 1627.83 157.641 1627.83 157.641L1660.12 177.099C1686.08 192.746 1713.86 192.746 1739.81 177.1L1772.1 157.642C1800.21 140.698 1830.3 140.697 1858.39 157.642L1855.09 178.327C1829.15 162.681 1801.36 162.68 1775.4 178.328L1743.11 197.785C1743.11 197.785 1743.11 197.785 1743.11 197.785C1715.01 214.729 1684.93 214.729 1656.82 197.786L1624.52 178.328C1598.58 162.682 1570.8 162.68 1544.84 178.328L1512.55 197.785C1484.45 214.73 1454.37 214.729 1426.25 197.786C1426.25 197.786 1426.25 197.786 1426.25 197.786L1393.96 178.328C1368.02 162.682 1340.24 162.68 1314.27 178.328L1281.98 197.785C1253.88 214.73 1223.8 214.729 1195.69 197.786C1195.69 197.786 1195.69 197.786 1195.69 197.786L1163.39 178.327Z" fill="#006A56"/>
<path fill-rule="evenodd" clip-rule="evenodd" d="M1163.39 258.241C1137.45 242.595 1109.67 242.594 1083.71 258.242L1080.41 237.556C1108.52 220.612 1138.6 220.611 1166.7 237.555C1166.7 237.556 1166.7 237.555 1166.7 237.555L1198.99 257.013C1224.95 272.661 1252.73 272.66 1278.68 257.014L1310.97 237.556C1310.97 237.555 1310.97 237.556 1310.97 237.556C1339.08 220.613 1369.17 220.611 1397.26 237.555C1397.26 237.556 1397.26 237.555 1397.26 237.555L1429.56 257.013C1455.52 272.661 1483.3 272.66 1509.24 257.014L1541.54 237.556C1541.54 237.555 1541.54 237.556 1541.54 237.556C1569.65 220.612 1599.73 220.611 1627.83 237.555C1627.83 237.556 1627.83 237.555 1627.83 237.555L1660.12 257.013C1686.08 272.661 1713.86 272.66 1739.81 257.014L1772.1 237.556C1800.21 220.612 1830.3 220.611 1858.39 237.556L1855.09 258.241C1829.15 242.595 1801.36 242.594 1775.4 258.242L1743.11 277.699C1743.11 277.699 1743.11 277.699 1743.11 277.699C1715.01 294.643 1684.93 294.643 1656.82 277.7L1624.52 258.242C1598.58 242.596 1570.8 242.594 1544.84 258.242L1512.55 277.699C1484.45 294.644 1454.37 294.643 1426.25 277.7C1426.25 277.7 1426.25 277.7 1426.25 277.7L1393.96 258.242C1368.02 242.596 1340.24 242.594 1314.27 258.242L1281.98 277.699C1253.88 294.644 1223.8 294.643 1195.69 277.7C1195.69 277.7 1195.69 277.7 1195.69 277.7L1163.39 258.241Z" fill="#006A56"/>
<path fill-rule="evenodd" clip-rule="evenodd" d="M1163.39 338.156C1137.45 322.509 1109.67 322.508 1083.71 338.156L1080.41 317.47C1108.52 300.526 1138.6 300.525 1166.7 317.469C1166.7 317.47 1166.7 317.469 1166.7 317.469L1198.99 336.927C1224.95 352.575 1252.73 352.574 1278.68 336.928L1310.97 317.47C1310.97 317.47 1310.97 317.47 1310.97 317.47C1339.08 300.527 1369.17 300.525 1397.26 317.469C1397.26 317.47 1397.26 317.469 1397.26 317.469L1429.56 336.927C1455.52 352.575 1483.3 352.574 1509.24 336.928L1541.54 317.47C1541.54 317.47 1541.54 317.47 1541.54 317.47C1569.65 300.527 1599.73 300.525 1627.83 317.469C1627.83 317.47 1627.83 317.469 1627.83 317.469L1660.12 336.927C1686.08 352.575 1713.86 352.574 1739.81 336.928L1772.1 317.47C1800.21 300.526 1830.3 300.525 1858.39 317.47L1855.09 338.156C1829.15 322.509 1801.36 322.508 1775.4 338.156L1743.11 357.613C1743.11 357.613 1743.11 357.613 1743.11 357.613C1715.01 374.557 1684.93 374.557 1656.82 357.614L1624.52 338.156C1598.58 322.51 1570.8 322.508 1544.84 338.156L1512.55 357.613C1484.45 374.558 1454.37 374.557 1426.25 357.614C1426.25 357.614 1426.25 357.614 1426.25 357.614L1393.96 338.156C1368.02 322.51 1340.24 322.508 1314.27 338.156L1281.98 357.613C1253.88 374.558 1223.8 374.557 1195.69 357.614C1195.69 357.614 1195.69 357.614 1195.69 357.614L1163.39 338.156Z" fill="#006A56"/>
<path fill-rule="evenodd" clip-rule="evenodd" d="M1163.39 418.073C1137.45 402.427 1109.67 402.426 1083.71 418.074L1080.41 397.388C1108.52 380.444 1138.6 380.443 1166.7 397.387C1166.7 397.388 1166.7 397.387 1166.7 397.387L1198.99 416.845C1224.95 432.493 1252.73 432.492 1278.68 416.846L1310.97 397.388C1310.97 397.388 1310.97 397.388 1310.97 397.388C1339.08 380.445 1369.17 380.443 1397.26 397.387C1397.26 397.388 1397.26 397.387 1397.26 397.387L1429.56 416.845C1455.52 432.493 1483.3 432.492 1509.24 416.846L1541.54 397.388C1541.54 397.388 1541.54 397.388 1541.54 397.388C1569.65 380.445 1599.73 380.443 1627.83 397.387C1627.83 397.388 1627.83 397.387 1627.83 397.387L1660.12 416.845C1686.08 432.493 1713.86 432.492 1739.81 416.846L1772.1 397.388C1800.21 380.444 1830.3 380.443 1858.39 397.388L1855.09 418.073C1829.15 402.427 1801.36 402.426 1775.4 418.074L1743.11 437.531C1743.11 437.531 1743.11 437.531 1743.11 437.531C1715.01 454.475 1684.93 454.475 1656.82 437.532L1624.52 418.074C1598.58 402.428 1570.8 402.426 1544.84 418.074L1512.55 437.531C1484.45 454.476 1454.37 454.475 1426.25 437.532C1426.25 437.532 1426.25 437.532 1426.25 437.532L1393.96 418.074C1368.02 402.428 1340.24 402.426 1314.27 418.074L1281.98 437.531C1253.88 454.476 1223.8 454.475 1195.69 437.532C1195.69 437.532 1195.69 437.532 1195.69 437.532L1163.39 418.073Z" fill="#006A56"/>
<path fill-rule="evenodd" clip-rule="evenodd" d="M1163.39 497.988C1137.45 482.341 1109.67 482.34 1083.71 497.988L1080.41 477.302C1108.52 460.358 1138.6 460.357 1166.7 477.301C1166.7 477.302 1166.7 477.301 1166.7 477.301L1198.99 496.759C1224.95 512.407 1252.73 512.406 1278.68 496.76L1310.97 477.302C1310.97 477.302 1310.97 477.302 1310.97 477.302C1339.08 460.359 1369.17 460.357 1397.26 477.301C1397.26 477.302 1397.26 477.301 1397.26 477.301L1429.56 496.759C1455.52 512.407 1483.3 512.406 1509.24 496.76L1541.54 477.302C1541.54 477.302 1541.54 477.302 1541.54 477.302C1569.65 460.359 1599.73 460.357 1627.83 477.301C1627.83 477.302 1627.83 477.301 1627.83 477.301L1660.12 496.759C1686.08 512.407 1713.86 512.406 1739.81 496.76L1772.1 477.302C1800.21 460.358 1830.3 460.357 1858.39 477.302L1855.09 497.988C1829.15 482.341 1801.36 482.34 1775.4 497.988L1743.11 517.445C1743.11 517.445 1743.11 517.445 1743.11 517.445C1715.01 534.389 1684.93 534.389 1656.82 517.446L1624.52 497.988C1598.58 482.342 1570.8 482.34 1544.84 497.988L1512.55 517.445C1484.45 534.39 1454.37 534.389 1426.25 517.446C1426.25 517.446 1426.25 517.446 1426.25 517.446L1393.96 497.988C1368.02 482.342 1340.24 482.34 1314.27 497.988L1281.98 517.445C1253.88 534.39 1223.8 534.389 1195.69 517.446C1195.69 517.446 1195.69 517.446 1195.69 517.446L1163.39 497.988Z" fill="#006A56"/>
</g>
<defs>
<clipPath id="clip0_6_2972">
<rect width="1200" height="675" fill="white"/>
</clipPath>
</defs>
</svg>
