<svg width="1184" height="666" viewBox="0 0 1184 666" fill="none" xmlns="http://www.w3.org/2000/svg">
<g clip-path="url(#clip0_1_2643)">
<rect width="1184" height="666" fill="#F4F4EF"/>
<path d="M1184 254V668H770L1184 254Z" fill="#FFD1E9"/>
<path fill-rule="evenodd" clip-rule="evenodd" d="M295.083 178.654C269.928 163.482 242.99 163.482 217.815 178.655L214.613 158.596C241.872 142.166 271.043 142.166 298.286 158.596C298.286 158.596 298.285 158.595 298.286 158.596L329.6 177.463C354.775 192.636 381.713 192.636 406.869 177.464L438.184 158.596C438.184 158.596 438.184 158.596 438.184 158.596C465.443 142.167 494.614 142.166 521.857 158.596C521.857 158.596 521.856 158.595 521.857 158.596L553.171 177.463C578.345 192.636 605.284 192.636 630.439 177.464L661.755 158.596C661.755 158.596 661.755 158.596 661.755 158.596C689.014 142.167 718.185 142.166 745.427 158.596C745.428 158.596 745.427 158.595 745.427 158.596L776.742 177.463C801.916 192.636 828.855 192.636 854.01 177.464L885.326 158.596C912.585 142.166 941.757 142.166 969 158.596L965.796 178.654C940.64 163.482 913.702 163.482 888.528 178.655L857.214 197.522C857.214 197.522 857.215 197.521 857.214 197.522C829.972 213.952 800.799 213.952 773.54 197.522L742.226 178.655C717.071 163.483 690.131 163.482 664.957 178.655L633.644 197.522C606.4 213.952 577.229 213.952 549.97 197.522C549.97 197.522 549.97 197.523 549.97 197.522L518.656 178.655C493.5 163.483 466.56 163.482 441.386 178.655L410.073 197.522C382.83 213.952 353.658 213.952 326.399 197.522C326.399 197.522 326.399 197.523 326.399 197.522L295.083 178.654Z" fill="#00EEC5"/>
<path fill-rule="evenodd" clip-rule="evenodd" d="M295.083 256.146C269.928 240.975 242.99 240.974 217.815 256.147L214.613 236.088C241.872 219.659 271.043 219.658 298.286 236.088C298.286 236.088 298.285 236.087 298.286 236.088L329.6 254.955C354.775 270.128 381.713 270.128 406.869 254.956L438.184 236.088C438.184 236.088 438.184 236.088 438.184 236.088C465.443 219.659 494.614 219.658 521.857 236.088C521.857 236.088 521.856 236.087 521.857 236.088L553.171 254.955C578.345 270.128 605.284 270.128 630.439 254.956L661.755 236.088C661.755 236.088 661.755 236.088 661.755 236.088C689.014 219.659 718.185 219.658 745.427 236.088C745.428 236.088 745.427 236.087 745.427 236.088L776.742 254.955C801.916 270.128 828.855 270.128 854.01 254.956L885.326 236.088C912.585 219.658 941.757 219.658 969 236.089L965.796 256.146C940.64 240.975 913.702 240.974 888.528 256.147L857.214 275.014C857.214 275.014 857.215 275.013 857.214 275.014C829.972 291.444 800.799 291.444 773.54 275.014L742.226 256.147C717.071 240.975 690.131 240.974 664.957 256.147L633.644 275.014C606.4 291.445 577.229 291.444 549.97 275.015C549.97 275.015 549.97 275.015 549.97 275.015L518.656 256.147C493.5 240.975 466.56 240.974 441.386 256.147L410.073 275.014C382.83 291.445 353.658 291.444 326.399 275.015C326.399 275.015 326.399 275.015 326.399 275.015L295.083 256.146Z" fill="#00EEC5"/>
<path fill-rule="evenodd" clip-rule="evenodd" d="M295.083 333.635C269.928 318.463 242.99 318.462 217.815 333.635L214.613 313.576C241.872 297.147 271.043 297.146 298.286 313.576C298.286 313.576 298.285 313.576 298.286 313.576L329.6 332.443C354.775 347.616 381.713 347.616 406.869 332.444L438.184 313.576C438.184 313.576 438.184 313.576 438.184 313.576C465.443 297.147 494.614 297.146 521.857 313.576C521.857 313.576 521.856 313.576 521.857 313.576L553.171 332.443C578.345 347.616 605.284 347.616 630.439 332.444L661.755 313.576C661.755 313.576 661.755 313.576 661.755 313.576C689.014 297.147 718.185 297.146 745.427 313.576C745.428 313.576 745.427 313.576 745.427 313.576L776.742 332.443C801.916 347.616 828.855 347.616 854.01 332.444L885.326 313.576C912.585 297.147 941.757 297.146 969 313.577L965.796 333.635C940.64 318.463 913.702 318.462 888.528 333.635L857.214 352.502C857.214 352.502 857.215 352.502 857.214 352.502C829.972 368.932 800.799 368.932 773.54 352.503L742.226 333.636C717.071 318.464 690.131 318.462 664.957 333.635L633.644 352.502C606.4 368.933 577.229 368.932 549.97 352.503C549.97 352.503 549.97 352.503 549.97 352.503L518.656 333.636C493.5 318.464 466.56 318.462 441.386 333.635L410.073 352.502C382.83 368.933 353.658 368.932 326.399 352.503C326.399 352.503 326.399 352.503 326.399 352.503L295.083 333.635Z" fill="#00EEC5"/>
<path fill-rule="evenodd" clip-rule="evenodd" d="M295.083 411.127C269.928 395.955 242.99 395.954 217.815 411.127L214.613 391.069C241.872 374.639 271.043 374.638 298.286 391.068C298.286 391.069 298.285 391.068 298.286 391.068L329.6 409.936C354.775 425.109 381.713 425.108 406.869 409.936L438.184 391.069C438.184 391.068 438.184 391.069 438.184 391.069C465.443 374.639 494.614 374.638 521.857 391.068C521.857 391.069 521.856 391.068 521.857 391.068L553.171 409.936C578.345 425.109 605.284 425.108 630.439 409.936L661.755 391.069C661.755 391.068 661.755 391.069 661.755 391.069C689.014 374.639 718.185 374.638 745.427 391.068C745.428 391.069 745.427 391.068 745.427 391.068L776.742 409.936C801.916 425.109 828.855 425.108 854.01 409.936L885.326 391.069C912.585 374.639 941.757 374.638 969 391.069L965.796 411.127C940.64 395.955 913.702 395.954 888.528 411.127L857.214 429.994C857.214 429.995 857.215 429.994 857.214 429.994C829.972 446.424 800.799 446.424 773.54 429.995L742.226 411.128C717.071 395.956 690.131 395.954 664.957 411.127L633.644 429.994C606.4 446.425 577.229 446.425 549.97 429.995C549.97 429.995 549.97 429.995 549.97 429.995L518.656 411.128C493.5 395.956 466.56 395.954 441.386 411.127L410.073 429.994C382.83 446.425 353.658 446.425 326.399 429.995C326.399 429.995 326.399 429.995 326.399 429.995L295.083 411.127Z" fill="#00EEC5"/>
<path fill-rule="evenodd" clip-rule="evenodd" d="M295.083 488.615C269.928 473.443 242.99 473.443 217.815 488.616L214.613 468.557C241.872 452.127 271.043 452.126 298.286 468.557C298.286 468.557 298.285 468.556 298.286 468.557L329.6 487.424C354.775 502.597 381.713 502.597 406.869 487.425L438.184 468.557C438.184 468.557 438.184 468.557 438.184 468.557C465.443 452.128 494.614 452.127 521.857 468.557C521.857 468.557 521.856 468.556 521.857 468.557L553.171 487.424C578.345 502.597 605.284 502.597 630.439 487.425L661.755 468.557C661.755 468.557 661.755 468.557 661.755 468.557C689.014 452.128 718.185 452.127 745.427 468.557C745.428 468.557 745.427 468.556 745.427 468.557L776.742 487.424C801.916 502.597 828.855 502.597 854.01 487.425L885.326 468.557C912.585 452.127 941.757 452.126 969 468.557L965.796 488.615C940.64 473.443 913.702 473.443 888.528 488.616L857.214 507.483C857.214 507.483 857.215 507.482 857.214 507.483C829.972 523.913 800.799 523.913 773.54 507.483L742.226 488.616C717.071 473.444 690.131 473.443 664.957 488.616L633.644 507.483C606.4 523.913 577.229 523.913 549.97 507.483C549.97 507.483 549.97 507.484 549.97 507.483L518.656 488.616C493.5 473.444 466.56 473.443 441.386 488.616L410.073 507.483C382.83 523.913 353.658 523.913 326.399 507.483C326.399 507.483 326.399 507.484 326.399 507.483L295.083 488.615Z" fill="#00EEC5"/>
<rect x="190" y="126" width="211.73" height="27.666" fill="#006A56"/>
<rect x="190" y="181.332" width="211.73" height="27.666" fill="#006A56"/>
<rect x="190" y="236.664" width="211.73" height="27.666" fill="#006A56"/>
<rect x="190" y="291.996" width="211.73" height="27.666" fill="#006A56"/>
<rect x="190" y="347.328" width="211.73" height="27.666" fill="#006A56"/>
<rect x="190" y="402.66" width="211.73" height="27.666" fill="#006A56"/>
<rect x="190" y="457.992" width="211.73" height="27.666" fill="#006A56"/>
<rect x="190" y="513.324" width="211.73" height="27.666" fill="#006A56"/>
<rect x="486" y="126" width="211.73" height="27.666" fill="#393A3D"/>
<rect x="486" y="181.332" width="211.73" height="27.666" fill="#393A3D"/>
<rect x="486" y="236.664" width="211.73" height="27.666" fill="#393A3D"/>
<rect x="486" y="291.996" width="211.73" height="27.666" fill="#393A3D"/>
<rect x="486" y="347.328" width="211.73" height="27.666" fill="#393A3D"/>
<rect x="486" y="402.66" width="211.73" height="27.666" fill="#393A3D"/>
<rect x="486" y="457.992" width="211.73" height="27.666" fill="#393A3D"/>
<rect x="486" y="513.324" width="211.73" height="27.666" fill="#393A3D"/>
<rect x="782" y="126" width="211.73" height="27.666" fill="#006A56"/>
<rect x="782" y="181.332" width="211.73" height="27.666" fill="#006A56"/>
<rect x="782" y="236.664" width="211.73" height="27.666" fill="#006A56"/>
<rect x="782" y="291.996" width="211.73" height="27.666" fill="#006A56"/>
<rect x="782" y="347.328" width="211.73" height="27.666" fill="#006A56"/>
<rect x="782" y="402.66" width="211.73" height="27.666" fill="#006A56"/>
<rect x="782" y="457.992" width="211.73" height="27.666" fill="#006A56"/>
<rect x="782" y="513.324" width="211.73" height="27.666" fill="#006A56"/>
</g>
<defs>
<clipPath id="clip0_1_2643">
<rect width="1184" height="666" fill="white"/>
</clipPath>
</defs>
</svg>
