<svg width="1200" height="675" viewBox="0 0 1200 675" fill="none" xmlns="http://www.w3.org/2000/svg">
<g clip-path="url(#clip0_6_2930)">
<rect width="1200" height="675" fill="#FFD1E9"/>
<path fill-rule="evenodd" clip-rule="evenodd" d="M62.5 598C208.579 598 327 479.579 327 333.5C327 187.421 208.579 69 62.5 69C-83.5794 69 -202 187.421 -202 333.5C-202 479.579 -83.5794 598 62.5 598ZM62.5 494.275C151.293 494.275 223.275 422.293 223.275 333.5C223.275 244.707 151.293 172.725 62.5 172.725C-26.2933 172.725 -98.2745 244.707 -98.2745 333.5C-98.2745 422.293 -26.2933 494.275 62.5 494.275Z" fill="#006A56"/>
<path fill-rule="evenodd" clip-rule="evenodd" d="M591.5 598C737.579 598 856 479.579 856 333.5C856 187.421 737.579 69 591.5 69C445.421 69 327 187.421 327 333.5C327 479.579 445.421 598 591.5 598ZM591.5 494.275C680.293 494.275 752.275 422.293 752.275 333.5C752.275 244.707 680.293 172.725 591.5 172.725C502.707 172.725 430.725 244.707 430.725 333.5C430.725 422.293 502.707 494.275 591.5 494.275Z" fill="#393A3D"/>
<path fill-rule="evenodd" clip-rule="evenodd" d="M1120.5 598C1266.58 598 1385 479.579 1385 333.5C1385 187.421 1266.58 69 1120.5 69C974.421 69 856 187.421 856 333.5C856 479.579 974.421 598 1120.5 598ZM1120.5 494.275C1209.29 494.275 1281.27 422.293 1281.27 333.5C1281.27 244.707 1209.29 172.725 1120.5 172.725C1031.71 172.725 959.725 244.707 959.725 333.5C959.725 422.293 1031.71 494.275 1120.5 494.275Z" fill="#006A56"/>
<path fill-rule="evenodd" clip-rule="evenodd" d="M292.783 188.351C267.917 173.354 241.288 173.352 216.401 188.352L209.797 146.979C238.983 129.388 270.218 129.386 299.389 146.979C299.389 146.979 299.388 146.978 299.389 146.979C299.389 146.979 299.391 146.98 299.392 146.98L331.683 166.436C356.569 181.436 383.2 181.435 408.066 166.438L408.069 166.436L440.362 146.979C440.362 146.979 440.361 146.979 440.362 146.979C469.548 129.389 500.783 129.387 529.954 146.979C529.955 146.979 529.956 146.98 529.957 146.98L562.248 166.436C587.134 181.436 613.764 181.435 638.63 166.438L638.634 166.436L670.927 146.979C670.927 146.979 670.926 146.979 670.927 146.979C700.112 129.389 731.348 129.386 760.518 146.979C760.519 146.979 760.52 146.98 760.521 146.98L792.812 166.436C817.699 181.436 844.329 181.435 869.195 166.438L869.198 166.436L901.491 146.979C901.492 146.979 901.491 146.979 901.491 146.979C930.678 129.388 961.915 129.387 991.086 146.98L984.478 188.351C959.612 173.354 932.983 173.352 908.096 188.352L875.804 207.809C875.803 207.809 875.802 207.81 875.801 207.81C846.63 225.403 815.395 225.401 786.209 207.81L753.916 188.353L753.913 188.351C729.047 173.354 702.418 173.352 677.531 188.352L645.239 207.809C645.238 207.809 645.237 207.81 645.236 207.81C616.065 225.403 584.831 225.401 555.645 207.81C555.645 207.81 555.646 207.811 555.645 207.81L523.348 188.351C498.482 173.354 471.853 173.352 446.966 188.352L414.674 207.809C414.673 207.809 414.672 207.81 414.671 207.81C385.5 225.403 354.266 225.401 325.08 207.81C325.08 207.81 325.081 207.811 325.08 207.81L292.783 188.351Z" fill="#00EEC5"/>
<path fill-rule="evenodd" clip-rule="evenodd" d="M292.783 268.265C267.917 253.268 241.288 253.267 216.401 268.266L209.797 226.893C238.983 209.302 270.218 209.3 299.389 226.893C299.389 226.893 299.388 226.893 299.389 226.893C299.389 226.893 299.391 226.894 299.392 226.895L331.683 246.35C356.569 261.35 383.2 261.349 408.066 246.352L408.069 246.35L440.362 226.893C440.362 226.893 440.361 226.894 440.362 226.893C469.548 209.303 500.783 209.301 529.954 226.893C529.955 226.893 529.956 226.894 529.957 226.895L562.248 246.35C587.134 261.35 613.764 261.349 638.63 246.352L638.634 246.35L670.927 226.893C670.927 226.893 670.926 226.894 670.927 226.893C700.112 209.303 731.348 209.301 760.518 226.893C760.519 226.893 760.52 226.894 760.521 226.895L792.812 246.35C817.699 261.35 844.329 261.349 869.195 246.352L869.198 246.35L901.491 226.893C901.492 226.893 901.491 226.894 901.491 226.893C930.678 209.302 961.915 209.301 991.086 226.895L984.478 268.265C959.612 253.268 932.983 253.267 908.096 268.266L875.804 287.723C875.803 287.723 875.802 287.724 875.801 287.724C846.63 305.317 815.395 305.315 786.209 287.724L753.916 268.267L753.913 268.265C729.047 253.268 702.418 253.267 677.531 268.266L645.239 287.723C645.238 287.723 645.237 287.724 645.236 287.724C616.065 305.317 584.831 305.315 555.645 287.724C555.645 287.724 555.646 287.725 555.645 287.724L523.348 268.265C498.482 253.268 471.853 253.267 446.966 268.266L414.674 287.723C414.673 287.723 414.672 287.724 414.671 287.724C385.5 305.317 354.266 305.315 325.08 287.724C325.08 287.724 325.081 287.725 325.08 287.724L292.783 268.265Z" fill="#00EEC5"/>
<path fill-rule="evenodd" clip-rule="evenodd" d="M292.783 348.179C267.917 333.182 241.288 333.181 216.401 348.18L209.797 306.807C238.983 289.216 270.218 289.214 299.389 306.807C299.389 306.807 299.388 306.807 299.389 306.807C299.389 306.807 299.391 306.808 299.392 306.809L331.683 326.264C356.569 341.264 383.2 341.263 408.066 326.266L408.069 326.264L440.362 306.807C440.362 306.807 440.361 306.808 440.362 306.807C469.548 289.217 500.783 289.215 529.954 306.807C529.955 306.807 529.956 306.808 529.957 306.809L562.248 326.264C587.134 341.264 613.764 341.263 638.63 326.266L638.634 326.264L670.927 306.807C670.927 306.807 670.926 306.808 670.927 306.807C700.112 289.217 731.348 289.215 760.518 306.807C760.519 306.807 760.52 306.808 760.521 306.809L792.812 326.264C817.699 341.264 844.329 341.263 869.195 326.266L869.198 326.264L901.491 306.807C901.492 306.807 901.491 306.808 901.491 306.807C930.678 289.216 961.915 289.215 991.086 306.809L984.478 348.179C959.612 333.182 932.983 333.181 908.096 348.18L875.804 367.637C875.803 367.637 875.802 367.638 875.801 367.639C846.63 385.231 815.395 385.229 786.209 367.638L753.916 348.181L753.913 348.179C729.047 333.182 702.418 333.181 677.531 348.18L645.239 367.637C645.238 367.637 645.237 367.638 645.236 367.639C616.065 385.231 584.831 385.229 555.645 367.639C555.645 367.638 555.646 367.639 555.645 367.639L523.348 348.179C498.482 333.182 471.853 333.181 446.966 348.18L414.674 367.637C414.673 367.637 414.672 367.638 414.671 367.639C385.5 385.231 354.266 385.229 325.08 367.639C325.08 367.638 325.081 367.639 325.08 367.639L292.783 348.179Z" fill="#00EEC5"/>
<path fill-rule="evenodd" clip-rule="evenodd" d="M292.783 428.097C267.917 413.1 241.288 413.099 216.401 428.098L209.797 386.725C238.983 369.134 270.218 369.132 299.389 386.725C299.389 386.725 299.388 386.725 299.389 386.725C299.389 386.725 299.391 386.726 299.392 386.727L331.683 406.182C356.569 421.182 383.2 421.181 408.066 406.184L408.069 406.182L440.362 386.725C440.362 386.725 440.361 386.726 440.362 386.725C469.548 369.135 500.783 369.133 529.954 386.725C529.955 386.725 529.956 386.726 529.957 386.727L562.248 406.182C587.134 421.182 613.764 421.181 638.63 406.184L638.634 406.182L670.927 386.725C670.927 386.725 670.926 386.726 670.927 386.725C700.112 369.135 731.348 369.133 760.518 386.725C760.519 386.725 760.52 386.726 760.521 386.727L792.812 406.182C817.699 421.182 844.329 421.181 869.195 406.184L869.198 406.182L901.491 386.725C901.492 386.725 901.491 386.726 901.491 386.725C930.678 369.134 961.915 369.133 991.086 386.727L984.478 428.097C959.612 413.1 932.983 413.099 908.096 428.098L875.804 447.555C875.803 447.555 875.802 447.556 875.801 447.556C846.63 465.149 815.395 465.147 786.209 447.556L753.916 428.099L753.913 428.097C729.047 413.1 702.418 413.099 677.531 428.098L645.239 447.555C645.238 447.555 645.237 447.556 645.236 447.556C616.065 465.149 584.831 465.147 555.645 447.556C555.645 447.556 555.646 447.557 555.645 447.556L523.348 428.097C498.482 413.1 471.853 413.099 446.966 428.098L414.674 447.555C414.673 447.555 414.672 447.556 414.671 447.556C385.5 465.149 354.266 465.147 325.08 447.556C325.08 447.556 325.081 447.557 325.08 447.556L292.783 428.097Z" fill="#00EEC5"/>
<path fill-rule="evenodd" clip-rule="evenodd" d="M292.783 508.011C267.917 493.014 241.288 493.013 216.401 508.012L209.797 466.639C238.983 449.048 270.218 449.046 299.389 466.639C299.389 466.639 299.388 466.639 299.389 466.639C299.389 466.639 299.391 466.64 299.392 466.641L331.683 486.096C356.569 501.096 383.2 501.095 408.066 486.098L408.069 486.096L440.362 466.639C440.362 466.639 440.361 466.64 440.362 466.639C469.548 449.049 500.783 449.047 529.954 466.639C529.955 466.639 529.956 466.64 529.957 466.641L562.248 486.096C587.134 501.096 613.764 501.095 638.63 486.098L638.634 486.096L670.927 466.639C670.927 466.639 670.926 466.64 670.927 466.639C700.112 449.049 731.348 449.047 760.518 466.639C760.519 466.639 760.52 466.64 760.521 466.641L792.812 486.096C817.699 501.096 844.329 501.095 869.195 486.098L869.198 486.096L901.491 466.639C901.492 466.639 901.491 466.64 901.491 466.639C930.678 449.048 961.915 449.047 991.086 466.641L984.478 508.011C959.612 493.014 932.983 493.013 908.096 508.012L875.804 527.469C875.803 527.469 875.802 527.47 875.801 527.471C846.63 545.063 815.395 545.061 786.209 527.47L753.916 508.013L753.913 508.011C729.047 493.014 702.418 493.013 677.531 508.012L645.239 527.469C645.238 527.469 645.237 527.47 645.236 527.471C616.065 545.063 584.831 545.061 555.645 527.471C555.645 527.47 555.646 527.471 555.645 527.471L523.348 508.011C498.482 493.014 471.853 493.013 446.966 508.012L414.674 527.469C414.673 527.469 414.672 527.47 414.671 527.471C385.5 545.063 354.266 545.061 325.08 527.471C325.08 527.47 325.081 527.471 325.08 527.471L292.783 508.011Z" fill="#00EEC5"/>
</g>
<defs>
<clipPath id="clip0_6_2930">
<rect width="1200" height="675" fill="white"/>
</clipPath>
</defs>
</svg>
