<svg width="1200" height="675" viewBox="0 0 1200 675" fill="none" xmlns="http://www.w3.org/2000/svg">
<g clip-path="url(#clip0_6_2883)">
<rect width="1200" height="675" fill="#F4F4EF"/>
<path d="M-86.3359 -45.6102L573.887 332.671L-88.8462 715.3L-86.3359 -45.6102Z" fill="#FFD1E9"/>
<circle cx="322.5" cy="333.5" r="164.5" fill="#00EEC5"/>
<circle cx="600.5" cy="333.5" r="164.5" fill="#006A56"/>
<circle cx="878.5" cy="333.5" r="164.5" fill="#393A3D"/>
<path fill-rule="evenodd" clip-rule="evenodd" d="M871 500.069C881.772 498.447 892.474 494.493 902.906 488.206L935.201 468.748C961.143 453.101 988.924 453.101 1014.89 468.749L1047.18 488.206C1075.28 505.15 1105.36 505.149 1133.47 488.206L1165.77 468.748C1191.71 453.101 1219.49 453.101 1245.45 468.749L1277.75 488.206C1305.84 505.15 1335.92 505.15 1364.04 488.206L1360.73 467.52C1334.77 483.167 1306.99 483.167 1281.05 467.52L1248.75 448.062C1220.64 431.118 1190.56 431.118 1162.46 448.063L1130.17 467.52C1104.21 483.167 1076.42 483.166 1050.48 467.519L1018.19 448.062C990.076 431.118 959.992 431.118 931.896 448.063L899.603 467.52C890.248 473.158 880.657 476.765 871 478.339L871 500.069Z" fill="#00EEC5"/>
<path fill-rule="evenodd" clip-rule="evenodd" d="M871 434.967C881.772 433.346 892.474 429.392 902.906 423.105L935.201 403.646C961.143 388 988.924 388 1014.89 403.647L1047.18 423.105C1075.28 440.049 1105.36 440.048 1133.47 423.105L1165.77 403.646C1191.71 388 1219.49 388 1245.45 403.647L1277.75 423.105C1305.84 440.049 1335.92 440.048 1364.04 423.105L1360.73 402.418C1334.77 418.066 1306.99 418.065 1281.05 402.419L1248.75 382.96C1220.64 366.017 1190.56 366.016 1162.46 382.961L1130.17 402.418C1104.21 418.066 1076.42 418.064 1050.48 402.418L1018.19 382.96C990.076 366.017 959.992 366.016 931.896 382.961L899.603 402.418C890.248 408.057 880.657 411.663 871 413.238L871 434.967Z" fill="#00EEC5"/>
<path fill-rule="evenodd" clip-rule="evenodd" d="M871 369.862C881.772 368.24 892.474 364.286 902.906 357.999L935.201 338.541C961.143 322.894 988.924 322.894 1014.89 338.542L1047.18 357.999C1075.28 374.943 1105.36 374.942 1133.47 357.999L1165.77 338.541C1191.71 322.894 1219.49 322.894 1245.45 338.542L1277.75 357.999C1305.84 374.943 1335.92 374.942 1364.04 357.999L1360.73 337.313C1334.77 352.96 1306.99 352.96 1281.05 337.313L1248.75 317.855C1220.64 300.911 1190.56 300.911 1162.46 317.856L1130.17 337.313C1104.21 352.96 1076.42 352.959 1050.48 337.312L1018.19 317.855C990.076 300.911 959.992 300.911 931.896 317.856L899.603 337.313C890.248 342.951 880.657 346.558 871 348.132L871 369.862Z" fill="#00EEC5"/>
<path fill-rule="evenodd" clip-rule="evenodd" d="M871 304.76C881.772 303.139 892.474 299.184 902.906 292.898L935.201 273.439C961.143 257.793 988.924 257.793 1014.89 273.44L1047.18 292.898C1075.28 309.842 1105.36 309.841 1133.47 292.898L1165.77 273.439C1191.71 257.793 1219.49 257.793 1245.45 273.44L1277.75 292.898C1305.84 309.842 1335.92 309.841 1364.04 292.898L1360.73 272.211C1334.77 287.859 1306.99 287.858 1281.05 272.212L1248.75 252.753C1220.64 235.81 1190.56 235.809 1162.46 252.754L1130.17 272.211C1104.21 287.859 1076.42 287.857 1050.48 272.211L1018.19 252.753C990.076 235.81 959.992 235.809 931.896 252.754L899.603 272.211C890.248 277.85 880.657 281.456 871 283.031L871 304.76Z" fill="#00EEC5"/>
<path fill-rule="evenodd" clip-rule="evenodd" d="M871 239.659C881.772 238.037 892.474 234.083 902.906 227.796L935.201 208.338C961.143 192.691 988.924 192.691 1014.89 208.339L1047.18 227.796C1075.28 244.74 1105.36 244.739 1133.47 227.796L1165.77 208.338C1191.71 192.691 1219.49 192.691 1245.45 208.339L1277.75 227.796C1305.84 244.74 1335.92 244.739 1364.04 227.796L1360.73 207.109C1334.77 222.757 1306.99 222.757 1281.05 207.11L1248.75 187.652C1220.64 170.708 1190.56 170.708 1162.46 187.653L1130.17 207.11C1104.21 222.757 1076.42 222.756 1050.48 207.109L1018.19 187.652C990.076 170.708 959.992 170.708 931.896 187.653L899.603 207.11C890.248 212.748 880.657 216.355 871 217.929L871 239.659Z" fill="#00EEC5"/>
</g>
<defs>
<clipPath id="clip0_6_2883">
<rect width="1200" height="675" fill="white"/>
</clipPath>
</defs>
</svg>
