<svg width="1184" height="666" viewBox="0 0 1184 666" fill="none" xmlns="http://www.w3.org/2000/svg">
<g clip-path="url(#clip0_1_2617)">
<rect width="1184" height="666" fill="#F4F4EF"/>
<rect width="568" height="666" fill="#FFD1E9"/>
<path d="M334.816 136.637L578.876 556.158H90.7562L334.816 136.637Z" fill="#00EEC5"/>
<path d="M901.817 559.361L657.757 139.84L1145.88 139.84L901.817 559.361Z" fill="#006A56"/>
<rect x="401" y="556" width="415" height="25.4076" transform="rotate(-90 401 556)" fill="#393A3D"/>
<rect x="451.816" y="556" width="415" height="25.4076" transform="rotate(-90 451.816 556)" fill="#393A3D"/>
<rect x="502.633" y="556" width="415" height="25.4076" transform="rotate(-90 502.633 556)" fill="#393A3D"/>
<rect x="553.445" y="556" width="415" height="25.4076" transform="rotate(-90 553.445 556)" fill="#393A3D"/>
<rect x="604.262" y="556" width="415" height="25.4076" transform="rotate(-90 604.262 556)" fill="#393A3D"/>
<rect x="655.078" y="556" width="415" height="25.4076" transform="rotate(-90 655.078 556)" fill="#393A3D"/>
<rect x="705.891" y="556" width="415" height="25.4076" transform="rotate(-90 705.891 556)" fill="#393A3D"/>
<rect x="756.707" y="556" width="415" height="25.4076" transform="rotate(-90 756.707 556)" fill="#393A3D"/>
<path fill-rule="evenodd" clip-rule="evenodd" d="M592.5 483C675.067 483 742 416.067 742 333.5C742 250.933 675.067 184 592.5 184C509.933 184 443 250.933 443 333.5C443 416.067 509.933 483 592.5 483ZM592.5 424.373C642.688 424.373 683.373 383.688 683.373 333.5C683.373 283.312 642.688 242.627 592.5 242.627C542.313 242.627 501.627 283.312 501.627 333.5C501.627 383.688 542.313 424.373 592.5 424.373Z" fill="#FFD1E9"/>
</g>
<defs>
<clipPath id="clip0_1_2617">
<rect width="1184" height="666" fill="white"/>
</clipPath>
</defs>
</svg>
