<svg width="1200" height="675" viewBox="0 0 1200 675" fill="none" xmlns="http://www.w3.org/2000/svg">
<g clip-path="url(#clip0_6_2873)">
<rect width="1200" height="675" fill="#F4F4EF"/>
<path d="M956 -31C690.904 -296.096 261.097 -296.097 -3.99979 -31.0001C-269.096 234.096 -269.096 663.903 -3.99987 929L956 -31Z" fill="#FFD1E9"/>
<path fill-rule="evenodd" clip-rule="evenodd" d="M100.892 77.86C58.5794 52.3405 13.2689 52.3395 -29.0749 77.861L-34.4609 44.1213C11.3892 16.4865 60.4555 16.4849 106.279 44.1207C106.28 44.1212 106.278 44.1202 106.279 44.1207L158.951 75.8562C201.294 101.378 246.606 101.377 288.918 75.8577L341.592 44.1213C341.592 44.1211 341.592 44.1214 341.592 44.1213C387.442 16.487 436.509 16.4851 482.332 44.1207C482.332 44.1212 482.331 44.1203 482.332 44.1207L535.003 75.8562C577.347 101.378 622.659 101.377 664.971 75.8577L717.645 44.1213C717.645 44.1211 717.644 44.1214 717.645 44.1213C763.495 16.487 812.561 16.4851 858.384 44.1207C858.385 44.1212 858.383 44.1203 858.384 44.1207L911.056 75.8562C953.4 101.378 998.711 101.377 1041.02 75.8577L1093.7 44.1213C1139.55 16.486 1188.62 16.4849 1234.44 44.1222L1229.05 77.86C1186.74 52.3405 1141.43 52.3395 1099.08 77.861L1046.41 109.595C1046.41 109.596 1046.41 109.595 1046.41 109.595C1000.59 137.231 951.521 137.231 905.671 109.596L853 77.8615C810.687 52.342 765.374 52.3395 723.031 77.861L670.36 109.595C624.537 137.233 575.47 137.232 529.619 109.597C529.619 109.597 529.619 109.597 529.619 109.597L476.947 77.8615C434.635 52.342 389.322 52.3395 346.978 77.861L294.308 109.595C248.484 137.233 199.417 137.232 153.566 109.597C153.566 109.597 153.567 109.597 153.566 109.597L100.892 77.86Z" fill="#393A3D"/>
<path fill-rule="evenodd" clip-rule="evenodd" d="M100.892 208.2C58.5794 182.68 13.2689 182.679 -29.0749 208.201L-34.4609 174.461C11.3892 146.826 60.4555 146.825 106.279 174.461C106.28 174.461 106.278 174.46 106.279 174.461L158.951 206.196C201.294 231.718 246.606 231.717 288.918 206.198L341.592 174.461C341.592 174.461 341.592 174.461 341.592 174.461C387.442 146.827 436.509 146.825 482.332 174.461C482.332 174.461 482.331 174.46 482.332 174.461L535.003 206.196C577.347 231.718 622.659 231.717 664.971 206.198L717.645 174.461C717.645 174.461 717.644 174.461 717.645 174.461C763.495 146.827 812.561 146.825 858.384 174.461C858.385 174.461 858.383 174.46 858.384 174.461L911.056 206.196C953.4 231.718 998.711 231.717 1041.02 206.198L1093.7 174.461C1139.55 146.826 1188.62 146.825 1234.44 174.462L1229.05 208.2C1186.74 182.68 1141.43 182.679 1099.08 208.201L1046.41 239.935C1046.41 239.936 1046.41 239.935 1046.41 239.935C1000.59 267.571 951.521 267.571 905.671 239.936L853 208.201C810.687 182.682 765.374 182.679 723.031 208.201L670.36 239.935C624.537 267.572 575.47 267.572 529.619 239.937C529.619 239.937 529.619 239.937 529.619 239.937L476.947 208.201C434.635 182.682 389.322 182.679 346.978 208.201L294.308 239.935C248.484 267.572 199.417 267.572 153.566 239.937C153.566 239.937 153.567 239.937 153.566 239.937L100.892 208.2Z" fill="#393A3D"/>
<path fill-rule="evenodd" clip-rule="evenodd" d="M100.892 338.544C58.5794 313.024 13.2689 313.023 -29.0749 338.545L-34.4609 304.805C11.3892 277.17 60.4555 277.169 106.279 304.804C106.28 304.805 106.278 304.804 106.279 304.804L158.951 336.54C201.294 362.061 246.606 362.061 288.918 336.541L341.592 304.805C341.592 304.805 341.592 304.805 341.592 304.805C387.442 277.171 436.509 277.169 482.332 304.804C482.332 304.805 482.331 304.804 482.332 304.804L535.003 336.54C577.347 362.061 622.659 362.061 664.971 336.541L717.645 304.805C717.645 304.805 717.644 304.805 717.645 304.805C763.495 277.171 812.561 277.169 858.384 304.804C858.385 304.805 858.383 304.804 858.384 304.804L911.056 336.54C953.4 362.061 998.711 362.061 1041.02 336.541L1093.7 304.805C1139.55 277.17 1188.62 277.169 1234.44 304.806L1229.05 338.544C1186.74 313.024 1141.43 313.023 1099.08 338.545L1046.41 370.279C1046.41 370.28 1046.41 370.279 1046.41 370.279C1000.59 397.915 951.521 397.915 905.671 370.28L853 338.545C810.687 313.026 765.374 313.023 723.031 338.545L670.36 370.279C624.537 397.916 575.47 397.915 529.619 370.281C529.619 370.28 529.619 370.281 529.619 370.281L476.947 338.545C434.635 313.026 389.322 313.023 346.978 338.545L294.308 370.279C248.484 397.916 199.417 397.915 153.566 370.281C153.566 370.28 153.567 370.281 153.566 370.281L100.892 338.544Z" fill="#393A3D"/>
<path fill-rule="evenodd" clip-rule="evenodd" d="M100.892 468.887C58.5794 443.368 13.2689 443.367 -29.0749 468.888L-34.4609 435.149C11.3892 407.514 60.4555 407.512 106.279 435.148C106.28 435.149 106.278 435.148 106.279 435.148L158.951 466.884C201.294 492.405 246.606 492.405 288.918 466.885L341.592 435.149C341.592 435.148 341.592 435.149 341.592 435.149C387.442 407.514 436.509 407.512 482.332 435.148C482.332 435.149 482.331 435.148 482.332 435.148L535.003 466.884C577.347 492.405 622.659 492.405 664.971 466.885L717.645 435.149C717.645 435.148 717.644 435.149 717.645 435.149C763.495 407.514 812.561 407.512 858.384 435.148C858.385 435.149 858.383 435.148 858.384 435.148L911.056 466.884C953.4 492.405 998.711 492.405 1041.02 466.885L1093.7 435.149C1139.55 407.513 1188.62 407.512 1234.44 435.15L1229.05 468.887C1186.74 443.368 1141.43 443.367 1099.08 468.888L1046.41 500.623C1046.41 500.623 1046.41 500.622 1046.41 500.623C1000.59 528.259 951.521 528.259 905.671 500.624L853 468.889C810.687 443.369 765.374 443.367 723.031 468.888L670.36 500.623C624.537 528.26 575.47 528.259 529.619 500.624C529.619 500.624 529.619 500.624 529.619 500.624L476.947 468.889C434.635 443.369 389.322 443.367 346.978 468.888L294.308 500.623C248.484 528.26 199.417 528.259 153.566 500.624C153.566 500.624 153.567 500.624 153.566 500.624L100.892 468.887Z" fill="#393A3D"/>
<path fill-rule="evenodd" clip-rule="evenodd" d="M100.892 599.223C58.5794 573.704 13.2689 573.703 -29.0749 599.224L-34.4609 565.485C11.3892 537.85 60.4555 537.848 106.279 565.484C106.28 565.485 106.278 565.484 106.279 565.484L158.951 597.219C201.294 622.741 246.606 622.74 288.918 597.221L341.592 565.485C341.592 565.484 341.592 565.485 341.592 565.485C387.442 537.85 436.509 537.848 482.332 565.484C482.332 565.485 482.331 565.484 482.332 565.484L535.003 597.219C577.347 622.741 622.659 622.74 664.971 597.221L717.645 565.485C717.645 565.484 717.644 565.485 717.645 565.485C763.495 537.85 812.561 537.848 858.384 565.484C858.385 565.485 858.383 565.484 858.384 565.484L911.056 597.219C953.4 622.741 998.711 622.74 1041.02 597.221L1093.7 565.485C1139.55 537.849 1188.62 537.848 1234.44 565.486L1229.05 599.223C1186.74 573.704 1141.43 573.703 1099.08 599.224L1046.41 630.959C1046.41 630.959 1046.41 630.958 1046.41 630.959C1000.59 658.595 951.521 658.595 905.671 630.96L853 599.225C810.687 573.705 765.374 573.703 723.031 599.224L670.36 630.959C624.537 658.596 575.47 658.595 529.619 630.96C529.619 630.96 529.619 630.96 529.619 630.96L476.947 599.225C434.635 573.705 389.322 573.703 346.978 599.224L294.308 630.959C248.484 658.596 199.417 658.595 153.566 630.96C153.566 630.96 153.567 630.96 153.566 630.96L100.892 599.223Z" fill="#393A3D"/>
<path d="M480.641 444C603.247 566.607 802.032 566.607 924.639 444C1047.25 321.393 1047.25 122.608 924.639 0.00122802L480.641 444Z" fill="#006A56"/>
<path d="M703 222C580.393 99.3932 381.608 99.393 259.001 222C136.394 344.607 136.394 543.392 259.001 665.999L703 222Z" fill="#00EEC5"/>
</g>
<defs>
<clipPath id="clip0_6_2873">
<rect width="1200" height="675" fill="white"/>
</clipPath>
</defs>
</svg>
