<svg width="1184" height="666" viewBox="0 0 1184 666" fill="none" xmlns="http://www.w3.org/2000/svg">
<g clip-path="url(#clip0_1_2570)">
<rect width="1184" height="666" fill="#F4F4EF"/>
<path d="M-86.3359 -45.6102L573.887 332.671L-88.8462 715.3L-86.3359 -45.6102Z" fill="#FFD1E9"/>
<circle cx="314.5" cy="333.5" r="164.5" fill="#00EEC5"/>
<circle cx="592.5" cy="333.5" r="164.5" fill="#006A56"/>
<circle cx="870.5" cy="333.5" r="164.5" fill="#393A3D"/>
<path fill-rule="evenodd" clip-rule="evenodd" d="M871 490.727C877.696 488.644 884.335 485.634 890.867 481.698L922.731 462.499C948.328 447.061 975.739 447.061 1001.35 462.5L1033.22 481.698C1060.94 498.416 1090.62 498.415 1118.36 481.698L1150.22 462.499C1175.82 447.061 1203.23 447.061 1228.85 462.5L1260.71 481.698C1288.43 498.416 1318.11 498.415 1345.85 481.698L1342.59 461.287C1316.97 476.726 1289.56 476.726 1263.97 461.288L1232.1 442.089C1204.37 425.371 1174.68 425.371 1146.96 442.09L1115.1 461.287C1089.48 476.726 1062.07 476.725 1036.48 461.287L1004.61 442.089C976.875 425.371 947.192 425.371 919.471 442.09L887.609 461.287C882.142 464.582 876.595 467.173 871 469.062L871 490.727Z" fill="#00EEC5"/>
<path fill-rule="evenodd" clip-rule="evenodd" d="M871 426.492C877.696 424.41 884.335 421.4 890.867 417.463L922.731 398.265C948.328 382.827 975.739 382.827 1001.35 398.266L1033.22 417.464C1060.94 434.182 1090.62 434.181 1118.36 417.463L1150.22 398.265C1175.82 382.827 1203.23 382.827 1228.85 398.266L1260.71 417.464C1288.43 434.182 1318.11 434.181 1345.85 417.463L1342.59 397.053C1316.97 412.492 1289.56 412.491 1263.97 397.053L1232.1 377.854C1204.37 361.137 1174.68 361.136 1146.96 377.855L1115.1 397.053C1089.48 412.492 1062.07 412.49 1036.48 397.053L1004.61 377.854C976.875 361.137 947.192 361.136 919.471 377.855L887.609 397.053C882.142 400.347 876.595 402.939 871 404.827L871 426.492Z" fill="#00EEC5"/>
<path fill-rule="evenodd" clip-rule="evenodd" d="M871 362.256C877.696 360.173 884.335 357.164 890.867 353.227L922.731 334.028C948.328 318.591 975.739 318.59 1001.35 334.029L1033.22 353.227C1060.94 369.945 1090.62 369.944 1118.36 353.227L1150.22 334.028C1175.82 318.591 1203.23 318.59 1228.85 334.029L1260.71 353.227C1288.43 369.946 1318.11 369.945 1345.85 353.227L1342.59 332.816C1316.97 348.256 1289.56 348.255 1263.97 332.817L1232.1 313.618C1204.37 296.901 1174.68 296.9 1146.96 313.619L1115.1 332.816C1089.48 348.256 1062.07 348.254 1036.48 332.816L1004.61 313.618C976.875 296.901 947.192 296.9 919.471 313.619L887.609 332.817C882.142 336.111 876.595 338.702 871 340.591L871 362.256Z" fill="#00EEC5"/>
<path fill-rule="evenodd" clip-rule="evenodd" d="M871 298.022C877.696 295.939 884.335 292.929 890.867 288.993L922.731 269.794C948.328 254.356 975.739 254.356 1001.35 269.795L1033.22 288.993C1060.94 305.711 1090.62 305.71 1118.36 288.993L1150.22 269.794C1175.82 254.356 1203.23 254.356 1228.85 269.795L1260.71 288.993C1288.43 305.711 1318.11 305.71 1345.85 288.993L1342.59 268.582C1316.97 284.021 1289.56 284.021 1263.97 268.583L1232.1 249.384C1204.37 232.666 1174.68 232.666 1146.96 249.385L1115.1 268.582C1089.48 284.021 1062.07 284.02 1036.48 268.582L1004.61 249.384C976.875 232.666 947.192 232.666 919.471 249.385L887.609 268.582C882.142 271.877 876.595 274.468 871 276.357L871 298.022Z" fill="#00EEC5"/>
<path fill-rule="evenodd" clip-rule="evenodd" d="M871 233.787C877.696 231.705 884.335 228.695 890.867 224.758L922.731 205.56C948.328 190.122 975.739 190.121 1001.35 205.561L1033.22 224.759C1060.94 241.477 1090.62 241.476 1118.36 224.758L1150.22 205.56C1175.82 190.122 1203.23 190.121 1228.85 205.561L1260.71 224.759C1288.43 241.477 1318.11 241.476 1345.85 224.758L1342.59 204.348C1316.97 219.787 1289.56 219.786 1263.97 204.348L1232.1 185.149C1204.37 168.432 1174.68 168.431 1146.96 185.15L1115.1 204.348C1089.48 219.787 1062.07 219.785 1036.48 204.347L1004.61 185.149C976.875 168.432 947.192 168.431 919.471 185.15L887.609 204.348C882.142 207.642 876.595 210.234 871 212.122L871 233.787Z" fill="#00EEC5"/>
</g>
<defs>
<clipPath id="clip0_1_2570">
<rect width="1184" height="666" fill="white"/>
</clipPath>
</defs>
</svg>
