<svg width="1200" height="675" viewBox="0 0 1200 675" fill="none" xmlns="http://www.w3.org/2000/svg">
<rect width="1200" height="675" fill="#F4F4EF"/>
<rect x="817" width="367" height="333" fill="#FFD1E9"/>
<circle cx="841.5" cy="332.5" r="249.5" fill="#00EEC5"/>
<mask id="mask0_6_2826" style="mask-type:alpha" maskUnits="userSpaceOnUse" x="817" y="0" width="367" height="333">
<rect x="817" width="367" height="333" fill="#FFD1E9"/>
</mask>
<g mask="url(#mask0_6_2826)">
<circle cx="841.5" cy="332.5" r="249.5" fill="#006A56"/>
</g>
<path fill-rule="evenodd" clip-rule="evenodd" d="M99.4504 96C101.568 103.226 104.749 110.391 108.993 117.433L128.451 149.728C144.098 175.67 144.098 203.451 128.45 229.413L108.993 261.707C92.0489 289.802 92.05 319.886 108.993 347.997L128.451 380.293C144.098 406.235 144.098 434.016 128.45 459.978L108.993 492.272C92.0488 520.367 92.0497 550.451 108.993 578.562L129.68 575.26C114.032 549.298 114.032 521.518 129.679 495.575L149.137 463.279C166.081 435.167 166.081 405.084 149.137 376.988L129.68 344.695C114.032 318.733 114.033 290.951 129.68 265.009L149.137 232.714C166.081 204.603 166.081 174.519 149.137 146.423L129.68 114.13C126.086 108.168 123.318 102.11 121.375 96H99.4504Z" fill="#393A3D"/>
<path fill-rule="evenodd" clip-rule="evenodd" d="M164.552 96C166.67 103.226 169.851 110.391 174.095 117.433L193.553 149.728C209.199 175.67 209.2 203.451 193.552 229.413L174.094 261.707C157.15 289.802 157.152 319.886 174.095 347.997L193.553 380.293C209.199 406.235 209.2 434.016 193.552 459.978L174.094 492.272C157.15 520.367 157.151 550.451 174.095 578.562L194.781 575.26C179.133 549.298 179.134 521.518 194.781 495.575L214.239 463.279C231.182 435.167 231.183 405.084 214.238 376.988L194.781 344.695C179.133 318.733 179.135 290.951 194.781 265.009L214.239 232.714C231.182 204.603 231.183 174.519 214.238 146.423L194.781 114.13C191.188 108.168 188.419 102.11 186.476 96H164.552Z" fill="#393A3D"/>
<path fill-rule="evenodd" clip-rule="evenodd" d="M229.657 96C231.775 103.226 234.956 110.391 239.2 117.433L258.658 149.728C274.305 175.67 274.305 203.451 258.657 229.413L239.2 261.707C222.256 289.802 222.257 319.886 239.2 347.997L258.658 380.293C274.305 406.235 274.305 434.016 258.657 459.978L239.2 492.272C222.256 520.367 222.257 550.451 239.2 578.562L259.887 575.26C244.239 549.298 244.24 521.518 259.886 495.575L279.344 463.279C296.288 435.167 296.288 405.084 279.344 376.988L259.887 344.695C244.239 318.733 244.24 290.951 259.887 265.009L279.344 232.714C296.288 204.603 296.288 174.519 279.344 146.423L259.887 114.13C256.293 108.168 253.525 102.11 251.582 96H229.657Z" fill="#393A3D"/>
<path fill-rule="evenodd" clip-rule="evenodd" d="M294.759 96C296.877 103.226 300.058 110.391 304.302 117.433L323.76 149.728C339.406 175.67 339.407 203.451 323.759 229.413L304.301 261.707C287.357 289.802 287.359 319.886 304.302 347.997L323.76 380.293C339.406 406.235 339.407 434.016 323.759 459.978L304.301 492.272C287.357 520.367 287.358 550.451 304.302 578.562L324.988 575.26C309.34 549.298 309.341 521.518 324.988 495.575L344.446 463.279C361.389 435.167 361.39 405.084 344.445 376.988L324.988 344.695C309.34 318.733 309.342 290.951 324.988 265.009L344.446 232.714C361.389 204.603 361.39 174.519 344.445 146.423L324.988 114.13C321.395 108.168 318.626 102.11 316.683 96H294.759Z" fill="#393A3D"/>
<path fill-rule="evenodd" clip-rule="evenodd" d="M359.861 96C361.978 103.226 365.159 110.391 369.403 117.433L388.861 149.728C404.508 175.67 404.508 203.451 388.861 229.413L369.403 261.707C352.459 289.802 352.46 319.886 369.403 347.997L388.861 380.293C404.508 406.235 404.508 434.016 388.861 459.978L369.403 492.272C352.459 520.367 352.46 550.451 369.403 578.562L390.09 575.26C374.442 549.298 374.443 521.518 390.089 495.575L409.548 463.279C426.491 435.167 426.492 405.084 409.547 376.988L390.09 344.695C374.442 318.733 374.444 290.951 390.09 265.009L409.548 232.714C426.491 204.603 426.492 174.519 409.547 146.423L390.09 114.13C386.496 108.168 383.728 102.11 381.785 96H359.861Z" fill="#393A3D"/>
</svg>
