<svg width="1200" height="675" viewBox="0 0 1200 675" fill="none" xmlns="http://www.w3.org/2000/svg">
<rect width="1200" height="675" fill="#F4F4EF"/>
<rect width="590" height="666" fill="#FFD1E9"/>
<path fill-rule="evenodd" clip-rule="evenodd" d="M599.553 587.107C737.378 587.107 849.107 475.378 849.107 337.553C849.107 199.729 737.378 88 599.553 88C461.729 88 350 199.729 350 337.553C350 475.378 461.729 587.107 599.553 587.107ZM599.553 489.243C683.329 489.243 751.243 421.329 751.243 337.553C751.243 253.778 683.329 185.864 599.553 185.864C515.778 185.864 447.864 253.778 447.864 337.553C447.864 421.329 515.778 489.243 599.553 489.243Z" fill="#00EEC5"/>
<path fill-rule="evenodd" clip-rule="evenodd" d="M291.772 178.327C265.83 162.681 238.049 162.68 212.087 178.328L208.785 157.642C236.897 140.698 266.98 140.697 295.075 157.641C295.076 157.642 295.075 157.641 295.075 157.641L327.369 177.099C353.331 192.746 381.112 192.746 407.055 177.1L439.35 157.642C439.35 157.641 439.35 157.642 439.35 157.642C467.461 140.698 497.545 140.697 525.64 157.641C525.641 157.642 525.64 157.641 525.64 157.641L557.934 177.099C583.896 192.746 611.677 192.746 637.62 177.1L669.915 157.642C669.915 157.641 669.915 157.642 669.915 157.642C698.026 140.698 728.11 140.697 756.205 157.641C756.205 157.642 756.204 157.641 756.205 157.641L788.499 177.099C814.461 192.746 842.242 192.746 868.185 177.1L900.48 157.642C928.592 140.698 958.676 140.697 986.771 157.642L983.467 178.327C957.524 162.681 929.744 162.68 903.782 178.328L871.489 197.785C871.488 197.785 871.489 197.785 871.489 197.785C843.394 214.729 813.309 214.729 785.197 197.786L752.904 178.328C726.961 162.682 699.179 162.68 673.217 178.328L640.924 197.785C612.829 214.73 582.745 214.729 554.633 197.786C554.633 197.786 554.633 197.786 554.633 197.786L522.339 178.328C496.396 162.682 468.614 162.68 442.652 178.328L410.359 197.785C382.264 214.73 352.18 214.729 324.068 197.786C324.068 197.786 324.068 197.786 324.068 197.786L291.772 178.327Z" fill="#393A3D"/>
<path fill-rule="evenodd" clip-rule="evenodd" d="M291.772 258.241C265.83 242.595 238.049 242.594 212.087 258.242L208.785 237.556C236.897 220.612 266.98 220.611 295.075 237.555C295.076 237.556 295.075 237.555 295.075 237.555L327.369 257.013C353.331 272.661 381.112 272.66 407.055 257.014L439.35 237.556C439.35 237.555 439.35 237.556 439.35 237.556C467.461 220.613 497.545 220.611 525.64 237.555C525.641 237.556 525.64 237.555 525.64 237.555L557.934 257.013C583.896 272.661 611.677 272.66 637.62 257.014L669.915 237.556C669.915 237.555 669.915 237.556 669.915 237.556C698.026 220.612 728.11 220.611 756.205 237.555C756.205 237.556 756.204 237.555 756.205 237.555L788.499 257.013C814.461 272.661 842.242 272.66 868.185 257.014L900.48 237.556C928.592 220.612 958.676 220.611 986.771 237.556L983.467 258.241C957.524 242.595 929.744 242.594 903.782 258.242L871.489 277.699C871.488 277.699 871.489 277.699 871.489 277.699C843.394 294.643 813.309 294.643 785.197 277.7L752.904 258.242C726.961 242.596 699.179 242.594 673.217 258.242L640.924 277.699C612.829 294.644 582.745 294.643 554.633 277.7C554.633 277.7 554.633 277.7 554.633 277.7L522.339 258.242C496.396 242.596 468.614 242.594 442.652 258.242L410.359 277.699C382.264 294.644 352.18 294.643 324.068 277.7C324.068 277.7 324.068 277.7 324.068 277.7L291.772 258.241Z" fill="#393A3D"/>
<path fill-rule="evenodd" clip-rule="evenodd" d="M291.772 338.156C265.83 322.509 238.049 322.508 212.087 338.156L208.785 317.47C236.897 300.526 266.98 300.525 295.075 317.469C295.076 317.47 295.075 317.469 295.075 317.469L327.369 336.927C353.331 352.575 381.112 352.574 407.055 336.928L439.35 317.47C439.35 317.47 439.35 317.47 439.35 317.47C467.461 300.527 497.545 300.525 525.64 317.469C525.641 317.47 525.64 317.469 525.64 317.469L557.934 336.927C583.896 352.575 611.677 352.574 637.62 336.928L669.915 317.47C669.915 317.47 669.915 317.47 669.915 317.47C698.026 300.527 728.11 300.525 756.205 317.469C756.205 317.47 756.204 317.469 756.205 317.469L788.499 336.927C814.461 352.575 842.242 352.574 868.185 336.928L900.48 317.47C928.592 300.526 958.676 300.525 986.771 317.47L983.467 338.156C957.524 322.509 929.744 322.508 903.782 338.156L871.489 357.613C871.488 357.613 871.489 357.613 871.489 357.613C843.394 374.557 813.309 374.557 785.197 357.614L752.904 338.156C726.961 322.51 699.179 322.508 673.217 338.156L640.924 357.613C612.829 374.558 582.745 374.557 554.633 357.614C554.633 357.614 554.633 357.614 554.633 357.614L522.339 338.156C496.396 322.51 468.614 322.508 442.652 338.156L410.359 357.613C382.264 374.558 352.18 374.557 324.068 357.614C324.068 357.614 324.068 357.614 324.068 357.614L291.772 338.156Z" fill="#393A3D"/>
<path fill-rule="evenodd" clip-rule="evenodd" d="M291.772 418.073C265.83 402.427 238.049 402.426 212.087 418.074L208.785 397.388C236.897 380.444 266.98 380.443 295.075 397.387C295.076 397.388 295.075 397.387 295.075 397.387L327.369 416.845C353.331 432.493 381.112 432.492 407.055 416.846L439.35 397.388C439.35 397.388 439.35 397.388 439.35 397.388C467.461 380.445 497.545 380.443 525.64 397.387C525.641 397.388 525.64 397.387 525.64 397.387L557.934 416.845C583.896 432.493 611.677 432.492 637.62 416.846L669.915 397.388C669.915 397.388 669.915 397.388 669.915 397.388C698.026 380.445 728.11 380.443 756.205 397.387C756.205 397.388 756.204 397.387 756.205 397.387L788.499 416.845C814.461 432.493 842.242 432.492 868.185 416.846L900.48 397.388C928.592 380.444 958.676 380.443 986.771 397.388L983.467 418.073C957.524 402.427 929.744 402.426 903.782 418.074L871.489 437.531C871.488 437.531 871.489 437.531 871.489 437.531C843.394 454.475 813.309 454.475 785.197 437.532L752.904 418.074C726.961 402.428 699.179 402.426 673.217 418.074L640.924 437.531C612.829 454.476 582.745 454.475 554.633 437.532C554.633 437.532 554.633 437.532 554.633 437.532L522.339 418.074C496.396 402.428 468.614 402.426 442.652 418.074L410.359 437.531C382.264 454.476 352.18 454.475 324.068 437.532C324.068 437.532 324.068 437.532 324.068 437.532L291.772 418.073Z" fill="#393A3D"/>
<path fill-rule="evenodd" clip-rule="evenodd" d="M291.772 497.988C265.83 482.341 238.049 482.34 212.087 497.988L208.785 477.302C236.897 460.358 266.98 460.357 295.075 477.301C295.076 477.302 295.075 477.301 295.075 477.301L327.369 496.759C353.331 512.407 381.112 512.406 407.055 496.76L439.35 477.302C439.35 477.302 439.35 477.302 439.35 477.302C467.461 460.359 497.545 460.357 525.64 477.301C525.641 477.302 525.64 477.301 525.64 477.301L557.934 496.759C583.896 512.407 611.677 512.406 637.62 496.76L669.915 477.302C669.915 477.302 669.915 477.302 669.915 477.302C698.026 460.359 728.11 460.357 756.205 477.301C756.205 477.302 756.204 477.301 756.205 477.301L788.499 496.759C814.461 512.407 842.242 512.406 868.185 496.76L900.48 477.302C928.592 460.358 958.676 460.357 986.771 477.302L983.467 497.988C957.524 482.341 929.744 482.34 903.782 497.988L871.489 517.445C871.488 517.445 871.489 517.445 871.489 517.445C843.394 534.389 813.309 534.389 785.197 517.446L752.904 497.988C726.961 482.342 699.179 482.34 673.217 497.988L640.924 517.445C612.829 534.39 582.745 534.389 554.633 517.446C554.633 517.446 554.633 517.446 554.633 517.446L522.339 497.988C496.396 482.342 468.614 482.34 442.652 497.988L410.359 517.445C382.264 534.39 352.18 534.389 324.068 517.446C324.068 517.446 324.068 517.446 324.068 517.446L291.772 497.988Z" fill="#393A3D"/>
</svg>
