<svg width="1184" height="666" viewBox="0 0 1184 666" fill="none" xmlns="http://www.w3.org/2000/svg">
<g clip-path="url(#clip0_1_2513)">
<rect width="1184" height="666" fill="#F4F4EF"/>
<ellipse cx="190.5" cy="241.5" rx="488.5" ry="471.5" fill="#FFD1E9"/>
<path d="M958.5 0L1186.7 392.25H730.302L958.5 0Z" fill="#006A56"/>
<path fill-rule="evenodd" clip-rule="evenodd" d="M272.881 175.949C247.284 160.511 219.874 160.51 194.258 175.949L191 155.538C218.737 138.821 248.419 138.82 276.14 155.538C276.14 155.538 276.139 155.538 276.14 155.538L308.003 174.736C333.619 190.175 361.029 190.175 386.626 174.737L418.491 155.538C418.491 155.538 418.491 155.539 418.491 155.538C446.227 138.821 475.91 138.82 503.63 155.538C503.631 155.538 503.63 155.538 503.63 155.538L535.494 174.736C561.109 190.175 588.52 190.175 614.117 174.737L645.981 155.538C645.981 155.538 645.981 155.539 645.981 155.538C673.718 138.821 703.401 138.82 731.121 155.538C731.121 155.538 731.12 155.538 731.121 155.538L762.984 174.736C788.6 190.175 816.011 190.175 841.608 174.737L873.472 155.538C901.209 138.821 930.892 138.82 958.613 155.539L955.353 175.949C929.756 160.511 902.346 160.51 876.73 175.949L844.868 195.147C844.867 195.147 844.868 195.146 844.868 195.147C817.147 211.865 787.463 211.865 759.727 195.147L727.864 175.949C702.267 160.512 674.855 160.51 649.24 175.949L617.377 195.147C589.656 211.866 559.974 211.865 532.236 195.148C532.236 195.147 532.237 195.148 532.236 195.148L500.373 175.949C474.776 160.512 447.365 160.51 421.749 175.949L389.886 195.147C362.166 211.866 332.483 211.865 304.746 195.148C304.746 195.147 304.746 195.148 304.746 195.148L272.881 175.949Z" fill="#393A3D"/>
<path fill-rule="evenodd" clip-rule="evenodd" d="M272.881 254.796C247.284 239.358 219.874 239.358 194.258 254.797L191 234.386C218.737 217.669 248.419 217.668 276.14 234.386C276.14 234.386 276.139 234.386 276.14 234.386L308.003 253.584C333.619 269.023 361.029 269.023 386.626 253.585L418.491 234.386C418.491 234.386 418.491 234.386 418.491 234.386C446.227 217.669 475.91 217.668 503.63 234.386C503.631 234.386 503.63 234.386 503.63 234.386L535.494 253.584C561.109 269.023 588.52 269.023 614.117 253.585L645.981 234.386C645.981 234.386 645.981 234.386 645.981 234.386C673.718 217.669 703.401 217.668 731.121 234.386C731.121 234.386 731.12 234.386 731.121 234.386L762.984 253.584C788.6 269.023 816.011 269.023 841.608 253.585L873.472 234.386C901.209 217.668 930.892 217.668 958.613 234.387L955.353 254.796C929.756 239.358 902.346 239.358 876.73 254.797L844.868 273.994C844.867 273.995 844.868 273.994 844.868 273.994C817.147 290.712 787.463 290.712 759.727 273.995L727.864 254.797C702.267 239.359 674.855 239.358 649.24 254.797L617.377 273.994C589.656 290.713 559.974 290.713 532.236 273.995C532.236 273.995 532.237 273.995 532.236 273.995L500.373 254.797C474.776 239.359 447.365 239.358 421.749 254.797L389.886 273.994C362.166 290.713 332.483 290.713 304.746 273.995C304.746 273.995 304.746 273.995 304.746 273.995L272.881 254.796Z" fill="#393A3D"/>
<path fill-rule="evenodd" clip-rule="evenodd" d="M272.881 333.648C247.284 318.21 219.874 318.209 194.258 333.648L191 313.238C218.737 296.52 248.419 296.519 276.14 313.237C276.14 313.238 276.139 313.237 276.14 313.237L308.003 332.436C333.619 347.875 361.029 347.874 386.626 332.436L418.491 313.238C418.491 313.238 418.491 313.238 418.491 313.238C446.227 296.521 475.91 296.519 503.63 313.237C503.631 313.238 503.63 313.237 503.63 313.237L535.494 332.436C561.109 347.875 588.52 347.874 614.117 332.436L645.981 313.238C645.981 313.238 645.981 313.238 645.981 313.238C673.718 296.521 703.401 296.519 731.121 313.237C731.121 313.238 731.12 313.237 731.121 313.237L762.984 332.436C788.6 347.875 816.011 347.874 841.608 332.436L873.472 313.238C901.209 296.52 930.892 296.519 958.613 313.238L955.353 333.648C929.756 318.21 902.346 318.209 876.73 333.648L844.868 352.846C844.867 352.846 844.868 352.846 844.868 352.846C817.147 369.564 787.463 369.564 759.727 352.847L727.864 333.649C702.267 318.211 674.855 318.209 649.24 333.648L617.377 352.846C589.656 369.565 559.974 369.564 532.236 352.847C532.236 352.847 532.237 352.847 532.236 352.847L500.373 333.649C474.776 318.211 447.365 318.209 421.749 333.648L389.886 352.846C362.166 369.565 332.483 369.564 304.746 352.847C304.746 352.847 304.746 352.847 304.746 352.847L272.881 333.648Z" fill="#393A3D"/>
<path fill-rule="evenodd" clip-rule="evenodd" d="M272.881 412.495C247.284 397.058 219.874 397.057 194.258 412.496L191 392.085C218.737 375.368 248.419 375.367 276.14 392.085C276.14 392.085 276.139 392.085 276.14 392.085L308.003 411.283C333.619 426.722 361.029 426.722 386.626 411.284L418.491 392.085C418.491 392.085 418.491 392.085 418.491 392.085C446.227 375.368 475.91 375.367 503.63 392.085C503.631 392.085 503.63 392.085 503.63 392.085L535.494 411.283C561.109 426.722 588.52 426.722 614.117 411.284L645.981 392.085C645.981 392.085 645.981 392.085 645.981 392.085C673.718 375.368 703.401 375.367 731.121 392.085C731.121 392.085 731.12 392.085 731.121 392.085L762.984 411.283C788.6 426.722 816.011 426.722 841.608 411.284L873.472 392.085C901.209 375.368 930.892 375.367 958.613 392.086L955.353 412.495C929.756 397.058 902.346 397.057 876.73 412.496L844.868 431.694C844.867 431.694 844.868 431.693 844.868 431.694C817.147 448.412 787.463 448.412 759.727 431.694L727.864 412.496C702.267 397.058 674.855 397.057 649.24 412.496L617.377 431.694C589.656 448.412 559.974 448.412 532.236 431.694C532.236 431.694 532.237 431.695 532.236 431.694L500.373 412.496C474.776 397.058 447.365 397.057 421.749 412.496L389.886 431.694C362.166 448.412 332.483 448.412 304.746 431.694C304.746 431.694 304.746 431.695 304.746 431.694L272.881 412.495Z" fill="#393A3D"/>
<path fill-rule="evenodd" clip-rule="evenodd" d="M272.881 491.347C247.284 475.909 219.874 475.909 194.258 491.348L191 470.937C218.737 454.219 248.419 454.219 276.14 470.937C276.14 470.937 276.139 470.936 276.14 470.937L308.003 490.135C333.619 505.574 361.029 505.574 386.626 490.136L418.491 470.937C418.491 470.937 418.491 470.937 418.491 470.937C446.227 454.22 475.91 454.219 503.63 470.937C503.631 470.937 503.63 470.936 503.63 470.937L535.494 490.135C561.109 505.574 588.52 505.574 614.117 490.136L645.981 470.937C645.981 470.937 645.981 470.937 645.981 470.937C673.718 454.22 703.401 454.219 731.121 470.937C731.121 470.937 731.12 470.936 731.121 470.937L762.984 490.135C788.6 505.574 816.011 505.574 841.608 490.136L873.472 470.937C901.209 454.219 930.892 454.219 958.613 470.938L955.353 491.347C929.756 475.909 902.346 475.909 876.73 491.348L844.868 510.545C844.867 510.545 844.868 510.545 844.868 510.545C817.147 527.263 787.463 527.263 759.727 510.546L727.864 491.348C702.267 475.91 674.855 475.909 649.24 491.348L617.377 510.545C589.656 527.264 559.974 527.264 532.236 510.546C532.236 510.546 532.237 510.546 532.236 510.546L500.373 491.348C474.776 475.91 447.365 475.909 421.749 491.348L389.886 510.545C362.166 527.264 332.483 527.264 304.746 510.546C304.746 510.546 304.746 510.546 304.746 510.546L272.881 491.347Z" fill="#393A3D"/>
<circle cx="33.3529" cy="33.3529" r="33.3529" transform="matrix(1 0 0 -1 623 692.703)" fill="#00EEC5"/>
<circle cx="33.3529" cy="33.3529" r="33.3529" transform="matrix(1 0 0 -1 726.766 692.703)" fill="#00EEC5"/>
<circle cx="33.3529" cy="33.3529" r="33.3529" transform="matrix(1 0 0 -1 830.527 692.703)" fill="#00EEC5"/>
<circle cx="33.3529" cy="33.3529" r="33.3529" transform="matrix(1 0 0 -1 934.293 692.703)" fill="#00EEC5"/>
<circle cx="33.3529" cy="33.3529" r="33.3529" transform="matrix(1 0 0 -1 1038.06 692.703)" fill="#00EEC5"/>
<circle cx="33.3529" cy="33.3529" r="33.3529" transform="matrix(1 0 0 -1 1141.82 692.703)" fill="#00EEC5"/>
</g>
<defs>
<clipPath id="clip0_1_2513">
<rect width="1184" height="666" fill="white"/>
</clipPath>
</defs>
</svg>
