<svg width="106" height="24" viewBox="0 0 106 24" fill="none" xmlns="http://www.w3.org/2000/svg">
<path d="M40.2354 18.0462H44.5219C47.6813 18.0462 51.1993 16.2359 51.1993 12.0006C51.1993 7.45795 47.6813 5.95511 44.5219 5.95511H40.2354V18.0462ZM42.3872 16.1676V7.79951H44.1803C46.4004 7.79951 48.8938 8.53385 48.8938 12.0006C48.8938 15.2625 46.4004 16.1676 44.1803 16.1676H42.3872Z" fill="white"/>
<path d="M53.8749 18.0462H62.1918V16.1335H56.0267V12.7179H61.577V10.9077H56.0267V7.83366H61.8844V5.95511H53.8749V18.0462Z" fill="white"/>
<path d="M72.4616 6.94562C71.5394 6.07465 70.1561 5.64771 68.9435 5.64771C66.7576 5.64771 64.5204 6.74068 64.5204 9.19989C64.5204 11.4542 66.1086 12.1714 67.5773 12.6325C69.0972 13.1107 70.361 13.4693 70.361 14.7331C70.361 16.031 69.1826 16.5263 68.175 16.5263C67.2187 16.5263 66.1257 16.0139 65.528 15.1942L63.991 16.6287C64.9473 17.7559 66.5697 18.3536 68.1409 18.3536C70.5147 18.3536 72.5469 17.0898 72.5469 14.494C72.5469 12.1202 70.5659 11.4371 69.0118 10.9589C67.6456 10.532 66.7063 10.2075 66.7063 9.09742C66.7063 7.91905 67.8506 7.44087 68.8411 7.44087C69.695 7.44087 70.6001 7.8849 71.0612 8.48262L72.4616 6.94562Z" fill="white"/>
<path d="M75.3002 18.0462H77.452V5.95511H75.3002V18.0462Z" fill="white"/>
<path d="M91.306 11.1468H86.6779V12.9228H89.2225V15.9969C88.5223 16.2872 87.7196 16.4238 86.8145 16.4238C84.1504 16.4238 82.5109 14.5452 82.5109 11.9665C82.5109 9.47313 84.1675 7.54334 86.7121 7.54334C88.01 7.54334 89.1883 8.08983 89.8031 8.77294L91.2889 7.16763C90.3155 6.26251 88.6077 5.64771 86.695 5.64771C82.972 5.64771 80.1371 8.08983 80.1371 11.9665C80.1371 15.7407 82.8525 18.3536 86.7462 18.3536C88.6418 18.3536 90.0935 17.995 91.306 17.4143V11.1468Z" fill="white"/>
<path d="M94.5241 18.0462H96.6759V8.70463H96.71L102.448 18.0462H105.181V5.95511H103.029V15.0063H102.995L97.3761 5.95511H94.5241V18.0462Z" fill="white"/>
<path fill-rule="evenodd" clip-rule="evenodd" d="M2.57665 0C1.1536 0 0 1.1536 0 2.57664V21.4234C0 22.8464 1.1536 24 2.57664 24H32.0116C33.4346 24 34.5882 22.8464 34.5882 21.4234V2.57665C34.5882 1.1536 33.4346 0 32.0116 0H2.57665ZM14.8563 14.4525L16.8971 16.3601C15.8338 17.5864 14.2218 18.3529 12.181 18.3529C8.44236 18.3529 5.64697 15.764 5.64697 11.9829C5.64697 8.11662 8.5281 5.64697 12.2324 5.64697C13.9302 5.64697 15.7652 6.26013 16.7771 7.4183L14.7877 9.39402C14.2389 8.64461 13.2614 8.28693 12.3353 8.28693C10.2945 8.28693 8.8368 9.85388 8.8368 11.9829C8.8368 14.18 10.2602 15.6788 12.2839 15.6788C13.4329 15.6788 14.3418 15.1679 14.8563 14.4525ZM28.9411 10.9099V17.2969C27.7578 17.91 26.1286 18.3358 24.2592 18.3358C20.3834 18.3358 17.5881 15.781 17.5881 11.9829C17.5881 8.11662 20.4692 5.64697 24.1735 5.64697C26.0771 5.64697 27.8435 6.27716 28.8553 7.24798L27.0032 9.34292C26.4372 8.6957 25.4597 8.21881 24.2764 8.21881C22.2184 8.21881 20.7093 9.81982 20.7093 11.9829C20.7093 14.197 22.0298 15.781 24.4136 15.781C25.0996 15.781 25.7341 15.6788 26.2486 15.4574V13.2603H23.9334V10.9099H28.9411Z" fill="#F5F5F5"/>
</svg>
