<svg width="694" height="408" viewBox="0 0 694 408" fill="none" xmlns="http://www.w3.org/2000/svg">
<path d="M215.091 163.94H228.242C229.475 163.94 229.885 165.583 228.653 166.199L216.734 171.539C213.652 172.976 211.803 175.852 211.803 179.343V192.487C211.803 193.719 210.16 194.13 209.543 192.897L204.201 180.986C202.762 177.905 199.885 176.057 196.392 176.057H183.241C182.008 176.057 181.597 174.414 182.83 173.798L194.748 168.458C197.83 167.021 199.68 164.146 199.68 160.654V147.511C199.68 146.279 201.324 145.868 201.94 147.1L207.284 159.011C208.721 162.092 211.803 163.94 215.091 163.94Z" fill="#FFCA00"/>
<path d="M502.315 232.868L512.382 237.385C513.411 237.797 512.999 239.233 511.972 239.233H500.876C498 239.233 495.532 240.877 494.299 243.548L489.78 253.609C489.368 254.637 487.931 254.225 487.931 253.199V242.109C487.931 239.233 486.286 236.769 483.616 235.537L473.547 231.02C472.518 230.608 472.93 229.172 473.957 229.172H485.053C487.931 229.172 490.397 227.528 491.629 224.857L496.149 214.796C496.561 213.768 498 214.18 498 215.206V226.295C498 229.172 499.643 231.636 502.315 232.868Z" fill="#FFCA00"/>
<path d="M150.527 273.401C150.527 276.893 147.856 279.562 144.363 279.562C140.869 279.562 138.198 276.893 138.198 273.401C138.198 269.91 140.869 267.24 144.363 267.24C147.856 267.24 150.527 269.91 150.527 273.401Z" fill="white"/>
<path d="M150.527 273.401C150.527 276.893 147.856 279.562 144.363 279.562C140.869 279.562 138.198 276.893 138.198 273.401C138.198 269.91 140.869 267.24 144.363 267.24C147.856 267.24 150.527 269.91 150.527 273.401Z" fill="white"/>
<path d="M150.527 273.401C150.527 276.893 147.856 279.562 144.363 279.562C140.869 279.562 138.198 276.893 138.198 273.401C138.198 269.91 140.869 267.24 144.363 267.24C147.856 267.24 150.527 269.91 150.527 273.401Z" fill="#0077C5" fill-opacity="0.5"/>
<path d="M534.268 308.081C534.268 311.573 531.598 314.242 528.103 314.242C524.611 314.242 521.939 311.573 521.939 308.081C521.939 304.59 524.611 301.92 528.103 301.92C531.598 301.92 534.268 304.59 534.268 308.081Z" fill="white"/>
<path d="M534.268 308.081C534.268 311.573 531.598 314.242 528.103 314.242C524.611 314.242 521.939 311.573 521.939 308.081C521.939 304.59 524.611 301.92 528.103 301.92C531.598 301.92 534.268 304.59 534.268 308.081Z" fill="white"/>
<path d="M534.268 308.081C534.268 311.573 531.598 314.242 528.103 314.242C524.611 314.242 521.939 311.573 521.939 308.081C521.939 304.59 524.611 301.92 528.103 301.92C531.598 301.92 534.268 304.59 534.268 308.081Z" fill="#0077C5" fill-opacity="0.5"/>
<path d="M497.224 195.77C497.636 196.797 485.306 190.636 486.334 190.43C485.306 190.841 491.47 178.519 491.676 179.546C491.266 178.519 503.595 184.68 502.568 184.885C503.801 184.475 497.636 196.797 497.224 195.77Z" fill="#FF8979"/>
<path d="M623.095 240.535C624.199 240.61 613.289 249.033 613.55 248.019C613.475 249.123 605.049 238.219 606.063 238.48C604.959 238.405 615.867 229.982 615.605 230.998C615.771 229.708 624.199 240.61 623.095 240.535Z" fill="#FF8979"/>
<path d="M206.175 228.645C207.202 228.851 195.695 236.244 195.901 235.218C195.695 236.244 188.298 224.745 189.325 224.949C188.298 224.745 199.805 217.352 199.6 218.378C199.805 217.352 207.202 228.851 206.175 228.645Z" fill="#FF8979"/>
<path d="M578.21 210.338C578.006 211.16 577.39 211.983 576.567 211.983C573.485 212.393 565.881 212.393 561.773 202.946C557.868 194.115 547.592 193.499 542.457 193.704C541.018 193.704 539.989 192.472 540.401 191.034L544.51 178.918C544.717 178.096 545.539 177.48 546.566 177.48C550.471 177.685 560.95 179.123 565.881 191.034C568.964 198.633 574.512 199.454 577.8 199.249C579.033 199.249 580.06 200.276 579.855 201.714L578.21 210.338Z" fill="white"/>
<path d="M578.21 210.338C578.006 211.16 577.39 211.983 576.567 211.983C573.485 212.393 565.881 212.393 561.773 202.946C557.868 194.115 547.592 193.499 542.457 193.704C541.018 193.704 539.989 192.472 540.401 191.034L544.51 178.918C544.717 178.096 545.539 177.48 546.566 177.48C550.471 177.685 560.95 179.123 565.881 191.034C568.964 198.633 574.512 199.454 577.8 199.249C579.033 199.249 580.06 200.276 579.855 201.714L578.21 210.338Z" fill="white"/>
<path d="M578.21 210.338C578.006 211.16 577.39 211.983 576.567 211.983C573.485 212.393 565.881 212.393 561.773 202.946C557.868 194.115 547.592 193.499 542.457 193.704C541.018 193.704 539.989 192.472 540.401 191.034L544.51 178.918C544.717 178.096 545.539 177.48 546.566 177.48C550.471 177.685 560.95 179.123 565.881 191.034C568.964 198.633 574.512 199.454 577.8 199.249C579.033 199.249 580.06 200.276 579.855 201.714L578.21 210.338Z" fill="#0077C5" fill-opacity="0.5"/>
<path d="M102.73 236.883C101.908 236.679 101.291 235.857 101.497 234.831C102.113 231.134 104.579 222.303 115.675 218.194C126.361 214.294 130.265 202.381 131.498 196.22C131.909 194.577 133.758 193.345 134.991 193.961L146.499 199.712C147.32 200.123 147.731 201.149 147.321 202.176C145.882 206.695 141.156 219.016 126.772 223.739C117.73 226.821 115.059 233.186 114.237 237.089C113.826 238.731 112.388 239.759 110.949 239.347L102.73 236.883Z" fill="white"/>
<path d="M102.73 236.883C101.908 236.679 101.291 235.857 101.497 234.831C102.113 231.134 104.579 222.303 115.675 218.194C126.361 214.294 130.265 202.381 131.498 196.22C131.909 194.577 133.758 193.345 134.991 193.961L146.499 199.712C147.32 200.123 147.731 201.149 147.321 202.176C145.882 206.695 141.156 219.016 126.772 223.739C117.73 226.821 115.059 233.186 114.237 237.089C113.826 238.731 112.388 239.759 110.949 239.347L102.73 236.883Z" fill="white"/>
<path d="M102.73 236.883C101.908 236.679 101.291 235.857 101.497 234.831C102.113 231.134 104.579 222.303 115.675 218.194C126.361 214.294 130.265 202.381 131.498 196.22C131.909 194.577 133.758 193.345 134.991 193.961L146.499 199.712C147.32 200.123 147.731 201.149 147.321 202.176C145.882 206.695 141.156 219.016 126.772 223.739C117.73 226.821 115.059 233.186 114.237 237.089C113.826 238.731 112.388 239.759 110.949 239.347L102.73 236.883Z" fill="#0077C5" fill-opacity="0.5"/>
<path fill-rule="evenodd" clip-rule="evenodd" d="M152.958 296.24L151.701 303.582C151.577 304.309 151.757 305.037 152.193 305.582L156.61 311.112C158.015 312.873 156.471 315.629 154.235 315.353L147.21 314.478C146.516 314.394 145.801 314.623 145.245 315.108L139.641 320.019C137.856 321.579 135.282 320.139 135.682 317.803L136.937 310.461C137.061 309.733 136.884 309.007 136.447 308.458L132.031 302.93C130.625 301.169 132.169 298.413 134.406 298.691L141.431 299.56C142.125 299.647 142.838 299.421 143.393 298.935L149 294.027C150.783 292.462 153.357 293.903 152.958 296.24Z" fill="white"/>
<path fill-rule="evenodd" clip-rule="evenodd" d="M137.52 155.111L144.96 154.676C145.697 154.632 146.364 154.293 146.797 153.745L151.19 148.195C152.589 146.431 155.624 147.311 155.86 149.55L156.596 156.587C156.67 157.282 157.054 157.926 157.653 158.358L163.704 162.705C165.629 164.09 164.807 166.921 162.44 167.059L155 167.496C154.263 167.54 153.594 167.876 153.158 168.425L148.768 173.974C147.369 175.741 144.333 174.86 144.098 172.62L143.36 165.583C143.288 164.887 142.905 164.245 142.307 163.814L136.256 159.465C134.329 158.081 135.151 155.25 137.52 155.111Z" fill="white"/>
<path fill-rule="evenodd" clip-rule="evenodd" d="M555.219 262.815L561.067 267.432C561.647 267.886 562.372 268.076 563.059 267.956L570.032 266.726C572.251 266.336 573.933 269.011 572.62 270.838L568.491 276.587C568.085 277.156 567.944 277.893 568.105 278.613L569.736 285.879C570.252 288.193 567.756 289.761 565.897 288.293L560.047 283.678C559.467 283.221 558.742 283.029 558.05 283.15L551.082 284.38C548.861 284.772 547.179 282.097 548.492 280.267L552.619 274.518C553.029 273.951 553.17 273.217 553.009 272.497L551.38 265.228C550.859 262.915 553.356 261.344 555.219 262.815Z" fill="white"/>
<path d="M437.43 134.365C450.169 132.311 463.321 131.9 476.062 132.722C477.295 132.722 478.321 133.954 478.115 135.186C478.115 136.008 477.499 136.624 476.882 137.035C473.596 138.472 470.308 139.088 467.019 139.704C457.156 141.347 446.881 141.142 437.224 138.677C434.963 138.061 435.169 134.775 437.43 134.365Z" fill="#CFE6F0"/>
<path d="M424.279 107.257C443.391 92.6758 464.144 79.9429 486.131 69.8798C488.393 68.8529 490.242 71.9335 488.393 73.5765C478.94 81.1751 468.871 87.747 458.596 93.908C448.116 100.069 437.637 106.025 426.745 110.954C424.279 111.981 422.43 108.695 424.279 107.257Z" fill="#CFE6F0"/>
<path d="M408.456 89.1843C409.485 80.9694 412.361 73.5762 416.266 66.3883C417.499 64.1292 418.938 61.8701 420.787 59.8164C421.608 58.7897 423.047 58.7897 423.869 59.611C424.486 60.0219 424.69 60.8434 424.69 61.4594C424.073 66.7989 422.224 71.9332 420.171 76.8621C418.115 81.7909 415.443 86.7197 412.155 90.8271C410.922 92.4701 408.046 91.2379 408.456 89.1843Z" fill="#CFE6F0"/>
<path d="M265.23 138.679C252.285 141.759 238.311 141.759 225.572 137.036C223.517 136.214 224.133 132.929 226.393 132.723C239.34 131.696 252.285 132.313 265.024 134.366C267.286 134.777 267.286 138.063 265.23 138.679Z" fill="#CFE6F0"/>
<path d="M275.917 110.954C259.479 103.561 243.862 94.1136 228.655 84.2559C223.724 80.9701 218.792 77.4789 214.065 73.5767C212.216 72.1392 214.065 68.8533 216.327 69.8801C232.97 77.2734 248.381 86.7205 263.382 96.5781C268.315 99.864 273.247 103.355 277.972 107.257C280.028 108.695 278.178 111.981 275.917 110.954Z" fill="#CFE6F0"/>
<path d="M289.889 90.6216C283.725 82.2015 278.998 72.1384 277.561 61.4592C277.355 60.227 278.381 59.2001 279.614 58.9946C280.437 58.9946 281.053 59.2001 281.463 59.8162C283.313 61.8698 284.752 64.1289 285.985 66.5934C289.889 73.7814 292.972 81.1745 293.794 89.3894C293.794 90.6216 292.972 91.6485 291.739 91.6485C291.122 91.6485 290.506 91.2377 289.889 90.6216Z" fill="#CFE6F0"/>
<path d="M278.793 254.71C299.752 256.354 349.068 309.133 346.603 318.581C346.603 318.581 337.973 316.732 324.411 307.901C307.971 297.428 277.148 262.721 277.148 262.721L278.793 254.71Z" fill="#4F5661"/>
<path d="M276.344 261.899C277.165 259.847 281.686 258.819 285.797 252.658C294.837 239.72 299.152 218.772 292.578 175.234C290.112 158.188 283.125 129.231 291.345 126.562C301.208 123.276 313.447 171.948 315.592 171.948C317.737 171.948 300.385 104.176 313.949 100.48C325.867 97.3993 339.839 154.903 343.127 177.904C343.127 177.904 321.963 93.4972 339.223 89.1846C356.485 84.8718 362.649 165.171 362.649 165.171C362.649 165.171 353.401 98.2208 368.814 96.5778C387.101 94.7295 386.723 193.237 386.723 193.237C386.723 193.237 391.526 186.11 395.927 175.234C398.131 169.784 398.294 159.403 401.599 156.512C416.528 143.458 417.349 169.073 416.528 175.234C414.491 190.504 409.623 219.184 401.599 241.181C377.999 305.886 362.649 283.962 331.825 320.431C331.825 320.431 295.454 295.58 276.344 261.899Z" fill="#9B6D54"/>
<path d="M168.034 365.613L239.485 294.613C239.485 294.613 238.416 291.9 238.416 289.782C250.501 279.062 278.917 254.423 278.917 254.423C293.782 294.613 344.449 317.977 344.449 317.977L309.916 352.141L304.335 350.397L293.782 366.655C262.138 354.744 168.034 365.613 168.034 365.613Z" fill="#FFAC61"/>
<path d="M311.466 331.52C310.849 335.217 307.355 337.683 303.45 337.271C299.547 336.655 296.669 333.369 297.286 329.672C297.902 325.976 301.397 323.511 305.302 323.923C309.204 324.333 311.876 327.824 311.466 331.52Z" fill="white"/>
<path fill-rule="evenodd" clip-rule="evenodd" d="M238.152 293.424C239.033 292.722 240.317 292.867 241.02 293.748C271.155 331.586 295.231 344.591 305.513 348.149C307.319 348.775 308.701 349.148 309.615 349.364C309.744 349.393 309.86 349.419 309.97 349.444L343.317 316.516C344.119 315.725 345.411 315.733 346.205 316.535C346.997 317.336 346.989 318.628 346.187 319.419L312.077 353.1C311.626 353.544 310.997 353.754 310.371 353.671L310.642 351.649C310.371 353.671 310.371 353.671 310.371 353.671L310.362 353.669H310.352L310.322 353.665C310.297 353.661 310.266 353.657 310.226 353.648C310.146 353.636 310.036 353.618 309.893 353.591C309.611 353.54 309.203 353.459 308.68 353.334C307.935 353.161 306.956 352.902 305.755 352.526L298.07 365.342C297.491 366.307 296.237 366.621 295.27 366.041C294.302 365.462 293.99 364.209 294.568 363.242L301.834 351.127C289.767 346.272 266.338 332.09 237.827 296.29C237.125 295.408 237.27 294.125 238.152 293.424Z" fill="#4F5661"/>
<path d="M445.918 259.884C434.204 252.079 378.518 264.812 353.036 294.18C333.104 317.181 442.423 267.893 442.423 267.893L445.918 259.884Z" fill="#108000"/>
<path d="M436.399 264.57C424.277 241.569 419.961 213.433 416.879 161.063C415.851 144.223 414.618 115.882 406.194 115.676C396.125 115.471 399.223 161.855 397.019 166.822C396.337 168.357 391.505 94.5234 377.905 94.5244C366.193 94.935 377.033 171.551 374.2 171.947C371.365 172.344 367.562 95.5501 350.506 94.5234C336.532 93.4964 357.079 171.947 353.382 171.947C350.566 171.947 340.847 108.899 325.847 109.926C310.642 110.953 340.231 200.288 337.765 210.763C335.712 219.388 334.889 181.395 314.547 177.492C308.587 176.26 303.655 182.421 306.327 187.761C309.409 194.127 312.696 212.817 315.163 220.004C322.561 241.979 343.519 282.436 361.602 294.141C362.015 293.937 407.633 299.686 436.399 264.57Z" fill="#FCCBA9"/>
<path d="M311.056 195.976C322.562 194.333 318.657 186.529 315.165 178.109C314.958 177.698 314.548 177.288 314.138 177.082C312.082 176.261 306.945 174.618 303.656 177.904C303.04 178.52 303.04 179.341 303.246 180.163L309 194.744C309.41 195.566 310.233 195.976 311.056 195.976Z" fill="#FFAC61"/>
<path d="M331.19 125.741C337.355 124.098 334.889 115.267 332.836 109.722C332.63 109.106 332.013 108.49 331.397 108.49C329.341 108.079 324.82 107.669 321.534 110.544C321.121 110.955 320.917 111.571 320.917 112.187C321.121 115.883 322.767 127.795 331.19 125.741Z" fill="#FFAC61"/>
<path d="M352.975 110.747C359.343 109.515 357.7 101.095 355.851 95.5499C355.644 94.9339 355.028 94.3178 354.412 94.3178C352.358 93.9069 348.041 93.4963 344.549 96.3714C344.138 96.7821 343.932 97.3982 343.932 98.2197C344.549 101.506 346.398 112.185 352.975 110.747Z" fill="#FFAC61"/>
<path d="M379.688 106.641C386.058 105.409 384.825 99.0424 382.976 93.7027C382.77 93.0867 382.153 92.4706 381.537 92.4706C379.482 92.0597 375.373 91.6491 372.084 94.3188C371.468 94.9349 371.058 95.7564 371.468 96.5779C372.29 99.6585 374.962 107.668 379.688 106.641Z" fill="#FFAC61"/>
<path d="M405.99 128.41C412.36 128.41 412.566 122.044 411.95 116.499C411.95 115.677 411.333 115.061 410.717 114.856C408.868 114.034 404.757 112.802 401.058 114.856C400.442 115.267 399.825 116.088 400.031 116.91C400.236 120.196 401.264 128.41 405.99 128.41Z" fill="#FFAC61"/>
<path d="M374.335 157.932C387.69 164.093 395.83 156.488 395.83 156.488L396.447 163.249C396.447 163.249 387.992 170.921 374.637 164.554" fill="white"/>
<path fill-rule="evenodd" clip-rule="evenodd" d="M348.744 179.274C349.689 179.888 349.958 181.152 349.344 182.096L347.631 180.985C349.344 182.096 349.344 182.097 349.342 182.098V182.101L349.338 182.105L349.332 182.116L349.313 182.141C349.301 182.16 349.285 182.183 349.266 182.21C349.23 182.262 349.179 182.33 349.117 182.409C348.995 182.568 348.821 182.776 348.595 183.01C348.146 183.475 347.474 184.061 346.568 184.565C344.69 185.607 341.975 186.192 338.522 184.959C337.458 184.58 336.905 183.413 337.285 182.352C337.664 181.291 338.832 180.738 339.893 181.117C342.194 181.938 343.69 181.496 344.586 180.998C345.068 180.731 345.423 180.419 345.656 180.179C345.77 180.06 345.849 179.963 345.894 179.905C345.917 179.876 345.931 179.858 345.935 179.851C346.554 178.924 347.807 178.665 348.744 179.274Z" fill="#FFAC61"/>
<path fill-rule="evenodd" clip-rule="evenodd" d="M327.784 215.418C328.729 216.032 328.996 217.297 328.382 218.241L326.671 217.129C328.382 218.241 328.382 218.241 328.382 218.243L328.38 218.245L328.376 218.249L328.37 218.26L328.353 218.286C328.339 218.304 328.325 218.327 328.304 218.353C328.268 218.407 328.219 218.474 328.155 218.553C328.033 218.713 327.859 218.921 327.633 219.153C327.184 219.62 326.514 220.206 325.608 220.71C323.73 221.752 321.013 222.336 317.56 221.103C316.498 220.724 315.945 219.557 316.325 218.496C316.702 217.435 317.872 216.883 318.933 217.262C321.232 218.082 322.728 217.639 323.626 217.142C324.106 216.877 324.463 216.562 324.694 216.324C324.808 216.203 324.889 216.107 324.934 216.048C324.955 216.02 324.969 216.001 324.973 215.995C325.594 215.069 326.845 214.81 327.784 215.418Z" fill="#FFAC61"/>
<path fill-rule="evenodd" clip-rule="evenodd" d="M371.964 174.959C372.909 175.573 373.179 176.837 372.564 177.781L370.852 176.67C372.564 177.781 372.564 177.782 372.562 177.783L372.56 177.785L372.558 177.79L372.552 177.801L372.534 177.826C372.521 177.845 372.505 177.868 372.487 177.894C372.45 177.947 372.399 178.015 372.338 178.094C372.215 178.253 372.04 178.461 371.815 178.695C371.366 179.16 370.695 179.746 369.788 180.25C367.91 181.292 365.196 181.877 361.742 180.644C360.678 180.265 360.125 179.098 360.505 178.037C360.885 176.976 362.052 176.423 363.114 176.802C365.414 177.623 366.91 177.181 367.806 176.683C368.288 176.416 368.643 176.104 368.876 175.864C368.99 175.745 369.07 175.648 369.115 175.59C369.137 175.561 369.151 175.543 369.155 175.536C369.774 174.609 371.027 174.35 371.964 174.959Z" fill="#FFAC61"/>
<path fill-rule="evenodd" clip-rule="evenodd" d="M393.665 173.792C394.463 174.589 394.463 175.881 393.665 176.677L392.222 175.235C393.665 176.677 393.665 176.678 393.663 176.679L393.661 176.681L393.657 176.685L393.649 176.694L393.626 176.715C393.61 176.731 393.589 176.75 393.567 176.772C393.518 176.816 393.455 176.872 393.379 176.937C393.224 177.067 393.01 177.235 392.74 177.418C392.203 177.782 391.422 178.218 390.43 178.521C388.366 179.15 385.586 179.138 382.492 177.159C381.542 176.551 381.265 175.289 381.873 174.34C382.479 173.392 383.743 173.115 384.692 173.722C386.735 175.029 388.268 174.914 389.238 174.619C389.76 174.459 390.172 174.228 390.452 174.04C390.589 173.947 390.689 173.868 390.746 173.82C390.773 173.796 390.791 173.78 390.797 173.775C391.595 172.996 392.875 173.002 393.665 173.792Z" fill="#FFAC61"/>
<path fill-rule="evenodd" clip-rule="evenodd" d="M414.83 172.97C415.628 173.766 415.628 175.058 414.83 175.855L413.418 174.441C414.83 175.855 414.83 175.855 414.828 175.856V175.858L414.824 175.862L414.814 175.871L414.794 175.892C414.775 175.908 414.755 175.927 414.732 175.949C414.683 175.993 414.622 176.049 414.545 176.114C414.389 176.245 414.177 176.412 413.906 176.595C413.369 176.959 412.587 177.395 411.595 177.698C409.533 178.327 406.751 178.315 403.657 176.336C402.708 175.728 402.43 174.467 403.038 173.518C403.645 172.569 404.908 172.292 405.857 172.899C407.901 174.206 409.433 174.091 410.403 173.796C410.926 173.636 411.338 173.405 411.618 173.217C411.754 173.124 411.854 173.045 411.911 172.997C411.938 172.973 411.956 172.958 411.962 172.952C412.761 172.173 414.04 172.179 414.83 172.97Z" fill="#FFAC61"/>
<path d="M446.468 382.453L397.974 375.676C397.564 375.676 395.508 371.774 395.302 371.57C393.249 370.542 383.59 364.997 388.932 354.111C389.344 353.085 388.932 352.059 387.905 351.443C384.823 349.799 377.836 347.747 377.632 342.818C377.632 340.97 378.452 338.709 381.124 335.835C378.865 337.477 379.481 335.219 376.399 335.835C376.399 335.835 369.206 335.835 364.274 329.468C358.726 322.279 353.589 304.003 351.946 297.226C351.533 295.994 352.562 294.762 353.999 294.556C356.877 294.35 359.753 294.144 362.425 293.734C364.068 293.528 365.507 293.324 367.15 293.118C371.878 292.295 376.399 291.475 380.714 290.243C382.357 289.831 383.796 289.421 385.233 289.011C390.165 287.573 394.686 286.135 399.001 284.286C400.44 283.67 401.879 283.054 403.316 282.644C407.633 280.796 411.536 278.948 415.44 277.099C416.879 276.483 418.112 275.661 419.345 275.045C423.25 272.991 426.742 270.939 429.825 268.884C431.264 268.062 432.496 267.242 433.729 266.42C438.044 263.544 441.127 261.285 442.976 259.847C444.003 259.027 445.648 259.231 446.468 260.259C449.346 264.162 455.511 272.787 461.059 281.822C468.662 293.94 457.566 299.894 457.566 299.894C457.566 299.894 474.416 297.842 473.183 313.654C473.183 314.682 473.8 315.502 474.826 315.915C479.552 317.351 490.854 321.869 485.102 334.397C484.689 335.423 485.102 336.451 486.128 337.067C489.211 338.709 495.169 343.228 494.142 353.495C493.319 363.149 505.444 375.06 513.047 381.631C515.103 383.069 448.73 382.659 446.468 382.453Z" fill="#53C27C"/>
<path fill-rule="evenodd" clip-rule="evenodd" d="M456.475 305.223C456.699 305.106 456.893 304.966 457.053 304.811C458.183 304.001 459.112 303.315 459.824 302.781C460.369 302.373 460.788 302.051 461.072 301.83C461.214 301.72 461.323 301.636 461.396 301.577L461.48 301.51L461.504 301.492L461.51 301.488L461.512 301.485C461.512 301.485 461.512 301.485 460.237 299.892L461.512 301.485C462.392 300.78 462.535 299.496 461.829 298.617C461.125 297.738 459.841 297.595 458.961 298.301L458.957 298.303L458.941 298.317L458.867 298.374C458.802 298.425 458.702 298.505 458.567 298.609C458.302 298.815 457.9 299.123 457.373 299.519C457.063 299.751 456.71 300.015 456.314 300.306C447.857 281.106 435.314 268.003 433.934 266.624C432.701 267.446 431.468 268.268 430.029 269.088C430.029 269.294 430.236 269.294 430.236 269.294C430.438 269.496 443.913 283.36 452.376 303.109C449.39 305.176 445.473 307.756 440.801 310.553C432.773 290.064 420.364 276.063 419.756 275.455L419.55 275.249C418.934 275.557 418.266 275.918 417.599 276.277C416.931 276.636 416.262 276.995 415.645 277.303C415.645 277.713 415.851 277.919 416.058 278.125C416.262 278.329 429.003 292.501 436.606 312.628C436.647 312.732 436.694 312.83 436.745 312.922C436.426 313.103 436.106 313.285 435.783 313.466C432.203 315.482 428.292 317.55 424.112 319.57C422.563 317.181 410.677 297.924 403.523 282.848C402.084 283.464 400.645 284.08 399.208 284.492C406.276 299.574 418.14 318.742 419.938 321.526C415.849 323.385 411.54 325.174 407.054 326.812C405.443 324.948 392.809 309.713 385.644 289.009C384.926 289.215 384.156 289.421 383.384 289.625C382.613 289.831 381.843 290.037 381.125 290.241C387.804 309.564 399.14 324.076 402.541 328.387C397.599 330.031 392.472 331.469 387.218 332.604C387.179 332.514 387.134 332.426 387.083 332.343C386.877 332.136 373.932 315.708 367.357 293.117C366.535 293.219 365.763 293.321 364.993 293.425C364.222 293.527 363.452 293.629 362.63 293.733V294.144C368.614 314.199 378.971 329.28 382.207 333.581C381.737 333.662 381.268 333.742 380.796 333.819C379.684 333.999 378.929 335.048 379.11 336.159C379.29 337.271 380.339 338.026 381.451 337.846C403.251 334.301 423.265 325.196 437.788 317.022C445.059 312.928 450.976 309.054 455.081 306.2C455.571 305.859 456.036 305.533 456.475 305.223Z" fill="#108000"/>
<path fill-rule="evenodd" clip-rule="evenodd" d="M351.152 294.574C352.255 294.333 353.343 295.033 353.581 296.132C353.906 297.618 354.216 299.197 354.539 300.833C355.747 306.955 357.117 313.903 359.903 319.919C361.644 323.679 363.881 326.924 366.855 329.27C369.801 331.594 373.577 333.118 378.565 333.291L378.596 333.293L378.627 333.295C379.631 333.36 380.888 333.656 381.66 334.774C382.391 335.833 382.246 337.028 382.111 337.71C381.976 338.385 381.719 339.138 381.497 339.786C381.476 339.846 381.456 339.905 381.435 339.964C381.18 340.713 380.941 341.435 380.78 342.173C380.464 343.628 380.488 344.941 381.243 346.192C382.031 347.494 383.832 349.089 387.898 350.554C390 351.31 391.061 353.499 390.71 355.509C390.049 359.297 391.162 363.144 392.931 366.723C394.256 369.405 395.834 371.729 397.167 373.697C397.634 374.385 398.069 375.027 398.455 375.627C399.065 376.576 398.791 377.837 397.842 378.446C396.893 379.056 395.632 378.781 395.021 377.834C394.715 377.357 394.336 376.8 393.911 376.174C392.558 374.179 390.735 371.492 389.271 368.53C387.33 364.603 385.812 359.821 386.687 354.807C386.706 354.707 386.687 354.601 386.64 354.513C386.595 354.432 386.546 354.403 386.516 354.393C382.003 352.769 379.217 350.729 377.749 348.301C376.251 345.823 376.353 343.314 376.792 341.304C377.008 340.313 377.316 339.395 377.571 338.648L377.592 338.587C377.767 338.071 377.904 337.675 377.996 337.351C372.381 337.077 367.898 335.288 364.326 332.473C360.695 329.609 358.111 325.765 356.198 321.632C353.183 315.121 351.687 307.516 350.479 301.361C350.171 299.8 349.883 298.334 349.593 297.002C349.352 295.9 350.052 294.813 351.152 294.574ZM378.676 337.41C378.676 337.41 378.67 337.41 378.657 337.406C378.67 337.408 378.676 337.41 378.676 337.41ZM378.139 336.686C378.137 336.673 378.137 336.667 378.139 336.667C378.139 336.667 378.139 336.673 378.139 336.686Z" fill="#4F5661"/>
<path d="M571.203 369.307C571.203 370.335 570.586 371.362 569.558 371.568C558.052 375.264 545.927 378.138 533.804 380.397C527.022 381.629 520.037 382.657 513.254 383.477C474.006 388.202 434.552 384.915 395.511 379.987C374.346 377.316 353.181 374.032 332.22 371.362C311.261 368.485 290.096 366.433 269.135 365.201C250.436 364.173 231.737 364.173 213.038 365.405C194.544 366.433 176.05 368.691 157.967 371.978C137.829 375.468 117.897 380.397 98.5806 385.944C97.3478 386.354 96.1149 385.737 95.7038 384.711C95.7038 384.711 95.7038 384.505 95.4985 384.505C94.6765 382.861 95.4985 381.013 97.3478 380.397C117.691 373.416 138.034 368.281 158.583 364.585C191.872 358.628 225.366 356.576 259.478 357.602C283.93 358.424 308.589 360.682 333.659 364.173C358.316 367.459 382.77 371.362 407.223 374.442C441.951 378.755 476.884 381.219 512.227 377.522C519.42 376.7 526.611 375.88 533.598 374.648C545.31 372.594 556.819 370.129 568.121 367.049C569.353 366.843 570.586 367.253 570.997 368.487C571.203 368.691 571.203 369.103 571.203 369.307Z" fill="#CFE6F0"/>
</svg>
