<svg width="226" height="37" viewBox="0 0 226 37" fill="none" xmlns="http://www.w3.org/2000/svg">
<path d="M0.86 28H16.5167V23.8933H5.48V2.04H0.86V28ZM22.096 17.44C22.2794 14.9833 24.3694 13.1867 26.9727 13.1867C29.8327 13.1867 31.116 15.1667 31.116 17.44H22.096ZM35.516 19.42C35.516 13.0767 31.9227 9.88667 27.0094 9.88667C21.6927 9.88667 17.696 13.6267 17.696 19.31C17.696 25.03 21.7294 28.5133 27.156 28.5133C30.4927 28.5133 32.986 27.34 34.7094 24.9933L31.776 22.6467C30.786 24.04 29.3194 24.92 27.1194 24.92C24.5527 24.92 22.2794 23.0867 22.096 20.5933H35.4794C35.516 20.19 35.516 19.8233 35.516 19.42ZM50.4892 28H54.5959V17.2933C54.5959 13.7733 53.0559 9.88667 46.7492 9.88667C44.0725 9.88667 41.2859 10.84 39.3059 12.6733L41.5792 15.35C42.7159 14.2133 44.5125 13.3333 46.3825 13.3333C48.5825 13.3333 50.4159 14.3967 50.4159 16.56V17C44.9159 17 38.3159 17.7333 38.3159 22.9767C38.3159 27.0833 42.0925 28.44 44.9159 28.44C47.4092 28.44 49.4992 27.3033 50.3792 25.7633H50.4892V28ZM50.4159 20.5933C50.4159 23.38 48.8025 25.1033 45.7959 25.1033C44.2925 25.1033 42.7159 24.59 42.7159 22.9033C42.7159 20.3 46.6392 19.97 49.4259 19.97H50.4159V20.5933ZM59.722 28H64.122V18.5767C64.122 17.2933 64.892 13.8467 68.852 13.8467C69.2554 13.8467 69.622 13.8833 70.2087 14.03V9.99667C69.9154 9.92333 69.4754 9.88667 69.1454 9.88667C66.8354 9.88667 64.9654 11.3167 64.012 13.3333H63.9387V10.4H59.722V28ZM73.0782 28H77.4782V18.32C77.4782 15.9733 78.7982 13.5533 81.5848 13.5533C84.4082 13.5533 84.8848 16.1567 84.8848 18.2467V28H89.2848V17C89.2848 13.4067 87.3782 9.88667 82.7948 9.88667C80.1915 9.88667 78.1015 11.4633 77.3315 13.2233H77.2582V10.4H73.0782V28ZM94.4926 28H98.8926V10.4H94.4926V28ZM93.8693 4.42333C93.8693 5.81667 95.0426 7.06333 96.656 7.06333C98.2693 7.06333 99.516 5.92666 99.516 4.42333C99.516 2.92 98.2693 1.78333 96.656 1.78333C95.0426 1.78333 93.8693 3.03 93.8693 4.42333ZM104.231 28H108.631V18.32C108.631 15.9733 109.951 13.5533 112.737 13.5533C115.561 13.5533 116.037 16.1567 116.037 18.2467V28H120.437V17C120.437 13.4067 118.531 9.88667 113.947 9.88667C111.344 9.88667 109.254 11.4633 108.484 13.2233H108.411V10.4H104.231V28ZM139.285 10.4V13.04H139.212C137.928 10.9133 135.618 9.88667 133.162 9.88667C127.845 9.88667 124.545 14.03 124.545 19.1267C124.545 24.1133 127.955 28.2933 133.235 28.2933C135.655 28.2933 137.708 27.3767 138.992 25.6533H139.065V26.9367C139.065 30.42 137.745 32.9867 133.492 32.9867C131.292 32.9867 129.018 32.1067 127.332 30.4933L124.802 33.9033C127.075 35.7733 130.668 36.8 133.528 36.8C140.385 36.8 143.465 32.7667 143.465 26.4233V10.4H139.285ZM134.078 13.48C137.268 13.48 139.285 16.0467 139.285 19.09C139.285 22.0233 137.305 24.6633 134.042 24.6633C130.888 24.6633 129.018 21.8767 129.018 19.09C129.018 15.9733 130.888 13.48 134.078 13.48ZM158.126 28H162.746V16.4867H174.882V28H179.502V2.04H174.882V12.5267H162.746V2.04H158.126V28ZM201.072 10.4H196.672V20.08C196.672 22.4267 195.352 24.8467 192.565 24.8467C189.742 24.8467 189.265 22.2433 189.265 20.1533V10.4H184.865V21.4C184.865 24.9933 186.772 28.5133 191.355 28.5133C193.958 28.5133 196.048 26.9367 196.818 25.1767H196.892V28H201.072V10.4ZM206.426 0.279998V28H210.606V25.36H210.68C211.89 27.3767 214.273 28.5133 216.73 28.5133C222.083 28.5133 225.383 24.26 225.383 19.1267C225.383 13.92 221.863 9.88667 216.84 9.88667C213.613 9.88667 211.853 11.5 210.936 12.6367H210.826V0.279998H206.426ZM220.91 19.1267C220.91 21.8767 219.26 24.8467 215.85 24.8467C212.623 24.8467 210.68 21.95 210.68 19.2C210.68 16.45 212.623 13.48 215.85 13.48C219.26 13.48 220.91 16.3767 220.91 19.1267Z" fill="white"/>
</svg>
