<svg width="189" height="64" viewBox="0 0 189 64" fill="none" xmlns="http://www.w3.org/2000/svg">
<path d="M51.526 24.438C51.526 9.456 40.702 0.0179962 26.05 0.0179962C11.464 0.0179962 0.64 9.456 0.64 24.438C0.64 39.222 11.464 49.254 26.05 49.254C40.702 49.254 51.526 39.222 51.526 24.438ZM39.448 24.438C39.448 32.886 33.904 38.958 26.05 38.958C18.196 38.958 12.718 32.886 12.718 24.438C12.718 16.254 18.13 10.182 26.05 10.182C33.97 10.182 39.448 16.254 39.448 24.438ZM93.2107 31.434C93.2107 20.676 84.8947 14.076 74.9287 14.076C65.0287 14.076 56.7127 20.676 56.7127 31.434C56.7127 42.192 65.0287 49.056 74.9287 49.056C84.8947 49.056 93.2107 42.192 93.2107 31.434ZM82.7827 31.434C82.7827 35.658 80.0767 39.948 74.9947 39.948C69.9127 39.948 67.2067 35.658 67.2067 31.434C67.2067 27.21 69.8467 23.052 74.9287 23.052C80.0107 23.052 82.7827 27.21 82.7827 31.434ZM136.628 31.434C136.628 22.26 130.622 14.208 121.052 14.208C116.234 14.208 112.538 16.518 110.558 19.158H110.36V15.132H100.064V63.84H110.888V44.37H111.02C113.066 47.208 116.96 48.924 120.986 48.924C130.886 48.924 136.628 40.608 136.628 31.434ZM126.134 31.434C126.134 35.724 123.56 39.948 118.412 39.948C113.528 39.948 110.492 35.79 110.492 31.5C110.492 27.342 113.528 23.052 118.412 23.052C123.56 23.052 126.134 27.21 126.134 31.434ZM168.719 18.696C165.485 15.66 160.403 14.076 155.519 14.076C149.249 14.076 141.857 17.244 141.857 25.098C141.857 31.302 146.873 33.612 151.427 34.668C155.915 35.724 157.961 36.384 157.961 38.43C157.961 40.542 155.849 41.268 154.067 41.268C150.899 41.268 147.929 39.684 146.015 37.572L139.943 43.974C143.375 47.274 148.919 49.056 154.265 49.056C160.997 49.056 168.323 46.152 168.323 37.836C168.323 31.434 162.845 28.926 157.829 27.804C153.605 26.88 151.823 26.352 151.823 24.504C151.823 22.59 153.869 21.864 155.915 21.864C158.555 21.864 161.063 23.184 162.779 24.834L168.719 18.696ZM187.64 32.358V1.272H176.552V32.358H187.64ZM188.564 42.39C188.564 38.958 185.66 36.186 182.096 36.186C178.532 36.186 175.694 39.024 175.694 42.456C175.694 45.954 178.664 48.66 182.096 48.66C185.66 48.66 188.564 45.888 188.564 42.39Z" fill="white"/>
</svg>
