<svg width="340" height="200" viewBox="0 0 340 200" fill="none" xmlns="http://www.w3.org/2000/svg">
<path d="M22.5254 115.297C27.9877 115.938 33.7077 116.759 39.1883 117.132C44.769 117.62 50.3362 117.514 55.9462 117.572L56.0087 119.032C50.3977 119.782 44.684 119.663 39.0386 119.332C34.0953 118.996 29.1166 118.387 24.3356 117.253C23.6444 117.098 22.9568 116.89 22.2693 116.681L22.5254 115.297Z" fill="#CFE6F0"/>
<path d="M12.3419 119.778C20.6446 120.721 29.0366 121.939 37.3795 122.291C40.1771 122.428 42.9821 122.457 45.7761 122.647L45.785 124.103C42.9581 124.396 40.1495 124.421 37.2944 124.334C30.2337 124.177 23.1485 123.587 16.1719 122.195C14.947 121.95 13.1921 121.561 12.0283 121.212C12.082 121.216 12.3419 119.778 12.3419 119.778Z" fill="#CFE6F0"/>
<path d="M317.452 139.701C316.121 139.405 315.012 138.593 313.903 137.854C312.276 136.747 310.649 135.639 308.282 135.713C306.951 135.787 306.359 136.599 305.99 137.19C305.472 137.928 305.176 138.224 304.511 138.15C303.697 138.15 302.218 137.042 300.887 136.082C298.89 134.679 296.598 132.98 294.231 132.832C292.826 132.759 290.903 133.054 289.72 135.196C289.054 136.377 288.833 137.707 288.685 138.888C288.611 139.036 288.463 139.331 287.945 139.627C287.501 139.922 286.91 140.07 286.466 140.144C285.061 140.144 283.804 140.144 282.547 140.144C282.103 140.144 281.659 140.439 281.659 140.809C281.659 141.178 282.029 141.473 282.547 141.473C282.547 141.473 284.1 141.473 286.466 141.473H286.54H286.614C289.942 141.473 294.897 141.473 299.852 141.399C317.896 141.252 317.97 141.104 318.118 140.439C318.192 140.218 318.044 139.848 317.452 139.701Z" fill="#CFE6F0"/>
<path d="M174.465 28.9495C178.388 27.4915 186.418 24.7579 189.885 28.0383C191.071 29.4051 190.889 31.3186 190.067 32.8677L188.242 30.863C191.436 29.5873 194.812 28.3116 198.279 29.1317C201.017 29.8607 201.655 32.7765 200.834 35.1457C200.56 36.2391 198.918 35.8747 199.009 34.7812C199.283 32.4121 198.736 31.2275 196.181 31.4097C193.9 31.592 191.527 32.4121 189.429 33.4144C188.334 33.9611 186.965 32.6854 187.604 31.592C187.786 31.1364 188.151 30.4074 187.786 29.9518C186.691 29.1317 184.958 29.314 183.589 29.314C180.669 29.5873 177.841 30.2252 174.921 30.6808C173.917 30.9541 173.461 29.4051 174.465 28.9495Z" fill="#CFE6F0"/>
<path d="M171.453 36.968C173.461 35.9657 175.833 35.2367 178.114 35.6012C180.121 35.8745 181.125 37.9703 180.121 39.7016L178.297 37.697C180.578 36.6946 185.596 35.5101 185.687 39.3371C185.687 39.7927 185.505 40.1572 185.414 40.5217C185.049 41.524 183.589 41.2507 183.589 40.2483C183.589 39.7927 183.406 39.1549 183.315 39.246C182.585 39.1549 181.764 39.3371 181.034 39.6105C180.486 39.7927 179.939 40.0661 179.483 40.2483L177.658 38.2437C177.658 38.2437 177.658 38.1526 177.658 38.0614V38.1526C177.658 38.1526 177.658 38.2437 177.749 38.2437C177.749 38.2437 177.84 38.2437 177.749 38.2437C176.107 37.7881 173.643 38.6082 171.818 38.6082C170.906 38.7904 170.541 37.3325 171.453 36.968Z" fill="#CFE6F0"/>
<path d="M114.834 62.5786C120.117 62.5786 124.4 58.3017 124.4 53.0259C124.4 47.75 120.117 43.4731 114.834 43.4731C109.551 43.4731 105.269 47.75 105.269 53.0259C105.269 58.3017 109.551 62.5786 114.834 62.5786Z" fill="#CFE6F0"/>
<path d="M117.226 40.6871C117.226 37.8213 118.182 35.1147 118.9 32.3285C119.298 31.4528 119.617 28.6666 121.052 29.3034C121.291 29.4626 121.45 29.7015 121.45 30.0199C121.45 31.9304 120.892 33.7614 120.494 35.5923C120.095 36.7068 119.298 42.2792 117.624 41.3239C117.385 41.2443 117.226 41.0055 117.226 40.6871Z" fill="#CFE6F0"/>
<path d="M110.689 41.1643C109.255 38.5373 108.457 35.6715 107.501 32.8057C106.624 29.9399 105.588 27.1537 105.109 24.2083C104.95 23.3326 106.225 22.9346 106.624 23.7306C107.979 26.4372 108.776 29.303 109.813 32.0893C110.769 34.9551 111.805 37.7413 112.204 40.6867C112.363 41.5624 111.168 41.9604 110.689 41.1643Z" fill="#CFE6F0"/>
<path d="M105.348 44.827C103.674 43.9514 102.319 42.5185 100.964 41.2448C99.6089 39.8915 98.174 38.6178 97.1377 37.0256C96.8986 36.6276 97.058 36.15 97.4566 35.9112C97.6957 35.7519 98.0146 35.7519 98.2537 35.9112C99.1306 36.3888 99.848 37.0256 100.565 37.5829C102 38.777 103.355 40.0507 104.711 41.404C105.269 42.1204 107.501 43.9514 106.225 44.7474C105.906 44.9066 105.587 44.9066 105.348 44.827Z" fill="#CFE6F0"/>
<path d="M102.559 50.3989C100.167 50.4786 97.8557 50.0009 95.544 49.6029C93.2323 49.1253 90.9206 48.8068 88.6886 47.9312C87.8915 47.6127 88.1306 46.339 89.0075 46.339C91.3989 46.339 93.7106 46.8167 96.0223 47.1351C98.334 47.5331 100.646 47.8516 102.878 48.8068C103.675 49.2049 103.436 50.3989 102.559 50.3989Z" fill="#CFE6F0"/>
<path d="M127.111 55.4138C130.459 55.573 133.648 56.2895 136.916 56.9263C140.184 57.6428 143.453 58.2 146.562 59.3145C147.438 59.6329 147.12 60.9862 146.243 60.9066C141.3 60.429 136.438 59.3145 131.496 58.3592C129.901 57.9612 128.307 57.5632 126.713 57.0059C126.314 56.8467 126.075 56.3691 126.235 55.9711C126.474 55.573 126.792 55.4138 127.111 55.4138Z" fill="#CFE6F0"/>
<path d="M126.712 48.966C129.183 47.5331 132.053 46.9758 134.763 46.2594C135.72 46.1001 138.271 45.0653 138.43 46.5778C138.43 46.8962 138.271 47.135 138.031 47.2942C136.357 48.2495 134.524 48.6475 132.691 49.2844C131.575 49.5232 126.313 51.593 126.313 49.6824C126.313 49.364 126.473 49.1252 126.712 48.966Z" fill="#CFE6F0"/>
<path d="M123.045 43.5527C125.197 40.2889 127.828 37.4231 130.378 34.398C132.69 31.8506 135.879 28.1092 138.43 25.8006C139.147 25.1637 140.183 26.119 139.625 26.8355C136.357 31.4526 132.052 36.1494 128.386 40.3685C127.11 41.8014 125.755 43.2343 124.24 44.508C123.922 44.8264 123.364 44.7468 123.124 44.4284C122.885 44.2692 122.806 43.8712 123.045 43.5527Z" fill="#CFE6F0"/>
<path d="M124.878 63.9319C124.002 63.0562 121.132 60.1904 118.182 59.7924C116.03 59.4739 114.994 60.1904 114.436 60.5088C114.356 60.5088 114.276 60.5884 114.276 60.668C112.045 58.9167 110.131 57.8818 108.378 57.643C105.508 57.245 104.312 58.2002 103.595 58.7575C103.117 59.1555 103.117 59.1555 102.479 59.0759C101.841 58.9963 101.283 58.5187 100.406 57.5634C99.2106 56.2897 97.696 54.6976 94.5872 54.2996C90.5218 53.7423 89.4058 55.9713 88.8478 57.0062C88.6884 57.3246 88.4492 57.8818 88.2101 57.9614C87.4129 57.9614 85.5795 56.6081 84.3838 55.6529C81.9924 53.9015 79.3619 51.9114 76.0139 51.5929C74.1805 51.4337 72.5065 51.8318 71.231 52.7074C68.4411 54.5384 67.5642 58.2799 67.3251 61.0661C67.2454 61.4641 67.0062 62.0213 66.3685 62.5786C65.8902 62.9766 65.3322 63.2154 64.8539 63.3746H58.158C57.2014 63.3746 56.4043 63.9319 56.4043 64.5687C56.4043 65.2056 57.2014 65.7628 58.158 65.7628H123.364C124.081 65.7628 124.719 65.4444 124.958 65.0464C125.197 64.7279 125.197 64.2503 124.878 63.9319Z" fill="#CFE6F0"/>
<path d="M314.918 190.314C306.089 190.422 296.938 190.529 287.678 190.529C225.769 190.959 154.709 190.852 95.8145 190.852C84.0787 190.852 72.3429 190.744 60.7148 190.744C48.1177 190.637 35.4129 190.529 22.8158 190.314C18.7244 190.207 18.5091 188.271 22.8158 188.164C33.3672 187.949 45.2107 187.841 57.5925 187.841C94.5225 187.626 136.728 187.626 168.813 187.626C204.021 187.734 251.071 187.626 290.262 187.949C298.876 188.056 307.166 188.056 314.811 188.164C319.117 188.271 319.333 190.207 314.918 190.314Z" fill="#CFE6F0"/>
<path d="M247.702 167.793L238.837 176.646L230.119 167.793H247.702Z" fill="#8D9096"/>
<path d="M90.0449 167.793L98.7625 176.646L107.628 167.793H90.0449Z" fill="#8D9096"/>
<path d="M272.821 155.546L271.639 158.497C271.934 158.645 272.378 158.94 272.378 159.383C272.378 159.678 272.082 160.268 271.491 160.711C266.763 163.809 259.079 166.023 249.475 166.023H176.336V165.875H88.5686C79.1122 165.875 71.4289 163.662 66.7007 160.416C65.9619 159.973 65.6664 159.383 65.6664 159.088C65.6664 158.645 66.1096 158.35 66.4052 158.202L65.2231 155.251C63.7455 155.989 62.859 157.317 62.7113 158.793C62.5635 160.416 63.45 162.039 65.0754 163.072C70.0991 166.466 78.3734 170.45 88.4209 170.45H176.188V170.597H249.328C259.523 170.597 267.649 166.613 272.821 163.367C274.446 162.334 275.333 160.711 275.185 159.088C275.185 157.612 274.298 156.284 272.821 155.546Z" fill="#FFCA00"/>
<path d="M272.376 155.103L270.455 154.513C269.126 154.07 267.648 154.07 266.318 154.513C262.624 155.546 254.202 157.611 243.121 157.611C228.197 157.611 176.335 157.611 176.335 157.611C176.335 157.611 109.549 157.611 94.6254 157.611C83.5436 157.611 75.1215 155.546 71.4276 154.513C70.0978 154.07 68.6203 154.07 67.2904 154.513L65.3696 155.103C63.0055 155.841 62.5623 158.644 64.6308 159.825C69.359 162.628 77.4856 166.317 87.5331 166.317C103.786 166.317 176.335 166.317 176.335 166.317C176.335 166.317 233.96 166.317 250.213 166.317C260.26 166.317 268.387 162.628 273.115 159.825C275.184 158.644 274.888 155.988 272.376 155.103Z" fill="#6B6C72"/>
<path d="M152.399 161.301C152.399 164.695 129.792 163.809 118.119 163.809C106.446 163.809 97.1377 162.629 97.1377 161.301C97.1377 159.973 106.446 158.792 118.119 158.792C129.792 158.792 152.399 158.792 152.399 161.301Z" fill="#4F5661"/>
<path d="M215.934 164.546C226.135 164.546 234.404 163.423 234.404 162.038C234.404 160.652 226.135 159.529 215.934 159.529C205.734 159.529 197.465 160.652 197.465 162.038C197.465 163.423 205.734 164.546 215.934 164.546Z" fill="#4F5661"/>
<path d="M98.7626 188.304C103.577 188.304 107.48 184.407 107.48 179.599C107.48 174.79 103.577 170.893 98.7626 170.893C93.9479 170.893 90.0449 174.79 90.0449 179.599C90.0449 184.407 93.9479 188.304 98.7626 188.304Z" fill="#6B6C72"/>
<path fill-rule="evenodd" clip-rule="evenodd" d="M98.7629 177.163C97.4136 177.163 96.3222 178.255 96.3222 179.599C96.3222 180.942 97.4136 182.034 98.7629 182.034C100.112 182.034 101.204 180.942 101.204 179.599C101.204 178.255 100.112 177.163 98.7629 177.163ZM94.1113 179.599C94.1113 177.031 96.1953 174.952 98.7629 174.952C101.331 174.952 103.415 177.031 103.415 179.599C103.415 182.166 101.331 184.245 98.7629 184.245C96.1953 184.245 94.1113 182.166 94.1113 179.599Z" fill="white"/>
<path d="M238.837 188.304C243.651 188.304 247.554 184.407 247.554 179.599C247.554 174.79 243.651 170.893 238.837 170.893C234.022 170.893 230.119 174.79 230.119 179.599C230.119 184.407 234.022 188.304 238.837 188.304Z" fill="#6B6C72"/>
<path fill-rule="evenodd" clip-rule="evenodd" d="M238.835 177.163C237.486 177.163 236.395 178.255 236.395 179.599C236.395 180.942 237.486 182.034 238.835 182.034C240.185 182.034 241.276 180.942 241.276 179.599C241.276 178.255 240.185 177.163 238.835 177.163ZM234.184 179.599C234.184 177.031 236.268 174.952 238.835 174.952C241.403 174.952 243.487 177.031 243.487 179.599C243.487 182.166 241.403 184.245 238.835 184.245C236.268 184.245 234.184 182.166 234.184 179.599Z" fill="white"/>
<path d="M248.406 85.6111C243.385 84.7867 239.086 82.5762 235.871 79.2375C233.333 76.5481 230.197 74.8442 226.421 74.2593C225.844 74.227 225.309 74.0612 224.733 74.029C223.714 74.0059 222.603 73.8079 221.626 73.6513C212.962 72.2834 206.187 68.1342 202.512 62.0186C201.64 60.5772 201.385 59.0345 201.841 57.5655C202.162 56.0551 203.152 54.7519 204.595 53.8816C205.862 53.1034 207.272 52.8087 208.651 53.0896C210.339 53.3199 211.911 54.3929 212.784 55.8343C214.621 58.892 218.652 61.0197 223.673 61.8441C224.383 61.9178 225.093 61.9914 225.803 62.0651C226.647 62.1803 227.666 62.2033 228.509 62.3185C235.084 63.3317 240.637 66.2238 244.993 71.0868C246.308 72.519 248.231 73.4078 250.453 73.8039C252.542 74.1585 254.93 74.0204 257.751 73.431C258.502 73.3712 259.12 73.2699 259.83 73.3436C262.361 73.689 264.262 75.5955 264.803 78.1053C265.405 81.3656 263.393 84.5477 260.129 85.1463C255.764 85.9889 251.873 86.2467 248.406 85.6111Z" fill="#CE9367"/>
<path d="M246.519 126.92C246.519 126.92 269.865 131.347 264.102 144.479C258.34 157.612 250.952 153.185 250.952 153.185L253.907 144.479C253.907 144.479 251.395 143.594 236.324 137.102C226.129 132.822 233.369 122.493 246.519 126.92Z" fill="#CE9367"/>
<path fill-rule="evenodd" clip-rule="evenodd" d="M239.699 140.175C239.876 139.59 240.493 139.26 241.078 139.437L254.228 143.421C254.812 143.598 255.142 144.215 254.965 144.8C254.788 145.384 254.171 145.714 253.587 145.537L240.437 141.553C239.852 141.376 239.522 140.759 239.699 140.175Z" fill="#4F5661"/>
<path d="M142.884 104.995C112.741 102.781 89.9868 89.2063 50.3881 99.0926C45.3644 100.273 46.2509 103.224 59.2535 103.667C72.256 104.109 92.7942 104.995 111.855 110.897C126.335 115.324 167.411 114.143 167.411 114.143" fill="#CE9367"/>
<path d="M111.322 145.807C111.322 145.807 116.346 162.038 125.064 162.038C133.781 162.038 136.736 162.038 136.736 162.038C136.736 162.038 137.771 154.66 129.201 153.922C129.201 153.922 142.647 151.709 142.647 140.052L111.322 129.28V145.807" fill="#CE9367"/>
<path d="M317.59 91.8012C316.112 97.1133 306.065 102.425 296.165 103.606C283.015 105.081 281.537 103.901 281.537 103.901C281.537 103.901 272.82 113.197 263.954 113.787C263.954 113.787 265.284 145.955 208.25 145.955C151.216 145.955 127.871 141.528 127.871 141.528C98.615 154.66 72.3144 134.15 72.3144 134.15C72.3144 134.15 60.6416 137.101 51.1852 140.052C41.581 143.003 36.7051 134.15 36.7051 134.15L57.5387 123.378C61.5282 121.313 65.9608 120.427 70.5413 120.427C75.7128 120.575 83.6916 118.509 89.8974 107.737C100.093 90.1781 126.541 96.0804 141.169 97.5559C155.797 99.0315 219.332 106.114 230.266 95.4901C244.303 81.7674 252.282 66.8641 271.342 74.242C284.197 79.2589 296.609 82.5051 306.065 83.2429C310.498 83.6856 314.044 84.4234 316.112 86.6367C317.738 88.4074 318.181 90.0305 317.59 91.8012Z" fill="#CE9367"/>
<path d="M205.591 144.478C210.024 151.856 208.546 162.037 208.546 162.037H225.982C225.982 162.037 228.937 156.135 218.741 154.66C218.741 154.66 234.847 151.708 231.892 134.149C228.937 116.59 198.203 128.395 205.591 144.478Z" fill="#CE9367"/>
<path fill-rule="evenodd" clip-rule="evenodd" d="M255.826 141.989C256.386 142.233 256.642 142.884 256.399 143.444L251.966 153.625C251.722 154.185 251.071 154.441 250.511 154.198C249.951 153.954 249.695 153.303 249.939 152.743L254.372 142.561C254.615 142.002 255.267 141.745 255.826 141.989Z" fill="#4F5661"/>
<path d="M263.438 114.045C265.95 124.964 276.589 120.095 276.589 120.095C276.589 120.095 272.304 109.619 263.438 114.045Z" fill="#53C27C"/>
<path fill-rule="evenodd" clip-rule="evenodd" d="M268.553 86.1596C267.706 86.4764 266.685 87.7249 266.685 90.4732C266.685 91.0838 266.19 91.5787 265.579 91.5787C264.969 91.5787 264.474 91.0838 264.474 90.4732C264.474 87.3193 265.668 84.8789 267.777 84.0891C269.943 83.2779 272.269 84.4852 273.886 86.9083C274.225 87.4161 274.088 88.1026 273.581 88.4415C273.073 88.7805 272.386 88.6437 272.048 88.1359C270.71 86.1323 269.342 85.864 268.553 86.1596Z" fill="#4F5661"/>
<path d="M318.012 91.7114C310.033 92.5967 306.487 91.2687 306.487 83.3007C310.92 83.7433 314.466 84.4811 316.535 86.6945C318.16 88.3176 318.603 89.9407 318.012 91.7114Z" fill="#4F5661"/>
<path fill-rule="evenodd" clip-rule="evenodd" d="M317.11 90.7784C317.692 90.9619 318.015 91.5827 317.832 92.165L316.778 91.8328C317.832 92.165 317.832 92.1658 317.831 92.1667L317.831 92.1686L317.829 92.1732L317.825 92.1852L317.814 92.22C317.804 92.2481 317.791 92.2856 317.774 92.3321C317.739 92.4251 317.689 92.5538 317.619 92.7139C317.48 93.0339 317.265 93.4793 316.951 94.0132C316.322 95.0817 315.297 96.5037 313.692 97.9839C310.469 100.955 304.975 104.1 295.825 105.157L295.824 105.157C287.853 106.067 281.208 104.514 276.556 102.734C274.231 101.844 272.399 100.895 271.144 100.165C270.516 99.7996 270.031 99.4886 269.699 99.2662C269.534 99.1549 269.406 99.0658 269.318 99.003C269.274 98.9716 269.24 98.9469 269.216 98.9292L269.188 98.9081L269.179 98.9017L269.176 98.8995L269.175 98.8987C269.175 98.8984 269.175 98.8981 269.841 98.0161L269.175 98.8981C268.687 98.5301 268.591 97.8369 268.959 97.3497C269.327 96.8629 270.019 96.7661 270.506 97.1333L270.507 97.1335C270.507 97.1337 270.507 97.1338 270.507 97.134L270.509 97.1353L270.526 97.1476C270.542 97.1594 270.568 97.1783 270.603 97.2037C270.674 97.2545 270.784 97.3315 270.932 97.4305C271.227 97.6284 271.671 97.914 272.255 98.2536C273.424 98.9331 275.148 99.8272 277.347 100.669C281.745 102.353 288.029 103.821 295.572 102.961C304.301 101.952 309.346 98.9835 312.193 96.3584C313.623 95.0403 314.515 93.7932 315.045 92.892C315.311 92.4412 315.485 92.0766 315.591 91.8329C315.644 91.7111 315.68 91.6196 315.701 91.5627C315.711 91.5343 315.718 91.5145 315.722 91.504L315.724 91.4979L315.724 91.4992C315.724 91.498 315.724 91.4968 315.725 91.4956C315.91 90.9165 316.529 90.5955 317.11 90.7784Z" fill="#4F5661"/>
<path fill-rule="evenodd" clip-rule="evenodd" d="M128.507 116.319C128.983 115.936 129.679 116.011 130.061 116.487C133.355 120.58 134.824 124.525 134.836 128.197C134.849 131.871 133.404 135.135 131.126 137.861C126.919 142.895 119.789 146.21 113.108 147.198C113.164 147.325 113.224 147.461 113.289 147.604C113.772 148.677 114.473 150.148 115.346 151.739C117.117 154.968 119.498 158.514 122.084 160.349C122.582 160.702 122.699 161.392 122.346 161.89C121.993 162.388 121.303 162.505 120.805 162.152C117.777 160.003 115.195 156.062 113.407 152.802C112.5 151.148 111.773 149.623 111.273 148.511C111.022 147.955 110.828 147.501 110.696 147.185C110.63 147.026 110.579 146.903 110.544 146.817C110.527 146.775 110.514 146.742 110.505 146.719L110.495 146.693L110.491 146.683C110.491 146.683 110.49 146.682 111.52 146.279L110.49 146.682C110.364 146.359 110.396 145.996 110.577 145.7C110.759 145.405 111.068 145.212 111.413 145.178C118.068 144.535 125.368 141.304 129.43 136.443C131.443 134.034 132.636 131.259 132.625 128.205C132.615 125.148 131.399 121.675 128.339 117.873C127.956 117.398 128.031 116.702 128.507 116.319Z" fill="#4F5661"/>
<path d="M230.267 95.638C217.265 96.2283 212.741 92.6626 198.113 94.1382C183.485 95.6137 202.046 95.9331 209.877 105.082C217.56 114.23 231.893 128.101 250.806 126.182C269.718 124.264 265.877 113.64 265.877 113.64C265.877 113.64 250.658 115.411 230.267 95.638Z" fill="#53C27C"/>
<path fill-rule="evenodd" clip-rule="evenodd" d="M203.81 101.318C204.111 100.786 204.786 100.599 205.317 100.9L204.773 101.862C205.317 100.9 205.317 100.9 205.318 100.9L205.318 100.901L205.32 100.902L205.324 100.904L205.334 100.91L205.365 100.928C205.39 100.943 205.423 100.963 205.465 100.989C205.549 101.042 205.667 101.118 205.818 101.222C206.121 101.431 206.555 101.749 207.112 102.206C208.225 103.117 209.827 104.58 211.849 106.822C220.395 115.551 232.354 126.222 250.876 124.931L250.878 124.931C255.196 124.639 257.911 124.202 259.526 123.848C260.333 123.67 260.862 123.515 261.178 123.409C261.336 123.356 261.439 123.316 261.497 123.292C261.526 123.28 261.544 123.273 261.551 123.269C261.551 123.269 261.552 123.269 261.553 123.269C262.096 123.005 262.753 123.227 263.024 123.77C263.296 124.316 263.075 124.98 262.529 125.252L262.035 124.263C262.529 125.252 262.528 125.253 262.527 125.253L262.526 125.254L262.523 125.255L262.517 125.258L262.502 125.265C262.491 125.271 262.477 125.277 262.461 125.284C262.429 125.299 262.388 125.317 262.335 125.338C262.229 125.381 262.08 125.438 261.88 125.505C261.48 125.639 260.874 125.815 260 126.007C258.254 126.39 255.428 126.839 251.029 127.137C231.442 128.501 218.856 117.141 210.253 108.353C210.242 108.342 210.232 108.331 210.222 108.319C208.261 106.144 206.734 104.754 205.711 103.916C205.2 103.497 204.815 103.216 204.564 103.043C204.439 102.957 204.348 102.898 204.292 102.863C204.264 102.846 204.244 102.834 204.233 102.827L204.224 102.822C203.696 102.52 203.511 101.848 203.81 101.318Z" fill="#4F5661"/>
<path d="M264.694 114.673C256.419 122.346 266.024 128.986 266.024 128.986C266.024 128.986 272.968 120.132 264.694 114.673Z" fill="#53C27C"/>
<path d="M292.767 92.9821C293.338 92.9821 293.801 92.5196 293.801 91.9492C293.801 91.3787 293.338 90.9163 292.767 90.9163C292.195 90.9163 291.732 91.3787 291.732 91.9492C291.732 92.5196 292.195 92.9821 292.767 92.9821Z" fill="#4F5661"/>
<path d="M301.632 91.5053C302.203 91.5053 302.666 91.0428 302.666 90.4723C302.666 89.9019 302.203 89.4395 301.632 89.4395C301.061 89.4395 300.598 89.9019 300.598 90.4723C300.598 91.0428 301.061 91.5053 301.632 91.5053Z" fill="#4F5661"/>
<path d="M297.791 95.6379C298.362 95.6379 298.825 95.1755 298.825 94.605C298.825 94.0346 298.362 93.5721 297.791 93.5721C297.22 93.5721 296.757 94.0346 296.757 94.605C296.757 95.1755 297.22 95.6379 297.791 95.6379Z" fill="#4F5661"/>
<path fill-rule="evenodd" clip-rule="evenodd" d="M204.396 131.753C204.986 131.909 205.339 132.514 205.183 133.104C204.485 135.754 204.494 137.808 204.853 139.645C205.208 141.46 205.907 143.097 206.718 144.993C206.743 145.052 206.768 145.111 206.793 145.17C208.487 149.135 210.411 153.834 209.648 162.14C209.592 162.748 209.054 163.195 208.446 163.139C207.838 163.084 207.39 162.546 207.446 161.938C208.161 154.16 206.391 149.857 204.76 146.039C204.724 145.955 204.688 145.871 204.652 145.787C203.867 143.951 203.084 142.119 202.683 140.069C202.257 137.889 202.266 135.498 203.045 132.541C203.201 131.95 203.806 131.598 204.396 131.753Z" fill="#4F5661"/>
<path d="M242.6 95.7095C237.231 95.8008 232.35 94.3165 228.381 91.4563C225.239 89.1425 221.661 87.9649 217.629 88.07C217.025 88.1452 216.438 88.074 215.834 88.1493C214.771 88.3176 213.58 88.3216 212.535 88.3434C203.281 88.5576 195.463 85.5274 190.494 79.8704C189.316 78.5382 188.76 76.9844 188.956 75.3731C189.005 73.744 189.787 72.2039 191.121 71.0281C192.29 69.9809 193.699 69.4087 195.183 69.4403C196.979 69.3611 198.815 70.1785 199.993 71.5106C202.477 74.3392 207.064 75.7879 212.434 75.6966C213.185 75.6392 213.936 75.5817 214.687 75.5243C215.585 75.4847 216.647 75.3164 217.545 75.2767C224.564 75.0883 230.875 77.0438 236.316 81.2716C237.951 82.5107 240.116 83.0708 242.498 83.0627C244.734 83.0369 247.188 82.4429 250.006 81.2987C250.775 81.0948 251.397 80.873 252.148 80.8156C254.842 80.6967 257.175 82.3178 258.211 84.8217C259.451 88.0937 257.962 91.7776 254.686 93.0149C250.312 94.7135 246.32 95.7153 242.6 95.7095Z" fill="#CE9367"/>
<path fill-rule="evenodd" clip-rule="evenodd" d="M192.942 74.8859C193.394 74.4747 194.093 74.5071 194.504 74.9584C198.322 79.1478 204.389 81.4564 211.913 81.183C212.32 81.1627 212.772 81.1129 213.267 81.058L213.286 81.0559C213.756 81.0036 214.267 80.9469 214.745 80.9227L216.981 80.7407C217.002 80.7389 217.024 80.7378 217.046 80.7373C222.648 80.6146 227.482 82.1097 231.798 85.2629L231.814 85.2748C234.585 87.3767 238.073 88.3572 242.05 88.2546C242.66 88.2389 243.168 88.7209 243.183 89.3312C243.199 89.9415 242.717 90.4491 242.107 90.4648C237.732 90.5776 233.728 89.4989 230.486 87.0425C226.587 84.1969 222.246 82.841 217.127 82.947L214.907 83.1277C214.896 83.1287 214.884 83.1294 214.872 83.13C214.463 83.15 214.009 83.2001 213.511 83.2554L213.493 83.2574C213.016 83.3104 212.498 83.3679 212.015 83.3916L212.001 83.3923C203.992 83.6849 197.229 81.231 192.87 76.4476C192.459 75.9963 192.491 75.2971 192.942 74.8859Z" fill="#4F5661"/>
</svg>
