<svg width="1200" height="675" viewBox="0 0 1200 675" fill="none" xmlns="http://www.w3.org/2000/svg">
<g clip-path="url(#clip0_6_2107)">
<rect width="1200" height="675" fill="#F4F4EF"/>
<rect y="5" width="546" height="666" fill="#FFD4D8"/>
<rect x="176" y="568.082" width="89.2705" height="89.2705" transform="rotate(-90 176 568.082)" fill="#A53900"/>
<rect x="176" y="440.812" width="89.2705" height="89.2705" transform="rotate(-90 176 440.812)" fill="#A53900"/>
<rect x="176" y="313.539" width="89.2705" height="89.2705" transform="rotate(-90 176 313.539)" fill="#A53900"/>
<rect x="176" y="186.27" width="89.2705" height="89.2705" transform="rotate(-90 176 186.27)" fill="#A53900"/>
<rect x="766" y="224" width="418" height="217" fill="#393A3D"/>
<path fill-rule="evenodd" clip-rule="evenodd" d="M1214 567C1343.23 567 1448 462.235 1448 333C1448 203.765 1343.23 99 1214 99C1084.77 99 980 203.765 980 333C980 462.235 1084.77 567 1214 567ZM1214 475.235C1292.55 475.235 1356.24 411.554 1356.24 333C1356.24 254.446 1292.55 190.765 1214 190.765C1135.45 190.765 1071.76 254.446 1071.76 333C1071.76 411.554 1135.45 475.235 1214 475.235Z" fill="#FCA354"/>
<path fill-rule="evenodd" clip-rule="evenodd" d="M546 441C605.647 441 654 392.647 654 333C654 273.353 605.647 225 546 225C486.353 225 438 273.353 438 333C438 392.647 486.353 441 546 441ZM546 398.647C582.256 398.647 611.647 369.256 611.647 333C611.647 296.744 582.256 267.353 546 267.353C509.744 267.353 480.353 296.744 480.353 333C480.353 369.256 509.744 398.647 546 398.647Z" fill="#FCA354"/>
</g>
<defs>
<clipPath id="clip0_6_2107">
<rect width="1200" height="675" fill="white"/>
</clipPath>
</defs>
</svg>
