<svg width="1184" height="666" viewBox="0 0 1184 666" fill="none" xmlns="http://www.w3.org/2000/svg">
<g clip-path="url(#clip0_1_4163)">
<rect width="1184" height="666" fill="#F4F4EF"/>
<path d="M1152 6.10352e-05L-69.7499 711.007L-69.7499 -711.007L1152 6.10352e-05Z" fill="#FFD4D8"/>
<path d="M639 355L1233.75 701.41L1233.75 8.58984L639 355Z" fill="#FFD4D8"/>
<path fill-rule="evenodd" clip-rule="evenodd" d="M0.685922 658.991C-14.1114 683.526 -14.1126 709.8 0.687112 734.355L-40.1342 740.871C-57.4907 712.074 -57.4926 681.256 -40.1348 652.474C-40.1346 652.474 -40.1349 652.474 -40.1348 652.474C-40.1343 652.473 -40.1334 652.472 -40.133 652.471L-20.9366 620.61C-6.13694 596.055 -6.13756 569.78 -20.9348 545.246L-20.9367 545.243L-40.1342 513.38C-40.1344 513.38 -40.134 513.381 -40.1342 513.38C-57.4901 484.584 -57.4924 453.765 -40.1348 424.983C-40.1342 424.982 -40.1336 424.981 -40.133 424.98L-20.9367 393.12C-6.13695 368.565 -6.13757 342.29 -20.9349 317.755L-20.9367 317.752L-40.1342 285.89C-40.1344 285.889 -40.134 285.89 -40.1342 285.89C-57.4901 257.093 -57.4924 226.274 -40.1348 197.493C-40.1342 197.492 -40.1336 197.491 -40.133 197.49L-20.9367 165.629C-6.13696 141.074 -6.13758 114.799 -20.9349 90.2645L-20.9367 90.2616L-40.1342 58.3991C-40.1344 58.3987 -40.134 58.3994 -40.1342 58.3991C-57.4907 29.6013 -57.4924 -1.21848 -40.133 -30.0011L0.685892 -23.4807C-14.1114 1.0539 -14.1126 27.3277 0.687082 51.8826L19.884 83.7441C19.8846 83.7452 19.8852 83.7461 19.8858 83.7471C37.2436 112.529 37.2418 143.347 19.8852 172.144L0.687705 204.007L0.685902 204.01C-14.1114 228.545 -14.1126 254.818 0.687092 279.373L19.884 311.235C19.8847 311.236 19.8853 311.237 19.8859 311.238C37.2434 340.02 37.2418 370.837 19.8859 399.634C19.8856 399.634 19.8861 399.634 19.8859 399.634L0.685912 431.501C-14.1114 456.035 -14.1126 482.309 0.687102 506.864L19.8841 538.725C19.8847 538.726 19.8853 538.727 19.8859 538.728C37.2434 567.51 37.2418 598.328 19.8859 627.125C19.8857 627.125 19.8861 627.124 19.8859 627.125L0.685922 658.991Z" fill="#FCA354"/>
<path fill-rule="evenodd" clip-rule="evenodd" d="M79.5375 658.991C64.7402 683.526 64.739 709.8 79.5387 734.355L38.7174 740.871C21.3608 712.074 21.359 681.256 38.7168 652.474C38.7169 652.474 38.7166 652.474 38.7168 652.474C38.7172 652.473 38.7181 652.472 38.7186 652.471L57.9149 620.61C72.7146 596.055 72.714 569.78 57.9167 545.246L57.9149 545.243L38.7174 513.38C38.7172 513.38 38.7176 513.381 38.7174 513.38C21.3615 484.584 21.3592 453.765 38.7168 424.983C38.7174 424.982 38.718 424.981 38.7186 424.98L57.9149 393.12C72.7146 368.565 72.714 342.29 57.9167 317.755L57.9149 317.752L38.7174 285.89C38.7172 285.889 38.7176 285.89 38.7174 285.89C21.3614 257.093 21.3592 226.274 38.7168 197.493C38.7174 197.492 38.718 197.491 38.7186 197.49L57.9149 165.629C72.7146 141.074 72.714 114.799 57.9167 90.2645L57.9149 90.2616L38.7174 58.3991C38.7172 58.3987 38.7176 58.3994 38.7174 58.3991C21.3608 29.6013 21.3592 -1.21848 38.7185 -30.0011L79.5375 -23.4807C64.7402 1.0539 64.7389 27.3277 79.5386 51.8826L98.7356 83.7441C98.7362 83.7452 98.7368 83.7461 98.7374 83.7471C116.095 112.529 116.093 143.347 98.7368 172.144L79.5393 204.007L79.5375 204.01C64.7402 228.545 64.7389 254.818 79.5387 279.373L98.7356 311.235C98.7362 311.236 98.7368 311.237 98.7374 311.238C116.095 340.02 116.093 370.837 98.7374 399.634C98.7372 399.634 98.7376 399.634 98.7374 399.634L79.5375 431.501C64.7402 456.035 64.739 482.309 79.5387 506.864L98.7356 538.725C98.7362 538.726 98.7368 538.727 98.7374 538.728C116.095 567.51 116.093 598.328 98.7374 627.125C98.7372 627.125 98.7376 627.124 98.7374 627.125L79.5375 658.991Z" fill="#FCA354"/>
<path fill-rule="evenodd" clip-rule="evenodd" d="M158.385 658.991C143.588 683.526 143.587 709.8 158.386 734.355L117.565 740.871C100.209 712.074 100.207 681.256 117.564 652.474C117.565 652.474 117.564 652.474 117.564 652.474C117.565 652.473 117.566 652.472 117.566 652.471L136.763 620.61C151.562 596.055 151.562 569.78 136.764 545.246L136.763 545.243L117.565 513.38C117.565 513.38 117.565 513.381 117.565 513.38C100.209 484.584 100.207 453.765 117.564 424.983C117.565 424.982 117.566 424.981 117.566 424.98L136.763 393.12C151.562 368.565 151.562 342.29 136.764 317.755L136.763 317.752L117.565 285.89C117.565 285.889 117.565 285.89 117.565 285.89C100.209 257.093 100.207 226.274 117.564 197.493C117.565 197.492 117.566 197.491 117.566 197.49L136.763 165.629C151.562 141.074 151.562 114.799 136.764 90.2645L136.763 90.2616L117.565 58.3991C117.565 58.3987 117.565 58.3994 117.565 58.3991C100.208 29.6013 100.207 -1.21848 117.566 -30.0011L158.385 -23.4807C143.588 1.0539 143.587 27.3277 158.386 51.8826L177.583 83.7441C177.584 83.7452 177.584 83.7461 177.585 83.7471C194.943 112.529 194.941 143.347 177.584 172.144L158.387 204.007L158.385 204.01C143.588 228.545 143.587 254.818 158.386 279.373L177.583 311.235C177.584 311.236 177.584 311.237 177.585 311.238C194.943 340.02 194.941 370.837 177.585 399.634C177.585 399.634 177.585 399.634 177.585 399.634L158.385 431.501C143.588 456.035 143.587 482.309 158.386 506.864L177.583 538.725C177.584 538.726 177.584 538.727 177.585 538.728C194.943 567.51 194.941 598.328 177.585 627.125C177.585 627.125 177.585 627.124 177.585 627.125L158.385 658.991Z" fill="#FCA354"/>
<path fill-rule="evenodd" clip-rule="evenodd" d="M237.237 658.991C222.439 683.526 222.438 709.8 237.238 734.355L196.417 740.871C179.06 712.074 179.058 681.256 196.416 652.474C196.416 652.474 196.416 652.474 196.416 652.474C196.416 652.473 196.417 652.472 196.418 652.471L215.614 620.61C230.414 596.055 230.413 569.78 215.616 545.246L215.614 545.243L196.417 513.38C196.416 513.38 196.417 513.381 196.417 513.38C179.061 484.584 179.058 453.765 196.416 424.983C196.417 424.982 196.417 424.981 196.418 424.98L215.614 393.12C230.414 368.565 230.413 342.29 215.616 317.755L215.614 317.752L196.417 285.89C196.416 285.889 196.417 285.89 196.417 285.89C179.061 257.093 179.058 226.274 196.416 197.493C196.417 197.492 196.417 197.491 196.418 197.49L215.614 165.629C230.414 141.074 230.413 114.799 215.616 90.2645L215.614 90.2616L196.417 58.3991C196.416 58.3987 196.417 58.3994 196.417 58.3991C179.06 29.6013 179.058 -1.21848 196.418 -30.0011L237.237 -23.4807C222.439 1.0539 222.438 27.3277 237.238 51.8826L256.435 83.7441C256.435 83.7452 256.436 83.7461 256.437 83.7471C273.794 112.529 273.793 143.347 256.436 172.144L237.238 204.007L237.237 204.01C222.439 228.545 222.438 254.818 237.238 279.373L256.435 311.235C256.435 311.236 256.436 311.237 256.437 311.238C273.794 340.02 273.793 370.837 256.437 399.634C256.436 399.634 256.437 399.634 256.437 399.634L237.237 431.501C222.439 456.035 222.438 482.309 237.238 506.864L256.435 538.725C256.435 538.726 256.436 538.727 256.437 538.728C273.794 567.51 273.793 598.328 256.437 627.125C256.436 627.125 256.437 627.124 256.437 627.125L237.237 658.991Z" fill="#FCA354"/>
<path fill-rule="evenodd" clip-rule="evenodd" d="M616 911C745.235 911 850 806.235 850 677C850 547.765 745.235 443 616 443C486.765 443 382 547.765 382 677C382 806.235 486.765 911 616 911ZM616 819.235C694.554 819.235 758.235 755.554 758.235 677C758.235 598.446 694.554 534.765 616 534.765C537.446 534.765 473.765 598.446 473.765 677C473.765 755.554 537.446 819.235 616 819.235Z" fill="#A53900"/>
<path d="M1152.38 182C1056.62 182 978.998 259.625 978.998 355.381C978.998 451.136 1056.62 528.761 1152.38 528.761L1152.38 182Z" fill="#393A3D"/>
</g>
<defs>
<clipPath id="clip0_1_4163">
<rect width="1184" height="666" fill="white"/>
</clipPath>
</defs>
</svg>
