<svg width="1184" height="666" viewBox="0 0 1184 666" fill="none" xmlns="http://www.w3.org/2000/svg">
<g clip-path="url(#clip0_1_4148)">
<rect width="1184" height="666" fill="#F4F4EF"/>
<rect x="-325" y="-333" width="765" height="794" fill="#FFD4D8"/>
<rect x="649" y="64" width="765" height="794" fill="#FFD4D8"/>
<rect x="321" y="541.965" width="73.0344" height="73.0344" fill="#393A3D"/>
<rect x="424.902" y="541.965" width="73.0344" height="73.0344" fill="#393A3D"/>
<rect x="528.805" y="541.965" width="73.0344" height="73.0344" fill="#393A3D"/>
<rect x="632.703" y="541.965" width="73.0344" height="73.0344" fill="#393A3D"/>
<path fill-rule="evenodd" clip-rule="evenodd" d="M926.838 636.991C912.041 661.526 912.04 687.8 926.839 712.355L886.018 718.871C868.662 690.074 868.66 659.256 886.018 630.474C886.018 630.474 886.017 630.474 886.018 630.474C886.018 630.473 886.019 630.472 886.019 630.471L905.216 598.61C920.015 574.055 920.015 547.78 905.217 523.246L905.216 523.243L886.018 491.38C886.018 491.38 886.018 491.381 886.018 491.38C868.662 462.584 868.66 431.765 886.018 402.983C886.018 402.982 886.019 402.981 886.019 402.98L905.216 371.12C920.015 346.565 920.015 320.29 905.217 295.755L905.216 295.752L886.018 263.89C886.018 263.889 886.018 263.89 886.018 263.89C868.662 235.093 868.66 204.274 886.018 175.493C886.018 175.492 886.019 175.491 886.019 175.49L905.216 143.629C920.015 119.074 920.015 92.7991 905.217 68.2645L905.216 68.2616L886.018 36.3991C886.018 36.3987 886.018 36.3994 886.018 36.3991C868.662 7.6013 868.66 -23.2185 886.019 -52.0011L926.838 -45.4807C912.041 -20.9461 912.04 5.32774 926.839 29.8826L946.036 61.7441C946.037 61.7452 946.038 61.7461 946.038 61.7471C963.396 90.5293 963.394 121.347 946.038 150.144L926.84 182.007L926.838 182.01C912.041 206.545 912.04 232.818 926.839 257.373L946.036 289.235C946.037 289.236 946.038 289.237 946.038 289.238C963.396 318.02 963.394 348.837 946.038 377.634C946.038 377.634 946.038 377.634 946.038 377.634L926.838 409.501C912.041 434.035 912.04 460.309 926.839 484.864L946.036 516.725C946.037 516.726 946.038 516.727 946.038 516.728C963.396 545.51 963.394 576.328 946.038 605.125C946.038 605.125 946.038 605.124 946.038 605.125L926.838 636.991Z" fill="#FCA354"/>
<path fill-rule="evenodd" clip-rule="evenodd" d="M1005.69 636.991C990.891 661.526 990.889 687.8 1005.69 712.355L964.868 718.871C947.511 690.074 947.509 659.256 964.867 630.474C964.867 630.474 964.867 630.474 964.867 630.474C964.868 630.473 964.869 630.472 964.869 630.471L984.065 598.61C998.865 574.055 998.864 547.78 984.067 523.246L984.065 523.243L964.868 491.38C964.868 491.38 964.868 491.381 964.868 491.38C947.512 462.584 947.51 431.765 964.867 402.983C964.868 402.982 964.868 402.981 964.869 402.98L984.065 371.12C998.865 346.565 998.864 320.29 984.067 295.755L984.065 295.752L964.868 263.89C964.868 263.889 964.868 263.89 964.868 263.89C947.512 235.093 947.51 204.274 964.867 175.493C964.868 175.492 964.868 175.491 964.869 175.49L984.065 143.629C998.865 119.074 998.864 92.7991 984.067 68.2645L984.065 68.2616L964.868 36.3991C964.868 36.3987 964.868 36.3994 964.868 36.3991C947.511 7.6013 947.51 -23.2185 964.869 -52.0011L1005.69 -45.4807C990.891 -20.9461 990.889 5.32774 1005.69 29.8826L1024.89 61.7441C1024.89 61.7452 1024.89 61.7461 1024.89 61.7471C1042.25 90.5293 1042.24 121.347 1024.89 150.144L1005.69 182.007L1005.69 182.01C990.891 206.545 990.889 232.818 1005.69 257.373L1024.89 289.235C1024.89 289.236 1024.89 289.237 1024.89 289.238C1042.25 318.02 1042.24 348.837 1024.89 377.634C1024.89 377.634 1024.89 377.634 1024.89 377.634L1005.69 409.501C990.891 434.035 990.889 460.309 1005.69 484.864L1024.89 516.725C1024.89 516.726 1024.89 516.727 1024.89 516.728C1042.25 545.51 1042.24 576.328 1024.89 605.125C1024.89 605.125 1024.89 605.124 1024.89 605.125L1005.69 636.991Z" fill="#FCA354"/>
<path fill-rule="evenodd" clip-rule="evenodd" d="M1084.54 636.991C1069.74 661.526 1069.74 687.8 1084.54 712.355L1043.72 718.871C1026.36 690.074 1026.36 659.256 1043.72 630.474C1043.72 630.474 1043.72 630.474 1043.72 630.474C1043.72 630.473 1043.72 630.472 1043.72 630.471L1062.91 598.61C1077.71 574.055 1077.71 547.78 1062.92 523.246L1062.91 523.243L1043.72 491.38C1043.72 491.38 1043.72 491.381 1043.72 491.38C1026.36 462.584 1026.36 431.765 1043.72 402.983C1043.72 402.982 1043.72 402.981 1043.72 402.98L1062.91 371.12C1077.71 346.565 1077.71 320.29 1062.92 295.755L1062.91 295.752L1043.72 263.89C1043.72 263.889 1043.72 263.89 1043.72 263.89C1026.36 235.093 1026.36 204.274 1043.72 175.493C1043.72 175.492 1043.72 175.491 1043.72 175.49L1062.91 143.629C1077.71 119.074 1077.71 92.7991 1062.92 68.2645L1062.91 68.2616L1043.72 36.3991C1043.72 36.3987 1043.72 36.3994 1043.72 36.3991C1026.36 7.6013 1026.36 -23.2185 1043.72 -52.0011L1084.54 -45.4807C1069.74 -20.9461 1069.74 5.32774 1084.54 29.8826L1103.74 61.7441C1103.74 61.7452 1103.74 61.7461 1103.74 61.7471C1121.1 90.5293 1121.09 121.347 1103.74 150.144L1084.54 182.007L1084.54 182.01C1069.74 206.545 1069.74 232.818 1084.54 257.373L1103.74 289.235C1103.74 289.236 1103.74 289.237 1103.74 289.238C1121.09 318.02 1121.09 348.837 1103.74 377.634C1103.74 377.634 1103.74 377.634 1103.74 377.634L1084.54 409.501C1069.74 434.035 1069.74 460.309 1084.54 484.864L1103.74 516.725C1103.74 516.726 1103.74 516.727 1103.74 516.728C1121.09 545.51 1121.09 576.328 1103.74 605.125C1103.74 605.125 1103.74 605.124 1103.74 605.125L1084.54 636.991Z" fill="#FCA354"/>
<path fill-rule="evenodd" clip-rule="evenodd" d="M1163.39 636.991C1148.59 661.526 1148.59 687.8 1163.39 712.355L1122.57 718.871C1105.21 690.074 1105.21 659.256 1122.57 630.474C1122.57 630.474 1122.57 630.474 1122.57 630.474C1122.57 630.473 1122.57 630.472 1122.57 630.471L1141.76 598.61C1156.56 574.055 1156.56 547.78 1141.77 523.246L1141.76 523.243L1122.57 491.38C1122.57 491.38 1122.57 491.381 1122.57 491.38C1105.21 462.584 1105.21 431.765 1122.57 402.983C1122.57 402.982 1122.57 402.981 1122.57 402.98L1141.76 371.12C1156.56 346.565 1156.56 320.29 1141.77 295.755L1141.76 295.752L1122.57 263.89C1122.57 263.889 1122.57 263.89 1122.57 263.89C1105.21 235.093 1105.21 204.274 1122.57 175.493C1122.57 175.492 1122.57 175.491 1122.57 175.49L1141.76 143.629C1156.56 119.074 1156.56 92.7991 1141.77 68.2645L1141.76 68.2616L1122.57 36.3991C1122.57 36.3987 1122.57 36.3994 1122.57 36.3991C1105.21 7.6013 1105.21 -23.2185 1122.57 -52.0011L1163.39 -45.4807C1148.59 -20.9461 1148.59 5.32774 1163.39 29.8826L1182.59 61.7441C1182.59 61.7452 1182.59 61.7461 1182.59 61.7471C1199.94 90.5293 1199.94 121.347 1182.59 150.144L1163.39 182.007L1163.39 182.01C1148.59 206.545 1148.59 232.818 1163.39 257.373L1182.59 289.235C1182.59 289.236 1182.59 289.237 1182.59 289.238C1199.94 318.02 1199.94 348.837 1182.59 377.634C1182.59 377.634 1182.59 377.634 1182.59 377.634L1163.39 409.501C1148.59 434.035 1148.59 460.309 1163.39 484.864L1182.59 516.725C1182.59 516.726 1182.59 516.727 1182.59 516.728C1199.94 545.51 1199.94 576.328 1182.59 605.125C1182.59 605.125 1182.59 605.124 1182.59 605.125L1163.39 636.991Z" fill="#FCA354"/>
<circle cx="394" cy="228" r="147" fill="#A53900"/>
</g>
<defs>
<clipPath id="clip0_1_4148">
<rect width="1184" height="666" fill="white"/>
</clipPath>
</defs>
</svg>
