<svg width="1200" height="675" viewBox="0 0 1200 675" fill="none" xmlns="http://www.w3.org/2000/svg">
<g clip-path="url(#clip0_6_2093)">
<rect width="1200" height="675" fill="#F4F4EF"/>
<rect x="602" y="-415" width="1244.97" height="40.1333" transform="rotate(90 602 -415)" fill="#FCA354"/>
<rect x="521.734" y="-415" width="1244.97" height="40.1333" transform="rotate(90 521.734 -415)" fill="#FCA354"/>
<rect x="441.465" y="-415" width="1244.97" height="40.1333" transform="rotate(90 441.465 -415)" fill="#FCA354"/>
<rect x="361.199" y="-415" width="1244.97" height="40.1333" transform="rotate(90 361.199 -415)" fill="#FCA354"/>
<rect x="280.934" y="-415" width="1244.97" height="40.1333" transform="rotate(90 280.934 -415)" fill="#FCA354"/>
<rect x="200.668" y="-415" width="1244.97" height="40.1333" transform="rotate(90 200.668 -415)" fill="#FCA354"/>
<rect x="120.398" y="-415" width="1244.97" height="40.1333" transform="rotate(90 120.398 -415)" fill="#FCA354"/>
<rect x="40.1328" y="-415" width="1244.97" height="40.1333" transform="rotate(90 40.1328 -415)" fill="#FCA354"/>
<rect x="874" y="5" width="310" height="666" fill="#FFD4D8"/>
<rect x="1051" y="123.637" width="418.454" height="418.454" fill="#393A3D"/>
<circle cx="301.5" cy="332.5" r="140.5" fill="#A53900"/>
<circle cx="873.5" cy="332.5" r="55.5" fill="#FCA354"/>
</g>
<defs>
<clipPath id="clip0_6_2093">
<rect width="1200" height="675" fill="white"/>
</clipPath>
</defs>
</svg>
