<svg width="1200" height="675" viewBox="0 0 1200 675" fill="none" xmlns="http://www.w3.org/2000/svg">
<g clip-path="url(#clip0_6_1908)">
<rect width="1200" height="675" fill="#F4F4EF"/>
<rect x="-52" y="-100" width="996" height="771" fill="#FFD4D8"/>
<path fill-rule="evenodd" clip-rule="evenodd" d="M417.448 178.327C391.506 162.681 363.725 162.68 337.763 178.328L334.461 157.642C362.572 140.698 392.656 140.697 420.751 157.641C420.752 157.642 420.751 157.641 420.751 157.641L453.045 177.099C479.007 192.746 506.788 192.746 532.731 177.1L565.026 157.642C565.026 157.641 565.026 157.642 565.026 157.642C593.137 140.698 623.221 140.697 651.316 157.641C651.316 157.642 651.315 157.641 651.316 157.641L683.61 177.099C709.572 192.746 737.353 192.746 763.296 177.1L795.591 157.642C795.591 157.641 795.59 157.642 795.591 157.642C823.702 140.698 853.786 140.697 881.881 157.641C881.881 157.642 881.88 157.641 881.881 157.641L914.175 177.099C940.137 192.746 967.918 192.746 993.86 177.1L1026.16 157.642C1054.27 140.698 1084.35 140.697 1112.45 157.642L1109.14 178.327C1083.2 162.681 1055.42 162.68 1029.46 178.328L997.165 197.785C997.164 197.785 997.165 197.785 997.165 197.785C969.07 214.729 938.985 214.729 910.873 197.786L878.579 178.328C852.637 162.682 824.855 162.68 798.893 178.328L766.6 197.785C738.504 214.73 708.421 214.729 680.309 197.786C680.309 197.786 680.309 197.786 680.309 197.786L648.015 178.328C622.072 162.682 594.29 162.68 568.328 178.328L536.035 197.785C507.94 214.73 477.856 214.729 449.744 197.786C449.744 197.786 449.744 197.786 449.744 197.786L417.448 178.327Z" fill="#A53900"/>
<path fill-rule="evenodd" clip-rule="evenodd" d="M417.448 258.241C391.506 242.595 363.725 242.594 337.763 258.242L334.461 237.556C362.572 220.612 392.656 220.611 420.751 237.555C420.752 237.556 420.751 237.555 420.751 237.555L453.045 257.013C479.007 272.661 506.788 272.66 532.731 257.014L565.026 237.556C565.026 237.555 565.026 237.556 565.026 237.556C593.137 220.613 623.221 220.611 651.316 237.555C651.316 237.556 651.315 237.555 651.316 237.555L683.61 257.013C709.572 272.661 737.353 272.66 763.296 257.014L795.591 237.556C795.591 237.555 795.59 237.556 795.591 237.556C823.702 220.612 853.786 220.611 881.881 237.555C881.881 237.556 881.88 237.555 881.881 237.555L914.175 257.013C940.137 272.661 967.918 272.66 993.86 257.014L1026.16 237.556C1054.27 220.612 1084.35 220.611 1112.45 237.556L1109.14 258.241C1083.2 242.595 1055.42 242.594 1029.46 258.242L997.165 277.699C997.164 277.699 997.165 277.699 997.165 277.699C969.07 294.643 938.985 294.643 910.873 277.7L878.579 258.242C852.637 242.596 824.855 242.594 798.893 258.242L766.6 277.699C738.504 294.644 708.421 294.643 680.309 277.7C680.309 277.7 680.309 277.7 680.309 277.7L648.015 258.242C622.072 242.596 594.29 242.594 568.328 258.242L536.035 277.699C507.94 294.644 477.856 294.643 449.744 277.7C449.744 277.7 449.744 277.7 449.744 277.7L417.448 258.241Z" fill="#A53900"/>
<path fill-rule="evenodd" clip-rule="evenodd" d="M417.448 338.156C391.506 322.509 363.725 322.508 337.763 338.156L334.461 317.47C362.572 300.526 392.656 300.525 420.751 317.469C420.752 317.47 420.751 317.469 420.751 317.469L453.045 336.927C479.007 352.575 506.788 352.574 532.731 336.928L565.026 317.47C565.026 317.47 565.026 317.47 565.026 317.47C593.137 300.527 623.221 300.525 651.316 317.469C651.316 317.47 651.315 317.469 651.316 317.469L683.61 336.927C709.572 352.575 737.353 352.574 763.296 336.928L795.591 317.47C795.591 317.47 795.59 317.47 795.591 317.47C823.702 300.527 853.786 300.525 881.881 317.469C881.881 317.47 881.88 317.469 881.881 317.469L914.175 336.927C940.137 352.575 967.918 352.574 993.86 336.928L1026.16 317.47C1054.27 300.526 1084.35 300.525 1112.45 317.47L1109.14 338.156C1083.2 322.509 1055.42 322.508 1029.46 338.156L997.165 357.613C997.164 357.613 997.165 357.613 997.165 357.613C969.07 374.557 938.985 374.557 910.873 357.614L878.579 338.156C852.637 322.51 824.855 322.508 798.893 338.156L766.6 357.613C738.504 374.558 708.421 374.557 680.309 357.614C680.309 357.614 680.309 357.614 680.309 357.614L648.015 338.156C622.072 322.51 594.29 322.508 568.328 338.156L536.035 357.613C507.94 374.558 477.856 374.557 449.744 357.614C449.744 357.614 449.744 357.614 449.744 357.614L417.448 338.156Z" fill="#A53900"/>
<path fill-rule="evenodd" clip-rule="evenodd" d="M417.448 418.073C391.506 402.427 363.725 402.426 337.763 418.074L334.461 397.388C362.572 380.444 392.656 380.443 420.751 397.387C420.752 397.388 420.751 397.387 420.751 397.387L453.045 416.845C479.007 432.493 506.788 432.492 532.731 416.846L565.026 397.388C565.026 397.388 565.026 397.388 565.026 397.388C593.137 380.445 623.221 380.443 651.316 397.387C651.316 397.388 651.315 397.387 651.316 397.387L683.61 416.845C709.572 432.493 737.353 432.492 763.296 416.846L795.591 397.388C795.591 397.388 795.59 397.388 795.591 397.388C823.702 380.445 853.786 380.443 881.881 397.387C881.881 397.388 881.88 397.387 881.881 397.387L914.175 416.845C940.137 432.493 967.918 432.492 993.86 416.846L1026.16 397.388C1054.27 380.444 1084.35 380.443 1112.45 397.388L1109.14 418.073C1083.2 402.427 1055.42 402.426 1029.46 418.074L997.165 437.531C997.164 437.531 997.165 437.531 997.165 437.531C969.07 454.475 938.985 454.475 910.873 437.532L878.579 418.074C852.637 402.428 824.855 402.426 798.893 418.074L766.6 437.531C738.504 454.476 708.421 454.475 680.309 437.532C680.309 437.532 680.309 437.532 680.309 437.532L648.015 418.074C622.072 402.428 594.29 402.426 568.328 418.074L536.035 437.531C507.94 454.476 477.856 454.475 449.744 437.532C449.744 437.532 449.744 437.532 449.744 437.532L417.448 418.073Z" fill="#A53900"/>
<path fill-rule="evenodd" clip-rule="evenodd" d="M417.448 497.988C391.506 482.341 363.725 482.34 337.763 497.988L334.461 477.302C362.572 460.358 392.656 460.357 420.751 477.301C420.752 477.302 420.751 477.301 420.751 477.301L453.045 496.759C479.007 512.407 506.788 512.406 532.731 496.76L565.026 477.302C565.026 477.302 565.026 477.302 565.026 477.302C593.137 460.359 623.221 460.357 651.316 477.301C651.316 477.302 651.315 477.301 651.316 477.301L683.61 496.759C709.572 512.407 737.353 512.406 763.296 496.76L795.591 477.302C795.591 477.302 795.59 477.302 795.591 477.302C823.702 460.359 853.786 460.357 881.881 477.301C881.881 477.302 881.88 477.301 881.881 477.301L914.175 496.759C940.137 512.407 967.918 512.406 993.86 496.76L1026.16 477.302C1054.27 460.358 1084.35 460.357 1112.45 477.302L1109.14 497.988C1083.2 482.341 1055.42 482.34 1029.46 497.988L997.165 517.445C997.164 517.445 997.165 517.445 997.165 517.445C969.07 534.389 938.985 534.389 910.873 517.446L878.579 497.988C852.637 482.342 824.855 482.34 798.893 497.988L766.6 517.445C738.504 534.39 708.421 534.389 680.309 517.446C680.309 517.446 680.309 517.446 680.309 517.446L648.015 497.988C622.072 482.342 594.29 482.34 568.328 497.988L536.035 517.445C507.94 534.39 477.856 534.389 449.744 517.446C449.744 517.446 449.744 517.446 449.744 517.446L417.448 497.988Z" fill="#A53900"/>
<path fill-rule="evenodd" clip-rule="evenodd" d="M-0.446634 570.107C137.378 570.107 249.107 458.378 249.107 320.553C249.107 182.729 137.378 71 -0.446634 71C-138.271 71 -250 182.729 -250 320.553C-250 458.378 -138.271 570.107 -0.446634 570.107ZM-0.446634 526.068C113.056 526.068 205.068 434.056 205.068 320.553C205.068 207.05 113.056 115.039 -0.446634 115.039C-113.949 115.039 -205.961 207.05 -205.961 320.553C-205.961 434.056 -113.949 526.068 -0.446634 526.068Z" fill="#393A3D"/>
<circle cy="326" r="113" fill="#FCA354"/>
</g>
<defs>
<clipPath id="clip0_6_1908">
<rect width="1200" height="675" fill="white"/>
</clipPath>
</defs>
</svg>
