<svg width="1184" height="666" viewBox="0 0 1184 666" fill="none" xmlns="http://www.w3.org/2000/svg">
<g clip-path="url(#clip0_1_3879)">
<rect width="1184" height="666" fill="#F4F4EF"/>
<g clip-path="url(#clip1_1_3879)" filter="url(#filter0_d_1_3879)">
<rect width="1184" height="666" fill="#F4F4EF"/>
<rect x="-57" y="39" width="996" height="571" fill="#FFD4D8"/>
<circle cx="1059.9" cy="145.897" r="23.8972" transform="rotate(90 1059.9 145.897)" fill="#A53900"/>
<circle cx="1059.9" cy="220.245" r="23.8972" transform="rotate(90 1059.9 220.245)" fill="#A53900"/>
<circle cx="1059.9" cy="294.592" r="23.8972" transform="rotate(90 1059.9 294.592)" fill="#A53900"/>
<circle cx="1059.9" cy="368.936" r="23.8972" transform="rotate(90 1059.9 368.936)" fill="#A53900"/>
<circle cx="1059.9" cy="443.284" r="23.8972" transform="rotate(90 1059.9 443.284)" fill="#A53900"/>
<circle cx="1059.9" cy="517.632" r="23.8972" transform="rotate(90 1059.9 517.632)" fill="#A53900"/>
<rect x="-613" y="33" width="1402.59" height="30.5333" fill="#393A3D"/>
<rect x="-613" y="94.0664" width="1402.59" height="30.5333" fill="#393A3D"/>
<rect x="-613" y="155.133" width="1402.59" height="30.5333" fill="#393A3D"/>
<rect x="-613" y="216.199" width="1402.59" height="30.5333" fill="#393A3D"/>
<rect x="-613" y="277.266" width="1402.59" height="30.5333" fill="#393A3D"/>
<rect x="-613" y="338.332" width="1402.59" height="30.5333" fill="#393A3D"/>
<rect x="-613" y="399.398" width="1402.59" height="30.5333" fill="#393A3D"/>
<rect x="-613" y="460.465" width="1402.59" height="30.5333" fill="#393A3D"/>
<rect x="-602" y="15" width="1402.59" height="30.5333" fill="#FCA354"/>
<rect x="-602" y="76.0664" width="1402.59" height="30.5333" fill="#FCA354"/>
<rect x="-602" y="137.133" width="1402.59" height="30.5333" fill="#FCA354"/>
<rect x="-602" y="198.199" width="1402.59" height="30.5333" fill="#FCA354"/>
<rect x="-602" y="259.266" width="1402.59" height="30.5333" fill="#FCA354"/>
<rect x="-602" y="320.332" width="1402.59" height="30.5333" fill="#FCA354"/>
<rect x="-602" y="381.398" width="1402.59" height="30.5333" fill="#FCA354"/>
<rect x="-602" y="442.465" width="1402.59" height="30.5333" fill="#FCA354"/>
</g>
</g>
<defs>
<filter id="filter0_d_1_3879" x="-16" y="-12" width="1216" height="698" filterUnits="userSpaceOnUse" color-interpolation-filters="sRGB">
<feFlood flood-opacity="0" result="BackgroundImageFix"/>
<feColorMatrix in="SourceAlpha" type="matrix" values="0 0 0 0 0 0 0 0 0 0 0 0 0 0 0 0 0 0 127 0" result="hardAlpha"/>
<feOffset dy="4"/>
<feGaussianBlur stdDeviation="8"/>
<feColorMatrix type="matrix" values="0 0 0 0 0 0 0 0 0 0 0 0 0 0 0 0 0 0 0.2 0"/>
<feBlend mode="normal" in2="BackgroundImageFix" result="effect1_dropShadow_1_3879"/>
<feBlend mode="normal" in="SourceGraphic" in2="effect1_dropShadow_1_3879" result="shape"/>
</filter>
<clipPath id="clip0_1_3879">
<rect width="1184" height="666" fill="white"/>
</clipPath>
<clipPath id="clip1_1_3879">
<rect width="1184" height="666" fill="white"/>
</clipPath>
</defs>
</svg>
