<svg width="1184" height="666" viewBox="0 0 1184 666" fill="none" xmlns="http://www.w3.org/2000/svg">
<g clip-path="url(#clip0_1_3862)">
<rect width="1184" height="666" fill="#F4F4EF"/>
<rect x="-52" y="-105" width="996" height="771" fill="#FFD4D8"/>
<path fill-rule="evenodd" clip-rule="evenodd" d="M411.881 175.949C386.284 160.511 358.874 160.51 333.258 175.949L330 155.538C357.737 138.821 387.419 138.82 415.14 155.538C415.14 155.538 415.139 155.538 415.14 155.538L447.003 174.736C472.619 190.175 500.029 190.175 525.626 174.737L557.491 155.538C557.491 155.538 557.491 155.539 557.491 155.538C585.227 138.821 614.91 138.82 642.63 155.538C642.631 155.538 642.63 155.538 642.63 155.538L674.494 174.736C700.109 190.175 727.52 190.175 753.117 174.737L784.981 155.538C784.981 155.538 784.981 155.539 784.981 155.538C812.718 138.821 842.401 138.82 870.121 155.538C870.121 155.538 870.12 155.538 870.121 155.538L901.984 174.736C927.6 190.175 955.011 190.175 980.608 174.737L1012.47 155.538C1040.21 138.821 1069.89 138.82 1097.61 155.539L1094.35 175.949C1068.76 160.511 1041.35 160.51 1015.73 175.949L983.868 195.147C983.867 195.147 983.868 195.146 983.868 195.147C956.147 211.865 926.463 211.865 898.727 195.147L866.864 175.949C841.267 160.512 813.855 160.51 788.24 175.949L756.377 195.147C728.656 211.866 698.974 211.865 671.236 195.148C671.236 195.147 671.237 195.148 671.236 195.148L639.373 175.949C613.776 160.512 586.365 160.51 560.749 175.949L528.886 195.147C501.166 211.866 471.483 211.865 443.746 195.148C443.746 195.147 443.746 195.148 443.746 195.148L411.881 175.949Z" fill="#A53900"/>
<path fill-rule="evenodd" clip-rule="evenodd" d="M411.881 254.796C386.284 239.358 358.874 239.358 333.258 254.797L330 234.386C357.737 217.669 387.419 217.668 415.14 234.386C415.14 234.386 415.139 234.386 415.14 234.386L447.003 253.584C472.619 269.023 500.029 269.023 525.626 253.585L557.491 234.386C557.491 234.386 557.491 234.386 557.491 234.386C585.227 217.669 614.91 217.668 642.63 234.386C642.631 234.386 642.63 234.386 642.63 234.386L674.494 253.584C700.109 269.023 727.52 269.023 753.117 253.585L784.981 234.386C784.981 234.386 784.981 234.386 784.981 234.386C812.718 217.669 842.401 217.668 870.121 234.386C870.121 234.386 870.12 234.386 870.121 234.386L901.984 253.584C927.6 269.023 955.011 269.023 980.608 253.585L1012.47 234.386C1040.21 217.668 1069.89 217.668 1097.61 234.387L1094.35 254.796C1068.76 239.358 1041.35 239.358 1015.73 254.797L983.868 273.994C983.867 273.995 983.868 273.994 983.868 273.994C956.147 290.712 926.463 290.712 898.727 273.995L866.864 254.797C841.267 239.359 813.855 239.358 788.24 254.797L756.377 273.994C728.656 290.713 698.974 290.713 671.236 273.995C671.236 273.995 671.237 273.995 671.236 273.995L639.373 254.797C613.776 239.359 586.365 239.358 560.749 254.797L528.886 273.994C501.166 290.713 471.483 290.713 443.746 273.995C443.746 273.995 443.746 273.995 443.746 273.995L411.881 254.796Z" fill="#A53900"/>
<path fill-rule="evenodd" clip-rule="evenodd" d="M411.881 333.648C386.284 318.21 358.874 318.209 333.258 333.648L330 313.238C357.737 296.52 387.419 296.519 415.14 313.237C415.14 313.238 415.139 313.237 415.14 313.237L447.003 332.436C472.619 347.875 500.029 347.874 525.626 332.436L557.491 313.238C557.491 313.238 557.491 313.238 557.491 313.238C585.227 296.521 614.91 296.519 642.63 313.237C642.631 313.238 642.63 313.237 642.63 313.237L674.494 332.436C700.109 347.875 727.52 347.874 753.117 332.436L784.981 313.238C784.981 313.238 784.981 313.238 784.981 313.238C812.718 296.521 842.401 296.519 870.121 313.237C870.121 313.238 870.12 313.237 870.121 313.237L901.984 332.436C927.6 347.875 955.011 347.874 980.608 332.436L1012.47 313.238C1040.21 296.52 1069.89 296.519 1097.61 313.238L1094.35 333.648C1068.76 318.21 1041.35 318.209 1015.73 333.648L983.868 352.846C983.867 352.846 983.868 352.846 983.868 352.846C956.147 369.564 926.463 369.564 898.727 352.847L866.864 333.649C841.267 318.211 813.855 318.209 788.24 333.648L756.377 352.846C728.656 369.565 698.974 369.564 671.236 352.847C671.236 352.847 671.237 352.847 671.236 352.847L639.373 333.649C613.776 318.211 586.365 318.209 560.749 333.648L528.886 352.846C501.166 369.565 471.483 369.564 443.746 352.847C443.746 352.847 443.746 352.847 443.746 352.847L411.881 333.648Z" fill="#A53900"/>
<path fill-rule="evenodd" clip-rule="evenodd" d="M411.881 412.495C386.284 397.058 358.874 397.057 333.258 412.496L330 392.085C357.737 375.368 387.419 375.367 415.14 392.085C415.14 392.085 415.139 392.085 415.14 392.085L447.003 411.283C472.619 426.722 500.029 426.722 525.626 411.284L557.491 392.085C557.491 392.085 557.491 392.085 557.491 392.085C585.227 375.368 614.91 375.367 642.63 392.085C642.631 392.085 642.63 392.085 642.63 392.085L674.494 411.283C700.109 426.722 727.52 426.722 753.117 411.284L784.981 392.085C784.981 392.085 784.981 392.085 784.981 392.085C812.718 375.368 842.401 375.367 870.121 392.085C870.121 392.085 870.12 392.085 870.121 392.085L901.984 411.283C927.6 426.722 955.011 426.722 980.608 411.284L1012.47 392.085C1040.21 375.368 1069.89 375.367 1097.61 392.086L1094.35 412.495C1068.76 397.058 1041.35 397.057 1015.73 412.496L983.868 431.694C983.867 431.694 983.868 431.693 983.868 431.694C956.147 448.412 926.463 448.412 898.727 431.694L866.864 412.496C841.267 397.058 813.855 397.057 788.24 412.496L756.377 431.694C728.656 448.412 698.974 448.412 671.236 431.694C671.236 431.694 671.237 431.695 671.236 431.694L639.373 412.496C613.776 397.058 586.365 397.057 560.749 412.496L528.886 431.694C501.166 448.412 471.483 448.412 443.746 431.694C443.746 431.694 443.746 431.695 443.746 431.694L411.881 412.495Z" fill="#A53900"/>
<path fill-rule="evenodd" clip-rule="evenodd" d="M411.881 491.347C386.284 475.909 358.874 475.909 333.258 491.348L330 470.937C357.737 454.219 387.419 454.219 415.14 470.937C415.14 470.937 415.139 470.936 415.14 470.937L447.003 490.135C472.619 505.574 500.029 505.574 525.626 490.136L557.491 470.937C557.491 470.937 557.491 470.937 557.491 470.937C585.227 454.22 614.91 454.219 642.63 470.937C642.631 470.937 642.63 470.936 642.63 470.937L674.494 490.135C700.109 505.574 727.52 505.574 753.117 490.136L784.981 470.937C784.981 470.937 784.981 470.937 784.981 470.937C812.718 454.22 842.401 454.219 870.121 470.937C870.121 470.937 870.12 470.936 870.121 470.937L901.984 490.135C927.6 505.574 955.011 505.574 980.608 490.136L1012.47 470.937C1040.21 454.219 1069.89 454.219 1097.61 470.938L1094.35 491.347C1068.76 475.909 1041.35 475.909 1015.73 491.348L983.868 510.545C983.867 510.545 983.868 510.545 983.868 510.545C956.147 527.263 926.463 527.263 898.727 510.546L866.864 491.348C841.267 475.91 813.855 475.909 788.24 491.348L756.377 510.545C728.656 527.264 698.974 527.264 671.236 510.546C671.236 510.546 671.237 510.546 671.236 510.546L639.373 491.348C613.776 475.91 586.365 475.909 560.749 491.348L528.886 510.545C501.166 527.264 471.483 527.264 443.746 510.546C443.746 510.546 443.746 510.546 443.746 510.546L411.881 491.347Z" fill="#A53900"/>
<path fill-rule="evenodd" clip-rule="evenodd" d="M-0.446634 570.107C137.378 570.107 249.107 458.378 249.107 320.553C249.107 182.729 137.378 71 -0.446634 71C-138.271 71 -250 182.729 -250 320.553C-250 458.378 -138.271 570.107 -0.446634 570.107ZM-0.446634 526.068C113.056 526.068 205.068 434.056 205.068 320.553C205.068 207.05 113.056 115.039 -0.446634 115.039C-113.949 115.039 -205.961 207.05 -205.961 320.553C-205.961 434.056 -113.949 526.068 -0.446634 526.068Z" fill="#393A3D"/>
<circle cy="321" r="113" fill="#FCA354"/>
</g>
<defs>
<clipPath id="clip0_1_3862">
<rect width="1184" height="666" fill="white"/>
</clipPath>
</defs>
</svg>
