<svg width="1184" height="666" viewBox="0 0 1184 666" fill="none" xmlns="http://www.w3.org/2000/svg">
<g clip-path="url(#clip0_1_3814)">
<rect width="1184" height="666" fill="#F4F4EF"/>
<rect width="996" height="559" fill="#FFD4D8"/>
<path d="M961 338C907.981 338 865 380.981 865 434C865 487.019 907.981 530 961 530L961 492.353C928.773 492.353 902.647 466.227 902.647 434C902.647 401.773 928.773 375.647 961 375.647L961 338Z" fill="#393A3D"/>
<path d="M961 106C907.981 106 865 148.981 865 202C865 255.019 907.981 298 961 298L961 260.353C928.773 260.353 902.647 234.227 902.647 202C902.647 169.773 928.773 143.647 961 143.647L961 106Z" fill="#393A3D"/>
<path d="M961 570C907.981 570 865 612.981 865 666C865 719.019 907.981 762 961 762L961 724.353C928.773 724.353 902.647 698.227 902.647 666C902.647 633.773 928.773 607.647 961 607.647L961 570Z" fill="#393A3D"/>
<path d="M961 -126C907.981 -126 865 -83.0193 865 -30C865 23.0193 907.981 66 961 66L961 28.3529C928.773 28.3529 902.647 2.22748 902.647 -30C902.647 -62.2275 928.773 -88.3529 961 -88.3529L961 -126Z" fill="#393A3D"/>
<path d="M1027 221C1080.02 221 1123 178.019 1123 125C1123 71.9807 1080.02 29 1027 29L1027 66.6471C1059.23 66.6471 1085.35 92.7725 1085.35 125C1085.35 157.227 1059.23 183.353 1027 183.353L1027 221Z" fill="#FCA354"/>
<path d="M1027 453C1080.02 453 1123 410.019 1123 357C1123 303.981 1080.02 261 1027 261L1027 298.647C1059.23 298.647 1085.35 324.773 1085.35 357C1085.35 389.227 1059.23 415.353 1027 415.353L1027 453Z" fill="#FCA354"/>
<path d="M1027 685C1080.02 685 1123 642.019 1123 589C1123 535.981 1080.02 493 1027 493L1027 530.647C1059.23 530.647 1085.35 556.773 1085.35 589C1085.35 621.227 1059.23 647.353 1027 647.353L1027 685Z" fill="#FCA354"/>
<path d="M1019 232C1072.02 232 1115 189.019 1115 136C1115 82.9807 1072.02 40 1019 40L1019 77.6471C1051.23 77.6471 1077.35 103.773 1077.35 136C1077.35 168.227 1051.23 194.353 1019 194.353L1019 232Z" fill="#393A3D"/>
<path d="M1019 464C1072.02 464 1115 421.019 1115 368C1115 314.981 1072.02 272 1019 272L1019 309.647C1051.23 309.647 1077.35 335.773 1077.35 368C1077.35 400.227 1051.23 426.353 1019 426.353L1019 464Z" fill="#393A3D"/>
<path d="M1019 696C1072.02 696 1115 653.019 1115 600C1115 546.981 1072.02 504 1019 504L1019 541.647C1051.23 541.647 1077.35 567.773 1077.35 600C1077.35 632.227 1051.23 658.353 1019 658.353L1019 696Z" fill="#393A3D"/>
<path fill-rule="evenodd" clip-rule="evenodd" d="M-188.119 90.9485C-213.716 75.5107 -241.126 75.5101 -266.742 90.9491L-270 70.5385C-242.263 53.821 -212.581 53.8201 -184.86 70.5382C-184.86 70.5385 -184.861 70.5379 -184.86 70.5382L-152.997 89.7363C-127.381 105.175 -99.9705 105.175 -74.3738 89.7372L-42.5093 70.5385C-42.5092 70.5384 -42.5095 70.5386 -42.5093 70.5385C-14.7728 53.8213 14.9099 53.8202 42.6302 70.5382C42.6307 70.5385 42.6297 70.5379 42.6302 70.5382L74.4937 89.7363C100.109 105.175 127.52 105.175 153.117 89.7372L184.981 70.5385C184.981 70.5384 184.981 70.5386 184.981 70.5385C212.718 53.8213 242.401 53.8202 270.121 70.5382C270.121 70.5385 270.12 70.5379 270.121 70.5382L301.984 89.7363C327.6 105.175 355.011 105.175 380.608 89.7372L412.472 70.5385C440.209 53.8207 469.892 53.8201 497.613 70.5391L494.353 90.9485C468.756 75.5107 441.346 75.5101 415.73 90.9491L383.868 110.147C383.867 110.147 383.868 110.146 383.868 110.147C356.147 126.865 326.463 126.865 298.727 110.147L266.864 90.9494C241.267 75.5116 213.855 75.5101 188.24 90.9491L156.377 110.147C128.656 126.866 98.9736 126.865 71.2365 110.148C71.2363 110.147 71.2367 110.148 71.2365 110.148L39.373 90.9494C13.7763 75.5116 -13.6355 75.5101 -39.2511 90.9491L-71.1136 110.147C-98.8343 126.866 -128.517 126.865 -156.254 110.148C-156.254 110.147 -156.254 110.148 -156.254 110.148L-188.119 90.9485Z" fill="#A53900"/>
<path fill-rule="evenodd" clip-rule="evenodd" d="M-188.119 169.796C-213.716 154.358 -241.126 154.358 -266.742 169.797L-270 149.386C-242.263 132.669 -212.581 132.668 -184.86 149.386C-184.86 149.386 -184.861 149.386 -184.86 149.386L-152.997 168.584C-127.381 184.023 -99.9705 184.023 -74.3738 168.585L-42.5093 149.386C-42.5092 149.386 -42.5095 149.386 -42.5093 149.386C-14.7728 132.669 14.9099 132.668 42.6302 149.386C42.6307 149.386 42.6297 149.386 42.6302 149.386L74.4937 168.584C100.109 184.023 127.52 184.023 153.117 168.585L184.981 149.386C184.981 149.386 184.981 149.386 184.981 149.386C212.718 132.669 242.401 132.668 270.121 149.386C270.121 149.386 270.12 149.386 270.121 149.386L301.984 168.584C327.6 184.023 355.011 184.023 380.608 168.585L412.472 149.386C440.209 132.668 469.892 132.668 497.613 149.387L494.353 169.796C468.756 154.358 441.346 154.358 415.73 169.797L383.868 188.994C383.867 188.995 383.868 188.994 383.868 188.994C356.147 205.712 326.463 205.712 298.727 188.995L266.864 169.797C241.267 154.359 213.855 154.358 188.24 169.797L156.377 188.994C128.656 205.713 98.9736 205.713 71.2365 188.995C71.2363 188.995 71.2367 188.995 71.2365 188.995L39.373 169.797C13.7763 154.359 -13.6355 154.358 -39.2511 169.797L-71.1136 188.994C-98.8343 205.713 -128.517 205.713 -156.254 188.995C-156.254 188.995 -156.254 188.995 -156.254 188.995L-188.119 169.796Z" fill="#A53900"/>
<path fill-rule="evenodd" clip-rule="evenodd" d="M-188.119 248.648C-213.716 233.21 -241.126 233.209 -266.742 248.648L-270 228.238C-242.263 211.52 -212.581 211.519 -184.86 228.237C-184.86 228.238 -184.861 228.237 -184.86 228.237L-152.997 247.436C-127.381 262.875 -99.9705 262.874 -74.3738 247.436L-42.5093 228.238C-42.5092 228.238 -42.5095 228.238 -42.5093 228.238C-14.7728 211.521 14.9099 211.519 42.6302 228.237C42.6307 228.238 42.6297 228.237 42.6302 228.237L74.4937 247.436C100.109 262.875 127.52 262.874 153.117 247.436L184.981 228.238C184.981 228.238 184.981 228.238 184.981 228.238C212.718 211.521 242.401 211.519 270.121 228.237C270.121 228.238 270.12 228.237 270.121 228.237L301.984 247.436C327.6 262.875 355.011 262.874 380.608 247.436L412.472 228.238C440.209 211.52 469.892 211.519 497.613 228.238L494.353 248.648C468.756 233.21 441.346 233.209 415.73 248.648L383.868 267.846C383.867 267.846 383.868 267.846 383.868 267.846C356.147 284.564 326.463 284.564 298.727 267.847L266.864 248.649C241.267 233.211 213.855 233.209 188.24 248.648L156.377 267.846C128.656 284.565 98.9736 284.564 71.2365 267.847C71.2363 267.847 71.2367 267.847 71.2365 267.847L39.373 248.649C13.7763 233.211 -13.6355 233.209 -39.2511 248.648L-71.1136 267.846C-98.8343 284.565 -128.517 284.564 -156.254 267.847C-156.254 267.847 -156.254 267.847 -156.254 267.847L-188.119 248.648Z" fill="#A53900"/>
<path fill-rule="evenodd" clip-rule="evenodd" d="M-188.119 327.495C-213.716 312.058 -241.126 312.057 -266.742 327.496L-270 307.085C-242.263 290.368 -212.581 290.367 -184.86 307.085C-184.86 307.085 -184.861 307.085 -184.86 307.085L-152.997 326.283C-127.381 341.722 -99.9705 341.722 -74.3738 326.284L-42.5093 307.085C-42.5092 307.085 -42.5095 307.085 -42.5093 307.085C-14.7728 290.368 14.9099 290.367 42.6302 307.085C42.6307 307.085 42.6297 307.085 42.6302 307.085L74.4937 326.283C100.109 341.722 127.52 341.722 153.117 326.284L184.981 307.085C184.981 307.085 184.981 307.085 184.981 307.085C212.718 290.368 242.401 290.367 270.121 307.085C270.121 307.085 270.12 307.085 270.121 307.085L301.984 326.283C327.6 341.722 355.011 341.722 380.608 326.284L412.472 307.085C440.209 290.368 469.892 290.367 497.613 307.086L494.353 327.495C468.756 312.058 441.346 312.057 415.73 327.496L383.868 346.694C383.867 346.694 383.868 346.693 383.868 346.694C356.147 363.412 326.463 363.412 298.727 346.694L266.864 327.496C241.267 312.058 213.855 312.057 188.24 327.496L156.377 346.694C128.656 363.412 98.9736 363.412 71.2365 346.694C71.2363 346.694 71.2367 346.695 71.2365 346.694L39.373 327.496C13.7763 312.058 -13.6355 312.057 -39.2511 327.496L-71.1136 346.694C-98.8343 363.412 -128.517 363.412 -156.254 346.694C-156.254 346.694 -156.254 346.695 -156.254 346.694L-188.119 327.495Z" fill="#A53900"/>
<path fill-rule="evenodd" clip-rule="evenodd" d="M-188.119 406.347C-213.716 390.909 -241.126 390.909 -266.742 406.348L-270 385.937C-242.263 369.219 -212.581 369.219 -184.86 385.937C-184.86 385.937 -184.861 385.936 -184.86 385.937L-152.997 405.135C-127.381 420.574 -99.9705 420.574 -74.3738 405.136L-42.5093 385.937C-42.5092 385.937 -42.5095 385.937 -42.5093 385.937C-14.7728 369.22 14.9099 369.219 42.6302 385.937C42.6307 385.937 42.6297 385.936 42.6302 385.937L74.4937 405.135C100.109 420.574 127.52 420.574 153.117 405.136L184.981 385.937C184.981 385.937 184.981 385.937 184.981 385.937C212.718 369.22 242.401 369.219 270.121 385.937C270.121 385.937 270.12 385.936 270.121 385.937L301.984 405.135C327.6 420.574 355.011 420.574 380.608 405.136L412.472 385.937C440.209 369.219 469.892 369.219 497.613 385.938L494.353 406.347C468.756 390.909 441.346 390.909 415.73 406.348L383.868 425.545C383.867 425.545 383.868 425.545 383.868 425.545C356.147 442.263 326.463 442.263 298.727 425.546L266.864 406.348C241.267 390.91 213.855 390.909 188.24 406.348L156.377 425.545C128.656 442.264 98.9736 442.264 71.2365 425.546C71.2363 425.546 71.2367 425.546 71.2365 425.546L39.373 406.348C13.7763 390.91 -13.6355 390.909 -39.2511 406.348L-71.1136 425.545C-98.8343 442.264 -128.517 442.264 -156.254 425.546C-156.254 425.546 -156.254 425.546 -156.254 425.546L-188.119 406.347Z" fill="#A53900"/>
<path fill-rule="evenodd" clip-rule="evenodd" d="M-188.119 106.949C-213.716 91.5107 -241.126 91.5101 -266.742 106.949L-270 86.5385C-242.263 69.821 -212.581 69.8201 -184.86 86.5382C-184.86 86.5385 -184.861 86.5379 -184.86 86.5382L-152.997 105.736C-127.381 121.175 -99.9705 121.175 -74.3738 105.737L-42.5093 86.5385C-42.5092 86.5384 -42.5095 86.5386 -42.5093 86.5385C-14.7728 69.8213 14.9099 69.8202 42.6302 86.5382C42.6307 86.5385 42.6297 86.5379 42.6302 86.5382L74.4937 105.736C100.109 121.175 127.52 121.175 153.117 105.737L184.981 86.5385C184.981 86.5384 184.981 86.5386 184.981 86.5385C212.718 69.8213 242.401 69.8202 270.121 86.5382C270.121 86.5385 270.12 86.5379 270.121 86.5382L301.984 105.736C327.6 121.175 355.011 121.175 380.608 105.737L412.472 86.5385C440.209 69.8207 469.892 69.8201 497.613 86.5391L494.353 106.949C468.756 91.5107 441.346 91.5101 415.73 106.949L383.868 126.147C383.867 126.147 383.868 126.146 383.868 126.147C356.147 142.865 326.463 142.865 298.727 126.147L266.864 106.949C241.267 91.5116 213.855 91.5101 188.24 106.949L156.377 126.147C128.656 142.866 98.9736 142.865 71.2365 126.148C71.2363 126.147 71.2367 126.148 71.2365 126.148L39.373 106.949C13.7763 91.5116 -13.6355 91.5101 -39.2511 106.949L-71.1136 126.147C-98.8343 142.866 -128.517 142.865 -156.254 126.148C-156.254 126.147 -156.254 126.148 -156.254 126.148L-188.119 106.949Z" fill="#F4F4EF"/>
<path fill-rule="evenodd" clip-rule="evenodd" d="M-188.119 185.796C-213.716 170.358 -241.126 170.358 -266.742 185.797L-270 165.386C-242.263 148.669 -212.581 148.668 -184.86 165.386C-184.86 165.386 -184.861 165.386 -184.86 165.386L-152.997 184.584C-127.381 200.023 -99.9705 200.023 -74.3738 184.585L-42.5093 165.386C-42.5092 165.386 -42.5095 165.386 -42.5093 165.386C-14.7728 148.669 14.9099 148.668 42.6302 165.386C42.6307 165.386 42.6297 165.386 42.6302 165.386L74.4937 184.584C100.109 200.023 127.52 200.023 153.117 184.585L184.981 165.386C184.981 165.386 184.981 165.386 184.981 165.386C212.718 148.669 242.401 148.668 270.121 165.386C270.121 165.386 270.12 165.386 270.121 165.386L301.984 184.584C327.6 200.023 355.011 200.023 380.608 184.585L412.472 165.386C440.209 148.668 469.892 148.668 497.613 165.387L494.353 185.796C468.756 170.358 441.346 170.358 415.73 185.797L383.868 204.994C383.867 204.995 383.868 204.994 383.868 204.994C356.147 221.712 326.463 221.712 298.727 204.995L266.864 185.797C241.267 170.359 213.855 170.358 188.24 185.797L156.377 204.994C128.656 221.713 98.9736 221.713 71.2365 204.995C71.2363 204.995 71.2367 204.995 71.2365 204.995L39.373 185.797C13.7763 170.359 -13.6355 170.358 -39.2511 185.797L-71.1136 204.994C-98.8343 221.713 -128.517 221.713 -156.254 204.995C-156.254 204.995 -156.254 204.995 -156.254 204.995L-188.119 185.796Z" fill="#F4F4EF"/>
<path fill-rule="evenodd" clip-rule="evenodd" d="M-188.119 264.648C-213.716 249.21 -241.126 249.209 -266.742 264.648L-270 244.238C-242.263 227.52 -212.581 227.519 -184.86 244.237C-184.86 244.238 -184.861 244.237 -184.86 244.237L-152.997 263.436C-127.381 278.875 -99.9705 278.874 -74.3738 263.436L-42.5093 244.238C-42.5092 244.238 -42.5095 244.238 -42.5093 244.238C-14.7728 227.521 14.9099 227.519 42.6302 244.237C42.6307 244.238 42.6297 244.237 42.6302 244.237L74.4937 263.436C100.109 278.875 127.52 278.874 153.117 263.436L184.981 244.238C184.981 244.238 184.981 244.238 184.981 244.238C212.718 227.521 242.401 227.519 270.121 244.237C270.121 244.238 270.12 244.237 270.121 244.237L301.984 263.436C327.6 278.875 355.011 278.874 380.608 263.436L412.472 244.238C440.209 227.52 469.892 227.519 497.613 244.238L494.353 264.648C468.756 249.21 441.346 249.209 415.73 264.648L383.868 283.846C383.867 283.846 383.868 283.846 383.868 283.846C356.147 300.564 326.463 300.564 298.727 283.847L266.864 264.649C241.267 249.211 213.855 249.209 188.24 264.648L156.377 283.846C128.656 300.565 98.9736 300.564 71.2365 283.847C71.2363 283.847 71.2367 283.847 71.2365 283.847L39.373 264.649C13.7763 249.211 -13.6355 249.209 -39.2511 264.648L-71.1136 283.846C-98.8343 300.565 -128.517 300.564 -156.254 283.847C-156.254 283.847 -156.254 283.847 -156.254 283.847L-188.119 264.648Z" fill="#F4F4EF"/>
<path fill-rule="evenodd" clip-rule="evenodd" d="M-188.119 343.495C-213.716 328.058 -241.126 328.057 -266.742 343.496L-270 323.085C-242.263 306.368 -212.581 306.367 -184.86 323.085C-184.86 323.085 -184.861 323.085 -184.86 323.085L-152.997 342.283C-127.381 357.722 -99.9705 357.722 -74.3738 342.284L-42.5093 323.085C-42.5092 323.085 -42.5095 323.085 -42.5093 323.085C-14.7728 306.368 14.9099 306.367 42.6302 323.085C42.6307 323.085 42.6297 323.085 42.6302 323.085L74.4937 342.283C100.109 357.722 127.52 357.722 153.117 342.284L184.981 323.085C184.981 323.085 184.981 323.085 184.981 323.085C212.718 306.368 242.401 306.367 270.121 323.085C270.121 323.085 270.12 323.085 270.121 323.085L301.984 342.283C327.6 357.722 355.011 357.722 380.608 342.284L412.472 323.085C440.209 306.368 469.892 306.367 497.613 323.086L494.353 343.495C468.756 328.058 441.346 328.057 415.73 343.496L383.868 362.694C383.867 362.694 383.868 362.693 383.868 362.694C356.147 379.412 326.463 379.412 298.727 362.694L266.864 343.496C241.267 328.058 213.855 328.057 188.24 343.496L156.377 362.694C128.656 379.412 98.9736 379.412 71.2365 362.694C71.2363 362.694 71.2367 362.695 71.2365 362.694L39.373 343.496C13.7763 328.058 -13.6355 328.057 -39.2511 343.496L-71.1136 362.694C-98.8343 379.412 -128.517 379.412 -156.254 362.694C-156.254 362.694 -156.254 362.695 -156.254 362.694L-188.119 343.495Z" fill="#F4F4EF"/>
<path fill-rule="evenodd" clip-rule="evenodd" d="M-188.119 422.347C-213.716 406.909 -241.126 406.909 -266.742 422.348L-270 401.937C-242.263 385.219 -212.581 385.219 -184.86 401.937C-184.86 401.937 -184.861 401.936 -184.86 401.937L-152.997 421.135C-127.381 436.574 -99.9705 436.574 -74.3738 421.136L-42.5093 401.937C-42.5092 401.937 -42.5095 401.937 -42.5093 401.937C-14.7728 385.22 14.9099 385.219 42.6302 401.937C42.6307 401.937 42.6297 401.936 42.6302 401.937L74.4937 421.135C100.109 436.574 127.52 436.574 153.117 421.136L184.981 401.937C184.981 401.937 184.981 401.937 184.981 401.937C212.718 385.22 242.401 385.219 270.121 401.937C270.121 401.937 270.12 401.936 270.121 401.937L301.984 421.135C327.6 436.574 355.011 436.574 380.608 421.136L412.472 401.937C440.209 385.219 469.892 385.219 497.613 401.938L494.353 422.347C468.756 406.909 441.346 406.909 415.73 422.348L383.868 441.545C383.867 441.545 383.868 441.545 383.868 441.545C356.147 458.263 326.463 458.263 298.727 441.546L266.864 422.348C241.267 406.91 213.855 406.909 188.24 422.348L156.377 441.545C128.656 458.264 98.9736 458.264 71.2365 441.546C71.2363 441.546 71.2367 441.546 71.2365 441.546L39.373 422.348C13.7763 406.91 -13.6355 406.909 -39.2511 422.348L-71.1136 441.545C-98.8343 458.264 -128.517 458.264 -156.254 441.546C-156.254 441.546 -156.254 441.546 -156.254 441.546L-188.119 422.347Z" fill="#F4F4EF"/>
<path d="M973 349C919.981 349 877 391.981 877 445C877 498.019 919.981 541 973 541L973 503.353C940.773 503.353 914.647 477.227 914.647 445C914.647 412.773 940.773 386.647 973 386.647L973 349Z" fill="#FCA354"/>
<path d="M973 117C919.981 117 877 159.981 877 213C877 266.019 919.981 309 973 309L973 271.353C940.773 271.353 914.647 245.227 914.647 213C914.647 180.773 940.773 154.647 973 154.647L973 117Z" fill="#FCA354"/>
<path d="M973 -115C919.981 -115 877 -72.0193 877 -19C877 34.0193 919.981 77 973 77L973 39.3529C940.773 39.3529 914.647 13.2275 914.647 -19C914.647 -51.2275 940.773 -77.3529 973 -77.3529L973 -115Z" fill="#FCA354"/>
<path d="M973 581C919.981 581 877 623.981 877 677C877 730.019 919.981 773 973 773L973 735.353C940.773 735.353 914.647 709.227 914.647 677C914.647 644.773 940.773 618.647 973 618.647L973 581Z" fill="#FCA354"/>
<circle cx="687.084" cy="623.389" r="36.0838" transform="rotate(-90 687.084 623.389)" fill="#A53900"/>
<circle cx="687.084" cy="511.127" r="36.0838" transform="rotate(-90 687.084 511.127)" fill="#A53900"/>
<circle cx="687.084" cy="398.869" r="36.0838" transform="rotate(-90 687.084 398.869)" fill="#A53900"/>
<circle cx="687.084" cy="286.608" r="36.0838" transform="rotate(-90 687.084 286.608)" fill="#A53900"/>
<circle cx="687.084" cy="174.346" r="36.0838" transform="rotate(-90 687.084 174.346)" fill="#A53900"/>
<circle cx="687.084" cy="62.0841" r="36.0838" transform="rotate(-90 687.084 62.0841)" fill="#A53900"/>
</g>
<defs>
<clipPath id="clip0_1_3814">
<rect width="1184" height="666" fill="white"/>
</clipPath>
</defs>
</svg>
