<svg width="1200" height="675" viewBox="0 0 1200 675" fill="none" xmlns="http://www.w3.org/2000/svg">
<g clip-path="url(#clip0_6_1758)">
<rect width="1200" height="675" fill="#F4F4EF"/>
<rect width="996" height="571" fill="#FFD4D8"/>
<path d="M961 338C907.981 338 865 380.981 865 434C865 487.019 907.981 530 961 530L961 492.353C928.773 492.353 902.647 466.227 902.647 434C902.647 401.773 928.773 375.647 961 375.647L961 338Z" fill="#393A3D"/>
<path d="M961 106C907.981 106 865 148.981 865 202C865 255.019 907.981 298 961 298L961 260.353C928.773 260.353 902.647 234.227 902.647 202C902.647 169.773 928.773 143.647 961 143.647L961 106Z" fill="#393A3D"/>
<path d="M961 570C907.981 570 865 612.981 865 666C865 719.019 907.981 762 961 762L961 724.353C928.773 724.353 902.647 698.227 902.647 666C902.647 633.773 928.773 607.647 961 607.647L961 570Z" fill="#393A3D"/>
<path d="M961 -126C907.981 -126 865 -83.0193 865 -30C865 23.0193 907.981 66 961 66L961 28.3529C928.773 28.3529 902.647 2.22748 902.647 -30C902.647 -62.2275 928.773 -88.3529 961 -88.3529L961 -126Z" fill="#393A3D"/>
<path d="M1027 221C1080.02 221 1123 178.019 1123 125C1123 71.9807 1080.02 29 1027 29L1027 66.6471C1059.23 66.6471 1085.35 92.7725 1085.35 125C1085.35 157.227 1059.23 183.353 1027 183.353L1027 221Z" fill="#FCA354"/>
<path d="M1027 453C1080.02 453 1123 410.019 1123 357C1123 303.981 1080.02 261 1027 261L1027 298.647C1059.23 298.647 1085.35 324.773 1085.35 357C1085.35 389.227 1059.23 415.353 1027 415.353L1027 453Z" fill="#FCA354"/>
<path d="M1027 685C1080.02 685 1123 642.019 1123 589C1123 535.981 1080.02 493 1027 493L1027 530.647C1059.23 530.647 1085.35 556.773 1085.35 589C1085.35 621.227 1059.23 647.353 1027 647.353L1027 685Z" fill="#FCA354"/>
<path d="M1019 232C1072.02 232 1115 189.019 1115 136C1115 82.9807 1072.02 40 1019 40L1019 77.6471C1051.23 77.6471 1077.35 103.773 1077.35 136C1077.35 168.227 1051.23 194.353 1019 194.353L1019 232Z" fill="#393A3D"/>
<path d="M1019 464C1072.02 464 1115 421.019 1115 368C1115 314.981 1072.02 272 1019 272L1019 309.647C1051.23 309.647 1077.35 335.773 1077.35 368C1077.35 400.227 1051.23 426.353 1019 426.353L1019 464Z" fill="#393A3D"/>
<path d="M1019 696C1072.02 696 1115 653.019 1115 600C1115 546.981 1072.02 504 1019 504L1019 541.647C1051.23 541.647 1077.35 567.773 1077.35 600C1077.35 632.227 1051.23 658.353 1019 658.353L1019 696Z" fill="#393A3D"/>
<path fill-rule="evenodd" clip-rule="evenodd" d="M-190.661 92.179C-216.604 76.5325 -244.384 76.5318 -270.346 92.1796L-273.648 71.4931C-245.537 54.5497 -215.453 54.5488 -187.358 71.4928C-187.358 71.4931 -187.359 71.4925 -187.358 71.4928L-155.064 90.9504C-129.102 106.598 -101.321 106.598 -75.3787 90.9513L-43.0836 71.4931C-43.0834 71.493 -43.0837 71.4932 -43.0836 71.4931C-14.9722 54.55 15.1116 54.5489 43.2065 71.4928C43.207 71.4931 43.206 71.4925 43.2065 71.4928L75.5006 90.9504C101.462 106.598 129.244 106.598 155.186 90.9513L187.481 71.4931C187.481 71.493 187.481 71.4932 187.481 71.4931C215.593 54.55 245.676 54.5488 273.771 71.4928C273.772 71.4931 273.771 71.4925 273.771 71.4928L306.065 90.9504C332.027 106.598 359.808 106.598 385.751 90.9513L418.046 71.4931C446.158 54.5494 476.242 54.5488 504.338 71.4937L501.034 92.179C475.091 76.5325 447.31 76.5318 421.348 92.1796L389.055 111.637C389.055 111.637 389.056 111.636 389.055 111.637C360.96 128.581 330.875 128.581 302.764 111.637L270.47 92.1799C244.528 76.5334 216.745 76.5318 190.784 92.1796L158.49 111.637C130.395 128.581 100.311 128.581 72.1994 111.637C72.1992 111.637 72.1995 111.638 72.1994 111.637L39.9053 92.1799C13.9627 76.5334 -13.8195 76.5318 -39.7813 92.1796L-72.0744 111.637C-100.17 128.581 -130.254 128.581 -158.365 111.637C-158.366 111.637 -158.365 111.638 -158.365 111.637L-190.661 92.179Z" fill="#A53900"/>
<path fill-rule="evenodd" clip-rule="evenodd" d="M-190.661 172.093C-216.604 156.447 -244.384 156.446 -270.346 172.094L-273.648 151.407C-245.537 134.464 -215.453 134.463 -187.358 151.407C-187.358 151.407 -187.359 151.407 -187.358 151.407L-155.064 170.864C-129.102 186.512 -101.321 186.512 -75.3787 170.865L-43.0836 151.407C-43.0834 151.407 -43.0837 151.407 -43.0836 151.407C-14.9722 134.464 15.1116 134.463 43.2065 151.407C43.207 151.407 43.206 151.407 43.2065 151.407L75.5006 170.864C101.462 186.512 129.244 186.512 155.186 170.865L187.481 151.407C187.481 151.407 187.481 151.407 187.481 151.407C215.593 134.464 245.676 134.463 273.771 151.407C273.772 151.407 273.771 151.407 273.771 151.407L306.065 170.864C332.027 186.512 359.808 186.512 385.751 170.865L418.046 151.407C446.158 134.463 476.242 134.463 504.338 151.408L501.034 172.093C475.091 156.447 447.31 156.446 421.348 172.094L389.055 191.551C389.055 191.551 389.056 191.55 389.055 191.551C360.96 208.495 330.875 208.495 302.764 191.551L270.47 172.094C244.528 156.447 216.745 156.446 190.784 172.094L158.49 191.551C130.395 208.495 100.311 208.495 72.1994 191.552C72.1992 191.551 72.1995 191.552 72.1994 191.552L39.9053 172.094C13.9627 156.447 -13.8195 156.446 -39.7813 172.094L-72.0744 191.551C-100.17 208.495 -130.254 208.495 -158.365 191.552C-158.366 191.551 -158.365 191.552 -158.365 191.552L-190.661 172.093Z" fill="#A53900"/>
<path fill-rule="evenodd" clip-rule="evenodd" d="M-190.661 252.007C-216.604 236.361 -244.384 236.36 -270.346 252.008L-273.648 231.321C-245.537 214.378 -215.453 214.377 -187.358 231.321C-187.358 231.321 -187.359 231.321 -187.358 231.321L-155.064 250.778C-129.102 266.426 -101.321 266.426 -75.3787 250.779L-43.0836 231.321C-43.0834 231.321 -43.0837 231.321 -43.0836 231.321C-14.9722 214.378 15.1116 214.377 43.2065 231.321C43.207 231.321 43.206 231.321 43.2065 231.321L75.5006 250.778C101.462 266.426 129.244 266.426 155.186 250.779L187.481 231.321C187.481 231.321 187.481 231.321 187.481 231.321C215.593 214.378 245.676 214.377 273.771 231.321C273.772 231.321 273.771 231.321 273.771 231.321L306.065 250.778C332.027 266.426 359.808 266.426 385.751 250.779L418.046 231.321C446.158 214.378 476.242 214.377 504.338 231.322L501.034 252.007C475.091 236.361 447.31 236.36 421.348 252.008L389.055 271.465C389.055 271.465 389.056 271.464 389.055 271.465C360.96 288.409 330.875 288.409 302.764 271.465L270.47 252.008C244.528 236.362 216.745 236.36 190.784 252.008L158.49 271.465C130.395 288.409 100.311 288.409 72.1994 271.466C72.1992 271.465 72.1995 271.466 72.1994 271.466L39.9053 252.008C13.9627 236.362 -13.8195 236.36 -39.7813 252.008L-72.0744 271.465C-100.17 288.409 -130.254 288.409 -158.365 271.466C-158.366 271.465 -158.365 271.466 -158.365 271.466L-190.661 252.007Z" fill="#A53900"/>
<path fill-rule="evenodd" clip-rule="evenodd" d="M-190.661 331.925C-216.604 316.279 -244.384 316.278 -270.346 331.926L-273.648 311.239C-245.537 294.296 -215.453 294.295 -187.358 311.239C-187.358 311.239 -187.359 311.239 -187.358 311.239L-155.064 330.696C-129.102 346.344 -101.321 346.344 -75.3787 330.697L-43.0836 311.239C-43.0834 311.239 -43.0837 311.239 -43.0836 311.239C-14.9722 294.296 15.1116 294.295 43.2065 311.239C43.207 311.239 43.206 311.239 43.2065 311.239L75.5006 330.696C101.462 346.344 129.244 346.344 155.186 330.697L187.481 311.239C187.481 311.239 187.481 311.239 187.481 311.239C215.593 294.296 245.676 294.295 273.771 311.239C273.772 311.239 273.771 311.239 273.771 311.239L306.065 330.696C332.027 346.344 359.808 346.344 385.751 330.697L418.046 311.239C446.158 294.295 476.242 294.295 504.338 311.24L501.034 331.925C475.091 316.279 447.31 316.278 421.348 331.926L389.055 351.383C389.055 351.383 389.056 351.382 389.055 351.383C360.96 368.327 330.875 368.327 302.764 351.383L270.47 331.926C244.528 316.279 216.745 316.278 190.784 331.926L158.49 351.383C130.395 368.327 100.311 368.327 72.1994 351.384C72.1992 351.383 72.1995 351.384 72.1994 351.384L39.9053 331.926C13.9627 316.279 -13.8195 316.278 -39.7813 331.926L-72.0744 351.383C-100.17 368.327 -130.254 368.327 -158.365 351.384C-158.366 351.383 -158.365 351.384 -158.365 351.384L-190.661 331.925Z" fill="#A53900"/>
<path fill-rule="evenodd" clip-rule="evenodd" d="M-190.661 411.839C-216.604 396.193 -244.384 396.192 -270.346 411.84L-273.648 391.153C-245.537 374.21 -215.453 374.209 -187.358 391.153C-187.358 391.153 -187.359 391.153 -187.358 391.153L-155.064 410.611C-129.102 426.258 -101.321 426.258 -75.3787 410.611L-43.0836 391.153C-43.0834 391.153 -43.0837 391.153 -43.0836 391.153C-14.9722 374.21 15.1116 374.209 43.2065 391.153C43.207 391.153 43.206 391.153 43.2065 391.153L75.5006 410.611C101.462 426.258 129.244 426.258 155.186 410.611L187.481 391.153C187.481 391.153 187.481 391.153 187.481 391.153C215.593 374.21 245.676 374.209 273.771 391.153C273.772 391.153 273.771 391.153 273.771 391.153L306.065 410.611C332.027 426.258 359.808 426.258 385.751 410.611L418.046 391.153C446.158 374.21 476.242 374.209 504.338 391.154L501.034 411.839C475.091 396.193 447.31 396.192 421.348 411.84L389.055 431.297C389.055 431.297 389.056 431.296 389.055 431.297C360.96 448.241 330.875 448.241 302.764 431.297L270.47 411.84C244.528 396.194 216.745 396.192 190.784 411.84L158.49 431.297C130.395 448.242 100.311 448.241 72.1994 431.298C72.1992 431.297 72.1995 431.298 72.1994 431.298L39.9053 411.84C13.9627 396.194 -13.8195 396.192 -39.7813 411.84L-72.0744 431.297C-100.17 448.242 -130.254 448.241 -158.365 431.298C-158.366 431.297 -158.365 431.298 -158.365 431.298L-190.661 411.839Z" fill="#A53900"/>
<path fill-rule="evenodd" clip-rule="evenodd" d="M-190.661 108.394C-216.604 92.7473 -244.384 92.7467 -270.346 108.394L-273.648 87.7079C-245.537 70.7645 -215.453 70.7636 -187.358 87.7076C-187.358 87.7079 -187.359 87.7073 -187.358 87.7076L-155.064 107.165C-129.102 122.813 -101.321 122.813 -75.3787 107.166L-43.0836 87.7079C-43.0834 87.7078 -43.0837 87.708 -43.0836 87.7079C-14.9722 70.7648 15.1116 70.7637 43.2065 87.7076C43.207 87.7079 43.206 87.7073 43.2065 87.7076L75.5006 107.165C101.462 122.813 129.244 122.813 155.186 107.166L187.481 87.7079C187.481 87.7078 187.481 87.708 187.481 87.7079C215.593 70.7648 245.676 70.7637 273.771 87.7076C273.772 87.7079 273.771 87.7073 273.771 87.7076L306.065 107.165C332.027 122.813 359.808 122.813 385.751 107.166L418.046 87.7079C446.158 70.7642 476.242 70.7636 504.338 87.7085L501.034 108.394C475.091 92.7473 447.31 92.7467 421.348 108.394L389.055 127.851C389.055 127.852 389.056 127.851 389.055 127.851C360.96 144.795 330.875 144.795 302.764 127.852L270.47 108.395C244.528 92.7482 216.745 92.7467 190.784 108.394L158.49 127.851C130.395 144.796 100.311 144.796 72.1994 127.852C72.1992 127.852 72.1995 127.852 72.1994 127.852L39.9053 108.395C13.9627 92.7482 -13.8195 92.7467 -39.7813 108.394L-72.0744 127.851C-100.17 144.796 -130.254 144.796 -158.365 127.852C-158.366 127.852 -158.365 127.852 -158.365 127.852L-190.661 108.394Z" fill="#F4F4EF"/>
<path fill-rule="evenodd" clip-rule="evenodd" d="M-190.661 188.308C-216.604 172.661 -244.384 172.661 -270.346 188.308L-273.648 167.622C-245.537 150.679 -215.453 150.678 -187.358 167.622C-187.358 167.622 -187.359 167.621 -187.358 167.622L-155.064 187.079C-129.102 202.727 -101.321 202.727 -75.3787 187.08L-43.0836 167.622C-43.0834 167.622 -43.0837 167.622 -43.0836 167.622C-14.9722 150.679 15.1116 150.678 43.2065 167.622C43.207 167.622 43.206 167.621 43.2065 167.622L75.5006 187.079C101.462 202.727 129.244 202.727 155.186 187.08L187.481 167.622C187.481 167.622 187.481 167.622 187.481 167.622C215.593 150.679 245.676 150.678 273.771 167.622C273.772 167.622 273.771 167.621 273.771 167.622L306.065 187.079C332.027 202.727 359.808 202.727 385.751 187.08L418.046 167.622C446.158 150.678 476.242 150.678 504.338 167.623L501.034 188.308C475.091 172.661 447.31 172.661 421.348 188.308L389.055 207.765C389.055 207.766 389.056 207.765 389.055 207.765C360.96 224.709 330.875 224.709 302.764 207.766L270.47 188.309C244.528 172.662 216.745 172.661 190.784 188.308L158.49 207.765C130.395 224.71 100.311 224.71 72.1994 207.766C72.1992 207.766 72.1995 207.766 72.1994 207.766L39.9053 188.309C13.9627 172.662 -13.8195 172.661 -39.7813 188.308L-72.0744 207.765C-100.17 224.71 -130.254 224.71 -158.365 207.766C-158.366 207.766 -158.365 207.766 -158.365 207.766L-190.661 188.308Z" fill="#F4F4EF"/>
<path fill-rule="evenodd" clip-rule="evenodd" d="M-190.661 268.222C-216.604 252.575 -244.384 252.575 -270.346 268.223L-273.648 247.536C-245.537 230.593 -215.453 230.592 -187.358 247.536C-187.358 247.536 -187.359 247.535 -187.358 247.536L-155.064 266.993C-129.102 282.641 -101.321 282.641 -75.3787 266.994L-43.0836 247.536C-43.0834 247.536 -43.0837 247.536 -43.0836 247.536C-14.9722 230.593 15.1116 230.592 43.2065 247.536C43.207 247.536 43.206 247.535 43.2065 247.536L75.5006 266.993C101.462 282.641 129.244 282.641 155.186 266.994L187.481 247.536C187.481 247.536 187.481 247.536 187.481 247.536C215.593 230.593 245.676 230.592 273.771 247.536C273.772 247.536 273.771 247.535 273.771 247.536L306.065 266.993C332.027 282.641 359.808 282.641 385.751 266.994L418.046 247.536C446.158 230.592 476.242 230.592 504.338 247.537L501.034 268.222C475.091 252.575 447.31 252.575 421.348 268.223L389.055 287.679C389.055 287.68 389.056 287.679 389.055 287.679C360.96 304.624 330.875 304.624 302.764 287.68L270.47 268.223C244.528 252.576 216.745 252.575 190.784 268.223L158.49 287.679C130.395 304.624 100.311 304.624 72.1994 287.68C72.1992 287.68 72.1995 287.681 72.1994 287.68L39.9053 268.223C13.9627 252.576 -13.8195 252.575 -39.7813 268.223L-72.0744 287.679C-100.17 304.624 -130.254 304.624 -158.365 287.68C-158.366 287.68 -158.365 287.681 -158.365 287.68L-190.661 268.222Z" fill="#F4F4EF"/>
<path fill-rule="evenodd" clip-rule="evenodd" d="M-190.661 348.14C-216.604 332.493 -244.384 332.493 -270.346 348.14L-273.648 327.454C-245.537 310.511 -215.453 310.51 -187.358 327.454C-187.358 327.454 -187.359 327.453 -187.358 327.454L-155.064 346.911C-129.102 362.559 -101.321 362.559 -75.3787 346.912L-43.0836 327.454C-43.0834 327.454 -43.0837 327.454 -43.0836 327.454C-14.9722 310.511 15.1116 310.51 43.2065 327.454C43.207 327.454 43.206 327.453 43.2065 327.454L75.5006 346.911C101.462 362.559 129.244 362.559 155.186 346.912L187.481 327.454C187.481 327.454 187.481 327.454 187.481 327.454C215.593 310.511 245.676 310.51 273.771 327.454C273.772 327.454 273.771 327.453 273.771 327.454L306.065 346.911C332.027 362.559 359.808 362.559 385.751 346.912L418.046 327.454C446.158 310.51 476.242 310.51 504.338 327.455L501.034 348.14C475.091 332.493 447.31 332.493 421.348 348.14L389.055 367.597C389.055 367.598 389.056 367.597 389.055 367.597C360.96 384.542 330.875 384.541 302.764 367.598L270.47 348.141C244.528 332.494 216.745 332.493 190.784 348.14L158.49 367.597C130.395 384.542 100.311 384.542 72.1994 367.598C72.1992 367.598 72.1995 367.598 72.1994 367.598L39.9053 348.141C13.9627 332.494 -13.8195 332.493 -39.7813 348.14L-72.0744 367.597C-100.17 384.542 -130.254 384.542 -158.365 367.598C-158.366 367.598 -158.365 367.598 -158.365 367.598L-190.661 348.14Z" fill="#F4F4EF"/>
<path fill-rule="evenodd" clip-rule="evenodd" d="M-190.661 428.054C-216.604 412.407 -244.384 412.407 -270.346 428.055L-273.648 407.368C-245.537 390.425 -215.453 390.424 -187.358 407.368C-187.358 407.368 -187.359 407.367 -187.358 407.368L-155.064 426.825C-129.102 442.473 -101.321 442.473 -75.3787 426.826L-43.0836 407.368C-43.0834 407.368 -43.0837 407.368 -43.0836 407.368C-14.9722 390.425 15.1116 390.424 43.2065 407.368C43.207 407.368 43.206 407.367 43.2065 407.368L75.5006 426.825C101.462 442.473 129.244 442.473 155.186 426.826L187.481 407.368C187.481 407.368 187.481 407.368 187.481 407.368C215.593 390.425 245.676 390.424 273.771 407.368C273.772 407.368 273.771 407.367 273.771 407.368L306.065 426.825C332.027 442.473 359.808 442.473 385.751 426.826L418.046 407.368C446.158 390.424 476.242 390.424 504.338 407.369L501.034 428.054C475.091 412.407 447.31 412.407 421.348 428.055L389.055 447.512C389.055 447.512 389.056 447.511 389.055 447.512C360.96 464.456 330.875 464.456 302.764 447.512L270.47 428.055C244.528 412.408 216.745 412.407 190.784 428.055L158.49 447.512C130.395 464.456 100.311 464.456 72.1994 447.512C72.1992 447.512 72.1995 447.513 72.1994 447.512L39.9053 428.055C13.9627 412.408 -13.8195 412.407 -39.7813 428.055L-72.0744 447.512C-100.17 464.456 -130.254 464.456 -158.365 447.512C-158.366 447.512 -158.365 447.513 -158.365 447.512L-190.661 428.054Z" fill="#F4F4EF"/>
<path d="M973 349C919.981 349 877 391.981 877 445C877 498.019 919.981 541 973 541L973 503.353C940.773 503.353 914.647 477.227 914.647 445C914.647 412.773 940.773 386.647 973 386.647L973 349Z" fill="#FCA354"/>
<path d="M973 117C919.981 117 877 159.981 877 213C877 266.019 919.981 309 973 309L973 271.353C940.773 271.353 914.647 245.227 914.647 213C914.647 180.773 940.773 154.647 973 154.647L973 117Z" fill="#FCA354"/>
<path d="M973 -115C919.981 -115 877 -72.0193 877 -19C877 34.0193 919.981 77 973 77L973 39.3529C940.773 39.3529 914.647 13.2275 914.647 -19C914.647 -51.2275 940.773 -77.3529 973 -77.3529L973 -115Z" fill="#FCA354"/>
<path d="M973 581C919.981 581 877 623.981 877 677C877 730.019 919.981 773 973 773L973 735.353C940.773 735.353 914.647 709.227 914.647 677C914.647 644.773 940.773 618.647 973 618.647L973 581Z" fill="#FCA354"/>
<circle cx="687.084" cy="623.389" r="36.0838" transform="rotate(-90 687.084 623.389)" fill="#A53900"/>
<circle cx="687.084" cy="511.127" r="36.0838" transform="rotate(-90 687.084 511.127)" fill="#A53900"/>
<circle cx="687.084" cy="398.869" r="36.0838" transform="rotate(-90 687.084 398.869)" fill="#A53900"/>
<circle cx="687.084" cy="286.608" r="36.0838" transform="rotate(-90 687.084 286.608)" fill="#A53900"/>
<circle cx="687.084" cy="174.346" r="36.0838" transform="rotate(-90 687.084 174.346)" fill="#A53900"/>
<circle cx="687.084" cy="62.0841" r="36.0838" transform="rotate(-90 687.084 62.0841)" fill="#A53900"/>
</g>
<defs>
<clipPath id="clip0_6_1758">
<rect width="1200" height="675" fill="white"/>
</clipPath>
</defs>
</svg>
