<svg width="1200" height="675" viewBox="0 0 1200 675" fill="none" xmlns="http://www.w3.org/2000/svg">
<g clip-path="url(#clip0_6_2080)">
<rect width="1200" height="675" fill="#F4F4EF"/>
<path fill-rule="evenodd" clip-rule="evenodd" d="M592 514C721.235 514 826 409.235 826 280C826 150.765 721.235 46 592 46C462.765 46 358 150.765 358 280C358 409.235 462.765 514 592 514ZM592 422.235C670.554 422.235 734.235 358.554 734.235 280C734.235 201.446 670.554 137.765 592 137.765C513.446 137.765 449.765 201.446 449.765 280C449.765 358.554 513.446 422.235 592 422.235Z" fill="#A53900"/>
<rect x="274" y="285" width="636" height="771" fill="#FFD4D8"/>
<path d="M591.816 280L835.876 699.521H347.756L591.816 280Z" fill="#FCA354"/>
<rect x="556" y="177" width="71" height="71" fill="#393A3D"/>
<rect width="274" height="56.0001" fill="#FCA354"/>
<rect y="112" width="274" height="56.0001" fill="#FCA354"/>
<rect y="224" width="274" height="56.0001" fill="#FCA354"/>
<rect x="910" width="274" height="56.0001" fill="#FCA354"/>
<rect x="910" y="112" width="274" height="56.0001" fill="#FCA354"/>
<rect x="910" y="224" width="274" height="56.0001" fill="#FCA354"/>
</g>
<defs>
<clipPath id="clip0_6_2080">
<rect width="1200" height="675" fill="white"/>
</clipPath>
</defs>
</svg>
