<svg width="1184" height="666" viewBox="0 0 1184 666" fill="none" xmlns="http://www.w3.org/2000/svg">
<g clip-path="url(#clip0_1_4108)">
<rect width="1184" height="666" fill="#F4F4EF"/>
<rect x="242" y="116" width="996" height="771" fill="#FFD4D8"/>
<path d="M275 433.762C370.755 433.762 448.381 356.137 448.381 260.381C448.381 164.626 370.755 87.0004 275 87.0004L275 433.762Z" fill="#393A3D"/>
<path d="M215.352 -105C119.596 -105 41.9709 -27.3749 41.9709 68.3806C41.9709 164.136 119.596 241.761 215.352 241.761L215.352 -105Z" fill="#393A3D"/>
<path d="M215.352 305.809C119.596 305.809 41.9709 383.434 41.9709 479.189C41.9709 574.945 119.596 652.57 215.352 652.57L215.352 305.809Z" fill="#393A3D"/>
<path d="M242.938 417.762C338.693 417.762 416.318 340.137 416.318 244.381C416.318 148.626 338.693 71.0004 242.937 71.0004L242.938 417.762Z" fill="#A53900"/>
<path d="M183.289 -121C87.5336 -121 9.90841 -43.3749 9.90841 52.3806C9.9084 148.136 87.5336 225.761 183.289 225.761L183.289 -121Z" fill="#A53900"/>
<path d="M183.289 289.809C87.5336 289.809 9.90841 367.434 9.9084 463.189C9.9084 558.945 87.5336 636.57 183.289 636.57L183.289 289.809Z" fill="#A53900"/>
<rect x="1138.27" y="-253" width="989.971" height="21.5509" transform="rotate(90 1138.27 -253)" fill="#A53900"/>
<rect x="1095.16" y="-253" width="989.971" height="21.5509" transform="rotate(90 1095.16 -253)" fill="#A53900"/>
<rect x="1052.06" y="-253" width="989.971" height="21.5509" transform="rotate(90 1052.06 -253)" fill="#A53900"/>
<rect x="1008.96" y="-253" width="989.971" height="21.5509" transform="rotate(90 1008.96 -253)" fill="#A53900"/>
<rect x="965.859" y="-253" width="989.971" height="21.5509" transform="rotate(90 965.859 -253)" fill="#A53900"/>
<rect x="922.758" y="-253" width="989.971" height="21.5509" transform="rotate(90 922.758 -253)" fill="#A53900"/>
<rect x="879.652" y="-253" width="989.971" height="21.5509" transform="rotate(90 879.652 -253)" fill="#A53900"/>
<rect x="836.553" y="-253" width="989.971" height="21.5509" transform="rotate(90 836.553 -253)" fill="#A53900"/>
<rect x="1128.27" y="-253" width="989.971" height="21.5509" transform="rotate(90 1128.27 -253)" fill="#FCA354"/>
<rect x="1085.16" y="-253" width="989.971" height="21.5509" transform="rotate(90 1085.16 -253)" fill="#FCA354"/>
<rect x="1042.06" y="-253" width="989.971" height="21.5509" transform="rotate(90 1042.06 -253)" fill="#FCA354"/>
<rect x="998.959" y="-253" width="989.971" height="21.5509" transform="rotate(90 998.959 -253)" fill="#FCA354"/>
<rect x="955.859" y="-253" width="989.971" height="21.5509" transform="rotate(90 955.859 -253)" fill="#FCA354"/>
<rect x="912.758" y="-253" width="989.971" height="21.5509" transform="rotate(90 912.758 -253)" fill="#FCA354"/>
<rect x="869.652" y="-253" width="989.971" height="21.5509" transform="rotate(90 869.652 -253)" fill="#FCA354"/>
<rect x="826.553" y="-253" width="989.971" height="21.5509" transform="rotate(90 826.553 -253)" fill="#FCA354"/>
<circle cx="63.5" cy="63.5" r="63.5" transform="matrix(-1 0 0 1 637 448)" fill="#FCA354"/>
<circle cx="63.5" cy="63.5" r="63.5" transform="matrix(-1 0 0 1 786 448)" fill="#FCA354"/>
</g>
<defs>
<clipPath id="clip0_1_4108">
<rect width="1184" height="666" fill="white"/>
</clipPath>
</defs>
</svg>
