<svg width="1200" height="675" viewBox="0 0 1200 675" fill="none" xmlns="http://www.w3.org/2000/svg">
<g clip-path="url(#clip0_6_2060)">
<rect width="1200" height="675" fill="#F4F4EF"/>
<path d="M1152 6.10352e-05L-69.7499 711.007L-69.7499 -711.007L1152 6.10352e-05Z" fill="#FFD4D8"/>
<path d="M639 360L1233.75 706.41L1233.75 13.5898L639 360Z" fill="#FFD4D8"/>
<path fill-rule="evenodd" clip-rule="evenodd" d="M-29.7076 667.896C-44.7049 692.763 -44.7061 719.392 -29.7064 744.278L-71.0793 750.883C-88.6704 721.697 -88.6723 690.462 -71.08 661.291C-71.0798 661.291 -71.0801 661.291 -71.08 661.291C-71.0795 661.29 -71.0786 661.289 -71.0781 661.288L-51.6224 628.997C-36.6227 604.11 -36.6233 577.48 -51.6206 552.614L-51.6224 552.611L-71.0793 520.318C-71.0796 520.318 -71.0791 520.318 -71.0793 520.318C-88.6698 491.132 -88.6721 459.897 -71.08 430.726C-71.0794 430.725 -71.0788 430.724 -71.0781 430.723L-51.6224 398.432C-36.6227 373.545 -36.6233 346.915 -51.6206 322.049L-51.6224 322.046L-71.0794 289.753C-71.0796 289.753 -71.0792 289.753 -71.0794 289.753C-88.6698 260.567 -88.6721 229.332 -71.08 200.161C-71.0794 200.16 -71.0788 200.159 -71.0782 200.158L-51.6224 167.867C-36.6227 142.981 -36.6233 116.35 -51.6206 91.4843L-51.6224 91.4813L-71.0794 59.1882C-71.0796 59.1879 -71.0792 59.1886 -71.0794 59.1882C-88.6705 30.0013 -88.6721 -1.23496 -71.0782 -30.4065L-29.7077 -23.798C-44.7049 1.06812 -44.7062 27.697 -29.7065 52.5837L-10.2501 84.8758C-10.2495 84.8768 -10.2489 84.8778 -10.2482 84.8788C7.3441 114.05 7.34222 145.285 -10.2489 174.471L-29.7058 206.764L-29.7076 206.767C-44.7049 231.633 -44.7061 258.262 -29.7064 283.149L-10.2501 315.441C-10.2495 315.442 -10.2488 315.443 -10.2482 315.444C7.3439 344.614 7.34223 375.849 -10.2482 405.034C-10.2484 405.035 -10.248 405.034 -10.2482 405.034L-29.7076 437.332C-44.7049 462.198 -44.7061 488.827 -29.7064 513.713L-10.2501 546.006C-10.2494 546.007 -10.2488 546.008 -10.2482 546.009C7.34391 575.179 7.34224 606.413 -10.2482 635.599C-10.2484 635.6 -10.248 635.599 -10.2482 635.599L-29.7076 667.896Z" fill="#FCA354"/>
<path fill-rule="evenodd" clip-rule="evenodd" d="M50.2064 667.896C35.2092 692.763 35.2079 719.392 50.2076 744.278L8.83472 750.883C-8.75637 721.697 -8.75824 690.462 8.83409 661.291C8.83424 661.291 8.83395 661.291 8.83409 661.291C8.83456 661.29 8.83545 661.289 8.83592 661.288L28.2917 628.997C43.2914 604.11 43.2907 577.48 28.2935 552.614L28.2917 552.611L8.83471 520.318C8.83451 520.318 8.83492 520.318 8.83471 520.318C-8.75575 491.132 -8.75804 459.897 8.83408 430.726C8.8347 430.725 8.8353 430.724 8.83591 430.723L28.2917 398.432C43.2914 373.545 43.2907 346.915 28.2935 322.049L28.2917 322.046L8.8347 289.753C8.8345 289.753 8.83491 289.753 8.8347 289.753C-8.75578 260.567 -8.75806 229.332 8.83407 200.161C8.83468 200.16 8.8353 200.159 8.8359 200.158L28.2916 167.867C43.2914 142.981 43.2907 116.35 28.2935 91.4843L28.2916 91.4813L8.83469 59.1882C8.83449 59.1879 8.8349 59.1886 8.83469 59.1882C-8.75639 30.0013 -8.75806 -1.23496 8.83589 -30.4065L50.2064 -23.798C35.2092 1.06812 35.2079 27.697 50.2076 52.5837L69.664 84.8758C69.6646 84.8768 69.6652 84.8778 69.6658 84.8788C87.2582 114.05 87.2563 145.285 69.6652 174.471L50.2082 206.764L50.2064 206.767C35.2092 231.633 35.2079 258.262 50.2076 283.149L69.664 315.441C69.6646 315.442 69.6652 315.443 69.6658 315.444C87.258 344.614 87.2563 375.849 69.6658 405.034C69.6656 405.035 69.666 405.034 69.6658 405.034L50.2064 437.332C35.2092 462.198 35.2079 488.827 50.2076 513.713L69.664 546.006C69.6646 546.007 69.6652 546.008 69.6658 546.009C87.258 575.179 87.2563 606.413 69.6658 635.599C69.6656 635.6 69.6661 635.599 69.6658 635.599L50.2064 667.896Z" fill="#FCA354"/>
<path fill-rule="evenodd" clip-rule="evenodd" d="M130.124 667.896C115.127 692.763 115.126 719.392 130.126 744.278L88.7527 750.883C71.1616 721.697 71.1597 690.462 88.7521 661.291C88.7522 661.291 88.7519 661.291 88.7521 661.291C88.7525 661.29 88.7534 661.289 88.7539 661.288L108.21 628.997C123.209 604.11 123.209 577.48 108.211 552.614L108.21 552.611L88.7527 520.318C88.7525 520.318 88.7529 520.318 88.7527 520.318C71.1622 491.132 71.1599 459.897 88.7521 430.726C88.7527 430.725 88.7533 430.724 88.7539 430.723L108.21 398.432C123.209 373.545 123.209 346.915 108.211 322.049L108.21 322.046L88.7527 289.753C88.7525 289.753 88.7529 289.753 88.7527 289.753C71.1622 260.567 71.1599 229.332 88.752 200.161C88.7526 200.16 88.7533 200.159 88.7539 200.158L108.21 167.867C123.209 142.981 123.209 116.35 108.211 91.4843L108.21 91.4813L88.7527 59.1882C88.7525 59.1879 88.7529 59.1886 88.7527 59.1882C71.1616 30.0013 71.1599 -1.23496 88.7539 -30.4065L130.124 -23.798C115.127 1.06812 115.126 27.697 130.126 52.5837L149.582 84.8758C149.583 84.8768 149.583 84.8778 149.584 84.8788C167.176 114.05 167.174 145.285 149.583 174.471L130.126 206.764L130.124 206.767C115.127 231.633 115.126 258.262 130.126 283.149L149.582 315.441C149.583 315.442 149.583 315.443 149.584 315.444C167.176 344.614 167.174 375.849 149.584 405.034C149.584 405.035 149.584 405.034 149.584 405.034L130.124 437.332C115.127 462.198 115.126 488.827 130.126 513.713L149.582 546.006C149.583 546.007 149.583 546.008 149.584 546.009C167.176 575.179 167.174 606.413 149.584 635.599C149.584 635.6 149.584 635.599 149.584 635.599L130.124 667.896Z" fill="#FCA354"/>
<path fill-rule="evenodd" clip-rule="evenodd" d="M210.038 667.896C195.041 692.763 195.04 719.392 210.04 744.278L168.667 750.883C151.076 721.697 151.074 690.462 168.666 661.291C168.666 661.291 168.666 661.291 168.666 661.291C168.667 661.29 168.667 661.289 168.668 661.288L188.124 628.997C203.123 604.11 203.123 577.48 188.126 552.614L188.124 552.611L168.667 520.318C168.667 520.318 168.667 520.318 168.667 520.318C151.076 491.132 151.074 459.897 168.666 430.726C168.667 430.725 168.667 430.724 168.668 430.723L188.124 398.432C203.123 373.545 203.123 346.915 188.126 322.049L188.124 322.046L168.667 289.753C168.667 289.753 168.667 289.753 168.667 289.753C151.076 260.567 151.074 229.332 168.666 200.161C168.667 200.16 168.667 200.159 168.668 200.158L188.124 167.867C203.123 142.981 203.123 116.35 188.126 91.4843L188.124 91.4813L168.667 59.1882C168.667 59.1879 168.667 59.1886 168.667 59.1882C151.076 30.0013 151.074 -1.23496 168.668 -30.4065L210.038 -23.798C195.041 1.06812 195.04 27.697 210.04 52.5837L229.496 84.8758C229.497 84.8768 229.497 84.8778 229.498 84.8788C247.09 114.05 247.088 145.285 229.497 174.471L210.04 206.764L210.038 206.767C195.041 231.633 195.04 258.262 210.04 283.149L229.496 315.441C229.497 315.442 229.497 315.443 229.498 315.444C247.09 344.614 247.088 375.849 229.498 405.034C229.498 405.035 229.498 405.034 229.498 405.034L210.038 437.332C195.041 462.198 195.04 488.827 210.04 513.713L229.496 546.006C229.497 546.007 229.497 546.008 229.498 546.009C247.09 575.179 247.088 606.413 229.498 635.599C229.498 635.6 229.498 635.599 229.498 635.599L210.038 667.896Z" fill="#FCA354"/>
<path fill-rule="evenodd" clip-rule="evenodd" d="M616 911C745.235 911 850 806.235 850 677C850 547.765 745.235 443 616 443C486.765 443 382 547.765 382 677C382 806.235 486.765 911 616 911ZM616 819.235C694.554 819.235 758.235 755.554 758.235 677C758.235 598.446 694.554 534.765 616 534.765C537.446 534.765 473.765 598.446 473.765 677C473.765 755.554 537.446 819.235 616 819.235Z" fill="#A53900"/>
<path d="M1152.38 182C1056.62 182 978.998 259.625 978.998 355.381C978.998 451.136 1056.62 528.761 1152.38 528.761L1152.38 182Z" fill="#393A3D"/>
</g>
<defs>
<clipPath id="clip0_6_2060">
<rect width="1200" height="675" fill="white"/>
</clipPath>
</defs>
</svg>
