<svg width="1184" height="666" viewBox="0 0 1184 666" fill="none" xmlns="http://www.w3.org/2000/svg">
<g clip-path="url(#clip0_1_4060)">
<rect width="1184" height="666" fill="#F4F4EF"/>
<path d="M686 666C686 378.26 452.741 145 165 145C-122.74 145 -356 378.26 -356 666L686 666Z" fill="#FFD4D8"/>
<path d="M489 -52C489 235.74 722.26 469 1010 469C1297.74 469 1531 235.74 1531 -52L489 -52Z" fill="#FFD4D8"/>
<path fill-rule="evenodd" clip-rule="evenodd" d="M29.5096 -28C31.5923 -21.3038 34.6019 -14.6646 38.5385 -8.13317L57.7372 23.7313C73.1751 49.328 73.1754 76.7388 57.7363 102.354L38.5382 134.218C21.8202 161.938 21.8213 191.621 38.5385 219.357L57.7372 251.222C73.1751 276.819 73.1754 304.229 57.7363 329.845L38.5382 361.709C21.8201 389.429 21.821 419.111 38.5385 446.848L58.9491 443.59C43.5101 417.974 43.5107 390.564 58.9485 364.967L78.1476 333.102C94.8651 305.365 94.8656 275.682 78.1467 247.962L58.9491 216.099C43.5101 190.484 43.5116 163.072 58.9494 137.475L78.1476 105.612C94.8651 77.8745 94.8656 48.1919 78.1467 20.4711L58.9491 -11.3914C55.6546 -16.8575 53.0631 -22.4054 51.1747 -28H29.5096Z" fill="#FCA354"/>
<path fill-rule="evenodd" clip-rule="evenodd" d="M93.744 -28C95.8267 -21.3038 98.8363 -14.6646 102.773 -8.13317L121.972 23.7313C137.409 49.328 137.41 76.7388 121.971 102.354L102.773 134.218C86.0546 161.938 86.0557 191.621 102.773 219.357L121.972 251.222C137.409 276.819 137.41 304.229 121.971 329.845L102.773 361.709C86.0545 389.429 86.0554 419.111 102.773 446.848L123.184 443.59C107.744 417.974 107.745 390.564 123.183 364.967L142.382 333.102C159.099 305.365 159.1 275.682 142.381 247.962L123.184 216.099C107.744 190.484 107.746 163.072 123.184 137.475L142.382 105.612C159.099 77.8745 159.1 48.1919 142.381 20.4711L123.183 -11.3914C119.889 -16.8575 117.298 -22.4054 115.409 -28H93.744Z" fill="#FCA354"/>
<path fill-rule="evenodd" clip-rule="evenodd" d="M157.978 -28C160.061 -21.3038 163.071 -14.6646 167.007 -8.13317L186.206 23.7313C201.644 49.328 201.644 76.7388 186.205 102.354L167.007 134.218C150.289 161.938 150.29 191.621 167.007 219.357L186.206 251.222C201.644 276.819 201.644 304.229 186.205 329.845L167.007 361.709C150.289 389.429 150.29 419.111 167.007 446.848L187.418 443.59C171.979 417.974 171.979 390.564 187.417 364.967L206.616 333.102C223.334 305.365 223.334 275.682 206.615 247.962L187.418 216.099C171.979 190.484 171.98 163.072 187.418 137.475L206.616 105.612C223.334 77.8745 223.334 48.1919 206.615 20.4711L187.418 -11.3914C184.123 -16.8575 181.532 -22.4054 179.643 -28H157.978Z" fill="#FCA354"/>
<path fill-rule="evenodd" clip-rule="evenodd" d="M222.213 -28C224.295 -21.3038 227.305 -14.6646 231.242 -8.13317L250.44 23.7313C265.878 49.328 265.879 76.7388 250.439 102.354L231.241 134.218C214.523 161.938 214.524 191.621 231.242 219.357L250.44 251.222C265.878 276.819 265.879 304.229 250.439 329.845L231.241 361.709C214.523 389.429 214.524 419.111 231.242 446.848L251.652 443.59C236.213 417.974 236.214 390.564 251.652 364.967L270.851 333.102C287.568 305.365 287.569 275.682 270.85 247.962L251.652 216.099C236.213 190.484 236.215 163.072 251.653 137.475L270.851 105.612C287.568 77.8745 287.569 48.1919 270.85 20.4711L251.652 -11.3914C248.358 -16.8575 245.766 -22.4054 243.878 -28H222.213Z" fill="#FCA354"/>
<path fill-rule="evenodd" clip-rule="evenodd" d="M286.447 -28C288.53 -21.3038 291.539 -14.6646 295.476 -8.13317L314.675 23.7313C330.113 49.328 330.113 76.7388 314.674 102.354L295.476 134.218C278.758 161.938 278.759 191.621 295.476 219.357L314.675 251.222C330.113 276.819 330.113 304.229 314.674 329.845L295.476 361.709C278.758 389.429 278.759 419.111 295.476 446.848L315.887 443.59C300.448 417.974 300.448 390.564 315.886 364.967L335.085 333.102C351.803 305.365 351.803 275.682 335.084 247.962L315.887 216.099C300.448 190.484 300.449 163.072 315.887 137.475L335.085 105.612C351.803 77.8745 351.803 48.1919 335.084 20.4711L315.887 -11.3914C312.592 -16.8575 310.001 -22.4054 308.112 -28H286.447Z" fill="#FCA354"/>
<path d="M980 567L867.5 631.952L867.5 502.048L980 567Z" fill="#FCA354"/>
<path d="M753 174L640.5 238.952L640.5 109.048L753 174Z" fill="#393A3D"/>
<path d="M489 406L553.952 517.75H424.048L489 406Z" fill="#A53900"/>
<path fill-rule="evenodd" clip-rule="evenodd" d="M1214 567C1343.23 567 1448 462.235 1448 333C1448 203.765 1343.23 99 1214 99C1084.77 99 980 203.765 980 333C980 462.235 1084.77 567 1214 567ZM1214 475.235C1292.55 475.235 1356.24 411.554 1356.24 333C1356.24 254.446 1292.55 190.765 1214 190.765C1135.45 190.765 1071.76 254.446 1071.76 333C1071.76 411.554 1135.45 475.235 1214 475.235Z" fill="#A53900"/>
</g>
<defs>
<clipPath id="clip0_1_4060">
<rect width="1184" height="666" fill="white"/>
</clipPath>
</defs>
</svg>
