<svg width="1200" height="675" viewBox="0 0 1200 675" fill="none" xmlns="http://www.w3.org/2000/svg">
<g clip-path="url(#clip0_6_2012)">
<rect width="1200" height="675" fill="#F4F4EF"/>
<path d="M694 666C694 378.26 460.741 145 173 145C-114.74 145 -348 378.26 -348 666L694 666Z" fill="#FFD4D8"/>
<path d="M497 -52C497 235.74 730.26 469 1018 469C1305.74 469 1539 235.74 1539 -52L497 -52Z" fill="#FFD4D8"/>
<path fill-rule="evenodd" clip-rule="evenodd" d="M30.0273 -28C32.1332 -21.3416 35.1439 -14.7397 39.0595 -8.24308L58.5177 24.052C74.1641 49.9946 74.1645 77.7758 58.5168 103.738L39.0592 136.032C22.1153 164.127 22.1164 194.21 39.0595 222.322L58.5177 254.617C74.1641 280.559 74.1645 308.341 58.5168 334.302L39.0592 366.597C22.1152 394.692 22.1161 424.775 39.0595 452.887L59.746 449.584C44.0983 423.623 44.0989 395.842 59.7454 369.899L79.2038 337.604C96.1472 309.492 96.1478 279.408 79.2029 251.313L59.746 219.02C44.0982 193.058 44.0998 165.275 59.7463 139.333L79.2038 107.039C96.1472 78.9269 96.1478 48.8431 79.2029 20.7477L59.7459 -11.5454C56.4812 -16.9621 53.8976 -22.458 51.9953 -28H30.0273Z" fill="#FCA354"/>
<path fill-rule="evenodd" clip-rule="evenodd" d="M95.1289 -28C97.2347 -21.3416 100.245 -14.7397 104.161 -8.24308L123.619 24.052C139.266 49.9946 139.266 77.7758 123.618 103.738L104.161 136.032C87.2168 164.127 87.218 194.21 104.161 222.322L123.619 254.617C139.266 280.559 139.266 308.341 123.618 334.302L104.161 366.597C87.2167 394.692 87.2177 424.775 104.161 452.887L124.848 449.584C109.2 423.623 109.2 395.842 124.847 369.899L144.305 337.604C161.249 309.492 161.249 279.408 144.304 251.313L124.848 219.02C109.2 193.058 109.201 165.275 124.848 139.333L144.305 107.039C161.249 78.9269 161.249 48.8431 144.304 20.7477L124.848 -11.5454C121.583 -16.9621 118.999 -22.458 117.097 -28H95.1289Z" fill="#FCA354"/>
<path fill-rule="evenodd" clip-rule="evenodd" d="M160.234 -28C162.34 -21.3416 165.351 -14.7397 169.267 -8.24308L188.725 24.052C204.371 49.9946 204.371 77.7758 188.724 103.738L169.266 136.032C152.322 164.127 152.323 194.21 169.267 222.322L188.725 254.617C204.371 280.559 204.371 308.341 188.724 334.302L169.266 366.597C152.322 394.692 152.323 424.775 169.267 452.887L189.953 449.584C174.305 423.623 174.306 395.842 189.952 369.899L209.411 337.604C226.354 309.492 226.355 279.408 209.41 251.313L189.953 219.02C174.305 193.058 174.307 165.275 189.953 139.333L209.411 107.039C226.354 78.9269 226.355 48.8431 209.41 20.7477L189.953 -11.5454C186.688 -16.9621 184.105 -22.458 182.202 -28H160.234Z" fill="#FCA354"/>
<path fill-rule="evenodd" clip-rule="evenodd" d="M225.336 -28C227.442 -21.3416 230.452 -14.7397 234.368 -8.24308L253.826 24.052C269.473 49.9946 269.473 77.7758 253.825 103.738L234.368 136.032C217.424 164.127 217.425 194.21 234.368 222.322L253.826 254.617C269.473 280.559 269.473 308.341 253.825 334.302L234.368 366.597C217.424 394.692 217.425 424.775 234.368 452.887L255.055 449.584C239.407 423.623 239.407 395.842 255.054 369.899L274.512 337.604C291.456 309.492 291.456 279.408 274.512 251.313L255.055 219.02C239.407 193.058 239.408 165.275 255.055 139.333L274.512 107.039C291.456 78.9269 291.456 48.8431 274.512 20.7477L255.055 -11.5454C251.79 -16.9621 249.206 -22.458 247.304 -28H225.336Z" fill="#FCA354"/>
<path fill-rule="evenodd" clip-rule="evenodd" d="M290.437 -28C292.543 -21.3416 295.554 -14.7397 299.47 -8.24308L318.928 24.052C334.574 49.9946 334.575 77.7758 318.927 103.738L299.469 136.032C282.525 164.127 282.527 194.21 299.47 222.322L318.928 254.617C334.574 280.559 334.575 308.341 318.927 334.302L299.469 366.597C282.525 394.692 282.526 424.775 299.47 452.887L320.156 449.584C304.508 423.623 304.509 395.842 320.156 369.899L339.614 337.604C356.557 309.492 356.558 279.408 339.613 251.313L320.156 219.02C304.508 193.058 304.51 165.275 320.156 139.333L339.614 107.039C356.557 78.9269 356.558 48.8431 339.613 20.7477L320.156 -11.5454C316.891 -16.9621 314.308 -22.458 312.405 -28H290.437Z" fill="#FCA354"/>
<path d="M980 567L867.5 631.952L867.5 502.048L980 567Z" fill="#FCA354"/>
<path d="M753 174L640.5 238.952L640.5 109.048L753 174Z" fill="#393A3D"/>
<path d="M489 406L553.952 517.75H424.048L489 406Z" fill="#A53900"/>
<path fill-rule="evenodd" clip-rule="evenodd" d="M1214 567C1343.23 567 1448 462.235 1448 333C1448 203.765 1343.23 99 1214 99C1084.77 99 980 203.765 980 333C980 462.235 1084.77 567 1214 567ZM1214 475.235C1292.55 475.235 1356.24 411.554 1356.24 333C1356.24 254.446 1292.55 190.765 1214 190.765C1135.45 190.765 1071.76 254.446 1071.76 333C1071.76 411.554 1135.45 475.235 1214 475.235Z" fill="#A53900"/>
</g>
<defs>
<clipPath id="clip0_6_2012">
<rect width="1200" height="675" fill="white"/>
</clipPath>
</defs>
</svg>
