<svg width="1200" height="675" viewBox="0 0 1200 675" fill="none" xmlns="http://www.w3.org/2000/svg">
<g clip-path="url(#clip0_6_1962)">
<rect width="1200" height="675" rx="12" fill="#F4F4EF"/>
<path d="M1121 668C1121 380.26 887.741 147 600 147C312.26 147 79 380.26 79 668L1121 668Z" fill="#FFD4D8"/>
<circle cx="592.5" cy="654.5" r="129.5" fill="#FCA354"/>
<path fill-rule="evenodd" clip-rule="evenodd" d="M592 867C712.398 867 810 769.622 810 649.5C810 529.378 712.398 432 592 432C471.602 432 374 529.378 374 649.5C374 769.622 471.602 867 592 867ZM592 828.618C691.151 828.618 771.529 748.424 771.529 649.5C771.529 550.576 691.151 470.382 592 470.382C492.849 470.382 412.471 550.576 412.471 649.5C412.471 748.424 492.849 828.618 592 828.618Z" fill="#393A3D"/>
<path fill-rule="evenodd" clip-rule="evenodd" d="M-137 377.727C-128.281 375.64 -119.635 372.733 -111.121 369.007L-66.6411 349.549C-30.9109 333.902 7.35165 333.902 43.1084 349.55L87.5864 369.007C126.281 385.951 167.715 385.95 206.432 369.007L250.912 349.549C286.642 333.902 324.905 333.902 360.661 349.55L405.139 369.007C443.834 385.951 485.268 385.95 523.985 369.007L519.437 348.32C483.68 363.968 445.418 363.967 409.688 348.321L365.208 328.863C326.49 311.919 285.056 311.919 246.361 328.863L201.884 348.32C166.127 363.968 127.863 363.967 92.1332 348.32L47.6551 328.863C8.93705 311.919 -32.4968 311.919 -71.1921 328.863L-115.669 348.32C-122.695 351.395 -129.818 353.866 -137 355.732L-137 377.727Z" fill="#FCA354"/>
<path fill-rule="evenodd" clip-rule="evenodd" d="M-137 312.625C-128.281 310.538 -119.635 307.631 -111.121 303.905L-66.6411 284.447C-30.9109 268.801 7.35165 268.8 43.1084 284.448L87.5864 303.906C126.281 320.85 167.715 320.848 206.432 303.905L250.912 284.447C286.642 268.801 324.905 268.8 360.661 284.448L405.139 303.906C443.834 320.85 485.268 320.849 523.985 303.905L519.437 283.219C483.68 298.867 445.418 298.866 409.688 283.219L365.208 263.761C326.49 246.818 285.056 246.817 246.361 263.762L201.884 283.219C166.127 298.867 127.863 298.865 92.1332 283.219L47.6551 263.761C8.93705 246.818 -32.4968 246.817 -71.1921 263.762L-115.669 283.219C-122.695 286.294 -129.818 288.764 -137 290.631L-137 312.625Z" fill="#FCA354"/>
<path fill-rule="evenodd" clip-rule="evenodd" d="M-137 247.52C-128.281 245.433 -119.635 242.526 -111.121 238.8L-66.6412 219.342C-30.911 203.695 7.35159 203.695 43.1083 219.343L87.5864 238.8C126.281 255.744 167.715 255.743 206.432 238.8L250.912 219.342C286.642 203.695 324.905 203.695 360.661 219.343L405.139 238.8C443.834 255.744 485.268 255.743 523.985 238.8L519.437 218.113C483.68 233.761 445.418 233.76 409.688 218.114L365.208 198.656C326.49 181.712 285.056 181.712 246.361 198.656L201.884 218.113C166.127 233.761 127.863 233.76 92.1331 218.113L47.6551 198.656C8.93699 181.712 -32.4969 181.712 -71.1921 198.656L-115.669 218.113C-122.695 221.188 -129.818 223.659 -137 225.525L-137 247.52Z" fill="#FCA354"/>
<path fill-rule="evenodd" clip-rule="evenodd" d="M-137 182.418C-128.281 180.331 -119.635 177.424 -111.121 173.698L-66.6412 154.24C-30.911 138.594 7.35159 138.593 43.1083 154.241L87.5864 173.699C126.281 190.643 167.715 190.641 206.432 173.698L250.912 154.24C286.642 138.594 324.905 138.593 360.661 154.241L405.139 173.699C443.834 190.643 485.268 190.642 523.985 173.698L519.437 153.012C483.68 168.66 445.418 168.659 409.688 153.012L365.208 133.554C326.49 116.611 285.056 116.61 246.361 133.555L201.884 153.012C166.127 168.66 127.863 168.658 92.1331 153.012L47.6551 133.554C8.93699 116.611 -32.4969 116.61 -71.1921 133.555L-115.669 153.012C-122.695 156.087 -129.818 158.557 -137 160.424L-137 182.418Z" fill="#FCA354"/>
<path fill-rule="evenodd" clip-rule="evenodd" d="M-137 117.317C-128.281 115.229 -119.635 112.323 -111.121 108.597L-66.6412 89.1386C-30.911 73.4921 7.35159 73.4918 43.1083 89.1395L87.5864 108.597C126.281 125.541 167.715 125.54 206.432 108.597L250.912 89.1386C286.642 73.4921 324.905 73.4918 360.661 89.1395L405.139 108.597C443.834 125.541 485.268 125.54 523.985 108.597L519.437 87.9103C483.68 103.558 445.418 103.557 409.688 87.9109L365.208 68.4524C326.49 51.509 285.056 51.5085 246.361 68.4533L201.884 87.9103C166.127 103.558 127.863 103.556 92.1331 87.91L47.6551 68.4524C8.93699 51.509 -32.4969 51.5085 -71.1921 68.4533L-115.669 87.9103C-122.695 90.9851 -129.818 93.4557 -137 95.322L-137 117.317Z" fill="#FCA354"/>
<rect x="952" y="547.082" width="89.2705" height="89.2705" transform="rotate(-90 952 547.082)" fill="#A53900"/>
<rect x="952" y="419.812" width="89.2705" height="89.2705" transform="rotate(-90 952 419.812)" fill="#A53900"/>
<rect x="952" y="292.539" width="89.2705" height="89.2705" transform="rotate(-90 952 292.539)" fill="#A53900"/>
<rect x="952" y="165.27" width="89.2705" height="89.2705" transform="rotate(-90 952 165.27)" fill="#A53900"/>
</g>
<defs>
<clipPath id="clip0_6_1962">
<rect width="1200" height="675" rx="12" fill="white"/>
</clipPath>
</defs>
</svg>
