<svg width="1200" height="675" viewBox="0 0 1200 675" fill="none" xmlns="http://www.w3.org/2000/svg">
<g clip-path="url(#clip0_6_1955)">
<rect width="1200" height="675" fill="#F4F4EF"/>
<path d="M339 826L-151.17 -16.25L829.17 -16.2501L339 826Z" fill="#FFD4D8"/>
<path d="M905 178L612.283 680.5L1197.72 680.5L905 178Z" fill="#FFD4D8"/>
<path d="M566.817 559.363L322.757 139.842L810.877 139.842L566.817 559.363Z" fill="#FCA354"/>
<path d="M1046 333L1168.11 542.25L923.89 542.25L1046 333Z" fill="#393A3D"/>
<path fill-rule="evenodd" clip-rule="evenodd" d="M1144 255C1273.23 255 1378 150.235 1378 21C1378 -108.235 1273.23 -213 1144 -213C1014.77 -213 910 -108.235 910 21C910 150.235 1014.77 255 1144 255ZM1144 163.235C1222.55 163.235 1286.24 99.5545 1286.24 21C1286.24 -57.5545 1222.55 -121.235 1144 -121.235C1065.45 -121.235 1001.76 -57.5545 1001.76 21C1001.76 99.5545 1065.45 163.235 1144 163.235Z" fill="#A53900"/>
<path fill-rule="evenodd" clip-rule="evenodd" d="M-0.446634 570.107C137.378 570.107 249.107 458.378 249.107 320.553C249.107 182.729 137.378 71 -0.446634 71C-138.271 71 -250 182.729 -250 320.553C-250 458.378 -138.271 570.107 -0.446634 570.107ZM-0.446634 526.068C113.056 526.068 205.068 434.056 205.068 320.553C205.068 207.05 113.056 115.039 -0.446634 115.039C-113.949 115.039 -205.961 207.05 -205.961 320.553C-205.961 434.056 -113.949 526.068 -0.446634 526.068Z" fill="#393A3D"/>
</g>
<defs>
<clipPath id="clip0_6_1955">
<rect width="1200" height="675" fill="white"/>
</clipPath>
</defs>
</svg>
