<svg width="1184" height="666" viewBox="0 0 1184 666" fill="none" xmlns="http://www.w3.org/2000/svg">
<g clip-path="url(#clip0_1_3983)">
<rect width="1184" height="666" fill="#F4F4EF"/>
<g clip-path="url(#clip1_1_3983)" filter="url(#filter0_d_1_3983)">
<rect width="1184" height="666" fill="#F4F4EF"/>
<rect x="57" y="177" width="326" height="571" fill="#FFD4D8"/>
<rect x="429" y="-74" width="326" height="571" fill="#FFD4D8"/>
<rect x="801" y="177" width="326" height="571" fill="#FFD4D8"/>
<circle cx="516.555" cy="557.195" r="18.5555" transform="rotate(-90 516.555 557.195)" fill="#A53900"/>
<circle cx="516.555" cy="499.464" r="18.5555" transform="rotate(-90 516.555 499.464)" fill="#A53900"/>
<circle cx="516.555" cy="441.737" r="18.5555" transform="rotate(-90 516.555 441.737)" fill="#A53900"/>
<circle cx="516.555" cy="384.011" r="18.5555" transform="rotate(-90 516.555 384.011)" fill="#A53900"/>
<circle cx="516.555" cy="326.28" r="18.5555" transform="rotate(-90 516.555 326.28)" fill="#A53900"/>
<circle cx="516.555" cy="268.554" r="18.5555" transform="rotate(-90 516.555 268.554)" fill="#A53900"/>
<circle cx="74.5555" cy="140.555" r="18.5555" fill="#A53900"/>
<circle cx="132.286" cy="140.555" r="18.5555" fill="#A53900"/>
<circle cx="190.012" cy="140.555" r="18.5555" fill="#A53900"/>
<circle cx="247.739" cy="140.555" r="18.5555" fill="#A53900"/>
<circle cx="305.47" cy="140.555" r="18.5555" fill="#A53900"/>
<circle cx="363.196" cy="140.555" r="18.5555" fill="#A53900"/>
<circle cx="18.5555" cy="18.5555" r="18.5555" transform="matrix(-1 0 0 1 1126.75 122)" fill="#FCA354"/>
<circle cx="18.5555" cy="18.5555" r="18.5555" transform="matrix(-1 0 0 1 1069.02 122)" fill="#FCA354"/>
<circle cx="18.5555" cy="18.5555" r="18.5555" transform="matrix(-1 0 0 1 1011.29 122)" fill="#FCA354"/>
<circle cx="18.5555" cy="18.5555" r="18.5555" transform="matrix(-1 0 0 1 953.566 122)" fill="#FCA354"/>
<circle cx="18.5555" cy="18.5555" r="18.5555" transform="matrix(-1 0 0 1 895.836 122)" fill="#FCA354"/>
<circle cx="18.5555" cy="18.5555" r="18.5555" transform="matrix(-1 0 0 1 838.109 122)" fill="#FCA354"/>
<circle cx="573.555" cy="413.195" r="16.4938" transform="rotate(-90 573.555 413.195)" fill="#FCA354" stroke="#A53900" stroke-width="4.12344"/>
<circle cx="573.555" cy="355.464" r="16.4938" transform="rotate(-90 573.555 355.464)" fill="#FCA354" stroke="#A53900" stroke-width="4.12344"/>
<circle cx="573.555" cy="297.737" r="16.4938" transform="rotate(-90 573.555 297.737)" fill="#FCA354" stroke="#A53900" stroke-width="4.12344"/>
<circle cx="573.555" cy="240.011" r="16.4938" transform="rotate(-90 573.555 240.011)" fill="#FCA354" stroke="#A53900" stroke-width="4.12344"/>
<circle cx="573.555" cy="182.28" r="16.4938" transform="rotate(-90 573.555 182.28)" fill="#FCA354" stroke="#A53900" stroke-width="4.12344"/>
<circle cx="573.555" cy="124.554" r="16.4938" transform="rotate(-90 573.555 124.554)" fill="#FCA354" stroke="#A53900" stroke-width="4.12344"/>
<circle cx="-2.44453" cy="236.555" r="16.4938" fill="#FCA354" stroke="#A53900" stroke-width="4.12344"/>
<circle cx="55.2859" cy="236.555" r="16.4938" fill="#FCA354" stroke="#A53900" stroke-width="4.12344"/>
<circle cx="113.013" cy="236.555" r="16.4938" fill="#FCA354" stroke="#A53900" stroke-width="4.12344"/>
<circle cx="170.739" cy="236.555" r="16.4938" fill="#FCA354" stroke="#A53900" stroke-width="4.12344"/>
<circle cx="228.47" cy="236.555" r="16.4938" fill="#FCA354" stroke="#A53900" stroke-width="4.12344"/>
<circle cx="286.196" cy="236.555" r="16.4938" fill="#FCA354" stroke="#A53900" stroke-width="4.12344"/>
<circle cx="18.5555" cy="18.5555" r="16.4938" transform="matrix(-1 0 0 1 1164.02 203)" fill="#FCA354" stroke="#A53900" stroke-width="4.12344"/>
<circle cx="18.5555" cy="18.5555" r="16.4938" transform="matrix(-1 0 0 1 1106.29 203)" fill="#FCA354" stroke="#A53900" stroke-width="4.12344"/>
<circle cx="18.5555" cy="18.5555" r="16.4938" transform="matrix(-1 0 0 1 1048.57 203)" fill="#FCA354" stroke="#A53900" stroke-width="4.12344"/>
<circle cx="18.5555" cy="18.5555" r="16.4938" transform="matrix(-1 0 0 1 990.836 203)" fill="#FCA354" stroke="#A53900" stroke-width="4.12344"/>
<circle cx="18.5555" cy="18.5555" r="16.4938" transform="matrix(-1 0 0 1 933.109 203)" fill="#FCA354" stroke="#A53900" stroke-width="4.12344"/>
<circle cx="1078.5" cy="422.5" r="124.5" fill="#393A3D"/>
<circle cx="790.5" cy="-20.5" r="124.5" fill="#393A3D"/>
<circle cx="228.5" cy="631.5" r="124.5" fill="#393A3D"/>
<circle cx="1107.5" cy="479.5" r="124.5" fill="#FCA354"/>
<circle cx="726.5" cy="-18.5" r="124.5" fill="#FCA354"/>
<circle cx="314.5" cy="644.5" r="124.5" fill="#FCA354"/>
</g>
</g>
<defs>
<filter id="filter0_d_1_3983" x="-16" y="-12" width="1216" height="698" filterUnits="userSpaceOnUse" color-interpolation-filters="sRGB">
<feFlood flood-opacity="0" result="BackgroundImageFix"/>
<feColorMatrix in="SourceAlpha" type="matrix" values="0 0 0 0 0 0 0 0 0 0 0 0 0 0 0 0 0 0 127 0" result="hardAlpha"/>
<feOffset dy="4"/>
<feGaussianBlur stdDeviation="8"/>
<feColorMatrix type="matrix" values="0 0 0 0 0 0 0 0 0 0 0 0 0 0 0 0 0 0 0.2 0"/>
<feBlend mode="normal" in2="BackgroundImageFix" result="effect1_dropShadow_1_3983"/>
<feBlend mode="normal" in="SourceGraphic" in2="effect1_dropShadow_1_3983" result="shape"/>
</filter>
<clipPath id="clip0_1_3983">
<rect width="1184" height="666" fill="white"/>
</clipPath>
<clipPath id="clip1_1_3983">
<rect width="1184" height="666" fill="white"/>
</clipPath>
</defs>
</svg>
