<svg width="1200" height="675" viewBox="0 0 1200 675" fill="none" xmlns="http://www.w3.org/2000/svg">
<g clip-path="url(#clip0_6_1940)">
<rect width="1200" height="675" fill="#F4F4EF"/>
<rect x="-325" y="-328" width="765" height="794" fill="#FFD4D8"/>
<rect x="649" y="69" width="765" height="794" fill="#FFD4D8"/>
<rect x="321" y="541.965" width="73.0344" height="73.0344" fill="#393A3D"/>
<rect x="424.902" y="541.965" width="73.0344" height="73.0344" fill="#393A3D"/>
<rect x="528.805" y="541.965" width="73.0344" height="73.0344" fill="#393A3D"/>
<rect x="632.703" y="541.965" width="73.0344" height="73.0344" fill="#393A3D"/>
<path fill-rule="evenodd" clip-rule="evenodd" d="M1000.18 645.6C985.178 670.466 985.177 697.095 1000.18 721.981L958.803 728.586C941.212 699.4 941.211 668.165 958.803 638.994C958.803 638.994 958.803 638.994 958.803 638.994C958.803 638.993 958.804 638.992 958.805 638.991L978.26 606.7C993.26 581.813 993.259 555.183 978.262 530.317L978.26 530.314L958.803 498.021C958.803 498.021 958.804 498.021 958.803 498.021C941.213 468.835 941.211 437.6 958.803 408.429C958.803 408.428 958.804 408.427 958.805 408.426L978.26 376.135C993.26 351.249 993.259 324.618 978.262 299.752L978.26 299.749L958.803 267.456C958.803 267.456 958.804 267.457 958.803 267.456C941.213 238.27 941.211 207.035 958.803 177.864C958.803 177.863 958.804 177.862 958.805 177.861L978.26 145.57C993.26 120.684 993.259 94.0536 978.262 69.1874L978.26 69.1844L958.803 36.8914C958.803 36.891 958.804 36.8917 958.803 36.8914C941.212 7.70442 941.211 -23.5318 958.805 -52.7034L1000.18 -46.0949C985.178 -21.2288 985.177 5.40015 1000.18 30.2868L1019.63 62.5789C1019.63 62.58 1019.63 62.5809 1019.63 62.582C1037.23 91.753 1037.23 122.988 1019.63 152.174L1000.18 184.467L1000.18 184.47C985.178 209.336 985.177 235.965 1000.18 260.852L1019.63 293.144C1019.63 293.145 1019.63 293.146 1019.63 293.147C1037.23 322.318 1037.23 353.552 1019.63 382.738C1019.63 382.738 1019.63 382.737 1019.63 382.738L1000.18 415.035C985.178 439.901 985.177 466.53 1000.18 491.417L1019.63 523.709C1019.63 523.71 1019.63 523.711 1019.63 523.712C1037.23 552.882 1037.23 584.117 1019.63 613.302C1019.63 613.303 1019.63 613.302 1019.63 613.302L1000.18 645.6Z" fill="#FCA354"/>
<path fill-rule="evenodd" clip-rule="evenodd" d="M1080.09 645.6C1065.09 670.466 1065.09 697.095 1080.09 721.981L1038.72 728.586C1021.13 699.4 1021.12 668.165 1038.72 638.994C1038.72 638.994 1038.72 638.994 1038.72 638.994C1038.72 638.993 1038.72 638.992 1038.72 638.991L1058.17 606.7C1073.17 581.813 1073.17 555.183 1058.18 530.317L1058.17 530.314L1038.72 498.021C1038.72 498.021 1038.72 498.021 1038.72 498.021C1021.13 468.835 1021.12 437.6 1038.72 408.429C1038.72 408.428 1038.72 408.427 1038.72 408.426L1058.17 376.135C1073.17 351.249 1073.17 324.618 1058.18 299.752L1058.17 299.749L1038.72 267.456C1038.72 267.456 1038.72 267.457 1038.72 267.456C1021.13 238.27 1021.12 207.035 1038.72 177.864C1038.72 177.863 1038.72 177.862 1038.72 177.861L1058.17 145.57C1073.17 120.684 1073.17 94.0536 1058.18 69.1874L1058.17 69.1844L1038.72 36.8914C1038.72 36.891 1038.72 36.8917 1038.72 36.8914C1021.13 7.70442 1021.12 -23.5318 1038.72 -52.7034L1080.09 -46.0949C1065.09 -21.2288 1065.09 5.40015 1080.09 30.2868L1099.55 62.5789C1099.55 62.58 1099.55 62.5809 1099.55 62.582C1117.14 91.753 1117.14 122.988 1099.55 152.174L1080.09 184.467L1080.09 184.47C1065.09 209.336 1065.09 235.965 1080.09 260.852L1099.55 293.144C1099.55 293.145 1099.55 293.146 1099.55 293.147C1117.14 322.318 1117.14 353.552 1099.55 382.738C1099.55 382.738 1099.55 382.737 1099.55 382.738L1080.09 415.035C1065.09 439.901 1065.09 466.53 1080.09 491.417L1099.55 523.709C1099.55 523.71 1099.55 523.711 1099.55 523.712C1117.14 552.882 1117.14 584.117 1099.55 613.302C1099.55 613.303 1099.55 613.302 1099.55 613.302L1080.09 645.6Z" fill="#FCA354"/>
<path fill-rule="evenodd" clip-rule="evenodd" d="M1160 645.6C1145.01 670.466 1145 697.095 1160 721.981L1118.63 728.586C1101.04 699.4 1101.04 668.165 1118.63 638.994C1118.63 638.994 1118.63 638.994 1118.63 638.994C1118.63 638.993 1118.63 638.992 1118.63 638.991L1138.09 606.7C1153.09 581.813 1153.09 555.183 1138.09 530.317L1138.09 530.314L1118.63 498.021C1118.63 498.021 1118.63 498.021 1118.63 498.021C1101.04 468.835 1101.04 437.6 1118.63 408.429C1118.63 408.428 1118.63 408.427 1118.63 408.426L1138.09 376.135C1153.09 351.249 1153.09 324.618 1138.09 299.752L1138.09 299.749L1118.63 267.456C1118.63 267.456 1118.63 267.457 1118.63 267.456C1101.04 238.27 1101.04 207.035 1118.63 177.864C1118.63 177.863 1118.63 177.862 1118.63 177.861L1138.09 145.57C1153.09 120.684 1153.09 94.0536 1138.09 69.1874L1138.09 69.1844L1118.63 36.8914C1118.63 36.891 1118.63 36.8917 1118.63 36.8914C1101.04 7.70442 1101.04 -23.5318 1118.63 -52.7034L1160 -46.0949C1145.01 -21.2288 1145 5.40015 1160 30.2868L1179.46 62.5789C1179.46 62.58 1179.46 62.5809 1179.46 62.582C1197.06 91.753 1197.05 122.988 1179.46 152.174L1160.01 184.467L1160 184.47C1145.01 209.336 1145 235.965 1160 260.852L1179.46 293.144C1179.46 293.145 1179.46 293.146 1179.46 293.147C1197.05 322.318 1197.05 353.552 1179.46 382.738C1179.46 382.738 1179.46 382.737 1179.46 382.738L1160 415.035C1145.01 439.901 1145 466.53 1160 491.417L1179.46 523.709C1179.46 523.71 1179.46 523.711 1179.46 523.712C1197.05 552.882 1197.05 584.117 1179.46 613.302C1179.46 613.303 1179.46 613.302 1179.46 613.302L1160 645.6Z" fill="#FCA354"/>
<path fill-rule="evenodd" clip-rule="evenodd" d="M1239.92 645.6C1224.92 670.466 1224.92 697.095 1239.92 721.981L1198.55 728.586C1180.96 699.4 1180.96 668.165 1198.55 638.994C1198.55 638.994 1198.55 638.994 1198.55 638.994C1198.55 638.993 1198.55 638.992 1198.55 638.991L1218.01 606.7C1233.01 581.813 1233.01 555.183 1218.01 530.317L1218.01 530.314L1198.55 498.021C1198.55 498.021 1198.55 498.021 1198.55 498.021C1180.96 468.835 1180.96 437.6 1198.55 408.429C1198.55 408.428 1198.55 408.427 1198.55 408.426L1218.01 376.135C1233.01 351.249 1233.01 324.618 1218.01 299.752L1218.01 299.749L1198.55 267.456C1198.55 267.456 1198.55 267.457 1198.55 267.456C1180.96 238.27 1180.96 207.035 1198.55 177.864C1198.55 177.863 1198.55 177.862 1198.55 177.861L1218.01 145.57C1233.01 120.684 1233.01 94.0536 1218.01 69.1874L1218.01 69.1844L1198.55 36.8914C1198.55 36.891 1198.55 36.8917 1198.55 36.8914C1180.96 7.70442 1180.96 -23.5318 1198.55 -52.7034L1239.92 -46.0949C1224.92 -21.2288 1224.92 5.40015 1239.92 30.2868L1259.38 62.5789C1259.38 62.58 1259.38 62.5809 1259.38 62.582C1276.97 91.753 1276.97 122.988 1259.38 152.174L1239.92 184.467L1239.92 184.47C1224.92 209.336 1224.92 235.965 1239.92 260.852L1259.38 293.144C1259.38 293.145 1259.38 293.146 1259.38 293.147C1276.97 322.318 1276.97 353.552 1259.38 382.738C1259.38 382.738 1259.38 382.737 1259.38 382.738L1239.92 415.035C1224.92 439.901 1224.92 466.53 1239.92 491.417L1259.38 523.709C1259.38 523.71 1259.38 523.711 1259.38 523.712C1276.97 552.882 1276.97 584.117 1259.38 613.302C1259.38 613.303 1259.38 613.302 1259.38 613.302L1239.92 645.6Z" fill="#FCA354"/>
<circle cx="394" cy="228" r="147" fill="#A53900"/>
</g>
<defs>
<clipPath id="clip0_6_1940">
<rect width="1200" height="675" fill="white"/>
</clipPath>
</defs>
</svg>
