<svg width="1184" height="666" viewBox="0 0 1184 666" fill="none" xmlns="http://www.w3.org/2000/svg">
<g clip-path="url(#clip0_1_3933)">
<rect width="1184" height="666" fill="#F4F4EF"/>
<path d="M1113 668C1113 380.26 879.741 147 592 147C304.26 147 71 380.26 71 668L1113 668Z" fill="#FFD4D8"/>
<circle cx="592.5" cy="649.5" r="129.5" fill="#FCA354"/>
<path fill-rule="evenodd" clip-rule="evenodd" d="M592 867C712.398 867 810 769.622 810 649.5C810 529.378 712.398 432 592 432C471.602 432 374 529.378 374 649.5C374 769.622 471.602 867 592 867ZM592 828.618C691.151 828.618 771.529 748.424 771.529 649.5C771.529 550.576 691.151 470.382 592 470.382C492.849 470.382 412.471 550.576 412.471 649.5C412.471 748.424 492.849 828.618 592 828.618Z" fill="#393A3D"/>
<path fill-rule="evenodd" clip-rule="evenodd" d="M-137 373.115C-127.778 371.032 -118.634 368.023 -109.639 364.087L-65.7526 344.888C-30.4988 329.45 7.25361 329.45 42.5336 344.889L86.4186 364.087C124.597 380.805 165.479 380.804 203.68 364.086L247.566 344.888C282.82 329.45 320.572 329.45 355.852 344.889L399.738 364.087C437.916 380.805 478.797 380.804 516.999 364.086L512.511 343.676C477.231 359.115 439.48 359.114 404.226 343.676L360.339 324.477C322.137 307.76 281.255 307.759 243.076 324.478L199.192 343.676C163.912 359.115 126.159 359.113 90.9047 343.676L47.0197 324.477C8.81788 307.76 -32.0636 307.759 -70.2428 324.478L-114.127 343.676C-121.655 346.97 -129.295 349.562 -137 351.45L-137 373.115Z" fill="#FCA354"/>
<path fill-rule="evenodd" clip-rule="evenodd" d="M-137 308.881C-127.778 306.798 -118.634 303.789 -109.639 299.852L-65.7526 280.653C-30.4988 265.216 7.25361 265.215 42.5336 280.654L86.4186 299.852C124.597 316.57 165.479 316.569 203.68 299.852L247.566 280.653C282.82 265.216 320.572 265.215 355.852 280.654L399.738 299.852C437.916 316.571 478.797 316.57 516.999 299.852L512.511 279.441C477.231 294.881 439.48 294.88 404.226 279.442L360.339 260.243C322.137 243.526 281.255 243.525 243.076 260.244L199.192 279.441C163.912 294.881 126.159 294.879 90.9047 279.441L47.0197 260.243C8.81788 243.526 -32.0636 243.525 -70.2428 260.244L-114.127 279.442C-121.655 282.736 -129.295 285.327 -137 287.216L-137 308.881Z" fill="#FCA354"/>
<path fill-rule="evenodd" clip-rule="evenodd" d="M-137 244.646C-127.778 242.564 -118.634 239.554 -109.639 235.618L-65.7526 216.419C-30.4988 200.981 7.25358 200.981 42.5336 216.42L86.4186 235.618C124.597 252.336 165.479 252.335 203.68 235.618L247.566 216.419C282.82 200.981 320.572 200.981 355.852 216.42L399.737 235.618C437.916 252.336 478.797 252.335 516.999 235.618L512.511 215.207C477.231 230.646 439.479 230.646 404.226 215.208L360.339 196.009C322.137 179.291 281.255 179.291 243.076 196.01L199.192 215.207C163.912 230.646 126.159 230.645 90.9047 215.207L47.0197 196.009C8.81785 179.291 -32.0636 179.291 -70.2429 196.01L-114.127 215.207C-121.655 218.501 -129.295 221.093 -137 222.981L-137 244.646Z" fill="#FCA354"/>
<path fill-rule="evenodd" clip-rule="evenodd" d="M-137 180.412C-127.778 178.329 -118.634 175.32 -109.639 171.383L-65.7526 152.185C-30.4988 136.747 7.25358 136.746 42.5336 152.186L86.4186 171.384C124.597 188.102 165.479 188.101 203.68 171.383L247.566 152.185C282.82 136.747 320.572 136.746 355.852 152.186L399.737 171.384C437.916 188.102 478.797 188.101 516.999 171.383L512.511 150.973C477.231 166.412 439.479 166.411 404.226 150.973L360.339 131.774C322.137 115.057 281.255 115.056 243.076 131.775L199.192 150.973C163.912 166.412 126.159 166.41 90.9047 150.972L47.0197 131.774C8.81785 115.057 -32.0636 115.056 -70.2429 131.775L-114.127 150.973C-121.655 154.267 -129.295 156.858 -137 158.747L-137 180.412Z" fill="#FCA354"/>
<path fill-rule="evenodd" clip-rule="evenodd" d="M-137 116.178C-127.778 114.095 -118.634 111.085 -109.639 107.149L-65.7526 87.9503C-30.4988 72.5124 7.25358 72.5121 42.5336 87.9512L86.4186 107.149C124.597 123.867 165.479 123.866 203.68 107.149L247.566 87.9503C282.82 72.5124 320.572 72.5121 355.852 87.9511L399.737 107.149C437.916 123.867 478.797 123.866 516.999 107.149L512.511 86.7383C477.231 102.177 439.479 102.177 404.226 86.7389L360.339 67.5399C322.137 50.8224 281.255 50.8219 243.076 67.5408L199.192 86.7384C163.912 102.177 126.159 102.176 90.9047 86.7381L47.0197 67.5399C8.81785 50.8224 -32.0636 50.8219 -70.2429 67.5408L-114.127 86.7384C-121.655 90.0327 -129.295 92.6241 -137 94.5124L-137 116.178Z" fill="#FCA354"/>
<rect x="952" y="547.082" width="89.2705" height="89.2705" transform="rotate(-90 952 547.082)" fill="#A53900"/>
<rect x="952" y="419.812" width="89.2705" height="89.2705" transform="rotate(-90 952 419.812)" fill="#A53900"/>
<rect x="952" y="292.539" width="89.2705" height="89.2705" transform="rotate(-90 952 292.539)" fill="#A53900"/>
<rect x="952" y="165.27" width="89.2705" height="89.2705" transform="rotate(-90 952 165.27)" fill="#A53900"/>
</g>
<defs>
<clipPath id="clip0_1_3933">
<rect width="1184" height="666" fill="white"/>
</clipPath>
</defs>
</svg>
