<svg width="1200" height="675" viewBox="0 0 1200 675" fill="none" xmlns="http://www.w3.org/2000/svg">
<g clip-path="url(#clip0_6_4170)">
<rect width="1200" height="675" rx="12" fill="#F4F4EF"/>
<rect x="506" width="678" height="674" fill="#C2F5FF"/>
<path d="M1047 337L1195.5 251.263L1195.5 422.737L1047 337Z" fill="#393A3D"/>
<circle cx="3.57829" cy="337.141" r="54.1408" fill="#B496FF"/>
<circle cx="172.016" cy="337.141" r="54.1408" fill="#B496FF"/>
<circle cx="340.453" cy="337.141" r="54.1408" fill="#B496FF"/>
<circle cx="508.895" cy="337.141" r="54.1408" fill="#393A3D"/>
<circle cx="677.332" cy="337.141" r="54.1408" fill="#B496FF"/>
<circle cx="780.777" cy="533.898" r="25.7769" fill="#6100C2"/>
<circle cx="860.972" cy="533.898" r="25.7769" fill="#B496FF"/>
<circle cx="941.168" cy="533.898" r="25.7769" fill="#6100C2"/>
<circle cx="1021.36" cy="533.898" r="25.7769" fill="#B496FF"/>
<circle cx="1101.56" cy="533.898" r="25.7769" fill="#6100C2"/>
<circle cx="1181.75" cy="533.898" r="25.7769" fill="#B496FF"/>
<circle cx="780.777" cy="131.777" r="25.7769" fill="#6100C2"/>
<circle cx="860.972" cy="131.777" r="25.7769" fill="#B496FF"/>
<circle cx="941.168" cy="131.777" r="25.7769" fill="#6100C2"/>
<circle cx="1021.36" cy="131.777" r="25.7769" fill="#B496FF"/>
<circle cx="1101.56" cy="131.777" r="25.7769" fill="#6100C2"/>
<circle cx="1181.75" cy="131.777" r="25.7769" fill="#B496FF"/>
</g>
<defs>
<clipPath id="clip0_6_4170">
<rect width="1200" height="675" rx="12" fill="white"/>
</clipPath>
</defs>
</svg>
