<svg width="1184" height="666" viewBox="0 0 1184 666" fill="none" xmlns="http://www.w3.org/2000/svg">
<g clip-path="url(#clip0_1_220)">
<rect width="1184" height="666" fill="#F4F4EF"/>
<rect x="592" width="592" height="674" fill="#C2F5FF"/>
<circle cx="1269.55" cy="332.553" r="249.553" fill="#6100C2"/>
<path fill-rule="evenodd" clip-rule="evenodd" d="M-0.446634 583.001C137.378 583.001 249.107 471.272 249.107 333.448C249.107 195.623 137.378 83.8945 -0.446634 83.8945C-138.271 83.8945 -250 195.623 -250 333.448C-250 471.272 -138.271 583.001 -0.446634 583.001ZM-0.446634 485.137C83.329 485.137 151.243 417.224 151.243 333.448C151.243 249.672 83.329 181.759 -0.446634 181.759C-84.2223 181.759 -152.136 249.672 -152.136 333.448C-152.136 417.224 -84.2223 485.137 -0.446634 485.137Z" fill="#6100C2"/>
<path fill-rule="evenodd" clip-rule="evenodd" d="M592.5 469C667.335 469 728 408.335 728 333.5C728 258.665 667.335 198 592.5 198C517.665 198 457 258.665 457 333.5C457 408.335 517.665 469 592.5 469ZM592.5 445.088C654.129 445.088 704.088 395.129 704.088 333.5C704.088 271.871 654.129 221.912 592.5 221.912C530.871 221.912 480.912 271.871 480.912 333.5C480.912 395.129 530.871 445.088 592.5 445.088Z" fill="#B496FF"/>
<circle cx="592.5" cy="333.5" r="57.5" fill="#393A3D"/>
</g>
<defs>
<clipPath id="clip0_1_220">
<rect width="1184" height="666" fill="white"/>
</clipPath>
</defs>
</svg>
