<svg width="1200" height="675" viewBox="0 0 1200 675" fill="none" xmlns="http://www.w3.org/2000/svg">
<rect width="1200" height="675" fill="#F4F4EF"/>
<rect width="592" height="674" fill="#C2F5FF"/>
<path fill-rule="evenodd" clip-rule="evenodd" d="M336.892 237.771C314.587 227.989 290.701 227.988 268.378 237.772L265.539 224.838C289.71 214.244 315.576 214.244 339.732 224.838C339.732 224.838 339.732 224.838 339.732 224.838L367.499 237.003C389.821 246.787 413.707 246.786 436.013 237.004L463.781 224.838C463.781 224.838 463.781 224.838 463.781 224.838C487.951 214.245 513.817 214.244 537.974 224.838C537.974 224.838 537.973 224.838 537.974 224.838L565.74 237.003C588.062 246.787 611.949 246.786 634.255 237.004L662.022 224.838C662.022 224.838 662.022 224.838 662.022 224.838C686.193 214.245 712.059 214.244 736.215 224.838C736.216 224.838 736.215 224.838 736.215 224.838L763.982 237.003C786.304 246.787 810.191 246.786 832.496 237.004L860.264 224.838C884.435 214.244 910.301 214.244 934.458 224.838L931.617 237.771C909.311 227.989 885.425 227.988 863.103 237.772L835.337 249.937C835.337 249.937 835.338 249.937 835.337 249.937C811.181 260.531 785.313 260.531 761.143 249.937L733.377 237.772C711.071 227.989 687.184 227.988 664.862 237.772L637.096 249.937C612.939 260.531 587.073 260.531 562.902 249.937C562.902 249.937 562.902 249.937 562.902 249.937L535.135 237.772C512.829 227.989 488.942 227.988 466.62 237.772L438.854 249.937C414.697 260.531 388.831 260.531 364.66 249.937C364.66 249.937 364.66 249.937 364.66 249.937L336.892 237.771Z" fill="#393A3D"/>
<path fill-rule="evenodd" clip-rule="evenodd" d="M336.892 287.736C314.587 277.954 290.701 277.953 268.378 287.737L265.539 274.803C289.71 264.209 315.576 264.209 339.732 274.803C339.732 274.803 339.732 274.802 339.732 274.803L367.499 286.968C389.821 296.751 413.707 296.751 436.013 286.969L463.781 274.803C463.781 274.803 463.781 274.803 463.781 274.803C487.951 264.209 513.817 264.209 537.974 274.803C537.974 274.803 537.973 274.802 537.974 274.803L565.74 286.968C588.062 296.751 611.949 296.751 634.255 286.969L662.022 274.803C662.022 274.803 662.022 274.803 662.022 274.803C686.193 264.209 712.059 264.209 736.215 274.803C736.216 274.803 736.215 274.802 736.215 274.803L763.982 286.968C786.304 296.751 810.191 296.751 832.496 286.969L860.264 274.803C884.435 264.209 910.301 264.209 934.458 274.803L931.617 287.736C909.311 277.954 885.425 277.953 863.103 287.737L835.337 299.902C835.337 299.902 835.338 299.901 835.337 299.902C811.181 310.495 785.313 310.495 761.143 299.902L733.377 287.737C711.071 277.954 687.184 277.953 664.862 287.737L637.096 299.902C612.939 310.496 587.073 310.496 562.902 299.902C562.902 299.902 562.902 299.902 562.902 299.902L535.135 287.737C512.829 277.954 488.942 277.953 466.62 287.737L438.854 299.902C414.697 310.496 388.831 310.496 364.66 299.902C364.66 299.902 364.66 299.902 364.66 299.902L336.892 287.736Z" fill="#393A3D"/>
<path fill-rule="evenodd" clip-rule="evenodd" d="M336.892 337.701C314.587 327.918 290.701 327.918 268.378 337.701L265.539 324.768C289.71 314.174 315.576 314.174 339.732 324.767C339.732 324.768 339.732 324.767 339.732 324.767L367.499 336.933C389.821 346.716 413.707 346.716 436.013 336.933L463.781 324.768C463.781 324.768 463.781 324.768 463.781 324.768C487.951 314.174 513.817 314.174 537.974 324.767C537.974 324.768 537.973 324.767 537.974 324.767L565.74 336.933C588.062 346.716 611.949 346.716 634.255 336.933L662.022 324.768C662.022 324.768 662.022 324.768 662.022 324.768C686.193 314.174 712.059 314.174 736.215 324.767C736.216 324.768 736.215 324.767 736.215 324.767L763.982 336.933C786.304 346.716 810.191 346.716 832.496 336.933L860.264 324.768C884.435 314.174 910.301 314.174 934.458 324.768L931.617 337.701C909.311 327.918 885.425 327.918 863.103 337.701L835.337 349.866C835.337 349.867 835.338 349.866 835.337 349.866C811.181 360.46 785.313 360.46 761.143 349.867L733.377 337.702C711.071 327.919 687.184 327.918 664.862 337.701L637.096 349.866C612.939 360.461 587.073 360.46 562.902 349.867C562.902 349.867 562.902 349.867 562.902 349.867L535.135 337.702C512.829 327.919 488.942 327.918 466.62 337.701L438.854 349.866C414.697 360.461 388.831 360.46 364.66 349.867C364.66 349.867 364.66 349.867 364.66 349.867L336.892 337.701Z" fill="#393A3D"/>
<path fill-rule="evenodd" clip-rule="evenodd" d="M336.892 387.771C314.587 377.989 290.701 377.988 268.378 387.772L265.539 374.838C289.71 364.244 315.576 364.244 339.732 374.838C339.732 374.838 339.732 374.838 339.732 374.838L367.499 387.003C389.821 396.787 413.707 396.786 436.013 387.004L463.781 374.838C463.781 374.838 463.781 374.838 463.781 374.838C487.951 364.245 513.817 364.244 537.974 374.838C537.974 374.838 537.973 374.838 537.974 374.838L565.74 387.003C588.062 396.787 611.949 396.786 634.255 387.004L662.022 374.838C662.022 374.838 662.022 374.838 662.022 374.838C686.193 364.245 712.059 364.244 736.215 374.838C736.216 374.838 736.215 374.838 736.215 374.838L763.982 387.003C786.304 396.787 810.191 396.786 832.496 387.004L860.264 374.838C884.435 364.244 910.301 364.244 934.458 374.838L931.617 387.771C909.311 377.989 885.425 377.988 863.103 387.772L835.337 399.937C835.337 399.937 835.338 399.937 835.337 399.937C811.181 410.531 785.313 410.531 761.143 399.937L733.377 387.772C711.071 377.989 687.184 377.988 664.862 387.772L637.096 399.937C612.939 410.531 587.073 410.531 562.902 399.937C562.902 399.937 562.902 399.937 562.902 399.937L535.135 387.772C512.829 377.989 488.942 377.988 466.62 387.772L438.854 399.937C414.697 410.531 388.831 410.531 364.66 399.937C364.66 399.937 364.66 399.937 364.66 399.937L336.892 387.771Z" fill="#393A3D"/>
<path fill-rule="evenodd" clip-rule="evenodd" d="M336.892 437.631C314.587 427.848 290.701 427.848 268.378 437.631L265.539 424.697C289.71 414.104 315.576 414.103 339.732 424.697C339.732 424.697 339.732 424.697 339.732 424.697L367.499 436.863C389.821 446.646 413.707 446.646 436.013 436.863L463.781 424.697C463.781 424.697 463.781 424.697 463.781 424.697C487.951 414.104 513.817 414.103 537.974 424.697C537.974 424.697 537.973 424.697 537.974 424.697L565.74 436.863C588.062 446.646 611.949 446.646 634.255 436.863L662.022 424.697C662.022 424.697 662.022 424.697 662.022 424.697C686.193 414.104 712.059 414.103 736.215 424.697C736.216 424.697 736.215 424.697 736.215 424.697L763.982 436.863C786.304 446.646 810.191 446.646 832.496 436.863L860.264 424.697C884.435 414.104 910.301 414.103 934.458 424.698L931.617 437.631C909.311 427.848 885.425 427.848 863.103 437.631L835.337 449.796C835.337 449.796 835.338 449.796 835.337 449.796C811.181 460.39 785.313 460.39 761.143 449.796L733.377 437.631C711.071 427.849 687.184 427.848 664.862 437.631L637.096 449.796C612.939 460.39 587.073 460.39 562.902 449.797C562.902 449.797 562.902 449.797 562.902 449.797L535.135 437.631C512.829 427.849 488.942 427.848 466.62 437.631L438.854 449.796C414.697 460.39 388.831 460.39 364.66 449.797C364.66 449.797 364.66 449.797 364.66 449.797L336.892 437.631Z" fill="#393A3D"/>
<circle cx="592.5" cy="543.5" r="57.5" fill="#B496FF"/>
<circle cx="592.5" cy="122.5" r="57.5" fill="#6100C2"/>
</svg>
