<svg width="1184" height="666" viewBox="0 0 1184 666" fill="none" xmlns="http://www.w3.org/2000/svg">
<g clip-path="url(#clip0_1_463)">
<rect width="1184" height="666" fill="#F4F4EF"/>
<rect x="788" width="396" height="674" fill="#C2F5FF"/>
<path fill-rule="evenodd" clip-rule="evenodd" d="M675.538 -3.68824C634.326 -37.5554 590.192 -37.5582 548.946 -3.68552L538 -97.1149C586.372 -136.84 638.138 -136.844 686.485 -97.1163C686.486 -97.116 686.485 -97.1166 686.485 -97.1163C686.487 -97.1153 686.489 -97.1132 686.49 -97.1122L740.008 -53.1767C781.254 -19.304 825.389 -19.3054 866.601 -53.1726L866.606 -53.1767L920.127 -97.1149C920.128 -97.1154 920.127 -97.1144 920.127 -97.1149C968.499 -136.838 1020.27 -136.843 1068.61 -97.1163C1068.61 -97.1149 1068.62 -97.1136 1068.62 -97.1122L1122.14 -53.1767C1163.38 -19.304 1207.52 -19.3054 1248.73 -53.1726L1248.73 -53.1767L1302.25 -97.1149C1302.26 -97.1154 1302.25 -97.1144 1302.25 -97.1149C1350.63 -136.838 1402.39 -136.843 1450.74 -97.1163C1450.74 -97.1149 1450.74 -97.1136 1450.74 -97.1122L1504.26 -53.1767C1545.51 -19.304 1589.64 -19.3054 1630.86 -53.1726L1630.86 -53.1767L1684.38 -97.1149C1684.38 -97.1154 1684.38 -97.1144 1684.38 -97.1149C1732.76 -136.84 1784.52 -136.843 1832.87 -97.1122L1821.92 -3.68824C1780.71 -37.5554 1736.57 -37.5582 1695.33 -3.68552L1641.81 40.2514C1641.81 40.2527 1641.81 40.2541 1641.8 40.2555C1593.46 79.983 1541.69 79.9787 1493.32 40.2541L1439.8 -3.68411L1439.79 -3.68824C1398.58 -37.5554 1354.45 -37.5582 1313.2 -3.68552L1259.68 40.2514C1259.68 40.2527 1259.68 40.2541 1259.68 40.2555C1211.33 79.9825 1159.56 79.9787 1111.19 40.2555C1111.19 40.255 1111.19 40.256 1111.19 40.2555L1057.67 -3.68824C1016.45 -37.5554 972.319 -37.5582 931.073 -3.68552L877.554 40.2514C877.552 40.2527 877.551 40.2541 877.549 40.2555C829.203 79.9825 777.437 79.9787 729.065 40.2555C729.065 40.255 729.066 40.256 729.065 40.2555L675.538 -3.68824Z" fill="#6100C2"/>
<path fill-rule="evenodd" clip-rule="evenodd" d="M675.538 176.777C634.326 142.909 590.192 142.907 548.946 176.779L538 83.3499C586.372 43.6253 638.138 43.6211 686.485 83.3485C686.486 83.3488 686.485 83.3482 686.485 83.3485C686.487 83.3496 686.489 83.3516 686.49 83.3527L740.008 127.288C781.254 161.161 825.389 161.159 866.601 127.292L866.606 127.288L920.127 83.3499C920.128 83.3495 920.127 83.3504 920.127 83.3499C968.499 43.6267 1020.27 43.6215 1068.61 83.3485C1068.61 83.3499 1068.62 83.3513 1068.62 83.3527L1122.14 127.288C1163.38 161.161 1207.52 161.159 1248.73 127.292L1248.73 127.288L1302.25 83.3499C1302.26 83.3495 1302.25 83.3504 1302.25 83.3499C1350.63 43.6267 1402.39 43.6215 1450.74 83.3485C1450.74 83.3499 1450.74 83.3513 1450.74 83.3527L1504.26 127.288C1545.51 161.161 1589.64 161.159 1630.86 127.292L1630.86 127.288L1684.38 83.3499C1684.38 83.3495 1684.38 83.3504 1684.38 83.3499C1732.76 43.6253 1784.52 43.6215 1832.87 83.3527L1821.92 176.777C1780.71 142.909 1736.57 142.907 1695.33 176.779L1641.81 220.716C1641.81 220.718 1641.81 220.719 1641.8 220.72C1593.46 260.448 1541.69 260.444 1493.32 220.719L1439.8 176.781L1439.79 176.777C1398.58 142.909 1354.45 142.907 1313.2 176.779L1259.68 220.716C1259.68 220.718 1259.68 220.719 1259.68 220.72C1211.33 260.447 1159.56 260.444 1111.19 220.72C1111.19 220.72 1111.19 220.721 1111.19 220.72L1057.67 176.777C1016.45 142.909 972.319 142.907 931.073 176.779L877.554 220.716C877.552 220.718 877.551 220.719 877.549 220.72C829.203 260.447 777.437 260.444 729.065 220.72C729.065 220.72 729.066 220.721 729.065 220.72L675.538 176.777Z" fill="#6100C2"/>
<path fill-rule="evenodd" clip-rule="evenodd" d="M675.538 357.245C634.326 323.378 590.192 323.375 548.946 357.248L538 263.819C586.372 224.094 638.138 224.09 686.485 263.817C686.486 263.818 686.485 263.817 686.485 263.817C686.487 263.818 686.489 263.82 686.49 263.821L740.008 307.757C781.254 341.63 825.389 341.628 866.601 307.761L866.606 307.757L920.127 263.819C920.128 263.818 920.127 263.819 920.127 263.819C968.499 224.095 1020.27 224.09 1068.61 263.817C1068.61 263.819 1068.62 263.82 1068.62 263.821L1122.14 307.757C1163.38 341.63 1207.52 341.628 1248.73 307.761L1248.73 307.757L1302.25 263.819C1302.26 263.818 1302.25 263.819 1302.25 263.819C1350.63 224.095 1402.39 224.09 1450.74 263.817C1450.74 263.819 1450.74 263.82 1450.74 263.821L1504.26 307.757C1545.51 341.63 1589.64 341.628 1630.86 307.761L1630.86 307.757L1684.38 263.819C1684.38 263.818 1684.38 263.819 1684.38 263.819C1732.76 224.094 1784.52 224.09 1832.87 263.821L1821.92 357.245C1780.71 323.378 1736.57 323.375 1695.33 357.248L1641.81 401.185C1641.81 401.186 1641.81 401.188 1641.8 401.189C1593.46 440.917 1541.69 440.912 1493.32 401.188L1439.8 357.249L1439.79 357.245C1398.58 323.378 1354.45 323.375 1313.2 357.248L1259.68 401.185C1259.68 401.186 1259.68 401.188 1259.68 401.189C1211.33 440.916 1159.56 440.912 1111.19 401.189C1111.19 401.189 1111.19 401.19 1111.19 401.189L1057.67 357.245C1016.45 323.378 972.319 323.375 931.073 357.248L877.554 401.185C877.552 401.186 877.551 401.188 877.549 401.189C829.203 440.916 777.437 440.912 729.065 401.189C729.065 401.189 729.066 401.19 729.065 401.189L675.538 357.245Z" fill="#6100C2"/>
<path fill-rule="evenodd" clip-rule="evenodd" d="M675.538 537.71C634.326 503.843 590.192 503.84 548.946 537.713L538 444.284C586.372 404.559 638.138 404.555 686.485 444.282C686.486 444.282 686.485 444.282 686.485 444.282C686.487 444.283 686.489 444.285 686.49 444.286L740.008 488.222C781.254 522.094 825.389 522.093 866.601 488.226L866.606 488.222L920.127 444.284C920.128 444.283 920.127 444.284 920.127 444.284C968.499 404.56 1020.27 404.555 1068.61 444.282C1068.61 444.284 1068.62 444.285 1068.62 444.286L1122.14 488.222C1163.38 522.094 1207.52 522.093 1248.73 488.226L1248.73 488.222L1302.25 444.284C1302.26 444.283 1302.25 444.284 1302.25 444.284C1350.63 404.56 1402.39 404.555 1450.74 444.282C1450.74 444.283 1450.74 444.285 1450.74 444.286L1504.26 488.222C1545.51 522.094 1589.64 522.093 1630.86 488.226L1630.86 488.222L1684.38 444.284C1684.38 444.283 1684.38 444.284 1684.38 444.284C1732.76 404.559 1784.52 404.555 1832.87 444.286L1821.92 537.71C1780.71 503.843 1736.57 503.84 1695.33 537.713L1641.81 581.65C1641.81 581.651 1641.81 581.653 1641.8 581.654C1593.46 621.381 1541.69 621.377 1493.32 581.653L1439.8 537.714L1439.79 537.71C1398.58 503.843 1354.45 503.84 1313.2 537.713L1259.68 581.65C1259.68 581.651 1259.68 581.653 1259.68 581.654C1211.33 621.381 1159.56 621.377 1111.19 581.654C1111.19 581.653 1111.19 581.654 1111.19 581.654L1057.67 537.71C1016.45 503.843 972.319 503.84 931.073 537.713L877.554 581.65C877.552 581.651 877.551 581.653 877.549 581.654C829.203 621.381 777.437 621.377 729.065 581.654C729.065 581.653 729.066 581.654 729.065 581.654L675.538 537.71Z" fill="#6100C2"/>
<path fill-rule="evenodd" clip-rule="evenodd" d="M675.538 718.175C634.326 684.308 590.192 684.305 548.946 718.178L538 624.748C586.372 585.024 638.138 585.02 686.485 624.747C686.486 624.747 686.485 624.747 686.485 624.747C686.487 624.748 686.489 624.75 686.49 624.751L740.008 668.687C781.254 702.559 825.389 702.558 866.601 668.691L866.606 668.687L920.127 624.748C920.128 624.748 920.127 624.749 920.127 624.748C968.499 585.025 1020.27 585.02 1068.61 624.747C1068.61 624.748 1068.62 624.75 1068.62 624.751L1122.14 668.687C1163.38 702.559 1207.52 702.558 1248.73 668.691L1248.73 668.687L1302.25 624.748C1302.26 624.748 1302.25 624.749 1302.25 624.748C1350.63 585.025 1402.39 585.02 1450.74 624.747C1450.74 624.748 1450.74 624.75 1450.74 624.751L1504.26 668.687C1545.51 702.559 1589.64 702.558 1630.86 668.691L1630.86 668.687L1684.38 624.748C1684.38 624.748 1684.38 624.749 1684.38 624.748C1732.76 585.024 1784.52 585.02 1832.87 624.751L1821.92 718.175C1780.71 684.308 1736.57 684.305 1695.33 718.178L1641.81 762.115C1641.81 762.116 1641.81 762.117 1641.8 762.119C1593.46 801.846 1541.69 801.842 1493.32 762.117L1439.8 718.179L1439.79 718.175C1398.58 684.308 1354.45 684.305 1313.2 718.178L1259.68 762.115C1259.68 762.116 1259.68 762.117 1259.68 762.119C1211.33 801.846 1159.56 801.842 1111.19 762.119C1111.19 762.118 1111.19 762.119 1111.19 762.119L1057.67 718.175C1016.45 684.308 972.319 684.305 931.073 718.178L877.554 762.115C877.552 762.116 877.551 762.117 877.549 762.119C829.203 801.846 777.437 801.842 729.065 762.119C729.065 762.118 729.066 762.119 729.065 762.119L675.538 718.175Z" fill="#6100C2"/>
<ellipse cx="384.5" cy="333" rx="30.5" ry="31" fill="#393A3D"/>
<path d="M-0.108299 36.9989L295.783 332.891L-0.108299 628.782V36.9989Z" fill="#B496FF"/>
</g>
<defs>
<clipPath id="clip0_1_463">
<rect width="1184" height="666" fill="white"/>
</clipPath>
</defs>
</svg>
