<svg width="1184" height="666" viewBox="0 0 1184 666" fill="none" xmlns="http://www.w3.org/2000/svg">
<g clip-path="url(#clip0_1_255)">
<rect width="1184" height="666" fill="#F4F4EF"/>
<rect width="592" height="674" fill="#C2F5FF"/>
<path fill-rule="evenodd" clip-rule="evenodd" d="M332.402 234.6C310.394 224.948 286.826 224.948 264.801 234.601L262 221.839C285.848 211.387 311.369 211.387 335.204 221.839C335.204 221.839 335.203 221.839 335.204 221.839L362.6 233.842C384.625 243.495 408.193 243.495 430.201 233.843L457.598 221.839C457.599 221.839 457.598 221.839 457.598 221.839C481.446 211.387 506.968 211.387 530.802 221.839C530.802 221.839 530.802 221.839 530.802 221.839L558.199 233.842C580.223 243.495 603.791 243.495 625.799 233.843L653.197 221.839C653.197 221.839 653.197 221.839 653.197 221.839C677.045 211.387 702.566 211.387 726.4 221.839C726.401 221.839 726.4 221.839 726.4 221.839L753.797 233.842C775.821 243.495 799.389 243.495 821.398 233.843L848.795 221.839C872.644 211.387 898.165 211.387 922 221.84L919.197 234.6C897.189 224.948 873.621 224.948 851.597 234.601L824.201 246.604C824.2 246.604 824.201 246.603 824.201 246.604C800.367 257.056 774.844 257.056 750.996 246.604L723.6 234.601C701.592 224.949 678.023 224.948 655.998 234.601L628.603 246.604C604.768 257.057 579.247 257.056 555.398 246.604C555.398 246.604 555.398 246.604 555.398 246.604L528.001 234.601C505.993 224.949 482.424 224.948 460.4 234.601L433.004 246.604C409.17 257.057 383.648 257.056 359.8 246.604C359.799 246.604 359.8 246.604 359.8 246.604L332.402 234.6Z" fill="#393A3D"/>
<path fill-rule="evenodd" clip-rule="evenodd" d="M332.402 283.897C310.394 274.245 286.826 274.245 264.801 283.898L262 271.136C285.848 260.684 311.369 260.683 335.204 271.136C335.204 271.136 335.203 271.136 335.204 271.136L362.6 283.139C384.625 292.792 408.193 292.792 430.201 283.14L457.598 271.136C457.599 271.136 457.598 271.136 457.598 271.136C481.446 260.684 506.968 260.684 530.802 271.136C530.802 271.136 530.802 271.136 530.802 271.136L558.199 283.139C580.223 292.792 603.791 292.792 625.799 283.14L653.197 271.136C653.197 271.136 653.197 271.136 653.197 271.136C677.045 260.684 702.566 260.684 726.4 271.136C726.401 271.136 726.4 271.136 726.4 271.136L753.797 283.139C775.821 292.792 799.389 292.792 821.398 283.14L848.795 271.136C872.644 260.684 898.165 260.683 922 271.137L919.197 283.897C897.189 274.245 873.621 274.245 851.597 283.898L824.201 295.9C824.2 295.901 824.201 295.9 824.201 295.9C800.367 306.353 774.844 306.353 750.996 295.901L723.6 283.898C701.592 274.246 678.023 274.245 655.998 283.898L628.603 295.9C604.768 306.354 579.247 306.353 555.398 295.901C555.398 295.901 555.398 295.901 555.398 295.901L528.001 283.898C505.993 274.246 482.424 274.245 460.4 283.898L433.004 295.9C409.17 306.354 383.648 306.353 359.8 295.901C359.799 295.901 359.8 295.901 359.8 295.901L332.402 283.897Z" fill="#393A3D"/>
<path fill-rule="evenodd" clip-rule="evenodd" d="M332.402 333.198C310.394 323.546 286.826 323.545 264.801 333.198L262 320.437C285.848 309.985 311.369 309.984 335.204 320.437C335.204 320.437 335.203 320.437 335.204 320.437L362.6 332.44C384.625 342.093 408.193 342.093 430.201 332.441L457.598 320.437C457.599 320.437 457.598 320.437 457.598 320.437C481.446 309.985 506.968 309.984 530.802 320.437C530.802 320.437 530.802 320.437 530.802 320.437L558.199 332.44C580.223 342.093 603.791 342.093 625.799 332.441L653.197 320.437C653.197 320.437 653.197 320.437 653.197 320.437C677.045 309.985 702.566 309.984 726.4 320.437C726.401 320.437 726.4 320.437 726.4 320.437L753.797 332.44C775.821 342.093 799.389 342.093 821.398 332.441L848.795 320.437C872.644 309.985 898.165 309.984 922 320.437L919.197 333.198C897.189 323.546 873.621 323.545 851.597 333.198L824.201 345.201C824.2 345.201 824.201 345.201 824.201 345.201C800.367 355.654 774.844 355.654 750.996 345.202L723.6 333.199C701.592 323.546 678.023 323.545 655.998 333.198L628.603 345.201C604.768 355.654 579.247 355.654 555.398 345.202C555.398 345.202 555.398 345.202 555.398 345.202L528.001 333.199C505.993 323.546 482.424 323.545 460.4 333.198L433.004 345.201C409.17 355.654 383.648 355.654 359.8 345.202C359.799 345.202 359.8 345.202 359.8 345.202L332.402 333.198Z" fill="#393A3D"/>
<path fill-rule="evenodd" clip-rule="evenodd" d="M332.402 382.6C310.394 372.948 286.826 372.948 264.801 382.601L262 369.839C285.848 359.387 311.369 359.387 335.204 369.839C335.204 369.839 335.203 369.839 335.204 369.839L362.6 381.842C384.625 391.495 408.193 391.495 430.201 381.843L457.598 369.839C457.599 369.839 457.598 369.839 457.598 369.839C481.446 359.387 506.968 359.387 530.802 369.839C530.802 369.839 530.802 369.839 530.802 369.839L558.199 381.842C580.223 391.495 603.791 391.495 625.799 381.843L653.197 369.839C653.197 369.839 653.197 369.839 653.197 369.839C677.045 359.387 702.566 359.387 726.4 369.839C726.401 369.839 726.4 369.839 726.4 369.839L753.797 381.842C775.821 391.495 799.389 391.495 821.398 381.843L848.795 369.839C872.644 359.387 898.165 359.387 922 369.84L919.197 382.6C897.189 372.948 873.621 372.948 851.597 382.601L824.201 394.604C824.2 394.604 824.201 394.603 824.201 394.604C800.367 405.056 774.844 405.056 750.996 394.604L723.6 382.601C701.592 372.949 678.023 372.948 655.998 382.601L628.603 394.604C604.768 405.057 579.247 405.056 555.398 394.604C555.398 394.604 555.398 394.604 555.398 394.604L528.001 382.601C505.993 372.949 482.424 372.948 460.4 382.601L433.004 394.604C409.17 405.057 383.648 405.056 359.8 394.604C359.799 394.604 359.8 394.604 359.8 394.604L332.402 382.6Z" fill="#393A3D"/>
<path fill-rule="evenodd" clip-rule="evenodd" d="M332.402 431.796C310.394 422.143 286.826 422.143 264.801 431.796L262 419.035C285.848 408.582 311.369 408.582 335.204 419.035C335.204 419.035 335.203 419.034 335.204 419.035L362.6 431.038C384.625 440.691 408.193 440.691 430.201 431.038L457.598 419.035C457.599 419.035 457.598 419.035 457.598 419.035C481.446 408.583 506.968 408.582 530.802 419.035C530.802 419.035 530.802 419.034 530.802 419.035L558.199 431.038C580.223 440.691 603.791 440.691 625.799 431.038L653.197 419.035C653.197 419.035 653.197 419.035 653.197 419.035C677.045 408.583 702.566 408.582 726.4 419.035C726.401 419.035 726.4 419.034 726.4 419.035L753.797 431.038C775.821 440.691 799.389 440.691 821.398 431.038L848.795 419.035C872.644 408.582 898.165 408.582 922 419.035L919.197 431.796C897.189 422.143 873.621 422.143 851.597 431.796L824.201 443.799C824.2 443.799 824.201 443.799 824.201 443.799C800.367 454.252 774.844 454.252 750.996 443.799L723.6 431.796C701.592 422.144 678.023 422.143 655.998 431.796L628.603 443.799C604.768 454.252 579.247 454.252 555.398 443.799C555.398 443.799 555.398 443.8 555.398 443.799L528.001 431.796C505.993 422.144 482.424 422.143 460.4 431.796L433.004 443.799C409.17 454.252 383.648 454.252 359.8 443.799C359.799 443.799 359.8 443.8 359.8 443.799L332.402 431.796Z" fill="#393A3D"/>
<circle cx="592.5" cy="543.5" r="57.5" fill="#B496FF"/>
<circle cx="592.5" cy="122.5" r="57.5" fill="#6100C2"/>
</g>
<defs>
<clipPath id="clip0_1_255">
<rect width="1184" height="666" fill="white"/>
</clipPath>
</defs>
</svg>
