<svg width="1184" height="666" viewBox="0 0 1184 666" fill="none" xmlns="http://www.w3.org/2000/svg">
<g clip-path="url(#clip0_1_322)">
<rect width="1184" height="666" fill="#F4F4EF"/>
<rect x="1080" width="123" height="674" fill="#C2F5FF"/>
<ellipse cx="180.5" cy="333.5" rx="488.5" ry="471.5" fill="#C2F5FF"/>
<path d="M831 333.5L1223.25 105.302L1223.25 561.698L831 333.5Z" fill="#6100C2"/>
<path fill-rule="evenodd" clip-rule="evenodd" d="M-226.119 175.949C-251.716 160.511 -279.126 160.51 -304.742 175.949L-308 155.538C-280.263 138.821 -250.581 138.82 -222.86 155.538C-222.86 155.538 -222.861 155.538 -222.86 155.538L-190.997 174.736C-165.381 190.175 -137.971 190.175 -112.374 174.737L-80.5093 155.538C-80.5092 155.538 -80.5095 155.539 -80.5093 155.538C-52.7728 138.821 -23.0901 138.82 4.63023 155.538C4.63073 155.538 4.62973 155.538 4.63023 155.538L36.4937 174.736C62.1094 190.175 89.5201 190.175 115.117 174.737L146.981 155.538C146.981 155.538 146.981 155.539 146.981 155.538C174.718 138.821 204.401 138.82 232.121 155.538C232.121 155.538 232.12 155.538 232.121 155.538L263.984 174.736C289.6 190.175 317.011 190.175 342.608 174.737L374.472 155.538C402.209 138.821 431.892 138.82 459.613 155.539L456.353 175.949C430.756 160.511 403.346 160.51 377.73 175.949L345.868 195.147C345.867 195.147 345.868 195.146 345.868 195.147C318.147 211.865 288.463 211.865 260.727 195.147L228.864 175.949C203.267 160.512 175.855 160.51 150.24 175.949L118.377 195.147C90.6563 211.866 60.9736 211.865 33.2365 195.148C33.2363 195.147 33.2367 195.148 33.2365 195.148L1.37301 175.949C-24.2237 160.512 -51.6355 160.51 -77.2511 175.949L-109.114 195.147C-136.834 211.866 -166.517 211.865 -194.254 195.148C-194.254 195.147 -194.254 195.148 -194.254 195.148L-226.119 175.949Z" fill="#393A3D"/>
<path fill-rule="evenodd" clip-rule="evenodd" d="M-226.119 254.796C-251.716 239.358 -279.126 239.358 -304.742 254.797L-308 234.386C-280.263 217.669 -250.581 217.668 -222.86 234.386C-222.86 234.386 -222.861 234.386 -222.86 234.386L-190.997 253.584C-165.381 269.023 -137.971 269.023 -112.374 253.585L-80.5093 234.386C-80.5092 234.386 -80.5095 234.386 -80.5093 234.386C-52.7728 217.669 -23.0901 217.668 4.63023 234.386C4.63073 234.386 4.62973 234.386 4.63023 234.386L36.4937 253.584C62.1094 269.023 89.5201 269.023 115.117 253.585L146.981 234.386C146.981 234.386 146.981 234.386 146.981 234.386C174.718 217.669 204.401 217.668 232.121 234.386C232.121 234.386 232.12 234.386 232.121 234.386L263.984 253.584C289.6 269.023 317.011 269.023 342.608 253.585L374.472 234.386C402.209 217.668 431.892 217.668 459.613 234.387L456.353 254.796C430.756 239.358 403.346 239.358 377.73 254.797L345.868 273.994C345.867 273.995 345.868 273.994 345.868 273.994C318.147 290.712 288.463 290.712 260.727 273.995L228.864 254.797C203.267 239.359 175.855 239.358 150.24 254.797L118.377 273.994C90.6563 290.713 60.9736 290.713 33.2365 273.995C33.2363 273.995 33.2367 273.995 33.2365 273.995L1.37301 254.797C-24.2237 239.359 -51.6355 239.358 -77.2511 254.797L-109.114 273.994C-136.834 290.713 -166.517 290.713 -194.254 273.995C-194.254 273.995 -194.254 273.995 -194.254 273.995L-226.119 254.796Z" fill="#393A3D"/>
<path fill-rule="evenodd" clip-rule="evenodd" d="M-226.119 333.648C-251.716 318.21 -279.126 318.209 -304.742 333.648L-308 313.238C-280.263 296.52 -250.581 296.519 -222.86 313.237C-222.86 313.238 -222.861 313.237 -222.86 313.237L-190.997 332.436C-165.381 347.875 -137.971 347.874 -112.374 332.436L-80.5093 313.238C-80.5092 313.238 -80.5095 313.238 -80.5093 313.238C-52.7728 296.521 -23.0901 296.519 4.63023 313.237C4.63073 313.238 4.62973 313.237 4.63023 313.237L36.4937 332.436C62.1094 347.875 89.5201 347.874 115.117 332.436L146.981 313.238C146.981 313.238 146.981 313.238 146.981 313.238C174.718 296.521 204.401 296.519 232.121 313.237C232.121 313.238 232.12 313.237 232.121 313.237L263.984 332.436C289.6 347.875 317.011 347.874 342.608 332.436L374.472 313.238C402.209 296.52 431.892 296.519 459.613 313.238L456.353 333.648C430.756 318.21 403.346 318.209 377.73 333.648L345.868 352.846C345.867 352.846 345.868 352.846 345.868 352.846C318.147 369.564 288.463 369.564 260.727 352.847L228.864 333.649C203.267 318.211 175.855 318.209 150.24 333.648L118.377 352.846C90.6563 369.565 60.9736 369.564 33.2365 352.847C33.2363 352.847 33.2367 352.847 33.2365 352.847L1.37301 333.649C-24.2237 318.211 -51.6355 318.209 -77.2511 333.648L-109.114 352.846C-136.834 369.565 -166.517 369.564 -194.254 352.847C-194.254 352.847 -194.254 352.847 -194.254 352.847L-226.119 333.648Z" fill="#393A3D"/>
<path fill-rule="evenodd" clip-rule="evenodd" d="M-226.119 412.495C-251.716 397.058 -279.126 397.057 -304.742 412.496L-308 392.085C-280.263 375.368 -250.581 375.367 -222.86 392.085C-222.86 392.085 -222.861 392.085 -222.86 392.085L-190.997 411.283C-165.381 426.722 -137.971 426.722 -112.374 411.284L-80.5093 392.085C-80.5092 392.085 -80.5095 392.085 -80.5093 392.085C-52.7728 375.368 -23.0901 375.367 4.63023 392.085C4.63073 392.085 4.62973 392.085 4.63023 392.085L36.4937 411.283C62.1094 426.722 89.5201 426.722 115.117 411.284L146.981 392.085C146.981 392.085 146.981 392.085 146.981 392.085C174.718 375.368 204.401 375.367 232.121 392.085C232.121 392.085 232.12 392.085 232.121 392.085L263.984 411.283C289.6 426.722 317.011 426.722 342.608 411.284L374.472 392.085C402.209 375.368 431.892 375.367 459.613 392.086L456.353 412.495C430.756 397.058 403.346 397.057 377.73 412.496L345.868 431.694C345.867 431.694 345.868 431.693 345.868 431.694C318.147 448.412 288.463 448.412 260.727 431.694L228.864 412.496C203.267 397.058 175.855 397.057 150.24 412.496L118.377 431.694C90.6563 448.412 60.9736 448.412 33.2365 431.694C33.2363 431.694 33.2367 431.695 33.2365 431.694L1.37301 412.496C-24.2237 397.058 -51.6355 397.057 -77.2511 412.496L-109.114 431.694C-136.834 448.412 -166.517 448.412 -194.254 431.694C-194.254 431.694 -194.254 431.695 -194.254 431.694L-226.119 412.495Z" fill="#393A3D"/>
<path fill-rule="evenodd" clip-rule="evenodd" d="M-226.119 491.347C-251.716 475.909 -279.126 475.909 -304.742 491.348L-308 470.937C-280.263 454.219 -250.581 454.219 -222.86 470.937C-222.86 470.937 -222.861 470.936 -222.86 470.937L-190.997 490.135C-165.381 505.574 -137.971 505.574 -112.374 490.136L-80.5093 470.937C-80.5092 470.937 -80.5095 470.937 -80.5093 470.937C-52.7728 454.22 -23.0901 454.219 4.63023 470.937C4.63073 470.937 4.62973 470.936 4.63023 470.937L36.4937 490.135C62.1094 505.574 89.5201 505.574 115.117 490.136L146.981 470.937C146.981 470.937 146.981 470.937 146.981 470.937C174.718 454.22 204.401 454.219 232.121 470.937C232.121 470.937 232.12 470.936 232.121 470.937L263.984 490.135C289.6 505.574 317.011 505.574 342.608 490.136L374.472 470.937C402.209 454.219 431.892 454.219 459.613 470.938L456.353 491.347C430.756 475.909 403.346 475.909 377.73 491.348L345.868 510.545C345.867 510.545 345.868 510.545 345.868 510.545C318.147 527.263 288.463 527.263 260.727 510.546L228.864 491.348C203.267 475.91 175.855 475.909 150.24 491.348L118.377 510.545C90.6563 527.264 60.9736 527.264 33.2365 510.546C33.2363 510.546 33.2367 510.546 33.2365 510.546L1.37301 491.348C-24.2237 475.91 -51.6355 475.909 -77.2511 491.348L-109.114 510.545C-136.834 527.264 -166.517 527.264 -194.254 510.546C-194.254 510.546 -194.254 510.546 -194.254 510.546L-226.119 491.347Z" fill="#393A3D"/>
<circle cx="33.3529" cy="33.3529" r="33.3529" transform="matrix(1 0 0 -1 544 367.707)" fill="#6100C2"/>
<circle cx="33.3529" cy="33.3529" r="33.3529" transform="matrix(1 0 0 -1 701.766 367.707)" fill="#B496FF"/>
<circle cx="33.3529" cy="33.3529" r="33.3529" transform="matrix(1 0 0 -1 909.297 367.707)" fill="#B496FF"/>
<circle cx="33.3529" cy="33.3529" r="33.3529" transform="matrix(1 0 0 -1 1013.05 367.707)" fill="#B496FF"/>
<circle cx="33.3529" cy="33.3529" r="33.3529" transform="matrix(1 0 0 -1 1116.82 367.707)" fill="#B496FF"/>
</g>
<defs>
<clipPath id="clip0_1_322">
<rect width="1184" height="666" fill="white"/>
</clipPath>
</defs>
</svg>
