<svg width="1184" height="666" viewBox="0 0 1184 666" fill="none" xmlns="http://www.w3.org/2000/svg">
<g clip-path="url(#clip0_1_338)">
<rect width="1184" height="666" fill="#F4F4EF"/>
<rect width="423" height="674" fill="#C2F5FF"/>
<rect x="930" width="254" height="674" fill="#C2F5FF"/>
<rect y="666.461" width="423.459" height="84.6919" transform="rotate(-90 0 666.461)" fill="#6100C2"/>
<rect x="169.383" y="666.461" width="423.459" height="84.6919" transform="rotate(-90 169.383 666.461)" fill="#B496FF"/>
<rect x="338.766" y="666.461" width="423.459" height="84.6919" transform="rotate(-90 338.766 666.461)" fill="#6100C2"/>
<rect x="423" y="243" width="243" height="50.7327" transform="rotate(-90 423 243)" fill="#B496FF"/>
<rect x="524.469" y="243" width="243" height="50.7327" transform="rotate(-90 524.469 243)" fill="#B496FF"/>
<rect x="625.93" y="243" width="243" height="50.7327" transform="rotate(-90 625.93 243)" fill="#B496FF"/>
<rect x="727.398" y="243" width="243" height="50.7327" transform="rotate(-90 727.398 243)" fill="#393A3D"/>
<rect x="828.859" y="243" width="243" height="50.7327" transform="rotate(-90 828.859 243)" fill="#393A3D"/>
<rect x="930.328" y="243" width="243" height="50.7327" transform="rotate(-90 930.328 243)" fill="#B496FF"/>
<rect x="1031.8" y="243" width="243" height="50.7327" transform="rotate(-90 1031.8 243)" fill="#B496FF"/>
<rect x="1133.26" y="243" width="243" height="50.7327" transform="rotate(-90 1133.26 243)" fill="#B496FF"/>
<circle cx="777.5" cy="454.5" r="57.5" fill="#393A3D"/>
<path d="M778.383 282C682.627 282 605.002 359.625 605.002 455.381C605.002 551.136 682.627 628.761 778.383 628.761L778.383 560.769C720.178 560.769 672.995 513.585 672.995 455.381C672.995 397.176 720.178 349.992 778.383 349.992L778.383 282Z" fill="#6100C2"/>
</g>
<defs>
<clipPath id="clip0_1_338">
<rect width="1184" height="666" fill="white"/>
</clipPath>
</defs>
</svg>
