<svg width="1200" height="675" viewBox="0 0 1200 675" fill="none" xmlns="http://www.w3.org/2000/svg">
<rect width="1200" height="675" fill="#F4F4EF"/>
<rect y="344" width="1184" height="330" fill="#C2F5FF"/>
<path d="M414.762 344.381C414.762 248.625 337.136 171 241.381 171C145.626 171 68.0004 248.625 68.0004 344.381L135.993 344.381C135.993 286.176 183.177 238.993 241.381 238.993C299.585 238.993 346.769 286.176 346.769 344.381L414.762 344.381Z" fill="#B496FF"/>
<path d="M972.762 344.381C972.762 248.625 895.136 171 799.381 171C703.626 171 626 248.625 626 344.381L693.993 344.381C693.993 286.176 741.177 238.993 799.381 238.993C857.585 238.993 904.769 286.176 904.769 344.381L972.762 344.381Z" fill="#B496FF"/>
<path d="M347 344C347 439.755 424.625 517.381 520.381 517.381C616.136 517.381 693.761 439.755 693.761 344H625.769C625.769 402.204 578.585 449.388 520.381 449.388C462.176 449.388 414.992 402.204 414.992 344H347Z" fill="#6100C2"/>
<circle cx="940.5" cy="451.5" r="57.5" fill="#393A3D"/>
</svg>
