<svg width="1200" height="675" viewBox="0 0 1200 675" fill="none" xmlns="http://www.w3.org/2000/svg">
<g clip-path="url(#clip0_6_3884)">
<rect width="1200" height="675" fill="#F4F4EF"/>
<rect y="297" width="1184" height="377" fill="#C2F5FF"/>
<path d="M696.336 181.123C528.824 13.6116 257.234 13.6116 89.7228 181.123C-77.7887 348.635 -77.7887 620.225 89.7228 787.736L208.667 668.792C106.846 566.972 106.846 401.888 208.667 300.067C310.487 198.246 475.571 198.246 577.392 300.067L696.336 181.123Z" fill="#B496FF"/>
<path d="M487.078 484.43C654.59 651.941 926.18 651.941 1093.69 484.43C1261.2 316.918 1261.2 45.328 1093.69 -122.183L974.748 -3.23972C1076.57 98.5812 1076.57 263.665 974.748 365.486C872.927 467.307 707.843 467.307 606.022 365.486L487.078 484.43Z" fill="#6100C2"/>
<circle cx="708.5" cy="293.5" r="57.5" fill="#393A3D"/>
</g>
<defs>
<clipPath id="clip0_6_3884">
<rect width="1200" height="675" fill="white"/>
</clipPath>
</defs>
</svg>
