<svg width="1184" height="666" viewBox="0 0 1184 666" fill="none" xmlns="http://www.w3.org/2000/svg">
<g clip-path="url(#clip0_1_479)">
<rect width="1184" height="666" fill="#F4F4EF"/>
<rect width="1184" height="334" fill="#C2F5FF"/>
<circle cx="171.141" cy="333.141" r="54.1408" fill="#B496FF"/>
<circle cx="339.578" cy="333.141" r="54.1408" fill="#B496FF"/>
<circle cx="508.016" cy="333.141" r="54.1408" fill="#6100C2"/>
<circle cx="676.453" cy="333.141" r="54.1408" fill="#6100C2"/>
<circle cx="844.891" cy="333.141" r="54.1408" fill="#B496FF"/>
<circle cx="1013.33" cy="333.141" r="54.1408" fill="#B496FF"/>
<path fill-rule="evenodd" clip-rule="evenodd" d="M748.903 516.881C764.341 491.284 764.341 463.874 748.902 438.258L769.313 435C786.031 462.737 786.031 492.419 769.313 520.14C769.313 520.14 769.314 520.139 769.313 520.14L750.115 552.003C734.676 577.619 734.676 605.029 750.114 630.626L769.313 662.491C769.313 662.491 769.313 662.491 769.313 662.491C786.03 690.227 786.031 719.91 769.313 747.63C769.313 747.631 769.314 747.63 769.313 747.63L750.115 779.494C734.676 805.109 734.676 832.52 750.114 858.117L769.313 889.981C769.313 889.981 769.313 889.981 769.313 889.981C786.03 917.718 786.031 947.401 769.313 975.121C769.313 975.121 769.314 975.12 769.313 975.121L750.115 1006.98C734.676 1032.6 734.676 1060.01 750.114 1085.61L769.313 1117.47C786.031 1145.21 786.031 1174.89 769.312 1202.61L748.903 1199.35C764.341 1173.76 764.341 1146.35 748.902 1120.73L729.705 1088.87C729.705 1088.87 729.705 1088.87 729.705 1088.87C712.987 1061.15 712.987 1031.46 729.704 1003.73L748.902 971.864C764.34 946.267 764.341 918.855 748.902 893.24L729.705 861.377C712.986 833.656 712.986 803.974 729.704 776.236C729.704 776.236 729.704 776.237 729.704 776.236L748.902 744.373C764.34 718.776 764.341 691.365 748.902 665.749L729.705 633.886C712.986 606.166 712.986 576.483 729.704 548.746C729.704 548.746 729.704 548.746 729.704 548.746L748.903 516.881Z" fill="#6100C2"/>
<path fill-rule="evenodd" clip-rule="evenodd" d="M670.051 516.881C685.489 491.284 685.49 463.874 670.051 438.258L690.462 435C707.179 462.737 707.18 492.419 690.462 520.14C690.462 520.14 690.462 520.139 690.462 520.14L671.264 552.003C655.825 577.619 655.825 605.029 671.263 630.626L690.461 662.491C690.462 662.491 690.461 662.491 690.461 662.491C707.179 690.227 707.18 719.91 690.462 747.63C690.461 747.631 690.462 747.63 690.462 747.63L671.264 779.494C655.825 805.109 655.825 832.52 671.263 858.117L690.461 889.981C690.462 889.981 690.461 889.981 690.461 889.981C707.179 917.718 707.18 947.401 690.462 975.121C690.461 975.121 690.462 975.12 690.462 975.121L671.264 1006.98C655.825 1032.6 655.825 1060.01 671.263 1085.61L690.461 1117.47C707.179 1145.21 707.18 1174.89 690.461 1202.61L670.051 1199.35C685.489 1173.76 685.49 1146.35 670.051 1120.73L650.853 1088.87C650.853 1088.87 650.854 1088.87 650.853 1088.87C634.135 1061.15 634.135 1031.46 650.853 1003.73L670.051 971.864C685.488 946.267 685.49 918.855 670.051 893.24L650.853 861.377C634.134 833.656 634.135 803.974 650.852 776.236C650.852 776.236 650.852 776.237 650.852 776.236L670.051 744.373C685.488 718.776 685.49 691.365 670.051 665.749L650.853 633.886C634.134 606.166 634.135 576.483 650.852 548.746C650.853 548.746 650.852 548.746 650.852 548.746L670.051 516.881Z" fill="#6100C2"/>
<path fill-rule="evenodd" clip-rule="evenodd" d="M591.208 516.881C606.646 491.284 606.646 463.874 591.207 438.258L611.618 435C628.335 462.737 628.336 492.419 611.618 520.14C611.618 520.14 611.618 520.139 611.618 520.14L592.42 552.003C576.981 577.619 576.981 605.029 592.419 630.626L611.618 662.491C611.618 662.491 611.618 662.491 611.618 662.491C628.335 690.227 628.336 719.91 611.618 747.63C611.618 747.631 611.618 747.63 611.618 747.63L592.42 779.494C576.981 805.109 576.981 832.52 592.419 858.117L611.618 889.981C611.618 889.981 611.618 889.981 611.618 889.981C628.335 917.718 628.336 947.401 611.618 975.121C611.618 975.121 611.618 975.12 611.618 975.121L592.42 1006.98C576.981 1032.6 576.981 1060.01 592.419 1085.61L611.618 1117.47C628.336 1145.21 628.336 1174.89 611.617 1202.61L591.208 1199.35C606.646 1173.76 606.646 1146.35 591.207 1120.73L572.01 1088.87C572.009 1088.87 572.01 1088.87 572.01 1088.87C555.291 1061.15 555.291 1031.46 572.009 1003.73L591.207 971.864C606.645 946.267 606.646 918.855 591.207 893.24L572.01 861.377C555.291 833.656 555.291 803.974 572.009 776.236C572.009 776.236 572.009 776.237 572.009 776.236L591.207 744.373C606.645 718.776 606.646 691.365 591.207 665.749L572.01 633.886C555.291 606.166 555.291 576.483 572.009 548.746C572.009 548.746 572.009 548.746 572.009 548.746L591.208 516.881Z" fill="#B496FF"/>
<path fill-rule="evenodd" clip-rule="evenodd" d="M512.356 516.881C527.794 491.284 527.795 463.874 512.356 438.258L532.766 435C549.484 462.737 549.485 492.419 532.766 520.14C532.766 520.14 532.767 520.139 532.766 520.14L513.568 552.003C498.129 577.619 498.13 605.029 513.567 630.626L532.766 662.491C532.766 662.491 532.766 662.491 532.766 662.491C549.483 690.227 549.484 719.91 532.766 747.63C532.766 747.631 532.767 747.63 532.766 747.63L513.568 779.494C498.129 805.109 498.13 832.52 513.567 858.117L532.766 889.981C532.766 889.981 532.766 889.981 532.766 889.981C549.483 917.718 549.484 947.401 532.766 975.121C532.766 975.121 532.767 975.12 532.766 975.121L513.568 1006.98C498.129 1032.6 498.13 1060.01 513.567 1085.61L532.766 1117.47C549.484 1145.21 549.485 1174.89 532.766 1202.61L512.356 1199.35C527.794 1173.76 527.795 1146.35 512.356 1120.73L493.158 1088.87C493.158 1088.87 493.158 1088.87 493.158 1088.87C476.44 1061.15 476.44 1031.46 493.157 1003.73L512.355 971.864C527.793 946.267 527.795 918.855 512.356 893.24L493.158 861.377C476.439 833.656 476.44 803.974 493.157 776.236C493.157 776.236 493.157 776.237 493.157 776.236L512.355 744.373C527.793 718.776 527.795 691.365 512.356 665.749L493.158 633.886C476.439 606.166 476.44 576.483 493.157 548.746C493.157 548.746 493.157 548.746 493.157 548.746L512.356 516.881Z" fill="#6100C2"/>
<path fill-rule="evenodd" clip-rule="evenodd" d="M433.505 516.881C448.942 491.284 448.943 463.874 433.504 438.258L453.915 435C470.632 462.737 470.633 492.419 453.915 520.14C453.915 520.14 453.915 520.139 453.915 520.14L434.717 552.003C419.278 577.619 419.278 605.029 434.716 630.626L453.915 662.491C453.915 662.491 453.915 662.491 453.915 662.491C470.632 690.227 470.633 719.91 453.915 747.63C453.915 747.631 453.915 747.63 453.915 747.63L434.717 779.494C419.278 805.109 419.278 832.52 434.716 858.117L453.915 889.981C453.915 889.981 453.915 889.981 453.915 889.981C470.632 917.718 470.633 947.401 453.915 975.121C453.915 975.121 453.915 975.12 453.915 975.121L434.717 1006.98C419.278 1032.6 419.278 1060.01 434.716 1085.61L453.915 1117.47C470.632 1145.21 470.633 1174.89 453.914 1202.61L433.505 1199.35C448.942 1173.76 448.943 1146.35 433.504 1120.73L414.306 1088.87C414.306 1088.87 414.307 1088.87 414.306 1088.87C397.588 1061.15 397.588 1031.46 414.306 1003.73L433.504 971.864C448.942 946.267 448.943 918.855 433.504 893.24L414.306 861.377C397.588 833.656 397.588 803.974 414.306 776.236C414.306 776.236 414.305 776.237 414.306 776.236L433.504 744.373C448.942 718.776 448.943 691.365 433.504 665.749L414.306 633.886C397.588 606.166 397.588 576.483 414.306 548.746C414.306 548.746 414.305 548.746 414.306 548.746L433.505 516.881Z" fill="#6100C2"/>
</g>
<defs>
<clipPath id="clip0_1_479">
<rect width="1184" height="666" fill="white"/>
</clipPath>
</defs>
</svg>
