<svg width="1184" height="666" viewBox="0 0 1184 666" fill="none" xmlns="http://www.w3.org/2000/svg">
<g clip-path="url(#clip0_1_284)">
<rect width="1184" height="666" fill="#F4F4EF"/>
<rect x="-8" width="661" height="674" fill="#C2F5FF"/>
<rect x="85.5547" y="121" width="276.444" height="84.6919" fill="#B496FF"/>
<rect x="85.5547" y="290.383" width="276.444" height="84.6919" fill="#B496FF"/>
<rect x="85.5547" y="459.766" width="276.444" height="84.6919" fill="#B496FF"/>
<rect x="653" y="121" width="423" height="423" fill="#6100C2"/>
<path fill-rule="evenodd" clip-rule="evenodd" d="M447.51 121C449.592 126.965 452.602 132.879 456.538 138.698L475.737 167.083C491.175 189.885 491.175 214.302 475.736 237.121L456.538 265.506C439.82 290.199 439.821 316.641 456.538 341.349L475.737 369.734C491.175 392.536 491.175 416.954 475.736 439.772L456.538 468.157C439.82 492.85 439.821 519.292 456.539 544L476.949 541.098C461.51 518.279 461.511 493.861 476.949 471.06L496.148 442.674C512.865 417.965 512.866 391.524 496.147 366.83L476.949 338.446C461.51 315.628 461.512 291.209 476.949 268.407L496.148 240.023C512.865 215.314 512.866 188.873 496.147 164.179L476.949 135.795C473.655 130.926 471.063 125.984 469.175 121H447.51Z" fill="#393A3D"/>
<path fill-rule="evenodd" clip-rule="evenodd" d="M511.744 121C513.827 126.965 516.836 132.879 520.773 138.698L539.972 167.083C555.409 189.885 555.41 214.302 539.971 237.121L520.773 265.506C504.055 290.199 504.056 316.641 520.773 341.349L539.972 369.734C555.409 392.536 555.41 416.954 539.971 439.772L520.773 468.157C504.054 492.85 504.055 519.292 520.773 544L541.184 541.098C525.744 518.279 525.745 493.861 541.183 471.06L560.382 442.674C577.099 417.965 577.1 391.524 560.381 366.83L541.184 338.446C525.744 315.628 525.746 291.209 541.184 268.407L560.382 240.023C577.099 215.314 577.1 188.873 560.381 164.179L541.183 135.795C537.889 130.926 535.298 125.984 533.409 121H511.744Z" fill="#393A3D"/>
<circle cx="864.5" cy="333.5" r="57.5" fill="#B496FF"/>
</g>
<defs>
<clipPath id="clip0_1_284">
<rect width="1184" height="666" fill="white"/>
</clipPath>
</defs>
</svg>
