<svg width="1184" height="666" viewBox="0 0 1184 666" fill="none" xmlns="http://www.w3.org/2000/svg">
<g clip-path="url(#clip0_1_174)">
<rect width="1184" height="666" fill="#F4F4EF"/>
<path d="M1319 -135V666H518L1319 -135Z" fill="#C2F5FF"/>
<path fill-rule="evenodd" clip-rule="evenodd" d="M812.5 510C887.335 510 948 449.335 948 374.5C948 299.665 887.335 239 812.5 239C737.665 239 677 299.665 677 374.5C677 449.335 737.665 510 812.5 510ZM812.5 456.863C857.988 456.863 894.863 419.988 894.863 374.5C894.863 329.012 857.988 292.137 812.5 292.137C767.012 292.137 730.137 329.012 730.137 374.5C730.137 419.988 767.012 456.863 812.5 456.863Z" fill="#B496FF"/>
<path fill-rule="evenodd" clip-rule="evenodd" d="M120.51 -142C122.592 -135.304 125.602 -128.665 129.538 -122.133L148.737 -90.2687C164.175 -64.672 164.175 -37.2612 148.736 -11.6456L129.538 20.2179C112.82 47.9382 112.821 77.6209 129.538 105.357L148.737 137.222C164.175 162.819 164.175 190.229 148.736 215.845L129.538 247.709C112.82 275.429 112.821 305.111 129.539 332.848L149.949 329.59C134.51 303.974 134.511 276.564 149.949 250.967L169.148 219.102C185.865 191.365 185.866 161.682 169.147 133.962L149.949 102.099C134.51 76.4836 134.512 49.0718 149.949 23.4751L169.148 -8.38835C185.865 -36.1255 185.866 -65.8081 169.147 -93.5289L149.949 -125.391C146.655 -130.858 144.063 -136.405 142.175 -142H120.51Z" fill="#393A3D"/>
<path fill-rule="evenodd" clip-rule="evenodd" d="M184.744 -142C186.827 -135.304 189.836 -128.665 193.773 -122.133L212.972 -90.2687C228.409 -64.672 228.41 -37.2612 212.971 -11.6456L193.773 20.2179C177.055 47.9382 177.056 77.6209 193.773 105.357L212.972 137.222C228.409 162.819 228.41 190.229 212.971 215.845L193.773 247.709C177.054 275.429 177.055 305.111 193.773 332.848L214.184 329.59C198.744 303.974 198.745 276.564 214.183 250.967L233.382 219.102C250.099 191.365 250.1 161.682 233.381 133.962L214.184 102.099C198.744 76.4836 198.746 49.0718 214.184 23.4751L233.382 -8.38835C250.099 -36.1255 250.1 -65.8081 233.381 -93.5289L214.183 -125.391C210.889 -130.858 208.298 -136.405 206.409 -142H184.744Z" fill="#393A3D"/>
<path fill-rule="evenodd" clip-rule="evenodd" d="M248.978 -142C251.061 -135.304 254.071 -128.665 258.007 -122.133L277.206 -90.2687C292.644 -64.672 292.644 -37.2612 277.205 -11.6456L258.007 20.2179C241.289 47.9382 241.29 77.6209 258.007 105.357L277.206 137.222C292.644 162.819 292.644 190.229 277.205 215.845L258.007 247.709C241.289 275.429 241.29 305.111 258.007 332.848L278.418 329.59C262.979 303.974 262.979 276.564 278.417 250.967L297.616 219.102C314.334 191.365 314.334 161.682 297.615 133.962L278.418 102.099C262.979 76.4836 262.98 49.0718 278.418 23.4751L297.616 -8.38835C314.334 -36.1255 314.334 -65.8081 297.615 -93.5289L278.418 -125.391C275.123 -130.858 272.532 -136.405 270.643 -142H248.978Z" fill="#393A3D"/>
<path fill-rule="evenodd" clip-rule="evenodd" d="M313.213 -142C315.295 -135.304 318.305 -128.665 322.242 -122.133L341.44 -90.2687C356.878 -64.672 356.879 -37.2612 341.439 -11.6456L322.241 20.2179C305.523 47.9382 305.524 77.6209 322.242 105.357L341.44 137.222C356.878 162.819 356.879 190.229 341.439 215.845L322.241 247.709C305.523 275.429 305.524 305.111 322.242 332.848L342.652 329.59C327.213 303.974 327.214 276.564 342.652 250.967L361.851 219.102C378.568 191.365 378.569 161.682 361.85 133.962L342.652 102.099C327.213 76.4836 327.215 49.0718 342.653 23.4751L361.851 -8.38835C378.568 -36.1255 378.569 -65.8081 361.85 -93.5289L342.652 -125.391C339.358 -130.858 336.766 -136.405 334.878 -142H313.213Z" fill="#393A3D"/>
<path fill-rule="evenodd" clip-rule="evenodd" d="M377.447 -142C379.53 -135.304 382.539 -128.665 386.476 -122.133L405.675 -90.2687C421.113 -64.672 421.113 -37.2612 405.674 -11.6456L386.476 20.2179C369.758 47.9382 369.759 77.6209 386.476 105.357L405.675 137.222C421.113 162.819 421.113 190.229 405.674 215.845L386.476 247.709C369.758 275.429 369.759 305.111 386.476 332.848L406.887 329.59C391.448 303.974 391.448 276.564 406.886 250.967L426.085 219.102C442.803 191.365 442.803 161.682 426.084 133.962L406.887 102.099C391.448 76.4836 391.449 49.0718 406.887 23.4751L426.085 -8.38835C442.803 -36.1255 442.803 -65.8081 426.084 -93.5289L406.887 -125.391C403.592 -130.858 401.001 -136.405 399.112 -142H377.447Z" fill="#393A3D"/>
<rect x="117" y="375" width="322" height="291" fill="#6100C2"/>
<circle cx="277.5" cy="520.5" r="57.5" fill="#B496FF"/>
</g>
<defs>
<clipPath id="clip0_1_174">
<rect width="1184" height="666" fill="white"/>
</clipPath>
</defs>
</svg>
