<svg width="1184" height="666" viewBox="0 0 1184 666" fill="none" xmlns="http://www.w3.org/2000/svg">
<g clip-path="url(#clip0_1_272)">
<rect width="1184" height="666" fill="#F4F4EF"/>
<path fill-rule="evenodd" clip-rule="evenodd" d="M79.8954 439.6C54.9194 429.948 28.1737 429.948 3.17923 439.601L0 426.839C27.0642 416.387 56.0268 416.387 83.0751 426.839C83.0756 426.839 83.0746 426.839 83.0751 426.839L114.166 438.842C139.16 448.495 165.907 448.495 190.883 438.843L221.975 426.839C221.975 426.839 221.974 426.839 221.975 426.839C249.039 416.387 278.001 416.387 305.05 426.839C305.05 426.839 305.049 426.839 305.05 426.839L336.14 438.842C361.135 448.495 387.881 448.495 412.857 438.843L443.949 426.839C443.949 426.839 443.949 426.839 443.949 426.839C471.013 416.387 499.976 416.387 527.024 426.839C527.025 426.839 527.024 426.839 527.024 426.839L558.115 438.842C583.109 448.495 609.856 448.495 634.832 438.843L665.923 426.839C692.988 416.387 721.951 416.387 749 426.84L745.819 439.6C720.843 429.948 694.097 429.948 669.103 439.601L638.013 451.604C638.012 451.604 638.013 451.603 638.013 451.604C610.964 462.056 582 462.056 554.936 451.604L523.846 439.601C498.87 429.949 472.123 429.948 447.128 439.601L416.038 451.604C388.99 462.057 360.027 462.056 332.962 451.604C332.962 451.604 332.962 451.604 332.962 451.604L301.871 439.601C276.895 429.949 250.148 429.948 225.154 439.601L194.064 451.604C167.015 462.057 138.052 462.056 110.988 451.604C110.988 451.604 110.988 451.604 110.988 451.604L79.8954 439.6Z" fill="#393A3D"/>
<path fill-rule="evenodd" clip-rule="evenodd" d="M79.8954 488.897C54.9194 479.245 28.1737 479.245 3.17923 488.898L0 476.136C27.0642 465.684 56.0268 465.683 83.0751 476.136C83.0756 476.136 83.0746 476.136 83.0751 476.136L114.166 488.139C139.16 497.792 165.907 497.792 190.883 488.14L221.975 476.136C221.975 476.136 221.974 476.136 221.975 476.136C249.039 465.684 278.001 465.684 305.05 476.136C305.05 476.136 305.049 476.136 305.05 476.136L336.14 488.139C361.135 497.792 387.881 497.792 412.857 488.14L443.949 476.136C443.949 476.136 443.949 476.136 443.949 476.136C471.013 465.684 499.976 465.684 527.024 476.136C527.025 476.136 527.024 476.136 527.024 476.136L558.115 488.139C583.109 497.792 609.856 497.792 634.832 488.14L665.923 476.136C692.988 465.684 721.951 465.683 749 476.137L745.819 488.897C720.843 479.245 694.097 479.245 669.103 488.898L638.013 500.9C638.012 500.901 638.013 500.9 638.013 500.9C610.964 511.353 582 511.353 554.936 500.901L523.846 488.898C498.87 479.246 472.123 479.245 447.128 488.898L416.038 500.9C388.99 511.354 360.027 511.353 332.962 500.901C332.962 500.901 332.962 500.901 332.962 500.901L301.871 488.898C276.895 479.246 250.148 479.245 225.154 488.898L194.064 500.9C167.015 511.354 138.052 511.353 110.988 500.901C110.988 500.901 110.988 500.901 110.988 500.901L79.8954 488.897Z" fill="#393A3D"/>
<path fill-rule="evenodd" clip-rule="evenodd" d="M79.8954 538.198C54.9194 528.546 28.1737 528.545 3.17923 538.198L0 525.437C27.0642 514.985 56.0268 514.984 83.0751 525.437C83.0756 525.437 83.0746 525.437 83.0751 525.437L114.166 537.44C139.16 547.093 165.907 547.093 190.883 537.441L221.975 525.437C221.975 525.437 221.974 525.437 221.975 525.437C249.039 514.985 278.001 514.984 305.05 525.437C305.05 525.437 305.049 525.437 305.05 525.437L336.14 537.44C361.135 547.093 387.881 547.093 412.857 537.441L443.949 525.437C443.949 525.437 443.949 525.437 443.949 525.437C471.013 514.985 499.976 514.984 527.024 525.437C527.025 525.437 527.024 525.437 527.024 525.437L558.115 537.44C583.109 547.093 609.856 547.093 634.832 537.441L665.923 525.437C692.988 514.985 721.951 514.984 749 525.437L745.819 538.198C720.843 528.546 694.097 528.545 669.103 538.198L638.013 550.201C638.012 550.201 638.013 550.201 638.013 550.201C610.964 560.654 582 560.654 554.936 550.202L523.846 538.199C498.87 528.546 472.123 528.545 447.128 538.198L416.038 550.201C388.99 560.654 360.027 560.654 332.962 550.202C332.962 550.202 332.962 550.202 332.962 550.202L301.871 538.199C276.895 528.546 250.148 528.545 225.154 538.198L194.064 550.201C167.015 560.654 138.052 560.654 110.988 550.202C110.988 550.202 110.988 550.202 110.988 550.202L79.8954 538.198Z" fill="#393A3D"/>
<path fill-rule="evenodd" clip-rule="evenodd" d="M79.8954 587.6C54.9194 577.948 28.1737 577.948 3.17923 587.601L0 574.839C27.0642 564.387 56.0268 564.387 83.0751 574.839C83.0756 574.839 83.0746 574.839 83.0751 574.839L114.166 586.842C139.16 596.495 165.907 596.495 190.883 586.843L221.975 574.839C221.975 574.839 221.974 574.839 221.975 574.839C249.039 564.387 278.001 564.387 305.05 574.839C305.05 574.839 305.049 574.839 305.05 574.839L336.14 586.842C361.135 596.495 387.881 596.495 412.857 586.843L443.949 574.839C443.949 574.839 443.949 574.839 443.949 574.839C471.013 564.387 499.976 564.387 527.024 574.839C527.025 574.839 527.024 574.839 527.024 574.839L558.115 586.842C583.109 596.495 609.856 596.495 634.832 586.843L665.923 574.839C692.988 564.387 721.951 564.387 749 574.84L745.819 587.6C720.843 577.948 694.097 577.948 669.103 587.601L638.013 599.604C638.012 599.604 638.013 599.603 638.013 599.604C610.964 610.056 582 610.056 554.936 599.604L523.846 587.601C498.87 577.949 472.123 577.948 447.128 587.601L416.038 599.604C388.99 610.057 360.027 610.056 332.962 599.604C332.962 599.604 332.962 599.604 332.962 599.604L301.871 587.601C276.895 577.949 250.148 577.948 225.154 587.601L194.064 599.604C167.015 610.057 138.052 610.056 110.988 599.604C110.988 599.604 110.988 599.604 110.988 599.604L79.8954 587.6Z" fill="#393A3D"/>
<path fill-rule="evenodd" clip-rule="evenodd" d="M79.8954 636.796C54.9194 627.143 28.1737 627.143 3.17923 636.796L0 624.035C27.0642 613.582 56.0268 613.582 83.0751 624.035C83.0756 624.035 83.0746 624.034 83.0751 624.035L114.166 636.038C139.16 645.691 165.907 645.691 190.883 636.038L221.975 624.035C221.975 624.035 221.974 624.035 221.975 624.035C249.039 613.583 278.001 613.582 305.05 624.035C305.05 624.035 305.049 624.034 305.05 624.035L336.14 636.038C361.135 645.691 387.881 645.691 412.857 636.038L443.949 624.035C443.949 624.035 443.949 624.035 443.949 624.035C471.013 613.583 499.976 613.582 527.024 624.035C527.025 624.035 527.024 624.034 527.024 624.035L558.115 636.038C583.109 645.691 609.856 645.691 634.832 636.038L665.923 624.035C692.988 613.582 721.951 613.582 749 624.035L745.819 636.796C720.843 627.143 694.097 627.143 669.103 636.796L638.013 648.799C638.012 648.799 638.013 648.799 638.013 648.799C610.964 659.252 582 659.252 554.936 648.799L523.846 636.796C498.87 627.144 472.123 627.143 447.128 636.796L416.038 648.799C388.99 659.252 360.027 659.252 332.962 648.799C332.962 648.799 332.962 648.8 332.962 648.799L301.871 636.796C276.895 627.144 250.148 627.143 225.154 636.796L194.064 648.799C167.015 659.252 138.052 659.252 110.988 648.799C110.988 648.799 110.988 648.8 110.988 648.799L79.8954 636.796Z" fill="#393A3D"/>
<rect x="730" width="454" height="674" fill="#C2F5FF"/>
<circle cx="956.5" cy="517.5" r="57.5" fill="#B496FF"/>
<path d="M375 300L245.096 75L504.904 75L375 300Z" fill="#B496FF"/>
<path d="M375 378L289.263 229.5L460.737 229.5L375 378Z" fill="#393A3D"/>
<path d="M1184 72C1099.5 72 1031 140.5 1031 225C1031 309.5 1099.5 378 1184 378L1184 318C1132.64 318 1091 276.363 1091 225C1091 173.637 1132.64 132 1184 132L1184 72Z" fill="#6100C2"/>
</g>
<defs>
<clipPath id="clip0_1_272">
<rect width="1184" height="666" fill="white"/>
</clipPath>
</defs>
</svg>
