<svg width="1184" height="666" viewBox="0 0 1184 666" fill="none" xmlns="http://www.w3.org/2000/svg">
<g clip-path="url(#clip0_1_380)">
<rect width="1184" height="666" fill="#F4F4EF"/>
<g filter="url(#filter0_d_1_380)">
<g clip-path="url(#clip1_1_380)">
<rect x="0.164062" y="-0.324219" width="1187.17" height="667.781" rx="12.0321" fill="#F4F4EF"/>
<rect width="681" height="668" fill="#C2F5FF"/>
<path d="M895.953 292.176C938.72 292.176 973.39 257.506 973.39 214.739C973.39 171.972 938.72 137.303 895.953 137.303L895.953 292.176Z" fill="#B496FF"/>
<path d="M116.695 623.496C159.462 623.496 194.132 588.827 194.132 546.06C194.132 503.293 159.462 468.623 116.695 468.623L116.695 623.496Z" fill="#6100C2"/>
<path d="M311.516 623.496C354.283 623.496 388.952 588.827 388.952 546.06C388.952 503.293 354.283 468.623 311.516 468.623L311.516 623.496Z" fill="#6100C2"/>
<path d="M506.312 623.496C549.079 623.496 583.749 588.827 583.749 546.06C583.749 503.293 549.079 468.623 506.312 468.623L506.312 623.496Z" fill="#6100C2"/>
<path d="M96.7344 373C53.9675 373 19.298 407.669 19.298 450.436C19.298 493.203 53.9675 527.873 96.7344 527.873L96.7344 373Z" fill="#6100C2"/>
<path d="M291.539 373C248.772 373 214.103 407.669 214.103 450.436C214.103 493.203 248.772 527.873 291.539 527.873L291.539 373Z" fill="#6100C2"/>
<path d="M486.352 373C443.585 373 408.915 407.669 408.915 450.436C408.915 493.203 443.585 527.873 486.352 527.873L486.352 373Z" fill="#6100C2"/>
<path d="M1187 373V668H893L1187 373Z" fill="#393A3D"/>
<circle cx="802.459" cy="214.662" r="19.6585" transform="rotate(180 802.459 214.662)" fill="#6100C2"/>
<circle cx="741.295" cy="214.662" r="19.6585" transform="rotate(180 741.295 214.662)" fill="#6100C2"/>
<circle cx="680.138" cy="214.662" r="19.6585" transform="rotate(180 680.138 214.662)" fill="#393A3D"/>
<circle cx="618.982" cy="214.662" r="19.6585" transform="rotate(180 618.982 214.662)" fill="#6100C2"/>
<circle cx="557.818" cy="214.662" r="19.6585" transform="rotate(180 557.818 214.662)" fill="#6100C2"/>
<circle cx="496.662" cy="214.662" r="19.6585" transform="rotate(180 496.662 214.662)" fill="#6100C2"/>
<circle cx="1000.5" cy="478.5" r="57.5" fill="#393A3D"/>
</g>
</g>
</g>
<defs>
<filter id="filter0_d_1_380" x="-15.8787" y="-12.3563" width="1219.25" height="699.867" filterUnits="userSpaceOnUse" color-interpolation-filters="sRGB">
<feFlood flood-opacity="0" result="BackgroundImageFix"/>
<feColorMatrix in="SourceAlpha" type="matrix" values="0 0 0 0 0 0 0 0 0 0 0 0 0 0 0 0 0 0 127 0" result="hardAlpha"/>
<feOffset dy="4.01069"/>
<feGaussianBlur stdDeviation="8.02139"/>
<feColorMatrix type="matrix" values="0 0 0 0 0 0 0 0 0 0 0 0 0 0 0 0 0 0 0.2 0"/>
<feBlend mode="normal" in2="BackgroundImageFix" result="effect1_dropShadow_1_380"/>
<feBlend mode="normal" in="SourceGraphic" in2="effect1_dropShadow_1_380" result="shape"/>
</filter>
<clipPath id="clip0_1_380">
<rect width="1184" height="666" fill="white"/>
</clipPath>
<clipPath id="clip1_1_380">
<rect x="0.164062" y="-0.324219" width="1187.17" height="667.781" rx="12.0321" fill="white"/>
</clipPath>
</defs>
</svg>
