<svg width="1200" height="675" viewBox="0 0 1200 675" fill="none" xmlns="http://www.w3.org/2000/svg">
<g clip-path="url(#clip0_6_4112)">
<rect width="1200" height="675" fill="#F4F4EF"/>
<path d="M1315 -135V666H514L1315 -135Z" fill="#C2F5FF"/>
<path fill-rule="evenodd" clip-rule="evenodd" d="M812.5 510C887.335 510 948 449.335 948 374.5C948 299.665 887.335 239 812.5 239C737.665 239 677 299.665 677 374.5C677 449.335 737.665 510 812.5 510ZM812.5 456.863C857.988 456.863 894.863 419.988 894.863 374.5C894.863 329.012 857.988 292.137 812.5 292.137C767.012 292.137 730.137 329.012 730.137 374.5C730.137 419.988 767.012 456.863 812.5 456.863Z" fill="#B496FF"/>
<path fill-rule="evenodd" clip-rule="evenodd" d="M122.761 -142C124.834 -135.864 127.677 -129.779 131.29 -123.784L150.748 -91.4885C166.395 -65.546 166.395 -37.7648 150.747 -11.8029L131.29 20.4911C114.346 48.586 114.347 78.6698 131.29 106.781L150.748 139.076C166.395 165.019 166.395 192.8 150.747 218.762L131.29 251.056C114.346 279.151 114.347 309.235 131.29 337.346L151.976 334.044C136.329 308.082 136.329 280.301 151.976 254.359L171.434 222.063C188.378 193.951 188.378 163.867 171.433 135.772L151.976 103.479C136.329 77.5172 136.33 49.7349 151.977 23.7923L171.434 -8.50172C188.378 -36.6137 188.378 -66.6975 171.433 -94.7928L151.976 -127.086C149.014 -132 146.613 -136.98 144.773 -142H122.761Z" fill="#393A3D"/>
<path fill-rule="evenodd" clip-rule="evenodd" d="M187.863 -142C189.935 -135.864 192.778 -129.779 196.392 -123.784L215.85 -91.4885C231.496 -65.546 231.496 -37.7648 215.849 -11.8029L196.391 20.4911C179.447 48.586 179.448 78.6698 196.392 106.781L215.85 139.076C231.496 165.019 231.496 192.8 215.849 218.762L196.391 251.056C179.447 279.151 179.448 309.235 196.392 337.346L217.078 334.044C201.43 308.082 201.431 280.301 217.077 254.359L236.536 222.063C253.479 193.951 253.48 163.867 236.535 135.772L217.078 103.479C201.43 77.5172 201.432 49.7349 217.078 23.7923L236.536 -8.50172C253.479 -36.6137 253.48 -66.6975 236.535 -94.7928L217.078 -127.086C214.116 -132 211.715 -136.98 209.874 -142H187.863Z" fill="#393A3D"/>
<path fill-rule="evenodd" clip-rule="evenodd" d="M252.969 -142C255.041 -135.864 257.884 -129.779 261.497 -123.784L280.955 -91.4885C296.602 -65.546 296.602 -37.7648 280.954 -11.8029L261.497 20.4911C244.553 48.586 244.554 78.6698 261.497 106.781L280.955 139.076C296.602 165.019 296.602 192.8 280.954 218.762L261.497 251.056C244.553 279.151 244.554 309.235 261.497 337.346L282.183 334.044C266.536 308.082 266.536 280.301 282.183 254.359L301.641 222.063C318.585 193.951 318.585 163.867 301.64 135.772L282.183 103.479C266.536 77.5172 266.537 49.7349 282.184 23.7923L301.641 -8.50172C318.585 -36.6137 318.585 -66.6975 301.64 -94.7928L282.183 -127.086C279.221 -132 276.82 -136.98 274.98 -142H252.969Z" fill="#393A3D"/>
<path fill-rule="evenodd" clip-rule="evenodd" d="M318.07 -142C320.142 -135.864 322.985 -129.779 326.599 -123.784L346.057 -91.4885C361.703 -65.546 361.704 -37.7648 346.056 -11.8029L326.598 20.4911C309.654 48.586 309.655 78.6698 326.599 106.781L346.057 139.076C361.703 165.019 361.704 192.8 346.056 218.762L326.598 251.056C309.654 279.151 309.655 309.235 326.599 337.346L347.285 334.044C331.637 308.082 331.638 280.301 347.284 254.359L366.743 222.063C383.686 193.951 383.687 163.867 366.742 135.772L347.285 103.479C331.637 77.5172 331.639 49.7349 347.285 23.7923L366.743 -8.50172C383.686 -36.6137 383.687 -66.6975 366.742 -94.7928L347.285 -127.086C344.323 -132 341.922 -136.98 340.081 -142H318.07Z" fill="#393A3D"/>
<path fill-rule="evenodd" clip-rule="evenodd" d="M383.172 -142C385.244 -135.864 388.087 -129.779 391.7 -123.784L411.158 -91.4885C426.805 -65.546 426.805 -37.7648 411.157 -11.8029L391.7 20.4911C374.756 48.586 374.757 78.6698 391.7 106.781L411.158 139.076C426.805 165.019 426.805 192.8 411.157 218.762L391.7 251.056C374.756 279.151 374.757 309.235 391.7 337.346L412.387 334.044C396.739 308.082 396.74 280.301 412.386 254.359L431.844 222.063C448.788 193.951 448.788 163.867 431.844 135.772L412.387 103.479C396.739 77.5172 396.74 49.7349 412.387 23.7923L431.844 -8.50172C448.788 -36.6137 448.788 -66.6975 431.844 -94.7928L412.387 -127.086C409.425 -132 407.023 -136.98 405.183 -142H383.172Z" fill="#393A3D"/>
<rect x="117" y="375" width="322" height="291" fill="#6100C2"/>
<circle cx="277.5" cy="520.5" r="57.5" fill="#B496FF"/>
</g>
<defs>
<clipPath id="clip0_6_4112">
<rect width="1200" height="675" fill="white"/>
</clipPath>
</defs>
</svg>
