<svg width="1184" height="666" viewBox="0 0 1184 666" fill="none" xmlns="http://www.w3.org/2000/svg">
<g clip-path="url(#clip0_1_134)">
<rect width="1184" height="666" fill="#F4F4EF"/>
<rect y="344" width="1184" height="330" fill="#C2F5FF"/>
<path d="M414.758 344.379C414.758 248.623 337.133 170.998 241.377 170.998C145.622 170.998 67.9965 248.624 67.9965 344.379L135.989 344.379C135.989 286.175 183.173 238.991 241.377 238.991C299.582 238.991 346.765 286.175 346.765 344.379L414.758 344.379Z" fill="#B496FF"/>
<path d="M972.758 344.379C972.758 248.623 895.133 170.998 799.377 170.998C703.622 170.998 625.997 248.624 625.997 344.379L693.989 344.379C693.989 286.175 741.173 238.991 799.377 238.991C857.582 238.991 904.765 286.175 904.765 344.379L972.758 344.379Z" fill="#B496FF"/>
<path d="M347 344C347 439.755 424.625 517.381 520.381 517.381C616.136 517.381 693.761 439.755 693.761 344H625.769C625.769 402.204 578.585 449.388 520.381 449.388C462.176 449.388 414.992 402.204 414.992 344H347Z" fill="#6100C2"/>
<circle cx="940.5" cy="451.5" r="57.5" fill="#393A3D"/>
</g>
<defs>
<clipPath id="clip0_1_134">
<rect width="1184" height="666" fill="white"/>
</clipPath>
</defs>
</svg>
