<svg width="1200" height="675" viewBox="0 0 1200 675" fill="none" xmlns="http://www.w3.org/2000/svg">
<g clip-path="url(#clip0_6_4097)">
<rect width="1200" height="675" fill="#F4F4EF"/>
<rect width="1184" height="334" fill="#C2F5FF"/>
<circle cx="171.141" cy="333.141" r="54.1408" fill="#B496FF"/>
<circle cx="339.578" cy="333.141" r="54.1408" fill="#B496FF"/>
<circle cx="508.016" cy="333.141" r="54.1408" fill="#6100C2"/>
<circle cx="676.453" cy="333.141" r="54.1408" fill="#6100C2"/>
<circle cx="844.895" cy="333.141" r="54.1408" fill="#B496FF"/>
<circle cx="1013.33" cy="333.141" r="54.1408" fill="#B496FF"/>
<path fill-rule="evenodd" clip-rule="evenodd" d="M759.02 523.866C774.667 497.924 774.667 470.143 759.02 444.181L779.706 440.879C796.65 468.99 796.65 499.074 779.706 527.169C779.706 527.169 779.707 527.168 779.706 527.169L760.249 559.463C744.601 585.425 744.601 613.206 760.248 639.149L779.706 671.444C779.706 671.444 779.706 671.444 779.706 671.444C796.649 699.555 796.65 729.639 779.706 757.734C779.706 757.734 779.707 757.733 779.706 757.734L760.249 790.028C744.601 815.99 744.601 843.771 760.248 869.714L779.706 902.009C779.706 902.009 779.706 902.008 779.706 902.009C796.649 930.12 796.65 960.204 779.706 988.299C779.706 988.299 779.707 988.298 779.706 988.299L760.249 1020.59C744.601 1046.55 744.601 1074.34 760.248 1100.28L779.706 1132.57C796.65 1160.69 796.65 1190.77 779.705 1218.87L759.02 1215.56C774.667 1189.62 774.667 1161.84 759.02 1135.88L739.563 1103.58C739.562 1103.58 739.563 1103.58 739.563 1103.58C722.619 1075.49 722.619 1045.4 739.562 1017.29L759.019 984.997C774.666 959.055 774.667 931.273 759.02 905.311L739.563 873.018C722.618 844.922 722.618 814.839 739.562 786.727C739.562 786.727 739.562 786.727 739.562 786.727L759.019 754.433C774.666 728.49 774.667 700.708 759.02 674.746L739.563 642.453C722.618 614.358 722.618 584.274 739.562 556.162C739.562 556.162 739.562 556.162 739.562 556.162L759.02 523.866Z" fill="#6100C2"/>
<path fill-rule="evenodd" clip-rule="evenodd" d="M679.106 523.866C694.753 497.924 694.753 470.143 679.106 444.181L699.792 440.879C716.735 468.99 716.736 499.074 699.792 527.169C699.792 527.169 699.793 527.168 699.792 527.169L680.335 559.463C664.687 585.425 664.687 613.206 680.334 639.149L699.792 671.444C699.792 671.444 699.792 671.444 699.792 671.444C716.735 699.555 716.736 729.639 699.792 757.734C699.792 757.734 699.793 757.733 699.792 757.734L680.335 790.028C664.687 815.99 664.687 843.771 680.334 869.714L699.792 902.009C699.792 902.009 699.792 902.008 699.792 902.009C716.735 930.12 716.736 960.204 699.792 988.299C699.792 988.299 699.793 988.298 699.792 988.299L680.335 1020.59C664.687 1046.55 664.687 1074.34 680.334 1100.28L699.792 1132.57C716.736 1160.69 716.736 1190.77 699.791 1218.87L679.106 1215.56C694.753 1189.62 694.753 1161.84 679.106 1135.88L659.649 1103.58C659.648 1103.58 659.649 1103.58 659.649 1103.58C642.705 1075.49 642.705 1045.4 659.648 1017.29L679.105 984.997C694.752 959.055 694.753 931.273 679.106 905.311L659.649 873.018C642.704 844.922 642.704 814.839 659.648 786.727C659.648 786.727 659.648 786.727 659.648 786.727L679.105 754.433C694.752 728.49 694.753 700.708 679.106 674.746L659.649 642.453C642.704 614.358 642.704 584.274 659.648 556.162C659.648 556.162 659.648 556.162 659.648 556.162L679.106 523.866Z" fill="#6100C2"/>
<path fill-rule="evenodd" clip-rule="evenodd" d="M599.192 523.866C614.839 497.924 614.839 470.143 599.192 444.181L619.878 440.879C636.821 468.99 636.822 499.074 619.878 527.169C619.878 527.169 619.879 527.168 619.878 527.169L600.421 559.463C584.773 585.425 584.773 613.206 600.42 639.149L619.878 671.444C619.878 671.444 619.878 671.444 619.878 671.444C636.821 699.555 636.822 729.639 619.878 757.734C619.878 757.734 619.879 757.733 619.878 757.734L600.421 790.028C584.773 815.99 584.773 843.771 600.42 869.714L619.878 902.009C619.878 902.009 619.878 902.008 619.878 902.009C636.821 930.12 636.822 960.204 619.878 988.299C619.878 988.299 619.879 988.298 619.878 988.299L600.421 1020.59C584.773 1046.55 584.773 1074.34 600.42 1100.28L619.878 1132.57C636.822 1160.69 636.822 1190.77 619.877 1218.87L599.192 1215.56C614.839 1189.62 614.839 1161.84 599.192 1135.88L579.735 1103.58C579.734 1103.58 579.735 1103.58 579.735 1103.58C562.791 1075.49 562.791 1045.4 579.734 1017.29L599.191 984.997C614.838 959.055 614.839 931.273 599.192 905.311L579.735 873.018C562.79 844.922 562.79 814.839 579.734 786.727C579.734 786.727 579.734 786.727 579.734 786.727L599.191 754.433C614.838 728.49 614.839 700.708 599.192 674.746L579.735 642.453C562.79 614.358 562.79 584.274 579.734 556.162C579.734 556.162 579.734 556.162 579.734 556.162L599.192 523.866Z" fill="#6100C2"/>
<path fill-rule="evenodd" clip-rule="evenodd" d="M519.274 523.866C534.921 497.924 534.921 470.143 519.274 444.181L539.96 440.879C556.903 468.99 556.904 499.074 539.96 527.169C539.96 527.169 539.961 527.168 539.96 527.169L520.503 559.463C504.855 585.425 504.855 613.206 520.502 639.149L539.96 671.444C539.96 671.444 539.96 671.444 539.96 671.444C556.903 699.555 556.904 729.639 539.96 757.734C539.96 757.734 539.961 757.733 539.96 757.734L520.503 790.028C504.855 815.99 504.855 843.771 520.502 869.714L539.96 902.009C539.96 902.009 539.96 902.008 539.96 902.009C556.903 930.12 556.904 960.204 539.96 988.299C539.96 988.299 539.961 988.298 539.96 988.299L520.503 1020.59C504.855 1046.55 504.855 1074.34 520.502 1100.28L539.96 1132.57C556.904 1160.69 556.904 1190.77 539.959 1218.87L519.274 1215.56C534.921 1189.62 534.921 1161.84 519.274 1135.88L499.817 1103.58C499.816 1103.58 499.817 1103.58 499.817 1103.58C482.873 1075.49 482.873 1045.4 499.816 1017.29L519.273 984.997C534.92 959.055 534.921 931.273 519.274 905.311L499.817 873.018C482.872 844.922 482.872 814.839 499.816 786.727C499.816 786.727 499.816 786.727 499.816 786.727L519.273 754.433C534.92 728.49 534.921 700.708 519.274 674.746L499.817 642.453C482.872 614.358 482.872 584.274 499.816 556.162C499.816 556.162 499.816 556.162 499.816 556.162L519.274 523.866Z" fill="#6100C2"/>
<path fill-rule="evenodd" clip-rule="evenodd" d="M439.36 523.866C455.007 497.924 455.007 470.143 439.36 444.181L460.046 440.879C476.989 468.99 476.99 499.074 460.046 527.169C460.046 527.169 460.047 527.168 460.046 527.169L440.589 559.463C424.941 585.425 424.941 613.206 440.588 639.149L460.046 671.444C460.046 671.444 460.046 671.444 460.046 671.444C476.989 699.555 476.99 729.639 460.046 757.734C460.046 757.734 460.047 757.733 460.046 757.734L440.589 790.028C424.941 815.99 424.941 843.771 440.588 869.714L460.046 902.009C460.046 902.009 460.046 902.008 460.046 902.009C476.989 930.12 476.99 960.204 460.046 988.299C460.046 988.299 460.047 988.298 460.046 988.299L440.589 1020.59C424.941 1046.55 424.941 1074.34 440.588 1100.28L460.046 1132.57C476.99 1160.69 476.99 1190.77 460.045 1218.87L439.36 1215.56C455.007 1189.62 455.007 1161.84 439.359 1135.88L419.903 1103.58C419.902 1103.58 419.903 1103.58 419.903 1103.58C402.958 1075.49 402.959 1045.4 419.902 1017.29L439.359 984.997C455.006 959.055 455.007 931.273 439.359 905.311L419.903 873.018C402.958 844.922 402.958 814.839 419.902 786.727C419.902 786.727 419.902 786.727 419.902 786.727L439.359 754.433C455.006 728.49 455.007 700.708 439.359 674.746L419.903 642.453C402.958 614.358 402.958 584.274 419.902 556.162C419.902 556.162 419.902 556.162 419.902 556.162L439.36 523.866Z" fill="#6100C2"/>
</g>
<defs>
<clipPath id="clip0_6_4097">
<rect width="1200" height="675" fill="white"/>
</clipPath>
</defs>
</svg>
