<svg width="1184" height="666" viewBox="0 0 1184 666" fill="none" xmlns="http://www.w3.org/2000/svg">
<g clip-path="url(#clip0_1_308)">
<rect width="1184" height="666" fill="#F4F4EF"/>
<rect y="297" width="1184" height="377" fill="#C2F5FF"/>
<path d="M685.922 189.305C518.41 21.7932 246.82 21.7932 79.3087 189.305C-88.2028 356.816 -88.2028 628.406 79.3087 795.918L198.252 676.974C96.4316 575.153 96.4316 410.069 198.252 308.248C300.073 206.428 465.157 206.428 566.978 308.248L685.922 189.305Z" fill="#B496FF"/>
<path d="M492 484.613C659.511 652.125 931.102 652.125 1098.61 484.613C1266.12 317.102 1266.12 45.5116 1098.61 -122L979.669 -3.05613C1081.49 98.7648 1081.49 263.849 979.669 365.67C877.849 467.49 712.765 467.49 610.944 365.67L492 484.613Z" fill="#6100C2"/>
<circle cx="708.5" cy="293.5" r="57.5" fill="#393A3D"/>
</g>
<defs>
<clipPath id="clip0_1_308">
<rect width="1184" height="666" fill="white"/>
</clipPath>
</defs>
</svg>
