<svg width="1184" height="666" viewBox="0 0 1184 666" fill="none" xmlns="http://www.w3.org/2000/svg">
<g clip-path="url(#clip0_1_400)">
<rect width="1184" height="666" fill="#F4F4EF"/>
<rect x="-8" width="621" height="674" fill="#C2F5FF"/>
<circle cx="293.5" cy="348.5" r="79.5" fill="#393A3D"/>
<rect x="613.289" y="0.277344" width="573.88" height="667.178" fill="#F4F4EF"/>
<rect x="613" y="428" width="571" height="238" fill="#B496FF"/>
<circle cx="19.1597" cy="19.1597" r="19.1597" transform="matrix(1 0 0 -1 635.781 44.707)" fill="#6100C2"/>
<circle cx="19.1597" cy="19.1597" r="19.1597" transform="matrix(1 0 0 -1 697.844 44.707)" fill="#6100C2"/>
<circle cx="19.1597" cy="19.1597" r="19.1597" transform="matrix(1 0 0 -1 759.914 44.707)" fill="#6100C2"/>
<circle cx="19.1597" cy="19.1597" r="19.1597" transform="matrix(1 0 0 -1 821.977 44.707)" fill="#6100C2"/>
<circle cx="19.1597" cy="19.1597" r="19.1597" transform="matrix(1 0 0 -1 635.781 106.535)" fill="#6100C2"/>
<circle cx="19.1597" cy="19.1597" r="19.1597" transform="matrix(1 0 0 -1 697.844 106.535)" fill="#6100C2"/>
<circle cx="19.1597" cy="19.1597" r="19.1597" transform="matrix(1 0 0 -1 759.914 106.535)" fill="#6100C2"/>
<circle cx="19.1597" cy="19.1597" r="19.1597" transform="matrix(1 0 0 -1 821.977 106.535)" fill="#6100C2"/>
<circle cx="19.1597" cy="19.1597" r="19.1597" transform="matrix(1 0 0 -1 635.781 168.367)" fill="#6100C2"/>
<circle cx="19.1597" cy="19.1597" r="19.1597" transform="matrix(1 0 0 -1 697.844 168.367)" fill="#6100C2"/>
<circle cx="19.1597" cy="19.1597" r="19.1597" transform="matrix(1 0 0 -1 759.914 168.367)" fill="#6100C2"/>
<circle cx="19.1597" cy="19.1597" r="19.1597" transform="matrix(1 0 0 -1 821.977 168.367)" fill="#6100C2"/>
<circle cx="19.1597" cy="19.1597" r="19.1597" transform="matrix(1 0 0 -1 635.781 230.199)" fill="#6100C2"/>
<circle cx="19.1597" cy="19.1597" r="19.1597" transform="matrix(1 0 0 -1 697.844 230.199)" fill="#6100C2"/>
<circle cx="19.1597" cy="19.1597" r="19.1597" transform="matrix(1 0 0 -1 760 230.32)" fill="#6100C2"/>
<circle cx="19.1597" cy="19.1597" r="19.1597" transform="matrix(1 0 0 -1 821.977 230.199)" fill="#6100C2"/>
<circle cx="19.1597" cy="19.1597" r="19.1597" transform="matrix(1 0 0 -1 635.781 292.031)" fill="#6100C2"/>
<circle cx="19.1597" cy="19.1597" r="19.1597" transform="matrix(1 0 0 -1 697.844 292.031)" fill="#6100C2"/>
<circle cx="19.1597" cy="19.1597" r="19.1597" transform="matrix(1 0 0 -1 759.914 292.031)" fill="#6100C2"/>
<circle cx="19.1597" cy="19.1597" r="19.1597" transform="matrix(1 0 0 -1 821.977 292.031)" fill="#6100C2"/>
<circle cx="19.1597" cy="19.1597" r="19.1597" transform="matrix(1 0 0 -1 635.781 353.859)" fill="#6100C2"/>
<circle cx="19.1597" cy="19.1597" r="19.1597" transform="matrix(1 0 0 -1 697.844 353.859)" fill="#6100C2"/>
<circle cx="19.1597" cy="19.1597" r="19.1597" transform="matrix(1 0 0 -1 759.914 353.859)" fill="#6100C2"/>
<circle cx="19.1597" cy="19.1597" r="19.1597" transform="matrix(1 0 0 -1 821.977 353.859)" fill="#6100C2"/>
<circle cx="19.1597" cy="19.1597" r="19.1597" transform="matrix(1 0 0 -1 635.781 415.691)" fill="#6100C2"/>
<circle cx="19.1597" cy="19.1597" r="19.1597" transform="matrix(1 0 0 -1 697.844 415.691)" fill="#6100C2"/>
<circle cx="19.1597" cy="19.1597" r="19.1597" transform="matrix(1 0 0 -1 759.914 415.691)" fill="#6100C2"/>
<circle cx="19.1597" cy="19.1597" r="19.1597" transform="matrix(1 0 0 -1 821.977 415.691)" fill="#6100C2"/>
<circle cx="19.1597" cy="19.1597" r="19.1597" transform="matrix(1 0 0 -1 635.781 477.523)" fill="#6100C2"/>
<circle cx="19.1597" cy="19.1597" r="19.1597" transform="matrix(1 0 0 -1 697.844 477.523)" fill="#6100C2"/>
<circle cx="19.1597" cy="19.1597" r="19.1597" transform="matrix(1 0 0 -1 759.914 477.523)" fill="#6100C2"/>
<circle cx="19.1597" cy="19.1597" r="19.1597" transform="matrix(1 0 0 -1 821.977 477.523)" fill="#6100C2"/>
<circle cx="19.1597" cy="19.1597" r="19.1597" transform="matrix(1 0 0 -1 635.781 539.355)" fill="#6100C2"/>
<circle cx="19.1597" cy="19.1597" r="19.1597" transform="matrix(1 0 0 -1 697.844 539.355)" fill="#6100C2"/>
<circle cx="19.1597" cy="19.1597" r="19.1597" transform="matrix(1 0 0 -1 759.914 539.355)" fill="#6100C2"/>
<circle cx="19.1597" cy="19.1597" r="19.1597" transform="matrix(1 0 0 -1 821.977 539.355)" fill="#6100C2"/>
<circle cx="19.1597" cy="19.1597" r="19.1597" transform="matrix(1 0 0 -1 635.781 601.188)" fill="#6100C2"/>
<circle cx="19.1597" cy="19.1597" r="19.1597" transform="matrix(1 0 0 -1 697.844 601.188)" fill="#6100C2"/>
<circle cx="19.1597" cy="19.1597" r="19.1597" transform="matrix(1 0 0 -1 759.914 601.188)" fill="#6100C2"/>
<circle cx="19.1597" cy="19.1597" r="19.1597" transform="matrix(1 0 0 -1 821.977 601.188)" fill="#6100C2"/>
<path fill-rule="evenodd" clip-rule="evenodd" d="M918.241 99.3547C905.036 88.412 890.896 88.4115 877.681 99.3551L876 84.8876C890.309 73.0378 905.622 73.0372 919.922 84.8874C919.922 84.8876 919.922 84.8871 919.922 84.8874L936.36 98.4955C949.575 109.439 963.716 109.439 976.921 98.4961L993.359 84.8876C993.359 84.8875 993.359 84.8877 993.359 84.8876C1007.67 73.0381 1022.98 73.0373 1037.28 84.8874C1037.28 84.8876 1037.28 84.8871 1037.28 84.8874L1053.72 98.4955C1066.93 109.439 1081.07 109.439 1094.28 98.4961L1110.72 84.8876C1110.72 84.8875 1110.72 84.8877 1110.72 84.8876C1125.03 73.038 1140.34 73.0372 1154.64 84.8874C1154.64 84.8876 1154.64 84.8872 1154.64 84.8874L1171.08 98.4955C1184.29 109.439 1198.43 109.439 1211.64 98.4961L1228.08 84.8876C1242.39 73.0376 1257.7 73.0372 1272 84.888L1270.32 99.3547C1257.11 88.412 1242.97 88.4115 1229.76 99.3551L1213.32 112.963C1213.32 112.963 1213.32 112.963 1213.32 112.963C1199.02 124.813 1183.71 124.813 1169.4 112.963L1152.96 99.3553C1139.75 88.4126 1125.61 88.4115 1112.4 99.3551L1095.96 112.963C1081.66 124.814 1066.35 124.813 1052.04 112.963C1052.04 112.963 1052.04 112.964 1052.04 112.963L1035.6 99.3553C1022.4 88.4126 1008.25 88.4115 995.04 99.3551L978.602 112.963C964.302 124.814 948.989 124.813 934.68 112.963C934.68 112.963 934.68 112.964 934.68 112.963L918.241 99.3547Z" fill="#B496FF"/>
<path fill-rule="evenodd" clip-rule="evenodd" d="M918.241 155.245C905.036 144.303 890.896 144.302 877.681 155.246L876 140.778C890.309 128.928 905.622 128.928 919.922 140.778C919.922 140.778 919.922 140.778 919.922 140.778L936.36 154.386C949.575 165.33 963.716 165.329 976.921 154.387L993.359 140.778C993.359 140.778 993.359 140.778 993.359 140.778C1007.67 128.929 1022.98 128.928 1037.28 140.778C1037.28 140.778 1037.28 140.778 1037.28 140.778L1053.72 154.386C1066.93 165.33 1081.07 165.329 1094.28 154.387L1110.72 140.778C1110.72 140.778 1110.72 140.778 1110.72 140.778C1125.03 128.929 1140.34 128.928 1154.64 140.778C1154.64 140.778 1154.64 140.778 1154.64 140.778L1171.08 154.386C1184.29 165.33 1198.43 165.329 1211.64 154.387L1228.08 140.778C1242.39 128.928 1257.7 128.928 1272 140.779L1270.32 155.245C1257.11 144.303 1242.97 144.302 1229.76 155.246L1213.32 168.853C1213.32 168.854 1213.32 168.853 1213.32 168.853C1199.02 180.704 1183.71 180.704 1169.4 168.854L1152.96 155.246C1139.75 144.303 1125.61 144.302 1112.4 155.246L1095.96 168.853C1081.66 180.704 1066.35 180.704 1052.04 168.854C1052.04 168.854 1052.04 168.854 1052.04 168.854L1035.6 155.246C1022.4 144.303 1008.25 144.302 995.04 155.246L978.602 168.853C964.302 180.704 948.989 180.704 934.68 168.854C934.68 168.854 934.68 168.854 934.68 168.854L918.241 155.245Z" fill="#B496FF"/>
<path fill-rule="evenodd" clip-rule="evenodd" d="M918.241 211.136C905.036 200.193 890.896 200.193 877.681 211.136L876 196.669C890.309 184.819 905.622 184.818 919.922 196.669C919.922 196.669 919.922 196.668 919.922 196.669L936.36 210.277C949.575 221.22 963.716 221.22 976.921 210.277L993.359 196.669C993.359 196.669 993.359 196.669 993.359 196.669C1007.67 184.819 1022.98 184.819 1037.28 196.669C1037.28 196.669 1037.28 196.668 1037.28 196.669L1053.72 210.277C1066.93 221.22 1081.07 221.22 1094.28 210.277L1110.72 196.669C1110.72 196.669 1110.72 196.669 1110.72 196.669C1125.03 184.819 1140.34 184.818 1154.64 196.669C1154.64 196.669 1154.64 196.668 1154.64 196.669L1171.08 210.277C1184.29 221.22 1198.43 221.22 1211.64 210.277L1228.08 196.669C1242.39 184.819 1257.7 184.818 1272 196.669L1270.32 211.136C1257.11 200.193 1242.97 200.193 1229.76 211.136L1213.32 224.744C1213.32 224.744 1213.32 224.744 1213.32 224.744C1199.02 236.594 1183.71 236.594 1169.4 224.744L1152.96 211.137C1139.75 200.194 1125.61 200.193 1112.4 211.136L1095.96 224.744C1081.66 236.595 1066.35 236.594 1052.04 224.745C1052.04 224.745 1052.04 224.745 1052.04 224.745L1035.6 211.137C1022.4 200.194 1008.25 200.193 995.04 211.136L978.602 224.744C964.302 236.595 948.989 236.594 934.68 224.745C934.68 224.745 934.68 224.745 934.68 224.745L918.241 211.136Z" fill="#B496FF"/>
<path fill-rule="evenodd" clip-rule="evenodd" d="M918.241 267.027C905.036 256.084 890.896 256.083 877.681 267.027L876 252.559C890.309 240.71 905.622 240.709 919.922 252.559C919.922 252.559 919.922 252.559 919.922 252.559L936.36 266.167C949.575 277.111 963.716 277.111 976.921 266.168L993.359 252.559C993.359 252.559 993.359 252.56 993.359 252.559C1007.67 240.71 1022.98 240.709 1037.28 252.559C1037.28 252.559 1037.28 252.559 1037.28 252.559L1053.72 266.167C1066.93 277.111 1081.07 277.111 1094.28 266.168L1110.72 252.559C1110.72 252.559 1110.72 252.56 1110.72 252.559C1125.03 240.71 1140.34 240.709 1154.64 252.559C1154.64 252.559 1154.64 252.559 1154.64 252.559L1171.08 266.167C1184.29 277.111 1198.43 277.111 1211.64 266.168L1228.08 252.559C1242.39 240.709 1257.7 240.709 1272 252.56L1270.32 267.027C1257.11 256.084 1242.97 256.083 1229.76 267.027L1213.32 280.635C1213.32 280.635 1213.32 280.634 1213.32 280.635C1199.02 292.485 1183.71 292.485 1169.4 280.635L1152.96 267.027C1139.75 256.085 1125.61 256.083 1112.4 267.027L1095.96 280.635C1081.66 292.485 1066.35 292.485 1052.04 280.635C1052.04 280.635 1052.04 280.635 1052.04 280.635L1035.6 267.027C1022.4 256.085 1008.25 256.083 995.04 267.027L978.602 280.635C964.302 292.485 948.989 292.485 934.68 280.635C934.68 280.635 934.68 280.635 934.68 280.635L918.241 267.027Z" fill="#B496FF"/>
<path fill-rule="evenodd" clip-rule="evenodd" d="M918.241 322.917C905.036 311.974 890.896 311.974 877.681 322.918L876 308.45C890.309 296.6 905.622 296.6 919.922 308.45C919.922 308.45 919.922 308.45 919.922 308.45L936.36 322.058C949.575 333.002 963.716 333.001 976.921 322.059L993.359 308.45C993.359 308.45 993.359 308.45 993.359 308.45C1007.67 296.601 1022.98 296.6 1037.28 308.45C1037.28 308.45 1037.28 308.45 1037.28 308.45L1053.72 322.058C1066.93 333.002 1081.07 333.001 1094.28 322.059L1110.72 308.45C1110.72 308.45 1110.72 308.45 1110.72 308.45C1125.03 296.601 1140.34 296.6 1154.64 308.45C1154.64 308.45 1154.64 308.45 1154.64 308.45L1171.08 322.058C1184.29 333.002 1198.43 333.001 1211.64 322.059L1228.08 308.45C1242.39 296.6 1257.7 296.6 1272 308.451L1270.32 322.917C1257.11 311.974 1242.97 311.974 1229.76 322.918L1213.32 336.525C1213.32 336.525 1213.32 336.525 1213.32 336.525C1199.02 348.375 1183.71 348.375 1169.4 336.526L1152.96 322.918C1139.75 311.975 1125.61 311.974 1112.4 322.918L1095.96 336.525C1081.66 348.376 1066.35 348.376 1052.04 336.526C1052.04 336.526 1052.04 336.526 1052.04 336.526L1035.6 322.918C1022.4 311.975 1008.25 311.974 995.04 322.918L978.602 336.525C964.302 348.376 948.989 348.376 934.68 336.526C934.68 336.526 934.68 336.526 934.68 336.526L918.241 322.917Z" fill="#B496FF"/>
<path d="M0 292L-2.57897e-05 -2.99997L294 -3L0 292Z" fill="#6100C2"/>
</g>
<defs>
<clipPath id="clip0_1_400">
<rect width="1184" height="666" fill="white"/>
</clipPath>
</defs>
</svg>
