<svg width="1200" height="675" viewBox="0 0 1200 675" fill="none" xmlns="http://www.w3.org/2000/svg">
<g clip-path="url(#clip0_6_4055)">
<rect width="1200" height="675" fill="#F4F4EF"/>
<rect width="592" height="674" fill="#C2F5FF"/>
<path fill-rule="evenodd" clip-rule="evenodd" d="M92.5534 832.107C230.378 832.107 342.107 720.378 342.107 582.553C342.107 444.729 230.378 333 92.5534 333C-45.2712 333 -157 444.729 -157 582.553C-157 720.378 -45.2712 832.107 92.5534 832.107ZM92.5534 734.243C176.329 734.243 244.243 666.329 244.243 582.553C244.243 498.778 176.329 430.864 92.5534 430.864C8.77772 430.864 -59.1359 498.778 -59.1359 582.553C-59.1359 666.329 8.77772 734.243 92.5534 734.243Z" fill="#B496FF"/>
<path fill-rule="evenodd" clip-rule="evenodd" d="M591.553 333.107C729.378 333.107 841.107 221.378 841.107 83.5534C841.107 -54.2711 729.378 -166 591.553 -166C453.729 -166 342 -54.2711 342 83.5534C342 221.378 453.729 333.107 591.553 333.107ZM591.553 235.243C675.329 235.243 743.243 167.329 743.243 83.5534C743.243 -0.222431 675.329 -68.1359 591.553 -68.1359C507.778 -68.1359 439.864 -0.222431 439.864 83.5534C439.864 167.329 507.778 235.243 591.553 235.243Z" fill="#6100C2"/>
<path fill-rule="evenodd" clip-rule="evenodd" d="M1090.55 829.107C1228.38 829.107 1340.11 717.378 1340.11 579.553C1340.11 441.729 1228.38 330 1090.55 330C952.729 330 841 441.729 841 579.553C841 717.378 952.729 829.107 1090.55 829.107ZM1090.55 731.243C1174.33 731.243 1242.24 663.329 1242.24 579.553C1242.24 495.778 1174.33 427.864 1090.55 427.864C1006.78 427.864 938.864 495.778 938.864 579.553C938.864 663.329 1006.78 731.243 1090.55 731.243Z" fill="#6100C2"/>
<path d="M592.5 588L501.134 430.5L683.866 430.5L592.5 588Z" fill="#393A3D"/>
</g>
<defs>
<clipPath id="clip0_6_4055">
<rect width="1200" height="675" fill="white"/>
</clipPath>
</defs>
</svg>
