<svg width="1184" height="666" viewBox="0 0 1184 666" fill="none" xmlns="http://www.w3.org/2000/svg">
<g clip-path="url(#clip0_1_1168)">
<rect width="1184" height="666" fill="#F4F4EF"/>
<path fill-rule="evenodd" clip-rule="evenodd" d="M32.9486 580.732C17.5107 606.329 17.5101 633.739 32.9491 659.355L12.5385 662.613C-4.17898 634.877 -4.1799 605.194 12.5382 577.474C12.5385 577.473 12.5379 577.474 12.5382 577.474L31.7363 545.61C47.1754 519.995 47.1751 492.584 31.7373 466.987L12.5385 435.123C12.5384 435.122 12.5386 435.123 12.5385 435.123C-4.17865 407.386 -4.17977 377.703 12.5382 349.983C12.5385 349.983 12.5379 349.984 12.5382 349.983L31.7364 318.12C47.1754 292.504 47.1751 265.093 31.7373 239.496L12.5386 207.632C12.5385 207.632 12.5387 207.632 12.5386 207.632C-4.17863 179.895 -4.17976 150.213 12.5383 122.492C12.5386 122.492 12.538 122.493 12.5383 122.492L31.7364 90.629C47.1755 65.0133 47.1752 37.6025 31.7373 12.0058L12.5386 -19.8587C-4.1792 -47.5959 -4.17981 -77.2788 12.5392 -105L32.9486 -101.74C17.5108 -76.1428 17.5102 -48.7326 32.9492 -23.1169L52.1468 8.7456C52.1471 8.7461 52.1465 8.7451 52.1468 8.7456C68.8649 36.4661 68.8649 66.15 52.1474 93.8867L32.9495 125.75C17.5117 151.346 17.5101 178.758 32.9492 204.374L52.1467 236.236C68.8656 263.957 68.8651 293.64 52.1476 321.377C52.1475 321.377 52.1477 321.377 52.1476 321.377L32.9495 353.24C17.5116 378.837 17.5101 406.249 32.9492 431.864L52.1467 463.727C68.8656 491.448 68.8651 521.13 52.1476 548.867C52.1475 548.868 52.1477 548.867 52.1476 548.867L32.9486 580.732Z" fill="#A0CFFF"/>
<path fill-rule="evenodd" clip-rule="evenodd" d="M111.8 580.732C96.3623 606.329 96.3616 633.739 111.801 659.355L91.3901 662.613C74.6726 634.877 74.6717 605.194 91.3898 577.474C91.3901 577.473 91.3895 577.474 91.3898 577.474L110.588 545.61C126.027 519.995 126.027 492.584 110.589 466.987L91.3901 435.123C91.39 435.122 91.3902 435.123 91.3901 435.123C74.6729 407.386 74.6718 377.703 91.3898 349.983C91.3901 349.983 91.3895 349.984 91.3898 349.983L110.588 318.12C126.027 292.504 126.027 265.093 110.589 239.496L91.3901 207.632C91.39 207.632 91.3902 207.632 91.3901 207.632C74.6729 179.895 74.6718 150.213 91.3898 122.492C91.3901 122.492 91.3895 122.493 91.3898 122.492L110.588 90.629C126.027 65.0133 126.027 37.6025 110.589 12.0058L91.3902 -19.8587C74.6724 -47.5959 74.6718 -77.2788 91.3908 -105L111.8 -101.74C96.3623 -76.1428 96.3617 -48.7326 111.801 -23.1169L130.998 8.7456C130.999 8.7461 130.998 8.7451 130.998 8.7456C147.716 36.4661 147.716 66.15 130.999 93.8867L111.801 125.75C96.3632 151.346 96.3617 178.758 111.801 204.374L130.998 236.236C147.717 263.957 147.717 293.64 130.999 321.377C130.999 321.377 130.999 321.377 130.999 321.377L111.801 353.24C96.3632 378.837 96.3617 406.249 111.801 431.864L130.998 463.727C147.717 491.448 147.717 521.13 130.999 548.867C130.999 548.868 130.999 548.867 130.999 548.867L111.8 580.732Z" fill="#A0CFFF"/>
<path fill-rule="evenodd" clip-rule="evenodd" d="M190.644 580.732C175.206 606.329 175.205 633.739 190.644 659.355L170.234 662.613C153.516 634.877 153.515 605.194 170.234 577.474C170.234 577.473 170.233 577.474 170.234 577.474L189.432 545.61C204.871 519.995 204.87 492.584 189.433 466.987L170.234 435.123C170.234 435.122 170.234 435.123 170.234 435.123C153.517 407.386 153.516 377.703 170.234 349.983C170.234 349.983 170.233 349.984 170.234 349.983L189.432 318.12C204.871 292.504 204.87 265.093 189.433 239.496L170.234 207.632C170.234 207.632 170.234 207.632 170.234 207.632C153.517 179.895 153.516 150.213 170.234 122.492C170.234 122.492 170.233 122.493 170.234 122.492L189.432 90.629C204.871 65.0133 204.87 37.6025 189.433 12.0058L170.234 -19.8587C153.516 -47.5959 153.516 -77.2788 170.235 -105L190.644 -101.74C175.206 -76.1428 175.205 -48.7326 190.645 -23.1169L209.842 8.7456C209.842 8.7461 209.842 8.7451 209.842 8.7456C226.56 36.4661 226.56 66.15 209.843 93.8867L190.645 125.75C175.207 151.346 175.205 178.758 190.645 204.374L209.842 236.236C226.561 263.957 226.56 293.64 209.843 321.377C209.843 321.377 209.843 321.377 209.843 321.377L190.645 353.24C175.207 378.837 175.205 406.249 190.644 431.864L209.842 463.727C226.561 491.448 226.56 521.13 209.843 548.867C209.843 548.868 209.843 548.867 209.843 548.867L190.644 580.732Z" fill="#A0CFFF"/>
<path fill-rule="evenodd" clip-rule="evenodd" d="M269.495 580.732C254.058 606.329 254.057 633.739 269.496 659.355L249.085 662.613C232.368 634.877 232.367 605.194 249.085 577.474C249.085 577.473 249.085 577.474 249.085 577.474L268.283 545.61C283.722 519.995 283.722 492.584 268.284 466.987L249.085 435.123C249.085 435.122 249.086 435.123 249.085 435.123C232.368 407.386 232.367 377.703 249.085 349.983C249.085 349.983 249.085 349.984 249.085 349.983L268.283 318.12C283.722 292.504 283.722 265.093 268.284 239.496L249.085 207.632C249.085 207.632 249.086 207.632 249.085 207.632C232.368 179.895 232.367 150.213 249.085 122.492C249.085 122.492 249.085 122.493 249.085 122.492L268.283 90.629C283.722 65.0133 283.722 37.6025 268.284 12.0058L249.085 -19.8587C232.368 -47.5959 232.367 -77.2788 249.086 -105L269.496 -101.74C254.058 -76.1428 254.057 -48.7326 269.496 -23.1169L288.694 8.7456C288.694 8.7461 288.693 8.7451 288.694 8.7456C305.412 36.4661 305.412 66.15 288.694 93.8867L269.496 125.75C254.059 151.346 254.057 178.758 269.496 204.374L288.694 236.236C305.413 263.957 305.412 293.64 288.695 321.377C288.694 321.377 288.695 321.377 288.695 321.377L269.496 353.24C254.059 378.837 254.057 406.249 269.496 431.864L288.694 463.727C305.412 491.448 305.412 521.13 288.694 548.867C288.694 548.868 288.695 548.867 288.694 548.867L269.495 580.732Z" fill="#A0CFFF"/>
<path fill-rule="evenodd" clip-rule="evenodd" d="M348.347 580.732C332.909 606.329 332.909 633.739 348.348 659.355L327.937 662.613C311.219 634.877 311.219 605.194 327.937 577.474C327.937 577.473 327.936 577.474 327.937 577.474L347.135 545.61C362.574 519.995 362.574 492.584 347.136 466.987L327.937 435.123C327.937 435.122 327.937 435.123 327.937 435.123C311.22 407.386 311.219 377.703 327.937 349.983C327.937 349.983 327.936 349.984 327.937 349.983L347.135 318.12C362.574 292.504 362.574 265.093 347.136 239.496L327.937 207.632C327.937 207.632 327.937 207.632 327.937 207.632C311.22 179.895 311.219 150.213 327.937 122.492C327.937 122.492 327.936 122.493 327.937 122.492L347.135 90.629C362.574 65.0133 362.574 37.6025 347.136 12.0058L327.937 -19.8587C311.219 -47.5959 311.219 -77.2788 327.938 -105L348.347 -101.74C332.909 -76.1428 332.909 -48.7326 348.348 -23.1169L367.545 8.7456C367.546 8.7461 367.545 8.7451 367.545 8.7456C384.263 36.4661 384.263 66.15 367.546 93.8867L348.348 125.75C332.91 151.346 332.909 178.758 348.348 204.374L367.545 236.236C384.264 263.957 384.264 293.64 367.546 321.377C367.546 321.377 367.546 321.377 367.546 321.377L348.348 353.24C332.91 378.837 332.909 406.249 348.348 431.864L367.545 463.727C384.264 491.448 384.264 521.13 367.546 548.867C367.546 548.868 367.546 548.867 367.546 548.867L348.347 580.732Z" fill="#A0CFFF"/>
<rect x="588" width="595" height="663" fill="#A0CFFF"/>
<path d="M1183 283V-5.24521e-06H900L1183 283Z" fill="#5BEF76"/>
<path d="M1.08593 382.613L1.08591 665.613L284.086 665.613L1.08593 382.613Z" fill="#5BEF76"/>
<path fill-rule="evenodd" clip-rule="evenodd" d="M347 333C347 472.176 459.824 585 599 585C738.176 585 851 472.176 851 333C851 193.824 738.176 81 599 81C459.824 81 347 193.824 347 333ZM445.824 333C445.824 417.597 514.403 486.176 599 486.176C683.597 486.176 752.176 417.597 752.176 333C752.176 248.403 683.597 179.824 599 179.824C514.403 179.824 445.824 248.403 445.824 333Z" fill="#006C23"/>
<circle cx="598.5" cy="332.5" r="39.6068" transform="rotate(90 598.5 332.5)" fill="#006C23" stroke="#5BEF76" stroke-width="9.78641"/>
</g>
<defs>
<clipPath id="clip0_1_1168">
<rect width="1184" height="666" fill="white"/>
</clipPath>
</defs>
</svg>
