<svg width="1184" height="666" viewBox="0 0 1184 666" fill="none" xmlns="http://www.w3.org/2000/svg">
<g clip-path="url(#clip0_1_1150)">
<rect width="1184" height="666" fill="#F4F4EF"/>
<path fill-rule="evenodd" clip-rule="evenodd" d="M1151.14 84.8808C1166.58 59.2842 1166.58 31.8739 1151.14 6.25824L1171.55 3C1188.26 30.7367 1188.27 60.4191 1171.55 88.1395C1171.55 88.14 1171.55 88.139 1171.55 88.1395L1152.35 120.003C1136.91 145.619 1136.91 173.029 1152.35 198.626L1171.55 230.491C1171.55 230.491 1171.55 230.491 1171.55 230.491C1188.26 258.227 1188.27 287.91 1171.55 315.63C1171.55 315.631 1171.55 315.63 1171.55 315.63L1152.35 347.494C1136.91 373.109 1136.91 400.52 1152.35 426.117L1171.55 457.981C1171.55 457.981 1171.55 457.981 1171.55 457.981C1188.26 485.718 1188.27 515.401 1171.55 543.121C1171.55 543.121 1171.55 543.12 1171.55 543.121L1152.35 574.984C1136.91 600.6 1136.91 628.011 1152.35 653.608L1171.55 685.472C1188.27 713.209 1188.27 742.892 1171.55 770.613L1151.14 767.353C1166.58 741.756 1166.58 714.346 1151.14 688.73L1131.94 656.868C1131.94 656.867 1131.94 656.868 1131.94 656.868C1115.22 629.147 1115.22 599.463 1131.94 571.727L1151.14 539.864C1166.57 514.267 1166.58 486.855 1151.14 461.24L1131.94 429.377C1115.22 401.656 1115.22 371.974 1131.94 344.236C1131.94 344.236 1131.94 344.237 1131.94 344.236L1151.14 312.373C1166.57 286.776 1166.58 259.365 1151.14 233.749L1131.94 201.886C1115.22 174.166 1115.22 144.483 1131.94 116.746C1131.94 116.746 1131.94 116.746 1131.94 116.746L1151.14 84.8808Z" fill="#A0CFFF"/>
<path fill-rule="evenodd" clip-rule="evenodd" d="M1072.29 84.8808C1087.72 59.2842 1087.72 31.8739 1072.29 6.25824L1092.7 3C1109.41 30.7367 1109.41 60.4191 1092.7 88.1395C1092.7 88.14 1092.7 88.139 1092.7 88.1395L1073.5 120.003C1058.06 145.619 1058.06 173.029 1073.5 198.626L1092.7 230.491C1092.7 230.491 1092.7 230.491 1092.7 230.491C1109.41 258.227 1109.41 287.91 1092.7 315.63C1092.7 315.631 1092.7 315.63 1092.7 315.63L1073.5 347.494C1058.06 373.109 1058.06 400.52 1073.5 426.117L1092.7 457.981C1092.7 457.981 1092.7 457.981 1092.7 457.981C1109.41 485.718 1109.41 515.401 1092.7 543.121C1092.7 543.121 1092.7 543.12 1092.7 543.121L1073.5 574.984C1058.06 600.6 1058.06 628.011 1073.5 653.608L1092.7 685.472C1109.41 713.209 1109.41 742.892 1092.7 770.613L1072.29 767.353C1087.72 741.756 1087.72 714.346 1072.29 688.73L1053.09 656.868C1053.09 656.867 1053.09 656.868 1053.09 656.868C1036.37 629.147 1036.37 599.463 1053.09 571.727L1072.28 539.864C1087.72 514.267 1087.72 486.855 1072.29 461.24L1053.09 429.377C1036.37 401.656 1036.37 371.974 1053.09 344.236C1053.09 344.236 1053.09 344.237 1053.09 344.236L1072.28 312.373C1087.72 286.776 1087.72 259.365 1072.29 233.749L1053.09 201.886C1036.37 174.166 1036.37 144.483 1053.09 116.746C1053.09 116.746 1053.09 116.746 1053.09 116.746L1072.29 84.8808Z" fill="#A0CFFF"/>
<path fill-rule="evenodd" clip-rule="evenodd" d="M993.442 84.8808C1008.88 59.2842 1008.88 31.8739 993.441 6.25824L1013.85 3C1030.57 30.7367 1030.57 60.4191 1013.85 88.1395C1013.85 88.14 1013.85 88.139 1013.85 88.1395L994.654 120.003C979.215 145.619 979.216 173.029 994.653 198.626L1013.85 230.491C1013.85 230.491 1013.85 230.491 1013.85 230.491C1030.57 258.227 1030.57 287.91 1013.85 315.63C1013.85 315.631 1013.85 315.63 1013.85 315.63L994.654 347.494C979.215 373.109 979.216 400.52 994.653 426.117L1013.85 457.981C1013.85 457.981 1013.85 457.981 1013.85 457.981C1030.57 485.718 1030.57 515.401 1013.85 543.121C1013.85 543.121 1013.85 543.12 1013.85 543.121L994.654 574.984C979.215 600.6 979.216 628.011 994.653 653.608L1013.85 685.472C1030.57 713.209 1030.57 742.892 1013.85 770.613L993.442 767.353C1008.88 741.756 1008.88 714.346 993.441 688.73L974.244 656.868C974.244 656.867 974.244 656.868 974.244 656.868C957.526 629.147 957.526 599.463 974.243 571.727L993.441 539.864C1008.88 514.267 1008.88 486.855 993.441 461.24L974.244 429.377C957.525 401.656 957.526 371.974 974.243 344.236C974.243 344.236 974.243 344.237 974.243 344.236L993.441 312.373C1008.88 286.776 1008.88 259.365 993.441 233.749L974.244 201.886C957.525 174.166 957.526 144.483 974.243 116.746C974.243 116.746 974.243 116.746 974.243 116.746L993.442 84.8808Z" fill="#A0CFFF"/>
<path fill-rule="evenodd" clip-rule="evenodd" d="M914.591 84.8808C930.028 59.2842 930.029 31.8739 914.59 6.25824L935.001 3C951.718 30.7367 951.719 60.4191 935.001 88.1395C935.001 88.14 935.001 88.139 935.001 88.1395L915.803 120.003C900.364 145.619 900.364 173.029 915.802 198.626L935.001 230.491C935.001 230.491 935 230.491 935.001 230.491C951.718 258.227 951.719 287.91 935.001 315.63C935.001 315.631 935.001 315.63 935.001 315.63L915.803 347.494C900.364 373.109 900.364 400.52 915.802 426.117L935.001 457.981C935.001 457.981 935 457.981 935.001 457.981C951.718 485.718 951.719 515.401 935.001 543.121C935.001 543.121 935.001 543.12 935.001 543.121L915.803 574.984C900.364 600.6 900.364 628.011 915.802 653.608L935.001 685.472C951.718 713.209 951.719 742.892 935 770.613L914.59 767.353C930.028 741.756 930.029 714.346 914.59 688.73L895.392 656.868C895.392 656.867 895.393 656.868 895.392 656.868C878.674 629.147 878.674 599.463 895.392 571.727L914.59 539.864C930.027 514.267 930.029 486.855 914.59 461.24L895.392 429.377C878.673 401.656 878.674 371.974 895.391 344.236C895.392 344.236 895.391 344.237 895.391 344.236L914.59 312.373C930.027 286.776 930.029 259.365 914.59 233.749L895.392 201.886C878.673 174.166 878.674 144.483 895.391 116.746C895.392 116.746 895.391 116.746 895.391 116.746L914.591 84.8808Z" fill="#A0CFFF"/>
<path fill-rule="evenodd" clip-rule="evenodd" d="M835.739 84.8808C851.177 59.2842 851.177 31.8739 835.738 6.25824L856.149 3C872.866 30.7367 872.867 60.4191 856.149 88.1395C856.149 88.14 856.15 88.139 856.149 88.1395L836.951 120.003C821.512 145.619 821.512 173.029 836.95 198.626L856.149 230.491C856.149 230.491 856.149 230.491 856.149 230.491C872.866 258.227 872.867 287.91 856.149 315.63C856.149 315.631 856.15 315.63 856.149 315.63L836.951 347.494C821.512 373.109 821.512 400.52 836.95 426.117L856.149 457.981C856.149 457.981 856.149 457.981 856.149 457.981C872.866 485.718 872.867 515.401 856.149 543.121C856.149 543.121 856.15 543.12 856.149 543.121L836.951 574.984C821.512 600.6 821.512 628.011 836.95 653.608L856.149 685.472C872.867 713.209 872.867 742.892 856.148 770.613L835.739 767.353C851.177 741.756 851.177 714.346 835.738 688.73L816.541 656.868C816.54 656.867 816.541 656.868 816.541 656.868C799.823 629.147 799.823 599.463 816.54 571.727L835.738 539.864C851.176 514.267 851.177 486.855 835.738 461.24L816.541 429.377C799.822 401.656 799.822 371.974 816.54 344.236C816.54 344.236 816.54 344.237 816.54 344.236L835.738 312.373C851.176 286.776 851.177 259.365 835.738 233.749L816.541 201.886C799.822 174.166 799.822 144.483 816.54 116.746C816.54 116.746 816.54 116.746 816.54 116.746L835.739 84.8808Z" fill="#A0CFFF"/>
<path fill-rule="evenodd" clip-rule="evenodd" d="M32.9486 580.732C17.5107 606.329 17.5101 633.739 32.9491 659.355L12.5385 662.613C-4.17898 634.877 -4.1799 605.194 12.5382 577.474C12.5385 577.473 12.5379 577.474 12.5382 577.474L31.7363 545.61C47.1754 519.995 47.1751 492.584 31.7373 466.987L12.5385 435.123C12.5384 435.122 12.5386 435.123 12.5385 435.123C-4.17865 407.386 -4.17977 377.703 12.5382 349.983C12.5385 349.983 12.5379 349.984 12.5382 349.983L31.7364 318.12C47.1754 292.504 47.1751 265.093 31.7373 239.496L12.5386 207.632C12.5385 207.632 12.5387 207.632 12.5386 207.632C-4.17863 179.895 -4.17976 150.213 12.5383 122.492C12.5386 122.492 12.538 122.493 12.5383 122.492L31.7364 90.629C47.1755 65.0133 47.1752 37.6025 31.7373 12.0058L12.5386 -19.8587C-4.1792 -47.5959 -4.17981 -77.2788 12.5392 -105L32.9486 -101.74C17.5108 -76.1428 17.5102 -48.7326 32.9492 -23.1169L52.1468 8.7456C52.1471 8.7461 52.1465 8.7451 52.1468 8.7456C68.8649 36.4661 68.8649 66.15 52.1474 93.8867L32.9495 125.75C17.5117 151.346 17.5101 178.758 32.9492 204.374L52.1467 236.236C68.8656 263.957 68.8651 293.64 52.1476 321.377C52.1475 321.377 52.1477 321.377 52.1476 321.377L32.9495 353.24C17.5116 378.837 17.5101 406.249 32.9492 431.864L52.1467 463.727C68.8656 491.448 68.8651 521.13 52.1476 548.867C52.1475 548.868 52.1477 548.867 52.1476 548.867L32.9486 580.732Z" fill="#A0CFFF"/>
<path fill-rule="evenodd" clip-rule="evenodd" d="M111.8 580.732C96.3623 606.329 96.3616 633.739 111.801 659.355L91.3901 662.613C74.6726 634.877 74.6717 605.194 91.3898 577.474C91.3901 577.473 91.3895 577.474 91.3898 577.474L110.588 545.61C126.027 519.995 126.027 492.584 110.589 466.987L91.3901 435.123C91.39 435.122 91.3902 435.123 91.3901 435.123C74.6729 407.386 74.6718 377.703 91.3898 349.983C91.3901 349.983 91.3895 349.984 91.3898 349.983L110.588 318.12C126.027 292.504 126.027 265.093 110.589 239.496L91.3901 207.632C91.39 207.632 91.3902 207.632 91.3901 207.632C74.6729 179.895 74.6718 150.213 91.3898 122.492C91.3901 122.492 91.3895 122.493 91.3898 122.492L110.588 90.629C126.027 65.0133 126.027 37.6025 110.589 12.0058L91.3902 -19.8587C74.6724 -47.5959 74.6718 -77.2788 91.3908 -105L111.8 -101.74C96.3623 -76.1428 96.3617 -48.7326 111.801 -23.1169L130.998 8.7456C130.999 8.7461 130.998 8.7451 130.998 8.7456C147.716 36.4661 147.716 66.15 130.999 93.8867L111.801 125.75C96.3632 151.346 96.3617 178.758 111.801 204.374L130.998 236.236C147.717 263.957 147.717 293.64 130.999 321.377C130.999 321.377 130.999 321.377 130.999 321.377L111.801 353.24C96.3632 378.837 96.3617 406.249 111.801 431.864L130.998 463.727C147.717 491.448 147.717 521.13 130.999 548.867C130.999 548.868 130.999 548.867 130.999 548.867L111.8 580.732Z" fill="#A0CFFF"/>
<path fill-rule="evenodd" clip-rule="evenodd" d="M190.644 580.732C175.206 606.329 175.205 633.739 190.644 659.355L170.234 662.613C153.516 634.877 153.515 605.194 170.234 577.474C170.234 577.473 170.233 577.474 170.234 577.474L189.432 545.61C204.871 519.995 204.87 492.584 189.433 466.987L170.234 435.123C170.234 435.122 170.234 435.123 170.234 435.123C153.517 407.386 153.516 377.703 170.234 349.983C170.234 349.983 170.233 349.984 170.234 349.983L189.432 318.12C204.871 292.504 204.87 265.093 189.433 239.496L170.234 207.632C170.234 207.632 170.234 207.632 170.234 207.632C153.517 179.895 153.516 150.213 170.234 122.492C170.234 122.492 170.233 122.493 170.234 122.492L189.432 90.629C204.871 65.0133 204.87 37.6025 189.433 12.0058L170.234 -19.8587C153.516 -47.5959 153.516 -77.2788 170.235 -105L190.644 -101.74C175.206 -76.1428 175.205 -48.7326 190.645 -23.1169L209.842 8.7456C209.842 8.7461 209.842 8.7451 209.842 8.7456C226.56 36.4661 226.56 66.15 209.843 93.8867L190.645 125.75C175.207 151.346 175.205 178.758 190.645 204.374L209.842 236.236C226.561 263.957 226.56 293.64 209.843 321.377C209.843 321.377 209.843 321.377 209.843 321.377L190.645 353.24C175.207 378.837 175.205 406.249 190.644 431.864L209.842 463.727C226.561 491.448 226.56 521.13 209.843 548.867C209.843 548.868 209.843 548.867 209.843 548.867L190.644 580.732Z" fill="#A0CFFF"/>
<path fill-rule="evenodd" clip-rule="evenodd" d="M269.495 580.732C254.058 606.329 254.057 633.739 269.496 659.355L249.085 662.613C232.368 634.877 232.367 605.194 249.085 577.474C249.085 577.473 249.085 577.474 249.085 577.474L268.283 545.61C283.722 519.995 283.722 492.584 268.284 466.987L249.085 435.123C249.085 435.122 249.086 435.123 249.085 435.123C232.368 407.386 232.367 377.703 249.085 349.983C249.085 349.983 249.085 349.984 249.085 349.983L268.283 318.12C283.722 292.504 283.722 265.093 268.284 239.496L249.085 207.632C249.085 207.632 249.086 207.632 249.085 207.632C232.368 179.895 232.367 150.213 249.085 122.492C249.085 122.492 249.085 122.493 249.085 122.492L268.283 90.629C283.722 65.0133 283.722 37.6025 268.284 12.0058L249.085 -19.8587C232.368 -47.5959 232.367 -77.2788 249.086 -105L269.496 -101.74C254.058 -76.1428 254.057 -48.7326 269.496 -23.1169L288.694 8.7456C288.694 8.7461 288.693 8.7451 288.694 8.7456C305.412 36.4661 305.412 66.15 288.694 93.8867L269.496 125.75C254.059 151.346 254.057 178.758 269.496 204.374L288.694 236.236C305.413 263.957 305.412 293.64 288.695 321.377C288.694 321.377 288.695 321.377 288.695 321.377L269.496 353.24C254.059 378.837 254.057 406.249 269.496 431.864L288.694 463.727C305.412 491.448 305.412 521.13 288.694 548.867C288.694 548.868 288.695 548.867 288.694 548.867L269.495 580.732Z" fill="#A0CFFF"/>
<path fill-rule="evenodd" clip-rule="evenodd" d="M348.347 580.732C332.909 606.329 332.909 633.739 348.348 659.355L327.937 662.613C311.219 634.877 311.219 605.194 327.937 577.474C327.937 577.473 327.936 577.474 327.937 577.474L347.135 545.61C362.574 519.995 362.574 492.584 347.136 466.987L327.937 435.123C327.937 435.122 327.937 435.123 327.937 435.123C311.22 407.386 311.219 377.703 327.937 349.983C327.937 349.983 327.936 349.984 327.937 349.983L347.135 318.12C362.574 292.504 362.574 265.093 347.136 239.496L327.937 207.632C327.937 207.632 327.937 207.632 327.937 207.632C311.22 179.895 311.219 150.213 327.937 122.492C327.937 122.492 327.936 122.493 327.937 122.492L347.135 90.629C362.574 65.0133 362.574 37.6025 347.136 12.0058L327.937 -19.8587C311.219 -47.5959 311.219 -77.2788 327.938 -105L348.347 -101.74C332.909 -76.1428 332.909 -48.7326 348.348 -23.1169L367.545 8.7456C367.546 8.7461 367.545 8.7451 367.545 8.7456C384.263 36.4661 384.263 66.15 367.546 93.8867L348.348 125.75C332.91 151.346 332.909 178.758 348.348 204.374L367.545 236.236C384.264 263.957 384.264 293.64 367.546 321.377C367.546 321.377 367.546 321.377 367.546 321.377L348.348 353.24C332.91 378.837 332.909 406.249 348.348 431.864L367.545 463.727C384.264 491.448 384.264 521.13 367.546 548.867C367.546 548.868 367.546 548.867 367.546 548.867L348.347 580.732Z" fill="#A0CFFF"/>
<path d="M1183 283V-5.24521e-06H900L1183 283Z" fill="#5BEF76"/>
<path d="M1.08593 382.613L1.08591 665.613L284.086 665.613L1.08593 382.613Z" fill="#5BEF76"/>
<path fill-rule="evenodd" clip-rule="evenodd" d="M592 967C731.176 967 844 854.176 844 715C844 575.824 731.176 463 592 463C452.824 463 340 575.824 340 715C340 854.176 452.824 967 592 967ZM592 868.176C676.597 868.176 745.176 799.597 745.176 715C745.176 630.403 676.597 561.824 592 561.824C507.403 561.824 438.824 630.403 438.824 715C438.824 799.597 507.403 868.176 592 868.176Z" fill="#006C23"/>
<path fill-rule="evenodd" clip-rule="evenodd" d="M591.5 532C646.452 532 691 487.452 691 432.5C691 377.548 646.452 333 591.5 333C536.548 333 492 377.548 492 432.5C492 487.452 536.548 532 591.5 532ZM591.5 514.441C636.755 514.441 673.441 477.755 673.441 432.5C673.441 387.245 636.755 350.559 591.5 350.559C546.245 350.559 509.559 387.245 509.559 432.5C509.559 477.755 546.245 514.441 591.5 514.441Z" fill="#393A3D"/>
<circle cx="591.5" cy="124.5" r="39.6068" fill="#006C23" stroke="#5BEF76" stroke-width="9.78641"/>
</g>
<defs>
<clipPath id="clip0_1_1150">
<rect width="1184" height="666" fill="white"/>
</clipPath>
</defs>
</svg>
