<svg width="1200" height="675" viewBox="0 0 1200 675" fill="none" xmlns="http://www.w3.org/2000/svg">
<g clip-path="url(#clip0_6_3245)">
<rect width="1200" height="675" fill="#F4F4EF"/>
<rect x="1" width="829" height="367" fill="#A0CFFF"/>
<path d="M790 570L373.442 -147L1206.56 -147L790 570Z" fill="#5BEF76"/>
<ellipse cx="789.5" cy="171" rx="84.5" ry="84" fill="#393A3D"/>
<rect x="1" y="367" width="1184" height="27.1021" fill="#393A3D"/>
<rect x="1" y="421.203" width="1184" height="27.1021" fill="#393A3D"/>
<rect x="1" y="475.406" width="1184" height="27.1021" fill="#393A3D"/>
<rect x="1" y="529.609" width="1184" height="27.1021" fill="#393A3D"/>
<rect x="1" y="583.816" width="1184" height="27.1021" fill="#393A3D"/>
<rect x="1" y="638.02" width="1184" height="27.1021" fill="#393A3D"/>
<path d="M393 92L809.558 808.25H-23.5582L393 92Z" fill="#006C23"/>
<path fill-rule="evenodd" clip-rule="evenodd" d="M277 454C277 518.065 328.935 570 393 570C457.065 570 509 518.065 509 454C509 389.935 457.065 338 393 338C328.935 338 277 389.935 277 454ZM322.49 454C322.49 492.941 354.058 524.51 393 524.51C431.942 524.51 463.51 492.941 463.51 454C463.51 415.059 431.942 383.49 393 383.49C354.058 383.49 322.49 415.059 322.49 454Z" fill="#5BEF76"/>
</g>
<defs>
<clipPath id="clip0_6_3245">
<rect width="1200" height="675" fill="white"/>
</clipPath>
</defs>
</svg>
