<svg width="1184" height="666" viewBox="0 0 1184 666" fill="none" xmlns="http://www.w3.org/2000/svg">
<g clip-path="url(#clip0_1_914)">
<rect width="1184" height="666" fill="#F4F4EF"/>
<rect x="592" y="667" width="667" height="40.1333" transform="rotate(-90 592 667)" fill="#A0CFFF"/>
<rect x="672.266" y="667" width="667" height="40.1333" transform="rotate(-90 672.266 667)" fill="#A0CFFF"/>
<rect x="752.531" y="667" width="667" height="40.1333" transform="rotate(-90 752.531 667)" fill="#A0CFFF"/>
<rect x="832.797" y="667" width="667" height="40.1333" transform="rotate(-90 832.797 667)" fill="#A0CFFF"/>
<rect x="913.07" y="667" width="667" height="40.1333" transform="rotate(-90 913.07 667)" fill="#A0CFFF"/>
<rect x="993.336" y="667" width="667" height="40.1333" transform="rotate(-90 993.336 667)" fill="#A0CFFF"/>
<rect x="1073.6" y="667" width="667" height="40.1333" transform="rotate(-90 1073.6 667)" fill="#A0CFFF"/>
<rect x="1153.87" y="667" width="667" height="40.1333" transform="rotate(-90 1153.87 667)" fill="#A0CFFF"/>
<rect width="597" height="666" fill="#A0CFFF"/>
<path d="M907 333C907 159.583 765.97 19 592 19C418.03 19 277 159.583 277 333L907 333Z" fill="#006C23"/>
<path d="M907 333C907 506.97 765.97 648 592 648C418.03 648 277 506.97 277 333L907 333Z" fill="#5BEF76"/>
<path d="M334.5 333.5C334.5 475.437 449.787 590.5 592 590.5C734.213 590.5 849.5 475.437 849.5 333.5L334.5 333.5Z" fill="#006C23"/>
<path d="M334.5 333.5C334.5 191.563 449.787 76.5 592 76.5C734.213 76.5 849.5 191.563 849.5 333.5L334.5 333.5Z" fill="#5BEF76"/>
<path d="M786 334C786 226.857 699.143 140 592 140C484.857 140 398 226.857 398 334L786 334Z" fill="#006C23"/>
<path d="M786 334C786 440.591 699.143 527 592 527C484.857 527 398 440.591 398 334L786 334Z" fill="#5BEF76"/>
<path d="M592 469C666.558 469 727 408.335 727 333.5C727 258.665 666.558 198 592 198L592 469Z" fill="#006C23"/>
<path d="M592 469C517.442 469 457 408.335 457 333.5C457 258.665 517.442 198 592 198L592 469Z" fill="#5BEF76"/>
<path d="M494 334C494 387.572 537.876 431 592 431C646.124 431 690 387.572 690 334L494 334Z" fill="#006C23"/>
<path d="M494 334C494 279.876 537.876 236 592 236C646.124 236 690 279.876 690 334L494 334Z" fill="#5BEF76"/>
<path d="M592 264C553.892 264 523 295.116 523 333.5C523 371.884 553.892 403 592 403L592 264Z" fill="#006C23"/>
<path d="M592 264C630.108 264 661 295.116 661 333.5C661 371.884 630.108 403 592 403L592 264Z" fill="#5BEF76"/>
<path d="M642 334C642 306.386 619.614 284 592 284C564.386 284 542 306.386 542 334L642 334Z" fill="#006C23"/>
<path d="M642 334C642 361.062 619.614 383 592 383C564.386 383 542 361.062 542 334L642 334Z" fill="#5BEF76"/>
<path d="M592 363C608.016 363 621 349.792 621 333.5C621 317.208 608.016 304 592 304L592 363Z" fill="#006C23"/>
<path d="M592 363C575.984 363 563 349.792 563 333.5C563 317.208 575.984 304 592 304L592 363Z" fill="#5BEF76"/>
<path d="M517 0C517 41.9736 550.802 76 592.5 76C634.197 76 668 41.9736 668 0L517 0Z" fill="#393A3D"/>
<path d="M517 667C517 625.026 550.802 591 592.5 591C634.197 591 668 625.026 668 667L517 667Z" fill="#393A3D"/>
<circle cx="261" cy="334" r="50" fill="#393A3D"/>
<circle cx="923" cy="334" r="50" fill="#393A3D"/>
<circle cx="78" cy="334" r="18" fill="#393A3D"/>
<circle cx="1106" cy="334" r="18" fill="#393A3D"/>
<circle cx="592" cy="334" r="10" fill="#393A3D"/>
</g>
<defs>
<clipPath id="clip0_1_914">
<rect width="1184" height="666" fill="white"/>
</clipPath>
</defs>
</svg>
