<svg width="1184" height="666" viewBox="0 0 1184 666" fill="none" xmlns="http://www.w3.org/2000/svg">
<g clip-path="url(#clip0_1_858)">
<rect width="1184" height="666" fill="#F4F4EF"/>
<rect x="383.414" y="666" width="666.531" height="27.839" transform="rotate(-90 383.414 666)" fill="#393A3D"/>
<rect x="439.094" y="666" width="666.531" height="27.839" transform="rotate(-90 439.094 666)" fill="#393A3D"/>
<rect x="494.773" y="666" width="666.531" height="27.839" transform="rotate(-90 494.773 666)" fill="#393A3D"/>
<rect x="550.445" y="666" width="666.531" height="27.839" transform="rotate(-90 550.445 666)" fill="#393A3D"/>
<rect x="606.125" y="666" width="666.531" height="27.839" transform="rotate(-90 606.125 666)" fill="#393A3D"/>
<rect x="661.805" y="666" width="666.531" height="27.839" transform="rotate(-90 661.805 666)" fill="#393A3D"/>
<rect x="717.484" y="666" width="666.531" height="27.839" transform="rotate(-90 717.484 666)" fill="#393A3D"/>
<rect x="773.164" y="666" width="666.531" height="27.839" transform="rotate(-90 773.164 666)" fill="#393A3D"/>
<rect y="126" width="216" height="27.8667" fill="#5BEF76"/>
<rect y="181.734" width="216" height="27.8667" fill="#5BEF76"/>
<rect y="237.465" width="216" height="27.8667" fill="#5BEF76"/>
<rect y="293.199" width="216" height="27.8667" fill="#5BEF76"/>
<rect y="348.934" width="216" height="27.8667" fill="#5BEF76"/>
<rect y="404.668" width="216" height="27.8667" fill="#5BEF76"/>
<rect y="460.398" width="216" height="27.8667" fill="#5BEF76"/>
<rect y="516.133" width="216" height="27.8667" fill="#5BEF76"/>
<rect x="968" y="126" width="215.73" height="27.8667" fill="#5BEF76"/>
<rect x="968" y="181.734" width="215.73" height="27.8667" fill="#5BEF76"/>
<rect x="968" y="237.465" width="215.73" height="27.8667" fill="#5BEF76"/>
<rect x="968" y="293.199" width="215.73" height="27.8667" fill="#5BEF76"/>
<rect x="968" y="348.934" width="215.73" height="27.8667" fill="#5BEF76"/>
<rect x="968" y="404.668" width="215.73" height="27.8667" fill="#5BEF76"/>
<rect x="968" y="460.398" width="215.73" height="27.8667" fill="#5BEF76"/>
<rect x="968" y="516.133" width="215.73" height="27.8667" fill="#5BEF76"/>
<rect x="383" y="126" width="418.454" height="418.454" fill="#A0CFFF"/>
<path d="M216.375 126C216.375 221.755 294 299.381 389.756 299.381C485.511 299.381 563.136 221.755 563.136 126H495.144C495.144 184.204 447.96 231.388 389.756 231.388C331.551 231.388 284.367 184.204 284.367 126H216.375Z" fill="#006C23"/>
<path d="M967.695 544.383C967.695 448.627 890.07 371.002 794.315 371.002C698.559 371.002 620.934 448.627 620.934 544.383L688.926 544.383C688.926 486.178 736.11 438.995 794.315 438.995C852.519 438.995 899.703 486.178 899.703 544.383L967.695 544.383Z" fill="#006C23"/>
</g>
<defs>
<clipPath id="clip0_1_858">
<rect width="1184" height="666" fill="white"/>
</clipPath>
</defs>
</svg>
