<svg width="1200" height="675" viewBox="0 0 1200 675" fill="none" xmlns="http://www.w3.org/2000/svg">
<g clip-path="url(#clip0_6_3103)">
<rect width="1200" height="675" fill="#F4F4EF"/>
<rect x="782" width="402" height="666" fill="#A0CFFF"/>
<path fill-rule="evenodd" clip-rule="evenodd" d="M-201.81 33.3938C-227.752 17.7473 -255.533 17.7467 -281.495 33.3944L-284.797 12.7079C-256.685 -4.23546 -226.602 -4.23639 -198.507 12.7076C-198.506 12.7079 -198.507 12.7073 -198.507 12.7076L-166.213 32.1652C-140.251 47.8129 -112.47 47.8126 -86.5271 32.1661L-54.232 12.7079C-54.2318 12.7078 -54.2322 12.708 -54.232 12.7079C-26.1206 -4.23515 3.9632 -4.23629 32.0581 12.7076C32.0586 12.7079 32.0576 12.7073 32.0581 12.7076L64.3522 32.1652C90.314 47.8129 118.095 47.8126 144.038 32.1661L176.333 12.7079C176.333 12.7078 176.333 12.708 176.333 12.7079C204.444 -4.23516 234.528 -4.23631 262.623 12.7076C262.623 12.7079 262.622 12.7073 262.623 12.7076L294.917 32.1652C320.879 47.8129 348.66 47.8126 374.603 32.1661L406.898 12.7079C435.01 -4.23577 465.094 -4.23639 493.189 12.7085L489.885 33.3938C463.942 17.7473 436.162 17.7467 410.2 33.3944L377.907 52.8514C377.906 52.8517 377.907 52.8511 377.907 52.8514C349.812 69.7954 319.727 69.7954 291.615 52.852L259.322 33.3947C233.379 17.7482 205.597 17.7467 179.635 33.3944L147.342 52.8514C119.247 69.7962 89.1629 69.7957 61.0509 52.8523C61.0508 52.8522 61.0511 52.8524 61.0509 52.8523L28.7569 33.3947C2.81427 17.7482 -24.9679 17.7467 -50.9297 33.3944L-83.2228 52.8514C-111.318 69.7962 -141.402 69.7957 -169.514 52.8523C-169.514 52.8522 -169.514 52.8524 -169.514 52.8523L-201.81 33.3938Z" fill="#A0CFFF"/>
<path fill-rule="evenodd" clip-rule="evenodd" d="M-201.81 113.308C-227.752 97.6614 -255.533 97.6608 -281.495 113.308L-284.797 92.622C-256.685 75.6786 -226.602 75.6777 -198.507 92.6217C-198.506 92.622 -198.507 92.6214 -198.507 92.6217L-166.213 112.079C-140.251 127.727 -112.47 127.727 -86.5271 112.08L-54.232 92.622C-54.2318 92.6219 -54.2322 92.6221 -54.232 92.622C-26.1206 75.6789 3.9632 75.6778 32.0581 92.6217C32.0586 92.622 32.0576 92.6214 32.0581 92.6217L64.3522 112.079C90.314 127.727 118.095 127.727 144.038 112.08L176.333 92.622C176.333 92.6219 176.333 92.6221 176.333 92.622C204.444 75.6789 234.528 75.6778 262.623 92.6217C262.623 92.622 262.622 92.6214 262.623 92.6217L294.917 112.079C320.879 127.727 348.66 127.727 374.603 112.08L406.898 92.622C435.01 75.6783 465.094 75.6777 493.189 92.6226L489.885 113.308C463.942 97.6614 436.162 97.6608 410.2 113.308L377.907 132.765C377.906 132.766 377.907 132.765 377.907 132.765C349.812 149.709 319.727 149.709 291.615 132.766L259.322 113.309C233.379 97.6623 205.597 97.6608 179.635 113.308L147.342 132.765C119.247 149.71 89.1629 149.71 61.0509 132.766C61.0508 132.766 61.0511 132.766 61.0509 132.766L28.7569 113.309C2.81427 97.6623 -24.9679 97.6608 -50.9297 113.308L-83.2228 132.765C-111.318 149.71 -141.402 149.71 -169.514 132.766C-169.514 132.766 -169.514 132.766 -169.514 132.766L-201.81 113.308Z" fill="#A0CFFF"/>
<path fill-rule="evenodd" clip-rule="evenodd" d="M-201.81 193.222C-227.752 177.575 -255.533 177.575 -281.495 193.223L-284.797 172.536C-256.685 155.593 -226.602 155.592 -198.507 172.536C-198.506 172.536 -198.507 172.535 -198.507 172.536L-166.213 191.993C-140.251 207.641 -112.47 207.641 -86.5271 191.994L-54.232 172.536C-54.2318 172.536 -54.2322 172.536 -54.232 172.536C-26.1206 155.593 3.9632 155.592 32.0581 172.536C32.0586 172.536 32.0576 172.535 32.0581 172.536L64.3522 191.993C90.314 207.641 118.095 207.641 144.038 191.994L176.333 172.536C176.333 172.536 176.333 172.536 176.333 172.536C204.444 155.593 234.528 155.592 262.623 172.536C262.623 172.536 262.622 172.535 262.623 172.536L294.917 191.993C320.879 207.641 348.66 207.641 374.603 191.994L406.898 172.536C435.01 155.592 465.094 155.592 493.189 172.537L489.885 193.222C463.942 177.575 436.162 177.575 410.2 193.223L377.907 212.679C377.906 212.68 377.907 212.679 377.907 212.679C349.812 229.624 319.727 229.624 291.615 212.68L259.322 193.223C233.379 177.576 205.597 177.575 179.635 193.223L147.342 212.679C119.247 229.624 89.1629 229.624 61.0509 212.68C61.0508 212.68 61.0511 212.681 61.0509 212.68L28.7569 193.223C2.81427 177.576 -24.9679 177.575 -50.9297 193.223L-83.2228 212.679C-111.318 229.624 -141.402 229.624 -169.514 212.68C-169.514 212.68 -169.514 212.681 -169.514 212.68L-201.81 193.222Z" fill="#A0CFFF"/>
<path fill-rule="evenodd" clip-rule="evenodd" d="M-201.81 273.14C-227.752 257.493 -255.533 257.493 -281.495 273.14L-284.797 252.454C-256.685 235.511 -226.602 235.51 -198.507 252.454C-198.506 252.454 -198.507 252.453 -198.507 252.454L-166.213 271.911C-140.251 287.559 -112.47 287.559 -86.5271 271.912L-54.232 252.454C-54.2318 252.454 -54.2322 252.454 -54.232 252.454C-26.1206 235.511 3.9632 235.51 32.0581 252.454C32.0586 252.454 32.0576 252.453 32.0581 252.454L64.3522 271.911C90.314 287.559 118.095 287.559 144.038 271.912L176.333 252.454C176.333 252.454 176.333 252.454 176.333 252.454C204.444 235.511 234.528 235.51 262.623 252.454C262.623 252.454 262.622 252.453 262.623 252.454L294.917 271.911C320.879 287.559 348.66 287.559 374.603 271.912L406.898 252.454C435.01 235.51 465.094 235.51 493.189 252.455L489.885 273.14C463.942 257.493 436.162 257.493 410.2 273.14L377.907 292.597C377.906 292.598 377.907 292.597 377.907 292.597C349.812 309.542 319.727 309.541 291.615 292.598L259.322 273.141C233.379 257.494 205.597 257.493 179.635 273.14L147.342 292.597C119.247 309.542 89.1629 309.542 61.0509 292.598C61.0508 292.598 61.0511 292.598 61.0509 292.598L28.7569 273.141C2.81427 257.494 -24.9679 257.493 -50.9297 273.14L-83.2228 292.597C-111.318 309.542 -141.402 309.542 -169.514 292.598C-169.514 292.598 -169.514 292.598 -169.514 292.598L-201.81 273.14Z" fill="#A0CFFF"/>
<path fill-rule="evenodd" clip-rule="evenodd" d="M-201.81 353.054C-227.752 337.407 -255.533 337.407 -281.495 353.055L-284.797 332.368C-256.685 315.425 -226.602 315.424 -198.507 332.368C-198.506 332.368 -198.507 332.367 -198.507 332.368L-166.213 351.825C-140.251 367.473 -112.47 367.473 -86.5271 351.826L-54.232 332.368C-54.2318 332.368 -54.2322 332.368 -54.232 332.368C-26.1206 315.425 3.9632 315.424 32.0581 332.368C32.0586 332.368 32.0576 332.367 32.0581 332.368L64.3522 351.825C90.314 367.473 118.095 367.473 144.038 351.826L176.333 332.368C176.333 332.368 176.333 332.368 176.333 332.368C204.444 315.425 234.528 315.424 262.623 332.368C262.623 332.368 262.622 332.367 262.623 332.368L294.917 351.825C320.879 367.473 348.66 367.473 374.603 351.826L406.898 332.368C435.01 315.424 465.094 315.424 493.189 332.369L489.885 353.054C463.942 337.407 436.162 337.407 410.2 353.055L377.907 372.512C377.906 372.512 377.907 372.511 377.907 372.512C349.812 389.456 319.727 389.456 291.615 372.512L259.322 353.055C233.379 337.408 205.597 337.407 179.635 353.055L147.342 372.512C119.247 389.456 89.1629 389.456 61.0509 372.512C61.0508 372.512 61.0511 372.513 61.0509 372.512L28.7569 353.055C2.81427 337.408 -24.9679 337.407 -50.9297 353.055L-83.2228 372.512C-111.318 389.456 -141.402 389.456 -169.514 372.512C-169.514 372.512 -169.514 372.513 -169.514 372.512L-201.81 353.054Z" fill="#A0CFFF"/>
<path fill-rule="evenodd" clip-rule="evenodd" d="M759.259 406.3C774.905 380.357 774.906 352.577 759.258 326.615L779.944 323.312C796.888 351.424 796.889 381.508 779.945 409.603C779.944 409.603 779.945 409.602 779.945 409.603L760.487 441.897C744.839 467.858 744.84 495.64 760.486 521.582L779.944 553.877C779.944 553.878 779.944 553.877 779.944 553.877C796.887 581.989 796.889 612.073 779.945 640.167C779.944 640.168 779.945 640.167 779.945 640.167L760.487 672.462C744.839 698.423 744.84 726.205 760.486 752.147L779.944 784.442C779.944 784.442 779.944 784.442 779.944 784.442C796.887 812.554 796.889 842.637 779.945 870.732C779.944 870.733 779.945 870.732 779.945 870.732L760.487 903.026C744.839 928.988 744.84 956.769 760.486 982.712L779.944 1015.01C796.888 1043.12 796.889 1073.2 779.944 1101.3L759.259 1097.99C774.905 1072.05 774.906 1044.27 759.258 1018.31L739.801 986.016C739.801 986.016 739.801 986.017 739.801 986.016C722.857 957.921 722.857 927.836 739.8 899.725L759.258 867.431C774.904 841.488 774.906 813.706 759.258 787.745L739.801 755.451C722.856 727.356 722.857 697.272 739.8 669.16C739.8 669.16 739.8 669.16 739.8 669.16L759.258 636.866C774.904 610.924 774.906 583.141 759.258 557.18L739.801 524.887C722.856 496.791 722.857 466.707 739.8 438.595C739.8 438.595 739.8 438.596 739.8 438.595L759.259 406.3Z" fill="#A0CFFF"/>
<path fill-rule="evenodd" clip-rule="evenodd" d="M679.344 406.3C694.991 380.357 694.992 352.577 679.344 326.615L700.03 323.312C716.974 351.424 716.975 381.508 700.031 409.603C700.03 409.603 700.031 409.602 700.031 409.603L680.573 441.897C664.925 467.858 664.926 495.64 680.572 521.582L700.03 553.877C700.03 553.878 700.03 553.877 700.03 553.877C716.973 581.989 716.975 612.073 700.031 640.167C700.03 640.168 700.031 640.167 700.031 640.167L680.573 672.462C664.925 698.423 664.926 726.205 680.572 752.147L700.03 784.442C700.03 784.442 700.03 784.442 700.03 784.442C716.973 812.554 716.975 842.637 700.031 870.732C700.03 870.733 700.031 870.732 700.031 870.732L680.573 903.026C664.925 928.988 664.926 956.769 680.572 982.712L700.03 1015.01C716.974 1043.12 716.975 1073.2 700.03 1101.3L679.344 1097.99C694.991 1072.05 694.992 1044.27 679.344 1018.31L659.887 986.016C659.887 986.016 659.887 986.017 659.887 986.016C642.943 957.921 642.943 927.836 659.886 899.725L679.344 867.431C694.99 841.488 694.992 813.706 679.344 787.745L659.887 755.451C642.942 727.356 642.943 697.272 659.886 669.16C659.886 669.16 659.886 669.16 659.886 669.16L679.344 636.866C694.99 610.924 694.992 583.141 679.344 557.18L659.887 524.887C642.942 496.791 642.943 466.707 659.886 438.595C659.886 438.595 659.886 438.596 659.886 438.595L679.344 406.3Z" fill="#A0CFFF"/>
<path fill-rule="evenodd" clip-rule="evenodd" d="M599.43 406.3C615.077 380.357 615.078 352.577 599.43 326.615L620.116 323.312C637.06 351.424 637.061 381.508 620.117 409.603C620.116 409.603 620.117 409.602 620.117 409.603L600.659 441.897C585.011 467.858 585.012 495.64 600.658 521.582L620.116 553.877C620.116 553.878 620.116 553.877 620.116 553.877C637.059 581.989 637.061 612.073 620.117 640.167C620.116 640.168 620.117 640.167 620.117 640.167L600.659 672.462C585.011 698.423 585.012 726.205 600.658 752.147L620.116 784.442C620.116 784.442 620.116 784.442 620.116 784.442C637.059 812.554 637.061 842.637 620.117 870.732C620.116 870.733 620.117 870.732 620.117 870.732L600.659 903.026C585.011 928.988 585.012 956.769 600.658 982.712L620.116 1015.01C637.06 1043.12 637.061 1073.2 620.116 1101.3L599.43 1097.99C615.077 1072.05 615.077 1044.27 599.43 1018.31L579.973 986.016C579.973 986.016 579.973 986.017 579.973 986.016C563.029 957.921 563.029 927.836 579.972 899.725L599.429 867.431C615.076 841.488 615.078 813.706 599.43 787.745L579.973 755.451C563.028 727.356 563.029 697.272 579.972 669.16C579.972 669.16 579.972 669.16 579.972 669.16L599.429 636.866C615.076 610.924 615.078 583.141 599.43 557.18L579.973 524.887C563.028 496.791 563.029 466.707 579.972 438.595C579.972 438.595 579.972 438.596 579.972 438.595L599.43 406.3Z" fill="#A0CFFF"/>
<path fill-rule="evenodd" clip-rule="evenodd" d="M519.512 406.3C535.159 380.357 535.16 352.577 519.512 326.615L540.198 323.312C557.142 351.424 557.143 381.508 540.199 409.603C540.198 409.603 540.199 409.602 540.199 409.603L520.741 441.897C505.093 467.858 505.094 495.64 520.74 521.582L540.198 553.877C540.198 553.878 540.198 553.877 540.198 553.877C557.141 581.989 557.143 612.073 540.199 640.167C540.198 640.168 540.199 640.167 540.199 640.167L520.741 672.462C505.093 698.423 505.094 726.205 520.74 752.147L540.198 784.442C540.198 784.442 540.198 784.442 540.198 784.442C557.141 812.554 557.143 842.637 540.199 870.732C540.198 870.733 540.199 870.732 540.199 870.732L520.741 903.026C505.093 928.988 505.094 956.769 520.74 982.712L540.198 1015.01C557.142 1043.12 557.143 1073.2 540.198 1101.3L519.512 1097.99C535.159 1072.05 535.16 1044.27 519.512 1018.31L500.055 986.016C500.055 986.016 500.055 986.017 500.055 986.016C483.111 957.921 483.111 927.836 500.054 899.725L519.512 867.431C535.158 841.488 535.16 813.706 519.512 787.745L500.055 755.451C483.11 727.356 483.111 697.272 500.054 669.16C500.054 669.16 500.054 669.16 500.054 669.16L519.512 636.866C535.158 610.924 535.16 583.141 519.512 557.18L500.055 524.887C483.11 496.791 483.111 466.707 500.054 438.595C500.054 438.595 500.054 438.596 500.054 438.595L519.512 406.3Z" fill="#A0CFFF"/>
<path fill-rule="evenodd" clip-rule="evenodd" d="M439.598 406.3C455.245 380.357 455.245 352.577 439.598 326.615L460.284 323.312C477.228 351.424 477.229 381.508 460.285 409.603C460.284 409.603 460.285 409.602 460.285 409.603L440.827 441.897C425.179 467.858 425.18 495.64 440.826 521.582L460.284 553.877C460.284 553.878 460.284 553.877 460.284 553.877C477.227 581.989 477.228 612.073 460.285 640.167C460.284 640.168 460.285 640.167 460.285 640.167L440.827 672.462C425.179 698.423 425.18 726.205 440.826 752.147L460.284 784.442C460.284 784.442 460.284 784.442 460.284 784.442C477.227 812.554 477.228 842.637 460.285 870.732C460.284 870.733 460.285 870.732 460.285 870.732L440.827 903.026C425.179 928.988 425.18 956.769 440.826 982.712L460.284 1015.01C477.228 1043.12 477.229 1073.2 460.284 1101.3L439.598 1097.99C455.245 1072.05 455.245 1044.27 439.598 1018.31L420.141 986.016C420.14 986.016 420.141 986.017 420.141 986.016C403.197 957.921 403.197 927.836 420.14 899.725L439.597 867.431C455.244 841.488 455.245 813.706 439.598 787.745L420.141 755.451C403.196 727.356 403.196 697.272 420.14 669.16C420.14 669.16 420.14 669.16 420.14 669.16L439.597 636.866C455.244 610.924 455.245 583.141 439.598 557.18L420.141 524.887C403.196 496.791 403.197 466.707 420.14 438.595C420.14 438.595 420.14 438.596 420.14 438.595L439.598 406.3Z" fill="#A0CFFF"/>
<path d="M-0.000938416 249V667.454H418.453L-0.000938416 249Z" fill="#393A3D"/>
<path d="M487 167V450H204L487 167Z" fill="#006C23"/>
<path d="M781 599V316H498L781 599Z" fill="#5BEF76"/>
<path fill-rule="evenodd" clip-rule="evenodd" d="M1106 604C1245.18 604 1358 491.176 1358 352C1358 212.824 1245.18 100 1106 100C966.824 100 854 212.824 854 352C854 491.176 966.824 604 1106 604ZM1106 505.176C1190.6 505.176 1259.18 436.597 1259.18 352C1259.18 267.403 1190.6 198.824 1106 198.824C1021.4 198.824 952.824 267.403 952.824 352C952.824 436.597 1021.4 505.176 1106 505.176Z" fill="#5BEF76"/>
<path fill-rule="evenodd" clip-rule="evenodd" d="M953.5 703C1008.45 703 1053 658.452 1053 603.5C1053 548.548 1008.45 504 953.5 504C898.548 504 854 548.548 854 603.5C854 658.452 898.548 703 953.5 703ZM953.5 685.441C998.755 685.441 1035.44 648.755 1035.44 603.5C1035.44 558.245 998.755 521.559 953.5 521.559C908.245 521.559 871.559 558.245 871.559 603.5C871.559 648.755 908.245 685.441 953.5 685.441Z" fill="#393A3D"/>
</g>
<defs>
<clipPath id="clip0_6_3103">
<rect width="1200" height="675" fill="white"/>
</clipPath>
</defs>
</svg>
