<svg width="1184" height="666" viewBox="0 0 1184 666" fill="none" xmlns="http://www.w3.org/2000/svg">
<g clip-path="url(#clip0_1_823)">
<rect width="1184" height="666" fill="#F4F4EF"/>
<rect y="126" width="211.73" height="27.666" fill="#5BEF76"/>
<rect x="171" y="181.332" width="211.73" height="27.666" fill="#5BEF76"/>
<rect x="-41" y="236.664" width="211.73" height="27.666" fill="#5BEF76"/>
<rect y="291.996" width="211.73" height="27.666" fill="#5BEF76"/>
<rect x="171" y="347.328" width="211.73" height="27.666" fill="#5BEF76"/>
<rect x="-73" y="402.66" width="211.73" height="27.666" fill="#5BEF76"/>
<rect y="457.992" width="211.73" height="27.666" fill="#5BEF76"/>
<rect x="106" y="513.324" width="211.73" height="27.666" fill="#5BEF76"/>
<rect x="1053" y="126" width="211.73" height="27.666" fill="#5BEF76"/>
<rect x="972" y="181.332" width="211.73" height="27.666" fill="#5BEF76"/>
<rect x="803" y="236.664" width="211.73" height="27.666" fill="#5BEF76"/>
<rect x="972" y="291.996" width="211.73" height="27.666" fill="#5BEF76"/>
<rect x="1020" y="347.328" width="211.73" height="27.666" fill="#5BEF76"/>
<rect x="803" y="402.66" width="211.73" height="27.666" fill="#5BEF76"/>
<rect x="972" y="457.992" width="211.73" height="27.666" fill="#5BEF76"/>
<rect x="1126" y="513.324" width="211.73" height="27.666" fill="#5BEF76"/>
<rect x="383" y="126" width="418.454" height="418.454" fill="#A0CFFF"/>
<rect x="395" y="666" width="662" height="26.2" transform="rotate(-90 395 666)" fill="#A0CFFF"/>
<rect x="447.398" y="666" width="662" height="26.2" transform="rotate(-90 447.398 666)" fill="#A0CFFF"/>
<rect x="499.797" y="666" width="662" height="26.2" transform="rotate(-90 499.797 666)" fill="#A0CFFF"/>
<rect x="552.203" y="666" width="662" height="26.2" transform="rotate(-90 552.203 666)" fill="#A0CFFF"/>
<rect x="604.602" y="666" width="662" height="26.2" transform="rotate(-90 604.602 666)" fill="#A0CFFF"/>
<rect x="657" y="666" width="662" height="26.2" transform="rotate(-90 657 666)" fill="#A0CFFF"/>
<rect x="709.398" y="666" width="662" height="26.2" transform="rotate(-90 709.398 666)" fill="#A0CFFF"/>
<rect x="761.797" y="666" width="662" height="26.2" transform="rotate(-90 761.797 666)" fill="#A0CFFF"/>
<path d="M216.375 0C216.375 95.7554 294 173.381 389.756 173.381C485.511 173.381 563.136 95.7554 563.136 0H495.144C495.144 58.2044 447.96 105.388 389.756 105.388C331.551 105.388 284.367 58.2044 284.367 0H216.375Z" fill="#006C23"/>
<path d="M967.695 666.381C967.695 570.625 890.07 493 794.315 493C698.559 493 620.934 570.625 620.934 666.381L688.926 666.381C688.926 608.176 736.11 560.993 794.315 560.993C852.519 560.993 899.703 608.176 899.703 666.381L967.695 666.381Z" fill="#006C23"/>
<path d="M383 489C422.212 489 454 457.212 454 418C454 378.788 422.212 347 383 347L383 374.843C406.835 374.843 426.157 394.165 426.157 418C426.157 441.835 406.835 461.157 383 461.157L383 489Z" fill="#393A3D"/>
<path d="M801 237C761.788 237 730 268.788 730 308C730 347.212 761.788 379 801 379L801 351.157C777.165 351.157 757.843 331.835 757.843 308C757.843 284.165 777.165 264.843 801 264.843L801 237Z" fill="#393A3D"/>
<ellipse cx="793.5" cy="666" rx="72.5" ry="72" fill="#393A3D"/>
<ellipse cx="390.5" rx="72.5" ry="72" fill="#393A3D"/>
</g>
<defs>
<clipPath id="clip0_1_823">
<rect width="1184" height="666" fill="white"/>
</clipPath>
</defs>
</svg>
