<svg width="1184" height="666" viewBox="0 0 1184 666" fill="none" xmlns="http://www.w3.org/2000/svg">
<g clip-path="url(#clip0_1_764)">
<rect width="1184" height="666" fill="#F4F4EF"/>
<rect y="126" width="211.73" height="27.8667" fill="#5BEF76"/>
<rect y="181.734" width="211.73" height="27.8667" fill="#5BEF76"/>
<rect y="237.469" width="211.73" height="27.8667" fill="#5BEF76"/>
<rect y="293.199" width="211.73" height="27.8667" fill="#5BEF76"/>
<rect y="348.934" width="211.73" height="27.8667" fill="#5BEF76"/>
<rect y="404.668" width="211.73" height="27.8667" fill="#5BEF76"/>
<rect y="460.402" width="211.73" height="27.8667" fill="#5BEF76"/>
<rect y="516.133" width="211.73" height="27.8667" fill="#5BEF76"/>
<rect x="212" y="126" width="760" height="418" fill="#A0CFFF"/>
<rect x="972" y="126" width="211.73" height="27.8667" fill="#006C23"/>
<rect x="972" y="181.734" width="211.73" height="27.8667" fill="#006C23"/>
<rect x="972" y="237.465" width="211.73" height="27.8667" fill="#006C23"/>
<rect x="972" y="293.199" width="211.73" height="27.8667" fill="#006C23"/>
<rect x="972" y="348.934" width="211.73" height="27.8667" fill="#006C23"/>
<rect x="972" y="404.668" width="211.73" height="27.8667" fill="#006C23"/>
<rect x="972" y="460.398" width="211.73" height="27.8667" fill="#006C23"/>
<rect x="972" y="516.133" width="211.73" height="27.8667" fill="#006C23"/>
<path d="M216.375 0C216.375 95.7554 294 173.381 389.756 173.381C485.511 173.381 563.136 95.7554 563.136 0H495.144C495.144 58.2044 447.96 105.388 389.756 105.388C331.551 105.388 284.367 58.2044 284.367 0H216.375Z" fill="#006C23"/>
<path d="M967.695 666.383C967.695 570.627 890.07 493.002 794.315 493.002C698.559 493.002 620.934 570.627 620.934 666.383L688.926 666.383C688.926 608.178 736.11 560.995 794.315 560.995C852.519 560.995 899.703 608.178 899.703 666.383L967.695 666.383Z" fill="#006C23"/>
<circle cx="406.897" cy="332.897" r="23.8972" fill="#393A3D"/>
<circle cx="481.241" cy="332.897" r="23.8972" fill="#393A3D"/>
<circle cx="555.592" cy="332.897" r="23.8972" fill="#393A3D"/>
<circle cx="629.936" cy="332.897" r="23.8972" fill="#393A3D"/>
<circle cx="704.288" cy="332.897" r="23.8972" fill="#393A3D"/>
<circle cx="778.632" cy="332.897" r="23.8972" fill="#393A3D"/>
</g>
<defs>
<clipPath id="clip0_1_764">
<rect width="1184" height="666" fill="white"/>
</clipPath>
</defs>
</svg>
