<svg width="1200" height="675" viewBox="0 0 1200 675" fill="none" xmlns="http://www.w3.org/2000/svg">
<g clip-path="url(#clip0_6_3398)">
<rect width="1200" height="675" fill="#F4F4EF"/>
<rect y="370" width="1184" height="296" fill="#A0CFFF"/>
<path d="M296 370L-1.19849e-05 370L9.53674e-07 74L296 370Z" fill="#5BEF76"/>
<path d="M592 370L296 370L296 74L592 370Z" fill="#5BEF76"/>
<path d="M888 370L592 370L592 74L888 370Z" fill="#5BEF76"/>
<path d="M1184 370L888 370L888 74L1184 370Z" fill="#5BEF76"/>
<path d="M1184 592L1184 296L888 296L1184 592Z" fill="#006C23"/>
<path fill-rule="evenodd" clip-rule="evenodd" d="M887.5 427C960.125 427 1019 368.125 1019 295.5C1019 222.875 960.125 164 887.5 164C814.875 164 756 222.875 756 295.5C756 368.125 814.875 427 887.5 427ZM887.5 375.431C931.645 375.431 967.431 339.645 967.431 295.5C967.431 251.355 931.645 215.569 887.5 215.569C843.355 215.569 807.569 251.355 807.569 295.5C807.569 339.645 843.355 375.431 887.5 375.431Z" fill="#393A3D"/>
<path d="M888 592L888 296L592 296L888 592Z" fill="#006C23"/>
<path d="M592 592L592 296L296 296L592 592Z" fill="#006C23"/>
<path fill-rule="evenodd" clip-rule="evenodd" d="M295.5 427C368.125 427 427 368.125 427 295.5C427 222.875 368.125 164 295.5 164C222.875 164 164 222.875 164 295.5C164 368.125 222.875 427 295.5 427ZM295.5 375.431C339.645 375.431 375.431 339.645 375.431 295.5C375.431 251.355 339.645 215.569 295.5 215.569C251.355 215.569 215.569 251.355 215.569 295.5C215.569 339.645 251.355 375.431 295.5 375.431Z" fill="#393A3D"/>
<path d="M296 592L296 296L5.17543e-05 296L296 592Z" fill="#006C23"/>
</g>
<defs>
<clipPath id="clip0_6_3398">
<rect width="1200" height="675" fill="white"/>
</clipPath>
</defs>
</svg>
