<svg width="1184" height="666" viewBox="0 0 1184 666" fill="none" xmlns="http://www.w3.org/2000/svg">
<g clip-path="url(#clip0_1_1131)">
<rect width="1184" height="666" fill="#F4F4EF"/>
<rect x="782" width="402" height="666" fill="#A0CFFF"/>
<path fill-rule="evenodd" clip-rule="evenodd" d="M-199.119 32.9485C-224.716 17.5107 -252.126 17.5101 -277.742 32.9491L-281 12.5385C-253.263 -4.17899 -223.581 -4.17991 -195.86 12.5382C-195.86 12.5385 -195.861 12.5379 -195.86 12.5382L-163.997 31.7363C-138.381 47.1754 -110.971 47.1751 -85.3738 31.7372L-53.5093 12.5385C-53.5092 12.5384 -53.5095 12.5386 -53.5093 12.5385C-25.7728 -4.17869 3.90993 -4.17981 31.6302 12.5382C31.6307 12.5385 31.6297 12.5379 31.6302 12.5382L63.4937 31.7363C89.1094 47.1754 116.52 47.1751 142.117 31.7372L173.981 12.5385C173.981 12.5384 173.981 12.5386 173.981 12.5385C201.718 -4.17869 231.401 -4.17982 259.121 12.5382C259.121 12.5385 259.12 12.5379 259.121 12.5382L290.984 31.7363C316.6 47.1754 344.011 47.1751 369.608 31.7372L401.472 12.5385C429.209 -4.17929 458.892 -4.17991 486.613 12.5391L483.353 32.9485C457.756 17.5107 430.346 17.5101 404.73 32.9491L372.868 52.1467C372.867 52.147 372.868 52.1464 372.868 52.1467C345.147 68.8648 315.463 68.8648 287.727 52.1473L255.864 32.9494C230.267 17.5116 202.855 17.5101 177.24 32.9491L145.377 52.1467C117.656 68.8656 87.9736 68.8651 60.2365 52.1476C60.2363 52.1475 60.2367 52.1477 60.2365 52.1476L28.373 32.9494C2.77632 17.5116 -24.6355 17.5101 -50.2511 32.9491L-82.1136 52.1467C-109.834 68.8656 -139.517 68.8651 -167.254 52.1476C-167.254 52.1475 -167.254 52.1477 -167.254 52.1476L-199.119 32.9485Z" fill="#A0CFFF"/>
<path fill-rule="evenodd" clip-rule="evenodd" d="M-199.119 111.796C-224.716 96.3583 -252.126 96.3577 -277.742 111.797L-281 91.3862C-253.263 74.6687 -223.581 74.6677 -195.86 91.3858C-195.86 91.3861 -195.861 91.3855 -195.86 91.3858L-163.997 110.584C-138.381 126.023 -110.971 126.023 -85.3738 110.585L-53.5093 91.3862C-53.5092 91.3861 -53.5095 91.3863 -53.5093 91.3862C-25.7728 74.669 3.90993 74.6678 31.6302 91.3858C31.6307 91.3861 31.6297 91.3855 31.6302 91.3858L63.4937 110.584C89.1094 126.023 116.52 126.023 142.117 110.585L173.981 91.3862C173.981 91.3861 173.981 91.3863 173.981 91.3862C201.718 74.669 231.401 74.6678 259.121 91.3858C259.121 91.3861 259.12 91.3855 259.121 91.3858L290.984 110.584C316.6 126.023 344.011 126.023 369.608 110.585L401.472 91.3862C429.209 74.6684 458.892 74.6677 486.613 91.3867L483.353 111.796C457.756 96.3583 430.346 96.3577 404.73 111.797L372.868 130.994C372.867 130.995 372.868 130.994 372.868 130.994C345.147 147.712 315.463 147.712 287.727 130.995L255.864 111.797C230.267 96.3592 202.855 96.3577 177.24 111.797L145.377 130.994C117.656 147.713 87.9736 147.713 60.2365 130.995C60.2363 130.995 60.2367 130.995 60.2365 130.995L28.373 111.797C2.77632 96.3592 -24.6355 96.3577 -50.2511 111.797L-82.1136 130.994C-109.834 147.713 -139.517 147.713 -167.254 130.995C-167.254 130.995 -167.254 130.995 -167.254 130.995L-199.119 111.796Z" fill="#A0CFFF"/>
<path fill-rule="evenodd" clip-rule="evenodd" d="M-199.119 190.648C-224.716 175.21 -252.126 175.209 -277.742 190.648L-281 170.238C-253.263 153.52 -223.581 153.519 -195.86 170.237C-195.86 170.238 -195.861 170.237 -195.86 170.237L-163.997 189.436C-138.381 204.875 -110.971 204.874 -85.3738 189.436L-53.5093 170.238C-53.5092 170.238 -53.5095 170.238 -53.5093 170.238C-25.7728 153.521 3.90993 153.519 31.6302 170.237C31.6307 170.238 31.6297 170.237 31.6302 170.237L63.4937 189.436C89.1094 204.875 116.52 204.874 142.117 189.436L173.981 170.238C173.981 170.238 173.981 170.238 173.981 170.238C201.718 153.521 231.401 153.519 259.121 170.237C259.121 170.238 259.12 170.237 259.121 170.237L290.984 189.436C316.6 204.875 344.011 204.874 369.608 189.436L401.472 170.238C429.209 153.52 458.892 153.519 486.613 170.238L483.353 190.648C457.756 175.21 430.346 175.209 404.73 190.648L372.868 209.846C372.867 209.846 372.868 209.846 372.868 209.846C345.147 226.564 315.463 226.564 287.727 209.847L255.864 190.649C230.267 175.211 202.855 175.209 177.24 190.648L145.377 209.846C117.656 226.565 87.9736 226.564 60.2365 209.847C60.2363 209.847 60.2367 209.847 60.2365 209.847L28.373 190.649C2.77632 175.211 -24.6355 175.209 -50.2511 190.648L-82.1136 209.846C-109.834 226.565 -139.517 226.564 -167.254 209.847C-167.254 209.847 -167.254 209.847 -167.254 209.847L-199.119 190.648Z" fill="#A0CFFF"/>
<path fill-rule="evenodd" clip-rule="evenodd" d="M-199.119 269.495C-224.716 254.058 -252.126 254.057 -277.742 269.496L-281 249.085C-253.263 232.368 -223.581 232.367 -195.86 249.085C-195.86 249.085 -195.861 249.085 -195.86 249.085L-163.997 268.283C-138.381 283.722 -110.971 283.722 -85.3738 268.284L-53.5093 249.085C-53.5092 249.085 -53.5095 249.085 -53.5093 249.085C-25.7728 232.368 3.90993 232.367 31.6302 249.085C31.6307 249.085 31.6297 249.085 31.6302 249.085L63.4937 268.283C89.1094 283.722 116.52 283.722 142.117 268.284L173.981 249.085C173.981 249.085 173.981 249.085 173.981 249.085C201.718 232.368 231.401 232.367 259.121 249.085C259.121 249.085 259.12 249.085 259.121 249.085L290.984 268.283C316.6 283.722 344.011 283.722 369.608 268.284L401.472 249.085C429.209 232.368 458.892 232.367 486.613 249.086L483.353 269.495C457.756 254.058 430.346 254.057 404.73 269.496L372.868 288.694C372.867 288.694 372.868 288.693 372.868 288.694C345.147 305.412 315.463 305.412 287.727 288.694L255.864 269.496C230.267 254.058 202.855 254.057 177.24 269.496L145.377 288.694C117.656 305.412 87.9736 305.412 60.2365 288.694C60.2363 288.694 60.2367 288.695 60.2365 288.694L28.373 269.496C2.77632 254.058 -24.6355 254.057 -50.2511 269.496L-82.1136 288.694C-109.834 305.412 -139.517 305.412 -167.254 288.694C-167.254 288.694 -167.254 288.695 -167.254 288.694L-199.119 269.495Z" fill="#A0CFFF"/>
<path fill-rule="evenodd" clip-rule="evenodd" d="M-199.119 348.347C-224.716 332.909 -252.126 332.909 -277.742 348.348L-281 327.937C-253.263 311.219 -223.581 311.219 -195.86 327.937C-195.86 327.937 -195.861 327.936 -195.86 327.937L-163.997 347.135C-138.381 362.574 -110.971 362.574 -85.3738 347.136L-53.5093 327.937C-53.5092 327.937 -53.5095 327.937 -53.5093 327.937C-25.7728 311.22 3.90993 311.219 31.6302 327.937C31.6307 327.937 31.6297 327.936 31.6302 327.937L63.4937 347.135C89.1094 362.574 116.52 362.574 142.117 347.136L173.981 327.937C173.981 327.937 173.981 327.937 173.981 327.937C201.718 311.22 231.401 311.219 259.121 327.937C259.121 327.937 259.12 327.936 259.121 327.937L290.984 347.135C316.6 362.574 344.011 362.574 369.608 347.136L401.472 327.937C429.209 311.219 458.892 311.219 486.613 327.938L483.353 348.347C457.756 332.909 430.346 332.909 404.73 348.348L372.868 367.545C372.867 367.545 372.868 367.545 372.868 367.545C345.147 384.263 315.463 384.263 287.727 367.546L255.864 348.348C230.267 332.91 202.855 332.909 177.24 348.348L145.377 367.545C117.656 384.264 87.9736 384.264 60.2365 367.546C60.2363 367.546 60.2367 367.546 60.2365 367.546L28.373 348.348C2.77632 332.91 -24.6355 332.909 -50.2511 348.348L-82.1136 367.545C-109.834 384.264 -139.517 384.264 -167.254 367.546C-167.254 367.546 -167.254 367.546 -167.254 367.546L-199.119 348.347Z" fill="#A0CFFF"/>
<path fill-rule="evenodd" clip-rule="evenodd" d="M749.137 400.881C764.575 375.284 764.576 347.874 749.137 322.258L769.547 319C786.265 346.737 786.266 376.419 769.548 404.14C769.547 404.14 769.548 404.139 769.548 404.14L750.35 436.003C734.911 461.619 734.911 489.029 750.349 514.626L769.547 546.491C769.548 546.491 769.547 546.491 769.547 546.491C786.265 574.227 786.266 603.91 769.548 631.63C769.547 631.631 769.548 631.63 769.548 631.63L750.35 663.494C734.911 689.109 734.911 716.52 750.349 742.117L769.547 773.981C769.548 773.981 769.547 773.981 769.547 773.981C786.265 801.718 786.266 831.401 769.548 859.121C769.547 859.121 769.548 859.12 769.548 859.121L750.35 890.984C734.911 916.6 734.911 944.011 750.349 969.608L769.547 1001.47C786.265 1029.21 786.266 1058.89 769.547 1086.61L749.137 1083.35C764.575 1057.76 764.576 1030.35 749.137 1004.73L729.939 972.868C729.939 972.867 729.94 972.868 729.939 972.868C713.221 945.147 713.221 915.463 729.939 887.727L749.136 855.864C764.574 830.267 764.576 802.855 749.137 777.24L729.939 745.377C713.22 717.656 713.221 687.974 729.938 660.236C729.938 660.236 729.938 660.237 729.938 660.236L749.136 628.373C764.574 602.776 764.576 575.365 749.137 549.749L729.939 517.886C713.22 490.166 713.221 460.483 729.938 432.746C729.938 432.746 729.938 432.746 729.938 432.746L749.137 400.881Z" fill="#A0CFFF"/>
<path fill-rule="evenodd" clip-rule="evenodd" d="M670.286 400.881C685.724 375.284 685.724 347.874 670.285 322.258L690.696 319C707.413 346.737 707.414 376.419 690.696 404.14C690.696 404.14 690.696 404.139 690.696 404.14L671.498 436.003C656.059 461.619 656.059 489.029 671.497 514.626L690.696 546.491C690.696 546.491 690.696 546.491 690.696 546.491C707.413 574.227 707.414 603.91 690.696 631.63C690.696 631.631 690.696 631.63 690.696 631.63L671.498 663.494C656.059 689.109 656.059 716.52 671.497 742.117L690.696 773.981C690.696 773.981 690.696 773.981 690.696 773.981C707.413 801.718 707.414 831.401 690.696 859.121C690.696 859.121 690.696 859.12 690.696 859.121L671.498 890.984C656.059 916.6 656.059 944.011 671.497 969.608L690.696 1001.47C707.414 1029.21 707.414 1058.89 690.695 1086.61L670.286 1083.35C685.724 1057.76 685.724 1030.35 670.285 1004.73L651.088 972.868C651.087 972.867 651.088 972.868 651.088 972.868C634.37 945.147 634.37 915.463 651.087 887.727L670.285 855.864C685.723 830.267 685.724 802.855 670.285 777.24L651.088 745.377C634.369 717.656 634.369 687.974 651.087 660.236C651.087 660.236 651.087 660.237 651.087 660.236L670.285 628.373C685.723 602.776 685.724 575.365 670.285 549.749L651.088 517.886C634.369 490.166 634.369 460.483 651.087 432.746C651.087 432.746 651.087 432.746 651.087 432.746L670.286 400.881Z" fill="#A0CFFF"/>
<path fill-rule="evenodd" clip-rule="evenodd" d="M591.442 400.881C606.88 375.284 606.881 347.874 591.441 322.258L611.852 319C628.57 346.737 628.571 376.419 611.852 404.14C611.852 404.14 611.853 404.139 611.852 404.14L592.654 436.003C577.215 461.619 577.216 489.029 592.653 514.626L611.852 546.491C611.852 546.491 611.852 546.491 611.852 546.491C628.569 574.227 628.57 603.91 611.852 631.63C611.852 631.631 611.853 631.63 611.852 631.63L592.654 663.494C577.215 689.109 577.216 716.52 592.653 742.117L611.852 773.981C611.852 773.981 611.852 773.981 611.852 773.981C628.569 801.718 628.57 831.401 611.852 859.121C611.852 859.121 611.853 859.12 611.852 859.121L592.654 890.984C577.215 916.6 577.216 944.011 592.653 969.608L611.852 1001.47C628.57 1029.21 628.571 1058.89 611.851 1086.61L591.442 1083.35C606.88 1057.76 606.881 1030.35 591.441 1004.73L572.244 972.868C572.244 972.867 572.244 972.868 572.244 972.868C555.526 945.147 555.526 915.463 572.243 887.727L591.441 855.864C606.879 830.267 606.881 802.855 591.441 777.24L572.244 745.377C555.525 717.656 555.526 687.974 572.243 660.236C572.243 660.236 572.243 660.237 572.243 660.236L591.441 628.373C606.879 602.776 606.881 575.365 591.441 549.749L572.244 517.886C555.525 490.166 555.526 460.483 572.243 432.746C572.243 432.746 572.243 432.746 572.243 432.746L591.442 400.881Z" fill="#A0CFFF"/>
<path fill-rule="evenodd" clip-rule="evenodd" d="M512.591 400.881C528.028 375.284 528.029 347.874 512.59 322.258L533.001 319C549.718 346.737 549.719 376.419 533.001 404.14C533.001 404.14 533.001 404.139 533.001 404.14L513.803 436.003C498.364 461.619 498.364 489.029 513.802 514.626L533.001 546.491C533.001 546.491 533 546.491 533.001 546.491C549.718 574.227 549.719 603.91 533.001 631.63C533.001 631.631 533.001 631.63 533.001 631.63L513.803 663.494C498.364 689.109 498.364 716.52 513.802 742.117L533.001 773.981C533.001 773.981 533 773.981 533.001 773.981C549.718 801.718 549.719 831.401 533.001 859.121C533.001 859.121 533.001 859.12 533.001 859.121L513.803 890.984C498.364 916.6 498.364 944.011 513.802 969.608L533.001 1001.47C549.718 1029.21 549.719 1058.89 533 1086.61L512.59 1083.35C528.028 1057.76 528.029 1030.35 512.59 1004.73L493.392 972.868C493.392 972.867 493.393 972.868 493.392 972.868C476.674 945.147 476.674 915.463 493.392 887.727L512.59 855.864C528.027 830.267 528.029 802.855 512.59 777.24L493.392 745.377C476.673 717.656 476.674 687.974 493.391 660.236C493.392 660.236 493.391 660.237 493.391 660.236L512.59 628.373C528.027 602.776 528.029 575.365 512.59 549.749L493.392 517.886C476.673 490.166 476.674 460.483 493.391 432.746C493.392 432.746 493.391 432.746 493.391 432.746L512.591 400.881Z" fill="#A0CFFF"/>
<path fill-rule="evenodd" clip-rule="evenodd" d="M433.739 400.881C449.177 375.284 449.177 347.874 433.738 322.258L454.149 319C470.866 346.737 470.867 376.419 454.149 404.14C454.149 404.14 454.15 404.139 454.149 404.14L434.951 436.003C419.512 461.619 419.512 489.029 434.95 514.626L454.149 546.491C454.149 546.491 454.149 546.491 454.149 546.491C470.866 574.227 470.867 603.91 454.149 631.63C454.149 631.631 454.15 631.63 454.149 631.63L434.951 663.494C419.512 689.109 419.512 716.52 434.95 742.117L454.149 773.981C454.149 773.981 454.149 773.981 454.149 773.981C470.866 801.718 470.867 831.401 454.149 859.121C454.149 859.121 454.15 859.12 454.149 859.121L434.951 890.984C419.512 916.6 419.512 944.011 434.95 969.608L454.149 1001.47C470.867 1029.21 470.867 1058.89 454.148 1086.61L433.739 1083.35C449.177 1057.76 449.177 1030.35 433.738 1004.73L414.541 972.868C414.54 972.867 414.541 972.868 414.541 972.868C397.823 945.147 397.823 915.463 414.54 887.727L433.738 855.864C449.176 830.267 449.177 802.855 433.738 777.24L414.541 745.377C397.822 717.656 397.822 687.974 414.54 660.236C414.54 660.236 414.54 660.237 414.54 660.236L433.738 628.373C449.176 602.776 449.177 575.365 433.738 549.749L414.541 517.886C397.822 490.166 397.822 460.483 414.54 432.746C414.54 432.746 414.54 432.746 414.54 432.746L433.739 400.881Z" fill="#A0CFFF"/>
<path d="M-0.000938416 249V667.454H418.453L-0.000938416 249Z" fill="#393A3D"/>
<path d="M487 167V450H204L487 167Z" fill="#006C23"/>
<path d="M781 599V316H498L781 599Z" fill="#5BEF76"/>
<path fill-rule="evenodd" clip-rule="evenodd" d="M1106 604C1245.18 604 1358 491.176 1358 352C1358 212.824 1245.18 100 1106 100C966.824 100 854 212.824 854 352C854 491.176 966.824 604 1106 604ZM1106 505.176C1190.6 505.176 1259.18 436.597 1259.18 352C1259.18 267.403 1190.6 198.824 1106 198.824C1021.4 198.824 952.824 267.403 952.824 352C952.824 436.597 1021.4 505.176 1106 505.176Z" fill="#5BEF76"/>
<path fill-rule="evenodd" clip-rule="evenodd" d="M953.5 703C1008.45 703 1053 658.452 1053 603.5C1053 548.548 1008.45 504 953.5 504C898.548 504 854 548.548 854 603.5C854 658.452 898.548 703 953.5 703ZM953.5 685.441C998.755 685.441 1035.44 648.755 1035.44 603.5C1035.44 558.245 998.755 521.559 953.5 521.559C908.245 521.559 871.559 558.245 871.559 603.5C871.559 648.755 908.245 685.441 953.5 685.441Z" fill="#393A3D"/>
</g>
<defs>
<clipPath id="clip0_1_1131">
<rect width="1184" height="666" fill="white"/>
</clipPath>
</defs>
</svg>
