<svg width="1184" height="666" viewBox="0 0 1184 666" fill="none" xmlns="http://www.w3.org/2000/svg">
<g clip-path="url(#clip0_1_708)">
<rect width="1184" height="666" fill="#F4F4EF"/>
<rect x="250" width="666" height="250" transform="rotate(90 250 0)" fill="#A0CFFF"/>
<rect x="805" y="-40" width="214" height="208" fill="#393A3D"/>
<line x1="806.672" y1="666" x2="806.672" y2="94" stroke="#393A3D" stroke-width="2.65524"/>
<line x1="868.017" y1="666" x2="868.017" y2="94" stroke="#393A3D" stroke-width="7.96573"/>
<line x1="935.362" y1="666" x2="935.362" y2="94" stroke="#393A3D" stroke-width="13.2762"/>
<line x1="1009.71" y1="666" x2="1009.71" y2="94" stroke="#393A3D" stroke-width="18.5867"/>
<circle cx="246.141" cy="342.141" r="54.1408" fill="#006C23"/>
<circle cx="583.016" cy="342.141" r="54.1408" fill="#006C23"/>
<circle cx="751.453" cy="342.141" r="54.1408" fill="#006C23"/>
<circle cx="919.891" cy="342.141" r="54.1408" fill="#006C23"/>
<circle cx="1088.33" cy="342.141" r="54.1408" fill="#006C23"/>
<circle cx="583.141" cy="508.141" r="48.1251" fill="#5BEF76" stroke="#006C23" stroke-width="12.0313"/>
<circle cx="751.578" cy="508.141" r="48.1251" fill="#5BEF76" stroke="#006C23" stroke-width="12.0313"/>
<circle cx="920.016" cy="508.141" r="48.1251" fill="#5BEF76" stroke="#006C23" stroke-width="12.0313"/>
<circle cx="1088.45" cy="508.141" r="48.1251" fill="#5BEF76" stroke="#006C23" stroke-width="12.0313"/>
<path fill-rule="evenodd" clip-rule="evenodd" d="M245.5 530C349.606 530 434 445.606 434 341.5C434 237.394 349.606 153 245.5 153C141.394 153 57 237.394 57 341.5C57 445.606 141.394 530 245.5 530ZM245.5 456.078C308.78 456.078 360.078 404.78 360.078 341.5C360.078 278.22 308.78 226.922 245.5 226.922C182.22 226.922 130.922 278.22 130.922 341.5C130.922 404.78 182.22 456.078 245.5 456.078Z" fill="#5BEF76"/>
</g>
<defs>
<clipPath id="clip0_1_708">
<rect width="1184" height="666" fill="white"/>
</clipPath>
</defs>
</svg>
