<svg width="1184" height="666" viewBox="0 0 1184 666" fill="none" xmlns="http://www.w3.org/2000/svg">
<g clip-path="url(#clip0_1_1011)">
<rect width="1184" height="666" fill="#F4F4EF"/>
<rect x="1157" y="428" width="27" height="238" fill="#A0CFFF"/>
<rect x="72" y="417" width="417" height="27.2" transform="rotate(-90 72 417)" fill="#A0CFFF"/>
<rect x="126.398" y="417" width="417" height="27.2" transform="rotate(-90 126.398 417)" fill="#A0CFFF"/>
<rect x="180.805" y="417" width="417" height="27.2" transform="rotate(-90 180.805 417)" fill="#A0CFFF"/>
<rect x="235.203" y="417" width="417" height="27.2" transform="rotate(-90 235.203 417)" fill="#A0CFFF"/>
<rect x="289.602" y="417" width="417" height="27.2" transform="rotate(-90 289.602 417)" fill="#A0CFFF"/>
<rect x="344" y="417" width="417" height="27.2" transform="rotate(-90 344 417)" fill="#A0CFFF"/>
<rect x="398.398" y="417" width="417" height="27.2" transform="rotate(-90 398.398 417)" fill="#A0CFFF"/>
<rect x="452.797" y="417" width="417" height="27.2" transform="rotate(-90 452.797 417)" fill="#A0CFFF"/>
<path d="M465 428L693.631 820.25H236.369L465 428Z" fill="#006C23"/>
<path d="M790 400L373.442 -317L1206.56 -317L790 400Z" fill="#5BEF76"/>
<path d="M963.758 573.381C963.758 477.625 886.133 400 790.377 400C694.622 400 616.997 477.625 616.997 573.381L684.989 573.381C684.989 515.176 732.173 467.993 790.377 467.993C848.582 467.993 895.765 515.176 895.765 573.381L963.758 573.381Z" fill="#393A3D"/>
<path d="M385 347C385 391.735 421.041 428 465.5 428C509.959 428 546 391.735 546 347L514.431 347C514.431 374.192 492.524 396.235 465.5 396.235C438.476 396.235 416.569 374.192 416.569 347L385 347Z" fill="#393A3D"/>
<circle cx="466" cy="112" r="50" fill="#006C23"/>
<circle cx="505" cy="612" r="25" fill="#5BEF76"/>
<circle cx="790" cy="612" r="25" fill="#5BEF76"/>
<circle cx="740" cy="112" r="50" fill="#393A3D"/>
</g>
<defs>
<clipPath id="clip0_1_1011">
<rect width="1184" height="666" fill="white"/>
</clipPath>
</defs>
</svg>
