<svg width="1184" height="666" viewBox="0 0 1184 666" fill="none" xmlns="http://www.w3.org/2000/svg">
<g clip-path="url(#clip0_1_996)">
<rect width="1184" height="666" fill="#F4F4EF"/>
<rect x="1074" width="110" height="666" fill="#A0CFFF"/>
<rect y="666" width="666" height="26.2" transform="rotate(-90 0 666)" fill="#A0CFFF"/>
<rect x="52.3984" y="666" width="666" height="26.2" transform="rotate(-90 52.3984 666)" fill="#A0CFFF"/>
<rect x="104.797" y="666" width="666" height="26.2" transform="rotate(-90 104.797 666)" fill="#A0CFFF"/>
<rect x="157.203" y="666" width="666" height="26.2" transform="rotate(-90 157.203 666)" fill="#A0CFFF"/>
<rect x="209.602" y="666" width="666" height="26.2" transform="rotate(-90 209.602 666)" fill="#A0CFFF"/>
<rect x="262" y="666" width="666" height="26.2" transform="rotate(-90 262 666)" fill="#A0CFFF"/>
<rect x="314.398" y="666" width="666" height="26.2" transform="rotate(-90 314.398 666)" fill="#A0CFFF"/>
<rect x="366.797" y="666" width="666" height="26.2" transform="rotate(-90 366.797 666)" fill="#A0CFFF"/>
<path d="M393 251L809.558 967.25H-23.5582L393 251Z" fill="#006C23"/>
<path d="M790 400L373.442 -317L1206.56 -317L790 400Z" fill="#5BEF76"/>
<path d="M220 78C220 173.755 297.625 251.381 393.381 251.381C489.136 251.381 566.761 173.755 566.761 78H498.769C498.769 136.204 451.585 183.388 393.381 183.388C335.176 183.388 287.992 136.204 287.992 78H220Z" fill="#393A3D"/>
<path d="M963.758 573.381C963.758 477.625 886.133 400 790.377 400C694.622 400 616.997 477.625 616.997 573.381L684.989 573.381C684.989 515.176 732.173 467.993 790.377 467.993C848.582 467.993 895.765 515.176 895.765 573.381L963.758 573.381Z" fill="#393A3D"/>
</g>
<defs>
<clipPath id="clip0_1_996">
<rect width="1184" height="666" fill="white"/>
</clipPath>
</defs>
</svg>
