<svg width="1200" height="675" viewBox="0 0 1200 675" fill="none" xmlns="http://www.w3.org/2000/svg">
<g clip-path="url(#clip0_6_3278)">
<rect width="1200" height="675" fill="#F4F4EF"/>
<rect y="126" width="211.73" height="27.666" fill="#5BEF76"/>
<rect x="171" y="181.332" width="211.73" height="27.666" fill="#006C23"/>
<rect x="-41" y="236.664" width="211.73" height="27.666" fill="#5BEF76"/>
<rect y="291.996" width="211.73" height="27.666" fill="#006C23"/>
<rect x="171" y="347.328" width="211.73" height="27.666" fill="#5BEF76"/>
<rect x="-73" y="402.66" width="211.73" height="27.666" fill="#5BEF76"/>
<rect y="457.992" width="211.73" height="27.666" fill="#5BEF76"/>
<rect x="106" y="513.324" width="211.73" height="27.666" fill="#5BEF76"/>
<rect y="370" width="1184" height="296" fill="#A0CFFF"/>
<rect x="1053" y="126" width="211.73" height="27.666" fill="#006C23"/>
<rect x="972" y="181.332" width="211.73" height="27.666" fill="#5BEF76"/>
<rect x="803" y="236.664" width="211.73" height="27.666" fill="#006C23"/>
<rect x="972" y="291.996" width="211.73" height="27.666" fill="#5BEF76"/>
<rect x="1020" y="347.328" width="211.73" height="27.666" fill="#5BEF76"/>
<rect x="803" y="402.66" width="211.73" height="27.666" fill="#006C23"/>
<rect x="972" y="457.992" width="211.73" height="27.666" fill="#5BEF76"/>
<rect x="1126" y="513.324" width="211.73" height="27.666" fill="#006C23"/>
<rect x="383" y="126" width="418.454" height="418.454" fill="#A0CFFF"/>
<rect x="395" y="544" width="418" height="26.2" transform="rotate(-90 395 544)" fill="#F4F4EF"/>
<rect x="447.398" y="544" width="418" height="26.2" transform="rotate(-90 447.398 544)" fill="#F4F4EF"/>
<rect x="499.801" y="544" width="418" height="26.2" transform="rotate(-90 499.801 544)" fill="#F4F4EF"/>
<rect x="552.199" y="544" width="418" height="26.2" transform="rotate(-90 552.199 544)" fill="#F4F4EF"/>
<rect x="604.602" y="544" width="418" height="26.2" transform="rotate(-90 604.602 544)" fill="#F4F4EF"/>
<rect x="657" y="544" width="418" height="26.2" transform="rotate(-90 657 544)" fill="#F4F4EF"/>
<rect x="709.398" y="544" width="418" height="26.2" transform="rotate(-90 709.398 544)" fill="#F4F4EF"/>
<rect x="761.801" y="544" width="418" height="26.2" transform="rotate(-90 761.801 544)" fill="#F4F4EF"/>
</g>
<defs>
<clipPath id="clip0_6_3278">
<rect width="1200" height="675" fill="white"/>
</clipPath>
</defs>
</svg>
