<svg width="1200" height="675" viewBox="0 0 1200 675" fill="none" xmlns="http://www.w3.org/2000/svg">
<g clip-path="url(#clip0_6_3260)">
<rect width="1200" height="675" fill="#F4F4EF"/>
<path fill-rule="evenodd" clip-rule="evenodd" d="M1166.69 86.0264C1182.34 60.0838 1182.34 32.3031 1166.69 6.34133L1187.38 3.03906C1204.32 31.1506 1204.32 61.2341 1187.38 89.3291C1187.38 89.3297 1187.38 89.3286 1187.38 89.3291L1167.92 121.623C1152.27 147.585 1152.27 175.366 1167.92 201.309L1187.38 233.604C1187.38 233.604 1187.38 233.604 1187.38 233.604C1204.32 261.715 1204.32 291.799 1187.38 319.894C1187.38 319.895 1187.38 319.894 1187.38 319.894L1167.92 352.188C1152.27 378.15 1152.27 405.931 1167.92 431.874L1187.38 464.169C1187.38 464.169 1187.38 464.169 1187.38 464.169C1204.32 492.28 1204.32 522.364 1187.38 550.459C1187.38 550.459 1187.38 550.458 1187.38 550.459L1167.92 582.753C1152.27 608.715 1152.27 636.496 1167.92 662.439L1187.38 694.734C1204.32 722.846 1204.32 752.93 1187.38 781.025L1166.69 777.721C1182.34 751.778 1182.34 723.998 1166.69 698.036L1147.23 665.743C1147.23 665.742 1147.23 665.743 1147.23 665.743C1130.29 637.648 1130.29 607.563 1147.23 579.451L1166.69 547.158C1182.34 521.215 1182.34 493.433 1166.69 467.471L1147.23 435.178C1130.29 407.083 1130.29 376.999 1147.23 348.887C1147.23 348.887 1147.23 348.887 1147.23 348.887L1166.69 316.593C1182.34 290.65 1182.34 262.868 1166.69 236.906L1147.23 204.613C1130.29 176.518 1130.29 146.434 1147.23 118.322C1147.23 118.322 1147.23 118.322 1147.23 118.322L1166.69 86.0264Z" fill="#A0CFFF"/>
<path fill-rule="evenodd" clip-rule="evenodd" d="M1086.78 86.0264C1102.42 60.0838 1102.43 32.3031 1086.78 6.34133L1107.46 3.03906C1124.41 31.1506 1124.41 61.2341 1107.46 89.3291C1107.46 89.3297 1107.46 89.3286 1107.46 89.3291L1088.01 121.623C1072.36 147.585 1072.36 175.366 1088.01 201.309L1107.46 233.604C1107.46 233.604 1107.46 233.604 1107.46 233.604C1124.41 261.715 1124.41 291.799 1107.46 319.894C1107.46 319.895 1107.46 319.894 1107.46 319.894L1088.01 352.188C1072.36 378.15 1072.36 405.931 1088.01 431.874L1107.46 464.169C1107.46 464.169 1107.46 464.169 1107.46 464.169C1124.41 492.28 1124.41 522.364 1107.46 550.459C1107.46 550.459 1107.46 550.458 1107.46 550.459L1088.01 582.753C1072.36 608.715 1072.36 636.496 1088.01 662.439L1107.46 694.734C1124.41 722.846 1124.41 752.93 1107.46 781.025L1086.78 777.721C1102.42 751.778 1102.43 723.998 1086.78 698.036L1067.32 665.743C1067.32 665.742 1067.32 665.743 1067.32 665.743C1050.38 637.648 1050.38 607.563 1067.32 579.451L1086.78 547.158C1102.42 521.215 1102.43 493.433 1086.78 467.471L1067.32 435.178C1050.38 407.083 1050.38 376.999 1067.32 348.887C1067.32 348.887 1067.32 348.887 1067.32 348.887L1086.78 316.593C1102.42 290.65 1102.43 262.868 1086.78 236.906L1067.32 204.613C1050.38 176.518 1050.38 146.434 1067.32 118.322C1067.32 118.322 1067.32 118.322 1067.32 118.322L1086.78 86.0264Z" fill="#A0CFFF"/>
<path fill-rule="evenodd" clip-rule="evenodd" d="M1006.86 86.0264C1022.51 60.0838 1022.51 32.3031 1006.86 6.34133L1027.55 3.03906C1044.49 31.1506 1044.49 61.2341 1027.55 89.3291C1027.55 89.3297 1027.55 89.3286 1027.55 89.3291L1008.09 121.623C992.445 147.585 992.445 175.366 1008.09 201.309L1027.55 233.604C1027.55 233.604 1027.55 233.604 1027.55 233.604C1044.49 261.715 1044.49 291.799 1027.55 319.894C1027.55 319.895 1027.55 319.894 1027.55 319.894L1008.09 352.188C992.445 378.15 992.445 405.931 1008.09 431.874L1027.55 464.169C1027.55 464.169 1027.55 464.169 1027.55 464.169C1044.49 492.28 1044.49 522.364 1027.55 550.459C1027.55 550.459 1027.55 550.458 1027.55 550.459L1008.09 582.753C992.445 608.715 992.445 636.496 1008.09 662.439L1027.55 694.734C1044.49 722.846 1044.49 752.93 1027.55 781.025L1006.86 777.721C1022.51 751.778 1022.51 723.998 1006.86 698.036L987.406 665.743C987.406 665.742 987.407 665.743 987.406 665.743C970.462 637.648 970.462 607.563 987.406 579.451L1006.86 547.158C1022.51 521.215 1022.51 493.433 1006.86 467.471L987.406 435.178C970.462 407.083 970.462 376.999 987.406 348.887C987.406 348.887 987.405 348.887 987.406 348.887L1006.86 316.593C1022.51 290.65 1022.51 262.868 1006.86 236.906L987.406 204.613C970.462 176.518 970.462 146.434 987.406 118.322C987.406 118.322 987.405 118.322 987.406 118.322L1006.86 86.0264Z" fill="#A0CFFF"/>
<path fill-rule="evenodd" clip-rule="evenodd" d="M926.946 86.0264C942.593 60.0838 942.593 32.3031 926.945 6.34133L947.632 3.03906C964.575 31.1506 964.576 61.2341 947.632 89.3291C947.632 89.3297 947.633 89.3286 947.632 89.3291L928.175 121.623C912.527 147.585 912.527 175.366 928.174 201.309L947.632 233.604C947.632 233.604 947.632 233.604 947.632 233.604C964.575 261.715 964.576 291.799 947.632 319.894C947.632 319.895 947.633 319.894 947.632 319.894L928.175 352.188C912.527 378.15 912.527 405.931 928.174 431.874L947.632 464.169C947.632 464.169 947.632 464.169 947.632 464.169C964.575 492.28 964.576 522.364 947.632 550.459C947.632 550.459 947.632 550.458 947.632 550.459L928.175 582.753C912.527 608.715 912.527 636.496 928.174 662.439L947.632 694.734C964.576 722.846 964.576 752.93 947.631 781.025L926.946 777.721C942.592 751.778 942.593 723.998 926.945 698.036L907.488 665.743C907.488 665.742 907.489 665.743 907.488 665.743C890.544 637.648 890.544 607.563 907.488 579.451L926.945 547.158C942.592 521.215 942.593 493.433 926.945 467.471L907.488 435.178C890.544 407.083 890.544 376.999 907.488 348.887C907.488 348.887 907.487 348.887 907.488 348.887L926.945 316.593C942.592 290.65 942.593 262.868 926.945 236.906L907.488 204.613C890.544 176.518 890.544 146.434 907.488 118.322C907.488 118.322 907.487 118.322 907.488 118.322L926.946 86.0264Z" fill="#A0CFFF"/>
<path fill-rule="evenodd" clip-rule="evenodd" d="M847.032 86.0264C862.678 60.0838 862.679 32.3031 847.031 6.34133L867.718 3.03906C884.661 31.1506 884.662 61.2341 867.718 89.3291C867.718 89.3297 867.718 89.3286 867.718 89.3291L848.261 121.623C832.613 147.585 832.613 175.366 848.26 201.309L867.718 233.604C867.718 233.604 867.718 233.604 867.718 233.604C884.661 261.715 884.662 291.799 867.718 319.894C867.718 319.895 867.718 319.894 867.718 319.894L848.261 352.188C832.613 378.15 832.613 405.931 848.26 431.874L867.718 464.169C867.718 464.169 867.718 464.169 867.718 464.169C884.661 492.28 884.662 522.364 867.718 550.459C867.718 550.459 867.718 550.458 867.718 550.459L848.261 582.753C832.613 608.715 832.613 636.496 848.26 662.439L867.718 694.734C884.662 722.846 884.662 752.93 867.717 781.025L847.032 777.721C862.678 751.778 862.679 723.998 847.031 698.036L827.574 665.743C827.574 665.742 827.575 665.743 827.574 665.743C810.63 637.648 810.63 607.563 827.574 579.451L847.031 547.158C862.678 521.215 862.679 493.433 847.031 467.471L827.574 435.178C810.63 407.083 810.63 376.999 827.573 348.887C827.574 348.887 827.573 348.887 827.573 348.887L847.031 316.593C862.678 290.65 862.679 262.868 847.031 236.906L827.574 204.613C810.63 176.518 810.63 146.434 827.573 118.322C827.574 118.322 827.573 118.322 827.573 118.322L847.032 86.0264Z" fill="#A0CFFF"/>
<path fill-rule="evenodd" clip-rule="evenodd" d="M606.829 86.0264C622.475 60.0838 622.476 32.3031 606.828 6.34133L627.515 3.03906C644.458 31.1506 644.459 61.2341 627.515 89.3291C627.515 89.3297 627.515 89.3286 627.515 89.3291L608.057 121.623C592.41 147.585 592.41 175.366 608.057 201.309L627.515 233.604C627.515 233.604 627.515 233.604 627.515 233.604C644.458 261.715 644.459 291.799 627.515 319.894C627.515 319.895 627.515 319.894 627.515 319.894L608.057 352.188C592.41 378.15 592.41 405.931 608.057 431.874L627.515 464.169C627.515 464.169 627.515 464.169 627.515 464.169C644.458 492.28 644.459 522.364 627.515 550.459C627.515 550.459 627.515 550.458 627.515 550.459L608.057 582.753C592.41 608.715 592.41 636.496 608.057 662.439L627.515 694.734C644.458 722.846 644.459 752.93 627.514 781.025L606.829 777.721C622.475 751.778 622.476 723.998 606.828 698.036L587.371 665.743C587.371 665.742 587.372 665.743 587.371 665.743C570.427 637.648 570.427 607.563 587.371 579.451L606.828 547.158C622.474 521.215 622.476 493.433 606.828 467.471L587.371 435.178C570.426 407.083 570.427 376.999 587.37 348.887C587.37 348.887 587.37 348.887 587.37 348.887L606.828 316.593C622.474 290.65 622.476 262.868 606.828 236.906L587.371 204.613C570.426 176.518 570.427 146.434 587.37 118.322C587.37 118.322 587.37 118.322 587.37 118.322L606.829 86.0264Z" fill="#A0CFFF"/>
<path fill-rule="evenodd" clip-rule="evenodd" d="M33.3938 588.579C17.7473 614.522 17.7467 642.302 33.3944 668.264L12.7079 671.566C-4.23546 643.455 -4.23639 613.371 12.7076 585.276C12.7079 585.276 12.7073 585.277 12.7076 585.276L32.1652 552.982C47.8129 527.02 47.8126 499.239 32.1661 473.297L12.708 441.002C12.7079 441.001 12.7081 441.002 12.708 441.002C-4.23512 412.89 -4.23626 382.806 12.7077 354.711C12.708 354.711 12.7074 354.712 12.7077 354.711L32.1652 322.417C47.813 296.456 47.8126 268.674 32.1662 242.732L12.708 210.437C12.7079 210.437 12.7081 210.437 12.708 210.437C-4.23509 182.325 -4.23624 152.242 12.7077 124.147C12.708 124.146 12.7074 124.147 12.7077 124.147L32.1653 91.8525C47.813 65.8908 47.8127 38.1095 32.1662 12.1669L12.708 -20.1282C-4.23567 -48.2403 -4.2363 -78.3243 12.7086 -106.42L33.3939 -103.116C17.7474 -77.1729 17.7468 -49.3923 33.3945 -23.4305L52.8515 8.86265C52.8518 8.86316 52.8512 8.86214 52.8515 8.86265C69.7955 36.9577 69.7955 67.0428 52.8521 95.1543L33.3948 127.448C17.7483 153.39 17.7468 181.173 33.3945 207.134L52.8514 239.428C69.7963 267.523 69.7957 297.607 52.8523 325.719C52.8522 325.719 52.8524 325.718 52.8523 325.719L33.3948 358.013C17.7483 383.955 17.7467 411.737 33.3944 437.699L52.8514 469.992C69.7962 498.088 69.7957 528.172 52.8523 556.283C52.8522 556.284 52.8524 556.283 52.8523 556.283L33.3938 588.579Z" fill="#A0CFFF"/>
<path fill-rule="evenodd" clip-rule="evenodd" d="M113.308 588.579C97.6614 614.522 97.6608 642.302 113.308 668.264L92.622 671.566C75.6786 643.455 75.6777 613.371 92.6217 585.276C92.622 585.276 92.6214 585.277 92.6217 585.276L112.079 552.982C127.727 527.02 127.727 499.239 112.08 473.297L92.622 441.002C92.6219 441.001 92.6221 441.002 92.622 441.002C75.6789 412.89 75.6778 382.806 92.6217 354.711C92.622 354.711 92.6214 354.712 92.6217 354.711L112.079 322.417C127.727 296.456 127.727 268.674 112.08 242.732L92.6221 210.437C92.622 210.437 92.6222 210.437 92.6221 210.437C75.679 182.325 75.6778 152.242 92.6218 124.147C92.6221 124.146 92.6215 124.147 92.6218 124.147L112.079 91.8525C127.727 65.8908 127.727 38.1095 112.08 12.1669L92.6221 -20.1282C75.6784 -48.2403 75.6778 -78.3243 92.6227 -106.42L113.308 -103.116C97.6615 -77.1729 97.6608 -49.3923 113.309 -23.4305L132.766 8.86265C132.766 8.86316 132.765 8.86214 132.766 8.86265C149.71 36.9577 149.71 67.0428 132.766 95.1543L113.309 127.448C97.6624 153.39 97.6608 181.173 113.309 207.134L132.765 239.428C149.71 267.523 149.71 297.607 132.766 325.719C132.766 325.719 132.766 325.718 132.766 325.719L113.309 358.013C97.6623 383.955 97.6608 411.737 113.308 437.699L132.765 469.992C149.71 498.088 149.71 528.172 132.766 556.283C132.766 556.284 132.766 556.283 132.766 556.283L113.308 588.579Z" fill="#A0CFFF"/>
<path fill-rule="evenodd" clip-rule="evenodd" d="M193.222 588.579C177.575 614.522 177.575 642.302 193.223 668.264L172.536 671.566C155.593 643.455 155.592 613.371 172.536 585.276C172.536 585.276 172.535 585.277 172.536 585.276L191.993 552.982C207.641 527.02 207.641 499.239 191.994 473.297L172.536 441.002C172.536 441.001 172.536 441.002 172.536 441.002C155.593 412.89 155.592 382.806 172.536 354.711C172.536 354.711 172.535 354.712 172.536 354.711L191.993 322.417C207.641 296.456 207.641 268.674 191.994 242.732L172.536 210.437C172.536 210.437 172.536 210.437 172.536 210.437C155.593 182.325 155.592 152.242 172.536 124.147C172.536 124.146 172.536 124.147 172.536 124.147L191.993 91.8525C207.641 65.8908 207.641 38.1095 191.994 12.1669L172.536 -20.1282C155.592 -48.2403 155.592 -78.3243 172.537 -106.42L193.222 -103.116C177.576 -77.1729 177.575 -49.3923 193.223 -23.4305L212.68 8.86265C212.68 8.86316 212.679 8.86214 212.68 8.86265C229.624 36.9577 229.624 67.0428 212.68 95.1543L193.223 127.448C177.576 153.39 177.575 181.173 193.223 207.134L212.68 239.428C229.624 267.523 229.624 297.607 212.68 325.719C212.68 325.719 212.681 325.718 212.68 325.719L193.223 358.013C177.576 383.955 177.575 411.737 193.223 437.699L212.68 469.992C229.624 498.088 229.624 528.172 212.68 556.283C212.68 556.284 212.681 556.283 212.68 556.283L193.222 588.579Z" fill="#A0CFFF"/>
<path fill-rule="evenodd" clip-rule="evenodd" d="M273.14 588.579C257.493 614.522 257.493 642.302 273.14 668.264L252.454 671.566C235.511 643.455 235.51 613.371 252.454 585.276C252.454 585.276 252.453 585.277 252.454 585.276L271.911 552.982C287.559 527.02 287.559 499.239 271.912 473.297L252.454 441.002C252.454 441.001 252.454 441.002 252.454 441.002C235.511 412.89 235.51 382.806 252.454 354.711C252.454 354.711 252.453 354.712 252.454 354.711L271.911 322.417C287.559 296.456 287.559 268.674 271.912 242.732L252.454 210.437C252.454 210.437 252.454 210.437 252.454 210.437C235.511 182.325 235.51 152.242 252.454 124.147C252.454 124.146 252.453 124.147 252.454 124.147L271.911 91.8525C287.559 65.8908 287.559 38.1095 271.912 12.1669L252.454 -20.1282C235.51 -48.2403 235.51 -78.3243 252.455 -106.42L273.14 -103.116C257.494 -77.1729 257.493 -49.3923 273.141 -23.4305L292.598 8.86265C292.598 8.86316 292.597 8.86214 292.598 8.86265C309.542 36.9577 309.542 67.0428 292.598 95.1543L273.141 127.448C257.494 153.39 257.493 181.173 273.141 207.134L292.598 239.428C309.542 267.523 309.542 297.607 292.598 325.719C292.598 325.719 292.599 325.718 292.598 325.719L273.141 358.013C257.494 383.955 257.493 411.737 273.141 437.699L292.597 469.992C309.542 498.088 309.542 528.172 292.598 556.283C292.598 556.284 292.599 556.283 292.598 556.283L273.14 588.579Z" fill="#A0CFFF"/>
<path fill-rule="evenodd" clip-rule="evenodd" d="M353.054 588.579C337.407 614.522 337.407 642.302 353.055 668.264L332.368 671.566C315.425 643.455 315.424 613.371 332.368 585.276C332.368 585.276 332.367 585.277 332.368 585.276L351.825 552.982C367.473 527.02 367.473 499.239 351.826 473.297L332.368 441.002C332.368 441.001 332.368 441.002 332.368 441.002C315.425 412.89 315.424 382.806 332.368 354.711C332.368 354.711 332.368 354.712 332.368 354.711L351.825 322.417C367.473 296.456 367.473 268.674 351.826 242.732L332.368 210.437C332.368 210.437 332.368 210.437 332.368 210.437C315.425 182.325 315.424 152.242 332.368 124.147C332.368 124.146 332.368 124.147 332.368 124.147L351.825 91.8525C367.473 65.8908 367.473 38.1095 351.826 12.1669L332.368 -20.1282C315.424 -48.2403 315.424 -78.3243 332.369 -106.42L353.054 -103.116C337.408 -77.1729 337.407 -49.3923 353.055 -23.4305L372.512 8.86265C372.512 8.86316 372.511 8.86214 372.512 8.86265C389.456 36.9577 389.456 67.0428 372.512 95.1543L353.055 127.448C337.408 153.39 337.407 181.173 353.055 207.134L372.512 239.428C389.456 267.523 389.456 297.607 372.512 325.719C372.512 325.719 372.513 325.718 372.512 325.719L353.055 358.013C337.408 383.955 337.407 411.737 353.055 437.699L372.512 469.992C389.456 498.088 389.456 528.172 372.512 556.283C372.512 556.284 372.513 556.283 372.512 556.283L353.054 588.579Z" fill="#A0CFFF"/>
<path d="M1183 283V-5.24521e-06H900L1183 283Z" fill="#5BEF76"/>
<path d="M1.08203 382.613L1.082 665.613L284.082 665.613L1.08203 382.613Z" fill="#5BEF76"/>
<path fill-rule="evenodd" clip-rule="evenodd" d="M347 333C347 472.176 459.824 585 599 585C738.176 585 851 472.176 851 333C851 193.824 738.176 81 599 81C459.824 81 347 193.824 347 333ZM445.824 333C445.824 417.597 514.403 486.176 599 486.176C683.597 486.176 752.176 417.597 752.176 333C752.176 248.403 683.597 179.824 599 179.824C514.403 179.824 445.824 248.403 445.824 333Z" fill="#006C23"/>
<circle cx="598.5" cy="332.5" r="39.6068" transform="rotate(90 598.5 332.5)" fill="#006C23" stroke="#5BEF76" stroke-width="9.78641"/>
</g>
<defs>
<clipPath id="clip0_6_3260">
<rect width="1200" height="675" fill="white"/>
</clipPath>
</defs>
</svg>
