<?xml version="1.0" encoding="utf-8"?>
<!-- Generator: Adobe Illustrator 26.3.1, SVG Export Plug-In . SVG Version: 6.00 Build 0)  -->
<svg version="1.1" id="Layer_1" xmlns="http://www.w3.org/2000/svg" xmlns:xlink="http://www.w3.org/1999/xlink" x="0px" y="0px"
	 viewBox="0 0 552.8 278.1" style="enable-background:new 0 0 552.8 278.1;" xml:space="preserve">
<style type="text/css">
	.st0{fill:#22244D;}
	.st1{fill:#9193C8;}
</style>
<rect x="0.2" y="0" class="st0" width="552.6" height="278.1"/>
<g>
	<path class="st1" d="M152.2,156.1c0-1.6,0.3-3.2,0.9-4.7c0.6-1.5,1.4-2.7,2.5-3.8c1.1-1.1,2.4-1.9,3.8-2.5c1.5-0.6,3-0.9,4.7-0.9
		c1.6,0,3.2,0.3,4.7,0.9c1.5,0.6,2.7,1.4,3.8,2.5c1.1,1.1,1.9,2.4,2.5,3.8c0.6,1.5,0.9,3,0.9,4.7c0,1.6-0.3,3.2-0.9,4.7
		c-0.6,1.5-1.4,2.7-2.5,3.8c-1.1,1.1-2.4,1.9-3.8,2.5c-1.5,0.6-3,0.9-4.7,0.9c-1.6,0-3.2-0.3-4.7-0.9c-1.5-0.6-2.7-1.4-3.8-2.5
		c-1.1-1.1-1.9-2.3-2.5-3.8C152.6,159.3,152.2,157.7,152.2,156.1z"/>
	<path class="st1" d="M187.7,147.8l32.6-28h-31.8v-15.5h54.4v18.6l-34.2,28.7h35v15.5h-55.9V147.8z"/>
	<path class="st1" d="M253.6,84.5c0-3.1,1.1-5.8,3.3-8c2.2-2.2,4.9-3.3,8-3.3c3.1,0,5.8,1.1,8,3.3c2.2,2.2,3.3,4.9,3.3,8
		c0,3.1-1.1,5.8-3.3,8c-2.2,2.2-4.9,3.3-8,3.3c-3.1,0-5.8-1.1-8-3.3C254.7,90.2,253.6,87.6,253.6,84.5z M255.2,104.3h19.4v62.9
		h-19.4V104.3z"/>
	<path class="st1" d="M290.4,104.3h17.9v8.3h0.3c0.8-1.1,1.8-2.3,3-3.4c1.2-1.2,2.7-2.2,4.4-3.2c1.7-0.9,3.5-1.7,5.5-2.3
		c2-0.6,4.1-0.9,6.3-0.9c4.7,0,8.9,0.8,12.7,2.4c3.8,1.6,7.1,3.8,9.8,6.7c2.7,2.9,4.8,6.3,6.3,10.3c1.5,4,2.2,8.3,2.2,13.1
		c0,4.4-0.7,8.6-2,12.6c-1.3,4-3.2,7.6-5.7,10.7c-2.5,3.1-5.5,5.6-9,7.4c-3.5,1.9-7.6,2.8-12,2.8c-4.1,0-7.8-0.6-11.3-1.9
		c-3.5-1.2-6.4-3.4-8.6-6.4h-0.3v36.2h-19.4V104.3z M308.3,135.8c0,4.7,1.4,8.6,4.1,11.5c2.7,2.9,6.5,4.4,11.5,4.4
		c4.9,0,8.7-1.5,11.5-4.4c2.7-2.9,4.1-6.8,4.1-11.5c0-4.7-1.4-8.6-4.1-11.5c-2.7-2.9-6.5-4.4-11.5-4.4c-4.9,0-8.7,1.5-11.5,4.4
		C309.6,127.2,308.3,131,308.3,135.8z"/>
</g>
</svg>
