<svg width="17" height="9" viewBox="0 0 17 9" fill="none" xmlns="http://www.w3.org/2000/svg">
<path d="M15.0028 3.48993L3.41079 3.50693L4.77379 2.13393C4.86637 2.04069 4.93968 1.93013 4.98953 1.80856C5.03939 1.68699 5.06481 1.55679 5.06434 1.42539C5.06388 1.294 5.03754 1.16398 4.98683 1.04277C4.93612 0.921552 4.86202 0.811512 4.76879 0.71893C4.67555 0.626348 4.56499 0.553038 4.44342 0.503184C4.32185 0.45333 4.19165 0.42791 4.06025 0.428374C3.92886 0.428838 3.79884 0.455178 3.67762 0.505889C3.55641 0.556601 3.44637 0.630691 3.35379 0.72393L0.292786 3.80593C0.105315 3.99346 0 4.24777 0 4.51293C0 4.77809 0.105315 5.0324 0.292786 5.21993L3.37379 8.28093C3.56196 8.46791 3.8167 8.57248 4.08197 8.57163C4.34724 8.57079 4.60131 8.4646 4.78829 8.27643C4.97526 8.08826 5.07983 7.83352 5.07899 7.56825C5.07815 7.30298 4.97196 7.04891 4.78379 6.86193L3.42479 5.50693L15.0028 5.48993C15.268 5.48993 15.5224 5.38457 15.7099 5.19704C15.8974 5.0095 16.0028 4.75515 16.0028 4.48993C16.0028 4.22471 15.8974 3.97036 15.7099 3.78282C15.5224 3.59529 15.268 3.48993 15.0028 3.48993Z" fill="#393A3D"/>
</svg>
