<?xml version="1.0" encoding="utf-8"?>
<!-- Generator: Adobe Illustrator 26.3.1, SVG Export Plug-In . SVG Version: 6.00 Build 0)  -->
<svg version="1.1" id="Layer_1" xmlns="http://www.w3.org/2000/svg" xmlns:xlink="http://www.w3.org/1999/xlink" x="0px" y="0px"
	 viewBox="0 0 17 9" style="enable-background:new 0 0 17 9;" xml:space="preserve">
<style type="text/css">
	.st0{fill:#0D99FF;}
</style>
<path class="st0" d="M15,3.5l-11.6,0l1.4-1.4C4.9,2,4.9,1.9,5,1.8c0-0.1,0.1-0.3,0.1-0.4C5.1,1.3,5,1.2,5,1C4.9,0.9,4.9,0.8,4.8,0.7
	C4.7,0.6,4.6,0.6,4.4,0.5S4.2,0.4,4.1,0.4c-0.1,0-0.3,0-0.4,0.1C3.6,0.6,3.4,0.6,3.4,0.7L0.3,3.8C0.1,4,0,4.2,0,4.5S0.1,5,0.3,5.2
	l3.1,3.1c0.2,0.2,0.4,0.3,0.7,0.3c0.3,0,0.5-0.1,0.7-0.3C5,8.1,5.1,7.8,5.1,7.6C5.1,7.3,5,7,4.8,6.9L3.4,5.5l11.6,0
	c0.3,0,0.5-0.1,0.7-0.3C15.9,5,16,4.8,16,4.5c0-0.3-0.1-0.5-0.3-0.7C15.5,3.6,15.3,3.5,15,3.5z"/>
</svg>
