<?xml version="1.0" encoding="utf-8"?>
<!-- Generator: Adobe Illustrator 26.3.1, SVG Export Plug-In . SVG Version: 6.00 Build 0)  -->
<svg version="1.1" id="Layer_1" xmlns="http://www.w3.org/2000/svg" xmlns:xlink="http://www.w3.org/1999/xlink" x="0px" y="0px"
	 viewBox="0 0 24 24" style="enable-background:new 0 0 24 24;" xml:space="preserve">
<style type="text/css">
	.st0{fill:#FFFFFF;}
</style>
<path class="st0" d="M13.4,12l5.3-5.3c0.1-0.1,0.2-0.2,0.2-0.3C19,6.3,19,6.1,19,6c0-0.1,0-0.3-0.1-0.4c-0.1-0.1-0.1-0.2-0.2-0.3
	c-0.1-0.1-0.2-0.2-0.3-0.2C18.3,5,18.2,5,18,5c-0.1,0-0.3,0-0.4,0.1c-0.1,0.1-0.2,0.1-0.3,0.2L12,10.6L6.7,5.3
	C6.6,5.2,6.5,5.1,6.4,5C6.3,5,6.2,5,6,5C5.9,4.9,5.8,5,5.6,5C5.5,5.1,5.4,5.1,5.3,5.2C5.2,5.3,5.1,5.5,5.1,5.6C5,5.7,5,5.8,5,6
	c0,0.1,0,0.3,0.1,0.4c0.1,0.1,0.1,0.2,0.2,0.3l5.3,5.3l-5.3,5.3c-0.1,0.1-0.2,0.2-0.2,0.3C5,17.7,5,17.8,5,18c0,0.1,0,0.3,0.1,0.4
	c0.1,0.1,0.1,0.2,0.2,0.3c0.1,0.1,0.2,0.2,0.3,0.2C5.7,19,5.9,19,6,19c0.1,0,0.3,0,0.4-0.1c0.1-0.1,0.2-0.1,0.3-0.2l5.3-5.3l5.3,5.3
	c0.1,0.1,0.2,0.2,0.3,0.2C17.7,19,17.9,19,18,19c0.1,0,0.3,0,0.4-0.1c0.1-0.1,0.2-0.1,0.3-0.2c0.1-0.1,0.2-0.2,0.2-0.3
	C19,18.3,19,18.1,19,18c0-0.1,0-0.3-0.1-0.4c-0.1-0.1-0.1-0.2-0.2-0.3L13.4,12z"/>
</svg>
