<svg width="26" height="26" viewBox="0 0 26 26" fill="none" xmlns="http://www.w3.org/2000/svg">
<path d="M21.8527 4.17501C20.6967 3.00875 19.3208 2.08342 17.8047 1.4526C16.2886 0.821779 14.6624 0.497999 13.0202 0.500009H13.0002C9.68503 0.497357 6.50455 1.81177 4.15847 4.1541C1.81239 6.49643 0.492891 9.6748 0.490238 12.99C0.487586 16.3052 1.802 19.4857 4.14433 21.8318C6.48666 24.1779 9.66503 25.4974 12.9802 25.5H13.0002C15.4708 25.5 17.886 24.7678 19.9407 23.396C21.9955 22.0242 23.5976 20.0743 24.5449 17.7925C25.4921 15.5107 25.7419 12.9994 25.2628 10.5757C24.7836 8.15205 23.597 5.92471 21.8527 4.17501ZM16.5327 14.7725C16.652 14.888 16.747 15.0261 16.8123 15.1786C16.8775 15.3312 16.9118 15.4953 16.913 15.6613C16.9142 15.8273 16.8823 15.9918 16.8193 16.1453C16.7562 16.2989 16.6632 16.4383 16.5457 16.5555C16.4281 16.6727 16.2884 16.7653 16.1347 16.8279C15.981 16.8906 15.8164 16.9219 15.6504 16.9203C15.4845 16.9186 15.3205 16.8839 15.1681 16.8182C15.0157 16.7525 14.8779 16.657 14.7627 16.5375L13.0002 14.7675L11.2302 16.5325C11.114 16.6486 10.9761 16.7406 10.8243 16.8033C10.6725 16.8661 10.5098 16.8983 10.3456 16.8982C10.1814 16.8981 10.0187 16.8656 9.86705 16.8027C9.71535 16.7397 9.57754 16.6475 9.46149 16.5313C9.2271 16.2965 9.09556 15.9783 9.09579 15.6466C9.09591 15.4824 9.12837 15.3198 9.19133 15.1681C9.2543 15.0164 9.34652 14.8786 9.46274 14.7625L11.2327 13L9.46774 11.2263C9.34853 11.1108 9.2535 10.9727 9.18822 10.8201C9.12293 10.6675 9.08869 10.5035 9.08748 10.3375C9.08628 10.1715 9.11814 10.007 9.18121 9.85344C9.24428 9.69992 9.33729 9.56049 9.45482 9.4433C9.57235 9.3261 9.71204 9.23348 9.86574 9.17085C10.0194 9.10822 10.1841 9.07682 10.35 9.07849C10.516 9.08016 10.68 9.11487 10.8324 9.18059C10.9848 9.24631 11.1226 9.34172 11.2377 9.46126L13.0002 11.2325L14.7702 9.46751C15.005 9.23312 15.3232 9.10158 15.6549 9.10181C15.9866 9.10205 16.3046 9.23404 16.539 9.46876C16.7734 9.70348 16.9049 10.0217 16.9047 10.3534C16.9044 10.6851 16.7725 11.0031 16.5377 11.2375L14.7677 13L16.5327 14.7725Z" fill="#393A3D"/>
</svg>
