<svg width="22" height="19" viewBox="0 0 22 19" fill="none" xmlns="http://www.w3.org/2000/svg">
<path fill-rule="evenodd" clip-rule="evenodd" d="M12.8105 0.61655C14.3539 1.30086 15.5968 2.52153 16.309 4.05228C17.85 4.16116 19.2896 4.8602 20.3281 6.00387C21.3666 7.14755 21.9239 8.64771 21.8841 10.192C21.8443 11.7363 21.2104 13.2058 20.1143 14.2944C19.0182 15.383 17.5445 16.007 16 16.0363C15.7348 16.0363 15.4804 15.9309 15.2929 15.7434C15.1053 15.5559 15 15.3015 15 15.0363C15 14.7711 15.1053 14.5167 15.2929 14.3292C15.4804 14.1416 15.7348 14.0363 16 14.0363C17.0608 14.0363 18.0783 13.6149 18.8284 12.8647C19.5785 12.1146 20 11.0971 20 10.0363C20 8.97542 19.5785 7.958 18.8284 7.20785C18.0783 6.45771 17.0608 6.03628 16 6.03628C15.3877 6.03282 14.783 6.17167 14.2336 6.44187C13.6841 6.71207 13.205 7.10624 12.834 7.59328C12.7554 7.70088 12.6562 7.7917 12.542 7.86041C12.4279 7.92912 12.3012 7.97433 12.1693 7.99339C12.0375 8.01245 11.9032 8.00497 11.7743 7.9714C11.6453 7.93782 11.5244 7.87883 11.4186 7.79788C11.3128 7.71693 11.2243 7.61565 11.1581 7.5C11.092 7.38435 11.0497 7.25665 11.0336 7.12441C11.0175 6.99217 11.028 6.85804 11.0645 6.72991C11.101 6.60178 11.1627 6.48223 11.246 6.37828C11.9883 5.40605 13.0136 4.68777 14.181 4.32228C13.597 3.41586 12.7349 2.7231 11.7241 2.34779C10.7132 1.97249 9.60798 1.93485 8.57394 2.24053C7.5399 2.5462 6.63275 3.17872 5.98843 4.04331C5.3441 4.90791 4.9973 5.95801 4.99997 7.03628C5.00378 7.43857 5.05855 7.83876 5.16297 8.22728C5.79019 8.41224 6.36187 8.74961 6.82697 9.20928C6.92248 9.30153 6.99866 9.41187 7.05107 9.53388C7.10348 9.65588 7.13107 9.7871 7.13222 9.91988C7.13338 10.0527 7.10807 10.1843 7.05779 10.3072C7.00751 10.4301 6.93326 10.5418 6.83937 10.6357C6.74547 10.7296 6.63382 10.8038 6.51093 10.8541C6.38803 10.9044 6.25635 10.9297 6.12357 10.9285C5.99079 10.9274 5.85957 10.8998 5.73757 10.8474C5.61556 10.795 5.50522 10.7188 5.41297 10.6233C5.18048 10.3904 4.89411 10.2185 4.57926 10.1228C4.26441 10.027 3.93081 10.0105 3.60803 10.0746C3.28526 10.1387 2.98328 10.2814 2.72889 10.4902C2.47449 10.6989 2.27553 10.9672 2.14965 11.2712C2.02377 11.5753 1.97487 11.9057 2.00726 12.2332C2.03966 12.5607 2.15237 12.8751 2.33538 13.1486C2.5184 13.4221 2.76607 13.6462 3.05644 13.801C3.3468 13.9559 3.67089 14.0367 3.99997 14.0363H5.99997C6.26519 14.0363 6.51954 14.1416 6.70708 14.3292C6.89461 14.5167 6.99997 14.7711 6.99997 15.0363C6.99997 15.3015 6.89461 15.5559 6.70708 15.7434C6.51954 15.9309 6.26519 16.0363 5.99997 16.0363H3.99997C3.02441 16.0267 2.08597 15.661 1.36125 15.0079C0.636524 14.3547 0.175485 13.4592 0.064888 12.4899C-0.0457086 11.5206 0.201763 10.5443 0.760734 9.74468C1.31971 8.94508 2.15164 8.37734 3.09997 8.14828C2.8211 6.48318 3.15536 4.77343 4.04081 3.33595C4.92626 1.89848 6.30283 0.830766 7.91538 0.330729C9.52793 -0.169309 11.2671 -0.0677611 12.8105 0.61655ZM12 14.6222L12.2929 14.3292H12.295C12.4836 14.147 12.7362 14.0462 12.9984 14.0485C13.2605 14.0508 13.5114 14.156 13.6968 14.3414C13.8822 14.5268 13.9873 14.7776 13.9896 15.0398C13.9919 15.302 13.8911 15.5546 13.709 15.7432L11.709 17.7432C11.6161 17.8363 11.5057 17.9102 11.3842 17.9606C11.2627 18.011 11.1325 18.037 11.001 18.037C10.8694 18.037 10.7392 18.011 10.6177 17.9606C10.4962 17.9102 10.3858 17.8363 10.293 17.7432L8.29295 15.7432C8.11079 15.5546 8.01 15.302 8.01228 15.0398C8.01455 14.7776 8.11972 14.5268 8.30513 14.3414C8.49054 14.156 8.74135 14.0508 9.00355 14.0485C9.26575 14.0462 9.51835 14.147 9.70695 14.3292L9.99995 14.6222V11.0362C9.99995 10.771 10.1053 10.5166 10.2928 10.3291C10.4804 10.1416 10.7347 10.0362 11 10.0362C11.2652 10.0362 11.5195 10.1416 11.7071 10.3291C11.8946 10.5166 12 10.771 12 11.0362V14.6222Z" fill="#21ABF6"/>
</svg>
