<svg width="20" height="20" viewBox="0 0 20 20" fill="none" xmlns="http://www.w3.org/2000/svg">
<path d="M18.7022 2.29602L17.2902 0.880019C17.0126 0.600384 16.6823 0.378613 16.3184 0.227556C15.9545 0.0764991 15.5642 -0.000840206 15.1702 1.89419e-05V1.89419e-05C14.7771 -0.00138285 14.3875 0.0750332 14.024 0.224864C13.6605 0.374694 13.3302 0.594977 13.0522 0.873019L1.71722 12.169C1.63642 12.2536 1.5711 12.3518 1.52422 12.459C1.51143 12.4867 1.50009 12.5151 1.49022 12.544C1.48022 12.573 1.46422 12.599 1.45622 12.629L0.0302249 18.289C-0.00689096 18.4365 -0.00986437 18.5906 0.0215312 18.7394C0.0529267 18.8883 0.117864 19.028 0.211399 19.1479C0.304935 19.2679 0.424605 19.3649 0.561299 19.4317C0.697994 19.4984 0.848111 19.5331 1.00022 19.533C1.08141 19.5327 1.16229 19.523 1.24122 19.504L6.90022 18.098C6.93322 18.09 6.96223 18.072 6.99423 18.061C7.02623 18.05 7.04823 18.041 7.07423 18.029C7.18023 17.9824 7.27734 17.9178 7.36123 17.838V17.838L18.6922 6.53802C19.256 5.97676 19.5737 5.21458 19.5756 4.41909C19.5775 3.6236 19.2633 2.85993 18.7022 2.29602V2.29602ZM2.96122 14.835L4.62323 16.502L4.70423 16.582L2.37622 17.16L2.96122 14.835ZM6.66123 15.713L5.24923 14.297L3.83722 12.88L12.3372 4.40802L13.7492 5.82402L15.1612 7.24002L6.66123 15.713ZM17.2842 5.12202L16.5752 5.82802L15.1632 4.41202L13.7512 2.99502L14.4592 2.28902C14.6471 2.10318 14.9009 1.99928 15.1652 2.00002C15.2964 1.99933 15.4264 2.0248 15.5476 2.07494C15.6688 2.12507 15.7789 2.19887 15.8712 2.29202L17.2902 3.70802C17.4769 3.89634 17.5811 4.1511 17.58 4.41626C17.5789 4.68143 17.4725 4.93529 17.2842 5.12202V5.12202Z" fill="#B7B7B7"/>
</svg>
