<svg width="16" height="17" viewBox="0 0 16 17" fill="none" xmlns="http://www.w3.org/2000/svg">
<path d="M7.16653 16.1C6.7245 16.1 6.30058 15.9244 5.98802 15.6118C5.67545 15.2993 5.49986 14.8754 5.49986 14.4333V10.7425L0.611527 3.06167C0.451105 2.80966 0.361366 2.51916 0.351703 2.22058C0.342039 1.922 0.412805 1.62631 0.556596 1.36445C0.700386 1.1026 0.911915 0.884204 1.16905 0.732126C1.42618 0.580047 1.71946 0.499875 2.01819 0.5H13.9815C14.2802 0.500025 14.5734 0.580305 14.8304 0.732444C15.0874 0.884583 15.2988 1.10299 15.4425 1.36482C15.5862 1.62665 15.6569 1.92228 15.6472 2.22079C15.6375 2.5193 15.5477 2.80972 15.3874 3.06167L10.4999 10.7425V14.0158C10.4998 14.3875 10.3755 14.7485 10.1468 15.0414C9.91802 15.3343 9.59793 15.5424 9.23736 15.6325L7.57069 16.0492C7.43856 16.0826 7.30282 16.0996 7.16653 16.1V16.1ZM2.01819 2.16667L7.03653 10.0525C7.12153 10.1863 7.16663 10.3415 7.16653 10.5V14.4325L8.83319 14.0158V10.5C8.83309 10.3415 8.87819 10.1863 8.96319 10.0525L13.9815 2.16667H2.01819Z" fill="white"/>
</svg>
