<svg width="20" height="20" viewBox="0 0 20 20" fill="none" xmlns="http://www.w3.org/2000/svg">
<path d="M15.8334 7.50017H12.7584L12.9917 6.15017C13.1167 5.44414 13.0107 4.71663 12.6894 4.07562C12.3682 3.43461 11.8488 2.91427 11.2084 2.59184C11.0403 2.50647 10.8483 2.48059 10.6636 2.51843C10.479 2.55627 10.3126 2.65559 10.1917 2.80017L6.27502 7.50017H2.50002C2.279 7.50017 2.06705 7.58797 1.91076 7.74425C1.75449 7.90053 1.66669 8.11249 1.66669 8.33351V16.6668C1.66669 16.8878 1.75449 17.0998 1.91076 17.2561C2.06705 17.4123 2.279 17.5002 2.50002 17.5002H13.9C14.3898 17.5005 14.8689 17.3569 15.2778 17.0873C15.6867 16.8176 16.0074 16.4338 16.2 15.9835L18.1 11.5502C18.2563 11.19 18.3358 10.8012 18.3334 10.4085V10.0002C18.3334 9.33709 18.0699 8.70126 17.6011 8.23241C17.1323 7.76357 16.4964 7.50017 15.8334 7.50017ZM5.83335 15.8335H3.33335V9.16684H5.83335V15.8335ZM16.6667 10.4085C16.6664 10.5774 16.6324 10.7446 16.5667 10.9002L14.6667 15.3252C14.6029 15.4758 14.4962 15.6043 14.3599 15.6947C14.2235 15.7851 14.0636 15.8333 13.9 15.8335H7.50002V8.63351L10.9667 4.46684C11.1287 4.65167 11.2479 4.87004 11.3155 5.10632C11.3833 5.34259 11.3979 5.59092 11.3584 5.83351L10.9417 8.16684C10.9209 8.28752 10.9269 8.41126 10.9594 8.52934C10.9918 8.64742 11.0499 8.75692 11.1294 8.85001C11.2089 8.94309 11.3081 9.01751 11.4197 9.06792C11.5313 9.11842 11.6526 9.14359 11.775 9.14184H15.8334C16.0544 9.14184 16.2664 9.22967 16.4226 9.38592C16.5789 9.54217 16.6667 9.75417 16.6667 9.97517V10.4085Z" fill="#0495E7"/>
</svg>
