<svg width="18" height="16" viewBox="0 0 18 16" fill="none" xmlns="http://www.w3.org/2000/svg">
<path d="M14.8334 5.50066H11.7584L11.9917 4.15066C12.1167 3.44463 12.0107 2.71712 11.6895 2.0761C11.3682 1.4351 10.8488 0.914763 10.2084 0.592329C10.0403 0.506954 9.84833 0.481079 9.66366 0.518921C9.47908 0.556754 9.31266 0.656079 9.19175 0.800663L5.27508 5.50066H1.50008C1.27906 5.50066 1.06711 5.58846 0.910823 5.74474C0.754548 5.90102 0.666748 6.11298 0.666748 6.334V14.6673C0.666748 14.8883 0.754548 15.1003 0.910823 15.2566C1.06711 15.4128 1.27906 15.5007 1.50008 15.5007H12.9001C13.3898 15.501 13.869 15.3574 14.2778 15.0877C14.6867 14.8181 15.0074 14.4343 15.2001 13.984L17.1001 9.55066C17.2563 9.1905 17.3358 8.80166 17.3334 8.409V8.00066C17.3334 7.33758 17.07 6.70175 16.6012 6.2329C16.1323 5.76406 15.4964 5.50066 14.8334 5.50066ZM4.83342 13.834H2.33341V7.16733H4.83342V13.834ZM15.6667 8.409C15.6665 8.57791 15.6325 8.74508 15.5667 8.90066L13.6667 13.3257C13.6029 13.4762 13.4962 13.6048 13.3599 13.6952C13.2236 13.7856 13.0637 13.8338 12.9001 13.834H6.50008V6.634L9.96675 2.46733C10.1287 2.65215 10.2479 2.87053 10.3156 3.1068C10.3833 3.34308 10.3979 3.5914 10.3584 3.834L9.94175 6.16733C9.92092 6.288 9.92692 6.41175 9.95942 6.52983C9.99183 6.64791 10.0499 6.75741 10.1295 6.8505C10.209 6.94358 10.3082 7.018 10.4197 7.06841C10.5313 7.11891 10.6527 7.14408 10.7751 7.14233H14.8334C15.0544 7.14233 15.2664 7.23016 15.4227 7.38641C15.5789 7.54266 15.6667 7.75466 15.6667 7.97566V8.409Z" fill="#393A3D"/>
</svg>
