<svg width="74" height="74" viewBox="0 0 74 74" fill="none" xmlns="http://www.w3.org/2000/svg">
<path fill-rule="evenodd" clip-rule="evenodd" d="M70.18 3.60213C69.162 2.5768 67.9509 1.76339 66.6167 1.20893C65.2824 0.654463 63.8515 0.369939 62.4067 0.371799L11.0733 0.2948C8.15595 0.2948 5.35806 1.45373 3.29516 3.51663C1.23226 5.57953 0.0733337 8.37742 0.0733337 11.2948L0 62.6281C0 65.5455 1.15893 68.3434 3.22183 70.4063C5.28473 72.4692 8.08262 73.6281 11 73.6281L62.3333 73.7051C65.2507 73.7051 68.0486 72.5462 70.1115 70.4833C72.1744 68.4204 73.3333 65.6225 73.3333 62.7051L73.4067 11.3718C73.4093 9.9277 73.1255 8.49741 72.5717 7.16374C72.0178 5.83006 71.2049 4.6195 70.18 3.60213ZM65.9817 62.7088C65.9817 63.6813 65.5954 64.6139 64.9077 65.3015C64.2201 65.9892 63.2875 66.3755 62.315 66.3755L10.9817 66.2985C10.0092 66.2985 9.07658 65.9122 8.38894 65.2245C7.70131 64.5369 7.315 63.6043 7.315 62.6318L7.38833 11.2985C7.38833 10.326 7.77464 9.39337 8.46228 8.70574C9.14991 8.01811 10.0825 7.6318 11.055 7.6318L62.3883 7.7088C63.3608 7.7088 64.2934 8.09511 64.9811 8.78274C65.6687 9.47037 66.055 10.403 66.055 11.3755L65.9817 62.7088ZM49.9326 36.4211C49.5911 35.9658 49.1482 35.5961 48.6391 35.3416C48.1299 35.087 47.5685 34.9545 46.9993 34.9545C46.4301 34.9545 45.8686 35.087 45.3595 35.3416C44.8504 35.5961 44.4075 35.9658 44.066 36.4211L34.2063 49.5221L26.895 42.1888C26.2074 41.5014 25.2749 41.1153 24.3026 41.1153C23.3304 41.1153 22.3979 41.5014 21.7103 42.1888L11.385 52.4701C10.716 53.1607 10.3451 54.0864 10.352 55.0479C10.359 56.0093 10.7433 56.9295 11.4222 57.6103C12.1011 58.2912 13.0202 58.6781 13.9817 58.6878C14.9431 58.6975 15.8698 58.3291 16.5623 57.6621L24.2953 49.9621L31.9953 57.6951C32.3684 58.0645 32.8155 58.3505 33.3072 58.5345C33.7989 58.7184 34.3241 58.796 34.848 58.7621C35.3726 58.7237 35.8829 58.5729 36.3441 58.3198C36.8053 58.0667 37.2067 57.7174 37.521 57.2955L46.9846 44.7188L56.4043 57.3211C56.9878 58.0991 57.8564 58.6134 58.8191 58.7509C59.7818 58.8885 60.7597 58.6379 61.5376 58.0545C62.3156 57.471 62.8299 56.6024 62.9674 55.6397C63.105 54.677 62.8544 53.6991 62.271 52.9211L49.9326 36.4211ZM27.2034 27.4946C25.8281 28.8699 23.9628 29.6425 22.0179 29.6425C20.073 29.6425 18.2077 28.8699 16.8325 27.4946C15.4572 26.1193 14.6846 24.2541 14.6846 22.3092C14.6846 20.3642 15.4572 18.499 16.8325 17.1237C18.2077 15.7484 20.073 14.9758 22.0179 14.9758C23.9628 14.9758 25.8281 15.7484 27.2034 17.1237C28.5786 18.499 29.3512 20.3642 29.3512 22.3092C29.3512 24.2541 28.5786 26.1193 27.2034 27.4946Z" fill="#ECEEF1"/>
</svg>
