<svg width="20" height="19" viewBox="0 0 20 19" fill="none" xmlns="http://www.w3.org/2000/svg">
<path d="M10.0001 18.8306C9.60101 18.8306 9.20787 18.7342 8.85406 18.5496C6.49306 17.3126 0.914059 13.8436 0.100059 8.33462C-0.0411774 7.4117 0.013899 6.46937 0.261689 5.56919C0.50948 4.66901 0.944408 3.83124 1.53806 3.11062C2.05659 2.47489 2.70524 1.95757 3.44039 1.59345C4.17554 1.22932 4.98013 1.02684 5.80006 0.999619C7.34668 0.95846 8.85009 1.51257 10.0001 2.54762C11.148 1.50916 12.6528 0.954527 14.2001 0.999619C15.0192 1.0269 15.8231 1.22912 16.5577 1.5927C17.2923 1.95628 17.9406 2.47282 18.4591 3.10762C19.0536 3.82836 19.4893 4.66652 19.7377 5.56726C19.986 6.468 20.0413 7.41102 19.9001 8.33462C19.0851 13.8436 13.5061 17.3126 11.1451 18.5486C10.7918 18.7338 10.3989 18.8305 10.0001 18.8306V18.8306ZM6.00006 2.99962H5.86306C5.32592 3.01893 4.79914 3.15296 4.31809 3.39271C3.83704 3.63246 3.41287 3.97237 3.07406 4.38962C2.6635 4.89548 2.3626 5.48118 2.19045 6.10952C2.0183 6.73787 1.97866 7.39514 2.07406 8.03962C2.77406 12.7696 8.14706 15.9216 9.77406 16.7756C9.84163 16.8116 9.91701 16.8304 9.99356 16.8304C10.0701 16.8304 10.1455 16.8116 10.2131 16.7756C11.8431 15.9226 17.2131 12.7706 17.9131 8.04062C18.0085 7.39614 17.9688 6.73887 17.7967 6.11052C17.6245 5.48217 17.3236 4.89648 16.9131 4.39062C16.5756 3.97499 16.1535 3.63599 15.6749 3.39615C15.1962 3.15631 14.672 3.02113 14.1371 2.99962V2.99962C13.566 2.98321 12.998 3.08931 12.4714 3.31079C11.9448 3.53227 11.4717 3.86399 11.0841 4.28362C10.9418 4.42609 10.7728 4.53912 10.5868 4.61624C10.4008 4.69335 10.2014 4.73304 10.0001 4.73304C9.7987 4.73304 9.59932 4.69335 9.41332 4.61624C9.22732 4.53912 9.05835 4.42609 8.91606 4.28362C8.54466 3.88029 8.09394 3.55804 7.59215 3.33709C7.09036 3.11614 6.54834 3.00125 6.00006 2.99962V2.99962Z" fill="#393A3D"/>
</svg>
