<svg width="20" height="19" viewBox="0 0 20 19" fill="none" xmlns="http://www.w3.org/2000/svg">
<path d="M18.4621 3.11143C17.9435 2.4757 17.2949 1.95838 16.5597 1.59426C15.8246 1.23013 15.02 1.02765 14.2001 1.00043C12.653 0.956897 11.1488 1.51133 10.0001 2.54843C8.85015 1.5133 7.3467 0.959168 5.80006 1.00043C4.98013 1.02765 4.17554 1.23013 3.44039 1.59426C2.70524 1.95838 2.05659 2.4757 1.53806 3.11143C0.944408 3.83205 0.50948 4.66982 0.261689 5.57C0.013899 6.47018 -0.0411774 7.41251 0.100059 8.33543C0.915059 13.8444 6.49406 17.3134 8.85506 18.5504C9.20874 18.7354 9.60194 18.832 10.0011 18.832C10.4002 18.832 10.7934 18.7354 11.1471 18.5504C13.5081 17.3144 19.0871 13.8504 19.9021 8.33643C20.0432 7.41322 19.9878 6.47061 19.7397 5.57024C19.4916 4.66988 19.0562 3.83201 18.4621 3.11143Z" fill="#EC407A"/>
</svg>
