<svg width="16" height="16" viewBox="0 0 16 16" fill="none" xmlns="http://www.w3.org/2000/svg">
<path d="M8.59118 10.7378C8.15388 10.7387 7.72072 10.6531 7.31658 10.4861C6.91243 10.3191 6.54527 10.0738 6.23618 9.76451C6.07959 9.60792 5.99162 9.39554 5.99162 9.17409C5.99162 8.95264 6.07959 8.74026 6.23618 8.58367C6.39276 8.42709 6.60514 8.33912 6.82659 8.33912C7.04804 8.33912 7.26042 8.42709 7.41701 8.58367C7.72952 8.89587 8.15319 9.07124 8.59493 9.07124C9.03666 9.07124 9.46033 8.89587 9.77284 8.58367L13.3053 5.05117C13.5966 4.73473 13.7542 4.31795 13.7453 3.88796C13.7364 3.45798 13.5617 3.04808 13.2575 2.74397C12.9534 2.43987 12.5435 2.26509 12.1136 2.25618C11.6836 2.24727 11.2668 2.40492 10.9503 2.69617L9.76368 3.87534C9.68603 3.95255 9.59394 4.0137 9.49266 4.05532C9.39138 4.09694 9.2829 4.1182 9.1734 4.11789C9.06391 4.11758 8.95554 4.0957 8.8545 4.05352C8.75346 4.01133 8.66172 3.94965 8.58451 3.87201C8.5073 3.79436 8.44615 3.70227 8.40453 3.60099C8.36291 3.49971 8.34165 3.39123 8.34196 3.28173C8.34227 3.17224 8.36415 3.06388 8.40633 2.96283C8.44852 2.86179 8.5102 2.77005 8.58784 2.69284L9.77118 1.51701C10.4016 0.918494 11.2409 0.589928 12.1101 0.601363C12.9793 0.612798 13.8096 0.96333 14.4241 1.57822C15.0385 2.19311 15.3885 3.02371 15.3993 3.89292C15.4101 4.76213 15.081 5.60118 14.482 6.23117L10.9478 9.76451C10.6385 10.0739 10.271 10.3192 9.86659 10.4862C9.46217 10.6533 9.02874 10.7388 8.59118 10.7378Z" fill="#393A3D"/>
<path d="M3.87534 15.4548C3.21703 15.4538 2.57374 15.2579 2.0266 14.8919C1.47946 14.5258 1.05297 14.0059 0.800902 13.3978C0.548838 12.7896 0.482492 12.1205 0.610231 11.4747C0.737969 10.8289 1.05407 10.2353 1.51868 9.76894L5.05284 6.23561C5.67783 5.61147 6.52499 5.26091 7.40826 5.26091C8.29153 5.26091 9.13869 5.61147 9.76368 6.23561C9.84121 6.31309 9.90273 6.40508 9.94471 6.50634C9.98669 6.60759 10.0083 6.71612 10.0084 6.82573C10.0084 6.93535 9.98685 7.04389 9.94493 7.14517C9.90302 7.24646 9.84157 7.33849 9.76409 7.41603C9.68661 7.49356 9.59462 7.55508 9.49337 7.59706C9.39211 7.63904 9.28358 7.66067 9.17397 7.66071C9.06436 7.66075 8.95581 7.6392 8.85453 7.59729C8.75325 7.55537 8.66121 7.49392 8.58368 7.41644C8.27116 7.10425 7.8475 6.92888 7.40576 6.92888C6.96402 6.92888 6.54036 7.10425 6.22784 7.41644L2.69451 10.9489C2.53037 11.1014 2.39867 11.2855 2.30727 11.49C2.21586 11.6946 2.16665 11.9155 2.16255 12.1395C2.15845 12.3635 2.19957 12.586 2.28343 12.7938C2.36729 13.0016 2.49218 13.1903 2.65064 13.3487C2.80909 13.5071 2.99785 13.6319 3.20564 13.7157C3.41343 13.7995 3.63599 13.8405 3.85999 13.8363C4.084 13.8322 4.30487 13.7829 4.5094 13.6914C4.71392 13.5999 4.8979 13.4681 5.05034 13.3039L6.23784 12.1248C6.39465 11.969 6.60694 11.8818 6.82799 11.8825C7.04905 11.8832 7.26078 11.9717 7.41659 12.1285C7.57241 12.2853 7.65955 12.4976 7.65885 12.7187C7.65814 12.9397 7.56965 13.1515 7.41284 13.3073L6.22951 14.4831C5.9203 14.7919 5.55319 15.0367 5.14922 15.2035C4.74526 15.3702 4.31237 15.4556 3.87534 15.4548Z" fill="#393A3D"/>
</svg>
