<svg width="54" height="54" viewBox="0 0 54 54" fill="none" xmlns="http://www.w3.org/2000/svg">
<path d="M54 27C54 41.9117 41.9117 54 27 54C12.0883 54 0 41.9117 0 27C0 12.0883 12.0883 0 27 0C41.9117 0 54 12.0883 54 27Z" fill="#53C27C"/>
<path d="M43.441 19.3869C44.207 18.5911 44.1828 17.325 43.3869 16.559C42.5911 15.793 41.325 15.8172 40.559 16.6131L22.75 35.116L15.441 27.5222C14.675 26.7263 13.4089 26.7021 12.6131 27.4681C11.8172 28.2341 11.793 29.5002 12.559 30.296L21.309 39.3869C21.6861 39.7787 22.2063 40 22.75 40C23.2937 40 23.8139 39.7787 24.191 39.3869L43.441 19.3869Z" fill="white"/>
</svg>
