<svg width="17" height="17" viewBox="0 0 17 17" fill="none" xmlns="http://www.w3.org/2000/svg">
<path fill-rule="evenodd" clip-rule="evenodd" d="M9.12395 14.8673C9.28805 15.0314 9.38024 15.254 9.38024 15.486C9.38093 15.6014 9.35881 15.7157 9.31514 15.8225C9.27148 15.9293 9.20714 16.0263 9.12582 16.1081C9.0445 16.1899 8.9478 16.2549 8.8413 16.2992C8.7348 16.3435 8.62058 16.3663 8.50524 16.3663L3.25524 16.3584C2.55904 16.3584 1.89136 16.0818 1.39908 15.5896C0.906798 15.0973 0.630237 14.4296 0.630237 13.7334L0.630237 13.7281L0.645112 3.22815C0.645112 2.53196 0.921674 1.86428 1.41396 1.37199C1.90624 0.879711 2.57392 0.603149 3.27011 0.603149L8.52011 0.611024C8.75218 0.611024 8.97474 0.703212 9.13883 0.867306C9.30292 1.0314 9.39511 1.25396 9.39511 1.48602C9.39511 1.71809 9.30292 1.94065 9.13883 2.10474C8.97474 2.26884 8.75218 2.36102 8.52011 2.36102L3.27011 2.35315C3.03805 2.35315 2.81549 2.44534 2.65139 2.60943C2.4873 2.77353 2.39511 2.99608 2.39511 3.22815L2.38024 13.7281C2.38024 13.9602 2.47242 14.1828 2.63652 14.3469C2.80061 14.511 3.02317 14.6031 3.25524 14.6031L8.50524 14.611C8.7373 14.611 8.95986 14.7032 9.12395 14.8673ZM13.4044 7.61976L11.4015 5.60726C11.2423 5.44201 11.1544 5.22086 11.1567 4.99143C11.159 4.762 11.2514 4.54266 11.4138 4.38065C11.5763 4.21864 11.7959 4.12693 12.0254 4.12527C12.2548 4.1236 12.4757 4.21213 12.6405 4.37176L16.1335 7.87526C16.2975 8.03935 16.3897 8.26187 16.3897 8.49389C16.3897 8.72591 16.2975 8.94843 16.1335 9.11251L12.6282 12.6125C12.5467 12.694 12.4498 12.7586 12.3433 12.8026C12.2367 12.8467 12.1225 12.8693 12.0072 12.8692C11.892 12.8691 11.7778 12.8464 11.6713 12.8022C11.5648 12.758 11.4681 12.6932 11.3866 12.6116C11.3051 12.5301 11.2405 12.4332 11.1965 12.3267C11.1525 12.2201 11.1298 12.1059 11.1299 11.9906C11.13 11.8753 11.1528 11.7612 11.197 11.6547C11.2412 11.5482 11.3059 11.4515 11.3875 11.37L13.4 9.36714L5.01662 9.35751C4.78455 9.35751 4.56199 9.26532 4.3979 9.10123C4.2338 8.93714 4.14161 8.71458 4.14161 8.48251C4.14161 8.3676 4.16425 8.25382 4.20822 8.14766C4.25219 8.0415 4.31665 7.94504 4.3979 7.86379C4.47915 7.78254 4.57561 7.71809 4.68177 7.67412C4.78793 7.63014 4.90171 7.60751 5.01662 7.60751L13.4044 7.61976Z" fill="black"/>
</svg>
