<svg width="21" height="21" viewBox="0 0 21 21" fill="none" xmlns="http://www.w3.org/2000/svg">
<path fill-rule="evenodd" clip-rule="evenodd" d="M8.87509 20.7746C9.57704 20.9233 10.2926 20.9987 11.0101 20.9996C12.8002 21.0018 14.5574 20.5179 16.0941 19.5996L18.6171 20.5486C18.8868 20.6498 19.18 20.6712 19.4616 20.6102C19.7432 20.5492 20.0012 20.4083 20.2049 20.2046C20.4085 20.0008 20.5492 19.7427 20.6101 19.4611C20.6709 19.1795 20.6494 18.8863 20.5481 18.6166L19.6001 16.0926C20.6804 14.2704 21.1551 12.1525 20.9558 10.0434C20.7564 7.93442 19.8934 5.94293 18.4908 4.35536C17.0882 2.76779 15.2182 1.66592 13.1498 1.20821C11.0814 0.750499 8.92119 0.960521 6.9797 1.80808C5.03822 2.65563 3.41553 4.09706 2.34498 5.92507C1.27442 7.75309 0.811166 9.87352 1.02182 11.9814C1.23247 14.0894 2.10618 16.0762 3.5173 17.6562C4.92843 19.2362 6.80427 20.328 8.87509 20.7746ZM7.6612 3.72762C8.70874 3.2473 9.84768 2.99897 11.0001 2.99962C11.4022 2.99875 11.8038 3.02615 12.2021 3.08162C13.7994 3.33202 15.2844 4.05725 16.464 5.16299C17.6435 6.26873 18.4631 7.70382 18.8161 9.28162C19.0458 10.3298 19.0615 11.4135 18.8624 12.4678C18.6632 13.5222 18.2533 14.5255 17.6571 15.4176C17.5687 15.5497 17.513 15.701 17.4948 15.8589C17.4765 16.0168 17.4962 16.1768 17.5521 16.3256L18.2871 18.2836L16.3301 17.5466C16.1812 17.4918 16.0215 17.4728 15.8639 17.4913C15.7063 17.5097 15.5553 17.565 15.4231 17.6526C14.3042 18.399 13.015 18.8509 11.675 18.9665C10.3349 19.0821 8.9874 18.8576 7.7572 18.3138C6.52701 17.7701 5.45394 16.9247 4.63741 15.8559C3.82088 14.7871 3.28729 13.5295 3.08609 12.1996C2.91323 11.0603 2.98856 9.89699 3.30694 8.78944C3.62532 7.68189 4.17922 6.65619 4.93075 5.78255C5.68227 4.90891 6.61367 4.20794 7.6612 3.72762ZM8.00001 11C8.00001 11.5523 7.55229 12 7.00001 12C6.44772 12 6.00001 11.5523 6.00001 11C6.00001 10.4477 6.44772 9.99999 7.00001 9.99999C7.55229 9.99999 8.00001 10.4477 8.00001 11ZM11 12C11.5523 12 12 11.5523 12 11C12 10.4477 11.5523 9.99999 11 9.99999C10.4477 9.99999 10 10.4477 10 11C10 11.5523 10.4477 12 11 12ZM16 11C16 11.5523 15.5523 12 15 12C14.4477 12 14 11.5523 14 11C14 10.4477 14.4477 9.99999 15 9.99999C15.5523 9.99999 16 10.4477 16 11Z" fill="white"/>
</svg>
