<svg width="104" height="15" viewBox="0 0 104 15" fill="none" xmlns="http://www.w3.org/2000/svg">
<path d="M0.321023 0.590909H1.89773L5.60511 9.64631H5.73295L9.44034 0.590909H11.017V11.5H9.78125V3.21165H9.67472L6.26562 11.5H5.07244L1.66335 3.21165H1.55682V11.5H0.321023V0.590909ZM16.8192 11.6705C16.0805 11.6705 15.4324 11.4947 14.8749 11.1431C14.3209 10.7915 13.8877 10.2997 13.5752 9.66761C13.2662 9.03551 13.1118 8.29687 13.1118 7.4517C13.1118 6.59943 13.2662 5.85547 13.5752 5.21982C13.8877 4.58416 14.3209 4.09055 14.8749 3.73899C15.4324 3.38743 16.0805 3.21165 16.8192 3.21165C17.5578 3.21165 18.2041 3.38743 18.7581 3.73899C19.3156 4.09055 19.7488 4.58416 20.0578 5.21982C20.3703 5.85547 20.5265 6.59943 20.5265 7.4517C20.5265 8.29687 20.3703 9.03551 20.0578 9.66761C19.7488 10.2997 19.3156 10.7915 18.7581 11.1431C18.2041 11.4947 17.5578 11.6705 16.8192 11.6705ZM16.8192 10.5412C17.3802 10.5412 17.8419 10.3974 18.2041 10.1097C18.5663 9.82209 18.8344 9.44389 19.0084 8.97514C19.1824 8.50639 19.2694 7.99858 19.2694 7.4517C19.2694 6.90483 19.1824 6.39524 19.0084 5.92294C18.8344 5.45064 18.5663 5.06889 18.2041 4.7777C17.8419 4.48651 17.3802 4.34091 16.8192 4.34091C16.2581 4.34091 15.7964 4.48651 15.4342 4.7777C15.072 5.06889 14.8039 5.45064 14.6299 5.92294C14.4559 6.39524 14.3689 6.90483 14.3689 7.4517C14.3689 7.99858 14.4559 8.50639 14.6299 8.97514C14.8039 9.44389 15.072 9.82209 15.4342 10.1097C15.7964 10.3974 16.2581 10.5412 16.8192 10.5412ZM26.0037 3.31818V4.38352H21.7637V3.31818H26.0037ZM22.9995 1.35795H24.2566V9.15625C24.2566 9.51136 24.3081 9.7777 24.411 9.95526C24.5176 10.1293 24.6525 10.2464 24.8159 10.3068C24.9828 10.3636 25.1586 10.392 25.3432 10.392C25.4817 10.392 25.5953 10.3849 25.6841 10.3707C25.7729 10.353 25.8439 10.3388 25.8972 10.3281L26.1529 11.4574C26.0676 11.4893 25.9487 11.5213 25.796 11.5533C25.6433 11.5888 25.4498 11.6065 25.2154 11.6065C24.8603 11.6065 24.5123 11.5302 24.1713 11.3775C23.834 11.2248 23.5534 10.9922 23.3297 10.6797C23.1096 10.3672 22.9995 9.97301 22.9995 9.49716V1.35795ZM27.8947 11.5V3.31818H29.1518V11.5H27.8947ZM28.5339 1.95455C28.2889 1.95455 28.0776 1.87109 27.9 1.70419C27.726 1.53729 27.639 1.33665 27.639 1.10227C27.639 0.867898 27.726 0.667258 27.9 0.500355C28.0776 0.333452 28.2889 0.25 28.5339 0.25C28.7789 0.25 28.9885 0.333452 29.1625 0.500355C29.34 0.667258 29.4288 0.867898 29.4288 1.10227C29.4288 1.33665 29.34 1.53729 29.1625 1.70419C28.9885 1.87109 28.7789 1.95455 28.5339 1.95455ZM34.7781 11.6705C34.0395 11.6705 33.3914 11.4947 32.8339 11.1431C32.2799 10.7915 31.8467 10.2997 31.5342 9.66761C31.2252 9.03551 31.0708 8.29687 31.0708 7.4517C31.0708 6.59943 31.2252 5.85547 31.5342 5.21982C31.8467 4.58416 32.2799 4.09055 32.8339 3.73899C33.3914 3.38743 34.0395 3.21165 34.7781 3.21165C35.5168 3.21165 36.1631 3.38743 36.7171 3.73899C37.2746 4.09055 37.7078 4.58416 38.0168 5.21982C38.3293 5.85547 38.4855 6.59943 38.4855 7.4517C38.4855 8.29687 38.3293 9.03551 38.0168 9.66761C37.7078 10.2997 37.2746 10.7915 36.7171 11.1431C36.1631 11.4947 35.5168 11.6705 34.7781 11.6705ZM34.7781 10.5412C35.3392 10.5412 35.8009 10.3974 36.1631 10.1097C36.5253 9.82209 36.7934 9.44389 36.9674 8.97514C37.1414 8.50639 37.2284 7.99858 37.2284 7.4517C37.2284 6.90483 37.1414 6.39524 36.9674 5.92294C36.7934 5.45064 36.5253 5.06889 36.1631 4.7777C35.8009 4.48651 35.3392 4.34091 34.7781 4.34091C34.2171 4.34091 33.7554 4.48651 33.3932 4.7777C33.031 5.06889 32.7629 5.45064 32.5889 5.92294C32.4149 6.39524 32.3279 6.90483 32.3279 7.4517C32.3279 7.99858 32.4149 8.50639 32.5889 8.97514C32.7629 9.44389 33.031 9.82209 33.3932 10.1097C33.7554 10.3974 34.2171 10.5412 34.7781 10.5412ZM41.6616 6.57812V11.5H40.4045V3.31818H41.619V4.59659H41.7255C41.9173 4.18111 42.2085 3.8473 42.5991 3.59517C42.9897 3.33949 43.494 3.21165 44.1119 3.21165C44.6658 3.21165 45.1506 3.32528 45.5661 3.55256C45.9815 3.77628 46.3047 4.11719 46.5355 4.57528C46.7663 5.02983 46.8817 5.60511 46.8817 6.30114V11.5H45.6246V6.38636C45.6246 5.74361 45.4577 5.2429 45.1239 4.88423C44.7901 4.52202 44.332 4.34091 43.7496 4.34091C43.3484 4.34091 42.9897 4.42791 42.6737 4.60192C42.3612 4.77592 42.1143 5.02983 41.9332 5.36364C41.7521 5.69744 41.6616 6.10227 41.6616 6.57812ZM56.6597 4.19176C56.6135 4.00355 56.5407 3.83842 56.4413 3.69638C56.3419 3.55078 56.2176 3.42827 56.0684 3.32884C55.9229 3.22585 55.7524 3.1495 55.5571 3.09979C55.3653 3.04652 55.154 3.01989 54.9232 3.01989C54.426 3.01989 54.0017 3.13885 53.6501 3.37678C53.3021 3.6147 53.0358 3.95739 52.8511 4.40483C52.67 4.85227 52.5795 5.39205 52.5795 6.02415C52.5795 6.66335 52.6665 7.21023 52.8405 7.66477C53.0145 8.11932 53.2737 8.46733 53.6182 8.70881C53.9626 8.95028 54.3905 9.07102 54.9019 9.07102C55.3529 9.07102 55.7275 9.00533 56.0258 8.87393C56.3277 8.74254 56.5532 8.55611 56.7023 8.31463C56.8515 8.07315 56.926 7.78906 56.926 7.46236L57.4374 7.51562H54.9445V5.40625H59.7812V6.91903C59.7812 7.91335 59.5699 8.76385 59.1473 9.47053C58.7282 10.1737 58.1494 10.7134 57.4108 11.0898C56.6757 11.4627 55.8323 11.6491 54.8806 11.6491C53.8188 11.6491 52.8866 11.4237 52.0841 10.9727C51.2815 10.5217 50.6547 9.87891 50.2037 9.04439C49.7563 8.20987 49.5326 7.21733 49.5326 6.06676C49.5326 5.16477 49.6693 4.36577 49.9427 3.66974C50.2197 2.97372 50.6032 2.38601 51.0933 1.9066C51.5834 1.42365 52.1498 1.05966 52.7925 0.81463C53.4353 0.566051 54.1242 0.441761 54.8593 0.441761C55.5056 0.441761 56.1057 0.534091 56.6597 0.71875C57.2172 0.899858 57.7091 1.15909 58.1352 1.49645C58.5649 1.83026 58.9111 2.22621 59.1739 2.6843C59.4367 3.1424 59.5965 3.64489 59.6533 4.19176H56.6597ZM63.4846 11.6278C62.9625 11.6278 62.5009 11.5426 62.0996 11.3722C61.7019 11.1982 61.3894 10.9354 61.1621 10.5838C60.9348 10.2322 60.8212 9.7848 60.8212 9.24148C60.8212 8.79403 60.8975 8.41229 61.0502 8.09624C61.2029 7.77663 61.416 7.51562 61.6895 7.31321C61.9629 7.1108 62.2807 6.95632 62.6429 6.84979C63.0087 6.74325 63.4029 6.67401 63.8255 6.64205C64.2836 6.60653 64.6511 6.56392 64.9281 6.5142C65.2086 6.46094 65.411 6.38814 65.5353 6.29581C65.6596 6.19993 65.7218 6.07386 65.7218 5.91761V5.89631C65.7218 5.68324 65.6401 5.51989 65.4767 5.40625C65.3134 5.29261 65.1039 5.2358 64.8482 5.2358C64.5676 5.2358 64.3386 5.29794 64.161 5.42223C63.987 5.54297 63.8823 5.7294 63.8468 5.98153H61.1408C61.1763 5.48437 61.3343 5.02628 61.6149 4.60724C61.899 4.18466 62.3127 3.8473 62.856 3.59517C63.3993 3.33949 64.0776 3.21165 64.8908 3.21165C65.4767 3.21165 66.0023 3.28089 66.4675 3.41939C66.9327 3.55433 67.3287 3.74432 67.6554 3.98935C67.9821 4.23082 68.2306 4.51491 68.4011 4.84162C68.5751 5.16477 68.6621 5.51634 68.6621 5.89631V11.5H65.9135V10.3494H65.8496C65.6863 10.6548 65.4874 10.9016 65.253 11.0898C65.0222 11.2781 64.7576 11.4148 64.4593 11.5C64.1646 11.5852 63.8397 11.6278 63.4846 11.6278ZM64.4434 9.77415C64.6671 9.77415 64.8766 9.72798 65.0719 9.63565C65.2708 9.54332 65.4324 9.41016 65.5566 9.23615C65.6809 9.06214 65.7431 8.85085 65.7431 8.60227V7.92045C65.665 7.95241 65.5815 7.9826 65.4927 8.01101C65.4075 8.03942 65.3152 8.06605 65.2157 8.09091C65.1199 8.11577 65.0169 8.13885 64.9068 8.16016C64.8002 8.18146 64.6884 8.20099 64.5712 8.21875C64.3439 8.25426 64.1575 8.31286 64.0119 8.39453C63.8699 8.47266 63.7633 8.57031 63.6923 8.6875C63.6248 8.80114 63.5911 8.92898 63.5911 9.07102C63.5911 9.2983 63.671 9.4723 63.8308 9.59304C63.9906 9.71378 64.1948 9.77415 64.4434 9.77415ZM73.0074 0.590909V11.5H70.067V0.590909H73.0074ZM77.4458 0.590909V11.5H74.5055V0.590909H77.4458ZM82.8644 11.6491C81.9909 11.6491 81.238 11.4822 80.6059 11.1484C79.9774 10.8111 79.4926 10.3281 79.1517 9.69957C78.8144 9.06747 78.6457 8.31108 78.6457 7.4304C78.6457 6.58523 78.8161 5.84659 79.157 5.21449C79.498 4.58239 79.9791 4.09055 80.6006 3.73899C81.222 3.38743 81.9553 3.21165 82.8005 3.21165C83.4184 3.21165 83.9777 3.30753 84.4784 3.49929C84.9791 3.69105 85.407 3.96982 85.7622 4.33558C86.1173 4.6978 86.3907 5.13814 86.5825 5.65661C86.7742 6.17507 86.8701 6.75923 86.8701 7.40909V8.09091H79.5619V6.47159H84.1642C84.1606 6.23722 84.1002 6.03125 83.983 5.85369C83.8694 5.67259 83.7149 5.53232 83.5196 5.43288C83.3279 5.3299 83.1095 5.27841 82.8644 5.27841C82.6265 5.27841 82.4081 5.3299 82.2093 5.43288C82.0104 5.53232 81.8506 5.67081 81.7298 5.84837C81.6127 6.02592 81.5505 6.23366 81.5434 6.47159V8.21875C81.5434 8.48153 81.5985 8.71591 81.7085 8.92188C81.8186 9.12784 81.9767 9.28942 82.1826 9.40661C82.3886 9.52379 82.6372 9.58239 82.9284 9.58239C83.1308 9.58239 83.3154 9.55398 83.4823 9.49716C83.6528 9.44034 83.7984 9.35866 83.9191 9.25213C84.0399 9.14205 84.1286 9.01065 84.1855 8.85795H86.8701C86.7778 9.42614 86.5594 9.91974 86.2149 10.3388C85.8705 10.7543 85.4142 11.0774 84.846 11.3082C84.2813 11.5355 83.6208 11.6491 82.8644 11.6491ZM88.07 11.5V3.31818H90.9251V4.87358H91.0103C91.1594 4.2983 91.3956 3.87749 91.7188 3.61115C92.0455 3.34482 92.4272 3.21165 92.864 3.21165C92.9918 3.21165 93.1179 3.2223 93.2422 3.24361C93.37 3.26136 93.4925 3.288 93.6097 3.32351V5.83239C93.4641 5.78267 93.2848 5.74538 93.0717 5.72053C92.8587 5.69567 92.6758 5.68324 92.5231 5.68324C92.2354 5.68324 91.9762 5.74893 91.7454 5.88033C91.5181 6.00817 91.3388 6.18928 91.2074 6.42365C91.076 6.65447 91.0103 6.92614 91.0103 7.23864V11.5H88.07ZM96.6127 14.5682C96.2753 14.5682 95.9539 14.5415 95.6485 14.4883C95.3431 14.4386 95.075 14.3693 94.8442 14.2805L95.4834 12.1925C95.7249 12.2777 95.945 12.3327 96.1439 12.3576C96.3463 12.3825 96.5186 12.3683 96.6606 12.315C96.8062 12.2617 96.911 12.1605 96.9749 12.0114L97.0388 11.8622L94.1624 3.31818H97.2306L98.5516 8.9858H98.6368L99.9791 3.31818H103.069L100.086 12.1818C99.9365 12.6328 99.7199 13.0376 99.4358 13.3963C99.1553 13.7585 98.786 14.0444 98.3279 14.2539C97.8698 14.4634 97.298 14.5682 96.6127 14.5682Z" fill="black"/>
</svg>
