<svg width="16" height="16" viewBox="0 0 16 16" fill="none" xmlns="http://www.w3.org/2000/svg">
<path d="M15.6712 14.5826L11.4041 10.3155C12.4053 9.03736 12.8816 7.4256 12.736 5.80853C12.5903 4.19147 11.8338 2.69073 10.6203 1.61199C9.40688 0.533254 7.82786 -0.0423466 6.20487 0.00242933C4.58187 0.0472053 3.03699 0.708989 1.88488 1.85299C0.732763 2.99699 0.0600779 4.53716 0.00383338 6.15979C-0.0524112 7.78243 0.512016 9.36548 1.58215 10.5865C2.65229 11.8075 4.14764 12.5747 5.76364 12.7317C7.37963 12.8888 8.99472 12.4239 10.2799 11.4318L14.547 15.7068C14.6206 15.781 14.7082 15.8399 14.8046 15.8801C14.9011 15.9203 15.0046 15.941 15.1091 15.941C15.2136 15.941 15.3171 15.9203 15.4136 15.8801C15.51 15.8399 15.5976 15.781 15.6712 15.7068C15.7454 15.6332 15.8043 15.5456 15.8445 15.4492C15.8847 15.3527 15.9054 15.2492 15.9054 15.1447C15.9054 15.0402 15.8847 14.9367 15.8445 14.8402C15.8043 14.7438 15.7454 14.6562 15.6712 14.5826V14.5826ZM3.0441 9.78512C2.38033 9.12061 1.92846 8.27423 1.74561 7.35296C1.56276 6.4317 1.65713 5.4769 2.01681 4.60926C2.37648 3.74162 2.9853 3.00008 3.76632 2.47838C4.54734 1.95668 5.46549 1.67823 6.40473 1.67823C7.34396 1.67823 8.26212 1.95668 9.04314 2.47838C9.82416 3.00008 10.433 3.74162 10.7926 4.60926C11.1523 5.4769 11.2467 6.4317 11.0638 7.35296C10.881 8.27423 10.4291 9.12061 9.76535 9.78512C9.3242 10.2268 8.80034 10.5771 8.22369 10.8162C7.64705 11.0552 7.02895 11.1782 6.40473 11.1782C5.7805 11.1782 5.1624 11.0552 4.58576 10.8162C4.00912 10.5771 3.48525 10.2268 3.0441 9.78512V9.78512Z" fill="#D4D7DC"/>
</svg>
