<?xml version="1.0" encoding="utf-8"?>
<!-- Generator: Adobe Illustrator 26.3.1, SVG Export Plug-In . SVG Version: 6.00 Build 0)  -->
<svg version="1.1" id="Layer_1" xmlns="http://www.w3.org/2000/svg" xmlns:xlink="http://www.w3.org/1999/xlink" x="0px" y="0px"
	 viewBox="0 0 1204.15 1204.15" style="enable-background:new 0 0 1204.15 1204.15;" xml:space="preserve">
<g>
	<path d="M397.64,1032.99c-26.7,0-52.83-10.95-71.67-30.03c-11.81-11.96-20.32-26.35-25.08-42.04H59.72c-16.57,0-30-13.43-30-30
		c0-16.57,13.43-30,30-30h241.21c12.73-41.69,51.27-72.07,96.71-72.07c26.7,0,52.83,10.95,71.67,30.03
		c11.81,11.96,20.32,26.35,25.08,42.04l650.03,0c16.57,0,30,13.43,30,30s-13.43,30-30,30l-650.03,0
		c-4.76,15.7-13.27,30.09-25.08,42.04C450.47,1022.04,424.35,1032.99,397.64,1032.99z M397.64,888.84
		c-22.7,0-41.17,18.87-41.17,42.07c0,11.15,4.44,22.04,12.19,29.89c7.76,7.86,18.05,12.19,28.98,12.19s21.22-4.33,28.98-12.19
		c7.75-7.85,12.19-18.74,12.19-29.89s-4.44-22.04-12.19-29.89C418.86,893.17,408.57,888.84,397.64,888.84z M866.19,704.15
		c-26.7,0-52.83-10.95-71.67-30.03c-12.93-13.09-21.91-29.1-26.33-46.55H59.69c-16.57,0-30-13.43-30-30c0-16.57,13.43-30,30-30
		h711.22c4.95-13.95,12.93-26.74,23.6-37.54c18.85-19.08,44.97-30.03,71.67-30.03c26.7,0,52.83,10.95,71.67,30.03
		c10.67,10.8,18.65,23.59,23.6,37.54h183c16.57,0,30,13.43,30,30c0,16.57-13.43,30-30,30H964.19
		c-4.43,17.45-13.41,33.46-26.33,46.55C919.01,693.2,892.89,704.15,866.19,704.15z M866.19,560c-10.93,0-21.22,4.33-28.98,12.19
		c-7.75,7.85-12.19,18.74-12.19,29.89s4.44,22.04,12.19,29.89c7.76,7.86,18.05,12.19,28.98,12.19s21.22-4.33,28.98-12.19
		c7.75-7.85,12.19-18.74,12.19-29.89s-4.44-22.04-12.19-29.89C887.41,564.33,877.11,560,866.19,560z M416.39,375.31
		c-26.7,0-52.83-10.95-71.67-30.03c-11.81-11.96-20.32-26.34-25.08-42.04H59.69c-16.57,0-30-13.43-30-30s13.43-30,30-30h259.98
		c12.73-41.69,51.27-72.07,96.71-72.07s83.98,30.39,96.71,72.07h631.36c16.57,0,30,13.43,30,30s-13.43,30-30,30H513.14
		c-4.76,15.7-13.27,30.09-25.08,42.04C469.21,364.36,443.09,375.31,416.39,375.31z M416.39,231.16c-22.7,0-41.17,18.87-41.17,42.07
		c0,11.15,4.44,22.04,12.19,29.89c7.76,7.86,18.05,12.19,28.98,12.19s21.22-4.33,28.98-12.19c7.75-7.85,12.19-18.74,12.19-29.89
		C457.56,250.04,439.09,231.16,416.39,231.16z"/>
</g>
</svg>
