<svg width="21" height="23" viewBox="0 0 21 23" fill="none" xmlns="http://www.w3.org/2000/svg">
<path d="M19.011 4.013L14.011 4.006V2.006C14.011 1.47557 13.8003 0.966859 13.4252 0.591786C13.0501 0.216714 12.5414 0.00600004 12.011 0.00600004L8.01099 0C7.48055 0 6.97185 0.210714 6.59677 0.585786C6.2217 0.960859 6.01099 1.46957 6.01099 2V4H1.01099C0.74577 4 0.491416 4.10536 0.30388 4.29289C0.116343 4.48043 0.0109863 4.73478 0.0109863 5C0.0109863 5.26522 0.116343 5.51957 0.30388 5.70711C0.491416 5.89464 0.74577 6 1.01099 6H2.01099L1.99199 19C1.99199 19.7948 2.30737 20.5571 2.8689 21.1196C3.43043 21.682 4.1922 21.9987 4.98699 22L14.987 22.016C15.7826 22.016 16.5457 21.6999 17.1083 21.1373C17.6709 20.5747 17.987 19.8116 17.987 19.016L18.006 6.016H19.006C19.2712 6.016 19.5256 5.91064 19.7131 5.72311C19.9006 5.53557 20.006 5.28122 20.006 5.016C20.006 4.75078 19.9006 4.49643 19.7131 4.30889C19.5256 4.12136 19.2712 4.016 19.006 4.016L19.011 4.013ZM8.01299 2L12.013 2.006V4.006H8.01299V2ZM15.988 19.012C15.988 19.2772 15.8826 19.5316 15.6951 19.7191C15.5076 19.9066 15.2532 20.012 14.988 20.012L4.98799 19.996C4.72277 19.996 4.46842 19.8906 4.28088 19.7031C4.09334 19.5156 3.98799 19.2612 3.98799 18.996L4.00699 5.996L10.007 6.005H16.007L15.988 19.012Z" fill="white"/>
<path d="M13 8.005C12.7348 8.005 12.4804 8.11036 12.2929 8.29789C12.1053 8.48543 12 8.73978 12 9.005L11.988 17.005C11.988 17.2702 12.0933 17.5246 12.2809 17.7121C12.4684 17.8996 12.7228 18.005 12.988 18.005C13.2532 18.005 13.5076 17.8996 13.6951 17.7121C13.8826 17.5246 13.988 17.2702 13.988 17.005L14 9.005C14 8.73978 13.8946 8.48543 13.7071 8.29789C13.5196 8.11036 13.2652 8.005 13 8.005Z" fill="white"/>
</svg>
