<svg width="32" height="30" viewBox="0 0 32 30" fill="none" xmlns="http://www.w3.org/2000/svg">
<path d="M19.6364 2.99999C16.9648 2.99999 14.6639 4.6507 13.6465 7.02326L13.0817 8.34055L11.7824 7.81192C11.2888 7.61106 10.7496 7.49998 10.1818 7.49998C7.77185 7.49998 5.81818 9.5147 5.81818 12C5.81818 12.4396 5.8789 12.8621 5.99122 13.2602L6.39737 14.6997L5.00172 15.1193C3.79121 15.4833 2.90909 16.6373 2.90909 18C2.90909 19.6568 4.21154 21 5.81818 21H11.6364V23.9999H5.81818C2.60489 23.9999 0 21.3137 0 18C0 15.7612 1.1882 13.8112 2.94808 12.7801C2.92229 12.5234 2.90909 12.2631 2.90909 12C2.90909 7.85785 6.1652 4.49999 10.1818 4.49999C10.6605 4.49999 11.1293 4.54788 11.5835 4.63944C13.2471 1.85744 16.2301 0 19.6364 0C24.858 0 29.0909 4.36521 29.0909 9.74998C29.0909 10.3576 29.0368 10.9532 28.9332 11.5315C30.7743 12.725 32 14.8386 32 17.25C32 20.9779 29.0695 23.9999 25.4545 23.9999H20.3636V21H25.4545C27.4629 21 29.0909 19.321 29.0909 17.25C29.0909 15.6432 28.1103 14.2689 26.7278 13.7358L25.4186 13.2311L25.8555 11.8619C26.0669 11.1995 26.1818 10.4901 26.1818 9.74998C26.1818 6.02206 23.2513 2.99999 19.6364 2.99999Z" fill="#A2D5FF"/>
<path d="M9.22399 16.1211L11.1396 18.3789L14.8478 15.0328L14.5455 30H17.4545L17.1522 15.0328L20.8604 18.3789L22.776 16.1211L16 10.0069L9.22399 16.1211Z" fill="#A2D5FF"/>
</svg>
