<svg width="22" height="19" viewBox="0 0 22 19" fill="none" xmlns="http://www.w3.org/2000/svg">
<path fill-rule="evenodd" clip-rule="evenodd" d="M12.8088 1.58833C14.3512 2.27029 15.5945 3.48762 16.309 5.01527C17.8521 5.12135 19.2947 5.81928 20.3356 6.96342C21.3765 8.10757 21.9354 9.6095 21.8955 11.1558C21.8556 12.7021 21.2202 14.1732 20.1217 15.2622C19.0232 16.3512 17.5465 16.9739 16 17.0003C15.7348 17.0003 15.4804 16.8949 15.2929 16.7074C15.1053 16.5198 15 16.2655 15 16.0003C15 15.7351 15.1053 15.4807 15.2929 15.2932C15.4804 15.1056 15.7348 15.0003 16 15.0003C17.0608 15.0003 18.0783 14.5788 18.8284 13.8287C19.5785 13.0786 20 12.0611 20 11.0003C20 9.9394 19.5785 8.92199 18.8284 8.17184C18.0783 7.4217 17.0608 7.00027 16 7.00027C15.3878 6.99712 14.7832 7.1361 14.2338 7.40628C13.6844 7.67646 13.2052 8.07046 12.834 8.55727C12.6696 8.758 12.4337 8.887 12.176 8.91702C11.9183 8.94705 11.659 8.87575 11.4529 8.71819C11.2468 8.56062 11.11 8.32912 11.0714 8.07258C11.0328 7.81603 11.0954 7.55452 11.246 7.34327C11.9883 6.3704 13.0141 5.65172 14.182 5.28627C13.5977 4.3801 12.7356 3.68759 11.7248 3.31245C10.7139 2.93732 9.60878 2.89975 8.5748 3.20537C7.54082 3.51099 6.63368 4.14335 5.98923 5.00775C5.34478 5.87216 4.9977 6.92207 4.99997 8.00027C5.00401 8.40248 5.05844 8.8026 5.16197 9.19127C5.78949 9.37623 6.36148 9.71359 6.82697 10.1733C7.00913 10.3619 7.10992 10.6145 7.10765 10.8767C7.10537 11.1389 7.0002 11.3897 6.81479 11.5751C6.62938 11.7605 6.37857 11.8657 6.11637 11.8679C5.85418 11.8702 5.60157 11.7694 5.41297 11.5873C5.18048 11.3544 4.89411 11.1825 4.57926 11.0867C4.26441 10.991 3.93081 10.9745 3.60803 11.0386C3.28526 11.1027 2.98328 11.2454 2.72889 11.4541C2.47449 11.6629 2.27553 11.9312 2.14965 12.2352C2.02377 12.5393 1.97487 12.8697 2.00726 13.1972C2.03966 13.5247 2.15237 13.8391 2.33538 14.1126C2.5184 14.3861 2.76607 14.6102 3.05644 14.765C3.3468 14.9199 3.67089 15.0007 3.99997 15.0003H5.99997C6.26519 15.0003 6.51954 15.1056 6.70708 15.2932C6.89461 15.4807 6.99997 15.7351 6.99997 16.0003C6.99997 16.2655 6.89461 16.5198 6.70708 16.7074C6.51954 16.8949 6.26519 17.0003 5.99997 17.0003H3.99997C3.02441 16.9907 2.08597 16.625 1.36125 15.9718C0.636524 15.3187 0.175485 14.4232 0.064888 13.4539C-0.0457086 12.4846 0.201763 11.5083 0.760734 10.7087C1.31971 9.90907 2.15164 9.34133 3.09997 9.11227C2.82452 7.44847 3.16076 5.7412 4.04653 4.3061C4.9323 2.87099 6.3077 1.80511 7.91845 1.30551C9.5292 0.805912 11.2664 0.906377 12.8088 1.58833ZM11 11C11.2651 11 11.5194 11.1053 11.707 11.2928L13.7069 13.2928C13.8891 13.4814 13.9899 13.734 13.9876 13.9962C13.9853 14.2584 13.8802 14.5092 13.6948 14.6946C13.5094 14.88 13.2585 14.9852 12.9964 14.9875C12.7342 14.9897 12.4816 14.889 12.2929 14.7068L12 14.4138V17.9998C12 18.265 11.8946 18.5194 11.7071 18.7069C11.5195 18.8944 11.2652 18.9998 11 18.9998C10.7347 18.9998 10.4804 18.8944 10.2928 18.7069C10.1053 18.5194 9.99995 18.265 9.99995 17.9998V14.4138L9.70695 14.7068C9.51835 14.889 9.26575 14.9897 9.00355 14.9875C8.74135 14.9852 8.49054 14.88 8.30513 14.6946C8.11972 14.5092 8.01455 14.2584 8.01228 13.9962C8.01 13.734 8.11079 13.4814 8.29295 13.2928L10.293 11.2928C10.4805 11.1053 10.7348 11 11 11Z" fill="white"/>
</svg>
