<svg width="20" height="20" viewBox="0 0 20 20" fill="none" xmlns="http://www.w3.org/2000/svg">
<path d="M10 6.66683C9.34077 6.66683 8.6963 6.86233 8.14814 7.2286C7.59998 7.59487 7.17273 8.11546 6.92044 8.72455C6.66815 9.33364 6.60214 10.0039 6.73076 10.6505C6.85937 11.2971 7.17684 11.891 7.64302 12.3572C8.10919 12.8234 8.70314 13.1408 9.34974 13.2694C9.99634 13.3981 10.6666 13.3321 11.2757 13.0798C11.8847 12.8275 12.4053 12.4002 12.7716 11.8521C13.1379 11.3039 13.3334 10.6594 13.3334 10.0002C13.3334 9.11611 12.9822 8.26826 12.3571 7.64314C11.7319 7.01802 10.8841 6.66683 10 6.66683ZM10 11.6668C9.67041 11.6668 9.34817 11.5691 9.07409 11.3859C8.80001 11.2028 8.58639 10.9425 8.46024 10.638C8.3341 10.3334 8.30109 9.99831 8.3654 9.67501C8.42971 9.35171 8.58844 9.05474 8.82153 8.82165C9.05462 8.58856 9.35159 8.42983 9.67489 8.36552C9.99819 8.30121 10.3333 8.33422 10.6378 8.46036C10.9424 8.58651 11.2027 8.80013 11.3858 9.07421C11.569 9.34829 11.6667 9.67053 11.6667 10.0002C11.6667 10.4422 11.4911 10.8661 11.1786 11.1787C10.866 11.4912 10.4421 11.6668 10 11.6668Z" fill="#393A3D"/>
<path d="M18.2867 9.72649C17.6521 8.05513 16.5138 6.6223 15.0292 5.62622C13.5447 4.63013 11.7872 4.12003 10.0001 4.16649C8.2129 4.12003 6.45546 4.63013 4.97089 5.62622C3.48632 6.6223 2.34799 8.05513 1.7134 9.72649C1.65087 9.90335 1.65087 10.0963 1.7134 10.2732C2.34799 11.9445 3.48632 13.3773 4.97089 14.3734C6.45546 15.3695 8.2129 15.8796 10.0001 15.8332C11.7872 15.8796 13.5447 15.3695 15.0292 14.3734C16.5138 13.3773 17.6521 11.9445 18.2867 10.2732C18.3493 10.0963 18.3493 9.90335 18.2867 9.72649ZM10.0001 14.1665C8.60875 14.2079 7.23667 13.8337 6.05912 13.0915C4.88157 12.3493 3.95202 11.2729 3.38923 9.99982C3.95202 8.72674 4.88157 7.65034 6.05912 6.90815C7.23667 6.16597 8.60875 5.79169 10.0001 5.83315C11.3914 5.79169 12.7635 6.16597 13.941 6.90815C15.1186 7.65034 16.0481 8.72674 16.6109 9.99982C16.0481 11.2729 15.1186 12.3493 13.941 13.0915C12.7635 13.8337 11.3914 14.2079 10.0001 14.1665Z" fill="#393A3D"/>
</svg>
