<svg width="24" height="14" viewBox="0 0 24 14" fill="none" xmlns="http://www.w3.org/2000/svg">
<path d="M15 7C15 8.65685 13.6569 10 12 10C10.3431 10 9 8.65685 9 7C9 5.34315 10.3431 4 12 4C13.6569 4 15 5.34315 15 7Z" fill="#241C15"/>
<path fill-rule="evenodd" clip-rule="evenodd" d="M12 14C18.4937 14 22.2536 9.6619 23.8 7.6C24.0667 7.24444 24.0667 6.75556 23.8 6.4C22.2536 4.3381 18.4937 0 12 0C5.50629 0 1.74643 4.3381 0.2 6.4C-0.0666667 6.75556 -0.0666667 7.24444 0.2 7.6C1.74643 9.6619 5.50629 14 12 14ZM18.2376 3.81991C19.7868 4.80662 20.938 6.02087 21.7324 7C20.938 7.97913 19.7868 9.19338 18.2376 10.1801C18.7251 9.22588 19 8.14505 19 7C19 5.85495 18.7251 4.77412 18.2376 3.81991ZM12 2C9.23858 2 7 4.23858 7 7C7 9.76142 9.23858 12 12 12C14.7614 12 17 9.76142 17 7C17 4.23858 14.7614 2 12 2ZM2.26758 7C3.062 7.97913 4.2132 9.19338 5.76238 10.1801C5.27493 9.22588 5 8.14505 5 7C5 5.85495 5.27493 4.77412 5.76238 3.81991C4.2132 4.80662 3.062 6.02087 2.26758 7Z" fill="#241C15"/>
</svg>
