<svg width="1200" height="675" viewBox="0 0 1200 675" fill="none" xmlns="http://www.w3.org/2000/svg">
<g clip-path="url(#clip0_3_1287)">
<rect width="1184" height="666" rx="12" fill="#F4F4EF"/>
<path fill-rule="evenodd" clip-rule="evenodd" d="M30.8799 185.838C6.34528 171.041 -19.9287 171.04 -44.4835 185.839L-51 145.018C-22.203 127.662 8.61514 127.66 37.3973 145.018C37.3975 145.018 37.397 145.017 37.3973 145.018C37.398 145.018 37.3995 145.019 37.4003 145.019L69.2608 164.216C93.8156 179.015 120.091 179.015 144.625 164.218L144.628 164.216L176.491 145.018C176.491 145.018 176.49 145.018 176.491 145.018C205.287 127.662 236.106 127.66 264.888 145.018C264.889 145.018 264.89 145.019 264.891 145.019L296.751 164.216C321.306 179.015 347.581 179.015 372.116 164.218L372.119 164.216L403.981 145.018C403.982 145.018 403.981 145.018 403.981 145.018C432.778 127.662 463.597 127.66 492.379 145.018C492.38 145.018 492.381 145.019 492.382 145.019L524.242 164.216C548.797 179.015 575.072 179.015 599.607 164.218L599.61 164.216L631.472 145.018C631.472 145.018 631.472 145.018 631.472 145.018C660.27 127.662 691.09 127.66 719.872 145.019L713.352 185.838C688.817 171.041 662.543 171.04 637.989 185.839L606.127 205.036C606.126 205.037 606.125 205.038 606.124 205.038C577.342 222.396 546.524 222.394 517.727 205.038L485.864 185.84L485.861 185.838C461.327 171.041 435.053 171.04 410.498 185.839L378.636 205.036C378.635 205.037 378.634 205.038 378.633 205.038C349.851 222.396 319.034 222.394 290.237 205.038C290.237 205.038 290.237 205.038 290.237 205.038L258.371 185.838C233.836 171.041 207.562 171.04 183.007 185.839L151.146 205.036C151.145 205.037 151.144 205.038 151.143 205.038C122.361 222.396 91.5431 222.394 62.7464 205.038C62.746 205.038 62.7467 205.038 62.7464 205.038L30.8799 185.838Z" fill="#4C6600"/>
<path fill-rule="evenodd" clip-rule="evenodd" d="M30.8799 264.686C6.34528 249.889 -19.9287 249.887 -44.4835 264.687L-51 223.866C-22.203 206.509 8.61514 206.507 37.3973 223.865C37.3975 223.865 37.397 223.865 37.3973 223.865C37.398 223.866 37.3995 223.867 37.4003 223.867L69.2608 243.063C93.8156 257.863 120.091 257.862 144.625 243.065L144.628 243.063L176.491 223.866C176.491 223.866 176.49 223.866 176.491 223.866C205.287 206.51 236.106 206.508 264.888 223.865C264.889 223.866 264.89 223.866 264.891 223.867L296.751 243.063C321.306 257.863 347.581 257.862 372.116 243.065L372.119 243.063L403.981 223.866C403.982 223.866 403.981 223.866 403.981 223.866C432.778 206.51 463.597 206.508 492.379 223.865C492.38 223.866 492.381 223.866 492.382 223.867L524.242 243.063C548.797 257.863 575.072 257.862 599.607 243.065L599.61 243.063L631.472 223.866C631.472 223.866 631.472 223.866 631.472 223.866C660.27 206.509 691.09 206.508 719.872 223.867L713.352 264.686C688.817 249.889 662.543 249.887 637.989 264.687L606.127 283.884C606.126 283.885 606.125 283.885 606.124 283.886C577.342 301.244 546.524 301.242 517.727 283.885L485.864 264.688L485.861 264.686C461.327 249.889 435.053 249.887 410.498 264.687L378.636 283.884C378.635 283.885 378.634 283.885 378.633 283.886C349.851 301.243 319.034 301.242 290.237 283.886C290.237 283.886 290.237 283.886 290.237 283.886L258.371 264.686C233.836 249.889 207.562 249.887 183.007 264.687L151.146 283.884C151.145 283.885 151.144 283.885 151.143 283.886C122.361 301.243 91.5431 301.242 62.7464 283.886C62.746 283.886 62.7467 283.886 62.7464 283.886L30.8799 264.686Z" fill="#4C6600"/>
<path fill-rule="evenodd" clip-rule="evenodd" d="M30.8799 343.537C6.34528 328.74 -19.9287 328.739 -44.4835 343.539L-51 302.717C-22.203 285.361 8.61514 285.359 37.3973 302.717C37.3975 302.717 37.397 302.717 37.3973 302.717C37.398 302.717 37.3995 302.718 37.4003 302.719L69.2608 321.915C93.8156 336.715 120.091 336.714 144.625 321.917L144.628 321.915L176.491 302.717C176.491 302.717 176.49 302.718 176.491 302.717C205.287 285.361 236.106 285.359 264.888 302.717C264.889 302.717 264.89 302.718 264.891 302.719L296.751 321.915C321.306 336.715 347.581 336.714 372.116 321.917L372.119 321.915L403.981 302.717C403.982 302.717 403.981 302.718 403.981 302.717C432.778 285.361 463.597 285.359 492.379 302.717C492.38 302.717 492.381 302.718 492.382 302.719L524.242 321.915C548.797 336.715 575.072 336.714 599.607 321.917L599.61 321.915L631.472 302.717C631.472 302.717 631.472 302.718 631.472 302.717C660.27 285.361 691.09 285.359 719.872 302.719L713.352 343.537C688.817 328.74 662.543 328.739 637.989 343.539L606.127 362.736C606.126 362.736 606.125 362.737 606.124 362.737C577.342 380.095 546.524 380.093 517.727 362.737L485.864 343.539L485.861 343.537C461.327 328.74 435.053 328.739 410.498 343.539L378.636 362.736C378.635 362.736 378.634 362.737 378.633 362.737C349.851 380.095 319.034 380.093 290.237 362.737C290.237 362.737 290.237 362.738 290.237 362.737L258.371 343.537C233.836 328.74 207.562 328.739 183.007 343.539L151.146 362.736C151.145 362.736 151.144 362.737 151.143 362.737C122.361 380.095 91.5431 380.093 62.7464 362.737C62.746 362.737 62.7467 362.738 62.7464 362.737L30.8799 343.537Z" fill="#4C6600"/>
<path fill-rule="evenodd" clip-rule="evenodd" d="M30.8799 422.385C6.34528 407.588 -19.9287 407.587 -44.4835 422.386L-51 381.565C-22.203 364.209 8.61514 364.207 37.3973 381.564C37.3975 381.565 37.397 381.564 37.3973 381.564C37.398 381.565 37.3995 381.566 37.4003 381.566L69.2608 400.763C93.8156 415.562 120.091 415.562 144.625 400.764L144.628 400.763L176.491 381.565C176.491 381.565 176.49 381.565 176.491 381.565C205.287 364.209 236.106 364.207 264.888 381.564C264.889 381.565 264.89 381.566 264.891 381.566L296.751 400.763C321.306 415.562 347.581 415.562 372.116 400.764L372.119 400.763L403.981 381.565C403.982 381.565 403.981 381.565 403.981 381.565C432.778 364.209 463.597 364.207 492.379 381.564C492.38 381.565 492.381 381.566 492.382 381.566L524.242 400.763C548.797 415.562 575.072 415.562 599.607 400.764L599.61 400.763L631.472 381.565C631.472 381.565 631.472 381.565 631.472 381.565C660.27 364.209 691.09 364.207 719.872 381.566L713.352 422.385C688.817 407.588 662.543 407.587 637.989 422.386L606.127 441.583C606.126 441.584 606.125 441.584 606.124 441.585C577.342 458.943 546.524 458.941 517.727 441.584L485.864 422.387L485.861 422.385C461.327 407.588 435.053 407.587 410.498 422.386L378.636 441.583C378.635 441.584 378.634 441.584 378.633 441.585C349.851 458.943 319.034 458.941 290.237 441.585C290.237 441.585 290.237 441.585 290.237 441.585L258.371 422.385C233.836 407.588 207.562 407.587 183.007 422.386L151.146 441.583C151.145 441.584 151.144 441.584 151.143 441.585C122.361 458.943 91.5431 458.941 62.7464 441.585C62.746 441.585 62.7467 441.585 62.7464 441.585L30.8799 422.385Z" fill="#4C6600"/>
<path fill-rule="evenodd" clip-rule="evenodd" d="M30.8799 501.237C6.34528 486.439 -19.9287 486.438 -44.4835 501.238L-51 460.417C-22.203 443.06 8.61514 443.058 37.3973 460.416C37.3975 460.416 37.397 460.416 37.3973 460.416C37.398 460.416 37.3995 460.417 37.4003 460.418L69.2608 479.614C93.8156 494.414 120.091 494.413 144.625 479.616L144.628 479.614L176.491 460.417C176.491 460.416 176.49 460.417 176.491 460.417C205.287 443.061 236.106 443.058 264.888 460.416C264.889 460.417 264.89 460.417 264.891 460.418L296.751 479.614C321.306 494.414 347.581 494.413 372.116 479.616L372.119 479.614L403.981 460.417C403.982 460.416 403.981 460.417 403.981 460.417C432.778 443.061 463.597 443.058 492.379 460.416C492.38 460.417 492.381 460.417 492.382 460.418L524.242 479.614C548.797 494.414 575.072 494.413 599.607 479.616L599.61 479.614L631.472 460.417C631.472 460.416 631.472 460.417 631.472 460.417C660.27 443.06 691.09 443.058 719.872 460.418L713.352 501.237C688.817 486.439 662.543 486.438 637.989 501.238L606.127 520.435C606.126 520.435 606.125 520.436 606.124 520.437C577.342 537.794 546.524 537.793 517.727 520.436L485.864 501.239L485.861 501.237C461.327 486.439 435.053 486.438 410.498 501.238L378.636 520.435C378.635 520.435 378.634 520.436 378.633 520.437C349.851 537.794 319.034 537.793 290.237 520.437C290.237 520.436 290.237 520.437 290.237 520.437L258.371 501.237C233.836 486.439 207.562 486.438 183.007 501.238L151.146 520.435C151.145 520.435 151.144 520.436 151.143 520.437C122.361 537.794 91.5431 537.793 62.7464 520.437C62.746 520.436 62.7467 520.437 62.7464 520.437L30.8799 501.237Z" fill="#4C6600"/>
<rect x="672" width="512" height="666" fill="#FFD8A0"/>
<circle cx="928.14" cy="164.141" r="54.1408" transform="rotate(90 928.14 164.141)" fill="#4C6600"/>
<circle cx="928.14" cy="332.578" r="54.1408" transform="rotate(90 928.14 332.578)" fill="#393A3D"/>
<circle cx="928.14" cy="501.016" r="54.1408" transform="rotate(90 928.14 501.016)" fill="#4C6600"/>
</g>
<path d="M1.52588e-05 144V666H522L1.52588e-05 144Z" fill="#B9E15E"/>
<defs>
<clipPath id="clip0_3_1287">
<rect width="1184" height="666" rx="12" fill="white"/>
</clipPath>
</defs>
</svg>
