<svg width="1200" height="675" viewBox="0 0 1200 675" fill="none" xmlns="http://www.w3.org/2000/svg">
<rect width="1200" height="675" fill="#F4F4EF"/>
<path d="M1011.1 0C1011.1 272.33 790.33 493.096 518 493.096V666C885.822 666 1184 367.822 1184 0H1011.1Z" fill="#B9E15E"/>
<rect width="612" height="666" fill="#FFD8A0"/>
<circle cx="306" cy="333" r="162" fill="#B9E15E"/>
<path fill-rule="evenodd" clip-rule="evenodd" d="M66.1639 217.855C45.4804 202.208 23.3316 202.208 2.63282 217.855L0 197.169C22.4127 180.225 46.3975 180.225 68.7971 197.169C68.7975 197.169 68.7967 197.168 68.7971 197.169L94.5444 216.626C115.243 232.274 137.392 232.274 158.076 216.627L183.824 197.169C183.824 197.169 183.824 197.169 183.824 197.169C206.237 180.226 230.222 180.225 252.621 197.169C252.621 197.169 252.621 197.168 252.621 197.169L278.368 216.626C299.067 232.274 321.216 232.274 341.9 216.627L367.648 197.169C367.648 197.169 367.648 197.169 367.648 197.169C390.061 180.226 414.046 180.225 436.445 197.169C436.445 197.169 436.445 197.168 436.445 197.169L462.192 216.626C482.891 232.274 505.04 232.274 525.724 216.627L551.472 197.169C573.885 180.225 597.87 180.225 620.27 197.169L617.636 217.855C596.952 202.208 574.804 202.208 554.105 217.855L528.358 237.312C528.358 237.313 528.359 237.312 528.358 237.312C505.959 254.256 481.973 254.256 459.56 237.313L433.813 217.856C413.13 202.209 390.98 202.208 370.281 217.855L344.534 237.312C322.134 254.257 298.149 254.257 275.736 237.313C275.736 237.313 275.737 237.313 275.736 237.313L249.989 217.856C229.306 202.209 207.156 202.208 186.457 217.855L160.71 237.312C138.311 254.257 114.325 254.257 91.9124 237.313C91.9123 237.313 91.9125 237.313 91.9124 237.313L66.1639 217.855Z" fill="#4C6600"/>
<path fill-rule="evenodd" clip-rule="evenodd" d="M66.1639 297.769C45.4804 282.122 23.3316 282.122 2.63282 297.769L0 277.083C22.4127 260.14 46.3975 260.139 68.7971 277.083C68.7975 277.083 68.7967 277.082 68.7971 277.083L94.5444 296.54C115.243 312.188 137.392 312.188 158.076 296.541L183.824 277.083C183.824 277.083 183.824 277.083 183.824 277.083C206.237 260.14 230.222 260.139 252.621 277.083C252.621 277.083 252.621 277.082 252.621 277.083L278.368 296.54C299.067 312.188 321.216 312.188 341.9 296.541L367.648 277.083C367.648 277.083 367.648 277.083 367.648 277.083C390.061 260.14 414.046 260.139 436.445 277.083C436.445 277.083 436.445 277.082 436.445 277.083L462.192 296.54C482.891 312.188 505.04 312.188 525.724 296.541L551.472 277.083C573.885 260.139 597.87 260.139 620.27 277.084L617.636 297.769C596.952 282.122 574.804 282.122 554.105 297.769L528.358 317.226C528.358 317.227 528.359 317.226 528.358 317.226C505.959 334.17 481.973 334.17 459.56 317.227L433.813 297.77C413.13 282.123 390.98 282.122 370.281 297.769L344.534 317.226C322.134 334.171 298.149 334.171 275.736 317.227C275.736 317.227 275.737 317.227 275.736 317.227L249.989 297.77C229.306 282.123 207.156 282.122 186.457 297.769L160.71 317.226C138.311 334.171 114.325 334.171 91.9124 317.227C91.9123 317.227 91.9125 317.227 91.9124 317.227L66.1639 297.769Z" fill="#4C6600"/>
<path fill-rule="evenodd" clip-rule="evenodd" d="M66.1639 377.683C45.4804 362.036 23.3316 362.036 2.63282 377.683L0 356.997C22.4127 340.054 46.3975 340.053 68.7971 356.997C68.7975 356.997 68.7967 356.996 68.7971 356.997L94.5444 376.454C115.243 392.102 137.392 392.102 158.076 376.455L183.824 356.997C183.824 356.997 183.824 356.997 183.824 356.997C206.237 340.054 230.222 340.053 252.621 356.997C252.621 356.997 252.621 356.996 252.621 356.997L278.368 376.454C299.067 392.102 321.216 392.102 341.9 376.455L367.648 356.997C367.648 356.997 367.648 356.997 367.648 356.997C390.061 340.054 414.046 340.053 436.445 356.997C436.445 356.997 436.445 356.996 436.445 356.997L462.192 376.454C482.891 392.102 505.04 392.102 525.724 376.455L551.472 356.997C573.885 340.053 597.87 340.053 620.27 356.998L617.636 377.683C596.952 362.036 574.804 362.036 554.105 377.683L528.358 397.14C528.358 397.141 528.359 397.14 528.358 397.14C505.959 414.084 481.973 414.084 459.56 397.141L433.813 377.684C413.13 362.037 390.98 362.036 370.281 377.683L344.534 397.14C322.134 414.085 298.149 414.085 275.736 397.141C275.736 397.141 275.737 397.141 275.736 397.141L249.989 377.684C229.306 362.037 207.156 362.036 186.457 377.683L160.71 397.14C138.311 414.085 114.325 414.085 91.9124 397.141C91.9123 397.141 91.9125 397.141 91.9124 397.141L66.1639 377.683Z" fill="#4C6600"/>
<path fill-rule="evenodd" clip-rule="evenodd" d="M66.1639 457.601C45.4804 441.954 23.3316 441.954 2.63282 457.601L0 436.915C22.4127 419.972 46.3975 419.971 68.7971 436.915C68.7975 436.915 68.7967 436.914 68.7971 436.915L94.5444 456.372C115.243 472.02 137.392 472.02 158.076 456.373L183.824 436.915C183.824 436.915 183.824 436.915 183.824 436.915C206.237 419.972 230.222 419.971 252.621 436.915C252.621 436.915 252.621 436.914 252.621 436.915L278.368 456.372C299.067 472.02 321.216 472.02 341.9 456.373L367.648 436.915C367.648 436.915 367.648 436.915 367.648 436.915C390.061 419.972 414.046 419.971 436.445 436.915C436.445 436.915 436.445 436.914 436.445 436.915L462.192 456.372C482.891 472.02 505.04 472.02 525.724 456.373L551.472 436.915C573.885 419.971 597.87 419.971 620.27 436.916L617.636 457.601C596.952 441.954 574.804 441.954 554.105 457.601L528.358 477.058C528.358 477.059 528.359 477.058 528.358 477.058C505.959 494.002 481.973 494.002 459.56 477.059L433.813 457.602C413.13 441.955 390.98 441.954 370.281 457.601L344.534 477.058C322.134 494.003 298.149 494.003 275.736 477.059C275.736 477.059 275.737 477.059 275.736 477.059L249.989 457.602C229.306 441.955 207.156 441.954 186.457 457.601L160.71 477.058C138.311 494.003 114.325 494.003 91.9124 477.059C91.9123 477.059 91.9125 477.059 91.9124 477.059L66.1639 457.601Z" fill="#4C6600"/>
<path fill-rule="evenodd" clip-rule="evenodd" d="M991.5 549C1033.2 549 1067 515.197 1067 473.5C1067 431.803 1033.2 398 991.5 398C949.803 398 916 431.803 916 473.5C916 515.197 949.803 549 991.5 549ZM991.5 535.676C1025.84 535.676 1053.68 507.839 1053.68 473.5C1053.68 439.161 1025.84 411.324 991.5 411.324C957.161 411.324 929.324 439.161 929.324 473.5C929.324 507.839 957.161 535.676 991.5 535.676Z" fill="#393A3D"/>
</svg>
