<svg width="1184" height="666" viewBox="0 0 1184 666" fill="none" xmlns="http://www.w3.org/2000/svg">
<g clip-path="url(#clip0_1_6319)">
<g clip-path="url(#clip1_1_6319)" filter="url(#filter0_d_1_6319)">
<rect width="1184" height="666" fill="#F4F4EF"/>
<path d="M-96 472C-96 628.849 31.1511 756 188 756C344.849 756 472 628.849 472 472H-96Z" fill="#FFD8A0"/>
</g>
<path fill-rule="evenodd" clip-rule="evenodd" d="M841.88 324.838C817.345 310.041 791.071 310.04 766.516 324.839L760 284.018C788.797 266.662 819.615 266.66 848.397 284.018C848.398 284.018 848.397 284.017 848.397 284.018C848.398 284.018 848.4 284.019 848.4 284.019L880.261 303.216C904.816 318.015 931.091 318.015 955.625 303.218L955.628 303.216L987.491 284.018C987.491 284.018 987.49 284.018 987.491 284.018C1016.29 266.662 1047.11 266.66 1075.89 284.018C1075.89 284.018 1075.89 284.019 1075.89 284.019L1107.75 303.216C1132.31 318.015 1158.58 318.015 1183.12 303.218L1183.12 303.216L1214.98 284.018C1214.98 284.018 1214.98 284.018 1214.98 284.018C1243.78 266.662 1274.6 266.66 1303.38 284.018C1303.38 284.018 1303.38 284.019 1303.38 284.019L1335.24 303.216C1359.8 318.015 1386.07 318.015 1410.61 303.218L1410.61 303.216L1442.47 284.018C1442.47 284.018 1442.47 284.018 1442.47 284.018C1471.27 266.662 1502.09 266.66 1530.87 284.019L1524.35 324.838C1499.82 310.041 1473.54 310.04 1448.99 324.839L1417.13 344.036C1417.13 344.037 1417.12 344.038 1417.12 344.038C1388.34 361.396 1357.52 361.394 1328.73 344.038L1296.86 324.84L1296.86 324.838C1272.33 310.041 1246.05 310.04 1221.5 324.839L1189.64 344.036C1189.64 344.037 1189.63 344.038 1189.63 344.038C1160.85 361.396 1130.03 361.394 1101.24 344.038C1101.24 344.038 1101.24 344.038 1101.24 344.038L1069.37 324.838C1044.84 310.041 1018.56 310.04 994.007 324.839L962.146 344.036C962.145 344.037 962.144 344.038 962.143 344.038C933.361 361.396 902.543 361.394 873.746 344.038C873.746 344.038 873.747 344.038 873.746 344.038L841.88 324.838Z" fill="#B9E15E"/>
<path fill-rule="evenodd" clip-rule="evenodd" d="M841.88 403.686C817.345 388.889 791.071 388.887 766.516 403.687L760 362.866C788.797 345.509 819.615 345.507 848.397 362.865C848.398 362.865 848.397 362.865 848.397 362.865C848.398 362.866 848.4 362.867 848.4 362.867L880.261 382.063C904.816 396.863 931.091 396.862 955.625 382.065L955.628 382.063L987.491 362.866C987.491 362.866 987.49 362.866 987.491 362.866C1016.29 345.51 1047.11 345.508 1075.89 362.865C1075.89 362.866 1075.89 362.866 1075.89 362.867L1107.75 382.063C1132.31 396.863 1158.58 396.862 1183.12 382.065L1183.12 382.063L1214.98 362.866C1214.98 362.866 1214.98 362.866 1214.98 362.866C1243.78 345.51 1274.6 345.508 1303.38 362.865C1303.38 362.866 1303.38 362.866 1303.38 362.867L1335.24 382.063C1359.8 396.863 1386.07 396.862 1410.61 382.065L1410.61 382.063L1442.47 362.866C1442.47 362.866 1442.47 362.866 1442.47 362.866C1471.27 345.509 1502.09 345.508 1530.87 362.867L1524.35 403.686C1499.82 388.889 1473.54 388.887 1448.99 403.687L1417.13 422.884C1417.13 422.885 1417.12 422.885 1417.12 422.886C1388.34 440.244 1357.52 440.242 1328.73 422.885L1296.86 403.688L1296.86 403.686C1272.33 388.889 1246.05 388.887 1221.5 403.687L1189.64 422.884C1189.64 422.885 1189.63 422.885 1189.63 422.886C1160.85 440.243 1130.03 440.242 1101.24 422.886C1101.24 422.886 1101.24 422.886 1101.24 422.886L1069.37 403.686C1044.84 388.889 1018.56 388.887 994.007 403.687L962.146 422.884C962.145 422.885 962.144 422.885 962.143 422.886C933.361 440.243 902.543 440.242 873.746 422.886C873.746 422.886 873.747 422.886 873.746 422.886L841.88 403.686Z" fill="#B9E15E"/>
<path fill-rule="evenodd" clip-rule="evenodd" d="M841.88 482.537C817.345 467.74 791.071 467.739 766.516 482.539L760 441.717C788.797 424.361 819.615 424.359 848.397 441.717C848.398 441.717 848.397 441.717 848.397 441.717C848.398 441.717 848.4 441.718 848.4 441.719L880.261 460.915C904.816 475.715 931.091 475.714 955.625 460.917L955.628 460.915L987.491 441.717C987.491 441.717 987.49 441.718 987.491 441.717C1016.29 424.361 1047.11 424.359 1075.89 441.717C1075.89 441.717 1075.89 441.718 1075.89 441.719L1107.75 460.915C1132.31 475.715 1158.58 475.714 1183.12 460.917L1183.12 460.915L1214.98 441.717C1214.98 441.717 1214.98 441.718 1214.98 441.717C1243.78 424.361 1274.6 424.359 1303.38 441.717C1303.38 441.717 1303.38 441.718 1303.38 441.719L1335.24 460.915C1359.8 475.715 1386.07 475.714 1410.61 460.917L1410.61 460.915L1442.47 441.717C1442.47 441.717 1442.47 441.718 1442.47 441.717C1471.27 424.361 1502.09 424.359 1530.87 441.719L1524.35 482.537C1499.82 467.74 1473.54 467.739 1448.99 482.539L1417.13 501.736C1417.13 501.736 1417.12 501.737 1417.12 501.737C1388.34 519.095 1357.52 519.093 1328.73 501.737L1296.86 482.539L1296.86 482.537C1272.33 467.74 1246.05 467.739 1221.5 482.539L1189.64 501.736C1189.64 501.736 1189.63 501.737 1189.63 501.737C1160.85 519.095 1130.03 519.093 1101.24 501.737C1101.24 501.737 1101.24 501.738 1101.24 501.737L1069.37 482.537C1044.84 467.74 1018.56 467.739 994.007 482.539L962.146 501.736C962.145 501.736 962.144 501.737 962.143 501.737C933.361 519.095 902.543 519.093 873.746 501.737C873.746 501.737 873.747 501.738 873.746 501.737L841.88 482.537Z" fill="#B9E15E"/>
<path fill-rule="evenodd" clip-rule="evenodd" d="M841.88 561.385C817.345 546.588 791.071 546.587 766.516 561.386L760 520.565C788.797 503.209 819.615 503.207 848.397 520.564C848.398 520.565 848.397 520.564 848.397 520.564C848.398 520.565 848.4 520.566 848.4 520.566L880.261 539.763C904.816 554.562 931.091 554.562 955.625 539.764L955.628 539.763L987.491 520.565C987.491 520.565 987.49 520.565 987.491 520.565C1016.29 503.209 1047.11 503.207 1075.89 520.564C1075.89 520.565 1075.89 520.566 1075.89 520.566L1107.75 539.763C1132.31 554.562 1158.58 554.562 1183.12 539.764L1183.12 539.763L1214.98 520.565C1214.98 520.565 1214.98 520.565 1214.98 520.565C1243.78 503.209 1274.6 503.207 1303.38 520.564C1303.38 520.565 1303.38 520.566 1303.38 520.566L1335.24 539.763C1359.8 554.562 1386.07 554.562 1410.61 539.764L1410.61 539.763L1442.47 520.565C1442.47 520.565 1442.47 520.565 1442.47 520.565C1471.27 503.209 1502.09 503.207 1530.87 520.566L1524.35 561.385C1499.82 546.588 1473.54 546.587 1448.99 561.386L1417.13 580.583C1417.13 580.584 1417.12 580.584 1417.12 580.585C1388.34 597.943 1357.52 597.941 1328.73 580.584L1296.86 561.387L1296.86 561.385C1272.33 546.588 1246.05 546.587 1221.5 561.386L1189.64 580.583C1189.64 580.584 1189.63 580.584 1189.63 580.585C1160.85 597.943 1130.03 597.941 1101.24 580.585C1101.24 580.585 1101.24 580.585 1101.24 580.585L1069.37 561.385C1044.84 546.588 1018.56 546.587 994.007 561.386L962.146 580.583C962.145 580.584 962.144 580.584 962.143 580.585C933.361 597.943 902.543 597.941 873.746 580.585C873.746 580.585 873.747 580.585 873.746 580.585L841.88 561.385Z" fill="#B9E15E"/>
<path d="M1106.76 224.379C1106.76 128.623 1029.13 50.9983 933.377 50.9983C837.622 50.9983 759.997 128.624 759.997 224.379L1106.76 224.379Z" fill="#FFD8A0"/>
<path d="M112 -123V399H-410L112 -123Z" fill="#4C6600"/>
<path d="M175 -123V399H697L175 -123Z" fill="#B9E15E"/>
<circle cx="198.897" cy="550.897" r="23.8972" fill="#393A3D"/>
<circle cx="273.244" cy="550.897" r="23.8972" fill="#393A3D"/>
<circle cx="347.591" cy="550.897" r="23.8972" fill="#393A3D"/>
<circle cx="421.937" cy="550.897" r="23.8972" fill="#393A3D"/>
<circle cx="496.284" cy="550.897" r="23.8972" fill="#393A3D"/>
<circle cx="570.632" cy="550.897" r="23.8972" fill="#393A3D"/>
<path fill-rule="evenodd" clip-rule="evenodd" d="M851.51 224C853.592 230.696 856.602 237.335 860.538 243.867L879.737 275.731C895.175 301.328 895.175 328.739 879.736 354.354L860.538 386.218C843.82 413.938 843.821 443.621 860.538 471.357L879.737 503.222C895.175 528.819 895.175 556.229 879.736 581.845L860.538 613.709C843.82 641.429 843.821 671.111 860.539 698.848L880.949 695.59C865.51 669.974 865.511 642.564 880.949 616.967L900.148 585.102C916.865 557.365 916.866 527.682 900.147 499.962L880.949 468.099C865.51 442.484 865.512 415.072 880.949 389.475L900.148 357.612C916.865 329.875 916.866 300.192 900.147 272.471L880.949 240.609C877.655 235.142 875.063 229.595 873.175 224H851.51Z" fill="#393A3D"/>
<path fill-rule="evenodd" clip-rule="evenodd" d="M915.744 224C917.827 230.696 920.836 237.335 924.773 243.867L943.972 275.731C959.409 301.328 959.41 328.739 943.971 354.354L924.773 386.218C908.055 413.938 908.056 443.621 924.773 471.357L943.972 503.222C959.409 528.819 959.41 556.229 943.971 581.845L924.773 613.709C908.054 641.429 908.055 671.111 924.773 698.848L945.184 695.59C929.744 669.974 929.745 642.564 945.183 616.967L964.382 585.102C981.099 557.365 981.1 527.682 964.381 499.962L945.184 468.099C929.744 442.484 929.746 415.072 945.184 389.475L964.382 357.612C981.099 329.875 981.1 300.192 964.381 272.471L945.183 240.609C941.889 235.142 939.298 229.595 937.409 224H915.744Z" fill="#393A3D"/>
<path fill-rule="evenodd" clip-rule="evenodd" d="M979.979 224C982.062 230.696 985.072 237.335 989.008 243.867L1008.21 275.731C1023.64 301.328 1023.65 328.739 1008.21 354.354L989.008 386.218C972.29 413.938 972.291 443.621 989.008 471.357L1008.21 503.222C1023.64 528.819 1023.65 556.229 1008.21 581.845L989.008 613.709C972.29 641.429 972.291 671.111 989.008 698.848L1009.42 695.59C993.98 669.974 993.98 642.564 1009.42 616.967L1028.62 585.102C1045.33 557.365 1045.34 527.682 1028.62 499.962L1009.42 468.099C993.98 442.484 993.981 415.072 1009.42 389.475L1028.62 357.612C1045.33 329.875 1045.34 300.192 1028.62 272.471L1009.42 240.609C1006.12 235.142 1003.53 229.595 1001.64 224H979.979Z" fill="#393A3D"/>
</g>
<defs>
<filter id="filter0_d_1_6319" x="-16" y="-12" width="1216" height="698" filterUnits="userSpaceOnUse" color-interpolation-filters="sRGB">
<feFlood flood-opacity="0" result="BackgroundImageFix"/>
<feColorMatrix in="SourceAlpha" type="matrix" values="0 0 0 0 0 0 0 0 0 0 0 0 0 0 0 0 0 0 127 0" result="hardAlpha"/>
<feOffset dy="4"/>
<feGaussianBlur stdDeviation="8"/>
<feColorMatrix type="matrix" values="0 0 0 0 0 0 0 0 0 0 0 0 0 0 0 0 0 0 0.2 0"/>
<feBlend mode="normal" in2="BackgroundImageFix" result="effect1_dropShadow_1_6319"/>
<feBlend mode="normal" in="SourceGraphic" in2="effect1_dropShadow_1_6319" result="shape"/>
</filter>
<clipPath id="clip0_1_6319">
<rect width="1184" height="666" fill="white"/>
</clipPath>
<clipPath id="clip1_1_6319">
<rect width="1184" height="666" fill="white"/>
</clipPath>
</defs>
</svg>
