<svg width="1184" height="666" viewBox="0 0 1184 666" fill="none" xmlns="http://www.w3.org/2000/svg">
<g clip-path="url(#clip0_1_6127)">
<g filter="url(#filter0_d_1_6127)">
<rect width="1184" height="666" fill="#F4F4EF"/>
</g>
<path fill-rule="evenodd" clip-rule="evenodd" d="M774.027 -135.477C785.483 -149.417 785.484 -164.346 774.026 -178.297L805.63 -182C819.067 -165.638 819.068 -148.127 805.63 -131.774C805.63 -131.774 805.63 -131.774 805.63 -131.774C805.63 -131.773 805.629 -131.772 805.629 -131.772L790.767 -113.669C779.309 -99.7176 779.31 -84.7884 790.766 -70.8482L790.767 -70.8465L805.63 -52.7426C805.63 -52.7424 805.629 -52.7428 805.63 -52.7426C819.066 -36.3807 819.068 -18.8698 805.63 -2.51639C805.63 -2.51582 805.629 -2.51526 805.629 -2.51469L790.767 15.588C779.309 29.5398 779.31 44.4689 790.766 58.4092L790.767 58.4109L805.63 76.5148C805.63 76.5149 805.629 76.5146 805.63 76.5148C819.066 92.8767 819.068 110.387 805.63 126.741C805.63 126.742 805.629 126.742 805.629 126.743L790.767 144.845C779.309 158.797 779.31 173.726 790.766 187.667L790.767 187.668L805.63 205.772C805.63 205.772 805.629 205.772 805.63 205.772C819.067 222.135 819.068 239.646 805.629 256L774.027 252.295C785.483 238.355 785.484 223.426 774.026 209.475L759.164 191.371C759.164 191.371 759.163 191.37 759.163 191.37C745.725 175.016 745.726 157.506 759.163 141.143L774.026 123.04L774.027 123.038C785.483 109.098 785.484 94.1691 774.026 80.2173L759.164 62.114C759.164 62.1134 759.163 62.1129 759.163 62.1123C745.725 45.7588 745.726 28.2486 759.163 11.8866C759.163 11.8864 759.163 11.8868 759.163 11.8866L774.027 -6.21951C785.483 -20.1597 785.484 -35.0883 774.026 -49.04L759.164 -67.1434C759.164 -67.1439 759.163 -67.1445 759.163 -67.1451C745.725 -83.4985 745.726 -101.009 759.163 -117.371C759.163 -117.371 759.163 -117.371 759.163 -117.371L774.027 -135.477Z" fill="#FFD8A0"/>
<path fill-rule="evenodd" clip-rule="evenodd" d="M712.982 -135.477C724.438 -149.417 724.439 -164.346 712.981 -178.297L744.585 -182C758.022 -165.638 758.023 -148.127 744.585 -131.774C744.585 -131.774 744.585 -131.774 744.585 -131.774C744.585 -131.773 744.584 -131.772 744.584 -131.772L729.722 -113.669C718.265 -99.7176 718.265 -84.7884 729.721 -70.8482L729.722 -70.8465L744.585 -52.7426C744.585 -52.7424 744.584 -52.7428 744.585 -52.7426C758.021 -36.3807 758.023 -18.8698 744.585 -2.51639C744.585 -2.51582 744.584 -2.51526 744.584 -2.51469L729.722 15.588C718.265 29.5398 718.265 44.4689 729.721 58.4092L729.722 58.4109L744.585 76.5148C744.585 76.5149 744.584 76.5146 744.585 76.5148C758.021 92.8767 758.023 110.387 744.585 126.741C744.585 126.742 744.584 126.742 744.584 126.743L729.722 144.845C718.265 158.797 718.265 173.726 729.721 187.667L729.722 187.668L744.585 205.772C744.585 205.772 744.584 205.772 744.585 205.772C758.022 222.135 758.023 239.646 744.584 256L712.982 252.295C724.438 238.355 724.439 223.426 712.981 209.475L698.119 191.371C698.119 191.371 698.119 191.37 698.118 191.37C684.68 175.016 684.681 157.506 698.119 141.143L712.981 123.04L712.982 123.038C724.438 109.098 724.439 94.1691 712.981 80.2173L698.119 62.114C698.119 62.1134 698.119 62.1129 698.118 62.1123C684.68 45.7588 684.681 28.2486 698.118 11.8866C698.118 11.8864 698.118 11.8868 698.118 11.8866L712.982 -6.21951C724.438 -20.1597 724.439 -35.0883 712.981 -49.04L698.119 -67.1434C698.119 -67.1439 698.119 -67.1445 698.118 -67.1451C684.68 -83.4985 684.681 -101.009 698.118 -117.371C698.118 -117.371 698.118 -117.371 698.118 -117.371L712.982 -135.477Z" fill="#FFD8A0"/>
<path fill-rule="evenodd" clip-rule="evenodd" d="M651.942 -135.477C663.398 -149.417 663.399 -164.346 651.941 -178.297L683.545 -182C696.982 -165.638 696.983 -148.127 683.545 -131.774C683.545 -131.774 683.545 -131.774 683.545 -131.774C683.545 -131.773 683.544 -131.772 683.544 -131.772L668.682 -113.669C657.224 -99.7176 657.225 -84.7884 668.681 -70.8482L668.682 -70.8465L683.545 -52.7426C683.545 -52.7424 683.544 -52.7428 683.545 -52.7426C696.981 -36.3807 696.983 -18.8698 683.545 -2.51639C683.545 -2.51582 683.544 -2.51526 683.544 -2.51469L668.682 15.588C657.224 29.5398 657.225 44.4689 668.681 58.4092L668.682 58.4109L683.545 76.5148C683.545 76.5149 683.544 76.5146 683.545 76.5148C696.981 92.8767 696.983 110.387 683.545 126.741C683.545 126.742 683.544 126.742 683.544 126.743L668.682 144.845C657.224 158.797 657.225 173.726 668.681 187.667L668.682 187.668L683.545 205.772C683.545 205.772 683.544 205.772 683.545 205.772C696.982 222.135 696.983 239.646 683.544 256L651.942 252.295C663.398 238.355 663.399 223.426 651.941 209.475L637.079 191.371C637.079 191.371 637.078 191.37 637.078 191.37C623.64 175.016 623.641 157.506 637.079 141.143L651.941 123.04L651.942 123.038C663.398 109.098 663.399 94.1691 651.941 80.2173L637.079 62.114C637.079 62.1134 637.078 62.1129 637.078 62.1123C623.64 45.7588 623.641 28.2486 637.078 11.8866C637.078 11.8864 637.078 11.8868 637.078 11.8866L651.942 -6.21951C663.398 -20.1597 663.399 -35.0883 651.941 -49.04L637.079 -67.1434C637.079 -67.1439 637.079 -67.1445 637.078 -67.1451C623.64 -83.4985 623.641 -101.009 637.078 -117.371C637.078 -117.371 637.078 -117.371 637.078 -117.371L651.942 -135.477Z" fill="#FFD8A0"/>
<path d="M-43 -46V835H838L-43 -46Z" fill="#FFD8A0"/>
<path d="M529.992 283C529.992 378.755 607.617 456.381 703.373 456.381C799.128 456.381 876.753 378.755 876.753 283H529.992Z" fill="#393A3D"/>
<path d="M463.758 282.777C463.758 187.022 386.133 109.397 290.377 109.397C194.622 109.397 116.997 187.022 116.997 282.777L463.758 282.777Z" fill="#4C6600"/>
<rect x="545" y="544.699" width="121.3" height="121.3" fill="#B9E15E"/>
<rect x="717.566" y="544.699" width="121.3" height="121.3" fill="#B9E15E"/>
<rect x="890.132" y="544.699" width="121.3" height="121.3" fill="#B9E15E"/>
<rect x="1062.7" y="544.699" width="121.3" height="121.3" fill="#B9E15E"/>
<path fill-rule="evenodd" clip-rule="evenodd" d="M883.346 -9C885.521 -2.00556 888.665 4.92947 892.777 11.7518L912.831 45.0357C928.956 71.7725 928.956 100.404 912.83 127.161L892.776 160.444C875.314 189.399 875.315 220.404 892.777 249.376L912.831 282.66C928.956 309.397 928.956 338.028 912.83 364.785L892.776 398.068C875.314 427.023 875.315 458.028 892.777 487L914.097 483.597C897.97 456.84 897.97 428.209 914.096 401.472L934.15 368.187C951.612 339.215 951.613 308.21 934.149 279.254L914.097 245.973C897.97 219.216 897.971 190.583 914.097 163.846L934.15 130.563C951.612 101.591 951.613 70.5858 934.149 41.6302L914.097 8.3484C910.655 2.63881 907.948 -3.15621 905.976 -9H883.346Z" fill="#B9E15E"/>
<path fill-rule="evenodd" clip-rule="evenodd" d="M950.445 -9C952.621 -2.00556 955.764 4.92947 959.876 11.7518L979.93 45.0357C996.056 71.7725 996.056 100.404 979.929 127.161L959.876 160.444C942.413 189.399 942.414 220.404 959.876 249.376L979.93 282.66C996.056 309.397 996.056 338.028 979.929 364.785L959.876 398.068C942.413 427.023 942.414 458.028 959.876 487L981.196 483.597C965.069 456.84 965.07 428.209 981.196 401.472L1001.25 368.187C1018.71 339.215 1018.71 308.21 1001.25 279.254L981.196 245.973C965.069 219.216 965.071 190.583 981.196 163.846L1001.25 130.563C1018.71 101.591 1018.71 70.5858 1001.25 41.6302L981.196 8.3484C977.755 2.63881 975.048 -3.15621 973.075 -9H950.445Z" fill="#B9E15E"/>
<path fill-rule="evenodd" clip-rule="evenodd" d="M1017.53 -9C1019.7 -2.00556 1022.85 4.92947 1026.96 11.7518L1047.01 45.0357C1063.14 71.7725 1063.14 100.404 1047.01 127.161L1026.96 160.444C1009.5 189.399 1009.5 220.404 1026.96 249.376L1047.01 282.66C1063.14 309.397 1063.14 338.028 1047.01 364.785L1026.96 398.068C1009.5 427.023 1009.5 458.028 1026.96 487L1048.28 483.597C1032.15 456.84 1032.15 428.209 1048.28 401.472L1068.33 368.187C1085.8 339.215 1085.8 308.21 1068.33 279.254L1048.28 245.973C1032.15 219.216 1032.15 190.583 1048.28 163.846L1068.33 130.563C1085.8 101.591 1085.8 70.5858 1068.33 41.6302L1048.28 8.3484C1044.84 2.63881 1042.13 -3.15621 1040.16 -9H1017.53Z" fill="#B9E15E"/>
<path fill-rule="evenodd" clip-rule="evenodd" d="M1084.63 -9C1086.8 -2.00556 1089.95 4.92947 1094.06 11.7518L1114.11 45.0357C1130.24 71.7725 1130.24 100.404 1114.11 127.161L1094.06 160.444C1076.6 189.399 1076.6 220.404 1094.06 249.376L1114.11 282.66C1130.24 309.397 1130.24 338.028 1114.11 364.785L1094.06 398.068C1076.6 427.023 1076.6 458.028 1094.06 487L1115.38 483.597C1099.25 456.84 1099.25 428.209 1115.38 401.472L1135.43 368.187C1152.9 339.215 1152.9 308.21 1135.43 279.254L1115.38 245.973C1099.25 219.216 1099.25 190.583 1115.38 163.846L1135.43 130.563C1152.9 101.591 1152.9 70.5858 1135.43 41.6302L1115.38 8.3484C1111.94 2.63881 1109.23 -3.15621 1107.26 -9H1084.63Z" fill="#B9E15E"/>
</g>
<defs>
<filter id="filter0_d_1_6127" x="-16" y="-12" width="1216" height="698" filterUnits="userSpaceOnUse" color-interpolation-filters="sRGB">
<feFlood flood-opacity="0" result="BackgroundImageFix"/>
<feColorMatrix in="SourceAlpha" type="matrix" values="0 0 0 0 0 0 0 0 0 0 0 0 0 0 0 0 0 0 127 0" result="hardAlpha"/>
<feOffset dy="4"/>
<feGaussianBlur stdDeviation="8"/>
<feColorMatrix type="matrix" values="0 0 0 0 0 0 0 0 0 0 0 0 0 0 0 0 0 0 0.2 0"/>
<feBlend mode="normal" in2="BackgroundImageFix" result="effect1_dropShadow_1_6127"/>
<feBlend mode="normal" in="SourceGraphic" in2="effect1_dropShadow_1_6127" result="shape"/>
</filter>
<clipPath id="clip0_1_6127">
<rect width="1184" height="666" fill="white"/>
</clipPath>
</defs>
</svg>
