<svg width="1200" height="675" viewBox="0 0 1200 675" fill="none" xmlns="http://www.w3.org/2000/svg">
<g clip-path="url(#clip0_3_1042)">
<g filter="url(#filter0_d_3_1042)">
<rect width="1184" height="666" rx="12" fill="#F4F4EF"/>
</g>
<path fill-rule="evenodd" clip-rule="evenodd" d="M784.486 -137.309C796.097 -151.438 796.098 -166.568 784.486 -180.708L816.516 -184.461C830.135 -167.878 830.136 -150.131 816.516 -133.556C816.516 -133.556 816.516 -133.556 816.516 -133.556C816.516 -133.556 816.515 -133.555 816.515 -133.554L801.453 -115.207C789.84 -101.067 789.841 -85.9357 801.451 -71.8071L801.453 -71.8054L816.516 -53.4568C816.516 -53.4566 816.516 -53.457 816.516 -53.4568C830.134 -36.8738 830.136 -19.1263 816.516 -2.55188C816.516 -2.5513 816.515 -2.55073 816.515 -2.55015L801.453 15.7972C789.84 29.9375 789.841 45.0684 801.451 59.197L801.453 59.1987L816.516 77.5473C816.516 77.5474 816.516 77.5471 816.516 77.5473C830.134 94.1303 830.136 111.878 816.516 128.452C816.516 128.453 816.515 128.453 816.515 128.454L801.453 146.801C789.84 160.942 789.841 176.072 801.451 190.201L801.453 190.203L816.516 208.551C816.516 208.552 816.516 208.551 816.516 208.551C830.135 225.135 830.136 242.883 816.515 259.458L784.486 255.703C796.097 241.574 796.098 226.444 784.486 212.304L769.423 193.956C769.422 193.955 769.422 193.955 769.421 193.954C755.802 177.38 755.803 159.632 769.422 143.049L784.485 124.701L784.486 124.699C796.097 110.57 796.098 95.4402 784.486 81.2999L769.423 62.9519C769.422 62.9513 769.422 62.9507 769.421 62.9502C755.802 46.3757 755.803 28.6288 769.421 12.0458C769.421 12.0456 769.421 12.046 769.421 12.0458L784.486 -6.30503C796.097 -20.4337 796.098 -35.5639 784.486 -49.7042L769.423 -68.0522C769.422 -68.0528 769.422 -68.0534 769.421 -68.0539C755.802 -84.6284 755.803 -102.375 769.421 -118.958C769.422 -118.959 769.421 -118.958 769.421 -118.958L784.486 -137.309Z" fill="#FFD8A0"/>
<path fill-rule="evenodd" clip-rule="evenodd" d="M722.615 -137.309C734.226 -151.438 734.227 -166.568 722.614 -180.708L754.645 -184.461C768.263 -167.878 768.265 -150.131 754.645 -133.556C754.645 -133.556 754.645 -133.556 754.645 -133.556C754.645 -133.556 754.644 -133.555 754.644 -133.554L739.581 -115.207C727.969 -101.067 727.969 -85.9357 739.58 -71.8071L739.581 -71.8054L754.645 -53.4568C754.645 -53.4566 754.645 -53.457 754.645 -53.4568C768.263 -36.8738 768.265 -19.1263 754.645 -2.55188C754.645 -2.5513 754.644 -2.55073 754.644 -2.55015L739.581 15.7972C727.969 29.9375 727.969 45.0684 739.58 59.197L739.581 59.1987L754.645 77.5473C754.645 77.5474 754.645 77.5471 754.645 77.5473C768.263 94.1303 768.265 111.878 754.645 128.452C754.645 128.453 754.644 128.453 754.644 128.454L739.581 146.801C727.969 160.942 727.969 176.072 739.58 190.201L739.581 190.203L754.645 208.551C754.645 208.552 754.645 208.551 754.645 208.551C768.263 225.135 768.265 242.883 754.644 259.458L722.615 255.703C734.226 241.574 734.227 226.444 722.614 212.304L707.552 193.956C707.551 193.955 707.551 193.955 707.55 193.954C693.931 177.38 693.932 159.632 707.551 143.049L722.614 124.701L722.615 124.699C734.226 110.57 734.227 95.4402 722.614 81.2999L707.552 62.9519C707.551 62.9513 707.551 62.9507 707.55 62.9502C693.931 46.3757 693.932 28.6288 707.55 12.0458C707.55 12.0456 707.55 12.046 707.55 12.0458L722.615 -6.30503C734.226 -20.4337 734.227 -35.5639 722.614 -49.7042L707.552 -68.0522C707.551 -68.0528 707.551 -68.0534 707.55 -68.0539C693.931 -84.6284 693.932 -102.375 707.55 -118.958C707.55 -118.959 707.55 -118.958 707.55 -118.958L722.615 -137.309Z" fill="#FFD8A0"/>
<path fill-rule="evenodd" clip-rule="evenodd" d="M660.752 -137.309C672.363 -151.438 672.364 -166.568 660.751 -180.708L692.781 -184.461C706.4 -167.878 706.402 -150.131 692.782 -133.556C692.782 -133.556 692.782 -133.556 692.782 -133.556C692.782 -133.556 692.781 -133.555 692.781 -133.554L677.718 -115.207C666.106 -101.067 666.106 -85.9357 677.717 -71.8071L677.718 -71.8054L692.781 -53.4568C692.782 -53.4566 692.781 -53.457 692.781 -53.4568C706.4 -36.8738 706.401 -19.1263 692.782 -2.55188C692.781 -2.5513 692.781 -2.55073 692.78 -2.55015L677.718 15.7972C666.106 29.9375 666.106 45.0684 677.717 59.197L677.718 59.1987L692.781 77.5473C692.782 77.5474 692.781 77.5471 692.781 77.5473C706.4 94.1303 706.401 111.878 692.782 128.452C692.781 128.453 692.781 128.453 692.78 128.454L677.718 146.801C666.106 160.942 666.106 176.072 677.717 190.201L677.718 190.203L692.781 208.551C692.782 208.552 692.781 208.551 692.781 208.551C706.4 225.135 706.401 242.883 692.78 259.458L660.752 255.703C672.363 241.574 672.364 226.444 660.751 212.304L645.688 193.956C645.688 193.955 645.687 193.955 645.687 193.954C632.067 177.38 632.069 159.632 645.687 143.049L660.751 124.701L660.752 124.699C672.363 110.57 672.364 95.4402 660.751 81.2999L645.688 62.9519C645.688 62.9513 645.687 62.9507 645.687 62.9502C632.067 46.3757 632.069 28.6288 645.687 12.0458C645.687 12.0456 645.687 12.046 645.687 12.0458L660.752 -6.30503C672.363 -20.4337 672.364 -35.5639 660.751 -49.7042L645.688 -68.0522C645.688 -68.0528 645.687 -68.0534 645.687 -68.0539C632.067 -84.6284 632.069 -102.375 645.687 -118.958C645.687 -118.959 645.687 -118.958 645.687 -118.958L660.752 -137.309Z" fill="#FFD8A0"/>
<path d="M-43 -46V835H838L-43 -46Z" fill="#FFD8A0"/>
<path d="M529.992 283C529.992 378.755 607.617 456.381 703.373 456.381C799.128 456.381 876.753 378.755 876.753 283H529.992Z" fill="#393A3D"/>
<path d="M463.758 282.777C463.758 187.022 386.133 109.397 290.377 109.397C194.622 109.397 116.997 187.022 116.997 282.777L463.758 282.777Z" fill="#4C6600"/>
<rect x="545" y="544.699" width="121.3" height="121.3" fill="#B9E15E"/>
<rect x="717.566" y="544.699" width="121.3" height="121.3" fill="#B9E15E"/>
<rect x="890.133" y="544.699" width="121.3" height="121.3" fill="#B9E15E"/>
<rect x="1062.7" y="544.699" width="121.3" height="121.3" fill="#B9E15E"/>
<path fill-rule="evenodd" clip-rule="evenodd" d="M895.32 -9C897.523 -1.95227 900.697 5.03564 904.84 11.9106L925.165 45.6443C941.509 72.7425 941.509 101.761 925.164 128.879L904.84 162.612C887.141 191.958 887.143 223.382 904.84 252.746L925.165 286.479C941.509 313.578 941.509 342.596 925.164 369.715L904.84 403.447C887.141 432.794 887.142 464.217 904.84 493.581L926.448 490.132C910.104 463.013 910.104 433.995 926.448 406.897L946.773 373.163C964.471 343.799 964.472 312.375 946.772 283.028L926.448 249.296C910.104 222.178 910.105 193.158 926.449 166.06L946.773 132.328C964.471 102.964 964.472 71.5397 946.772 42.1928L926.448 8.46123C922.984 2.71409 920.255 -3.11845 918.259 -9H895.32Z" fill="#B9E15E"/>
<path fill-rule="evenodd" clip-rule="evenodd" d="M963.328 -9C965.531 -1.95227 968.705 5.03564 972.848 11.9106L993.173 45.6443C1009.52 72.7425 1009.52 101.761 993.172 128.879L972.848 162.612C955.149 191.958 955.15 223.382 972.848 252.746L993.173 286.479C1009.52 313.578 1009.52 342.596 993.172 369.715L972.848 403.447C955.149 432.794 955.15 464.217 972.848 493.581L994.456 490.132C978.111 463.013 978.112 433.995 994.456 406.897L1014.78 373.163C1032.48 343.799 1032.48 312.375 1014.78 283.028L994.456 249.296C978.111 222.178 978.113 193.158 994.456 166.06L1014.78 132.328C1032.48 102.964 1032.48 71.5397 1014.78 42.1928L994.456 8.46123C990.992 2.71409 988.262 -3.11845 986.267 -9H963.328Z" fill="#B9E15E"/>
<path fill-rule="evenodd" clip-rule="evenodd" d="M1031.32 -9C1033.52 -1.95227 1036.69 5.03564 1040.84 11.9106L1061.16 45.6443C1077.5 72.7425 1077.51 101.761 1061.16 128.879L1040.84 162.612C1023.14 191.958 1023.14 223.382 1040.84 252.746L1061.16 286.479C1077.5 313.578 1077.51 342.596 1061.16 369.715L1040.84 403.447C1023.14 432.794 1023.14 464.217 1040.84 493.581L1062.44 490.132C1046.1 463.013 1046.1 433.995 1062.44 406.897L1082.77 373.163C1100.47 343.799 1100.47 312.375 1082.77 283.028L1062.44 249.296C1046.1 222.178 1046.1 193.158 1062.44 166.06L1082.77 132.328C1100.47 102.964 1100.47 71.5397 1082.77 42.1928L1062.44 8.46123C1058.98 2.71409 1056.25 -3.11845 1054.26 -9H1031.32Z" fill="#B9E15E"/>
<path fill-rule="evenodd" clip-rule="evenodd" d="M1099.32 -9C1101.53 -1.95227 1104.7 5.03564 1108.84 11.9106L1129.17 45.6443C1145.51 72.7425 1145.51 101.761 1129.17 128.879L1108.84 162.612C1091.15 191.958 1091.15 223.382 1108.84 252.746L1129.17 286.479C1145.51 313.578 1145.51 342.596 1129.17 369.715L1108.84 403.447C1091.15 432.794 1091.15 464.217 1108.84 493.581L1130.45 490.132C1114.11 463.013 1114.11 433.995 1130.45 406.897L1150.78 373.163C1168.47 343.799 1168.48 312.375 1150.78 283.028L1130.45 249.296C1114.11 222.178 1114.11 193.158 1130.45 166.06L1150.78 132.328C1168.47 102.964 1168.48 71.5397 1150.78 42.1928L1130.45 8.46123C1126.99 2.71409 1124.26 -3.11845 1122.26 -9H1099.32Z" fill="#B9E15E"/>
</g>
<defs>
<filter id="filter0_d_3_1042" x="-16" y="-12" width="1216" height="698" filterUnits="userSpaceOnUse" color-interpolation-filters="sRGB">
<feFlood flood-opacity="0" result="BackgroundImageFix"/>
<feColorMatrix in="SourceAlpha" type="matrix" values="0 0 0 0 0 0 0 0 0 0 0 0 0 0 0 0 0 0 127 0" result="hardAlpha"/>
<feOffset dy="4"/>
<feGaussianBlur stdDeviation="8"/>
<feColorMatrix type="matrix" values="0 0 0 0 0 0 0 0 0 0 0 0 0 0 0 0 0 0 0.2 0"/>
<feBlend mode="normal" in2="BackgroundImageFix" result="effect1_dropShadow_3_1042"/>
<feBlend mode="normal" in="SourceGraphic" in2="effect1_dropShadow_3_1042" result="shape"/>
</filter>
<clipPath id="clip0_3_1042">
<rect width="1200" height="675" fill="white"/>
</clipPath>
</defs>
</svg>
