<svg width="1200" height="675" viewBox="0 0 1200 675" fill="none" xmlns="http://www.w3.org/2000/svg">
<g clip-path="url(#clip0_3_1020)">
<g filter="url(#filter0_d_3_1020)">
<g clip-path="url(#clip1_3_1020)">
<rect width="1184" height="666" rx="12" fill="#F4F4EF"/>
<circle cx="990.5" cy="333.5" r="448.5" fill="#FFD8A0"/>
</g>
</g>
<path fill-rule="evenodd" clip-rule="evenodd" d="M0.892594 236.999C-23.9735 222.002 -50.6025 222.001 -75.4892 237.001L-82.0938 195.628C-52.9076 178.037 -21.673 178.035 7.49808 195.627C7.49831 195.627 7.49784 195.627 7.49808 195.627C7.49885 195.628 7.50034 195.628 7.50112 195.629L39.7922 215.085C64.6788 230.084 91.3089 230.084 116.175 215.086L116.178 215.085L148.471 195.628C148.471 195.627 148.471 195.628 148.471 195.628C177.657 178.037 208.892 178.035 238.063 195.627C238.064 195.628 238.065 195.628 238.066 195.629L270.357 215.085C295.244 230.084 321.874 230.084 346.74 215.086L346.743 215.085L379.036 195.628C379.036 195.627 379.036 195.628 379.036 195.628C408.222 178.037 439.457 178.035 468.628 195.627C468.629 195.628 468.63 195.628 468.631 195.629L500.922 215.085C525.808 230.084 552.439 230.084 577.305 215.086L577.308 215.085L609.601 195.628C609.601 195.627 609.6 195.628 609.601 195.628C638.788 178.037 670.024 178.035 699.196 195.629L692.587 236.999C667.721 222.002 641.092 222.001 616.205 237.001L583.913 256.457C583.912 256.458 583.911 256.458 583.91 256.459C554.739 274.051 523.505 274.049 494.318 256.458L462.025 237.001L462.022 236.999C437.156 222.002 410.527 222.001 385.64 237.001L353.348 256.457C353.347 256.458 353.346 256.458 353.345 256.459C324.175 274.051 292.94 274.049 263.755 256.459C263.754 256.459 263.755 256.459 263.755 256.459L231.457 236.999C206.591 222.002 179.962 222.001 155.076 237.001L122.784 256.457C122.783 256.458 122.782 256.458 122.781 256.459C93.6098 274.051 62.3756 274.049 33.1897 256.459C33.1894 256.459 33.1901 256.459 33.1897 256.459L0.892594 236.999Z" fill="#B9E15E"/>
<path fill-rule="evenodd" clip-rule="evenodd" d="M0.892594 316.913C-23.9735 301.916 -50.6025 301.915 -75.4892 316.915L-82.0938 275.542C-52.9076 257.951 -21.673 257.949 7.49808 275.541C7.49831 275.541 7.49784 275.541 7.49808 275.541C7.49885 275.542 7.50034 275.542 7.50112 275.543L39.7922 294.999C64.6788 309.998 91.3089 309.998 116.175 295.001L116.178 294.999L148.471 275.542C148.471 275.542 148.471 275.542 148.471 275.542C177.657 257.951 208.892 257.949 238.063 275.541C238.064 275.542 238.065 275.542 238.066 275.543L270.357 294.999C295.244 309.998 321.874 309.998 346.74 295.001L346.743 294.999L379.036 275.542C379.036 275.542 379.036 275.542 379.036 275.542C408.222 257.951 439.457 257.949 468.628 275.541C468.629 275.542 468.63 275.542 468.631 275.543L500.922 294.999C525.808 309.998 552.439 309.998 577.305 295.001L577.308 294.999L609.601 275.542C609.601 275.542 609.6 275.542 609.601 275.542C638.788 257.951 670.024 257.949 699.196 275.543L692.587 316.913C667.721 301.916 641.092 301.915 616.205 316.915L583.913 336.371C583.912 336.372 583.911 336.372 583.91 336.373C554.739 353.965 523.505 353.963 494.318 336.372L462.025 316.915L462.022 316.913C437.156 301.916 410.527 301.915 385.64 316.915L353.348 336.371C353.347 336.372 353.346 336.372 353.345 336.373C324.175 353.965 292.94 353.963 263.755 336.373C263.754 336.373 263.755 336.373 263.755 336.373L231.457 316.913C206.591 301.916 179.962 301.915 155.076 316.915L122.784 336.371C122.783 336.372 122.782 336.372 122.781 336.373C93.6098 353.965 62.3756 353.963 33.1897 336.373C33.1894 336.373 33.1901 336.373 33.1897 336.373L0.892594 316.913Z" fill="#B9E15E"/>
<path fill-rule="evenodd" clip-rule="evenodd" d="M0.892594 396.828C-23.9735 381.83 -50.6025 381.829 -75.4892 396.829L-82.0938 355.456C-52.9076 337.865 -21.673 337.863 7.49808 355.455C7.49831 355.455 7.49784 355.455 7.49808 355.455C7.49885 355.456 7.50034 355.457 7.50112 355.457L39.7922 374.913C64.6788 389.912 91.3089 389.912 116.175 374.915L116.178 374.913L148.471 355.456C148.471 355.456 148.471 355.456 148.471 355.456C177.657 337.865 208.892 337.863 238.063 355.455C238.064 355.456 238.065 355.456 238.066 355.457L270.357 374.913C295.244 389.912 321.874 389.912 346.74 374.915L346.743 374.913L379.036 355.456C379.036 355.456 379.036 355.456 379.036 355.456C408.222 337.865 439.457 337.863 468.628 355.455C468.629 355.456 468.63 355.456 468.631 355.457L500.922 374.913C525.808 389.912 552.439 389.912 577.305 374.915L577.308 374.913L609.601 355.456C609.601 355.456 609.6 355.456 609.601 355.456C638.788 337.865 670.024 337.863 699.196 355.457L692.587 396.828C667.721 381.83 641.092 381.829 616.205 396.829L583.913 416.285C583.912 416.286 583.911 416.286 583.91 416.287C554.739 433.879 523.505 433.877 494.318 416.286L462.025 396.829L462.022 396.828C437.156 381.83 410.527 381.829 385.64 396.829L353.348 416.285C353.347 416.286 353.346 416.286 353.345 416.287C324.175 433.879 292.94 433.877 263.755 416.287C263.754 416.287 263.755 416.287 263.755 416.287L231.457 396.828C206.591 381.83 179.962 381.829 155.076 396.829L122.784 416.285C122.783 416.286 122.782 416.286 122.781 416.287C93.6098 433.879 62.3756 433.877 33.1897 416.287C33.1894 416.287 33.1901 416.287 33.1897 416.287L0.892594 396.828Z" fill="#B9E15E"/>
<path fill-rule="evenodd" clip-rule="evenodd" d="M0.892594 476.746C-23.9735 461.748 -50.6025 461.747 -75.4892 476.747L-82.0938 435.374C-52.9076 417.783 -21.673 417.781 7.49808 435.373C7.49831 435.373 7.49784 435.373 7.49808 435.373C7.49885 435.374 7.50034 435.375 7.50112 435.375L39.7922 454.831C64.6788 469.83 91.3089 469.83 116.175 454.833L116.178 454.831L148.471 435.374C148.471 435.374 148.471 435.374 148.471 435.374C177.657 417.783 208.892 417.781 238.063 435.373C238.064 435.374 238.065 435.374 238.066 435.375L270.357 454.831C295.244 469.83 321.874 469.83 346.74 454.833L346.743 454.831L379.036 435.374C379.036 435.374 379.036 435.374 379.036 435.374C408.222 417.783 439.457 417.781 468.628 435.373C468.629 435.374 468.63 435.374 468.631 435.375L500.922 454.831C525.808 469.83 552.439 469.83 577.305 454.833L577.308 454.831L609.601 435.374C609.601 435.374 609.6 435.374 609.601 435.374C638.788 417.783 670.024 417.781 699.196 435.375L692.587 476.746C667.721 461.748 641.092 461.747 616.205 476.747L583.913 496.203C583.912 496.204 583.911 496.204 583.91 496.205C554.739 513.797 523.505 513.795 494.318 496.204L462.025 476.747L462.022 476.746C437.156 461.748 410.527 461.747 385.64 476.747L353.348 496.203C353.347 496.204 353.346 496.204 353.345 496.205C324.175 513.797 292.94 513.795 263.755 496.205C263.754 496.205 263.755 496.205 263.755 496.205L231.457 476.746C206.591 461.748 179.962 461.747 155.076 476.747L122.784 496.203C122.783 496.204 122.782 496.204 122.781 496.205C93.6098 513.797 62.3756 513.795 33.1897 496.205C33.1894 496.205 33.1901 496.205 33.1897 496.205L0.892594 476.746Z" fill="#B9E15E"/>
<path fill-rule="evenodd" clip-rule="evenodd" d="M0.892594 556.66C-23.9735 541.662 -50.6025 541.661 -75.4892 556.661L-82.0938 515.288C-52.9076 497.697 -21.673 497.695 7.49808 515.287C7.49831 515.287 7.49784 515.287 7.49808 515.287C7.49885 515.288 7.50034 515.289 7.50112 515.289L39.7922 534.745C64.6788 549.745 91.3089 549.744 116.175 534.747L116.178 534.745L148.471 515.288C148.471 515.288 148.471 515.288 148.471 515.288C177.657 497.697 208.892 497.695 238.063 515.287C238.064 515.288 238.065 515.288 238.066 515.289L270.357 534.745C295.244 549.745 321.874 549.744 346.74 534.747L346.743 534.745L379.036 515.288C379.036 515.288 379.036 515.288 379.036 515.288C408.222 497.697 439.457 497.695 468.628 515.287C468.629 515.288 468.63 515.288 468.631 515.289L500.922 534.745C525.808 549.745 552.439 549.744 577.305 534.747L577.308 534.745L609.601 515.288C609.601 515.288 609.6 515.288 609.601 515.288C638.788 497.697 670.024 497.695 699.196 515.289L692.587 556.66C667.721 541.662 641.092 541.661 616.205 556.661L583.913 576.117C583.912 576.118 583.911 576.118 583.91 576.119C554.739 593.711 523.505 593.709 494.318 576.118L462.025 556.661L462.022 556.66C437.156 541.662 410.527 541.661 385.64 556.661L353.348 576.117C353.347 576.118 353.346 576.118 353.345 576.119C324.175 593.711 292.94 593.709 263.755 576.119C263.754 576.119 263.755 576.119 263.755 576.119L231.457 556.66C206.591 541.662 179.962 541.661 155.076 556.661L122.784 576.117C122.783 576.118 122.782 576.118 122.781 576.119C93.6098 593.711 62.3756 593.709 33.1897 576.119C33.1894 576.119 33.1901 576.119 33.1897 576.119L0.892594 556.66Z" fill="#B9E15E"/>
<rect x="972" y="59" width="211.73" height="27.666" fill="#F4F4EF"/>
<rect x="972" y="114.332" width="211.73" height="27.666" fill="#F4F4EF"/>
<rect x="972" y="169.664" width="211.73" height="27.666" fill="#F4F4EF"/>
<rect x="972" y="224.996" width="211.73" height="27.666" fill="#F4F4EF"/>
<rect x="972" y="280.328" width="211.73" height="27.666" fill="#F4F4EF"/>
<rect x="972" y="335.66" width="211.73" height="27.666" fill="#F4F4EF"/>
<rect x="972" y="390.992" width="211.73" height="27.666" fill="#F4F4EF"/>
<rect x="972" y="446.324" width="211.73" height="27.666" fill="#F4F4EF"/>
<circle cx="812.234" cy="207.047" r="54.1408" transform="rotate(90 812.234 207.047)" fill="#393A3D"/>
<circle cx="812.234" cy="375.485" r="54.1408" transform="rotate(90 812.234 375.485)" fill="#393A3D"/>
<circle cx="812.234" cy="543.922" r="54.1408" transform="rotate(90 812.234 543.922)" fill="#393A3D"/>
</g>
<defs>
<filter id="filter0_d_3_1020" x="-16" y="-12" width="1216" height="698" filterUnits="userSpaceOnUse" color-interpolation-filters="sRGB">
<feFlood flood-opacity="0" result="BackgroundImageFix"/>
<feColorMatrix in="SourceAlpha" type="matrix" values="0 0 0 0 0 0 0 0 0 0 0 0 0 0 0 0 0 0 127 0" result="hardAlpha"/>
<feOffset dy="4"/>
<feGaussianBlur stdDeviation="8"/>
<feColorMatrix type="matrix" values="0 0 0 0 0 0 0 0 0 0 0 0 0 0 0 0 0 0 0.2 0"/>
<feBlend mode="normal" in2="BackgroundImageFix" result="effect1_dropShadow_3_1020"/>
<feBlend mode="normal" in="SourceGraphic" in2="effect1_dropShadow_3_1020" result="shape"/>
</filter>
<clipPath id="clip0_3_1020">
<rect width="1200" height="675" fill="white"/>
</clipPath>
<clipPath id="clip1_3_1020">
<rect width="1184" height="666" rx="12" fill="white"/>
</clipPath>
</defs>
</svg>
