<svg width="1184" height="666" viewBox="0 0 1184 666" fill="none" xmlns="http://www.w3.org/2000/svg">
<g clip-path="url(#clip0_1_6088)">
<g clip-path="url(#clip1_1_6088)" filter="url(#filter0_d_1_6088)">
<rect width="1184" height="666" fill="#F4F4EF"/>
<path d="M1138 -69V721H348L1138 -69Z" fill="#FFD8A0"/>
</g>
<circle cx="45" cy="333" r="412" fill="#B9E15E"/>
<path fill-rule="evenodd" clip-rule="evenodd" d="M316.88 185.838C292.345 171.041 266.071 171.04 241.516 185.839L235 145.018C263.797 127.662 294.615 127.66 323.397 145.018C323.398 145.018 323.397 145.017 323.397 145.018C323.398 145.018 323.4 145.019 323.4 145.019L355.261 164.216C379.816 179.015 406.091 179.015 430.625 164.218L430.628 164.216L462.491 145.018C462.491 145.018 462.49 145.018 462.491 145.018C491.287 127.662 522.106 127.66 550.888 145.018C550.889 145.018 550.89 145.019 550.891 145.019L582.751 164.216C607.306 179.015 633.581 179.015 658.116 164.218L658.119 164.216L689.981 145.018C689.982 145.018 689.981 145.018 689.981 145.018C718.778 127.662 749.597 127.66 778.379 145.018C778.38 145.018 778.381 145.019 778.382 145.019L810.242 164.216C834.797 179.015 861.072 179.015 885.607 164.218L885.61 164.216L917.472 145.018C917.472 145.018 917.472 145.018 917.472 145.018C946.27 127.662 977.09 127.66 1005.87 145.019L999.352 185.838C974.817 171.041 948.543 171.04 923.989 185.839L892.127 205.036C892.126 205.037 892.125 205.038 892.124 205.038C863.342 222.396 832.524 222.394 803.727 205.038L771.864 185.84L771.861 185.838C747.327 171.041 721.053 171.04 696.498 185.839L664.636 205.036C664.635 205.037 664.634 205.038 664.633 205.038C635.851 222.396 605.034 222.394 576.237 205.038C576.237 205.038 576.237 205.038 576.237 205.038L544.371 185.838C519.836 171.041 493.562 171.04 469.007 185.839L437.146 205.036C437.145 205.037 437.144 205.038 437.143 205.038C408.361 222.396 377.543 222.394 348.746 205.038C348.746 205.038 348.747 205.038 348.746 205.038L316.88 185.838Z" fill="#4C6600"/>
<path fill-rule="evenodd" clip-rule="evenodd" d="M316.88 264.686C292.345 249.889 266.071 249.887 241.516 264.687L235 223.866C263.797 206.509 294.615 206.507 323.397 223.865C323.398 223.865 323.397 223.865 323.397 223.865C323.398 223.866 323.4 223.867 323.4 223.867L355.261 243.063C379.816 257.863 406.091 257.862 430.625 243.065L430.628 243.063L462.491 223.866C462.491 223.866 462.49 223.866 462.491 223.866C491.287 206.51 522.106 206.508 550.888 223.865C550.889 223.866 550.89 223.866 550.891 223.867L582.751 243.063C607.306 257.863 633.581 257.862 658.116 243.065L658.119 243.063L689.981 223.866C689.982 223.866 689.981 223.866 689.981 223.866C718.778 206.51 749.597 206.508 778.379 223.865C778.38 223.866 778.381 223.866 778.382 223.867L810.242 243.063C834.797 257.863 861.072 257.862 885.607 243.065L885.61 243.063L917.472 223.866C917.472 223.866 917.472 223.866 917.472 223.866C946.27 206.509 977.09 206.508 1005.87 223.867L999.352 264.686C974.817 249.889 948.543 249.887 923.989 264.687L892.127 283.884C892.126 283.885 892.125 283.885 892.124 283.886C863.342 301.244 832.524 301.242 803.727 283.885L771.864 264.688L771.861 264.686C747.327 249.889 721.053 249.887 696.498 264.687L664.636 283.884C664.635 283.885 664.634 283.885 664.633 283.886C635.851 301.243 605.034 301.242 576.237 283.886C576.237 283.886 576.237 283.886 576.237 283.886L544.371 264.686C519.836 249.889 493.562 249.887 469.007 264.687L437.146 283.884C437.145 283.885 437.144 283.885 437.143 283.886C408.361 301.243 377.543 301.242 348.746 283.886C348.746 283.886 348.747 283.886 348.746 283.886L316.88 264.686Z" fill="#4C6600"/>
<path fill-rule="evenodd" clip-rule="evenodd" d="M316.88 343.537C292.345 328.74 266.071 328.739 241.516 343.539L235 302.717C263.797 285.361 294.615 285.359 323.397 302.717C323.398 302.717 323.397 302.717 323.397 302.717C323.398 302.717 323.4 302.718 323.4 302.719L355.261 321.915C379.816 336.715 406.091 336.714 430.625 321.917L430.628 321.915L462.491 302.717C462.491 302.717 462.49 302.718 462.491 302.717C491.287 285.361 522.106 285.359 550.888 302.717C550.889 302.717 550.89 302.718 550.891 302.719L582.751 321.915C607.306 336.715 633.581 336.714 658.116 321.917L658.119 321.915L689.981 302.717C689.982 302.717 689.981 302.718 689.981 302.717C718.778 285.361 749.597 285.359 778.379 302.717C778.38 302.717 778.381 302.718 778.382 302.719L810.242 321.915C834.797 336.715 861.072 336.714 885.607 321.917L885.61 321.915L917.472 302.717C917.472 302.717 917.472 302.718 917.472 302.717C946.27 285.361 977.09 285.359 1005.87 302.719L999.352 343.537C974.817 328.74 948.543 328.739 923.989 343.539L892.127 362.736C892.126 362.736 892.125 362.737 892.124 362.737C863.342 380.095 832.524 380.093 803.727 362.737L771.864 343.539L771.861 343.537C747.327 328.74 721.053 328.739 696.498 343.539L664.636 362.736C664.635 362.736 664.634 362.737 664.633 362.737C635.851 380.095 605.034 380.093 576.237 362.737C576.237 362.737 576.237 362.738 576.237 362.737L544.371 343.537C519.836 328.74 493.562 328.739 469.007 343.539L437.146 362.736C437.145 362.736 437.144 362.737 437.143 362.737C408.361 380.095 377.543 380.093 348.746 362.737C348.746 362.737 348.747 362.738 348.746 362.737L316.88 343.537Z" fill="#4C6600"/>
<path fill-rule="evenodd" clip-rule="evenodd" d="M316.88 422.385C292.345 407.588 266.071 407.587 241.516 422.386L235 381.565C263.797 364.209 294.615 364.207 323.397 381.564C323.398 381.565 323.397 381.564 323.397 381.564C323.398 381.565 323.4 381.566 323.4 381.566L355.261 400.763C379.816 415.562 406.091 415.562 430.625 400.764L430.628 400.763L462.491 381.565C462.491 381.565 462.49 381.565 462.491 381.565C491.287 364.209 522.106 364.207 550.888 381.564C550.889 381.565 550.89 381.566 550.891 381.566L582.751 400.763C607.306 415.562 633.581 415.562 658.116 400.764L658.119 400.763L689.981 381.565C689.982 381.565 689.981 381.565 689.981 381.565C718.778 364.209 749.597 364.207 778.379 381.564C778.38 381.565 778.381 381.566 778.382 381.566L810.242 400.763C834.797 415.562 861.072 415.562 885.607 400.764L885.61 400.763L917.472 381.565C917.472 381.565 917.472 381.565 917.472 381.565C946.27 364.209 977.09 364.207 1005.87 381.566L999.352 422.385C974.817 407.588 948.543 407.587 923.989 422.386L892.127 441.583C892.126 441.584 892.125 441.584 892.124 441.585C863.342 458.943 832.524 458.941 803.727 441.584L771.864 422.387L771.861 422.385C747.327 407.588 721.053 407.587 696.498 422.386L664.636 441.583C664.635 441.584 664.634 441.584 664.633 441.585C635.851 458.943 605.034 458.941 576.237 441.585C576.237 441.585 576.237 441.585 576.237 441.585L544.371 422.385C519.836 407.588 493.562 407.587 469.007 422.386L437.146 441.583C437.145 441.584 437.144 441.584 437.143 441.585C408.361 458.943 377.543 458.941 348.746 441.585C348.746 441.585 348.747 441.585 348.746 441.585L316.88 422.385Z" fill="#4C6600"/>
<path fill-rule="evenodd" clip-rule="evenodd" d="M316.88 501.237C292.345 486.439 266.071 486.438 241.516 501.238L235 460.417C263.797 443.06 294.615 443.058 323.397 460.416C323.398 460.416 323.397 460.416 323.397 460.416C323.398 460.416 323.4 460.417 323.4 460.418L355.261 479.614C379.816 494.414 406.091 494.413 430.625 479.616L430.628 479.614L462.491 460.417C462.491 460.416 462.49 460.417 462.491 460.417C491.287 443.061 522.106 443.058 550.888 460.416C550.889 460.417 550.89 460.417 550.891 460.418L582.751 479.614C607.306 494.414 633.581 494.413 658.116 479.616L658.119 479.614L689.981 460.417C689.982 460.416 689.981 460.417 689.981 460.417C718.778 443.061 749.597 443.058 778.379 460.416C778.38 460.417 778.381 460.417 778.382 460.418L810.242 479.614C834.797 494.414 861.072 494.413 885.607 479.616L885.61 479.614L917.472 460.417C917.472 460.416 917.472 460.417 917.472 460.417C946.27 443.06 977.09 443.058 1005.87 460.418L999.352 501.237C974.817 486.439 948.543 486.438 923.989 501.238L892.127 520.435C892.126 520.435 892.125 520.436 892.124 520.437C863.342 537.794 832.524 537.793 803.727 520.436L771.864 501.239L771.861 501.237C747.327 486.439 721.053 486.438 696.498 501.238L664.636 520.435C664.635 520.435 664.634 520.436 664.633 520.437C635.851 537.794 605.034 537.793 576.237 520.437C576.237 520.436 576.237 520.437 576.237 520.437L544.371 501.237C519.836 486.439 493.562 486.438 469.007 501.238L437.146 520.435C437.145 520.435 437.144 520.436 437.143 520.437C408.361 537.794 377.543 537.793 348.746 520.437C348.746 520.436 348.747 520.437 348.746 520.437L316.88 501.237Z" fill="#4C6600"/>
<rect x="1085" y="-10" width="418" height="517" fill="#393A3D"/>
<rect x="-220" y="38" width="301.531" height="39.4" fill="#F4F4EF"/>
<rect x="-220" y="116.801" width="301.531" height="39.4" fill="#F4F4EF"/>
<rect x="-220" y="195.602" width="301.531" height="39.4" fill="#F4F4EF"/>
<rect x="-220" y="274.398" width="301.531" height="39.4" fill="#F4F4EF"/>
<rect x="-220" y="353.199" width="301.531" height="39.4" fill="#F4F4EF"/>
<rect x="-220" y="432" width="301.531" height="39.4" fill="#F4F4EF"/>
<rect x="-220" y="510.801" width="301.531" height="39.4" fill="#F4F4EF"/>
<rect x="-220" y="589.602" width="301.531" height="39.4" fill="#F4F4EF"/>
</g>
<defs>
<filter id="filter0_d_1_6088" x="-16" y="-12" width="1216" height="698" filterUnits="userSpaceOnUse" color-interpolation-filters="sRGB">
<feFlood flood-opacity="0" result="BackgroundImageFix"/>
<feColorMatrix in="SourceAlpha" type="matrix" values="0 0 0 0 0 0 0 0 0 0 0 0 0 0 0 0 0 0 127 0" result="hardAlpha"/>
<feOffset dy="4"/>
<feGaussianBlur stdDeviation="8"/>
<feColorMatrix type="matrix" values="0 0 0 0 0 0 0 0 0 0 0 0 0 0 0 0 0 0 0.2 0"/>
<feBlend mode="normal" in2="BackgroundImageFix" result="effect1_dropShadow_1_6088"/>
<feBlend mode="normal" in="SourceGraphic" in2="effect1_dropShadow_1_6088" result="shape"/>
</filter>
<clipPath id="clip0_1_6088">
<rect width="1184" height="666" fill="white"/>
</clipPath>
<clipPath id="clip1_1_6088">
<rect width="1184" height="666" fill="white"/>
</clipPath>
</defs>
</svg>
