<svg width="1200" height="675" viewBox="0 0 1200 675" fill="none" xmlns="http://www.w3.org/2000/svg">
<g clip-path="url(#clip0_3_1002)">
<g filter="url(#filter0_d_3_1002)">
<rect width="1184" height="666" rx="12" fill="#F4F4EF"/>
</g>
<rect x="360" y="160.469" width="1244.97" height="27.1021" fill="#FFD8A0"/>
<rect x="360" y="214.672" width="1244.97" height="27.1021" fill="#FFD8A0"/>
<rect x="360" y="268.879" width="1244.97" height="27.1021" fill="#FFD8A0"/>
<rect x="360" y="323.082" width="1244.97" height="27.1021" fill="#FFD8A0"/>
<rect x="360" y="377.285" width="1244.97" height="27.1021" fill="#FFD8A0"/>
<rect x="360" y="431.488" width="1244.97" height="27.1021" fill="#FFD8A0"/>
<rect x="360" y="485.695" width="1244.97" height="27.1021" fill="#FFD8A0"/>
<rect x="360" y="539.898" width="1244.97" height="27.1021" fill="#FFD8A0"/>
<path fill-rule="evenodd" clip-rule="evenodd" d="M107 849C292.568 849 443 698.568 443 513C443 327.432 292.568 177 107 177C-78.5678 177 -229 327.432 -229 513C-229 698.568 -78.5678 849 107 849ZM107 717.235C219.796 717.235 311.235 625.796 311.235 513C311.235 400.204 219.796 308.765 107 308.765C-5.79598 308.765 -97.2353 400.204 -97.2353 513C-97.2353 625.796 -5.79598 717.235 107 717.235Z" fill="#B9E15E"/>
<rect x="148" y="350.461" width="423.459" height="84.6919" transform="rotate(-90 148 350.461)" fill="#393A3D"/>
<rect x="317.383" y="350.461" width="423.459" height="84.6919" transform="rotate(-90 317.383 350.461)" fill="#393A3D"/>
<rect x="486.766" y="350.461" width="423.459" height="84.6919" transform="rotate(-90 486.766 350.461)" fill="#393A3D"/>
<path d="M905.454 290V708.454H487L905.454 290Z" fill="#4C6600"/>
<path d="M954.999 290V708.454H1373.45L954.999 290Z" fill="#4C6600"/>
</g>
<defs>
<filter id="filter0_d_3_1002" x="-16" y="-12" width="1216" height="698" filterUnits="userSpaceOnUse" color-interpolation-filters="sRGB">
<feFlood flood-opacity="0" result="BackgroundImageFix"/>
<feColorMatrix in="SourceAlpha" type="matrix" values="0 0 0 0 0 0 0 0 0 0 0 0 0 0 0 0 0 0 127 0" result="hardAlpha"/>
<feOffset dy="4"/>
<feGaussianBlur stdDeviation="8"/>
<feColorMatrix type="matrix" values="0 0 0 0 0 0 0 0 0 0 0 0 0 0 0 0 0 0 0.2 0"/>
<feBlend mode="normal" in2="BackgroundImageFix" result="effect1_dropShadow_3_1002"/>
<feBlend mode="normal" in="SourceGraphic" in2="effect1_dropShadow_3_1002" result="shape"/>
</filter>
<clipPath id="clip0_3_1002">
<rect width="1200" height="675" fill="white"/>
</clipPath>
</defs>
</svg>
