<svg width="1200" height="675" viewBox="0 0 1200 675" fill="none" xmlns="http://www.w3.org/2000/svg">
<g clip-path="url(#clip0_3_986)">
<g filter="url(#filter0_d_3_986)">
<rect width="1184" height="666" rx="12" fill="#F4F4EF"/>
</g>
<rect x="672" y="-19" width="796" height="796" fill="#FFD8A0"/>
<circle cx="171.141" cy="483.141" r="54.1408" fill="#4C6600"/>
<circle cx="339.578" cy="483.141" r="54.1408" fill="#4C6600"/>
<circle cx="508.016" cy="483.141" r="54.1408" fill="#4C6600"/>
<circle cx="676.453" cy="483.141" r="54.1408" fill="#4C6600"/>
<circle cx="844.895" cy="483.141" r="54.1408" fill="#4C6600"/>
<circle cx="1013.33" cy="483.141" r="54.1408" fill="#4C6600"/>
<path d="M174.711 189.227C258.788 273.304 395.105 273.304 479.182 189.227C563.259 105.149 563.259 -31.1671 479.182 -115.244L174.711 189.227Z" fill="#393A3D"/>
<path d="M293.711 -72.7656C209.634 -156.843 73.3173 -156.843 -10.7601 -72.7657C-94.8373 11.3116 -94.8374 147.628 -10.7601 231.705L293.711 -72.7656Z" fill="#393A3D"/>
<g opacity="0.9">
<path fill-rule="evenodd" clip-rule="evenodd" d="M880.623 125.206C855.757 110.209 829.128 110.208 804.241 125.208L797.637 83.8347C826.823 66.2436 858.057 66.2418 887.229 83.8341C887.229 83.8342 887.228 83.834 887.229 83.8341C887.229 83.8346 887.231 83.8355 887.232 83.8359L919.523 103.292C944.409 118.291 971.039 118.291 995.906 103.294L995.909 103.292L1028.2 83.8347C1028.2 83.8345 1028.2 83.8349 1028.2 83.8347C1057.39 66.2443 1088.62 66.242 1117.79 83.8341C1117.79 83.8347 1117.8 83.8353 1117.8 83.8359L1150.09 103.292C1174.97 118.291 1201.6 118.291 1226.47 103.294L1226.47 103.292L1258.77 83.8347C1258.77 83.8345 1258.77 83.8349 1258.77 83.8347C1287.95 66.2442 1319.19 66.242 1348.36 83.8341C1348.36 83.8347 1348.36 83.8353 1348.36 83.8359L1380.65 103.292C1405.54 118.291 1432.17 118.291 1457.04 103.294L1457.04 103.292L1489.33 83.8347C1489.33 83.8345 1489.33 83.8349 1489.33 83.8347C1518.52 66.2436 1549.75 66.242 1578.93 83.8359L1572.32 125.206C1547.45 110.209 1520.82 110.208 1495.94 125.208L1463.64 144.664C1463.64 144.665 1463.64 144.665 1463.64 144.666C1434.47 162.258 1403.23 162.256 1374.05 144.665L1341.76 125.208L1341.75 125.206C1316.89 110.209 1290.26 110.208 1265.37 125.208L1233.08 144.664C1233.08 144.665 1233.08 144.665 1233.08 144.666C1203.91 162.258 1172.67 162.256 1143.49 144.666C1143.48 144.666 1143.49 144.666 1143.49 144.666L1111.19 125.206C1086.32 110.209 1059.69 110.208 1034.81 125.208L1002.51 144.664C1002.51 144.665 1002.51 144.665 1002.51 144.666C973.34 162.258 942.106 162.256 912.92 144.666C912.92 144.666 912.921 144.666 912.92 144.666L880.623 125.206Z" fill="#F4F4EF"/>
<path fill-rule="evenodd" clip-rule="evenodd" d="M880.623 205.121C855.757 190.123 829.128 190.122 804.241 205.122L797.637 163.749C826.823 146.158 858.057 146.156 887.229 163.748C887.229 163.748 887.228 163.748 887.229 163.748C887.229 163.749 887.231 163.75 887.232 163.75L919.523 183.206C944.409 198.205 971.039 198.205 995.906 183.208L995.909 183.206L1028.2 163.749C1028.2 163.749 1028.2 163.749 1028.2 163.749C1057.39 146.158 1088.62 146.156 1117.79 163.748C1117.79 163.749 1117.8 163.749 1117.8 163.75L1150.09 183.206C1174.97 198.205 1201.6 198.205 1226.47 183.208L1226.47 183.206L1258.77 163.749C1258.77 163.749 1258.77 163.749 1258.77 163.749C1287.95 146.158 1319.19 146.156 1348.36 163.748C1348.36 163.749 1348.36 163.749 1348.36 163.75L1380.65 183.206C1405.54 198.205 1432.17 198.205 1457.04 183.208L1457.04 183.206L1489.33 163.749C1489.33 163.749 1489.33 163.749 1489.33 163.749C1518.52 146.158 1549.75 146.156 1578.93 163.75L1572.32 205.121C1547.45 190.123 1520.82 190.122 1495.94 205.122L1463.64 224.578C1463.64 224.579 1463.64 224.579 1463.64 224.58C1434.47 242.172 1403.23 242.17 1374.05 224.579L1341.76 205.122L1341.75 205.121C1316.89 190.123 1290.26 190.122 1265.37 205.122L1233.08 224.578C1233.08 224.579 1233.08 224.579 1233.08 224.58C1203.91 242.172 1172.67 242.17 1143.49 224.58C1143.48 224.58 1143.49 224.58 1143.49 224.58L1111.19 205.121C1086.32 190.123 1059.69 190.122 1034.81 205.122L1002.51 224.578C1002.51 224.579 1002.51 224.579 1002.51 224.58C973.34 242.172 942.106 242.17 912.92 224.58C912.92 224.58 912.921 224.58 912.92 224.58L880.623 205.121Z" fill="#F4F4EF"/>
<path fill-rule="evenodd" clip-rule="evenodd" d="M880.623 285.035C855.757 270.037 829.128 270.036 804.241 285.036L797.637 243.663C826.823 226.072 858.057 226.07 887.229 243.662C887.229 243.662 887.228 243.662 887.229 243.662C887.229 243.663 887.231 243.664 887.232 243.664L919.523 263.12C944.409 278.12 971.039 278.119 995.906 263.122L995.909 263.12L1028.2 243.663C1028.2 243.663 1028.2 243.663 1028.2 243.663C1057.39 226.072 1088.62 226.07 1117.79 243.662C1117.79 243.663 1117.8 243.663 1117.8 243.664L1150.09 263.12C1174.97 278.12 1201.6 278.119 1226.47 263.122L1226.47 263.12L1258.77 243.663C1258.77 243.663 1258.77 243.663 1258.77 243.663C1287.95 226.072 1319.19 226.07 1348.36 243.662C1348.36 243.663 1348.36 243.663 1348.36 243.664L1380.65 263.12C1405.54 278.12 1432.17 278.119 1457.04 263.122L1457.04 263.12L1489.33 243.663C1489.33 243.663 1489.33 243.663 1489.33 243.663C1518.52 226.072 1549.75 226.07 1578.93 243.664L1572.32 285.035C1547.45 270.037 1520.82 270.036 1495.94 285.036L1463.64 304.492C1463.64 304.493 1463.64 304.493 1463.64 304.494C1434.47 322.086 1403.23 322.084 1374.05 304.493L1341.76 285.036L1341.75 285.035C1316.89 270.037 1290.26 270.036 1265.37 285.036L1233.08 304.492C1233.08 304.493 1233.08 304.493 1233.08 304.494C1203.91 322.086 1172.67 322.084 1143.49 304.494C1143.48 304.494 1143.49 304.494 1143.49 304.494L1111.19 285.035C1086.32 270.037 1059.69 270.036 1034.81 285.036L1002.51 304.492C1002.51 304.493 1002.51 304.493 1002.51 304.494C973.34 322.086 942.106 322.084 912.92 304.494C912.92 304.494 912.921 304.494 912.92 304.494L880.623 285.035Z" fill="#F4F4EF"/>
</g>
</g>
<defs>
<filter id="filter0_d_3_986" x="-16" y="-12" width="1216" height="698" filterUnits="userSpaceOnUse" color-interpolation-filters="sRGB">
<feFlood flood-opacity="0" result="BackgroundImageFix"/>
<feColorMatrix in="SourceAlpha" type="matrix" values="0 0 0 0 0 0 0 0 0 0 0 0 0 0 0 0 0 0 127 0" result="hardAlpha"/>
<feOffset dy="4"/>
<feGaussianBlur stdDeviation="8"/>
<feColorMatrix type="matrix" values="0 0 0 0 0 0 0 0 0 0 0 0 0 0 0 0 0 0 0.2 0"/>
<feBlend mode="normal" in2="BackgroundImageFix" result="effect1_dropShadow_3_986"/>
<feBlend mode="normal" in="SourceGraphic" in2="effect1_dropShadow_3_986" result="shape"/>
</filter>
<clipPath id="clip0_3_986">
<rect width="1200" height="675" fill="white"/>
</clipPath>
</defs>
</svg>
