<svg width="1184" height="666" viewBox="0 0 1184 666" fill="none" xmlns="http://www.w3.org/2000/svg">
<g clip-path="url(#clip0_1_6042)">
<g clip-path="url(#clip1_1_6042)" filter="url(#filter0_d_1_6042)">
<rect width="1184" height="666" fill="#F4F4EF"/>
<circle cx="990.5" cy="333.5" r="448.5" fill="#FFD8A0"/>
</g>
<path fill-rule="evenodd" clip-rule="evenodd" d="M0.879863 233.838C-23.6547 219.041 -49.9287 219.04 -74.4835 233.839L-81 193.018C-52.203 175.662 -21.3849 175.66 7.39727 193.018C7.3975 193.018 7.39704 193.017 7.39727 193.018C7.39804 193.018 7.39951 193.019 7.40027 193.019L39.2608 212.216C63.8156 227.015 90.0906 227.015 114.625 212.218L114.628 212.216L146.491 193.018C146.491 193.018 146.49 193.018 146.491 193.018C175.287 175.662 206.106 175.66 234.888 193.018C234.889 193.018 234.89 193.019 234.891 193.019L266.751 212.216C291.306 227.015 317.581 227.015 342.116 212.218L342.119 212.216L373.981 193.018C373.982 193.018 373.981 193.018 373.981 193.018C402.778 175.662 433.597 175.66 462.379 193.018C462.38 193.018 462.381 193.019 462.382 193.019L494.242 212.216C518.797 227.015 545.072 227.015 569.607 212.218L569.61 212.216L601.472 193.018C601.472 193.018 601.472 193.018 601.472 193.018C630.27 175.662 661.09 175.66 689.872 193.019L683.352 233.838C658.817 219.041 632.543 219.04 607.989 233.839L576.127 253.036C576.126 253.037 576.125 253.038 576.124 253.038C547.342 270.396 516.524 270.394 487.727 253.038L455.864 233.84L455.861 233.838C431.327 219.041 405.053 219.04 380.498 233.839L348.636 253.036C348.635 253.037 348.634 253.038 348.633 253.038C319.851 270.396 289.034 270.394 260.237 253.038C260.237 253.038 260.237 253.038 260.237 253.038L228.371 233.838C203.836 219.041 177.562 219.04 153.007 233.839L121.146 253.036C121.145 253.037 121.144 253.038 121.143 253.038C92.3608 270.396 61.5431 270.394 32.7464 253.038C32.746 253.038 32.7467 253.038 32.7464 253.038L0.879863 233.838Z" fill="#B9E15E"/>
<path fill-rule="evenodd" clip-rule="evenodd" d="M0.879863 312.686C-23.6547 297.889 -49.9287 297.887 -74.4835 312.687L-81 271.866C-52.203 254.509 -21.3849 254.507 7.39727 271.865C7.3975 271.865 7.39704 271.865 7.39727 271.865C7.39804 271.866 7.39951 271.867 7.40027 271.867L39.2608 291.063C63.8156 305.863 90.0906 305.862 114.625 291.065L114.628 291.063L146.491 271.866C146.491 271.866 146.49 271.866 146.491 271.866C175.287 254.51 206.106 254.508 234.888 271.865C234.889 271.866 234.89 271.866 234.891 271.867L266.751 291.063C291.306 305.863 317.581 305.862 342.116 291.065L342.119 291.063L373.981 271.866C373.982 271.866 373.981 271.866 373.981 271.866C402.778 254.51 433.597 254.508 462.379 271.865C462.38 271.866 462.381 271.866 462.382 271.867L494.242 291.063C518.797 305.863 545.072 305.862 569.607 291.065L569.61 291.063L601.472 271.866C601.472 271.866 601.472 271.866 601.472 271.866C630.27 254.509 661.09 254.508 689.872 271.867L683.352 312.686C658.817 297.889 632.543 297.887 607.989 312.687L576.127 331.884C576.126 331.885 576.125 331.885 576.124 331.886C547.342 349.244 516.524 349.242 487.727 331.885L455.864 312.688L455.861 312.686C431.327 297.889 405.053 297.887 380.498 312.687L348.636 331.884C348.635 331.885 348.634 331.885 348.633 331.886C319.851 349.243 289.034 349.242 260.237 331.886C260.237 331.886 260.237 331.886 260.237 331.886L228.371 312.686C203.836 297.889 177.562 297.887 153.007 312.687L121.146 331.884C121.145 331.885 121.144 331.885 121.143 331.886C92.3608 349.243 61.5431 349.242 32.7464 331.886C32.746 331.886 32.7467 331.886 32.7464 331.886L0.879863 312.686Z" fill="#B9E15E"/>
<path fill-rule="evenodd" clip-rule="evenodd" d="M0.879863 391.537C-23.6547 376.74 -49.9287 376.739 -74.4835 391.539L-81 350.717C-52.203 333.361 -21.3849 333.359 7.39727 350.717C7.3975 350.717 7.39704 350.717 7.39727 350.717C7.39804 350.717 7.39951 350.718 7.40027 350.719L39.2608 369.915C63.8156 384.715 90.0906 384.714 114.625 369.917L114.628 369.915L146.491 350.717C146.491 350.717 146.49 350.718 146.491 350.717C175.287 333.361 206.106 333.359 234.888 350.717C234.889 350.717 234.89 350.718 234.891 350.719L266.751 369.915C291.306 384.715 317.581 384.714 342.116 369.917L342.119 369.915L373.981 350.717C373.982 350.717 373.981 350.718 373.981 350.717C402.778 333.361 433.597 333.359 462.379 350.717C462.38 350.717 462.381 350.718 462.382 350.719L494.242 369.915C518.797 384.715 545.072 384.714 569.607 369.917L569.61 369.915L601.472 350.717C601.472 350.717 601.472 350.718 601.472 350.717C630.27 333.361 661.09 333.359 689.872 350.719L683.352 391.537C658.817 376.74 632.543 376.739 607.989 391.539L576.127 410.736C576.126 410.736 576.125 410.737 576.124 410.737C547.342 428.095 516.524 428.093 487.727 410.737L455.864 391.539L455.861 391.537C431.327 376.74 405.053 376.739 380.498 391.539L348.636 410.736C348.635 410.736 348.634 410.737 348.633 410.737C319.851 428.095 289.034 428.093 260.237 410.737C260.237 410.737 260.237 410.738 260.237 410.737L228.371 391.537C203.836 376.74 177.562 376.739 153.007 391.539L121.146 410.736C121.145 410.736 121.144 410.737 121.143 410.737C92.3608 428.095 61.5431 428.093 32.7464 410.737C32.746 410.737 32.7467 410.738 32.7464 410.737L0.879863 391.537Z" fill="#B9E15E"/>
<path fill-rule="evenodd" clip-rule="evenodd" d="M0.879863 470.385C-23.6547 455.588 -49.9287 455.587 -74.4835 470.386L-81 429.565C-52.203 412.209 -21.3849 412.207 7.39727 429.564C7.3975 429.565 7.39704 429.564 7.39727 429.564C7.39804 429.565 7.39951 429.566 7.40027 429.566L39.2608 448.763C63.8156 463.562 90.0906 463.562 114.625 448.764L114.628 448.763L146.491 429.565C146.491 429.565 146.49 429.565 146.491 429.565C175.287 412.209 206.106 412.207 234.888 429.564C234.889 429.565 234.89 429.566 234.891 429.566L266.751 448.763C291.306 463.562 317.581 463.562 342.116 448.764L342.119 448.763L373.981 429.565C373.982 429.565 373.981 429.565 373.981 429.565C402.778 412.209 433.597 412.207 462.379 429.564C462.38 429.565 462.381 429.566 462.382 429.566L494.242 448.763C518.797 463.562 545.072 463.562 569.607 448.764L569.61 448.763L601.472 429.565C601.472 429.565 601.472 429.565 601.472 429.565C630.27 412.209 661.09 412.207 689.872 429.566L683.352 470.385C658.817 455.588 632.543 455.587 607.989 470.386L576.127 489.583C576.126 489.584 576.125 489.584 576.124 489.585C547.342 506.943 516.524 506.941 487.727 489.584L455.864 470.387L455.861 470.385C431.327 455.588 405.053 455.587 380.498 470.386L348.636 489.583C348.635 489.584 348.634 489.584 348.633 489.585C319.851 506.943 289.034 506.941 260.237 489.585C260.237 489.585 260.237 489.585 260.237 489.585L228.371 470.385C203.836 455.588 177.562 455.587 153.007 470.386L121.146 489.583C121.145 489.584 121.144 489.584 121.143 489.585C92.3608 506.943 61.5431 506.941 32.7464 489.585C32.746 489.585 32.7467 489.585 32.7464 489.585L0.879863 470.385Z" fill="#B9E15E"/>
<path fill-rule="evenodd" clip-rule="evenodd" d="M0.879863 549.237C-23.6547 534.439 -49.9287 534.438 -74.4835 549.238L-81 508.417C-52.203 491.06 -21.3849 491.058 7.39727 508.416C7.3975 508.416 7.39704 508.416 7.39727 508.416C7.39804 508.416 7.39951 508.417 7.40027 508.418L39.2608 527.614C63.8156 542.414 90.0906 542.413 114.625 527.616L114.628 527.614L146.491 508.417C146.491 508.416 146.49 508.417 146.491 508.417C175.287 491.061 206.106 491.058 234.888 508.416C234.889 508.417 234.89 508.417 234.891 508.418L266.751 527.614C291.306 542.414 317.581 542.413 342.116 527.616L342.119 527.614L373.981 508.417C373.982 508.416 373.981 508.417 373.981 508.417C402.778 491.061 433.597 491.058 462.379 508.416C462.38 508.417 462.381 508.417 462.382 508.418L494.242 527.614C518.797 542.414 545.072 542.413 569.607 527.616L569.61 527.614L601.472 508.417C601.472 508.416 601.472 508.417 601.472 508.417C630.27 491.06 661.09 491.058 689.872 508.418L683.352 549.237C658.817 534.439 632.543 534.438 607.989 549.238L576.127 568.435C576.126 568.435 576.125 568.436 576.124 568.437C547.342 585.794 516.524 585.793 487.727 568.436L455.864 549.239L455.861 549.237C431.327 534.439 405.053 534.438 380.498 549.238L348.636 568.435C348.635 568.435 348.634 568.436 348.633 568.437C319.851 585.794 289.034 585.793 260.237 568.437C260.237 568.436 260.237 568.437 260.237 568.437L228.371 549.237C203.836 534.439 177.562 534.438 153.007 549.238L121.146 568.435C121.145 568.435 121.144 568.436 121.143 568.437C92.3608 585.794 61.5431 585.793 32.7464 568.437C32.746 568.436 32.7467 568.437 32.7464 568.437L0.879863 549.237Z" fill="#B9E15E"/>
<rect x="972" y="59" width="211.73" height="27.666" fill="#F4F4EF"/>
<rect x="972" y="114.332" width="211.73" height="27.666" fill="#F4F4EF"/>
<rect x="972" y="169.664" width="211.73" height="27.666" fill="#F4F4EF"/>
<rect x="972" y="224.996" width="211.73" height="27.666" fill="#F4F4EF"/>
<rect x="972" y="280.328" width="211.73" height="27.666" fill="#F4F4EF"/>
<rect x="972" y="335.66" width="211.73" height="27.666" fill="#F4F4EF"/>
<rect x="972" y="390.992" width="211.73" height="27.666" fill="#F4F4EF"/>
<rect x="972" y="446.324" width="211.73" height="27.666" fill="#F4F4EF"/>
<circle cx="812.234" cy="207.047" r="54.1408" transform="rotate(90 812.234 207.047)" fill="#393A3D"/>
<circle cx="812.234" cy="375.485" r="54.1408" transform="rotate(90 812.234 375.485)" fill="#393A3D"/>
<circle cx="812.234" cy="543.922" r="54.1408" transform="rotate(90 812.234 543.922)" fill="#393A3D"/>
</g>
<defs>
<filter id="filter0_d_1_6042" x="-16" y="-12" width="1216" height="698" filterUnits="userSpaceOnUse" color-interpolation-filters="sRGB">
<feFlood flood-opacity="0" result="BackgroundImageFix"/>
<feColorMatrix in="SourceAlpha" type="matrix" values="0 0 0 0 0 0 0 0 0 0 0 0 0 0 0 0 0 0 127 0" result="hardAlpha"/>
<feOffset dy="4"/>
<feGaussianBlur stdDeviation="8"/>
<feColorMatrix type="matrix" values="0 0 0 0 0 0 0 0 0 0 0 0 0 0 0 0 0 0 0.2 0"/>
<feBlend mode="normal" in2="BackgroundImageFix" result="effect1_dropShadow_1_6042"/>
<feBlend mode="normal" in="SourceGraphic" in2="effect1_dropShadow_1_6042" result="shape"/>
</filter>
<clipPath id="clip0_1_6042">
<rect width="1184" height="666" fill="white"/>
</clipPath>
<clipPath id="clip1_1_6042">
<rect width="1184" height="666" fill="white"/>
</clipPath>
</defs>
</svg>
