<svg width="1184" height="666" viewBox="0 0 1184 666" fill="none" xmlns="http://www.w3.org/2000/svg">
<g clip-path="url(#clip0_1_5990)">
<g clip-path="url(#clip1_1_5990)" filter="url(#filter0_d_1_5990)">
<rect width="1184" height="666" fill="#F4F4EF"/>
<path d="M792 -61C792 68.2345 896.989 173 1026.5 173C1156.01 173 1261 68.2345 1261 -61H792Z" fill="#B9E15E"/>
</g>
<circle cx="248" cy="192" r="344" fill="#4C6600"/>
<path d="M873.816 346.637L1117.88 766.158H629.756L873.816 346.637Z" fill="#FFD8A0"/>
<path d="M1170.82 769.363L926.757 349.842L1414.88 349.842L1170.82 769.363Z" fill="#FFD8A0"/>
<path fill-rule="evenodd" clip-rule="evenodd" d="M129.124 151C131.572 158.869 135.108 166.671 139.734 174.346L162.295 211.79C180.436 241.869 180.436 274.08 162.294 304.181L139.734 341.624C120.088 374.199 120.09 409.079 139.734 441.673L162.295 479.117C180.436 509.196 180.436 541.407 162.294 571.508L139.734 608.951C120.088 641.526 120.089 676.406 139.734 709L163.719 705.171C145.576 675.07 145.577 642.86 163.718 612.781L186.279 575.336C205.924 542.742 205.925 507.861 186.278 475.286L163.719 437.844C145.576 407.743 145.578 375.531 163.719 345.452L186.279 308.009C205.924 275.415 205.925 240.534 186.278 207.959L163.719 170.517C159.847 164.094 156.802 157.574 154.583 151H129.124Z" fill="#B9E15E"/>
<path fill-rule="evenodd" clip-rule="evenodd" d="M204.604 151C207.051 158.869 210.588 166.671 215.214 174.346L237.774 211.79C255.916 241.869 255.916 274.08 237.773 304.181L215.213 341.624C195.568 374.199 195.569 409.079 215.214 441.673L237.774 479.117C255.916 509.196 255.916 541.407 237.773 571.508L215.213 608.951C195.568 641.526 195.569 676.406 215.214 709L239.198 705.171C221.056 675.07 221.057 642.86 239.198 612.781L261.759 575.336C281.404 542.742 281.404 507.861 261.758 475.286L239.198 437.844C221.056 407.743 221.058 375.531 239.199 345.452L261.759 308.009C281.404 275.414 281.404 240.534 261.758 207.959L239.198 170.517C235.327 164.094 232.282 157.574 230.063 151H204.604Z" fill="#B9E15E"/>
<path fill-rule="evenodd" clip-rule="evenodd" d="M280.082 151C282.53 158.869 286.066 166.671 290.692 174.346L313.253 211.79C331.394 241.869 331.394 274.08 313.252 304.181L290.692 341.624C271.046 374.199 271.048 409.079 290.692 441.673L313.253 479.117C331.394 509.196 331.394 541.407 313.252 571.508L290.692 608.951C271.046 641.526 271.047 676.406 290.692 709L314.677 705.171C296.534 675.07 296.535 642.86 314.676 612.781L337.237 575.336C356.882 542.742 356.883 507.861 337.236 475.286L314.677 437.844C296.534 407.743 296.536 375.531 314.677 345.452L337.237 308.009C356.882 275.414 356.883 240.534 337.236 207.959L314.677 170.517C310.805 164.094 307.76 157.574 305.541 151H280.082Z" fill="#B9E15E"/>
<path fill-rule="evenodd" clip-rule="evenodd" d="M355.577 151C358.025 158.869 361.561 166.671 366.187 174.346L388.748 211.79C406.889 241.869 406.89 274.08 388.747 304.181L366.187 341.624C346.541 374.199 346.543 409.079 366.187 441.673L388.748 479.117C406.889 509.196 406.89 541.407 388.747 571.508L366.187 608.951C346.541 641.526 346.542 676.406 366.187 709L390.172 705.171C372.029 675.07 372.03 642.86 390.171 612.781L412.732 575.336C432.377 542.742 432.378 507.861 412.731 475.286L390.172 437.844C372.029 407.743 372.031 375.531 390.172 345.452L412.732 308.009C432.377 275.414 432.378 240.534 412.731 207.959L390.172 170.517C386.301 164.094 383.255 157.574 381.036 151H355.577Z" fill="#B9E15E"/>
<path fill-rule="evenodd" clip-rule="evenodd" d="M431.056 151C433.503 158.869 437.04 166.671 441.666 174.346L464.226 211.79C482.368 241.869 482.368 274.08 464.225 304.181L441.665 341.624C422.02 374.199 422.021 409.079 441.666 441.673L464.226 479.117C482.368 509.196 482.368 541.407 464.225 571.508L441.665 608.951C422.02 641.526 422.021 676.406 441.666 709L465.651 705.171C447.508 675.07 447.509 642.86 465.65 612.781L488.211 575.336C507.856 542.742 507.856 507.861 488.21 475.286L465.651 437.844C447.508 407.743 447.51 375.531 465.651 345.452L488.211 308.009C507.856 275.414 507.856 240.534 488.21 207.959L465.651 170.517C461.779 164.094 458.734 157.574 456.515 151H431.056Z" fill="#B9E15E"/>
<rect x="686" y="217" width="89.2705" height="89.2705" fill="#393A3D"/>
<rect x="813" y="217" width="89.2705" height="89.2705" fill="#393A3D"/>
<rect x="940" y="217" width="89.2705" height="89.2705" fill="#393A3D"/>
<rect x="1067" y="217" width="89.2705" height="89.2705" fill="#393A3D"/>
</g>
<defs>
<filter id="filter0_d_1_5990" x="-16" y="-12" width="1216" height="698" filterUnits="userSpaceOnUse" color-interpolation-filters="sRGB">
<feFlood flood-opacity="0" result="BackgroundImageFix"/>
<feColorMatrix in="SourceAlpha" type="matrix" values="0 0 0 0 0 0 0 0 0 0 0 0 0 0 0 0 0 0 127 0" result="hardAlpha"/>
<feOffset dy="4"/>
<feGaussianBlur stdDeviation="8"/>
<feColorMatrix type="matrix" values="0 0 0 0 0 0 0 0 0 0 0 0 0 0 0 0 0 0 0.2 0"/>
<feBlend mode="normal" in2="BackgroundImageFix" result="effect1_dropShadow_1_5990"/>
<feBlend mode="normal" in="SourceGraphic" in2="effect1_dropShadow_1_5990" result="shape"/>
</filter>
<clipPath id="clip0_1_5990">
<rect width="1184" height="666" fill="white"/>
</clipPath>
<clipPath id="clip1_1_5990">
<rect width="1184" height="666" fill="white"/>
</clipPath>
</defs>
</svg>
