<svg width="1200" height="675" viewBox="0 0 1200 675" fill="none" xmlns="http://www.w3.org/2000/svg">
<g clip-path="url(#clip0_3_915)">
<g filter="url(#filter0_d_3_915)">
<g clip-path="url(#clip1_3_915)">
<rect width="1184" height="666" rx="12" fill="#F4F4EF"/>
<path d="M792 -61C792 68.2345 896.989 173 1026.5 173C1156.01 173 1261 68.2345 1261 -61H792Z" fill="#B9E15E"/>
</g>
</g>
<circle cx="248" cy="192" r="344" fill="#4C6600"/>
<path d="M873.816 346.637L1117.88 766.158H629.756L873.816 346.637Z" fill="#FFD8A0"/>
<path d="M1170.82 769.363L926.757 349.842L1414.88 349.842L1170.82 769.363Z" fill="#FFD8A0"/>
<path fill-rule="evenodd" clip-rule="evenodd" d="M130.257 151C132.745 159.667 136.533 168.26 141.621 176.702L164.486 214.652C182.873 245.138 182.873 277.784 164.485 308.292L141.62 346.241C121.709 379.256 121.711 414.607 141.621 447.641L164.486 485.592C182.873 516.077 182.873 548.723 164.485 579.231L141.62 617.181C121.709 650.195 121.71 685.547 141.621 718.581L165.93 714.701C147.542 684.193 147.543 651.547 165.929 621.062L188.795 583.111C208.705 550.076 208.706 514.724 188.794 481.709L165.93 443.761C147.542 413.253 147.544 380.606 165.93 350.12L188.795 312.171C208.705 279.136 208.706 243.785 188.794 210.769L165.93 172.821C161.606 165.647 158.299 158.355 156.008 151H130.257Z" fill="#B9E15E"/>
<path fill-rule="evenodd" clip-rule="evenodd" d="M206.757 151C209.245 159.667 213.033 168.26 218.121 176.702L240.986 214.652C259.373 245.138 259.373 277.784 240.985 308.292L218.12 346.241C198.209 379.255 198.211 414.607 218.121 447.641L240.986 485.592C259.373 516.077 259.373 548.723 240.985 579.231L218.12 617.18C198.209 650.195 198.21 685.547 218.121 718.581L242.43 714.701C224.042 684.192 224.043 651.547 242.429 621.062L265.295 583.111C285.205 550.076 285.206 514.724 265.294 481.709L242.43 443.761C224.042 413.253 224.044 380.606 242.43 350.12L265.295 312.171C285.205 279.136 285.206 243.784 265.294 210.769L242.43 172.821C238.106 165.647 234.799 158.355 232.508 151H206.757Z" fill="#B9E15E"/>
<path fill-rule="evenodd" clip-rule="evenodd" d="M283.257 151C285.745 159.667 289.533 168.26 294.621 176.702L317.486 214.652C335.873 245.138 335.873 277.784 317.485 308.292L294.62 346.241C274.709 379.255 274.711 414.607 294.621 447.641L317.486 485.592C335.873 516.077 335.873 548.723 317.485 579.231L294.62 617.18C274.709 650.195 274.71 685.547 294.621 718.581L318.93 714.701C300.542 684.192 300.543 651.547 318.929 621.062L341.795 583.111C361.705 550.076 361.706 514.724 341.794 481.709L318.93 443.761C300.542 413.253 300.544 380.606 318.93 350.12L341.795 312.171C361.705 279.136 361.706 243.784 341.794 210.769L318.93 172.821C314.606 165.647 311.299 158.355 309.008 151H283.257Z" fill="#B9E15E"/>
<path fill-rule="evenodd" clip-rule="evenodd" d="M359.769 151C362.257 159.667 366.044 168.26 371.132 176.702L393.998 214.652C412.384 245.138 412.385 277.784 393.997 308.292L371.132 346.241C351.221 379.255 351.222 414.607 371.132 447.641L393.998 485.592C412.384 516.077 412.385 548.723 393.997 579.231L371.132 617.18C351.221 650.195 351.222 685.547 371.132 718.581L395.441 714.701C377.054 684.192 377.054 651.547 395.441 621.062L418.307 583.111C438.217 550.076 438.218 514.724 418.306 481.709L395.441 443.761C377.054 413.253 377.055 380.606 395.442 350.12L418.307 312.171C438.217 279.136 438.218 243.784 418.306 210.769L395.441 172.821C391.117 165.647 387.81 158.355 385.52 151H359.769Z" fill="#B9E15E"/>
<path fill-rule="evenodd" clip-rule="evenodd" d="M436.269 151C438.757 159.667 442.544 168.26 447.632 176.702L470.498 214.652C488.884 245.138 488.885 277.784 470.497 308.292L447.632 346.241C427.721 379.255 427.722 414.607 447.632 447.641L470.498 485.592C488.884 516.077 488.885 548.723 470.497 579.231L447.632 617.18C427.721 650.195 427.722 685.547 447.632 718.581L471.941 714.701C453.554 684.192 453.554 651.547 471.941 621.062L494.807 583.111C514.717 550.076 514.718 514.724 494.806 481.709L471.941 443.761C453.554 413.253 453.555 380.606 471.942 350.12L494.807 312.171C514.717 279.136 514.718 243.784 494.806 210.769L471.941 172.821C467.617 165.647 464.31 158.355 462.02 151H436.269Z" fill="#B9E15E"/>
<rect x="686" y="192" width="89.2705" height="89.2705" fill="#393A3D"/>
<rect x="813" y="192" width="89.2705" height="89.2705" fill="#393A3D"/>
<rect x="940" y="192" width="89.2705" height="89.2705" fill="#393A3D"/>
<rect x="1067" y="192" width="89.2705" height="89.2705" fill="#393A3D"/>
</g>
<defs>
<filter id="filter0_d_3_915" x="-16" y="-12" width="1216" height="698" filterUnits="userSpaceOnUse" color-interpolation-filters="sRGB">
<feFlood flood-opacity="0" result="BackgroundImageFix"/>
<feColorMatrix in="SourceAlpha" type="matrix" values="0 0 0 0 0 0 0 0 0 0 0 0 0 0 0 0 0 0 127 0" result="hardAlpha"/>
<feOffset dy="4"/>
<feGaussianBlur stdDeviation="8"/>
<feColorMatrix type="matrix" values="0 0 0 0 0 0 0 0 0 0 0 0 0 0 0 0 0 0 0.2 0"/>
<feBlend mode="normal" in2="BackgroundImageFix" result="effect1_dropShadow_3_915"/>
<feBlend mode="normal" in="SourceGraphic" in2="effect1_dropShadow_3_915" result="shape"/>
</filter>
<clipPath id="clip0_3_915">
<rect width="1200" height="675" fill="white"/>
</clipPath>
<clipPath id="clip1_3_915">
<rect width="1184" height="666" rx="12" fill="white"/>
</clipPath>
</defs>
</svg>
