<svg width="1200" height="675" viewBox="0 0 1200 675" fill="none" xmlns="http://www.w3.org/2000/svg">
<g clip-path="url(#clip0_3_1245)">
<g filter="url(#filter0_d_3_1245)">
<g clip-path="url(#clip1_3_1245)">
<rect width="1184" height="666" rx="12" fill="#F4F4EF"/>
<path d="M1138 -69V721H348L1138 -69Z" fill="#FFD8A0"/>
</g>
</g>
<circle cx="45" cy="333" r="412" fill="#B9E15E"/>
<path fill-rule="evenodd" clip-rule="evenodd" d="M321.162 188.351C296.296 173.354 269.667 173.352 244.78 188.352L238.176 146.979C267.362 129.388 298.597 129.386 327.768 146.979C327.768 146.979 327.767 146.978 327.768 146.979C327.768 146.979 327.77 146.98 327.771 146.98L360.062 166.436C384.948 181.436 411.578 181.435 436.445 166.438L436.448 166.436L468.741 146.979C468.741 146.979 468.74 146.979 468.741 146.979C497.926 129.389 529.162 129.387 558.332 146.979C558.333 146.979 558.334 146.98 558.336 146.98L590.627 166.436C615.513 181.436 642.143 181.435 667.009 166.438L667.012 166.436L699.306 146.979C699.306 146.979 699.305 146.979 699.306 146.979C728.491 129.389 759.727 129.386 788.897 146.979C788.898 146.979 788.899 146.98 788.9 146.98L821.191 166.436C846.078 181.436 872.708 181.435 897.574 166.438L897.577 166.436L929.87 146.979C929.871 146.979 929.87 146.979 929.87 146.979C959.057 129.388 990.294 129.387 1019.47 146.98L1012.86 188.351C987.99 173.354 961.362 173.352 936.475 188.352L904.183 207.809C904.182 207.809 904.181 207.81 904.18 207.81C875.009 225.403 843.774 225.401 814.588 207.81L782.295 188.353L782.292 188.351C757.426 173.354 730.797 173.352 705.91 188.352L673.618 207.809C673.617 207.809 673.616 207.81 673.615 207.81C644.444 225.403 613.21 225.401 584.024 207.81C584.024 207.81 584.024 207.811 584.024 207.81L551.727 188.351C526.861 173.354 500.232 173.352 475.345 188.352L443.053 207.809C443.052 207.809 443.051 207.81 443.05 207.81C413.879 225.403 382.645 225.401 353.459 207.81C353.459 207.81 353.46 207.811 353.459 207.81L321.162 188.351Z" fill="#4C6600"/>
<path fill-rule="evenodd" clip-rule="evenodd" d="M321.162 268.265C296.296 253.268 269.667 253.267 244.78 268.266L238.176 226.893C267.362 209.302 298.597 209.3 327.768 226.893C327.768 226.893 327.767 226.893 327.768 226.893C327.768 226.893 327.77 226.894 327.771 226.895L360.062 246.35C384.948 261.35 411.578 261.349 436.445 246.352L436.448 246.35L468.741 226.893C468.741 226.893 468.74 226.894 468.741 226.893C497.926 209.303 529.162 209.301 558.332 226.893C558.333 226.893 558.334 226.894 558.336 226.895L590.627 246.35C615.513 261.35 642.143 261.349 667.009 246.352L667.012 246.35L699.306 226.893C699.306 226.893 699.305 226.894 699.306 226.893C728.491 209.303 759.727 209.301 788.897 226.893C788.898 226.893 788.899 226.894 788.9 226.895L821.191 246.35C846.078 261.35 872.708 261.349 897.574 246.352L897.577 246.35L929.87 226.893C929.871 226.893 929.87 226.894 929.87 226.893C959.057 209.302 990.294 209.301 1019.47 226.895L1012.86 268.265C987.99 253.268 961.362 253.267 936.475 268.266L904.183 287.723C904.182 287.723 904.181 287.724 904.18 287.724C875.009 305.317 843.774 305.315 814.588 287.724L782.295 268.267L782.292 268.265C757.426 253.268 730.797 253.267 705.91 268.266L673.618 287.723C673.617 287.723 673.616 287.724 673.615 287.724C644.444 305.317 613.21 305.315 584.024 287.724C584.024 287.724 584.024 287.725 584.024 287.724L551.727 268.265C526.861 253.268 500.232 253.267 475.345 268.266L443.053 287.723C443.052 287.723 443.051 287.724 443.05 287.724C413.879 305.317 382.645 305.315 353.459 287.724C353.459 287.724 353.46 287.725 353.459 287.724L321.162 268.265Z" fill="#4C6600"/>
<path fill-rule="evenodd" clip-rule="evenodd" d="M321.162 348.179C296.296 333.182 269.667 333.181 244.78 348.18L238.176 306.807C267.362 289.216 298.597 289.214 327.768 306.807C327.768 306.807 327.767 306.807 327.768 306.807C327.768 306.807 327.77 306.808 327.771 306.809L360.062 326.264C384.948 341.264 411.578 341.263 436.445 326.266L436.448 326.264L468.741 306.807C468.741 306.807 468.74 306.808 468.741 306.807C497.926 289.217 529.162 289.215 558.332 306.807C558.333 306.807 558.334 306.808 558.336 306.809L590.627 326.264C615.513 341.264 642.143 341.263 667.009 326.266L667.012 326.264L699.306 306.807C699.306 306.807 699.305 306.808 699.306 306.807C728.491 289.217 759.727 289.215 788.897 306.807C788.898 306.807 788.899 306.808 788.9 306.809L821.191 326.264C846.078 341.264 872.708 341.263 897.574 326.266L897.577 326.264L929.87 306.807C929.871 306.807 929.87 306.808 929.87 306.807C959.057 289.216 990.294 289.215 1019.47 306.809L1012.86 348.179C987.99 333.182 961.362 333.181 936.475 348.18L904.183 367.637C904.182 367.637 904.181 367.638 904.18 367.639C875.009 385.231 843.774 385.229 814.588 367.638L782.295 348.181L782.292 348.179C757.426 333.182 730.797 333.181 705.91 348.18L673.618 367.637C673.617 367.637 673.616 367.638 673.615 367.639C644.444 385.231 613.21 385.229 584.024 367.639C584.024 367.638 584.024 367.639 584.024 367.639L551.727 348.179C526.861 333.182 500.232 333.181 475.345 348.18L443.053 367.637C443.052 367.637 443.051 367.638 443.05 367.639C413.879 385.231 382.645 385.229 353.459 367.639C353.459 367.638 353.46 367.639 353.459 367.639L321.162 348.179Z" fill="#4C6600"/>
<path fill-rule="evenodd" clip-rule="evenodd" d="M321.162 428.097C296.296 413.1 269.667 413.099 244.78 428.098L238.176 386.725C267.362 369.134 298.597 369.132 327.768 386.725C327.768 386.725 327.767 386.725 327.768 386.725C327.768 386.725 327.77 386.726 327.771 386.727L360.062 406.182C384.948 421.182 411.578 421.181 436.445 406.184L436.448 406.182L468.741 386.725C468.741 386.725 468.74 386.726 468.741 386.725C497.926 369.135 529.162 369.133 558.332 386.725C558.333 386.725 558.334 386.726 558.336 386.727L590.627 406.182C615.513 421.182 642.143 421.181 667.009 406.184L667.012 406.182L699.306 386.725C699.306 386.725 699.305 386.726 699.306 386.725C728.491 369.135 759.727 369.133 788.897 386.725C788.898 386.725 788.899 386.726 788.9 386.727L821.191 406.182C846.078 421.182 872.708 421.181 897.574 406.184L897.577 406.182L929.87 386.725C929.871 386.725 929.87 386.726 929.87 386.725C959.057 369.134 990.294 369.133 1019.47 386.727L1012.86 428.097C987.99 413.1 961.362 413.099 936.475 428.098L904.183 447.555C904.182 447.555 904.181 447.556 904.18 447.556C875.009 465.149 843.774 465.147 814.588 447.556L782.295 428.099L782.292 428.097C757.426 413.1 730.797 413.099 705.91 428.098L673.618 447.555C673.617 447.555 673.616 447.556 673.615 447.556C644.444 465.149 613.21 465.147 584.024 447.556C584.024 447.556 584.024 447.557 584.024 447.556L551.727 428.097C526.861 413.1 500.232 413.099 475.345 428.098L443.053 447.555C443.052 447.555 443.051 447.556 443.05 447.556C413.879 465.149 382.645 465.147 353.459 447.556C353.459 447.556 353.46 447.557 353.459 447.556L321.162 428.097Z" fill="#4C6600"/>
<path fill-rule="evenodd" clip-rule="evenodd" d="M321.162 508.011C296.296 493.014 269.667 493.013 244.78 508.012L238.176 466.639C267.362 449.048 298.597 449.046 327.768 466.639C327.768 466.639 327.767 466.639 327.768 466.639C327.768 466.639 327.77 466.64 327.771 466.641L360.062 486.096C384.948 501.096 411.578 501.095 436.445 486.098L436.448 486.096L468.741 466.639C468.741 466.639 468.74 466.64 468.741 466.639C497.926 449.049 529.162 449.047 558.332 466.639C558.333 466.639 558.334 466.64 558.336 466.641L590.627 486.096C615.513 501.096 642.143 501.095 667.009 486.098L667.012 486.096L699.306 466.639C699.306 466.639 699.305 466.64 699.306 466.639C728.491 449.049 759.727 449.047 788.897 466.639C788.898 466.639 788.899 466.64 788.9 466.641L821.191 486.096C846.078 501.096 872.708 501.095 897.574 486.098L897.577 486.096L929.87 466.639C929.871 466.639 929.87 466.64 929.87 466.639C959.057 449.048 990.294 449.047 1019.47 466.641L1012.86 508.011C987.99 493.014 961.362 493.013 936.475 508.012L904.183 527.469C904.182 527.469 904.181 527.47 904.18 527.471C875.009 545.063 843.774 545.061 814.588 527.47L782.295 508.013L782.292 508.011C757.426 493.014 730.797 493.013 705.91 508.012L673.618 527.469C673.617 527.469 673.616 527.47 673.615 527.471C644.444 545.063 613.21 545.061 584.024 527.471C584.024 527.47 584.024 527.471 584.024 527.471L551.727 508.011C526.861 493.014 500.232 493.013 475.345 508.012L443.053 527.469C443.052 527.469 443.051 527.47 443.05 527.471C413.879 545.063 382.645 545.061 353.459 527.471C353.459 527.47 353.46 527.471 353.459 527.471L321.162 508.011Z" fill="#4C6600"/>
<rect x="1085" y="-10" width="418" height="517" fill="#393A3D"/>
<rect x="-220" y="38" width="301.531" height="39.4" fill="#F4F4EF"/>
<rect x="-220" y="116.801" width="301.531" height="39.4" fill="#F4F4EF"/>
<rect x="-220" y="195.602" width="301.531" height="39.4" fill="#F4F4EF"/>
<rect x="-220" y="274.398" width="301.531" height="39.4" fill="#F4F4EF"/>
<rect x="-220" y="353.199" width="301.531" height="39.4" fill="#F4F4EF"/>
<rect x="-220" y="432" width="301.531" height="39.4" fill="#F4F4EF"/>
<rect x="-220" y="510.801" width="301.531" height="39.4" fill="#F4F4EF"/>
<rect x="-220" y="589.602" width="301.531" height="39.4" fill="#F4F4EF"/>
</g>
<defs>
<filter id="filter0_d_3_1245" x="-16" y="-12" width="1216" height="698" filterUnits="userSpaceOnUse" color-interpolation-filters="sRGB">
<feFlood flood-opacity="0" result="BackgroundImageFix"/>
<feColorMatrix in="SourceAlpha" type="matrix" values="0 0 0 0 0 0 0 0 0 0 0 0 0 0 0 0 0 0 127 0" result="hardAlpha"/>
<feOffset dy="4"/>
<feGaussianBlur stdDeviation="8"/>
<feColorMatrix type="matrix" values="0 0 0 0 0 0 0 0 0 0 0 0 0 0 0 0 0 0 0.2 0"/>
<feBlend mode="normal" in2="BackgroundImageFix" result="effect1_dropShadow_3_1245"/>
<feBlend mode="normal" in="SourceGraphic" in2="effect1_dropShadow_3_1245" result="shape"/>
</filter>
<clipPath id="clip0_3_1245">
<rect width="1200" height="675" fill="white"/>
</clipPath>
<clipPath id="clip1_3_1245">
<rect width="1184" height="666" rx="12" fill="white"/>
</clipPath>
</defs>
</svg>
