<svg width="1184" height="666" viewBox="0 0 1184 666" fill="none" xmlns="http://www.w3.org/2000/svg">
<rect width="1184" height="666" fill="#F4F4EF"/>
<path d="M1011.1 0C1011.1 272.33 790.33 493.096 518 493.096V666C885.822 666 1184 367.822 1184 0H1011.1Z" fill="#B9E15E"/>
<rect width="612" height="666" fill="#FFD8A0"/>
<circle cx="306" cy="333" r="162" fill="#B9E15E"/>
<path fill-rule="evenodd" clip-rule="evenodd" d="M991.5 549C1033.2 549 1067 515.197 1067 473.5C1067 431.803 1033.2 398 991.5 398C949.803 398 916 431.803 916 473.5C916 515.197 949.803 549 991.5 549ZM991.5 535.676C1025.84 535.676 1053.68 507.839 1053.68 473.5C1053.68 439.161 1025.84 411.324 991.5 411.324C957.161 411.324 929.324 439.161 929.324 473.5C929.324 507.839 957.161 535.676 991.5 535.676Z" fill="#393A3D"/>
<path fill-rule="evenodd" clip-rule="evenodd" d="M59.7349 214.949C41.0612 199.511 21.0645 199.51 2.377 214.949L0 194.538C20.2349 177.821 41.8892 177.82 62.1122 194.538C62.1126 194.538 62.1118 194.538 62.1122 194.538L85.3577 213.736C104.045 229.175 124.042 229.175 142.716 213.737L165.962 194.538C165.962 194.538 165.962 194.539 165.962 194.538C186.197 177.821 207.852 177.82 228.074 194.538C228.075 194.538 228.074 194.538 228.074 194.538L251.32 213.736C270.007 229.175 290.005 229.175 308.678 213.737L331.924 194.538C331.925 194.538 331.924 194.539 331.924 194.538C352.159 177.821 373.814 177.82 394.037 194.538C394.037 194.538 394.036 194.538 394.037 194.538L417.282 213.736C435.97 229.175 455.967 229.175 474.64 213.737L497.887 194.538C518.122 177.821 539.777 177.82 560 194.539L557.622 214.949C538.948 199.511 518.951 199.51 500.264 214.949L477.019 234.147C477.018 234.147 477.019 234.146 477.019 234.147C456.796 250.865 435.14 250.865 414.905 234.147L391.66 214.949C372.987 199.512 352.989 199.51 334.301 214.949L311.057 234.147C290.833 250.866 269.179 250.865 248.944 234.148C248.944 234.147 248.944 234.148 248.944 234.148L225.698 214.949C207.025 199.512 187.027 199.51 168.339 214.949L145.094 234.147C124.871 250.866 103.217 250.865 82.9815 234.148C82.9814 234.147 82.9816 234.148 82.9815 234.148L59.7349 214.949Z" fill="#4C6600"/>
<path fill-rule="evenodd" clip-rule="evenodd" d="M59.7349 293.796C41.0612 278.358 21.0645 278.358 2.377 293.797L0 273.386C20.2349 256.669 41.8892 256.668 62.1122 273.386C62.1126 273.386 62.1118 273.386 62.1122 273.386L85.3577 292.584C104.045 308.023 124.042 308.023 142.716 292.585L165.962 273.386C165.962 273.386 165.962 273.386 165.962 273.386C186.197 256.669 207.852 256.668 228.074 273.386C228.075 273.386 228.074 273.386 228.074 273.386L251.32 292.584C270.007 308.023 290.005 308.023 308.678 292.585L331.924 273.386C331.925 273.386 331.924 273.386 331.924 273.386C352.159 256.669 373.814 256.668 394.037 273.386C394.037 273.386 394.036 273.386 394.037 273.386L417.282 292.584C435.97 308.023 455.967 308.023 474.64 292.585L497.887 273.386C518.122 256.668 539.777 256.668 560 273.387L557.622 293.796C538.948 278.358 518.951 278.358 500.264 293.797L477.019 312.994C477.018 312.995 477.019 312.994 477.019 312.994C456.796 329.712 435.14 329.712 414.905 312.995L391.66 293.797C372.987 278.359 352.989 278.358 334.301 293.797L311.057 312.994C290.833 329.713 269.179 329.713 248.944 312.995C248.944 312.995 248.944 312.995 248.944 312.995L225.698 293.797C207.025 278.359 187.027 278.358 168.339 293.797L145.094 312.994C124.871 329.713 103.217 329.713 82.9815 312.995C82.9814 312.995 82.9816 312.995 82.9815 312.995L59.7349 293.796Z" fill="#4C6600"/>
<path fill-rule="evenodd" clip-rule="evenodd" d="M59.7349 372.648C41.0612 357.21 21.0645 357.209 2.377 372.648L0 352.238C20.2349 335.52 41.8892 335.519 62.1122 352.237C62.1126 352.238 62.1118 352.237 62.1122 352.237L85.3577 371.436C104.045 386.875 124.042 386.874 142.716 371.436L165.962 352.238C165.962 352.238 165.962 352.238 165.962 352.238C186.197 335.521 207.852 335.519 228.074 352.237C228.075 352.238 228.074 352.237 228.074 352.237L251.32 371.436C270.007 386.875 290.005 386.874 308.678 371.436L331.924 352.238C331.925 352.238 331.924 352.238 331.924 352.238C352.159 335.521 373.814 335.519 394.037 352.237C394.037 352.238 394.036 352.237 394.037 352.237L417.282 371.436C435.97 386.875 455.967 386.874 474.64 371.436L497.887 352.238C518.122 335.52 539.777 335.519 560 352.238L557.622 372.648C538.948 357.21 518.951 357.209 500.264 372.648L477.019 391.846C477.018 391.846 477.019 391.846 477.019 391.846C456.796 408.564 435.14 408.564 414.905 391.847L391.66 372.649C372.987 357.211 352.989 357.209 334.301 372.648L311.057 391.846C290.833 408.565 269.179 408.564 248.944 391.847C248.944 391.847 248.944 391.847 248.944 391.847L225.698 372.649C207.025 357.211 187.027 357.209 168.339 372.648L145.094 391.846C124.871 408.565 103.217 408.564 82.9815 391.847C82.9814 391.847 82.9816 391.847 82.9815 391.847L59.7349 372.648Z" fill="#4C6600"/>
<path fill-rule="evenodd" clip-rule="evenodd" d="M59.7349 451.495C41.0612 436.058 21.0645 436.057 2.377 451.496L0 431.085C20.2349 414.368 41.8892 414.367 62.1122 431.085C62.1126 431.085 62.1118 431.085 62.1122 431.085L85.3577 450.283C104.045 465.722 124.042 465.722 142.716 450.284L165.962 431.085C165.962 431.085 165.962 431.085 165.962 431.085C186.197 414.368 207.852 414.367 228.074 431.085C228.075 431.085 228.074 431.085 228.074 431.085L251.32 450.283C270.007 465.722 290.005 465.722 308.678 450.284L331.924 431.085C331.925 431.085 331.924 431.085 331.924 431.085C352.159 414.368 373.814 414.367 394.037 431.085C394.037 431.085 394.036 431.085 394.037 431.085L417.282 450.283C435.97 465.722 455.967 465.722 474.64 450.284L497.887 431.085C518.122 414.368 539.777 414.367 560 431.086L557.622 451.495C538.948 436.058 518.951 436.057 500.264 451.496L477.019 470.694C477.018 470.694 477.019 470.693 477.019 470.694C456.796 487.412 435.14 487.412 414.905 470.694L391.66 451.496C372.987 436.058 352.989 436.057 334.301 451.496L311.057 470.694C290.833 487.412 269.179 487.412 248.944 470.694C248.944 470.694 248.944 470.695 248.944 470.694L225.698 451.496C207.025 436.058 187.027 436.057 168.339 451.496L145.094 470.694C124.871 487.412 103.217 487.412 82.9815 470.694C82.9814 470.694 82.9816 470.695 82.9815 470.694L59.7349 451.495Z" fill="#4C6600"/>
</svg>
