<svg width="1200" height="675" viewBox="0 0 1200 675" fill="none" xmlns="http://www.w3.org/2000/svg">
<g clip-path="url(#clip0_3_1202)">
<g filter="url(#filter0_d_3_1202)">
<g clip-path="url(#clip1_3_1202)">
<rect width="1184" height="666" rx="12" fill="#F4F4EF"/>
<path d="M-63 472C-63 628.849 64.1511 756 221 756C377.849 756 505 628.849 505 472H-63Z" fill="#FFD8A0"/>
</g>
</g>
<path fill-rule="evenodd" clip-rule="evenodd" d="M853.256 329.23C828.39 314.233 801.761 314.231 776.874 329.231L770.27 287.858C799.456 270.267 830.69 270.265 859.861 287.858C859.862 287.858 859.861 287.857 859.861 287.858C859.862 287.858 859.864 287.859 859.864 287.859L892.155 307.315C917.042 322.315 943.672 322.314 968.538 307.317L968.541 307.315L1000.83 287.858C1000.83 287.858 1000.83 287.858 1000.83 287.858C1030.02 270.268 1061.26 270.265 1090.43 287.858C1090.43 287.858 1090.43 287.859 1090.43 287.859L1122.72 307.315C1147.61 322.315 1174.24 322.314 1199.1 307.317L1199.11 307.315L1231.4 287.858C1231.4 287.858 1231.4 287.858 1231.4 287.858C1260.59 270.268 1291.82 270.265 1320.99 287.858C1320.99 287.858 1320.99 287.859 1320.99 287.859L1353.29 307.315C1378.17 322.315 1404.8 322.314 1429.67 307.317L1429.67 307.315L1461.96 287.858C1461.96 287.858 1461.96 287.858 1461.96 287.858C1491.15 270.267 1522.39 270.265 1551.56 287.859L1544.95 329.23C1520.08 314.233 1493.46 314.231 1468.57 329.231L1436.28 348.687C1436.28 348.688 1436.27 348.689 1436.27 348.689C1407.1 366.282 1375.87 366.28 1346.68 348.689L1314.39 329.232L1314.39 329.23C1289.52 314.233 1262.89 314.231 1238 329.231L1205.71 348.687C1205.71 348.688 1205.71 348.689 1205.71 348.689C1176.54 366.281 1145.3 366.28 1116.12 348.689C1116.12 348.689 1116.12 348.689 1116.12 348.689L1083.82 329.23C1058.95 314.233 1032.33 314.231 1007.44 329.231L975.147 348.687C975.146 348.688 975.145 348.689 975.144 348.689C945.973 366.281 914.739 366.28 885.553 348.689C885.553 348.689 885.553 348.689 885.553 348.689L853.256 329.23Z" fill="#B9E15E"/>
<path fill-rule="evenodd" clip-rule="evenodd" d="M853.256 409.144C828.39 394.147 801.761 394.145 776.874 409.145L770.27 367.772C799.456 350.181 830.69 350.179 859.861 367.772C859.862 367.772 859.861 367.771 859.861 367.772C859.862 367.772 859.864 367.773 859.864 367.773L892.155 387.229C917.042 402.229 943.672 402.228 968.538 387.231L968.541 387.229L1000.83 367.772C1000.83 367.772 1000.83 367.772 1000.83 367.772C1030.02 350.182 1061.26 350.179 1090.43 367.772C1090.43 367.772 1090.43 367.773 1090.43 367.773L1122.72 387.229C1147.61 402.229 1174.24 402.228 1199.1 387.231L1199.11 387.229L1231.4 367.772C1231.4 367.772 1231.4 367.772 1231.4 367.772C1260.59 350.182 1291.82 350.179 1320.99 367.772C1320.99 367.772 1320.99 367.773 1320.99 367.773L1353.29 387.229C1378.17 402.229 1404.8 402.228 1429.67 387.231L1429.67 387.229L1461.96 367.772C1461.96 367.772 1461.96 367.772 1461.96 367.772C1491.15 350.181 1522.39 350.179 1551.56 367.773L1544.95 409.144C1520.08 394.147 1493.46 394.145 1468.57 409.145L1436.28 428.602C1436.28 428.602 1436.27 428.603 1436.27 428.603C1407.1 446.196 1375.87 446.194 1346.68 428.603L1314.39 409.146L1314.39 409.144C1289.52 394.147 1262.89 394.145 1238 409.145L1205.71 428.602C1205.71 428.602 1205.71 428.603 1205.71 428.603C1176.54 446.195 1145.3 446.194 1116.12 428.603C1116.12 428.603 1116.12 428.604 1116.12 428.603L1083.82 409.144C1058.95 394.147 1032.33 394.145 1007.44 409.145L975.147 428.602C975.146 428.602 975.145 428.603 975.144 428.603C945.973 446.195 914.739 446.194 885.553 428.603C885.553 428.603 885.553 428.604 885.553 428.603L853.256 409.144Z" fill="#B9E15E"/>
<path fill-rule="evenodd" clip-rule="evenodd" d="M853.256 489.058C828.39 474.061 801.761 474.059 776.874 489.059L770.27 447.686C799.456 430.095 830.69 430.093 859.861 447.686C859.862 447.686 859.861 447.686 859.861 447.686C859.862 447.686 859.864 447.687 859.864 447.687L892.155 467.143C917.042 482.143 943.672 482.142 968.538 467.145L968.541 467.143L1000.83 447.686C1000.83 447.686 1000.83 447.686 1000.83 447.686C1030.02 430.096 1061.26 430.094 1090.43 447.686C1090.43 447.686 1090.43 447.687 1090.43 447.687L1122.72 467.143C1147.61 482.143 1174.24 482.142 1199.1 467.145L1199.11 467.143L1231.4 447.686C1231.4 447.686 1231.4 447.686 1231.4 447.686C1260.59 430.096 1291.82 430.094 1320.99 447.686C1320.99 447.686 1320.99 447.687 1320.99 447.687L1353.29 467.143C1378.17 482.143 1404.8 482.142 1429.67 467.145L1429.67 467.143L1461.96 447.686C1461.96 447.686 1461.96 447.686 1461.96 447.686C1491.15 430.095 1522.39 430.094 1551.56 447.687L1544.95 489.058C1520.08 474.061 1493.46 474.059 1468.57 489.059L1436.28 508.516C1436.28 508.516 1436.27 508.517 1436.27 508.517C1407.1 526.11 1375.87 526.108 1346.68 508.517L1314.39 489.06L1314.39 489.058C1289.52 474.061 1262.89 474.059 1238 489.059L1205.71 508.516C1205.71 508.516 1205.71 508.517 1205.71 508.517C1176.54 526.11 1145.3 526.108 1116.12 508.517C1116.12 508.517 1116.12 508.518 1116.12 508.517L1083.82 489.058C1058.95 474.061 1032.33 474.059 1007.44 489.059L975.147 508.516C975.146 508.516 975.145 508.517 975.144 508.517C945.973 526.11 914.739 526.108 885.553 508.517C885.553 508.517 885.553 508.518 885.553 508.517L853.256 489.058Z" fill="#B9E15E"/>
<path fill-rule="evenodd" clip-rule="evenodd" d="M853.256 568.976C828.39 553.979 801.761 553.977 776.874 568.977L770.27 527.604C799.456 510.013 830.69 510.011 859.861 527.604C859.862 527.604 859.861 527.603 859.861 527.604C859.862 527.604 859.864 527.605 859.864 527.605L892.155 547.061C917.042 562.061 943.672 562.06 968.538 547.063L968.541 547.061L1000.83 527.604C1000.83 527.604 1000.83 527.604 1000.83 527.604C1030.02 510.014 1061.26 510.012 1090.43 527.604C1090.43 527.604 1090.43 527.605 1090.43 527.605L1122.72 547.061C1147.61 562.061 1174.24 562.06 1199.1 547.063L1199.11 547.061L1231.4 527.604C1231.4 527.604 1231.4 527.604 1231.4 527.604C1260.59 510.014 1291.82 510.011 1320.99 527.604C1320.99 527.604 1320.99 527.605 1320.99 527.605L1353.29 547.061C1378.17 562.061 1404.8 562.06 1429.67 547.063L1429.67 547.061L1461.96 527.604C1461.96 527.604 1461.96 527.604 1461.96 527.604C1491.15 510.013 1522.39 510.012 1551.56 527.605L1544.95 568.976C1520.08 553.979 1493.46 553.977 1468.57 568.977L1436.28 588.434C1436.28 588.434 1436.27 588.435 1436.27 588.435C1407.1 606.028 1375.87 606.026 1346.68 588.435L1314.39 568.978L1314.39 568.976C1289.52 553.979 1262.89 553.977 1238 568.977L1205.71 588.434C1205.71 588.434 1205.71 588.435 1205.71 588.435C1176.54 606.028 1145.3 606.026 1116.12 588.435C1116.12 588.435 1116.12 588.436 1116.12 588.435L1083.82 568.976C1058.95 553.979 1032.33 553.977 1007.44 568.977L975.147 588.434C975.146 588.434 975.145 588.435 975.144 588.435C945.973 606.028 914.739 606.026 885.553 588.435C885.553 588.435 885.553 588.436 885.553 588.435L853.256 568.976Z" fill="#B9E15E"/>
<path d="M1106.76 224.379C1106.76 128.623 1029.13 50.9983 933.377 50.9983C837.622 50.9983 759.997 128.624 759.997 224.379L1106.76 224.379Z" fill="#FFD8A0"/>
<path d="M112 -123V399H-410L112 -123Z" fill="#4C6600"/>
<path d="M175 -123V399H697L175 -123Z" fill="#B9E15E"/>
<circle cx="198.897" cy="550.897" r="23.8972" fill="#393A3D"/>
<circle cx="273.245" cy="550.897" r="23.8972" fill="#393A3D"/>
<circle cx="347.592" cy="550.897" r="23.8972" fill="#393A3D"/>
<circle cx="421.936" cy="550.897" r="23.8972" fill="#393A3D"/>
<circle cx="496.284" cy="550.897" r="23.8972" fill="#393A3D"/>
<circle cx="570.632" cy="550.897" r="23.8972" fill="#393A3D"/>
<path fill-rule="evenodd" clip-rule="evenodd" d="M862.14 224C864.244 231.813 867.587 239.56 872.169 247.162L891.627 279.457C907.274 305.4 907.274 333.181 891.626 359.143L872.169 391.437C855.225 419.532 855.226 449.616 872.169 477.727L891.627 510.022C907.274 535.965 907.274 563.746 891.626 589.708L872.169 622.002C855.225 650.097 855.225 680.181 872.169 708.292L892.855 704.99C877.208 679.028 877.208 651.247 892.855 625.305L912.313 593.009C929.257 564.897 929.257 534.813 912.312 506.718L892.855 474.425C877.208 448.463 877.209 420.681 892.856 394.738L912.313 362.444C929.257 334.332 929.257 304.248 912.312 276.153L892.855 243.86C888.923 237.336 885.979 230.696 884.023 224H862.14Z" fill="#393A3D"/>
<path fill-rule="evenodd" clip-rule="evenodd" d="M927.241 224C929.345 231.813 932.688 239.56 937.27 247.162L956.729 279.457C972.375 305.4 972.375 333.181 956.728 359.143L937.27 391.437C920.326 419.532 920.327 449.616 937.27 477.727L956.729 510.022C972.375 535.965 972.375 563.746 956.728 589.708L937.27 622.002C920.326 650.097 920.327 680.181 937.27 708.292L957.957 704.99C942.309 679.028 942.31 651.247 957.956 625.305L977.415 593.009C994.358 564.897 994.359 534.813 977.414 506.718L957.957 474.425C942.309 448.463 942.311 420.681 957.957 394.738L977.415 362.444C994.358 334.332 994.359 304.248 977.414 276.153L957.957 243.86C954.024 237.336 951.08 230.696 949.125 224H927.241Z" fill="#393A3D"/>
<path fill-rule="evenodd" clip-rule="evenodd" d="M992.347 224C994.451 231.813 997.794 239.56 1002.38 247.162L1021.83 279.457C1037.48 305.4 1037.48 333.181 1021.83 359.143L1002.38 391.437C985.432 419.532 985.433 449.616 1002.38 477.727L1021.83 510.022C1037.48 535.965 1037.48 563.746 1021.83 589.708L1002.38 622.002C985.432 650.097 985.433 680.181 1002.38 708.292L1023.06 704.99C1007.41 679.028 1007.42 651.247 1023.06 625.305L1042.52 593.009C1059.46 564.897 1059.46 534.813 1042.52 506.718L1023.06 474.425C1007.41 448.463 1007.42 420.681 1023.06 394.738L1042.52 362.444C1059.46 334.332 1059.46 304.248 1042.52 276.153L1023.06 243.86C1019.13 237.336 1016.19 230.696 1014.23 224H992.347Z" fill="#393A3D"/>
</g>
<defs>
<filter id="filter0_d_3_1202" x="-16" y="-12" width="1216" height="698" filterUnits="userSpaceOnUse" color-interpolation-filters="sRGB">
<feFlood flood-opacity="0" result="BackgroundImageFix"/>
<feColorMatrix in="SourceAlpha" type="matrix" values="0 0 0 0 0 0 0 0 0 0 0 0 0 0 0 0 0 0 127 0" result="hardAlpha"/>
<feOffset dy="4"/>
<feGaussianBlur stdDeviation="8"/>
<feColorMatrix type="matrix" values="0 0 0 0 0 0 0 0 0 0 0 0 0 0 0 0 0 0 0.2 0"/>
<feBlend mode="normal" in2="BackgroundImageFix" result="effect1_dropShadow_3_1202"/>
<feBlend mode="normal" in="SourceGraphic" in2="effect1_dropShadow_3_1202" result="shape"/>
</filter>
<clipPath id="clip0_3_1202">
<rect width="1200" height="675" fill="white"/>
</clipPath>
<clipPath id="clip1_3_1202">
<rect width="1184" height="666" rx="12" fill="white"/>
</clipPath>
</defs>
</svg>
