<svg width="1200" height="675" viewBox="0 0 1200 675" fill="none" xmlns="http://www.w3.org/2000/svg">
<g clip-path="url(#clip0_3_1173)">
<g filter="url(#filter0_d_3_1173)">
<rect width="1184" height="666" rx="12" fill="#F4F4EF"/>
</g>
<circle cx="82.5" cy="229.5" r="30.5" fill="#FFD8A0"/>
<circle cx="176.5" cy="229.5" r="30.5" fill="#FFD8A0"/>
<circle cx="271.5" cy="229.5" r="30.5" fill="#FFD8A0"/>
<circle cx="365.5" cy="229.5" r="30.5" fill="#FFD8A0"/>
<circle cx="460.5" cy="229.5" r="30.5" fill="#FFD8A0"/>
<circle cx="554.5" cy="229.5" r="30.5" fill="#FFD8A0"/>
<circle cx="649.5" cy="229.5" r="30.5" fill="#FFD8A0"/>
<circle cx="743.5" cy="229.5" r="30.5" fill="#FFD8A0"/>
<rect x="-50" y="315" width="418.454" height="418.454" fill="#B9E15E"/>
<rect x="444" y="315" width="209.227" height="418.454" fill="#B9E15E"/>
<circle cx="669.578" cy="423.141" r="54.1408" fill="#FFD8A0"/>
<circle cx="838.016" cy="423.141" r="54.1408" fill="#FFD8A0"/>
<circle cx="1006.45" cy="423.141" r="54.1408" fill="#FFD8A0"/>
<circle cx="1174.89" cy="423.141" r="54.1408" fill="#FFD8A0"/>
<path fill-rule="evenodd" clip-rule="evenodd" d="M939.405 178.327C913.463 162.681 885.682 162.68 859.72 178.328L856.418 157.642C884.53 140.698 914.613 140.697 942.708 157.641C942.709 157.642 942.708 157.641 942.708 157.641L975.002 177.099C1000.96 192.746 1028.75 192.746 1054.69 177.1L1086.98 157.642C1086.98 157.641 1086.98 157.642 1086.98 157.642C1115.09 140.698 1145.18 140.697 1173.27 157.641C1173.27 157.642 1173.27 157.641 1173.27 157.641L1205.57 177.099C1231.53 192.746 1259.31 192.746 1285.25 177.1L1317.55 157.642C1317.55 157.641 1317.55 157.642 1317.55 157.642C1345.66 140.698 1375.74 140.697 1403.84 157.641C1403.84 157.642 1403.84 157.641 1403.84 157.641L1436.13 177.099C1462.09 192.746 1489.87 192.746 1515.82 177.1L1548.11 157.642C1576.22 140.698 1606.31 140.697 1634.4 157.642L1631.1 178.327C1605.16 162.681 1577.38 162.68 1551.41 178.328L1519.12 197.785C1519.12 197.785 1519.12 197.785 1519.12 197.785C1491.03 214.729 1460.94 214.729 1432.83 197.786L1400.54 178.328C1374.59 162.682 1346.81 162.68 1320.85 178.328L1288.56 197.785C1260.46 214.73 1230.38 214.729 1202.27 197.786C1202.27 197.786 1202.27 197.786 1202.27 197.786L1169.97 178.328C1144.03 162.682 1116.25 162.68 1090.29 178.328L1057.99 197.785C1029.9 214.73 999.813 214.729 971.701 197.786C971.701 197.786 971.701 197.786 971.701 197.786L939.405 178.327Z" fill="#B9E15E"/>
<path fill-rule="evenodd" clip-rule="evenodd" d="M939.405 258.241C913.463 242.595 885.682 242.594 859.72 258.242L856.418 237.556C884.53 220.612 914.613 220.611 942.708 237.555C942.709 237.556 942.708 237.555 942.708 237.555L975.002 257.013C1000.96 272.661 1028.75 272.66 1054.69 257.014L1086.98 237.556C1086.98 237.555 1086.98 237.556 1086.98 237.556C1115.09 220.613 1145.18 220.611 1173.27 237.555C1173.27 237.556 1173.27 237.555 1173.27 237.555L1205.57 257.013C1231.53 272.661 1259.31 272.66 1285.25 257.014L1317.55 237.556C1317.55 237.555 1317.55 237.556 1317.55 237.556C1345.66 220.612 1375.74 220.611 1403.84 237.555C1403.84 237.556 1403.84 237.555 1403.84 237.555L1436.13 257.013C1462.09 272.661 1489.87 272.66 1515.82 257.014L1548.11 237.556C1576.22 220.612 1606.31 220.611 1634.4 237.556L1631.1 258.241C1605.16 242.595 1577.38 242.594 1551.41 258.242L1519.12 277.699C1519.12 277.699 1519.12 277.699 1519.12 277.699C1491.03 294.643 1460.94 294.643 1432.83 277.7L1400.54 258.242C1374.59 242.596 1346.81 242.594 1320.85 258.242L1288.56 277.699C1260.46 294.644 1230.38 294.643 1202.27 277.7C1202.27 277.7 1202.27 277.7 1202.27 277.7L1169.97 258.242C1144.03 242.596 1116.25 242.594 1090.29 258.242L1057.99 277.699C1029.9 294.644 999.813 294.643 971.701 277.7C971.701 277.7 971.701 277.7 971.701 277.7L939.405 258.241Z" fill="#B9E15E"/>
<path fill-rule="evenodd" clip-rule="evenodd" d="M939.405 338.156C913.463 322.509 885.682 322.508 859.72 338.156L856.418 317.47C884.53 300.526 914.613 300.525 942.708 317.469C942.709 317.47 942.708 317.469 942.708 317.469L975.002 336.927C1000.96 352.575 1028.75 352.574 1054.69 336.928L1086.98 317.47C1086.98 317.47 1086.98 317.47 1086.98 317.47C1115.09 300.527 1145.18 300.525 1173.27 317.469C1173.27 317.47 1173.27 317.469 1173.27 317.469L1205.57 336.927C1231.53 352.575 1259.31 352.574 1285.25 336.928L1317.55 317.47C1317.55 317.47 1317.55 317.47 1317.55 317.47C1345.66 300.527 1375.74 300.525 1403.84 317.469C1403.84 317.47 1403.84 317.469 1403.84 317.469L1436.13 336.927C1462.09 352.575 1489.87 352.574 1515.82 336.928L1548.11 317.47C1576.22 300.526 1606.31 300.525 1634.4 317.47L1631.1 338.156C1605.16 322.509 1577.38 322.508 1551.41 338.156L1519.12 357.613C1519.12 357.613 1519.12 357.613 1519.12 357.613C1491.03 374.557 1460.94 374.557 1432.83 357.614L1400.54 338.156C1374.59 322.51 1346.81 322.508 1320.85 338.156L1288.56 357.613C1260.46 374.558 1230.38 374.557 1202.27 357.614C1202.27 357.614 1202.27 357.614 1202.27 357.614L1169.97 338.156C1144.03 322.51 1116.25 322.508 1090.29 338.156L1057.99 357.613C1029.9 374.558 999.813 374.557 971.701 357.614C971.701 357.614 971.701 357.614 971.701 357.614L939.405 338.156Z" fill="#B9E15E"/>
<path fill-rule="evenodd" clip-rule="evenodd" d="M939.405 418.073C913.463 402.427 885.682 402.426 859.72 418.074L856.418 397.388C884.53 380.444 914.613 380.443 942.708 397.387C942.709 397.388 942.708 397.387 942.708 397.387L975.002 416.845C1000.96 432.493 1028.75 432.492 1054.69 416.846L1086.98 397.388C1086.98 397.388 1086.98 397.388 1086.98 397.388C1115.09 380.445 1145.18 380.443 1173.27 397.387C1173.27 397.388 1173.27 397.387 1173.27 397.387L1205.57 416.845C1231.53 432.493 1259.31 432.492 1285.25 416.846L1317.55 397.388C1317.55 397.388 1317.55 397.388 1317.55 397.388C1345.66 380.445 1375.74 380.443 1403.84 397.387C1403.84 397.388 1403.84 397.387 1403.84 397.387L1436.13 416.845C1462.09 432.493 1489.87 432.492 1515.82 416.846L1548.11 397.388C1576.22 380.444 1606.31 380.443 1634.4 397.388L1631.1 418.073C1605.16 402.427 1577.38 402.426 1551.41 418.074L1519.12 437.531C1519.12 437.531 1519.12 437.531 1519.12 437.531C1491.03 454.475 1460.94 454.475 1432.83 437.532L1400.54 418.074C1374.59 402.428 1346.81 402.426 1320.85 418.074L1288.56 437.531C1260.46 454.476 1230.38 454.475 1202.27 437.532C1202.27 437.532 1202.27 437.532 1202.27 437.532L1169.97 418.074C1144.03 402.428 1116.25 402.426 1090.29 418.074L1057.99 437.531C1029.9 454.476 999.813 454.475 971.701 437.532C971.701 437.532 971.701 437.532 971.701 437.532L939.405 418.073Z" fill="#B9E15E"/>
<path d="M278.703 328.102C342.864 392.262 446.889 392.262 511.049 328.102C575.21 263.941 575.21 159.916 511.049 95.7555L278.703 328.102Z" fill="#4C6600"/>
<path d="M369.516 128.172C305.355 64.0113 201.33 64.0112 137.17 128.172C73.009 192.332 73.009 296.357 137.17 360.518L369.516 128.172Z" fill="#393A3D"/>
<rect x="146" y="543" width="1244.97" height="27.1021" fill="#393A3D"/>
<rect x="146" y="599" width="1245" height="79" fill="#393A3D"/>
</g>
<defs>
<filter id="filter0_d_3_1173" x="-16" y="-12" width="1216" height="698" filterUnits="userSpaceOnUse" color-interpolation-filters="sRGB">
<feFlood flood-opacity="0" result="BackgroundImageFix"/>
<feColorMatrix in="SourceAlpha" type="matrix" values="0 0 0 0 0 0 0 0 0 0 0 0 0 0 0 0 0 0 127 0" result="hardAlpha"/>
<feOffset dy="4"/>
<feGaussianBlur stdDeviation="8"/>
<feColorMatrix type="matrix" values="0 0 0 0 0 0 0 0 0 0 0 0 0 0 0 0 0 0 0.2 0"/>
<feBlend mode="normal" in2="BackgroundImageFix" result="effect1_dropShadow_3_1173"/>
<feBlend mode="normal" in="SourceGraphic" in2="effect1_dropShadow_3_1173" result="shape"/>
</filter>
<clipPath id="clip0_3_1173">
<rect width="1200" height="675" fill="white"/>
</clipPath>
</defs>
</svg>
