<svg width="1184" height="666" viewBox="0 0 1184 666" fill="none" xmlns="http://www.w3.org/2000/svg">
<g clip-path="url(#clip0_1_6241)">
<g filter="url(#filter0_d_1_6241)">
<rect width="1184" height="666" fill="#F4F4EF"/>
</g>
<circle cx="82.5" cy="229.5" r="30.5" fill="#FFD8A0"/>
<circle cx="176.5" cy="229.5" r="30.5" fill="#FFD8A0"/>
<circle cx="271.5" cy="229.5" r="30.5" fill="#FFD8A0"/>
<circle cx="365.5" cy="229.5" r="30.5" fill="#FFD8A0"/>
<circle cx="460.5" cy="229.5" r="30.5" fill="#FFD8A0"/>
<circle cx="554.5" cy="229.5" r="30.5" fill="#FFD8A0"/>
<circle cx="649.5" cy="229.5" r="30.5" fill="#FFD8A0"/>
<circle cx="743.5" cy="229.5" r="30.5" fill="#FFD8A0"/>
<rect x="-50" y="315" width="418.454" height="418.454" fill="#FFD8A0"/>
<rect x="444" y="315" width="209.227" height="418.454" fill="#B9E15E"/>
<circle cx="669.578" cy="423.141" r="54.1408" fill="#FFD8A0"/>
<circle cx="838.016" cy="423.141" r="54.1408" fill="#FFD8A0"/>
<circle cx="1006.46" cy="423.141" r="54.1408" fill="#FFD8A0"/>
<circle cx="1174.89" cy="423.141" r="54.1408" fill="#FFD8A0"/>
<path fill-rule="evenodd" clip-rule="evenodd" d="M926.881 175.949C901.284 160.511 873.874 160.51 848.258 175.949L845 155.538C872.737 138.821 902.419 138.82 930.14 155.538C930.14 155.538 930.139 155.538 930.14 155.538L962.003 174.736C987.619 190.175 1015.03 190.175 1040.63 174.737L1072.49 155.538C1072.49 155.538 1072.49 155.539 1072.49 155.538C1100.23 138.821 1129.91 138.82 1157.63 155.538C1157.63 155.538 1157.63 155.538 1157.63 155.538L1189.49 174.736C1215.11 190.175 1242.52 190.175 1268.12 174.737L1299.98 155.538C1299.98 155.538 1299.98 155.539 1299.98 155.538C1327.72 138.821 1357.4 138.82 1385.12 155.538C1385.12 155.538 1385.12 155.538 1385.12 155.538L1416.98 174.736C1442.6 190.175 1470.01 190.175 1495.61 174.737L1527.47 155.538C1555.21 138.821 1584.89 138.82 1612.61 155.539L1609.35 175.949C1583.76 160.511 1556.35 160.51 1530.73 175.949L1498.87 195.147C1498.87 195.147 1498.87 195.146 1498.87 195.147C1471.15 211.865 1441.46 211.865 1413.73 195.147L1381.86 175.949C1356.27 160.512 1328.86 160.51 1303.24 175.949L1271.38 195.147C1243.66 211.866 1213.97 211.865 1186.24 195.148C1186.24 195.147 1186.24 195.148 1186.24 195.148L1154.37 175.949C1128.78 160.512 1101.36 160.51 1075.75 175.949L1043.89 195.147C1016.17 211.866 986.483 211.865 958.746 195.148C958.746 195.147 958.746 195.148 958.746 195.148L926.881 175.949Z" fill="#B9E15E"/>
<path fill-rule="evenodd" clip-rule="evenodd" d="M926.881 254.796C901.284 239.358 873.874 239.358 848.258 254.797L845 234.386C872.737 217.669 902.419 217.668 930.14 234.386C930.14 234.386 930.139 234.386 930.14 234.386L962.003 253.584C987.619 269.023 1015.03 269.023 1040.63 253.585L1072.49 234.386C1072.49 234.386 1072.49 234.386 1072.49 234.386C1100.23 217.669 1129.91 217.668 1157.63 234.386C1157.63 234.386 1157.63 234.386 1157.63 234.386L1189.49 253.584C1215.11 269.023 1242.52 269.023 1268.12 253.585L1299.98 234.386C1299.98 234.386 1299.98 234.386 1299.98 234.386C1327.72 217.669 1357.4 217.668 1385.12 234.386C1385.12 234.386 1385.12 234.386 1385.12 234.386L1416.98 253.584C1442.6 269.023 1470.01 269.023 1495.61 253.585L1527.47 234.386C1555.21 217.668 1584.89 217.668 1612.61 234.387L1609.35 254.796C1583.76 239.358 1556.35 239.358 1530.73 254.797L1498.87 273.994C1498.87 273.995 1498.87 273.994 1498.87 273.994C1471.15 290.712 1441.46 290.712 1413.73 273.995L1381.86 254.797C1356.27 239.359 1328.86 239.358 1303.24 254.797L1271.38 273.994C1243.66 290.713 1213.97 290.713 1186.24 273.995C1186.24 273.995 1186.24 273.995 1186.24 273.995L1154.37 254.797C1128.78 239.359 1101.36 239.358 1075.75 254.797L1043.89 273.994C1016.17 290.713 986.483 290.713 958.746 273.995C958.746 273.995 958.746 273.995 958.746 273.995L926.881 254.796Z" fill="#B9E15E"/>
<path fill-rule="evenodd" clip-rule="evenodd" d="M926.881 333.648C901.284 318.21 873.874 318.209 848.258 333.648L845 313.238C872.737 296.52 902.419 296.519 930.14 313.237C930.14 313.238 930.139 313.237 930.14 313.237L962.003 332.436C987.619 347.875 1015.03 347.874 1040.63 332.436L1072.49 313.238C1072.49 313.238 1072.49 313.238 1072.49 313.238C1100.23 296.521 1129.91 296.519 1157.63 313.237C1157.63 313.238 1157.63 313.237 1157.63 313.237L1189.49 332.436C1215.11 347.875 1242.52 347.874 1268.12 332.436L1299.98 313.238C1299.98 313.238 1299.98 313.238 1299.98 313.238C1327.72 296.521 1357.4 296.519 1385.12 313.237C1385.12 313.238 1385.12 313.237 1385.12 313.237L1416.98 332.436C1442.6 347.875 1470.01 347.874 1495.61 332.436L1527.47 313.238C1555.21 296.52 1584.89 296.519 1612.61 313.238L1609.35 333.648C1583.76 318.21 1556.35 318.209 1530.73 333.648L1498.87 352.846C1498.87 352.846 1498.87 352.846 1498.87 352.846C1471.15 369.564 1441.46 369.564 1413.73 352.847L1381.86 333.649C1356.27 318.211 1328.86 318.209 1303.24 333.648L1271.38 352.846C1243.66 369.565 1213.97 369.564 1186.24 352.847C1186.24 352.847 1186.24 352.847 1186.24 352.847L1154.37 333.649C1128.78 318.211 1101.36 318.209 1075.75 333.648L1043.89 352.846C1016.17 369.565 986.483 369.564 958.746 352.847C958.746 352.847 958.746 352.847 958.746 352.847L926.881 333.648Z" fill="#B9E15E"/>
<path fill-rule="evenodd" clip-rule="evenodd" d="M926.881 412.495C901.284 397.058 873.874 397.057 848.258 412.496L845 392.085C872.737 375.368 902.419 375.367 930.14 392.085C930.14 392.085 930.139 392.085 930.14 392.085L962.003 411.283C987.619 426.722 1015.03 426.722 1040.63 411.284L1072.49 392.085C1072.49 392.085 1072.49 392.085 1072.49 392.085C1100.23 375.368 1129.91 375.367 1157.63 392.085C1157.63 392.085 1157.63 392.085 1157.63 392.085L1189.49 411.283C1215.11 426.722 1242.52 426.722 1268.12 411.284L1299.98 392.085C1299.98 392.085 1299.98 392.085 1299.98 392.085C1327.72 375.368 1357.4 375.367 1385.12 392.085C1385.12 392.085 1385.12 392.085 1385.12 392.085L1416.98 411.283C1442.6 426.722 1470.01 426.722 1495.61 411.284L1527.47 392.085C1555.21 375.368 1584.89 375.367 1612.61 392.086L1609.35 412.495C1583.76 397.058 1556.35 397.057 1530.73 412.496L1498.87 431.694C1498.87 431.694 1498.87 431.693 1498.87 431.694C1471.15 448.412 1441.46 448.412 1413.73 431.694L1381.86 412.496C1356.27 397.058 1328.86 397.057 1303.24 412.496L1271.38 431.694C1243.66 448.412 1213.97 448.412 1186.24 431.694C1186.24 431.694 1186.24 431.695 1186.24 431.694L1154.37 412.496C1128.78 397.058 1101.36 397.057 1075.75 412.496L1043.89 431.694C1016.17 448.412 986.483 448.412 958.746 431.694C958.746 431.694 958.746 431.695 958.746 431.694L926.881 412.495Z" fill="#B9E15E"/>
<path d="M278.703 328.102C342.864 392.262 446.889 392.262 511.049 328.102C575.21 263.941 575.21 159.916 511.049 95.7555L278.703 328.102Z" fill="#4C6600"/>
<path d="M369.516 128.172C305.355 64.0113 201.33 64.0112 137.17 128.172C73.009 192.332 73.009 296.357 137.17 360.518L369.516 128.172Z" fill="#393A3D"/>
<rect x="146" y="543" width="1244.97" height="27.1021" fill="#393A3D"/>
<rect x="146" y="599" width="1245" height="79" fill="#393A3D"/>
</g>
<defs>
<filter id="filter0_d_1_6241" x="-16" y="-12" width="1216" height="698" filterUnits="userSpaceOnUse" color-interpolation-filters="sRGB">
<feFlood flood-opacity="0" result="BackgroundImageFix"/>
<feColorMatrix in="SourceAlpha" type="matrix" values="0 0 0 0 0 0 0 0 0 0 0 0 0 0 0 0 0 0 127 0" result="hardAlpha"/>
<feOffset dy="4"/>
<feGaussianBlur stdDeviation="8"/>
<feColorMatrix type="matrix" values="0 0 0 0 0 0 0 0 0 0 0 0 0 0 0 0 0 0 0.2 0"/>
<feBlend mode="normal" in2="BackgroundImageFix" result="effect1_dropShadow_1_6241"/>
<feBlend mode="normal" in="SourceGraphic" in2="effect1_dropShadow_1_6241" result="shape"/>
</filter>
<clipPath id="clip0_1_6241">
<rect width="1184" height="666" fill="white"/>
</clipPath>
</defs>
</svg>
