<svg width="1200" height="675" viewBox="0 0 1200 675" fill="none" xmlns="http://www.w3.org/2000/svg">
<g clip-path="url(#clip0_3_1149)">
<g filter="url(#filter0_d_3_1149)">
<rect width="1184" height="666" rx="12" fill="#F4F4EF"/>
</g>
<rect x="363" y="205" width="418" height="511" fill="#FFD8A0"/>
<rect x="857" y="205" width="209" height="511" fill="#FFD8A0"/>
<path fill-rule="evenodd" clip-rule="evenodd" d="M-41.3081 56.6456C-60.0782 45.325 -80.1783 45.3246 -98.9623 56.6461L-101.352 41.6789C-81.0121 29.4199 -59.246 29.4192 -38.9185 41.6787C-38.9181 41.6789 -38.9188 41.6784 -38.9185 41.6787L-15.5528 55.7567C3.23119 67.0782 23.3316 67.078 42.1017 55.7574L65.4681 41.6789C65.4682 41.6788 65.468 41.679 65.4681 41.6789C85.8074 29.4201 107.574 29.4193 127.901 41.6787C127.902 41.6789 127.901 41.6785 127.901 41.6787L151.267 55.7567C170.051 67.0782 190.151 67.078 208.921 55.7574L232.288 41.6789C232.288 41.6788 232.288 41.679 232.288 41.6789C252.627 29.4201 274.393 29.4193 294.721 41.6787C294.721 41.6789 294.72 41.6785 294.721 41.6787L318.086 55.7567C336.87 67.0782 356.971 67.078 375.741 55.7574L399.107 41.6789C419.447 29.4197 441.214 29.4192 461.542 41.6793L459.151 56.6456C440.381 45.325 420.281 45.3246 401.497 56.6461L378.132 70.7237C378.131 70.7239 378.132 70.7235 378.132 70.7237C357.804 82.9832 336.037 82.9831 315.697 70.7241L292.332 56.6463C273.562 45.3257 253.461 45.3246 234.677 56.6461L211.312 70.7237C190.984 82.9837 169.218 82.9834 148.878 70.7244C148.878 70.7243 148.878 70.7244 148.878 70.7244L125.513 56.6463C106.743 45.3257 86.6414 45.3246 67.8574 56.6461L44.4925 70.7237C24.1648 82.9837 2.39832 82.9833 -17.9414 70.7244C-17.9415 70.7243 -17.9412 70.7244 -17.9414 70.7244L-41.3081 56.6456Z" fill="#B9E15E"/>
<path fill-rule="evenodd" clip-rule="evenodd" d="M-41.3081 114.466C-60.0782 103.145 -80.1783 103.145 -98.9623 114.466L-101.352 99.4992C-81.0121 87.2402 -59.246 87.2395 -38.9185 99.499C-38.9181 99.4992 -38.9188 99.4988 -38.9185 99.499L-15.5528 113.577C3.23119 124.899 23.3316 124.898 42.1017 113.578L65.4681 99.4992C65.4682 99.4991 65.468 99.4993 65.4681 99.4992C85.8074 87.2404 107.574 87.2396 127.901 99.499C127.902 99.4992 127.901 99.4988 127.901 99.499L151.267 113.577C170.051 124.899 190.151 124.898 208.921 113.578L232.288 99.4992C232.288 99.4991 232.288 99.4993 232.288 99.4992C252.627 87.2404 274.393 87.2396 294.721 99.499C294.721 99.4992 294.72 99.4988 294.721 99.499L318.086 113.577C336.87 124.899 356.971 124.898 375.741 113.578L399.107 99.4992C419.447 87.24 441.214 87.2395 461.542 99.4996L459.151 114.466C440.381 103.145 420.281 103.145 401.497 114.466L378.132 128.544C378.131 128.544 378.132 128.544 378.132 128.544C357.804 140.803 336.037 140.803 315.697 128.544L292.332 114.467C273.562 103.146 253.461 103.145 234.677 114.466L211.312 128.544C190.984 140.804 169.218 140.804 148.878 128.545C148.878 128.545 148.878 128.545 148.878 128.545L125.513 114.467C106.743 103.146 86.6414 103.145 67.8574 114.466L44.4925 128.544C24.1648 140.804 2.39832 140.804 -17.9414 128.545C-17.9415 128.545 -17.9412 128.545 -17.9414 128.545L-41.3081 114.466Z" fill="#B9E15E"/>
<path fill-rule="evenodd" clip-rule="evenodd" d="M-41.3081 172.286C-60.0782 160.966 -80.1783 160.965 -98.9623 172.287L-101.352 157.32C-81.0121 145.061 -59.246 145.06 -38.9185 157.319C-38.9181 157.32 -38.9188 157.319 -38.9185 157.319L-15.5528 171.397C3.23119 182.719 23.3316 182.719 42.1017 171.398L65.4681 157.32C65.4682 157.319 65.468 157.32 65.4681 157.32C85.8074 145.061 107.574 145.06 127.901 157.319C127.902 157.32 127.901 157.319 127.901 157.319L151.267 171.397C170.051 182.719 190.151 182.719 208.921 171.398L232.288 157.32C232.288 157.319 232.288 157.32 232.288 157.32C252.627 145.061 274.393 145.06 294.721 157.319C294.721 157.32 294.72 157.319 294.721 157.319L318.086 171.397C336.87 182.719 356.971 182.719 375.741 171.398L399.107 157.32C419.447 145.06 441.214 145.06 461.542 157.32L459.151 172.286C440.381 160.966 420.281 160.965 401.497 172.287L378.132 186.364C378.131 186.365 378.132 186.364 378.132 186.364C357.804 198.624 336.037 198.624 315.697 186.365L292.332 172.287C273.562 160.966 253.461 160.965 234.677 172.287L211.312 186.364C190.984 198.624 169.218 198.624 148.878 186.365C148.878 186.365 148.878 186.365 148.878 186.365L125.513 172.287C106.743 160.966 86.6414 160.965 67.8574 172.287L44.4925 186.364C24.1648 198.624 2.39832 198.624 -17.9414 186.365C-17.9415 186.365 -17.9412 186.365 -17.9414 186.365L-41.3081 172.286Z" fill="#B9E15E"/>
<path fill-rule="evenodd" clip-rule="evenodd" d="M-41.3081 230.107C-60.0782 218.786 -80.1783 218.786 -98.9623 230.107L-101.352 215.14C-81.0121 202.881 -59.246 202.88 -38.9185 215.14C-38.9181 215.14 -38.9188 215.139 -38.9185 215.14L-15.5528 229.218C3.23119 240.539 23.3316 240.539 42.1017 229.218L65.4681 215.14C65.4682 215.14 65.468 215.14 65.4681 215.14C85.8074 202.881 107.574 202.88 127.901 215.14C127.902 215.14 127.901 215.139 127.901 215.14L151.267 229.218C170.051 240.539 190.151 240.539 208.921 229.218L232.288 215.14C232.288 215.14 232.288 215.14 232.288 215.14C252.627 202.881 274.393 202.88 294.721 215.14C294.721 215.14 294.72 215.139 294.721 215.14L318.086 229.218C336.87 240.539 356.971 240.539 375.741 229.218L399.107 215.14C419.447 202.881 441.214 202.88 461.542 215.14L459.151 230.107C440.381 218.786 420.281 218.786 401.497 230.107L378.132 244.185C378.131 244.185 378.132 244.184 378.132 244.185C357.804 256.444 336.037 256.444 315.697 244.185L292.332 230.107C273.562 218.787 253.461 218.786 234.677 230.107L211.312 244.185C190.984 256.445 169.218 256.444 148.878 244.185C148.878 244.185 148.878 244.185 148.878 244.185L125.513 230.107C106.743 218.787 86.6414 218.786 67.8574 230.107L44.4925 244.185C24.1648 256.445 2.39832 256.444 -17.9414 244.185C-17.9415 244.185 -17.9412 244.185 -17.9414 244.185L-41.3081 230.107Z" fill="#B9E15E"/>
<rect x="191" y="268.469" width="127.469" height="25.4076" transform="rotate(-90 191 268.469)" fill="#393A3D"/>
<rect x="241.812" y="268.469" width="127.469" height="25.4076" transform="rotate(-90 241.812 268.469)" fill="#393A3D"/>
<rect x="292.633" y="268.469" width="127.469" height="25.4076" transform="rotate(-90 292.633 268.469)" fill="#393A3D"/>
<rect x="343.445" y="268.469" width="127.469" height="25.4076" transform="rotate(-90 343.445 268.469)" fill="#393A3D"/>
<rect x="394.258" y="268.469" width="127.469" height="25.4076" transform="rotate(-90 394.258 268.469)" fill="#393A3D"/>
<rect x="445.078" y="268.469" width="127.469" height="25.4076" transform="rotate(-90 445.078 268.469)" fill="#393A3D"/>
<rect x="495.891" y="268.469" width="127.469" height="25.4076" transform="rotate(-90 495.891 268.469)" fill="#393A3D"/>
<rect x="546.703" y="268.469" width="127.469" height="25.4076" transform="rotate(-90 546.703 268.469)" fill="#393A3D"/>
<rect x="-315" y="333" width="1012.07" height="84.6919" fill="#4C6600"/>
<rect x="-315" y="502.383" width="1012.07" height="84.6919" fill="#4C6600"/>
<rect x="-315" y="671.77" width="1012.07" height="84.6919" fill="#4C6600"/>
<path fill-rule="evenodd" clip-rule="evenodd" d="M1112.5 413C1283.43 413 1422 274.432 1422 103.5C1422 -67.432 1283.43 -206 1112.5 -206C941.568 -206 803 -67.432 803 103.5C803 274.432 941.568 413 1112.5 413ZM1112.5 358.382C1253.27 358.382 1367.38 244.268 1367.38 103.5C1367.38 -37.2682 1253.27 -151.382 1112.5 -151.382C971.732 -151.382 857.618 -37.2682 857.618 103.5C857.618 244.268 971.732 358.382 1112.5 358.382Z" fill="#B9E15E"/>
<rect x="1101" y="-115" width="197" height="702" fill="#393A3D"/>
</g>
<defs>
<filter id="filter0_d_3_1149" x="-16" y="-12" width="1216" height="698" filterUnits="userSpaceOnUse" color-interpolation-filters="sRGB">
<feFlood flood-opacity="0" result="BackgroundImageFix"/>
<feColorMatrix in="SourceAlpha" type="matrix" values="0 0 0 0 0 0 0 0 0 0 0 0 0 0 0 0 0 0 127 0" result="hardAlpha"/>
<feOffset dy="4"/>
<feGaussianBlur stdDeviation="8"/>
<feColorMatrix type="matrix" values="0 0 0 0 0 0 0 0 0 0 0 0 0 0 0 0 0 0 0.2 0"/>
<feBlend mode="normal" in2="BackgroundImageFix" result="effect1_dropShadow_3_1149"/>
<feBlend mode="normal" in="SourceGraphic" in2="effect1_dropShadow_3_1149" result="shape"/>
</filter>
<clipPath id="clip0_3_1149">
<rect width="1200" height="675" fill="white"/>
</clipPath>
</defs>
</svg>
