<svg width="1184" height="666" viewBox="0 0 1184 666" fill="none" xmlns="http://www.w3.org/2000/svg">
<g clip-path="url(#clip0_1_6210)">
<g filter="url(#filter0_d_1_6210)">
<rect width="1184" height="666" fill="#F4F4EF"/>
</g>
<rect x="672" y="-19" width="796" height="796" fill="#FFD8A0"/>
<circle cx="171.141" cy="483.141" r="54.1408" fill="#4C6600"/>
<circle cx="339.578" cy="483.141" r="54.1408" fill="#4C6600"/>
<circle cx="508.017" cy="483.141" r="54.1408" fill="#4C6600"/>
<circle cx="676.455" cy="483.141" r="54.1408" fill="#4C6600"/>
<circle cx="844.893" cy="483.141" r="54.1408" fill="#4C6600"/>
<circle cx="1013.33" cy="483.141" r="54.1408" fill="#4C6600"/>
<path d="M174.711 189.227C258.788 273.304 395.105 273.304 479.182 189.227C563.259 105.149 563.259 -31.1671 479.182 -115.244L174.711 189.227Z" fill="#393A3D"/>
<path d="M293.711 -72.7656C209.634 -156.843 73.3173 -156.843 -10.7601 -72.7657C-94.8373 11.3116 -94.8374 147.628 -10.7601 231.705L293.711 -72.7656Z" fill="#B9E15E"/>
<g opacity="0.9">
<path fill-rule="evenodd" clip-rule="evenodd" d="M868.88 123.537C844.345 108.74 818.071 108.739 793.516 123.539L787 82.7174C815.797 65.3609 846.615 65.359 875.397 82.7168C875.398 82.7169 875.397 82.7166 875.397 82.7168C875.398 82.7172 875.4 82.7181 875.4 82.7186L907.261 101.915C931.816 116.715 958.091 116.714 982.625 101.917L982.628 101.915L1014.49 82.7174C1014.49 82.7172 1014.49 82.7176 1014.49 82.7174C1043.29 65.3615 1074.11 65.3592 1102.89 82.7168C1102.89 82.7174 1102.89 82.718 1102.89 82.7186L1134.75 101.915C1159.31 116.715 1185.58 116.714 1210.12 101.917L1210.12 101.915L1241.98 82.7174C1241.98 82.7172 1241.98 82.7176 1241.98 82.7174C1270.78 65.3615 1301.6 65.3592 1330.38 82.7168C1330.38 82.7174 1330.38 82.718 1330.38 82.7186L1362.24 101.915C1386.8 116.715 1413.07 116.714 1437.61 101.917L1437.61 101.915L1469.47 82.7174C1469.47 82.7172 1469.47 82.7176 1469.47 82.7174C1498.27 65.3609 1529.09 65.3592 1557.87 82.7186L1551.35 123.537C1526.82 108.74 1500.54 108.739 1475.99 123.539L1444.13 142.736C1444.13 142.736 1444.12 142.737 1444.12 142.737C1415.34 160.095 1384.52 160.093 1355.73 142.737L1323.86 123.539L1323.86 123.537C1299.33 108.74 1273.05 108.739 1248.5 123.539L1216.64 142.736C1216.64 142.736 1216.63 142.737 1216.63 142.737C1187.85 160.095 1157.03 160.093 1128.24 142.737C1128.24 142.737 1128.24 142.738 1128.24 142.737L1096.37 123.537C1071.84 108.74 1045.56 108.739 1021.01 123.539L989.146 142.736C989.145 142.736 989.144 142.737 989.143 142.737C960.361 160.095 929.543 160.093 900.746 142.737C900.746 142.737 900.747 142.738 900.746 142.737L868.88 123.537Z" fill="#F4F4EF"/>
<path fill-rule="evenodd" clip-rule="evenodd" d="M868.88 202.385C844.345 187.588 818.071 187.587 793.516 202.386L787 161.565C815.797 144.209 846.615 144.207 875.397 161.564C875.398 161.565 875.397 161.564 875.397 161.564C875.398 161.565 875.4 161.566 875.4 161.566L907.261 180.763C931.816 195.562 958.091 195.562 982.625 180.764L982.628 180.763L1014.49 161.565C1014.49 161.565 1014.49 161.565 1014.49 161.565C1043.29 144.209 1074.11 144.207 1102.89 161.564C1102.89 161.565 1102.89 161.566 1102.89 161.566L1134.75 180.763C1159.31 195.562 1185.58 195.562 1210.12 180.764L1210.12 180.763L1241.98 161.565C1241.98 161.565 1241.98 161.565 1241.98 161.565C1270.78 144.209 1301.6 144.207 1330.38 161.564C1330.38 161.565 1330.38 161.566 1330.38 161.566L1362.24 180.763C1386.8 195.562 1413.07 195.562 1437.61 180.764L1437.61 180.763L1469.47 161.565C1469.47 161.565 1469.47 161.565 1469.47 161.565C1498.27 144.209 1529.09 144.207 1557.87 161.566L1551.35 202.385C1526.82 187.588 1500.54 187.587 1475.99 202.386L1444.13 221.583C1444.13 221.584 1444.12 221.584 1444.12 221.585C1415.34 238.943 1384.52 238.941 1355.73 221.584L1323.86 202.387L1323.86 202.385C1299.33 187.588 1273.05 187.587 1248.5 202.386L1216.64 221.583C1216.64 221.584 1216.63 221.584 1216.63 221.585C1187.85 238.943 1157.03 238.941 1128.24 221.585C1128.24 221.585 1128.24 221.585 1128.24 221.585L1096.37 202.385C1071.84 187.588 1045.56 187.587 1021.01 202.386L989.146 221.583C989.145 221.584 989.144 221.584 989.143 221.585C960.361 238.943 929.543 238.941 900.746 221.585C900.746 221.585 900.747 221.585 900.746 221.585L868.88 202.385Z" fill="#F4F4EF"/>
<path fill-rule="evenodd" clip-rule="evenodd" d="M868.88 281.237C844.345 266.439 818.071 266.438 793.516 281.238L787 240.417C815.797 223.06 846.615 223.058 875.397 240.416C875.398 240.416 875.397 240.416 875.397 240.416C875.398 240.416 875.4 240.417 875.4 240.418L907.261 259.614C931.816 274.414 958.091 274.413 982.625 259.616L982.628 259.614L1014.49 240.417C1014.49 240.416 1014.49 240.417 1014.49 240.417C1043.29 223.061 1074.11 223.058 1102.89 240.416C1102.89 240.417 1102.89 240.417 1102.89 240.418L1134.75 259.614C1159.31 274.414 1185.58 274.413 1210.12 259.616L1210.12 259.614L1241.98 240.417C1241.98 240.416 1241.98 240.417 1241.98 240.417C1270.78 223.061 1301.6 223.058 1330.38 240.416C1330.38 240.417 1330.38 240.417 1330.38 240.418L1362.24 259.614C1386.8 274.414 1413.07 274.413 1437.61 259.616L1437.61 259.614L1469.47 240.417C1469.47 240.416 1469.47 240.417 1469.47 240.417C1498.27 223.06 1529.09 223.058 1557.87 240.418L1551.35 281.237C1526.82 266.439 1500.54 266.438 1475.99 281.238L1444.13 300.435C1444.13 300.435 1444.12 300.436 1444.12 300.437C1415.34 317.794 1384.52 317.793 1355.73 300.436L1323.86 281.239L1323.86 281.237C1299.33 266.439 1273.05 266.438 1248.5 281.238L1216.64 300.435C1216.64 300.435 1216.63 300.436 1216.63 300.437C1187.85 317.794 1157.03 317.793 1128.24 300.437C1128.24 300.436 1128.24 300.437 1128.24 300.437L1096.37 281.237C1071.84 266.439 1045.56 266.438 1021.01 281.238L989.146 300.435C989.145 300.435 989.144 300.436 989.143 300.437C960.361 317.794 929.543 317.793 900.746 300.437C900.746 300.436 900.747 300.437 900.746 300.437L868.88 281.237Z" fill="#F4F4EF"/>
</g>
</g>
<defs>
<filter id="filter0_d_1_6210" x="-16" y="-12" width="1216" height="698" filterUnits="userSpaceOnUse" color-interpolation-filters="sRGB">
<feFlood flood-opacity="0" result="BackgroundImageFix"/>
<feColorMatrix in="SourceAlpha" type="matrix" values="0 0 0 0 0 0 0 0 0 0 0 0 0 0 0 0 0 0 127 0" result="hardAlpha"/>
<feOffset dy="4"/>
<feGaussianBlur stdDeviation="8"/>
<feColorMatrix type="matrix" values="0 0 0 0 0 0 0 0 0 0 0 0 0 0 0 0 0 0 0.2 0"/>
<feBlend mode="normal" in2="BackgroundImageFix" result="effect1_dropShadow_1_6210"/>
<feBlend mode="normal" in="SourceGraphic" in2="effect1_dropShadow_1_6210" result="shape"/>
</filter>
<clipPath id="clip0_1_6210">
<rect width="1184" height="666" fill="white"/>
</clipPath>
</defs>
</svg>
