<svg width="1184" height="666" viewBox="0 0 1184 666" fill="none" xmlns="http://www.w3.org/2000/svg">
<g clip-path="url(#clip0_1_6198)">
<rect width="1184" height="666" fill="#F4F4EF"/>
<path d="M1184 0V666H526L1184 0Z" fill="#FFD8A0"/>
<path d="M-1.33514e-05 666L-7.1575e-05 4.79874e-05L658 -9.53674e-06L-1.33514e-05 666Z" fill="#B9E15E"/>
<circle cx="405.897" cy="332.897" r="23.8972" fill="#393A3D"/>
<circle cx="480.244" cy="332.897" r="23.8972" fill="#393A3D"/>
<circle cx="554.591" cy="332.897" r="23.8972" fill="#393A3D"/>
<circle cx="628.937" cy="332.897" r="23.8972" fill="#393A3D"/>
<circle cx="703.284" cy="332.897" r="23.8972" fill="#393A3D"/>
<circle cx="777.632" cy="332.897" r="23.8972" fill="#393A3D"/>
<path d="M496.945 161.402C402.298 67.8197 249.55 68.8418 155.774 163.685C61.997 258.528 62.7024 411.278 157.349 504.861L223.937 437.516C166.406 380.632 165.977 287.785 222.979 230.135C279.981 172.485 372.827 171.863 430.358 228.747L496.945 161.402Z" fill="#4C6600"/>
</g>
<defs>
<clipPath id="clip0_1_6198">
<rect width="1184" height="666" fill="white"/>
</clipPath>
</defs>
</svg>
