<svg width="1184" height="666" viewBox="0 0 1184 666" fill="none" xmlns="http://www.w3.org/2000/svg">
<g clip-path="url(#clip0_1_6174)">
<g filter="url(#filter0_d_1_6174)">
<rect width="1184" height="666" fill="#F4F4EF"/>
</g>
<rect x="363" y="205" width="418" height="511" fill="#FFD8A0"/>
<rect x="857" y="205" width="209" height="511" fill="#FFD8A0"/>
<path fill-rule="evenodd" clip-rule="evenodd" d="M-40.7571 55.8899C-59.277 44.7202 -79.109 44.7198 -97.6426 55.8903L-100 41.1227C-79.9318 29.0272 -58.4558 29.0265 -38.3993 41.1225C-38.399 41.1227 -38.3997 41.1223 -38.3993 41.1225L-15.3453 55.0128C3.18831 66.1834 23.0207 66.1832 41.5406 55.0135L64.5954 41.1227C64.5955 41.1226 64.5953 41.1228 64.5954 41.1227C84.6635 29.0274 106.14 29.0266 126.196 41.1225C126.196 41.1227 126.196 41.1223 126.196 41.1225L149.25 55.0128C167.784 66.1834 187.616 66.1832 206.136 55.0135L229.191 41.1227C229.191 41.1226 229.191 41.1228 229.191 41.1227C249.259 29.0274 270.735 29.0266 290.791 41.1225C290.792 41.1227 290.791 41.1223 290.791 41.1225L313.845 55.0128C332.379 66.1834 352.211 66.1832 370.731 55.0135L393.786 41.1227C413.855 29.027 435.331 29.0265 455.388 41.1231L453.029 55.8899C434.509 44.7202 414.677 44.7198 396.144 55.8903L373.09 69.7803C373.09 69.7805 373.091 69.78 373.09 69.7803C353.034 81.8762 331.557 81.8762 311.488 69.7807L288.435 55.8906C269.915 44.7209 250.082 44.7198 231.548 55.8903L208.495 69.7803C188.438 81.8768 166.962 81.8764 146.893 69.7809C146.893 69.7808 146.894 69.781 146.893 69.7809L123.839 55.8906C105.319 44.7209 85.4864 44.7198 66.9528 55.8903L43.8994 69.7803C23.8428 81.8768 2.36655 81.8764 -17.7019 69.7809C-17.7021 69.7808 -17.7018 69.781 -17.7019 69.7809L-40.7571 55.8899Z" fill="#B9E15E"/>
<path fill-rule="evenodd" clip-rule="evenodd" d="M-40.7571 112.941C-59.277 101.771 -79.109 101.771 -97.6426 112.941L-100 98.1735C-79.9318 86.078 -58.4558 86.0773 -38.3993 98.1733C-38.399 98.1735 -38.3997 98.173 -38.3993 98.1733L-15.3453 112.064C3.18831 123.234 23.0207 123.234 41.5406 112.064L64.5954 98.1735C64.5955 98.1734 64.5953 98.1736 64.5954 98.1735C84.6635 86.0782 106.14 86.0774 126.196 98.1733C126.196 98.1735 126.196 98.1731 126.196 98.1733L149.25 112.064C167.784 123.234 187.616 123.234 206.136 112.064L229.191 98.1735C229.191 98.1734 229.191 98.1736 229.191 98.1735C249.259 86.0782 270.735 86.0774 290.791 98.1733C290.792 98.1735 290.791 98.1731 290.791 98.1733L313.845 112.064C332.379 123.234 352.211 123.234 370.731 112.064L393.786 98.1735C413.855 86.0777 435.331 86.0773 455.388 98.1739L453.029 112.941C434.509 101.771 414.677 101.771 396.144 112.941L373.09 126.831C373.09 126.831 373.091 126.831 373.09 126.831C353.034 138.927 331.557 138.927 311.488 126.831L288.435 112.941C269.915 101.772 250.082 101.771 231.548 112.941L208.495 126.831C188.438 138.928 166.962 138.927 146.893 126.832C146.893 126.832 146.894 126.832 146.893 126.832L123.839 112.941C105.319 101.772 85.4864 101.771 66.9528 112.941L43.8994 126.831C23.8428 138.928 2.36655 138.927 -17.7019 126.832C-17.7021 126.832 -17.7018 126.832 -17.7019 126.832L-40.7571 112.941Z" fill="#B9E15E"/>
<path fill-rule="evenodd" clip-rule="evenodd" d="M-40.7571 169.988C-59.277 158.818 -79.109 158.817 -97.6426 169.988L-100 155.22C-79.9318 143.125 -58.4558 143.124 -38.3993 155.22C-38.399 155.22 -38.3997 155.22 -38.3993 155.22L-15.3453 169.11C3.18831 180.281 23.0207 180.281 41.5406 169.111L64.5954 155.22C64.5955 155.22 64.5953 155.22 64.5954 155.22C84.6635 143.125 106.14 143.124 126.196 155.22C126.196 155.22 126.196 155.22 126.196 155.22L149.25 169.11C167.784 180.281 187.616 180.281 206.136 169.111L229.191 155.22C229.191 155.22 229.191 155.22 229.191 155.22C249.259 143.125 270.735 143.124 290.791 155.22C290.792 155.22 290.791 155.22 290.791 155.22L313.845 169.11C332.379 180.281 352.211 180.281 370.731 169.111L393.786 155.22C413.855 143.125 435.331 143.124 455.388 155.221L453.029 169.988C434.509 158.818 414.677 158.817 396.144 169.988L373.09 183.878C373.09 183.878 373.091 183.878 373.09 183.878C353.034 195.974 331.557 195.974 311.488 183.878L288.435 169.988C269.915 158.819 250.082 158.817 231.548 169.988L208.495 183.878C188.438 195.974 166.962 195.974 146.893 183.879C146.893 183.878 146.894 183.879 146.893 183.879L123.839 169.988C105.319 158.819 85.4864 158.817 66.9528 169.988L43.8994 183.878C23.8428 195.974 2.36655 195.974 -17.7019 183.879C-17.7021 183.878 -17.7018 183.879 -17.7019 183.879L-40.7571 169.988Z" fill="#B9E15E"/>
<path fill-rule="evenodd" clip-rule="evenodd" d="M-40.7571 227.038C-59.277 215.869 -79.109 215.868 -97.6426 227.039L-100 212.271C-79.9318 200.176 -58.4558 200.175 -38.3993 212.271C-38.399 212.271 -38.3997 212.271 -38.3993 212.271L-15.3453 226.161C3.18831 237.332 23.0207 237.332 41.5406 226.162L64.5954 212.271C64.5955 212.271 64.5953 212.271 64.5954 212.271C84.6635 200.176 106.14 200.175 126.196 212.271C126.196 212.271 126.196 212.271 126.196 212.271L149.25 226.161C167.784 237.332 187.616 237.332 206.136 226.162L229.191 212.271C229.191 212.271 229.191 212.271 229.191 212.271C249.259 200.176 270.735 200.175 290.791 212.271C290.792 212.271 290.791 212.271 290.791 212.271L313.845 226.161C332.379 237.332 352.211 237.332 370.731 226.162L393.786 212.271C413.855 200.175 435.331 200.175 455.388 212.272L453.029 227.038C434.509 215.869 414.677 215.868 396.144 227.039L373.09 240.929C373.09 240.929 373.091 240.928 373.09 240.929C353.034 253.025 331.557 253.025 311.488 240.929L288.435 227.039C269.915 215.869 250.082 215.868 231.548 227.039L208.495 240.929C188.438 253.025 166.962 253.025 146.893 240.929C146.893 240.929 146.894 240.929 146.893 240.929L123.839 227.039C105.319 215.869 85.4864 215.868 66.9528 227.039L43.8994 240.929C23.8428 253.025 2.36655 253.025 -17.7019 240.929C-17.7021 240.929 -17.7018 240.929 -17.7019 240.929L-40.7571 227.038Z" fill="#B9E15E"/>
<rect x="191" y="268.469" width="127.469" height="25.4076" transform="rotate(-90 191 268.469)" fill="#393A3D"/>
<rect x="241.812" y="268.469" width="127.469" height="25.4076" transform="rotate(-90 241.812 268.469)" fill="#393A3D"/>
<rect x="292.633" y="268.469" width="127.469" height="25.4076" transform="rotate(-90 292.633 268.469)" fill="#393A3D"/>
<rect x="343.445" y="268.469" width="127.469" height="25.4076" transform="rotate(-90 343.445 268.469)" fill="#393A3D"/>
<rect x="394.258" y="268.469" width="127.469" height="25.4076" transform="rotate(-90 394.258 268.469)" fill="#393A3D"/>
<rect x="445.078" y="268.469" width="127.469" height="25.4076" transform="rotate(-90 445.078 268.469)" fill="#393A3D"/>
<rect x="495.891" y="268.469" width="127.469" height="25.4076" transform="rotate(-90 495.891 268.469)" fill="#393A3D"/>
<rect x="546.703" y="268.469" width="127.469" height="25.4076" transform="rotate(-90 546.703 268.469)" fill="#393A3D"/>
<rect x="-315" y="333" width="1012.07" height="84.6919" fill="#4C6600"/>
<rect x="-315" y="502.383" width="1012.07" height="84.6919" fill="#4C6600"/>
<path fill-rule="evenodd" clip-rule="evenodd" d="M1112.5 413C1283.43 413 1422 274.432 1422 103.5C1422 -67.432 1283.43 -206 1112.5 -206C941.568 -206 803 -67.432 803 103.5C803 274.432 941.568 413 1112.5 413ZM1112.5 358.382C1253.27 358.382 1367.38 244.268 1367.38 103.5C1367.38 -37.2682 1253.27 -151.382 1112.5 -151.382C971.732 -151.382 857.618 -37.2682 857.618 103.5C857.618 244.268 971.732 358.382 1112.5 358.382Z" fill="#B9E15E"/>
<rect x="1101" y="-115" width="197" height="702" fill="#393A3D"/>
</g>
<defs>
<filter id="filter0_d_1_6174" x="-16" y="-12" width="1216" height="698" filterUnits="userSpaceOnUse" color-interpolation-filters="sRGB">
<feFlood flood-opacity="0" result="BackgroundImageFix"/>
<feColorMatrix in="SourceAlpha" type="matrix" values="0 0 0 0 0 0 0 0 0 0 0 0 0 0 0 0 0 0 127 0" result="hardAlpha"/>
<feOffset dy="4"/>
<feGaussianBlur stdDeviation="8"/>
<feColorMatrix type="matrix" values="0 0 0 0 0 0 0 0 0 0 0 0 0 0 0 0 0 0 0.2 0"/>
<feBlend mode="normal" in2="BackgroundImageFix" result="effect1_dropShadow_1_6174"/>
<feBlend mode="normal" in="SourceGraphic" in2="effect1_dropShadow_1_6174" result="shape"/>
</filter>
<clipPath id="clip0_1_6174">
<rect width="1184" height="666" fill="white"/>
</clipPath>
</defs>
</svg>
