<svg width="1200" height="675" viewBox="0 0 1200 675" fill="none" xmlns="http://www.w3.org/2000/svg">
<g clip-path="url(#clip0_6_4558)">
<rect width="1200" height="675" fill="#F4F4EF"/>
<path fill-rule="evenodd" clip-rule="evenodd" d="M-63 506.368C-53.4989 504.265 -44.0783 501.277 -34.8063 497.403L11.7815 477.945C49.2054 462.299 89.2816 462.298 126.733 477.946L173.32 497.404C213.848 514.348 257.246 514.346 297.799 497.403L344.387 477.945C381.811 462.299 421.887 462.298 459.338 477.946L505.925 497.404C546.454 514.348 589.851 514.347 630.404 497.403L625.64 476.717C588.189 492.365 548.113 492.364 510.689 476.718L464.101 457.259C423.547 440.316 380.149 440.315 339.62 457.26L293.035 476.717C255.583 492.365 215.506 492.363 178.082 476.717L131.495 457.259C90.9422 440.316 47.5443 440.315 7.01487 457.26L-39.5701 476.717C-47.284 479.94 -55.1094 482.499 -63 484.394L-63 506.368Z" fill="#17497F"/>
<path fill-rule="evenodd" clip-rule="evenodd" d="M-63 441.266C-53.4989 439.164 -44.0783 436.176 -34.8063 432.302L11.7815 412.844C49.2054 397.197 89.2816 397.197 126.733 412.845L173.32 432.302C213.848 449.246 257.246 449.245 297.799 432.302L344.387 412.844C381.811 397.197 421.887 397.197 459.338 412.845L505.925 432.302C546.454 449.246 589.851 449.245 630.404 432.302L625.64 411.615C588.189 427.263 548.113 427.262 510.689 411.616L464.101 392.157C423.547 375.214 380.149 375.214 339.62 392.158L293.035 411.615C255.583 427.263 215.506 427.262 178.082 411.615L131.495 392.157C90.9422 375.214 47.5443 375.214 7.01487 392.158L-39.5701 411.615C-47.284 414.838 -55.1094 417.397 -63 419.293L-63 441.266Z" fill="#17497F"/>
<path fill-rule="evenodd" clip-rule="evenodd" d="M-63 376.163C-53.4989 374.06 -44.0783 371.072 -34.8063 367.198L11.7815 347.74C49.2054 332.094 89.2816 332.093 126.733 347.741L173.32 367.199C213.848 384.143 257.246 384.141 297.799 367.198L344.387 347.74C381.811 332.094 421.887 332.093 459.338 347.741L505.925 367.199C546.454 384.143 589.851 384.142 630.404 367.198L625.64 346.512C588.189 362.16 548.113 362.159 510.689 346.512L464.101 327.054C423.547 310.111 380.149 310.11 339.62 327.055L293.035 346.512C255.583 362.16 215.506 362.158 178.082 346.512L131.495 327.054C90.9422 310.111 47.5443 310.11 7.01487 327.055L-39.5701 346.512C-47.284 349.735 -55.1094 352.294 -63 354.189L-63 376.163Z" fill="#17497F"/>
<path fill-rule="evenodd" clip-rule="evenodd" d="M-63 311.061C-53.4989 308.959 -44.0783 305.971 -34.8063 302.097L11.7815 282.639C49.2054 266.992 89.2816 266.992 126.733 282.639L173.32 302.097C213.848 319.041 257.246 319.04 297.799 302.097L344.387 282.639C381.811 266.992 421.887 266.992 459.338 282.639L505.925 302.097C546.454 319.041 589.851 319.04 630.404 302.097L625.64 281.41C588.189 297.058 548.113 297.057 510.689 281.411L464.101 261.952C423.547 245.009 380.149 245.008 339.62 261.953L293.035 281.41C255.583 297.058 215.506 297.056 178.082 281.41L131.495 261.952C90.9422 245.009 47.5443 245.008 7.01487 261.953L-39.5701 281.41C-47.284 284.633 -55.1094 287.192 -63 289.088L-63 311.061Z" fill="#17497F"/>
<path fill-rule="evenodd" clip-rule="evenodd" d="M-63 245.958C-53.4989 243.855 -44.0783 240.867 -34.8063 236.993L11.7815 217.535C49.2054 201.889 89.2816 201.888 126.733 217.536L173.32 236.994C213.848 253.937 257.246 253.936 297.799 236.993L344.387 217.535C381.811 201.889 421.887 201.888 459.338 217.536L505.925 236.994C546.454 253.938 589.851 253.937 630.404 236.993L625.64 216.307C588.189 231.954 548.113 231.954 510.689 216.307L464.101 196.849C423.547 179.905 380.149 179.905 339.62 196.85L293.035 216.307C255.583 231.954 215.506 231.953 178.082 216.306L131.495 196.849C90.9422 179.905 47.5443 179.905 7.01487 196.85L-39.5701 216.307C-47.284 219.53 -55.1094 222.089 -63 223.984L-63 245.958Z" fill="#17497F"/>
<rect x="592" width="592" height="666" fill="#DDECE1"/>
<rect x="1184.46" y="-173.305" width="1012.07" height="84.6919" transform="rotate(90 1184.46 -173.305)" fill="#5DABFF"/>
<rect x="1015.08" y="-173.305" width="1012.07" height="84.6919" transform="rotate(90 1015.08 -173.305)" fill="#393A3D"/>
<rect x="845.691" y="-173.305" width="1012.07" height="84.6919" transform="rotate(90 845.691 -173.305)" fill="#5DABFF"/>
</g>
<defs>
<clipPath id="clip0_6_4558">
<rect width="1200" height="675" fill="white"/>
</clipPath>
</defs>
</svg>
