<svg width="1184" height="666" viewBox="0 0 1184 666" fill="none" xmlns="http://www.w3.org/2000/svg">
<g clip-path="url(#clip0_1_4601)">
<rect width="1184" height="666" fill="#F4F4EF"/>
<rect x="592" width="592" height="666" fill="#DDECE1"/>
<path fill-rule="evenodd" clip-rule="evenodd" d="M592 1256C918.953 1256 1184 990.952 1184 664C1184 337.048 918.953 72 592 72C265.047 72 0 337.048 0 664C0 990.952 265.047 1256 592 1256ZM592 1023.84C790.736 1023.84 951.843 862.736 951.843 664C951.843 465.264 790.736 304.157 592 304.157C393.264 304.157 232.157 465.264 232.157 664C232.157 862.736 393.264 1023.84 592 1023.84Z" fill="#5DABFF"/>
<path fill-rule="evenodd" clip-rule="evenodd" d="M592.5 754C544.175 754 505 714.825 505 666.5C505 618.175 544.175 579 592.5 579C640.825 579 680 618.175 680 666.5C680 714.825 640.825 754 592.5 754ZM592.5 719.686C563.126 719.686 539.314 695.874 539.314 666.5C539.314 637.126 563.126 613.314 592.5 613.314C621.874 613.314 645.686 637.126 645.686 666.5C645.686 695.874 621.874 719.686 592.5 719.686Z" fill="#17497F"/>
<path fill-rule="evenodd" clip-rule="evenodd" d="M592.5 938C442.555 938 321 816.445 321 666.5C321 516.555 442.555 395 592.5 395C742.445 395 864 516.555 864 666.5C864 816.445 742.445 938 592.5 938ZM592.5 831.529C501.357 831.529 427.471 757.643 427.471 666.5C427.471 575.357 501.357 501.471 592.5 501.471C683.643 501.471 757.529 575.357 757.529 666.5C757.529 757.643 683.643 831.529 592.5 831.529Z" fill="#393A3D"/>
</g>
<defs>
<clipPath id="clip0_1_4601">
<rect width="1184" height="666" fill="white"/>
</clipPath>
</defs>
</svg>
