<svg width="1184" height="666" viewBox="0 0 1184 666" fill="none" xmlns="http://www.w3.org/2000/svg">
<g clip-path="url(#clip0_1_4591)">
<rect width="1184" height="666" fill="#F4F4EF"/>
<path d="M0 0H1184V664L0 0Z" fill="#DDECE1"/>
<path fill-rule="evenodd" clip-rule="evenodd" d="M1130.61 29.1709C1145.41 4.63629 1145.41 -21.6377 1130.61 -46.1925L1171.43 -52.709C1188.79 -23.912 1188.79 6.90615 1171.44 35.6883C1171.44 35.6885 1171.44 35.6881 1171.44 35.6883C1171.44 35.6891 1171.43 35.6905 1171.43 35.6913L1152.24 67.5518C1137.44 92.1066 1137.44 118.382 1152.24 142.916L1152.24 142.919L1171.43 174.782C1171.44 174.782 1171.43 174.781 1171.43 174.782C1188.79 203.578 1188.79 234.397 1171.44 263.179C1171.43 263.18 1171.43 263.181 1171.43 263.182L1152.24 295.042C1137.44 319.597 1137.44 345.872 1152.24 370.407L1152.24 370.41L1171.43 402.272C1171.44 402.273 1171.43 402.272 1171.43 402.272C1188.79 431.069 1188.79 461.888 1171.44 490.67C1171.43 490.671 1171.43 490.672 1171.43 490.673L1152.24 522.533C1137.44 547.088 1137.44 573.363 1152.24 597.898L1152.24 597.901L1171.43 629.763C1171.44 629.763 1171.43 629.763 1171.43 629.763C1188.79 658.561 1188.79 689.381 1171.43 718.163L1130.61 711.643C1145.41 687.108 1145.41 660.834 1130.61 636.28L1111.42 604.418C1111.42 604.417 1111.42 604.416 1111.41 604.415C1094.06 575.633 1094.06 544.815 1111.42 516.018L1130.61 484.155L1130.61 484.152C1145.41 459.618 1145.41 433.344 1130.61 408.789L1111.42 376.927C1111.42 376.926 1111.42 376.925 1111.41 376.924C1094.06 348.142 1094.06 317.325 1111.41 288.528C1111.42 288.528 1111.41 288.528 1111.41 288.528L1130.61 256.662C1145.41 232.127 1145.41 205.853 1130.61 181.298L1111.42 149.437C1111.42 149.436 1111.42 149.435 1111.41 149.434C1094.06 120.652 1094.06 89.8341 1111.41 61.0374C1111.42 61.037 1111.41 61.0377 1111.41 61.0374L1130.61 29.1709Z" fill="#17497F"/>
<path fill-rule="evenodd" clip-rule="evenodd" d="M1051.77 29.1709C1066.56 4.63629 1066.57 -21.6377 1051.77 -46.1925L1092.59 -52.709C1109.94 -23.912 1109.95 6.90615 1092.59 35.6883C1092.59 35.6885 1092.59 35.6881 1092.59 35.6883C1092.59 35.6891 1092.59 35.6905 1092.59 35.6913L1073.39 67.5518C1058.59 92.1066 1058.59 118.382 1073.39 142.916L1073.39 142.919L1092.59 174.782C1092.59 174.782 1092.59 174.781 1092.59 174.782C1109.94 203.578 1109.95 234.397 1092.59 263.179C1092.59 263.18 1092.59 263.181 1092.59 263.182L1073.39 295.042C1058.59 319.597 1058.59 345.872 1073.39 370.407L1073.39 370.41L1092.59 402.272C1092.59 402.273 1092.59 402.272 1092.59 402.272C1109.94 431.069 1109.95 461.888 1092.59 490.67C1092.59 490.671 1092.59 490.672 1092.59 490.673L1073.39 522.533C1058.59 547.088 1058.59 573.363 1073.39 597.898L1073.39 597.901L1092.59 629.763C1092.59 629.763 1092.59 629.763 1092.59 629.763C1109.94 658.561 1109.95 689.381 1092.59 718.163L1051.77 711.643C1066.56 687.108 1066.57 660.834 1051.77 636.28L1032.57 604.418C1032.57 604.417 1032.57 604.416 1032.57 604.415C1015.21 575.633 1015.21 544.815 1032.57 516.018L1051.77 484.155L1051.77 484.152C1066.56 459.618 1066.57 433.344 1051.77 408.789L1032.57 376.927C1032.57 376.926 1032.57 376.925 1032.57 376.924C1015.21 348.142 1015.21 317.325 1032.57 288.528C1032.57 288.528 1032.57 288.528 1032.57 288.528L1051.77 256.662C1066.56 232.127 1066.57 205.853 1051.77 181.298L1032.57 149.437C1032.57 149.436 1032.57 149.435 1032.57 149.434C1015.21 120.652 1015.21 89.8341 1032.57 61.0374C1032.57 61.037 1032.57 61.0377 1032.57 61.0374L1051.77 29.1709Z" fill="#17497F"/>
<path fill-rule="evenodd" clip-rule="evenodd" d="M972.916 29.1709C987.713 4.63629 987.714 -21.6377 972.914 -46.1925L1013.74 -52.709C1031.09 -23.912 1031.09 6.90615 1013.74 35.6883C1013.74 35.6885 1013.74 35.6881 1013.74 35.6883C1013.74 35.6891 1013.74 35.6905 1013.73 35.6913L994.538 67.5518C979.738 92.1066 979.739 118.382 994.536 142.916L994.538 142.919L1013.74 174.782C1013.74 174.782 1013.74 174.781 1013.74 174.782C1031.09 203.578 1031.09 234.397 1013.74 263.179C1013.74 263.18 1013.74 263.181 1013.73 263.182L994.538 295.042C979.738 319.597 979.739 345.872 994.536 370.407L994.538 370.41L1013.74 402.272C1013.74 402.273 1013.74 402.272 1013.74 402.272C1031.09 431.069 1031.09 461.888 1013.74 490.67C1013.74 490.671 1013.74 490.672 1013.73 490.673L994.538 522.533C979.738 547.088 979.739 573.363 994.536 597.898L994.538 597.901L1013.74 629.763C1013.74 629.763 1013.74 629.763 1013.74 629.763C1031.09 658.561 1031.09 689.381 1013.73 718.163L972.916 711.643C987.713 687.108 987.714 660.834 972.914 636.28L953.717 604.418C953.717 604.417 953.716 604.416 953.716 604.415C936.358 575.633 936.36 544.815 953.716 516.018L972.914 484.155L972.916 484.152C987.713 459.618 987.714 433.344 972.914 408.789L953.717 376.927C953.717 376.926 953.716 376.925 953.716 376.924C936.358 348.142 936.36 317.325 953.716 288.528C953.716 288.528 953.715 288.528 953.716 288.528L972.916 256.662C987.713 232.127 987.714 205.853 972.914 181.298L953.717 149.437C953.717 149.436 953.716 149.435 953.716 149.434C936.358 120.652 936.36 89.8341 953.716 61.0374C953.716 61.037 953.715 61.0377 953.716 61.0374L972.916 29.1709Z" fill="#17497F"/>
<path fill-rule="evenodd" clip-rule="evenodd" d="M894.068 29.1709C908.865 4.63629 908.867 -21.6377 894.067 -46.1925L934.888 -52.709C952.245 -23.912 952.246 6.90615 934.889 35.6883C934.889 35.6885 934.889 35.6881 934.889 35.6883C934.888 35.6891 934.887 35.6905 934.887 35.6913L915.691 67.5518C900.891 92.1066 900.891 118.382 915.689 142.916L915.691 142.919L934.888 174.782C934.888 174.782 934.888 174.781 934.888 174.782C952.244 203.578 952.246 234.397 934.889 263.179C934.888 263.18 934.887 263.181 934.887 263.182L915.691 295.042C900.891 319.597 900.891 345.872 915.689 370.407L915.691 370.41L934.888 402.272C934.888 402.273 934.888 402.272 934.888 402.272C952.244 431.069 952.246 461.888 934.889 490.67C934.888 490.671 934.887 490.672 934.887 490.673L915.691 522.533C900.891 547.088 900.891 573.363 915.689 597.898L915.691 597.901L934.888 629.763C934.888 629.763 934.888 629.763 934.888 629.763C952.245 658.561 952.246 689.381 934.887 718.163L894.068 711.643C908.865 687.108 908.866 660.834 894.067 636.28L874.87 604.418C874.869 604.417 874.869 604.416 874.868 604.415C857.51 575.633 857.512 544.815 874.869 516.018L894.066 484.155L894.068 484.152C908.865 459.618 908.866 433.344 894.067 408.789L874.87 376.927C874.869 376.926 874.869 376.925 874.868 376.924C857.51 348.142 857.512 317.325 874.868 288.528C874.868 288.528 874.868 288.528 874.868 288.528L894.068 256.662C908.865 232.127 908.866 205.853 894.067 181.298L874.87 149.437C874.869 149.436 874.869 149.435 874.868 149.434C857.51 120.652 857.512 89.8341 874.868 61.0374C874.868 61.037 874.868 61.0377 874.868 61.0374L894.068 29.1709Z" fill="#17497F"/>
<path fill-rule="evenodd" clip-rule="evenodd" d="M815.216 29.1709C830.014 4.63629 830.015 -21.6377 815.215 -46.1925L856.037 -52.709C873.393 -23.912 873.395 6.90615 856.037 35.6883C856.037 35.6885 856.037 35.6881 856.037 35.6883C856.037 35.6891 856.036 35.6905 856.035 35.6913L836.839 67.5518C822.039 92.1066 822.04 118.382 836.837 142.916L836.839 142.919L856.036 174.782C856.037 174.782 856.036 174.781 856.036 174.782C873.392 203.578 873.395 234.397 856.037 263.179C856.037 263.18 856.036 263.181 856.035 263.182L836.839 295.042C822.039 319.597 822.04 345.872 836.837 370.407L836.839 370.41L856.036 402.272C856.037 402.273 856.036 402.272 856.036 402.272C873.392 431.069 873.395 461.888 856.037 490.67C856.037 490.671 856.036 490.672 856.035 490.673L836.839 522.533C822.039 547.088 822.04 573.363 836.837 597.898L836.839 597.901L856.036 629.763C856.037 629.763 856.036 629.763 856.036 629.763C873.393 658.561 873.395 689.381 856.035 718.163L815.216 711.643C830.014 687.108 830.015 660.834 815.215 636.28L796.018 604.418C796.018 604.417 796.017 604.416 796.016 604.415C778.659 575.633 778.661 544.815 796.017 516.018L815.215 484.155L815.216 484.152C830.014 459.618 830.015 433.344 815.215 408.789L796.018 376.927C796.018 376.926 796.017 376.925 796.016 376.924C778.659 348.142 778.661 317.325 796.016 288.528C796.017 288.528 796.016 288.528 796.016 288.528L815.216 256.662C830.014 232.127 830.015 205.853 815.215 181.298L796.018 149.437C796.018 149.436 796.017 149.435 796.016 149.434C778.659 120.652 778.661 89.8341 796.016 61.0374C796.017 61.037 796.016 61.0377 796.016 61.0374L815.216 29.1709Z" fill="#17497F"/>
<rect y="436" width="230" height="230" fill="#5DABFF"/>
<path fill-rule="evenodd" clip-rule="evenodd" d="M317.5 436C269.175 436 230 396.825 230 348.5C230 300.175 269.175 261 317.5 261C365.825 261 405 300.175 405 348.5C405 396.825 365.825 436 317.5 436ZM317.5 401.686C288.126 401.686 264.314 377.874 264.314 348.5C264.314 319.126 288.126 295.314 317.5 295.314C346.874 295.314 370.686 319.126 370.686 348.5C370.686 377.874 346.874 401.686 317.5 401.686Z" fill="#17497F"/>
</g>
<defs>
<clipPath id="clip0_1_4591">
<rect width="1184" height="666" fill="white"/>
</clipPath>
</defs>
</svg>
