<svg width="1200" height="675" viewBox="0 0 1200 675" fill="none" xmlns="http://www.w3.org/2000/svg">
<g clip-path="url(#clip0_6_4383)">
<rect width="1200" height="675" fill="#F4F4EF"/>
<path d="M10 0H1184V667H546V353.939L10 0Z" fill="#DDECE1"/>
<path fill-rule="evenodd" clip-rule="evenodd" d="M997.839 820.939C982.842 845.806 982.841 872.435 997.84 897.321L956.468 903.926C938.876 874.74 938.875 843.505 956.467 814.334C956.467 814.334 956.467 814.334 956.467 814.334C956.467 814.333 956.468 814.332 956.469 814.331L975.924 782.04C990.924 757.153 990.924 730.523 975.926 705.657L975.924 705.654L956.468 673.361C956.467 673.361 956.468 673.361 956.468 673.361C938.877 644.175 938.875 612.94 956.467 583.769C956.468 583.768 956.468 583.767 956.469 583.766L975.924 551.475C990.924 526.588 990.924 499.958 975.926 475.092L975.924 475.089L956.468 442.796C956.467 442.796 956.468 442.796 956.468 442.796C938.877 413.61 938.875 382.375 956.467 353.204C956.467 353.203 956.468 353.202 956.469 353.201L975.924 320.91C990.924 296.024 990.924 269.393 975.926 244.527L975.924 244.524L956.468 212.231C956.467 212.231 956.468 212.232 956.468 212.231C938.876 183.044 938.875 151.808 956.469 122.636L997.839 129.245C982.842 154.111 982.841 180.74 997.84 205.627L1017.3 237.919C1017.3 237.92 1017.3 237.921 1017.3 237.922C1034.89 267.093 1034.89 298.328 1017.3 327.514L997.841 359.807L997.839 359.81C982.842 384.676 982.841 411.305 997.84 436.192L1017.3 468.484C1017.3 468.485 1017.3 468.486 1017.3 468.487C1034.89 497.657 1034.89 528.892 1017.3 558.077C1017.3 558.078 1017.3 558.077 1017.3 558.077L997.839 590.375C982.842 615.241 982.841 641.87 997.84 666.756L1017.3 699.048C1017.3 699.049 1017.3 699.051 1017.3 699.052C1034.89 728.222 1034.89 759.456 1017.3 788.642C1017.3 788.643 1017.3 788.642 1017.3 788.642L997.839 820.939Z" fill="#393A3D"/>
<path fill-rule="evenodd" clip-rule="evenodd" d="M871.456 820.939C856.459 845.806 856.458 872.435 871.458 897.321L830.085 903.926C812.494 874.74 812.492 843.505 830.084 814.334C830.084 814.334 830.084 814.334 830.084 814.334C830.085 814.333 830.085 814.332 830.086 814.331L849.542 782.04C864.541 757.153 864.541 730.523 849.543 705.657L849.542 705.654L830.085 673.361C830.085 673.361 830.085 673.361 830.085 673.361C812.494 644.175 812.492 612.94 830.084 583.769C830.085 583.768 830.085 583.767 830.086 583.766L849.542 551.475C864.541 526.588 864.541 499.958 849.543 475.092L849.542 475.089L830.085 442.796C830.084 442.796 830.085 442.796 830.085 442.796C812.494 413.61 812.492 382.375 830.084 353.204C830.085 353.203 830.085 353.202 830.086 353.201L849.542 320.91C864.541 296.024 864.541 269.393 849.543 244.527L849.542 244.524L830.085 212.231C830.084 212.231 830.085 212.232 830.085 212.231C812.494 183.044 812.492 151.808 830.086 122.636L871.456 129.245C856.459 154.111 856.458 180.74 871.458 205.627L890.914 237.919C890.915 237.92 890.915 237.921 890.916 237.922C908.508 267.093 908.506 298.328 890.915 327.514L871.458 359.807L871.456 359.81C856.459 384.676 856.458 411.305 871.458 436.192L890.914 468.484C890.915 468.485 890.915 468.486 890.916 468.487C908.508 497.657 908.506 528.892 890.916 558.077C890.916 558.078 890.916 558.077 890.916 558.077L871.456 590.375C856.459 615.241 856.458 641.87 871.458 666.756L890.914 699.048C890.915 699.049 890.915 699.051 890.916 699.052C908.508 728.222 908.506 759.456 890.916 788.642C890.916 788.643 890.916 788.642 890.916 788.642L871.456 820.939Z" fill="#5DABFF"/>
<path fill-rule="evenodd" clip-rule="evenodd" d="M1123.82 820.939C1108.82 845.806 1108.82 872.435 1123.82 897.321L1082.45 903.926C1064.86 874.74 1064.86 843.505 1082.45 814.334C1082.45 814.334 1082.45 814.334 1082.45 814.334C1082.45 814.333 1082.45 814.332 1082.45 814.331L1101.9 782.04C1116.9 757.153 1116.9 730.523 1101.91 705.657L1101.9 705.654L1082.45 673.361C1082.45 673.361 1082.45 673.361 1082.45 673.361C1064.86 644.175 1064.86 612.94 1082.45 583.769C1082.45 583.768 1082.45 583.767 1082.45 583.766L1101.9 551.475C1116.9 526.588 1116.9 499.958 1101.91 475.092L1101.9 475.089L1082.45 442.796C1082.45 442.796 1082.45 442.796 1082.45 442.796C1064.86 413.61 1064.86 382.375 1082.45 353.204C1082.45 353.203 1082.45 353.202 1082.45 353.201L1101.9 320.91C1116.9 296.024 1116.9 269.393 1101.91 244.527L1101.9 244.524L1082.45 212.231C1082.45 212.231 1082.45 212.232 1082.45 212.231C1064.86 183.044 1064.86 151.808 1082.45 122.636L1123.82 129.245C1108.82 154.111 1108.82 180.74 1123.82 205.627L1143.28 237.919C1143.28 237.92 1143.28 237.921 1143.28 237.922C1160.87 267.093 1160.87 298.328 1143.28 327.514L1123.82 359.807L1123.82 359.81C1108.82 384.676 1108.82 411.305 1123.82 436.192L1143.28 468.484C1143.28 468.485 1143.28 468.486 1143.28 468.487C1160.87 497.657 1160.87 528.892 1143.28 558.077C1143.28 558.078 1143.28 558.077 1143.28 558.077L1123.82 590.375C1108.82 615.241 1108.82 641.87 1123.82 666.756L1143.28 699.048C1143.28 699.049 1143.28 699.051 1143.28 699.052C1160.87 728.222 1160.87 759.456 1143.28 788.642C1143.28 788.643 1143.28 788.642 1143.28 788.642L1123.82 820.939Z" fill="#5DABFF"/>
<path fill-rule="evenodd" clip-rule="evenodd" d="M67 1314C435.374 1314 734 1015.37 734 647C734 278.626 435.374 -20 67 -20C-301.374 -20 -600 278.626 -600 647C-600 1015.37 -301.374 1314 67 1314ZM67 1052.43C290.913 1052.43 472.431 870.914 472.431 647C472.431 423.086 290.913 241.569 67 241.569C-156.913 241.569 -338.431 423.086 -338.431 647C-338.431 870.914 -156.913 1052.43 67 1052.43Z" fill="#5DABFF"/>
<rect x="781" y="60" width="89.2705" height="89.2705" fill="#5DABFF"/>
<rect x="908" y="60" width="89.2705" height="89.2705" fill="#393A3D"/>
<rect x="1035" y="60" width="89.2705" height="89.2705" fill="#5DABFF"/>
<path d="M110 359V556H284L110 359Z" fill="#17497F"/>
</g>
<defs>
<clipPath id="clip0_6_4383">
<rect width="1200" height="675" fill="white"/>
</clipPath>
</defs>
</svg>
