<svg width="1200" height="675" viewBox="0 0 1200 675" fill="none" xmlns="http://www.w3.org/2000/svg">
<g clip-path="url(#clip0_6_4358)">
<rect width="1200" height="675" fill="#F4F4EF"/>
<rect x="592" width="592" height="666" fill="#DDECE1"/>
<path fill-rule="evenodd" clip-rule="evenodd" d="M600 1256C926.953 1256 1192 990.952 1192 664C1192 337.048 926.953 72 600 72C273.047 72 8 337.048 8 664C8 990.952 273.047 1256 600 1256ZM600 1023.84C798.736 1023.84 959.843 862.736 959.843 664C959.843 465.264 798.736 304.157 600 304.157C401.264 304.157 240.157 465.264 240.157 664C240.157 862.736 401.264 1023.84 600 1023.84Z" fill="#5DABFF"/>
<path fill-rule="evenodd" clip-rule="evenodd" d="M600.5 754C552.175 754 513 714.825 513 666.5C513 618.175 552.175 579 600.5 579C648.825 579 688 618.175 688 666.5C688 714.825 648.825 754 600.5 754ZM600.5 719.686C571.126 719.686 547.314 695.874 547.314 666.5C547.314 637.126 571.126 613.314 600.5 613.314C629.874 613.314 653.686 637.126 653.686 666.5C653.686 695.874 629.874 719.686 600.5 719.686Z" fill="#17497F"/>
<path fill-rule="evenodd" clip-rule="evenodd" d="M600.5 938C450.555 938 329 816.445 329 666.5C329 516.555 450.555 395 600.5 395C750.445 395 872 516.555 872 666.5C872 816.445 750.445 938 600.5 938ZM600.5 831.529C509.357 831.529 435.471 757.643 435.471 666.5C435.471 575.357 509.357 501.471 600.5 501.471C691.643 501.471 765.529 575.357 765.529 666.5C765.529 757.643 691.643 831.529 600.5 831.529Z" fill="#393A3D"/>
</g>
<defs>
<clipPath id="clip0_6_4358">
<rect width="1200" height="675" fill="white"/>
</clipPath>
</defs>
</svg>
