<svg width="1200" height="675" viewBox="0 0 1200 675" fill="none" xmlns="http://www.w3.org/2000/svg">
<g clip-path="url(#clip0_6_4347)">
<rect width="1200" height="675" fill="#F4F4EF"/>
<rect width="789" height="666" fill="#DDECE1"/>
<path fill-rule="evenodd" clip-rule="evenodd" d="M107.598 320.218C65.7241 304.572 20.8834 304.571 -21.0214 320.219L-26.3516 299.532C19.0231 282.589 67.5807 282.588 112.929 299.532C112.93 299.532 112.928 299.532 112.929 299.532L165.055 318.989C206.959 334.637 251.801 334.637 293.675 318.99L345.802 299.532C345.802 299.532 345.802 299.532 345.802 299.532C391.176 282.589 439.735 282.588 485.082 299.532C485.083 299.532 485.082 299.532 485.082 299.532L537.208 318.989C579.113 334.637 623.954 334.637 665.828 318.99L717.955 299.532C717.956 299.532 717.955 299.532 717.955 299.532C763.33 282.589 811.888 282.588 857.236 299.532C857.237 299.532 857.235 299.532 857.236 299.532L909.361 318.989C951.266 334.637 996.108 334.637 1037.98 318.99L1090.11 299.532C1135.48 282.588 1184.04 282.588 1229.39 299.533L1224.06 320.218C1182.18 304.572 1137.34 304.571 1095.44 320.219L1043.32 339.676C1043.31 339.676 1043.32 339.675 1043.32 339.676C997.967 356.62 949.407 356.62 904.032 339.676L851.907 320.219C810.033 304.572 765.19 304.571 723.286 320.219L671.162 339.676C625.813 356.62 577.255 356.62 531.88 339.677C531.879 339.676 531.88 339.677 531.88 339.677L479.754 320.219C437.88 304.572 393.037 304.571 351.132 320.219L299.008 339.676C253.66 356.62 205.101 356.62 159.726 339.677C159.726 339.676 159.726 339.677 159.726 339.677L107.598 320.218Z" fill="#5DABFF"/>
<path fill-rule="evenodd" clip-rule="evenodd" d="M107.598 400.134C65.7241 384.488 20.8834 384.487 -21.0214 400.135L-26.3516 379.448C19.0231 362.505 67.5807 362.504 112.929 379.448C112.93 379.448 112.928 379.448 112.929 379.448L165.055 398.905C206.959 414.553 251.801 414.553 293.675 398.906L345.802 379.448C345.802 379.448 345.802 379.448 345.802 379.448C391.176 362.505 439.735 362.504 485.082 379.448C485.083 379.448 485.082 379.448 485.082 379.448L537.208 398.905C579.113 414.553 623.954 414.553 665.828 398.906L717.955 379.448C717.956 379.448 717.955 379.448 717.955 379.448C763.33 362.505 811.888 362.504 857.236 379.448C857.237 379.448 857.235 379.448 857.236 379.448L909.361 398.905C951.266 414.553 996.108 414.553 1037.98 398.906L1090.11 379.448C1135.48 362.504 1184.04 362.504 1229.39 379.449L1224.06 400.134C1182.18 384.488 1137.34 384.487 1095.44 400.135L1043.32 419.592C1043.31 419.592 1043.32 419.591 1043.32 419.592C997.967 436.536 949.407 436.536 904.032 419.592L851.907 400.135C810.033 384.488 765.19 384.487 723.286 400.135L671.162 419.592C625.813 436.536 577.255 436.536 531.88 419.593C531.879 419.592 531.88 419.593 531.88 419.593L479.754 400.135C437.88 384.488 393.037 384.487 351.132 400.135L299.008 419.592C253.66 436.536 205.101 436.536 159.726 419.593C159.726 419.592 159.726 419.593 159.726 419.593L107.598 400.134Z" fill="#5DABFF"/>
<path fill-rule="evenodd" clip-rule="evenodd" d="M107.598 480.048C65.7241 464.402 20.8834 464.401 -21.0214 480.049L-26.3516 459.362C19.0231 442.419 67.5807 442.418 112.929 459.362C112.93 459.362 112.928 459.362 112.929 459.362L165.055 478.82C206.959 494.467 251.801 494.467 293.675 478.82L345.802 459.362C345.802 459.362 345.802 459.362 345.802 459.362C391.176 442.419 439.735 442.418 485.082 459.362C485.083 459.362 485.082 459.362 485.082 459.362L537.208 478.82C579.113 494.467 623.954 494.467 665.828 478.82L717.955 459.362C717.956 459.362 717.955 459.362 717.955 459.362C763.33 442.419 811.888 442.418 857.236 459.362C857.237 459.362 857.235 459.362 857.236 459.362L909.361 478.82C951.266 494.467 996.108 494.467 1037.98 478.82L1090.11 459.362C1135.48 442.419 1184.04 442.418 1229.39 459.363L1224.06 480.048C1182.18 464.402 1137.34 464.401 1095.44 480.049L1043.32 499.506C1043.31 499.506 1043.32 499.505 1043.32 499.506C997.967 516.45 949.407 516.45 904.032 499.506L851.907 480.049C810.033 464.403 765.19 464.401 723.286 480.049L671.162 499.506C625.813 516.45 577.255 516.45 531.88 499.507C531.879 499.506 531.88 499.507 531.88 499.507L479.754 480.049C437.88 464.403 393.037 464.401 351.132 480.049L299.008 499.506C253.66 516.45 205.101 516.45 159.726 499.507C159.726 499.506 159.726 499.507 159.726 499.507L107.598 480.048Z" fill="#393A3D"/>
<path fill-rule="evenodd" clip-rule="evenodd" d="M107.598 559.964C65.7241 544.318 20.8834 544.317 -21.0214 559.965L-26.3516 539.278C19.0231 522.335 67.5807 522.334 112.929 539.278C112.93 539.278 112.928 539.278 112.929 539.278L165.055 558.736C206.959 574.383 251.801 574.383 293.675 558.736L345.802 539.278C345.802 539.278 345.802 539.278 345.802 539.278C391.176 522.335 439.735 522.334 485.082 539.278C485.083 539.278 485.082 539.278 485.082 539.278L537.208 558.736C579.113 574.383 623.954 574.383 665.828 558.736L717.955 539.278C717.956 539.278 717.955 539.278 717.955 539.278C763.33 522.335 811.888 522.334 857.236 539.278C857.237 539.278 857.235 539.278 857.236 539.278L909.361 558.736C951.266 574.383 996.108 574.383 1037.98 558.736L1090.11 539.278C1135.48 522.335 1184.04 522.334 1229.39 539.279L1224.06 559.964C1182.18 544.318 1137.34 544.317 1095.44 559.965L1043.32 579.422C1043.31 579.422 1043.32 579.421 1043.32 579.422C997.967 596.366 949.407 596.366 904.032 579.422L851.907 559.965C810.033 544.319 765.19 544.317 723.286 559.965L671.162 579.422C625.813 596.367 577.255 596.366 531.88 579.423C531.879 579.422 531.88 579.423 531.88 579.423L479.754 559.965C437.88 544.319 393.037 544.317 351.132 559.965L299.008 579.422C253.66 596.367 205.101 596.366 159.726 579.423C159.726 579.422 159.726 579.423 159.726 579.423L107.598 559.964Z" fill="#5DABFF"/>
<path fill-rule="evenodd" clip-rule="evenodd" d="M107.598 639.876C65.7241 624.23 20.8834 624.229 -21.0214 639.877L-26.3516 619.19C19.0231 602.247 67.5807 602.246 112.929 619.19C112.93 619.19 112.928 619.19 112.929 619.19L165.055 638.648C206.959 654.295 251.801 654.295 293.675 638.649L345.802 619.19C345.802 619.19 345.802 619.19 345.802 619.19C391.176 602.247 439.735 602.246 485.082 619.19C485.083 619.19 485.082 619.19 485.082 619.19L537.208 638.648C579.113 654.295 623.954 654.295 665.828 638.649L717.955 619.19C717.956 619.19 717.955 619.19 717.955 619.19C763.33 602.247 811.888 602.246 857.236 619.19C857.237 619.19 857.235 619.19 857.236 619.19L909.361 638.648C951.266 654.295 996.108 654.295 1037.98 638.649L1090.11 619.19C1135.48 602.247 1184.04 602.246 1229.39 619.191L1224.06 639.876C1182.18 624.23 1137.34 624.229 1095.44 639.877L1043.32 659.334C1043.31 659.334 1043.32 659.333 1043.32 659.334C997.967 676.278 949.407 676.278 904.032 659.334L851.907 639.877C810.033 624.231 765.19 624.229 723.286 639.877L671.162 659.334C625.813 676.279 577.255 676.278 531.88 659.335C531.879 659.335 531.88 659.335 531.88 659.335L479.754 639.877C437.88 624.231 393.037 624.229 351.132 639.877L299.008 659.334C253.66 676.279 205.101 676.278 159.726 659.335C159.726 659.335 159.726 659.335 159.726 659.335L107.598 639.876Z" fill="#5DABFF"/>
<path fill-rule="evenodd" clip-rule="evenodd" d="M217.5 248C169.175 248 130 208.825 130 160.5C130 112.175 169.175 73 217.5 73C265.825 73 305 112.175 305 160.5C305 208.825 265.825 248 217.5 248ZM217.5 213.686C188.126 213.686 164.314 189.874 164.314 160.5C164.314 131.126 188.126 107.314 217.5 107.314C246.874 107.314 270.686 131.126 270.686 160.5C270.686 189.874 246.874 213.686 217.5 213.686Z" fill="#17497F"/>
<path fill-rule="evenodd" clip-rule="evenodd" d="M593.5 248C545.175 248 506 208.825 506 160.5C506 112.175 545.175 73 593.5 73C641.825 73 681 112.175 681 160.5C681 208.825 641.825 248 593.5 248ZM593.5 213.686C564.126 213.686 540.314 189.874 540.314 160.5C540.314 131.126 564.126 107.314 593.5 107.314C622.874 107.314 646.686 131.126 646.686 160.5C646.686 189.874 622.874 213.686 593.5 213.686Z" fill="#17497F"/>
<path fill-rule="evenodd" clip-rule="evenodd" d="M969.5 248C921.175 248 882 208.825 882 160.5C882 112.175 921.175 73 969.5 73C1017.82 73 1057 112.175 1057 160.5C1057 208.825 1017.82 248 969.5 248ZM969.5 213.686C940.126 213.686 916.314 189.874 916.314 160.5C916.314 131.126 940.126 107.314 969.5 107.314C998.874 107.314 1022.69 131.126 1022.69 160.5C1022.69 189.874 998.874 213.686 969.5 213.686Z" fill="#17497F"/>
</g>
<defs>
<clipPath id="clip0_6_4347">
<rect width="1200" height="675" fill="white"/>
</clipPath>
</defs>
</svg>
