<svg width="1184" height="666" viewBox="0 0 1184 666" fill="none" xmlns="http://www.w3.org/2000/svg">
<g clip-path="url(#clip0_1_4533)">
<rect width="1184" height="666" fill="#F4F4EF"/>
<rect x="310" width="874" height="666" fill="#DDECE1"/>
<path d="M772 0C772 95.7554 849.625 173.381 945.381 173.381C1041.14 173.381 1118.76 95.7554 1118.76 0H1050.77C1050.77 58.2044 1003.59 105.388 945.381 105.388C887.176 105.388 839.992 58.2044 839.992 0H772Z" fill="#5DABFF"/>
<path d="M309.816 256L553.876 675.521H65.7562L309.816 256Z" fill="#5DABFF"/>
<rect x="261" y="124.729" width="68.9125" height="68.9125" transform="rotate(-45 261 124.729)" fill="#17497F"/>
<rect x="754" y="739.531" width="406.531" height="25.4076" transform="rotate(-90 754 739.531)" fill="#17497F"/>
<rect x="804.816" y="739.531" width="406.531" height="25.4076" transform="rotate(-90 804.816 739.531)" fill="#17497F"/>
<rect x="855.633" y="739.531" width="406.531" height="25.4076" transform="rotate(-90 855.633 739.531)" fill="#17497F"/>
<rect x="906.445" y="739.531" width="406.531" height="25.4076" transform="rotate(-90 906.445 739.531)" fill="#17497F"/>
<rect x="957.262" y="739.531" width="406.531" height="25.4076" transform="rotate(-90 957.262 739.531)" fill="#17497F"/>
<rect x="1008.08" y="739.531" width="406.531" height="25.4076" transform="rotate(-90 1008.08 739.531)" fill="#17497F"/>
<rect x="1058.89" y="739.531" width="406.531" height="25.4076" transform="rotate(-90 1058.89 739.531)" fill="#17497F"/>
<rect x="1109.71" y="739.531" width="406.531" height="25.4076" transform="rotate(-90 1109.71 739.531)" fill="#17497F"/>
</g>
<defs>
<clipPath id="clip0_1_4533">
<rect width="1184" height="666" fill="white"/>
</clipPath>
</defs>
</svg>
