<svg width="1184" height="666" viewBox="0 0 1184 666" fill="none" xmlns="http://www.w3.org/2000/svg">
<g clip-path="url(#clip0_1_4522)">
<rect width="1184" height="666" fill="#F4F4EF"/>
<rect width="789" height="666" fill="#DDECE1"/>
<path fill-rule="evenodd" clip-rule="evenodd" d="M106.163 315.949C64.8479 300.511 20.6052 300.51 -20.7409 315.949L-26 295.538C18.7697 278.821 66.6798 278.82 111.423 295.538C111.424 295.538 111.422 295.538 111.423 295.538L162.854 314.736C204.2 330.175 248.444 330.175 289.759 314.737L341.191 295.538C341.192 295.538 341.191 295.539 341.191 295.538C385.961 278.821 433.872 278.82 478.615 295.538C478.616 295.538 478.614 295.538 478.615 295.538L530.045 314.736C571.392 330.175 615.635 330.175 656.951 314.737L708.383 295.538C708.383 295.538 708.383 295.539 708.383 295.538C753.152 278.821 801.063 278.82 845.806 295.538C845.807 295.538 845.805 295.538 845.806 295.538L897.237 314.736C938.583 330.175 982.827 330.175 1024.14 314.737L1075.57 295.538C1120.34 278.821 1168.26 278.82 1213 295.539L1207.74 315.949C1166.42 300.511 1122.18 300.51 1080.83 315.949L1029.4 335.147C1029.4 335.147 1029.41 335.146 1029.4 335.147C984.661 351.865 936.748 351.865 891.978 335.147L840.549 315.949C799.233 300.512 754.988 300.51 713.642 315.949L662.213 335.147C617.469 351.866 569.558 351.865 524.788 335.148C524.788 335.147 524.788 335.148 524.788 335.148L473.357 315.949C432.042 300.512 387.797 300.51 346.451 315.949L295.021 335.147C250.278 351.866 202.367 351.865 157.597 335.148C157.596 335.147 157.597 335.148 157.597 335.148L106.163 315.949Z" fill="#5DABFF"/>
<path fill-rule="evenodd" clip-rule="evenodd" d="M106.163 394.798C64.8479 379.36 20.6052 379.36 -20.7409 394.799L-26 374.388C18.7697 357.671 66.6798 357.67 111.423 374.388C111.424 374.388 111.422 374.387 111.423 374.388L162.854 393.586C204.2 409.025 248.444 409.025 289.759 393.587L341.191 374.388C341.192 374.388 341.191 374.388 341.191 374.388C385.961 357.671 433.872 357.67 478.615 374.388C478.616 374.388 478.614 374.388 478.615 374.388L530.045 393.586C571.392 409.025 615.635 409.025 656.951 393.587L708.383 374.388C708.383 374.388 708.383 374.388 708.383 374.388C753.152 357.671 801.063 357.67 845.806 374.388C845.807 374.388 845.805 374.388 845.806 374.388L897.237 393.586C938.583 409.025 982.827 409.025 1024.14 393.587L1075.57 374.388C1120.34 357.67 1168.26 357.67 1213 374.389L1207.74 394.798C1166.42 379.36 1122.18 379.36 1080.83 394.799L1029.4 413.996C1029.4 413.997 1029.41 413.996 1029.4 413.996C984.661 430.714 936.748 430.714 891.978 413.997L840.549 394.799C799.233 379.361 754.988 379.36 713.642 394.799L662.213 413.996C617.469 430.715 569.558 430.715 524.788 413.997C524.788 413.997 524.788 413.997 524.788 413.997L473.357 394.799C432.042 379.361 387.797 379.36 346.451 394.799L295.021 413.996C250.278 430.715 202.367 430.715 157.597 413.997C157.596 413.997 157.597 413.997 157.597 413.997L106.163 394.798Z" fill="#5DABFF"/>
<path fill-rule="evenodd" clip-rule="evenodd" d="M106.163 473.648C64.8479 458.21 20.6052 458.209 -20.7409 473.648L-26 453.238C18.7697 436.52 66.6798 436.519 111.423 453.237C111.424 453.238 111.422 453.237 111.423 453.237L162.854 472.436C204.2 487.875 248.444 487.874 289.759 472.436L341.191 453.238C341.192 453.238 341.191 453.238 341.191 453.238C385.961 436.521 433.872 436.519 478.615 453.237C478.616 453.238 478.614 453.237 478.615 453.237L530.045 472.436C571.392 487.875 615.635 487.874 656.951 472.436L708.383 453.238C708.383 453.238 708.383 453.238 708.383 453.238C753.152 436.521 801.063 436.519 845.806 453.237C845.807 453.238 845.805 453.237 845.806 453.237L897.237 472.436C938.583 487.875 982.827 487.874 1024.14 472.436L1075.57 453.238C1120.34 436.52 1168.26 436.519 1213 453.238L1207.74 473.648C1166.42 458.21 1122.18 458.209 1080.83 473.648L1029.4 492.846C1029.4 492.846 1029.41 492.846 1029.4 492.846C984.661 509.564 936.748 509.564 891.978 492.847L840.549 473.649C799.233 458.211 754.988 458.209 713.642 473.648L662.213 492.846C617.469 509.565 569.558 509.564 524.788 492.847C524.788 492.847 524.788 492.847 524.788 492.847L473.357 473.649C432.042 458.211 387.797 458.209 346.451 473.648L295.021 492.846C250.278 509.565 202.367 509.564 157.597 492.847C157.596 492.847 157.597 492.847 157.597 492.847L106.163 473.648Z" fill="#393A3D"/>
<path fill-rule="evenodd" clip-rule="evenodd" d="M106.163 552.497C64.8479 537.06 20.6052 537.059 -20.7409 552.498L-26 532.087C18.7697 515.37 66.6798 515.369 111.423 532.087C111.424 532.087 111.422 532.087 111.423 532.087L162.854 551.285C204.2 566.724 248.444 566.724 289.759 551.286L341.191 532.087C341.192 532.087 341.191 532.087 341.191 532.087C385.961 515.37 433.872 515.369 478.615 532.087C478.616 532.087 478.614 532.087 478.615 532.087L530.045 551.285C571.392 566.724 615.635 566.724 656.951 551.286L708.383 532.087C708.383 532.087 708.383 532.087 708.383 532.087C753.152 515.37 801.063 515.369 845.806 532.087C845.807 532.087 845.805 532.087 845.806 532.087L897.237 551.285C938.583 566.724 982.827 566.724 1024.14 551.286L1075.57 532.087C1120.34 515.37 1168.26 515.369 1213 532.088L1207.74 552.497C1166.42 537.06 1122.18 537.059 1080.83 552.498L1029.4 571.696C1029.4 571.696 1029.41 571.695 1029.4 571.696C984.661 588.414 936.748 588.414 891.978 571.696L840.549 552.498C799.233 537.06 754.988 537.059 713.642 552.498L662.213 571.696C617.469 588.414 569.558 588.414 524.788 571.696C524.788 571.696 524.788 571.697 524.788 571.696L473.357 552.498C432.042 537.06 387.797 537.059 346.451 552.498L295.021 571.696C250.278 588.414 202.367 588.414 157.597 571.696C157.596 571.696 157.597 571.697 157.597 571.696L106.163 552.497Z" fill="#5DABFF"/>
<path fill-rule="evenodd" clip-rule="evenodd" d="M106.163 631.345C64.8479 615.907 20.6052 615.907 -20.7409 631.346L-26 610.935C18.7697 594.217 66.6798 594.217 111.423 610.935C111.424 610.935 111.422 610.934 111.423 610.935L162.854 630.133C204.2 645.572 248.444 645.572 289.759 630.134L341.191 610.935C341.192 610.935 341.191 610.935 341.191 610.935C385.961 594.218 433.872 594.217 478.615 610.935C478.616 610.935 478.614 610.934 478.615 610.935L530.045 630.133C571.392 645.572 615.635 645.572 656.951 630.134L708.383 610.935C708.383 610.935 708.383 610.935 708.383 610.935C753.152 594.218 801.063 594.217 845.806 610.935C845.807 610.935 845.805 610.934 845.806 610.935L897.237 630.133C938.583 645.572 982.827 645.572 1024.14 630.134L1075.57 610.935C1120.34 594.217 1168.26 594.217 1213 610.936L1207.74 631.345C1166.42 615.907 1122.18 615.907 1080.83 631.346L1029.4 650.543C1029.4 650.543 1029.41 650.543 1029.4 650.543C984.661 667.261 936.748 667.261 891.978 650.544L840.549 631.346C799.233 615.908 754.988 615.907 713.642 631.346L662.213 650.543C617.469 667.262 569.558 667.262 524.788 650.544C524.788 650.544 524.788 650.544 524.788 650.544L473.357 631.346C432.042 615.908 387.797 615.907 346.451 631.346L295.021 650.543C250.278 667.262 202.367 667.262 157.597 650.544C157.596 650.544 157.597 650.544 157.597 650.544L106.163 631.345Z" fill="#5DABFF"/>
<path fill-rule="evenodd" clip-rule="evenodd" d="M217.5 248C169.175 248 130 208.825 130 160.5C130 112.175 169.175 73 217.5 73C265.825 73 305 112.175 305 160.5C305 208.825 265.825 248 217.5 248ZM217.5 213.686C188.126 213.686 164.314 189.874 164.314 160.5C164.314 131.126 188.126 107.314 217.5 107.314C246.874 107.314 270.686 131.126 270.686 160.5C270.686 189.874 246.874 213.686 217.5 213.686Z" fill="#17497F"/>
<path fill-rule="evenodd" clip-rule="evenodd" d="M593.5 248C545.175 248 506 208.825 506 160.5C506 112.175 545.175 73 593.5 73C641.825 73 681 112.175 681 160.5C681 208.825 641.825 248 593.5 248ZM593.5 213.686C564.126 213.686 540.314 189.874 540.314 160.5C540.314 131.126 564.126 107.314 593.5 107.314C622.874 107.314 646.686 131.126 646.686 160.5C646.686 189.874 622.874 213.686 593.5 213.686Z" fill="#17497F"/>
<path fill-rule="evenodd" clip-rule="evenodd" d="M969.5 248C921.175 248 882 208.825 882 160.5C882 112.175 921.175 73 969.5 73C1017.82 73 1057 112.175 1057 160.5C1057 208.825 1017.82 248 969.5 248ZM969.5 213.686C940.126 213.686 916.314 189.874 916.314 160.5C916.314 131.126 940.126 107.314 969.5 107.314C998.874 107.314 1022.69 131.126 1022.69 160.5C1022.69 189.874 998.874 213.686 969.5 213.686Z" fill="#17497F"/>
</g>
<defs>
<clipPath id="clip0_1_4522">
<rect width="1184" height="666" fill="white"/>
</clipPath>
</defs>
</svg>
