<svg width="1200" height="675" viewBox="0 0 1200 675" fill="none" xmlns="http://www.w3.org/2000/svg">
<g clip-path="url(#clip0_6_4322)">
<rect width="1200" height="675" fill="#F4F4EF"/>
<path d="M0 0H1184V664L0 0Z" fill="#DDECE1"/>
<path fill-rule="evenodd" clip-rule="evenodd" d="M1145.9 29.5645C1160.89 4.69833 1160.89 -21.9307 1145.89 -46.8173L1187.27 -53.4219C1204.86 -24.2357 1204.86 6.99887 1187.27 36.17C1187.27 36.1702 1187.27 36.1697 1187.27 36.17C1187.27 36.1707 1187.27 36.1722 1187.27 36.173L1167.81 68.464C1152.81 93.3507 1152.81 119.981 1167.81 144.847L1167.81 144.85L1187.27 177.143C1187.27 177.143 1187.27 177.143 1187.27 177.143C1204.86 206.329 1204.86 237.564 1187.27 266.735C1187.27 266.736 1187.27 266.737 1187.27 266.738L1167.81 299.029C1152.81 323.916 1152.81 350.546 1167.81 375.412L1167.81 375.415L1187.27 407.708C1187.27 407.708 1187.27 407.708 1187.27 407.708C1204.86 436.894 1204.86 468.129 1187.27 497.3C1187.27 497.301 1187.27 497.302 1187.27 497.303L1167.81 529.594C1152.81 554.48 1152.81 581.11 1167.81 605.977L1167.81 605.98L1187.27 638.273C1187.27 638.273 1187.27 638.272 1187.27 638.273C1204.86 667.46 1204.86 698.696 1187.27 727.867L1145.9 721.259C1160.89 696.393 1160.89 669.764 1145.89 644.877L1126.44 612.585C1126.44 612.584 1126.44 612.583 1126.44 612.582C1108.84 583.411 1108.85 552.176 1126.44 522.99L1145.89 490.697L1145.9 490.694C1160.89 465.828 1160.89 439.199 1145.89 414.312L1126.44 382.02C1126.44 382.019 1126.44 382.018 1126.44 382.017C1108.84 352.846 1108.85 321.612 1126.44 292.426C1126.44 292.426 1126.44 292.427 1126.44 292.426L1145.9 260.129C1160.89 235.263 1160.89 208.634 1145.89 183.748L1126.44 151.455C1126.44 151.454 1126.44 151.453 1126.44 151.452C1108.84 122.282 1108.85 91.0474 1126.44 61.8616C1126.44 61.8612 1126.44 61.8619 1126.44 61.8616L1145.9 29.5645Z" fill="#17497F"/>
<path fill-rule="evenodd" clip-rule="evenodd" d="M1065.98 29.5645C1080.98 4.69833 1080.98 -21.9307 1065.98 -46.8173L1107.35 -53.4219C1124.94 -24.2357 1124.95 6.99887 1107.35 36.17C1107.35 36.1702 1107.35 36.1697 1107.35 36.17C1107.35 36.1707 1107.35 36.1722 1107.35 36.173L1087.9 68.464C1072.9 93.3507 1072.9 119.981 1087.89 144.847L1087.9 144.85L1107.35 177.143C1107.35 177.143 1107.35 177.143 1107.35 177.143C1124.94 206.329 1124.95 237.564 1107.35 266.735C1107.35 266.736 1107.35 266.737 1107.35 266.738L1087.9 299.029C1072.9 323.916 1072.9 350.546 1087.89 375.412L1087.9 375.415L1107.35 407.708C1107.35 407.708 1107.35 407.708 1107.35 407.708C1124.94 436.894 1124.95 468.129 1107.35 497.3C1107.35 497.301 1107.35 497.302 1107.35 497.303L1087.9 529.594C1072.9 554.48 1072.9 581.11 1087.89 605.977L1087.9 605.98L1107.35 638.273C1107.35 638.273 1107.35 638.272 1107.35 638.273C1124.94 667.46 1124.95 698.696 1107.35 727.867L1065.98 721.259C1080.98 696.393 1080.98 669.764 1065.98 644.877L1046.52 612.585C1046.52 612.584 1046.52 612.583 1046.52 612.582C1028.93 583.411 1028.93 552.176 1046.52 522.99L1065.98 490.697L1065.98 490.694C1080.98 465.828 1080.98 439.199 1065.98 414.312L1046.52 382.02C1046.52 382.019 1046.52 382.018 1046.52 382.017C1028.93 352.846 1028.93 321.612 1046.52 292.426C1046.52 292.426 1046.52 292.427 1046.52 292.426L1065.98 260.129C1080.98 235.263 1080.98 208.634 1065.98 183.748L1046.52 151.455C1046.52 151.454 1046.52 151.453 1046.52 151.452C1028.93 122.282 1028.93 91.0474 1046.52 61.8616C1046.52 61.8612 1046.52 61.8619 1046.52 61.8616L1065.98 29.5645Z" fill="#17497F"/>
<path fill-rule="evenodd" clip-rule="evenodd" d="M986.067 29.5645C1001.06 4.69833 1001.07 -21.9307 986.066 -46.8173L1027.44 -53.4219C1045.03 -24.2357 1045.03 6.99887 1027.44 36.17C1027.44 36.1702 1027.44 36.1697 1027.44 36.17C1027.44 36.1707 1027.44 36.1722 1027.44 36.173L1007.98 68.464C992.982 93.3507 992.983 119.981 1007.98 144.847L1007.98 144.85L1027.44 177.143C1027.44 177.143 1027.44 177.143 1027.44 177.143C1045.03 206.329 1045.03 237.564 1027.44 266.735C1027.44 266.736 1027.44 266.737 1027.44 266.738L1007.98 299.029C992.982 323.916 992.983 350.546 1007.98 375.412L1007.98 375.415L1027.44 407.708C1027.44 407.708 1027.44 407.708 1027.44 407.708C1045.03 436.894 1045.03 468.129 1027.44 497.3C1027.44 497.301 1027.44 497.302 1027.44 497.303L1007.98 529.594C992.982 554.48 992.983 581.11 1007.98 605.977L1007.98 605.98L1027.44 638.273C1027.44 638.273 1027.44 638.272 1027.44 638.273C1045.03 667.46 1045.03 698.696 1027.44 727.867L986.067 721.259C1001.06 696.393 1001.07 669.764 986.066 644.877L966.609 612.585C966.609 612.584 966.608 612.583 966.608 612.582C949.015 583.411 949.017 552.176 966.608 522.99L986.065 490.697L986.067 490.694C1001.06 465.828 1001.07 439.199 986.066 414.312L966.609 382.02C966.609 382.019 966.608 382.018 966.608 382.017C949.015 352.846 949.017 321.612 966.608 292.426C966.608 292.426 966.607 292.427 966.608 292.426L986.067 260.129C1001.06 235.263 1001.07 208.634 986.066 183.748L966.609 151.455C966.609 151.454 966.608 151.453 966.608 151.452C949.015 122.282 949.017 91.0474 966.608 61.8616C966.608 61.8612 966.607 61.8619 966.608 61.8616L986.067 29.5645Z" fill="#17497F"/>
<path fill-rule="evenodd" clip-rule="evenodd" d="M906.149 29.5645C921.146 4.69833 921.148 -21.9307 906.148 -46.8173L947.521 -53.4219C965.112 -24.2357 965.114 6.99887 947.521 36.17C947.521 36.1702 947.522 36.1697 947.521 36.17C947.521 36.1707 947.52 36.1722 947.52 36.173L928.064 68.464C913.064 93.3507 913.065 119.981 928.062 144.847L928.064 144.85L947.521 177.143C947.521 177.143 947.521 177.143 947.521 177.143C965.111 206.329 965.113 237.564 947.521 266.735C947.521 266.736 947.52 266.737 947.52 266.738L928.064 299.029C913.064 323.916 913.065 350.546 928.062 375.412L928.064 375.415L947.521 407.708C947.521 407.708 947.521 407.708 947.521 407.708C965.111 436.894 965.113 468.129 947.521 497.3C947.521 497.301 947.52 497.302 947.52 497.303L928.064 529.594C913.064 554.48 913.065 581.11 928.062 605.977L928.064 605.98L947.521 638.273C947.521 638.273 947.521 638.272 947.521 638.273C965.112 667.46 965.113 698.696 947.52 727.867L906.149 721.259C921.146 696.393 921.147 669.764 906.148 644.877L886.691 612.585C886.691 612.584 886.69 612.583 886.69 612.582C869.097 583.411 869.099 552.176 886.69 522.99L906.147 490.697L906.149 490.694C921.146 465.828 921.148 439.199 906.148 414.312L886.691 382.02C886.691 382.019 886.69 382.018 886.69 382.017C869.097 352.846 869.099 321.612 886.69 292.426C886.69 292.426 886.689 292.427 886.69 292.426L906.149 260.129C921.146 235.263 921.148 208.634 906.148 183.748L886.691 151.455C886.691 151.454 886.69 151.453 886.69 151.452C869.097 122.282 869.099 91.0474 886.69 61.8616C886.69 61.8612 886.689 61.8619 886.69 61.8616L906.149 29.5645Z" fill="#17497F"/>
<path fill-rule="evenodd" clip-rule="evenodd" d="M826.235 29.5645C841.232 4.69833 841.233 -21.9307 826.234 -46.8173L867.607 -53.4219C885.198 -24.2357 885.2 6.99887 867.607 36.17C867.607 36.1702 867.607 36.1697 867.607 36.17C867.607 36.1707 867.606 36.1722 867.605 36.173L848.15 68.464C833.15 93.3507 833.151 119.981 848.148 144.847L848.15 144.85L867.607 177.143C867.607 177.143 867.606 177.143 867.607 177.143C885.197 206.329 885.199 237.564 867.607 266.735C867.607 266.736 867.606 266.737 867.605 266.738L848.15 299.029C833.15 323.916 833.151 350.546 848.148 375.412L848.15 375.415L867.607 407.708C867.607 407.708 867.606 407.708 867.607 407.708C885.197 436.894 885.199 468.129 867.607 497.3C867.607 497.301 867.606 497.302 867.605 497.303L848.15 529.594C833.15 554.48 833.151 581.11 848.148 605.977L848.15 605.98L867.607 638.273C867.607 638.273 867.606 638.272 867.607 638.273C885.198 667.46 885.199 698.696 867.605 727.867L826.235 721.259C841.232 696.393 841.233 669.764 826.234 644.877L806.777 612.585C806.777 612.584 806.776 612.583 806.776 612.582C789.183 583.411 789.185 552.176 806.776 522.99L826.233 490.697L826.235 490.694C841.232 465.828 841.233 439.199 826.234 414.312L806.777 382.02C806.777 382.019 806.776 382.018 806.776 382.017C789.183 352.846 789.185 321.612 806.776 292.426C806.776 292.426 806.775 292.427 806.776 292.426L826.235 260.129C841.232 235.263 841.233 208.634 826.234 183.748L806.777 151.455C806.777 151.454 806.776 151.453 806.776 151.452C789.183 122.282 789.185 91.0474 806.776 61.8616C806.776 61.8612 806.775 61.8619 806.776 61.8616L826.235 29.5645Z" fill="#17497F"/>
<rect y="436" width="230" height="230" fill="#5DABFF"/>
<path fill-rule="evenodd" clip-rule="evenodd" d="M317.5 436C269.175 436 230 396.825 230 348.5C230 300.175 269.175 261 317.5 261C365.825 261 405 300.175 405 348.5C405 396.825 365.825 436 317.5 436ZM317.5 401.686C288.126 401.686 264.314 377.874 264.314 348.5C264.314 319.126 288.126 295.314 317.5 295.314C346.874 295.314 370.686 319.126 370.686 348.5C370.686 377.874 346.874 401.686 317.5 401.686Z" fill="#17497F"/>
</g>
<defs>
<clipPath id="clip0_6_4322">
<rect width="1200" height="675" fill="white"/>
</clipPath>
</defs>
</svg>
