<svg width="1184" height="666" viewBox="0 0 1184 666" fill="none" xmlns="http://www.w3.org/2000/svg">
<g clip-path="url(#clip0_1_4512)">
<rect width="1184" height="666" fill="#F4F4EF"/>
<rect x="258" width="926" height="666" fill="#DDECE1"/>
<path d="M766 666C766 574.321 688.321 500 592.5 500C496.679 500 419 574.321 419 666L487.039 666C487.039 610.273 534.256 565.098 592.5 565.098C650.744 565.098 697.961 610.273 697.961 666L766 666Z" fill="#5DABFF"/>
<path d="M419 333C419 425.232 496.679 500 592.5 500C688.321 500 766 425.232 766 333H697.961C697.961 389.062 650.744 434.51 592.5 434.51C534.256 434.51 487.039 389.062 487.039 333H419Z" fill="#5DABFF"/>
<path d="M766 333C766 241.321 688.321 167 592.5 167C496.679 167 419 241.321 419 333L487.039 333C487.039 277.273 534.256 232.098 592.5 232.098C650.744 232.098 697.961 277.273 697.961 333L766 333Z" fill="#17497F"/>
<path d="M419 0C419 92.2315 496.679 167 592.5 167C688.321 167 766 92.2315 766 0L697.961 0C697.961 56.0624 650.744 101.51 592.5 101.51C534.256 101.51 487.039 56.0624 487.039 0L419 0Z" fill="#17497F"/>
<path d="M257.895 203.679L128.682 332.893L257.895 462.107L257.895 203.679Z" fill="#393A3D"/>
<path d="M1184.9 203.679L1055.68 332.893L1184.9 462.107L1184.9 203.679Z" fill="#17497F"/>
<path d="M129.216 203.679L0.00182339 332.893L129.216 462.107L129.216 203.679Z" fill="#17497F"/>
<path d="M1056.22 203.679L927.002 332.893L1056.22 462.107L1056.22 203.679Z" fill="#393A3D"/>
</g>
<defs>
<clipPath id="clip0_1_4512">
<rect width="1184" height="666" fill="white"/>
</clipPath>
</defs>
</svg>
