<svg width="1200" height="675" viewBox="0 0 1200 675" fill="none" xmlns="http://www.w3.org/2000/svg">
<rect width="1200" height="675" fill="#F4F4EF"/>
<rect width="789" height="663" fill="#DDECE1"/>
<path fill-rule="evenodd" clip-rule="evenodd" d="M175.5 293C240.393 293 293 240.393 293 175.5C293 110.607 240.393 58 175.5 58C110.607 58 58 110.607 58 175.5C58 240.393 110.607 293 175.5 293ZM175.5 246.922C214.945 246.922 246.922 214.945 246.922 175.5C246.922 136.055 214.945 104.078 175.5 104.078C136.055 104.078 104.078 136.055 104.078 175.5C104.078 214.945 136.055 246.922 175.5 246.922Z" fill="#393A3D"/>
<path d="M395 334V666H0L395 334Z" fill="#5DABFF"/>
<path d="M789 334V666H395L789 334Z" fill="#5DABFF"/>
<path d="M1184 334V666H789L1184 334Z" fill="#5DABFF"/>
<path d="M789 0V334H395L789 0Z" fill="#17497F"/>
<path d="M1184 0V334H789L1184 0Z" fill="#17497F"/>
</svg>
