<svg width="1184" height="666" viewBox="0 0 1184 666" fill="none" xmlns="http://www.w3.org/2000/svg">
<g clip-path="url(#clip0_1_4762)">
<rect width="1184" height="666" fill="#F4F4EF"/>
<circle cx="1183.55" cy="332.553" r="249.553" fill="#DDECE1"/>
<circle cx="591.553" cy="332.553" r="249.553" fill="#DDECE1"/>
<path fill-rule="evenodd" clip-rule="evenodd" d="M591.5 428C644.243 428 687 385.243 687 332.5C687 279.757 644.243 237 591.5 237C538.757 237 496 279.757 496 332.5C496 385.243 538.757 428 591.5 428ZM591.5 390.549C623.56 390.549 649.549 364.56 649.549 332.5C649.549 300.44 623.56 274.451 591.5 274.451C559.44 274.451 533.451 300.44 533.451 332.5C533.451 364.56 559.44 390.549 591.5 390.549Z" fill="#5DABFF"/>
<path fill-rule="evenodd" clip-rule="evenodd" d="M1183.5 428C1236.24 428 1279 385.243 1279 332.5C1279 279.757 1236.24 237 1183.5 237C1130.76 237 1088 279.757 1088 332.5C1088 385.243 1130.76 428 1183.5 428ZM1183.5 390.549C1215.56 390.549 1241.55 364.56 1241.55 332.5C1241.55 300.44 1215.56 274.451 1183.5 274.451C1151.44 274.451 1125.45 300.44 1125.45 332.5C1125.45 364.56 1151.44 390.549 1183.5 390.549Z" fill="#17497F"/>
<circle cx="-0.446625" cy="332.553" r="249.553" fill="#DDECE1"/>
<path fill-rule="evenodd" clip-rule="evenodd" d="M-0.499998 428C52.2432 428 95 385.243 95 332.5C95 279.757 52.2432 237 -0.499998 237C-53.2432 237 -96 279.757 -96 332.5C-96 385.243 -53.2432 428 -0.499998 428ZM-0.499998 390.549C31.5596 390.549 57.549 364.56 57.549 332.5C57.549 300.44 31.5596 274.451 -0.499998 274.451C-32.5596 274.451 -58.549 300.44 -58.549 332.5C-58.549 364.56 -32.5596 390.549 -0.499998 390.549Z" fill="#17497F"/>
</g>
<defs>
<clipPath id="clip0_1_4762">
<rect width="1184" height="666" fill="white"/>
</clipPath>
</defs>
</svg>
