<svg width="1184" height="666" viewBox="0 0 1184 666" fill="none" xmlns="http://www.w3.org/2000/svg">
<g clip-path="url(#clip0_1_4476)">
<rect width="1184" height="666" fill="#F4F4EF"/>
<rect x="310" width="874" height="666" fill="#DDECE1"/>
<path fill-rule="evenodd" clip-rule="evenodd" d="M801.553 583.001C939.378 583.001 1051.11 471.272 1051.11 333.448C1051.11 195.623 939.378 83.8945 801.553 83.8945C663.729 83.8945 552 195.623 552 333.448C552 471.272 663.729 583.001 801.553 583.001ZM801.553 485.137C885.329 485.137 953.243 417.224 953.243 333.448C953.243 249.672 885.329 181.759 801.553 181.759C717.778 181.759 649.864 249.672 649.864 333.448C649.864 417.224 717.778 485.137 801.553 485.137Z" fill="#5DABFF"/>
<path d="M310 666L167.106 398.404L452.894 398.404L310 666Z" fill="#17497F"/>
<path d="M310 464.898L167.106 197.302L452.894 197.302L310 464.898Z" fill="#393A3D"/>
<path d="M310 263.795L167.106 -3.80121L452.894 -3.80124L310 263.795Z" fill="#17497F"/>
<circle cx="802" cy="333" r="76" fill="#17497F"/>
</g>
<defs>
<clipPath id="clip0_1_4476">
<rect width="1184" height="666" fill="white"/>
</clipPath>
</defs>
</svg>
