<svg width="1184" height="666" viewBox="0 0 1184 666" fill="none" xmlns="http://www.w3.org/2000/svg">
<g clip-path="url(#clip0_1_4451)">
<rect width="1184" height="666" fill="#F4F4EF"/>
<rect x="374" y="333" width="810" height="333" fill="#DDECE1"/>
<rect width="374" height="333" fill="#DDECE1"/>
<circle cx="1084.14" cy="585.892" r="54.1408" transform="rotate(-90 1084.14 585.892)" fill="#5DABFF"/>
<circle cx="1084.14" cy="417.455" r="54.1408" transform="rotate(-90 1084.14 417.455)" fill="#5DABFF"/>
<circle cx="1084.14" cy="249.015" r="54.1408" transform="rotate(-90 1084.14 249.015)" fill="#5DABFF"/>
<circle cx="1084.14" cy="80.578" r="54.1408" transform="rotate(-90 1084.14 80.578)" fill="#5DABFF"/>
<circle cx="924.141" cy="585.892" r="54.1408" transform="rotate(-90 924.141 585.892)" fill="#17497F"/>
<circle cx="924.141" cy="417.455" r="54.1408" transform="rotate(-90 924.141 417.455)" fill="#17497F"/>
<circle cx="924.141" cy="249.015" r="54.1408" transform="rotate(-90 924.141 249.015)" fill="#17497F"/>
<circle cx="924.141" cy="80.578" r="54.1408" transform="rotate(-90 924.141 80.578)" fill="#17497F"/>
<circle cx="764.141" cy="585.892" r="54.1408" transform="rotate(-90 764.141 585.892)" fill="#5DABFF"/>
<circle cx="764.141" cy="417.455" r="54.1408" transform="rotate(-90 764.141 417.455)" fill="#5DABFF"/>
<circle cx="764.141" cy="249.015" r="54.1408" transform="rotate(-90 764.141 249.015)" fill="#5DABFF"/>
<circle cx="764.141" cy="80.578" r="54.1408" transform="rotate(-90 764.141 80.578)" fill="#5DABFF"/>
<circle cx="187" cy="500" r="76" fill="#17497F"/>
</g>
<defs>
<clipPath id="clip0_1_4451">
<rect width="1184" height="666" fill="white"/>
</clipPath>
</defs>
</svg>
