<svg width="1184" height="666" viewBox="0 0 1184 666" fill="none" xmlns="http://www.w3.org/2000/svg">
<g clip-path="url(#clip0_1_4437)">
<rect width="1184" height="666" fill="#F4F4EF"/>
<rect x="374" width="810" height="666" fill="#DDECE1"/>
<path d="M0 506.156C95.7554 506.156 173.381 428.531 173.381 332.776C173.381 237.02 95.7554 159.395 -1.51574e-05 159.395L-1.21854e-05 227.387C58.2044 227.387 105.388 274.571 105.388 332.776C105.388 390.98 58.2044 438.164 -2.97204e-06 438.164L0 506.156Z" fill="#5DABFF"/>
<path d="M1184.38 159.395C1088.62 159.395 1011 237.02 1011 332.775C1011 428.531 1088.62 506.156 1184.38 506.156L1184.38 438.163C1126.17 438.163 1078.99 390.98 1078.99 332.775C1078.99 274.571 1126.17 227.387 1184.38 227.387L1184.38 159.395Z" fill="#17497F"/>
<path d="M752.379 159.396C656.623 159.396 578.998 237.022 578.998 332.777C578.998 428.533 656.623 506.158 752.379 506.158L752.379 438.165C694.175 438.165 646.991 390.982 646.991 332.777C646.991 274.573 694.175 227.389 752.379 227.389L752.379 159.396Z" fill="#17497F"/>
<path d="M752 505.764C847.755 505.764 925.381 428.138 925.381 332.383C925.381 236.628 847.755 159.002 752 159.002L752 226.995C810.204 226.995 857.388 274.179 857.388 332.383C857.388 390.587 810.204 437.771 752 437.771L752 505.764Z" fill="#5DABFF"/>
<circle cx="237.5" cy="326.5" r="17.5" fill="#393A3D"/>
<circle cx="291.945" cy="326.5" r="17.5" fill="#393A3D"/>
<circle cx="346.391" cy="326.5" r="17.5" fill="#393A3D"/>
<circle cx="400.832" cy="326.5" r="17.5" fill="#393A3D"/>
<circle cx="455.277" cy="326.5" r="17.5" fill="#393A3D"/>
<circle cx="509.723" cy="326.5" r="17.5" fill="#393A3D"/>
</g>
<defs>
<clipPath id="clip0_1_4437">
<rect width="1184" height="666" fill="white"/>
</clipPath>
</defs>
</svg>
