<svg width="1200" height="675" viewBox="0 0 1200 675" fill="none" xmlns="http://www.w3.org/2000/svg">
<g clip-path="url(#clip0_6_4238)">
<rect width="1200" height="675" fill="#F4F4EF"/>
<rect y="333" width="1184" height="333" fill="#DDECE1"/>
<path fill-rule="evenodd" clip-rule="evenodd" d="M452.469 42.4453C467.467 17.5792 467.468 -9.04981 452.468 -33.9365L493.841 -40.541C511.432 -11.3549 511.434 19.8797 493.842 49.0508C493.842 49.051 493.842 49.0506 493.842 49.0508C493.841 49.0516 493.84 49.0531 493.84 49.0539L474.384 81.3449C459.384 106.232 459.385 132.862 474.382 157.728L474.384 157.731L493.841 190.024C493.841 190.024 493.841 190.024 493.841 190.024C511.432 219.21 511.434 250.445 493.842 279.616C493.841 279.617 493.84 279.618 493.84 279.619L474.384 311.91C459.384 336.796 459.385 363.426 474.382 388.293L474.384 388.296L493.841 420.589C493.841 420.589 493.841 420.588 493.841 420.589C511.432 449.775 511.434 481.01 493.842 510.18C493.841 510.181 493.84 510.182 493.84 510.183L474.384 542.475C459.384 567.361 459.385 593.991 474.382 618.857L474.384 618.86L493.841 651.154C493.841 651.154 493.841 651.153 493.841 651.154C511.432 680.34 511.434 711.577 493.84 740.748L452.469 734.14C467.467 709.274 467.468 682.645 452.468 657.758L433.012 625.466C433.011 625.465 433.011 625.464 433.01 625.463C415.418 596.292 415.419 565.057 433.011 535.871L452.467 503.578L452.469 503.575C467.467 478.709 467.468 452.08 452.468 427.193L433.012 394.901C433.011 394.9 433.011 394.899 433.01 394.898C415.418 365.727 415.419 334.493 433.01 305.307C433.01 305.307 433.01 305.308 433.01 305.307L452.469 273.01C467.467 248.144 467.468 221.515 452.468 196.628L433.012 164.336C433.011 164.335 433.011 164.334 433.01 164.333C415.418 135.163 415.419 103.928 433.01 74.7424C433.01 74.7421 433.01 74.7428 433.01 74.7424L452.469 42.4453Z" fill="#17497F"/>
<path fill-rule="evenodd" clip-rule="evenodd" d="M355.118 42.4453C370.115 17.5792 370.116 -9.04981 355.117 -33.9365L396.489 -40.541C414.081 -11.3549 414.082 19.8797 396.49 49.0508C396.49 49.051 396.49 49.0506 396.49 49.0508C396.49 49.0516 396.489 49.0531 396.488 49.0539L377.033 81.3449C362.033 106.232 362.033 132.862 377.031 157.728L377.033 157.731L396.489 190.024C396.49 190.024 396.489 190.024 396.489 190.024C414.08 219.21 414.082 250.445 396.49 279.616C396.489 279.617 396.489 279.618 396.488 279.619L377.033 311.91C362.033 336.796 362.033 363.426 377.031 388.293L377.033 388.296L396.489 420.589C396.49 420.589 396.489 420.588 396.489 420.589C414.08 449.775 414.082 481.01 396.49 510.18C396.489 510.181 396.489 510.182 396.488 510.183L377.033 542.475C362.033 567.361 362.033 593.991 377.031 618.857L377.033 618.86L396.489 651.154C396.49 651.154 396.489 651.153 396.489 651.154C414.081 680.34 414.082 711.577 396.488 740.748L355.118 734.14C370.115 709.274 370.116 682.645 355.117 657.758L335.66 625.466C335.66 625.465 335.659 625.464 335.658 625.463C318.066 596.292 318.068 565.057 335.659 535.871L355.116 503.578L355.118 503.575C370.115 478.709 370.116 452.08 355.117 427.193L335.66 394.901C335.66 394.9 335.659 394.899 335.658 394.898C318.066 365.727 318.068 334.493 335.658 305.307C335.659 305.307 335.658 305.308 335.658 305.307L355.118 273.01C370.115 248.144 370.116 221.515 355.117 196.628L335.66 164.336C335.66 164.335 335.659 164.334 335.658 164.333C318.066 135.163 318.068 103.928 335.658 74.7424C335.659 74.7421 335.658 74.7428 335.658 74.7424L355.118 42.4453Z" fill="#17497F"/>
<path fill-rule="evenodd" clip-rule="evenodd" d="M257.762 42.4453C272.76 17.5792 272.761 -9.04981 257.761 -33.9365L299.134 -40.541C316.725 -11.3549 316.727 19.8797 299.135 49.0508C299.135 49.051 299.135 49.0506 299.135 49.0508C299.134 49.0516 299.133 49.0531 299.133 49.0539L279.677 81.3449C264.677 106.232 264.678 132.862 279.675 157.728L279.677 157.731L299.134 190.024C299.134 190.024 299.134 190.024 299.134 190.024C316.724 219.21 316.727 250.445 299.135 279.616C299.134 279.617 299.133 279.618 299.133 279.619L279.677 311.91C264.677 336.796 264.678 363.426 279.675 388.293L279.677 388.296L299.134 420.589C299.134 420.589 299.134 420.588 299.134 420.589C316.724 449.775 316.727 481.01 299.135 510.18C299.134 510.181 299.133 510.182 299.133 510.183L279.677 542.475C264.677 567.361 264.678 593.991 279.675 618.857L279.677 618.86L299.134 651.154C299.134 651.154 299.134 651.153 299.134 651.154C316.725 680.34 316.727 711.577 299.133 740.748L257.762 734.14C272.76 709.274 272.761 682.645 257.761 657.758L238.305 625.466C238.304 625.465 238.303 625.464 238.303 625.463C220.711 596.292 220.712 565.057 238.304 535.871L257.76 503.578L257.762 503.575C272.76 478.709 272.761 452.08 257.761 427.193L238.305 394.901C238.304 394.9 238.303 394.899 238.303 394.898C220.711 365.727 220.712 334.493 238.303 305.307C238.303 305.307 238.303 305.308 238.303 305.307L257.762 273.01C272.76 248.144 272.761 221.515 257.761 196.628L238.305 164.336C238.304 164.335 238.304 164.334 238.303 164.333C220.711 135.163 220.712 103.928 238.303 74.7424C238.303 74.7421 238.303 74.7428 238.303 74.7424L257.762 42.4453Z" fill="#17497F"/>
<path fill-rule="evenodd" clip-rule="evenodd" d="M160.411 42.4453C175.408 17.5792 175.409 -9.04981 160.41 -33.9365L201.782 -40.541C219.374 -11.3549 219.375 19.8797 201.783 49.0508C201.783 49.051 201.783 49.0506 201.783 49.0508C201.783 49.0516 201.782 49.0531 201.781 49.0539L182.326 81.3449C167.326 106.232 167.326 132.862 182.324 157.728L182.326 157.731L201.782 190.024C201.783 190.024 201.782 190.024 201.782 190.024C219.373 219.21 219.375 250.445 201.783 279.616C201.782 279.617 201.782 279.618 201.781 279.619L182.325 311.91C167.326 336.796 167.326 363.426 182.324 388.293L182.325 388.296L201.782 420.589C201.783 420.589 201.782 420.588 201.782 420.589C219.373 449.775 219.375 481.01 201.783 510.18C201.782 510.181 201.782 510.182 201.781 510.183L182.325 542.475C167.326 567.361 167.326 593.991 182.324 618.857L182.325 618.86L201.782 651.154C201.783 651.154 201.782 651.153 201.782 651.154C219.374 680.34 219.375 711.577 201.781 740.748L160.411 734.14C175.408 709.274 175.409 682.645 160.41 657.758L140.953 625.466C140.953 625.465 140.952 625.464 140.951 625.463C123.359 596.292 123.361 565.057 140.952 535.871L160.409 503.578L160.411 503.575C175.408 478.709 175.409 452.08 160.41 427.193L140.953 394.901C140.953 394.9 140.952 394.899 140.951 394.898C123.359 365.727 123.361 334.493 140.951 305.307C140.952 305.307 140.951 305.308 140.951 305.307L160.411 273.01C175.408 248.144 175.409 221.515 160.41 196.628L140.953 164.336C140.953 164.335 140.952 164.334 140.951 164.333C123.359 135.163 123.361 103.928 140.951 74.7424C140.952 74.7421 140.951 74.7428 140.951 74.7424L160.411 42.4453Z" fill="#17497F"/>
<path fill-rule="evenodd" clip-rule="evenodd" d="M63.0592 42.4453C78.0564 17.5792 78.0577 -9.04981 63.058 -33.9365L104.431 -40.541C122.022 -11.3549 122.024 19.8797 104.432 49.0508C104.431 49.051 104.432 49.0506 104.432 49.0508C104.431 49.0516 104.43 49.0531 104.43 49.0539L84.9739 81.3449C69.9742 106.232 69.9749 132.862 84.9721 157.728L84.9739 157.731L104.431 190.024C104.431 190.024 104.431 190.024 104.431 190.024C122.021 219.21 122.024 250.445 104.432 279.616C104.431 279.617 104.43 279.618 104.43 279.619L84.9739 311.91C69.9742 336.796 69.9749 363.426 84.9721 388.293L84.9739 388.296L104.431 420.589C104.431 420.589 104.431 420.588 104.431 420.589C122.021 449.775 122.024 481.01 104.432 510.18C104.431 510.181 104.43 510.182 104.43 510.183L84.9739 542.475C69.9742 567.361 69.9749 593.991 84.9721 618.857L84.9739 618.86L104.431 651.154C104.431 651.154 104.431 651.153 104.431 651.154C122.022 680.34 122.024 711.577 104.43 740.748L63.0592 734.14C78.0564 709.274 78.0577 682.645 63.058 657.758L43.6016 625.466C43.601 625.465 43.6004 625.464 43.5998 625.463C26.0074 596.292 26.0093 565.057 43.6004 535.871L63.0573 503.578L63.0592 503.575C78.0564 478.709 78.0577 452.08 63.058 427.193L43.6016 394.901C43.601 394.9 43.6004 394.899 43.5998 394.898C26.0076 365.727 26.0093 334.493 43.5998 305.307C43.6 305.307 43.5996 305.308 43.5998 305.307L63.0592 273.01C78.0564 248.144 78.0577 221.515 63.058 196.628L43.6016 164.336C43.601 164.335 43.6004 164.334 43.5998 164.333C26.0076 135.163 26.0093 103.928 43.5998 74.7424C43.6 74.7421 43.5996 74.7428 43.5998 74.7424L63.0592 42.4453Z" fill="#17497F"/>
<path fill-rule="evenodd" clip-rule="evenodd" d="M879.5 493C967.589 493 1039 421.589 1039 333.5C1039 245.411 967.589 174 879.5 174C791.411 174 720 245.411 720 333.5C720 421.589 791.411 493 879.5 493ZM879.5 430.451C933.045 430.451 976.451 387.045 976.451 333.5C976.451 279.955 933.045 236.549 879.5 236.549C825.955 236.549 782.549 279.955 782.549 333.5C782.549 387.045 825.955 430.451 879.5 430.451Z" fill="#5DABFF"/>
</g>
<defs>
<clipPath id="clip0_6_4238">
<rect width="1200" height="675" fill="white"/>
</clipPath>
</defs>
</svg>
