<svg width="1200" height="675" viewBox="0 0 1200 675" fill="none" xmlns="http://www.w3.org/2000/svg">
<rect width="1200" height="675" fill="#F4F4EF"/>
<path fill-rule="evenodd" clip-rule="evenodd" d="M785.553 582.107C923.378 582.107 1035.11 470.378 1035.11 332.553C1035.11 194.729 923.378 83 785.553 83C647.729 83 536 194.729 536 332.553C536 470.378 647.729 582.107 785.553 582.107ZM785.553 484.243C869.329 484.243 937.243 416.329 937.243 332.553C937.243 248.778 869.329 180.864 785.553 180.864C701.778 180.864 633.864 248.778 633.864 332.553C633.864 416.329 701.778 484.243 785.553 484.243Z" fill="#17497F"/>
<rect width="786" height="666" fill="#DDECE1"/>
<circle cx="785.5" cy="332.5" r="129.5" fill="#5DABFF"/>
<circle cx="139.897" cy="332.897" r="23.8972" fill="#17497F"/>
<circle cx="214.245" cy="332.897" r="23.8972" fill="#17497F"/>
<circle cx="288.592" cy="332.897" r="23.8972" fill="#17497F"/>
<circle cx="362.936" cy="332.897" r="23.8972" fill="#17497F"/>
<circle cx="437.284" cy="332.897" r="23.8972" fill="#17497F"/>
<circle cx="511.632" cy="332.897" r="23.8972" fill="#17497F"/>
</svg>
