<svg width="1184" height="666" viewBox="0 0 1184 666" fill="none" xmlns="http://www.w3.org/2000/svg">
<g clip-path="url(#clip0_1_4750)">
<rect width="1184" height="666" fill="#F4F4EF"/>
<path d="M10 0H1184V667H546V353.939L10 0Z" fill="#DDECE1"/>
<path fill-rule="evenodd" clip-rule="evenodd" d="M984.537 809.993C969.74 834.528 969.739 860.802 984.539 885.357L943.717 891.873C926.361 863.076 926.359 832.258 943.717 803.476C943.717 803.476 943.717 803.476 943.717 803.476C943.717 803.475 943.718 803.474 943.719 803.473L962.915 771.612C977.715 747.057 977.714 720.782 962.917 696.248L962.915 696.245L943.717 664.382C943.717 664.382 943.718 664.383 943.717 664.382C926.361 635.586 926.359 604.767 943.717 575.985C943.717 575.984 943.718 575.983 943.719 575.982L962.915 544.122C977.715 519.567 977.714 493.292 962.917 468.757L962.915 468.754L943.717 436.892C943.717 436.891 943.718 436.892 943.717 436.892C926.361 408.095 926.359 377.276 943.717 348.494C943.717 348.493 943.718 348.493 943.719 348.491L962.915 316.631C977.715 292.076 977.714 265.801 962.917 241.266L962.915 241.264L943.717 209.401C943.717 209.401 943.718 209.401 943.717 209.401C926.361 180.603 926.359 149.783 943.719 121.001L984.537 127.521C969.74 152.056 969.739 178.33 984.539 202.885L1003.74 234.746C1003.74 234.747 1003.74 234.748 1003.74 234.749C1021.1 263.531 1021.09 294.349 1003.74 323.146L984.539 355.009L984.537 355.012C969.74 379.546 969.739 405.82 984.539 430.375L1003.74 462.237C1003.74 462.238 1003.74 462.239 1003.74 462.24C1021.09 491.022 1021.09 521.839 1003.74 550.636C1003.74 550.636 1003.74 550.636 1003.74 550.636L984.537 582.503C969.74 607.037 969.739 633.311 984.539 657.866L1003.74 689.727C1003.74 689.728 1003.74 689.729 1003.74 689.73C1021.09 718.512 1021.09 749.33 1003.74 778.127C1003.74 778.127 1003.74 778.126 1003.74 778.127L984.537 809.993Z" fill="#393A3D"/>
<path fill-rule="evenodd" clip-rule="evenodd" d="M859.838 809.993C845.041 834.528 845.04 860.802 859.839 885.357L819.018 891.873C801.662 863.076 801.66 832.258 819.018 803.476C819.018 803.476 819.017 803.476 819.018 803.476C819.018 803.475 819.019 803.474 819.019 803.473L838.216 771.612C853.015 747.057 853.015 720.782 838.217 696.248L838.216 696.245L819.018 664.382C819.018 664.382 819.018 664.383 819.018 664.382C801.662 635.586 801.66 604.767 819.018 575.985C819.018 575.984 819.019 575.983 819.019 575.982L838.216 544.122C853.015 519.567 853.015 493.292 838.217 468.757L838.216 468.754L819.018 436.892C819.018 436.891 819.018 436.892 819.018 436.892C801.662 408.095 801.66 377.276 819.018 348.494C819.018 348.493 819.019 348.493 819.019 348.491L838.216 316.631C853.015 292.076 853.015 265.801 838.217 241.266L838.216 241.264L819.018 209.401C819.018 209.401 819.018 209.401 819.018 209.401C801.662 180.603 801.66 149.783 819.019 121.001L859.838 127.521C845.041 152.056 845.04 178.33 859.839 202.885L879.036 234.746C879.037 234.747 879.038 234.748 879.038 234.749C896.396 263.531 896.394 294.349 879.038 323.146L859.84 355.009L859.838 355.012C845.041 379.546 845.04 405.82 859.839 430.375L879.036 462.237C879.037 462.238 879.038 462.239 879.038 462.24C896.396 491.022 896.394 521.839 879.038 550.636C879.038 550.636 879.038 550.636 879.038 550.636L859.838 582.503C845.041 607.037 845.04 633.311 859.839 657.866L879.036 689.727C879.037 689.728 879.038 689.729 879.038 689.73C896.396 718.512 896.394 749.33 879.038 778.127C879.038 778.127 879.038 778.126 879.038 778.127L859.838 809.993Z" fill="#5DABFF"/>
<path fill-rule="evenodd" clip-rule="evenodd" d="M1108.84 809.993C1094.04 834.528 1094.04 860.802 1108.84 885.357L1068.02 891.873C1050.66 863.076 1050.66 832.258 1068.02 803.476C1068.02 803.476 1068.02 803.476 1068.02 803.476C1068.02 803.475 1068.02 803.474 1068.02 803.473L1087.22 771.612C1102.02 747.057 1102.01 720.782 1087.22 696.248L1087.22 696.245L1068.02 664.382C1068.02 664.382 1068.02 664.383 1068.02 664.382C1050.66 635.586 1050.66 604.767 1068.02 575.985C1068.02 575.984 1068.02 575.983 1068.02 575.982L1087.22 544.122C1102.02 519.567 1102.01 493.292 1087.22 468.757L1087.22 468.754L1068.02 436.892C1068.02 436.891 1068.02 436.892 1068.02 436.892C1050.66 408.095 1050.66 377.276 1068.02 348.494C1068.02 348.493 1068.02 348.493 1068.02 348.491L1087.22 316.631C1102.02 292.076 1102.01 265.801 1087.22 241.266L1087.22 241.264L1068.02 209.401C1068.02 209.401 1068.02 209.401 1068.02 209.401C1050.66 180.603 1050.66 149.783 1068.02 121.001L1108.84 127.521C1094.04 152.056 1094.04 178.33 1108.84 202.885L1128.04 234.746C1128.04 234.747 1128.04 234.748 1128.04 234.749C1145.4 263.531 1145.39 294.349 1128.04 323.146L1108.84 355.009L1108.84 355.012C1094.04 379.546 1094.04 405.82 1108.84 430.375L1128.04 462.237C1128.04 462.238 1128.04 462.239 1128.04 462.24C1145.4 491.022 1145.39 521.839 1128.04 550.636C1128.04 550.636 1128.04 550.636 1128.04 550.636L1108.84 582.503C1094.04 607.037 1094.04 633.311 1108.84 657.866L1128.04 689.727C1128.04 689.728 1128.04 689.729 1128.04 689.73C1145.4 718.512 1145.39 749.33 1128.04 778.127C1128.04 778.127 1128.04 778.126 1128.04 778.127L1108.84 809.993Z" fill="#5DABFF"/>
<path fill-rule="evenodd" clip-rule="evenodd" d="M59 1314C427.374 1314 726 1015.37 726 647C726 278.626 427.374 -20 59 -20C-309.374 -20 -608 278.626 -608 647C-608 1015.37 -309.374 1314 59 1314ZM59 1052.43C282.913 1052.43 464.431 870.914 464.431 647C464.431 423.086 282.913 241.569 59 241.569C-164.913 241.569 -346.431 423.086 -346.431 647C-346.431 870.914 -164.913 1052.43 59 1052.43Z" fill="#5DABFF"/>
<rect x="781" y="60" width="89.2705" height="89.2705" fill="#5DABFF"/>
<rect x="908" y="60" width="89.2705" height="89.2705" fill="#393A3D"/>
<rect x="1035" y="60" width="89.2705" height="89.2705" fill="#5DABFF"/>
<path d="M110 359V556H284L110 359Z" fill="#17497F"/>
</g>
<defs>
<clipPath id="clip0_1_4750">
<rect width="1184" height="666" fill="white"/>
</clipPath>
</defs>
</svg>
