<svg width="1200" height="675" viewBox="0 0 1200 675" fill="none" xmlns="http://www.w3.org/2000/svg">
<g clip-path="url(#clip0_6_4486)">
<rect width="1200" height="675" fill="#DDECE1"/>
<path fill-rule="evenodd" clip-rule="evenodd" d="M145.448 0C147.559 9.78968 150.609 19.4962 154.599 29.045L174.057 75.6328C189.703 113.057 189.704 153.133 174.056 190.585L154.598 237.171C137.654 277.7 137.655 321.098 154.599 361.65L174.057 408.238C189.703 445.662 189.704 485.738 174.056 523.19L154.598 569.776C137.654 610.305 137.655 653.703 154.599 694.255L175.285 689.492C159.637 652.04 159.638 611.964 175.284 574.541L194.743 527.952C211.686 487.399 211.687 444.001 194.742 403.471L175.285 356.886C159.637 319.435 159.639 279.357 175.285 241.933L194.743 195.347C211.686 154.793 211.687 111.396 194.742 70.8662L175.285 24.2812C171.946 16.29 169.32 8.17911 167.406 0H145.448Z" fill="#17497F"/>
<path fill-rule="evenodd" clip-rule="evenodd" d="M210.55 0C212.66 9.78968 215.711 19.4962 219.7 29.045L239.158 75.6328C254.805 113.057 254.805 153.133 239.157 190.585L219.7 237.171C202.756 277.7 202.757 321.098 219.7 361.65L239.158 408.238C254.805 445.662 254.805 485.738 239.157 523.19L219.7 569.776C202.756 610.305 202.757 653.703 219.7 694.255L240.387 689.492C224.739 652.04 224.74 611.964 240.386 574.541L259.844 527.952C276.788 487.399 276.788 444.001 259.844 403.471L240.387 356.886C224.739 319.435 224.74 279.357 240.387 241.933L259.844 195.347C276.788 154.793 276.788 111.396 259.844 70.8662L240.387 24.2812C237.048 16.29 234.421 8.17911 232.507 0H210.55Z" fill="#17497F"/>
<path fill-rule="evenodd" clip-rule="evenodd" d="M275.651 0C277.762 9.78968 280.812 19.4962 284.802 29.045L304.26 75.6328C319.906 113.057 319.907 153.133 304.259 190.585L284.801 237.171C267.857 277.7 267.859 321.098 284.802 361.65L304.26 408.238C319.906 445.662 319.907 485.738 304.259 523.19L284.801 569.776C267.857 610.305 267.858 653.703 284.802 694.255L305.488 689.492C289.84 652.04 289.841 611.964 305.488 574.541L324.946 527.952C341.889 487.399 341.89 444.001 324.945 403.471L305.488 356.886C289.84 319.435 289.842 279.357 305.488 241.933L324.946 195.347C341.889 154.793 341.89 111.396 324.945 70.8662L305.488 24.2812C302.149 16.29 299.523 8.17911 297.609 0H275.651Z" fill="#17497F"/>
<path fill-rule="evenodd" clip-rule="evenodd" d="M340.757 0C342.867 9.78968 345.918 19.4962 349.907 29.045L369.365 75.6328C385.012 113.057 385.012 153.133 369.364 190.585L349.907 237.171C332.963 277.7 332.964 321.098 349.907 361.65L369.365 408.238C385.012 445.662 385.012 485.738 369.364 523.19L349.907 569.776C332.963 610.305 332.964 653.703 349.907 694.255L370.594 689.492C354.946 652.04 354.947 611.964 370.593 574.541L390.052 527.952C406.995 487.399 406.995 444.001 390.051 403.471L370.594 356.886C354.946 319.435 354.947 279.357 370.594 241.933L390.051 195.347C406.995 154.793 406.995 111.396 390.051 70.8662L370.594 24.2812C367.255 16.29 364.628 8.17911 362.715 0H340.757Z" fill="#17497F"/>
<path fill-rule="evenodd" clip-rule="evenodd" d="M405.858 0C407.969 9.78968 411.019 19.4962 415.009 29.045L434.467 75.6328C450.113 113.057 450.114 153.133 434.466 190.585L415.008 237.171C398.064 277.7 398.066 321.098 415.009 361.65L434.467 408.238C450.113 445.662 450.114 485.738 434.466 523.19L415.008 569.776C398.064 610.305 398.065 653.703 415.009 694.255L435.695 689.492C420.047 652.04 420.048 611.964 435.695 574.541L455.153 527.952C472.096 487.399 472.097 444.001 455.152 403.471L435.695 356.886C420.047 319.435 420.049 279.357 435.695 241.933L455.153 195.347C472.096 154.793 472.097 111.396 455.152 70.8662L435.695 24.2812C432.356 16.29 429.73 8.17911 427.816 0H405.858Z" fill="#17497F"/>
<path d="M753.969 447.59C821.678 515.299 931.457 515.299 999.166 447.59C1066.88 379.881 1066.88 270.102 999.166 202.393L753.969 447.59Z" fill="#393A3D"/>
<path d="M849.797 236.6C782.088 168.89 672.309 168.89 604.6 236.6C536.89 304.309 536.89 414.088 604.6 481.797L849.797 236.6Z" fill="#5DABFF"/>
</g>
<defs>
<clipPath id="clip0_6_4486">
<rect width="1200" height="675" fill="white"/>
</clipPath>
</defs>
</svg>
