<svg width="1184" height="666" viewBox="0 0 1184 666" fill="none" xmlns="http://www.w3.org/2000/svg">
<g clip-path="url(#clip0_1_4714)">
<rect width="1184" height="666" fill="#F4F4EF"/>
<rect y="333" width="1184" height="333" fill="#DDECE1"/>
<path fill-rule="evenodd" clip-rule="evenodd" d="M446.435 41.8799C461.232 17.3453 461.234 -8.92868 446.434 -33.4835L487.255 -40C504.612 -11.203 504.614 19.6151 487.256 48.3973C487.256 48.3975 487.256 48.397 487.256 48.3973C487.255 48.398 487.255 48.3995 487.254 48.4003L468.058 80.2608C453.258 104.816 453.259 131.091 468.056 155.625L468.058 155.628L487.255 187.491C487.255 187.491 487.255 187.49 487.255 187.491C504.611 216.287 504.613 247.106 487.256 275.888C487.255 275.889 487.255 275.89 487.254 275.891L468.058 307.751C453.258 332.306 453.259 358.581 468.056 383.116L468.058 383.119L487.255 414.981C487.255 414.982 487.255 414.981 487.255 414.981C504.611 443.778 504.613 474.597 487.256 503.379C487.255 503.38 487.255 503.381 487.254 503.382L468.058 535.242C453.258 559.797 453.259 586.072 468.056 610.607L468.058 610.61L487.255 642.472C487.255 642.472 487.255 642.472 487.255 642.472C504.612 671.27 504.613 702.09 487.254 730.872L446.435 724.352C461.232 699.817 461.234 673.543 446.434 648.989L427.237 617.127C427.236 617.126 427.236 617.125 427.235 617.124C409.877 588.342 409.879 557.524 427.236 528.727L446.433 496.864L446.435 496.861C461.232 472.327 461.234 446.053 446.434 421.498L427.237 389.636C427.236 389.635 427.236 389.634 427.235 389.633C409.878 360.851 409.879 330.034 427.235 301.237C427.235 301.237 427.235 301.237 427.235 301.237L446.435 269.371C461.232 244.836 461.234 218.562 446.434 194.007L427.237 162.146C427.236 162.145 427.236 162.144 427.235 162.143C409.878 133.361 409.879 102.543 427.235 73.7464C427.235 73.746 427.235 73.7467 427.235 73.7464L446.435 41.8799Z" fill="#17497F"/>
<path fill-rule="evenodd" clip-rule="evenodd" d="M350.38 41.8799C365.178 17.3453 365.179 -8.92868 350.379 -33.4835L391.201 -40C408.557 -11.203 408.559 19.6151 391.201 48.3973C391.201 48.3975 391.201 48.397 391.201 48.3973C391.201 48.398 391.2 48.3995 391.199 48.4003L372.003 80.2608C357.203 104.816 357.204 131.091 372.001 155.625L372.003 155.628L391.201 187.491C391.201 187.491 391.2 187.49 391.201 187.491C408.556 216.287 408.559 247.106 391.201 275.888C391.201 275.889 391.2 275.89 391.199 275.891L372.003 307.751C357.203 332.306 357.204 358.581 372.001 383.116L372.003 383.119L391.201 414.981C391.201 414.982 391.2 414.981 391.201 414.981C408.556 443.778 408.559 474.597 391.201 503.379C391.201 503.38 391.2 503.381 391.199 503.382L372.003 535.242C357.203 559.797 357.204 586.072 372.001 610.607L372.003 610.61L391.201 642.472C391.201 642.472 391.2 642.472 391.201 642.472C408.557 671.27 408.559 702.09 391.199 730.872L350.38 724.352C365.178 699.817 365.179 673.543 350.379 648.989L331.182 617.127C331.182 617.126 331.181 617.125 331.181 617.124C313.823 588.342 313.825 557.524 331.181 528.727L350.379 496.864L350.38 496.861C365.178 472.327 365.179 446.053 350.379 421.498L331.182 389.636C331.182 389.635 331.181 389.634 331.181 389.633C313.823 360.851 313.825 330.034 331.181 301.237C331.181 301.237 331.18 301.237 331.181 301.237L350.38 269.371C365.178 244.836 365.179 218.562 350.379 194.007L331.182 162.146C331.182 162.145 331.181 162.144 331.181 162.143C313.823 133.361 313.825 102.543 331.181 73.7464C331.181 73.746 331.18 73.7467 331.181 73.7464L350.38 41.8799Z" fill="#17497F"/>
<path fill-rule="evenodd" clip-rule="evenodd" d="M254.326 41.8799C269.123 17.3453 269.124 -8.92868 254.325 -33.4835L295.146 -40C312.502 -11.203 312.504 19.6151 295.146 48.3973C295.146 48.3975 295.147 48.397 295.146 48.3973C295.146 48.398 295.145 48.3995 295.145 48.4003L275.948 80.2608C261.149 104.816 261.149 131.091 275.947 155.625L275.948 155.628L295.146 187.491C295.146 187.491 295.146 187.49 295.146 187.491C312.502 216.287 312.504 247.106 295.146 275.888C295.146 275.889 295.145 275.89 295.145 275.891L275.948 307.751C261.149 332.306 261.149 358.581 275.947 383.116L275.948 383.119L295.146 414.981C295.146 414.982 295.146 414.981 295.146 414.981C312.502 443.778 312.504 474.597 295.146 503.379C295.146 503.38 295.145 503.381 295.145 503.382L275.948 535.242C261.149 559.797 261.149 586.072 275.947 610.607L275.948 610.61L295.146 642.472C295.146 642.472 295.146 642.472 295.146 642.472C312.502 671.27 312.504 702.09 295.145 730.872L254.326 724.352C269.123 699.817 269.124 673.543 254.325 648.989L235.128 617.127C235.127 617.126 235.126 617.125 235.126 617.124C217.768 588.342 217.77 557.524 235.126 528.727L254.324 496.864L254.326 496.861C269.123 472.327 269.124 446.053 254.325 421.498L235.128 389.636C235.127 389.635 235.126 389.634 235.126 389.633C217.768 360.851 217.77 330.034 235.126 301.237C235.126 301.237 235.126 301.237 235.126 301.237L254.326 269.371C269.123 244.836 269.124 218.562 254.325 194.007L235.128 162.146C235.127 162.145 235.126 162.144 235.126 162.143C217.768 133.361 217.77 102.543 235.126 73.7464C235.126 73.746 235.126 73.7467 235.126 73.7464L254.326 41.8799Z" fill="#17497F"/>
<path fill-rule="evenodd" clip-rule="evenodd" d="M158.271 41.8799C173.068 17.3453 173.07 -8.92868 158.27 -33.4835L199.091 -40C216.448 -11.203 216.45 19.6151 199.092 48.3973C199.092 48.3975 199.092 48.397 199.092 48.3973C199.091 48.398 199.09 48.3995 199.09 48.4003L179.894 80.2608C165.094 104.816 165.095 131.091 179.892 155.625L179.894 155.628L199.091 187.491C199.091 187.491 199.091 187.49 199.091 187.491C216.447 216.287 216.449 247.106 199.092 275.888C199.091 275.889 199.091 275.89 199.09 275.891L179.894 307.751C165.094 332.306 165.095 358.581 179.892 383.116L179.894 383.119L199.091 414.981C199.091 414.982 199.091 414.981 199.091 414.981C216.447 443.778 216.449 474.597 199.092 503.379C199.091 503.38 199.091 503.381 199.09 503.382L179.894 535.242C165.094 559.797 165.095 586.072 179.892 610.607L179.894 610.61L199.091 642.472C199.091 642.472 199.091 642.472 199.091 642.472C216.448 671.27 216.449 702.09 199.09 730.872L158.271 724.352C173.068 699.817 173.07 673.543 158.27 648.989L139.073 617.127C139.072 617.126 139.072 617.125 139.071 617.124C121.713 588.342 121.715 557.524 139.072 528.727L158.269 496.864L158.271 496.861C173.068 472.327 173.07 446.053 158.27 421.498L139.073 389.636C139.072 389.635 139.072 389.634 139.071 389.633C121.714 360.851 121.715 330.034 139.071 301.237C139.071 301.237 139.071 301.237 139.071 301.237L158.271 269.371C173.068 244.836 173.07 218.562 158.27 194.007L139.073 162.146C139.072 162.145 139.072 162.144 139.071 162.143C121.714 133.361 121.715 102.543 139.071 73.7464C139.071 73.746 139.071 73.7467 139.071 73.7464L158.271 41.8799Z" fill="#17497F"/>
<path fill-rule="evenodd" clip-rule="evenodd" d="M62.2164 41.8799C77.0137 17.3453 77.0149 -8.92868 62.2152 -33.4835L103.037 -40C120.393 -11.203 120.395 19.6151 103.037 48.3973C103.037 48.3975 103.037 48.397 103.037 48.3973C103.037 48.398 103.036 48.3995 103.035 48.4003L83.839 80.2608C69.0393 104.816 69.0399 131.091 83.8372 155.625L83.839 155.628L103.036 187.491C103.037 187.491 103.036 187.49 103.036 187.491C120.392 216.287 120.395 247.106 103.037 275.888C103.037 275.889 103.036 275.89 103.035 275.891L83.839 307.751C69.0393 332.306 69.0399 358.581 83.8372 383.116L83.839 383.119L103.036 414.981C103.037 414.982 103.036 414.981 103.036 414.981C120.392 443.778 120.395 474.597 103.037 503.379C103.037 503.38 103.036 503.381 103.035 503.382L83.839 535.242C69.0393 559.797 69.0399 586.072 83.8372 610.607L83.839 610.61L103.036 642.472C103.037 642.472 103.036 642.472 103.036 642.472C120.393 671.27 120.395 702.09 103.035 730.872L62.2164 724.352C77.0137 699.817 77.0149 673.543 62.2152 648.989L43.0182 617.127C43.0176 617.126 43.017 617.125 43.0164 617.124C25.6587 588.342 25.6605 557.524 43.0171 528.727L62.2146 496.864L62.2164 496.861C77.0137 472.327 77.0149 446.053 62.2152 421.498L43.0183 389.636C43.0177 389.635 43.0171 389.634 43.0165 389.633C25.6589 360.851 25.6605 330.034 43.0165 301.237C43.0167 301.237 43.0162 301.237 43.0165 301.237L62.2164 269.371C77.0137 244.836 77.0149 218.562 62.2152 194.007L43.0183 162.146C43.0177 162.145 43.0171 162.144 43.0165 162.143C25.6589 133.361 25.6605 102.543 43.0165 73.7464C43.0167 73.746 43.0163 73.7467 43.0165 73.7464L62.2164 41.8799Z" fill="#17497F"/>
<path fill-rule="evenodd" clip-rule="evenodd" d="M879.5 493C967.589 493 1039 421.589 1039 333.5C1039 245.411 967.589 174 879.5 174C791.411 174 720 245.411 720 333.5C720 421.589 791.411 493 879.5 493ZM879.5 430.451C933.045 430.451 976.451 387.045 976.451 333.5C976.451 279.955 933.045 236.549 879.5 236.549C825.955 236.549 782.549 279.955 782.549 333.5C782.549 387.045 825.955 430.451 879.5 430.451Z" fill="#5DABFF"/>
</g>
<defs>
<clipPath id="clip0_1_4714">
<rect width="1184" height="666" fill="white"/>
</clipPath>
</defs>
</svg>
