<svg width="1184" height="666" viewBox="0 0 1184 666" fill="none" xmlns="http://www.w3.org/2000/svg">
<g clip-path="url(#clip0_1_4667)">
<rect width="1184" height="666" fill="#F4F4EF"/>
<path fill-rule="evenodd" clip-rule="evenodd" d="M-63 499.801C-53.3408 497.718 -43.7637 494.708 -34.3422 490.772L11.6244 471.573C48.5494 456.135 88.0912 456.135 125.044 471.574L171.009 490.772C210.997 507.49 253.816 507.489 293.828 490.772L339.795 471.573C376.72 456.135 416.262 456.135 453.214 471.574L499.179 490.772C539.168 507.49 581.987 507.49 621.999 490.772L617.298 470.361C580.346 485.8 540.805 485.8 503.88 470.362L457.913 451.163C417.9 434.445 375.081 434.445 335.092 451.164L289.128 470.361C252.176 485.8 212.632 485.799 175.707 470.361L129.742 451.163C89.7296 434.445 46.9104 434.445 6.92137 451.164L-39.0425 470.361C-46.9272 473.656 -54.9299 476.247 -63 478.135L-63 499.801Z" fill="#17497F"/>
<path fill-rule="evenodd" clip-rule="evenodd" d="M-63 435.566C-53.3408 433.484 -43.7637 430.474 -34.3422 426.538L11.6244 407.339C48.5494 391.901 88.0912 391.901 125.044 407.34L171.009 426.538C210.997 443.256 253.816 443.255 293.828 426.538L339.795 407.339C376.72 391.901 416.262 391.901 453.214 407.34L499.179 426.538C539.168 443.256 581.987 443.255 621.999 426.538L617.298 406.127C580.346 421.566 540.805 421.565 503.88 406.128L457.913 386.929C417.9 370.211 375.081 370.211 335.092 386.929L289.128 406.127C252.176 421.566 212.632 421.565 175.707 406.127L129.742 386.929C89.7296 370.211 46.9104 370.211 6.92137 386.929L-39.0425 406.127C-46.9272 409.421 -54.9299 412.013 -63 413.901L-63 435.566Z" fill="#17497F"/>
<path fill-rule="evenodd" clip-rule="evenodd" d="M-63 371.332C-53.3408 369.249 -43.7637 366.24 -34.3422 362.303L11.6244 343.105C48.5494 327.667 88.0912 327.666 125.044 343.105L171.009 362.304C210.997 379.022 253.816 379.02 293.828 362.303L339.795 343.105C376.72 327.667 416.262 327.666 453.214 343.105L499.179 362.304C539.168 379.022 581.987 379.021 621.999 362.303L617.298 341.893C580.346 357.332 540.805 357.331 503.88 341.893L457.913 322.694C417.9 305.977 375.081 305.976 335.092 322.695L289.128 341.893C252.176 357.332 212.632 357.33 175.707 341.892L129.742 322.694C89.7296 305.977 46.9104 305.976 6.92137 322.695L-39.0425 341.893C-46.9272 345.187 -54.9299 347.778 -63 349.667L-63 371.332Z" fill="#17497F"/>
<path fill-rule="evenodd" clip-rule="evenodd" d="M-63 307.097C-53.3408 305.015 -43.7637 302.005 -34.3422 298.069L11.6244 278.87C48.5494 263.432 88.0912 263.432 125.044 278.871L171.009 298.069C210.997 314.787 253.816 314.786 293.828 298.069L339.795 278.87C376.72 263.432 416.262 263.432 453.214 278.871L499.179 298.069C539.168 314.787 581.987 314.786 621.999 298.069L617.298 277.658C580.346 293.097 540.805 293.097 503.88 277.659L457.913 258.46C417.9 241.742 375.081 241.742 335.092 258.461L289.128 277.658C252.176 293.097 212.632 293.096 175.707 277.658L129.742 258.46C89.7296 241.742 46.9104 241.742 6.92137 258.461L-39.0425 277.658C-46.9272 280.953 -54.9299 283.544 -63 285.432L-63 307.097Z" fill="#17497F"/>
<path fill-rule="evenodd" clip-rule="evenodd" d="M-63 242.863C-53.3408 240.78 -43.7637 237.771 -34.3422 233.835L11.6244 214.636C48.5494 199.198 88.0912 199.198 125.044 214.637L171.009 233.835C210.997 250.553 253.816 250.552 293.828 233.835L339.795 214.636C376.72 199.198 416.262 199.198 453.214 214.637L499.179 233.835C539.168 250.553 581.987 250.552 621.999 233.835L617.298 213.424C580.346 228.863 540.805 228.862 503.88 213.424L457.913 194.225C417.9 177.508 375.081 177.507 335.092 194.226L289.128 213.424C252.176 228.863 212.632 228.861 175.707 213.424L129.742 194.225C89.7296 177.508 46.9104 177.507 6.92137 194.226L-39.0425 213.424C-46.9272 216.718 -54.9299 219.31 -63 221.198L-63 242.863Z" fill="#17497F"/>
<rect x="592" width="592" height="666" fill="#DDECE1"/>
<rect x="1184.46" y="-173.305" width="1012.07" height="84.6919" transform="rotate(90 1184.46 -173.305)" fill="#5DABFF"/>
<rect x="1015.08" y="-173.305" width="1012.07" height="84.6919" transform="rotate(90 1015.08 -173.305)" fill="#393A3D"/>
<rect x="845.691" y="-173.305" width="1012.07" height="84.6919" transform="rotate(90 845.691 -173.305)" fill="#5DABFF"/>
</g>
<defs>
<clipPath id="clip0_1_4667">
<rect width="1184" height="666" fill="white"/>
</clipPath>
</defs>
</svg>
