<svg width="1184" height="666" viewBox="0 0 1184 666" fill="none" xmlns="http://www.w3.org/2000/svg">
<g clip-path="url(#clip0_1_4623)">
<rect width="1184" height="666" fill="#DDECE1"/>
<path fill-rule="evenodd" clip-rule="evenodd" d="M143.51 0C145.593 9.65917 148.602 19.2363 152.538 28.6578L171.737 74.6245C187.175 111.549 187.175 151.091 171.736 188.044L152.538 234.009C135.82 273.997 135.821 316.816 152.538 356.828L171.737 402.795C187.175 439.72 187.175 479.262 171.736 516.214L152.538 562.179C135.82 602.168 135.821 644.987 152.539 684.999L172.949 680.298C157.51 643.346 157.511 603.805 172.949 566.88L192.148 520.913C208.865 480.9 208.866 438.081 192.147 398.092L172.949 352.128C157.51 315.176 157.512 275.632 172.949 238.707L192.148 192.742C208.865 152.73 208.866 109.91 192.147 69.9214L172.949 23.9575C169.655 16.0728 167.063 8.07008 165.175 0H143.51Z" fill="#17497F"/>
<path fill-rule="evenodd" clip-rule="evenodd" d="M207.744 0C209.827 9.65917 212.837 19.2363 216.773 28.6578L235.972 74.6245C251.409 111.549 251.41 151.091 235.971 188.044L216.773 234.009C200.055 273.997 200.056 316.816 216.773 356.828L235.972 402.795C251.409 439.72 251.41 479.262 235.971 516.214L216.773 562.179C200.054 602.168 200.055 644.987 216.773 684.999L237.184 680.298C221.744 643.346 221.745 603.805 237.183 566.88L256.382 520.913C273.099 480.9 273.1 438.081 256.381 398.092L237.184 352.128C221.744 315.176 221.746 275.632 237.184 238.707L256.382 192.742C273.099 152.73 273.1 109.91 256.381 69.9214L237.183 23.9575C233.889 16.0728 231.298 8.07008 229.409 0H207.744Z" fill="#17497F"/>
<path fill-rule="evenodd" clip-rule="evenodd" d="M271.979 0C274.061 9.65917 277.071 19.2363 281.007 28.6578L300.206 74.6245C315.644 111.549 315.644 151.091 300.205 188.044L281.007 234.009C264.289 273.997 264.29 316.816 281.007 356.828L300.206 402.795C315.644 439.72 315.644 479.262 300.205 516.214L281.007 562.179C264.289 602.168 264.29 644.987 281.007 684.999L301.418 680.298C285.979 643.346 285.979 603.805 301.417 566.88L320.616 520.913C337.334 480.9 337.334 438.081 320.615 398.092L301.418 352.128C285.979 315.176 285.98 275.632 301.418 238.707L320.616 192.742C337.334 152.73 337.334 109.91 320.615 69.9214L301.418 23.9575C298.124 16.0728 295.532 8.07008 293.644 0H271.979Z" fill="#17497F"/>
<path fill-rule="evenodd" clip-rule="evenodd" d="M336.213 0C338.296 9.65917 341.305 19.2363 345.242 28.6578L364.44 74.6245C379.878 111.549 379.879 151.091 364.439 188.044L345.241 234.009C328.523 273.997 328.524 316.816 345.242 356.828L364.44 402.795C379.878 439.72 379.879 479.262 364.439 516.214L345.241 562.179C328.523 602.168 328.524 644.987 345.242 684.999L365.652 680.298C350.213 643.346 350.214 603.805 365.652 566.88L384.851 520.913C401.568 480.9 401.569 438.081 384.85 398.092L365.652 352.128C350.213 315.176 350.215 275.632 365.653 238.707L384.851 192.742C401.568 152.73 401.569 109.91 384.85 69.9214L365.652 23.9575C362.358 16.0728 359.767 8.07008 357.878 0H336.213Z" fill="#17497F"/>
<path fill-rule="evenodd" clip-rule="evenodd" d="M400.447 0C402.53 9.65917 405.54 19.2363 409.476 28.6578L428.675 74.6245C444.113 111.549 444.113 151.091 428.674 188.044L409.476 234.009C392.758 273.997 392.759 316.816 409.476 356.828L428.675 402.795C444.113 439.72 444.113 479.262 428.674 516.214L409.476 562.179C392.758 602.168 392.759 644.987 409.476 684.999L429.887 680.298C414.448 643.346 414.448 603.805 429.886 566.88L449.085 520.913C465.803 480.9 465.803 438.081 449.084 398.092L429.887 352.128C414.448 315.176 414.449 275.632 429.887 238.707L449.085 192.742C465.803 152.73 465.803 109.91 449.084 69.9214L429.887 23.9575C426.592 16.0728 424.001 8.07008 422.113 0H400.447Z" fill="#17497F"/>
<path d="M753.969 447.59C821.678 515.299 931.457 515.299 999.166 447.59C1066.88 379.881 1066.88 270.102 999.166 202.393L753.969 447.59Z" fill="#393A3D"/>
<path d="M849.797 236.6C782.088 168.89 672.309 168.89 604.6 236.6C536.89 304.309 536.89 414.088 604.6 481.797L849.797 236.6Z" fill="#5DABFF"/>
</g>
<defs>
<clipPath id="clip0_1_4623">
<rect width="1184" height="666" fill="white"/>
</clipPath>
</defs>
</svg>
