<svg width="1200" height="675" viewBox="0 0 1200 675" fill="none" xmlns="http://www.w3.org/2000/svg">
<g clip-path="url(#clip0_6_4423)">
<rect width="1200" height="675" fill="#F4F4EF"/>
<rect width="885" height="666" fill="#DDECE1"/>
<path fill-rule="evenodd" clip-rule="evenodd" d="M502.597 30.2832C523.031 5.41708 523.033 -21.2119 502.595 -46.0986L558.968 -52.7031C582.936 -23.517 582.939 7.71762 558.969 36.8887C558.968 36.8889 558.969 36.8885 558.969 36.8887C558.968 36.8895 558.967 36.891 558.966 36.8917L532.457 69.1828C512.019 94.0695 512.02 120.7 532.454 145.566L532.457 145.569L558.968 177.862C558.968 177.862 558.967 177.861 558.968 177.862C582.936 207.048 582.939 238.283 558.969 267.454C558.968 267.455 558.967 267.456 558.966 267.457L532.457 299.748C512.019 324.634 512.02 351.264 532.454 376.13L532.457 376.133L558.968 408.427C558.968 408.427 558.967 408.426 558.968 408.427C582.936 437.612 582.939 468.848 558.969 498.018C558.968 498.019 558.967 498.02 558.966 498.021L532.457 530.312C512.019 555.199 512.02 581.829 532.454 606.695L532.457 606.698L558.968 638.991C558.968 638.992 558.967 638.991 558.968 638.991C582.936 668.178 582.939 699.415 558.966 728.586L502.597 721.978C523.031 697.112 523.033 670.483 502.595 645.596L476.085 613.304C476.084 613.303 476.083 613.302 476.082 613.301C452.112 584.13 452.114 552.895 476.083 523.709L502.594 491.416L502.597 491.413C523.031 466.547 523.033 439.918 502.595 415.031L476.085 382.739C476.084 382.738 476.083 382.737 476.082 382.736C452.112 353.565 452.114 322.331 476.082 293.145C476.083 293.145 476.082 293.146 476.082 293.145L502.597 260.848C523.031 235.982 523.033 209.353 502.595 184.466L476.085 152.174C476.084 152.173 476.083 152.172 476.082 152.171C452.112 123 452.114 91.7662 476.082 62.5803C476.083 62.58 476.082 62.5807 476.082 62.5803L502.597 30.2832Z" fill="#17497F"/>
<path fill-rule="evenodd" clip-rule="evenodd" d="M393.386 30.2832C413.82 5.41708 413.822 -21.2119 393.384 -46.0986L449.757 -52.7031C473.725 -23.517 473.728 7.71762 449.758 36.8887C449.757 36.8889 449.758 36.8885 449.758 36.8887C449.757 36.8895 449.756 36.891 449.755 36.8917L423.246 69.1828C402.808 94.0695 402.809 120.7 423.243 145.566L423.246 145.569L449.757 177.862C449.757 177.862 449.756 177.861 449.757 177.862C473.725 207.048 473.728 238.283 449.758 267.454C449.757 267.455 449.756 267.456 449.755 267.457L423.246 299.748C402.808 324.634 402.809 351.264 423.243 376.13L423.246 376.133L449.757 408.427C449.757 408.427 449.756 408.426 449.757 408.427C473.725 437.612 473.728 468.848 449.758 498.018C449.757 498.019 449.756 498.02 449.755 498.021L423.246 530.312C402.808 555.199 402.809 581.829 423.243 606.695L423.246 606.698L449.757 638.991C449.757 638.992 449.756 638.991 449.757 638.991C473.725 668.178 473.728 699.415 449.755 728.586L393.386 721.978C413.82 697.112 413.822 670.483 393.384 645.596L366.874 613.304C366.873 613.303 366.872 613.302 366.871 613.301C342.901 584.13 342.903 552.895 366.872 523.709L393.383 491.416L393.386 491.413C413.82 466.547 413.822 439.918 393.384 415.031L366.874 382.739C366.873 382.738 366.872 382.737 366.871 382.736C342.901 353.565 342.903 322.331 366.871 293.145C366.872 293.145 366.871 293.146 366.871 293.145L393.386 260.848C413.82 235.982 413.822 209.353 393.384 184.466L366.874 152.174C366.873 152.173 366.872 152.172 366.871 152.171C342.901 123 342.903 91.7662 366.871 62.5803C366.872 62.58 366.871 62.5807 366.871 62.5803L393.386 30.2832Z" fill="#17497F"/>
<path fill-rule="evenodd" clip-rule="evenodd" d="M284.503 30.2832C304.937 5.41708 304.939 -21.2119 284.501 -46.0986L340.874 -52.7031C364.843 -23.517 364.845 7.71762 340.875 36.8887C340.875 36.8889 340.875 36.8885 340.875 36.8887C340.874 36.8895 340.873 36.891 340.872 36.8917L314.363 69.1828C293.925 94.0695 293.926 120.7 314.36 145.566L314.363 145.569L340.874 177.862C340.874 177.862 340.874 177.861 340.874 177.862C364.842 207.048 364.845 238.283 340.875 267.454C340.874 267.455 340.873 267.456 340.872 267.457L314.363 299.748C293.925 324.634 293.926 351.264 314.36 376.13L314.363 376.133L340.874 408.427C340.874 408.427 340.874 408.426 340.874 408.427C364.842 437.612 364.845 468.848 340.875 498.018C340.874 498.019 340.873 498.02 340.872 498.021L314.363 530.312C293.925 555.199 293.926 581.829 314.36 606.695L314.363 606.698L340.874 638.991C340.874 638.992 340.874 638.991 340.874 638.991C364.843 668.178 364.845 699.415 340.872 728.586L284.503 721.978C304.937 697.112 304.939 670.483 284.501 645.596L257.991 613.304C257.99 613.303 257.989 613.302 257.988 613.301C234.018 584.13 234.021 552.895 257.989 523.709L284.5 491.416L284.503 491.413C304.937 466.547 304.939 439.918 284.501 415.031L257.991 382.739C257.99 382.738 257.989 382.737 257.989 382.736C234.018 353.565 234.021 322.331 257.989 293.145C257.989 293.145 257.988 293.146 257.989 293.145L284.503 260.848C304.937 235.982 304.939 209.353 284.501 184.466L257.991 152.174C257.99 152.173 257.989 152.172 257.989 152.171C234.018 123 234.021 91.7662 257.989 62.5803C257.989 62.58 257.988 62.5807 257.989 62.5803L284.503 30.2832Z" fill="#17497F"/>
<path fill-rule="evenodd" clip-rule="evenodd" d="M175.612 30.2832C196.047 5.41708 196.049 -21.2119 175.611 -46.0986L231.983 -52.7031C255.952 -23.517 255.955 7.71762 231.984 36.8887C231.984 36.8889 231.984 36.8885 231.984 36.8887C231.984 36.8895 231.982 36.891 231.982 36.8917L205.472 69.1828C185.034 94.0695 185.035 120.7 205.47 145.566L205.472 145.569L231.983 177.862C231.984 177.862 231.983 177.861 231.983 177.862C255.951 207.048 255.954 238.283 231.984 267.454C231.983 267.455 231.983 267.456 231.982 267.457L205.472 299.748C185.034 324.634 185.035 351.264 205.47 376.13L205.472 376.133L231.983 408.427C231.984 408.427 231.983 408.426 231.983 408.427C255.951 437.612 255.954 468.848 231.984 498.018C231.983 498.019 231.982 498.02 231.982 498.021L205.472 530.312C185.034 555.199 185.035 581.829 205.47 606.695L205.472 606.698L231.983 638.991C231.984 638.992 231.983 638.991 231.983 638.991C255.952 668.178 255.954 699.415 231.982 728.586L175.612 721.978C196.047 697.112 196.048 670.483 175.611 645.596L149.1 613.304C149.1 613.303 149.099 613.302 149.098 613.301C125.127 584.13 125.13 552.895 149.099 523.709L175.61 491.416L175.612 491.413C196.047 466.547 196.048 439.918 175.611 415.031L149.1 382.739C149.1 382.738 149.099 382.737 149.098 382.736C125.128 353.565 125.13 322.331 149.098 293.145C149.098 293.145 149.098 293.146 149.098 293.145L175.612 260.848C196.047 235.982 196.048 209.353 175.611 184.466L149.1 152.174C149.1 152.173 149.099 152.172 149.098 152.171C125.128 123 125.13 91.7662 149.098 62.5803C149.098 62.58 149.098 62.5807 149.098 62.5803L175.612 30.2832Z" fill="#17497F"/>
<path fill-rule="evenodd" clip-rule="evenodd" d="M66.7256 30.2832C87.1601 5.41708 87.1618 -21.2119 66.7239 -46.0986L123.097 -52.7031C147.065 -23.517 147.068 7.71762 123.097 36.8887C123.097 36.8889 123.098 36.8885 123.097 36.8887C123.097 36.8895 123.096 36.891 123.095 36.8917L96.5855 69.1828C76.1477 94.0695 76.1486 120.7 96.583 145.566L96.5855 145.569L123.097 177.862C123.097 177.862 123.096 177.861 123.097 177.862C147.064 207.048 147.068 238.283 123.097 267.454C123.097 267.455 123.096 267.456 123.095 267.457L96.5855 299.748C76.1477 324.634 76.1485 351.264 96.583 376.13L96.5855 376.133L123.097 408.427C123.097 408.427 123.096 408.426 123.097 408.427C147.064 437.612 147.068 468.848 123.097 498.018C123.097 498.019 123.096 498.02 123.095 498.021L96.5855 530.312C76.1477 555.199 76.1485 581.829 96.583 606.695L96.5855 606.698L123.097 638.991C123.097 638.992 123.096 638.991 123.097 638.991C147.065 668.178 147.068 699.415 123.095 728.586L66.7255 721.978C87.16 697.112 87.1618 670.483 66.7239 645.596L40.2136 613.304C40.2128 613.303 40.212 613.302 40.2111 613.301C16.2407 584.13 16.2433 552.895 40.212 523.709L66.7231 491.416L66.7256 491.413C87.1601 466.547 87.1618 439.918 66.7239 415.031L40.2136 382.739C40.2128 382.738 40.212 382.737 40.2112 382.736C16.241 353.565 16.2433 322.331 40.2112 293.145C40.2114 293.145 40.2109 293.146 40.2112 293.145L66.7256 260.848C87.1601 235.982 87.1618 209.353 66.7239 184.466L40.2137 152.174C40.2128 152.173 40.212 152.172 40.2112 152.171C16.241 123 16.2433 91.7662 40.2112 62.5803C40.2115 62.58 40.2109 62.5807 40.2112 62.5803L66.7256 30.2832Z" fill="#17497F"/>
<rect x="1183.53" y="-288.752" width="1244.97" height="27.1021" transform="rotate(90 1183.53 -288.752)" fill="#5DABFF"/>
<rect x="1129.33" y="-288.752" width="1244.97" height="27.1021" transform="rotate(90 1129.33 -288.752)" fill="#5DABFF"/>
<rect x="1075.12" y="-288.752" width="1244.97" height="27.1021" transform="rotate(90 1075.12 -288.752)" fill="#17497F"/>
<rect x="1020.92" y="-288.752" width="1244.97" height="27.1021" transform="rotate(90 1020.92 -288.752)" fill="#5DABFF"/>
<rect x="966.715" y="-288.752" width="1244.97" height="27.1021" transform="rotate(90 966.715 -288.752)" fill="#5DABFF"/>
<rect x="912.512" y="-288.752" width="1244.97" height="27.1021" transform="rotate(90 912.512 -288.752)" fill="#5DABFF"/>
<path fill-rule="evenodd" clip-rule="evenodd" d="M707.5 421C659.175 421 620 381.825 620 333.5C620 285.175 659.175 246 707.5 246C755.825 246 795 285.175 795 333.5C795 381.825 755.825 421 707.5 421ZM707.5 386.686C678.126 386.686 654.314 362.874 654.314 333.5C654.314 304.126 678.126 280.314 707.5 280.314C736.874 280.314 760.686 304.126 760.686 333.5C760.686 362.874 736.874 386.686 707.5 386.686Z" fill="#393A3D"/>
</g>
<defs>
<clipPath id="clip0_6_4423">
<rect width="1200" height="675" fill="white"/>
</clipPath>
</defs>
</svg>
