<svg width="1184" height="666" viewBox="0 0 1184 666" fill="none" xmlns="http://www.w3.org/2000/svg">
<g clip-path="url(#clip0_1_4606)">
<rect width="1184" height="666" fill="#F4F4EF"/>
<rect width="885" height="666" fill="#DDECE1"/>
<path fill-rule="evenodd" clip-rule="evenodd" d="M495.897 29.8799C516.059 5.34528 516.06 -20.9287 495.895 -45.4835L551.516 -52C575.165 -23.203 575.168 7.61514 551.517 36.3973C551.517 36.3975 551.517 36.397 551.517 36.3973C551.516 36.398 551.515 36.3995 551.514 36.4003L525.358 68.2608C505.193 92.8156 505.194 119.091 525.356 143.625L525.358 143.628L551.516 175.491C551.516 175.491 551.516 175.49 551.516 175.491C575.164 204.287 575.167 235.106 551.517 263.888C551.516 263.889 551.515 263.89 551.514 263.891L525.358 295.751C505.193 320.306 505.194 346.581 525.356 371.116L525.358 371.119L551.516 402.981C551.516 402.982 551.516 402.981 551.516 402.981C575.164 431.778 575.167 462.597 551.517 491.379C551.516 491.38 551.515 491.381 551.514 491.382L525.358 523.242C505.193 547.797 505.194 574.072 525.356 598.607L525.358 598.61L551.516 630.472C551.516 630.472 551.516 630.472 551.516 630.472C575.165 659.27 575.167 690.09 551.514 718.872L495.897 712.352C516.059 687.817 516.06 661.543 495.895 636.989L469.738 605.127C469.737 605.126 469.737 605.125 469.736 605.124C446.085 576.342 446.087 545.524 469.737 516.727L495.894 484.864L495.897 484.861C516.059 460.327 516.06 434.053 495.895 409.498L469.738 377.636C469.737 377.635 469.737 377.634 469.736 377.633C446.085 348.851 446.087 318.034 469.736 289.237C469.736 289.237 469.735 289.237 469.736 289.237L495.897 257.371C516.059 232.836 516.06 206.562 495.895 182.007L469.738 150.146C469.737 150.145 469.737 150.144 469.736 150.143C446.085 121.361 446.087 90.5431 469.736 61.7464C469.736 61.746 469.735 61.7467 469.736 61.7464L495.897 29.8799Z" fill="#17497F"/>
<path fill-rule="evenodd" clip-rule="evenodd" d="M388.143 29.8799C408.305 5.34528 408.306 -20.9287 388.141 -45.4835L443.762 -52C467.411 -23.203 467.414 7.61514 443.763 36.3973C443.763 36.3975 443.763 36.397 443.763 36.3973C443.762 36.398 443.761 36.3995 443.76 36.4003L417.605 68.2608C397.439 92.8156 397.44 119.091 417.602 143.625L417.604 143.628L443.762 175.491C443.762 175.491 443.762 175.49 443.762 175.491C467.41 204.287 467.413 235.106 443.763 263.888C443.762 263.889 443.761 263.89 443.76 263.891L417.604 295.751C397.439 320.306 397.44 346.581 417.602 371.116L417.604 371.119L443.762 402.981C443.762 402.982 443.762 402.981 443.762 402.981C467.41 431.778 467.413 462.597 443.763 491.379C443.762 491.38 443.761 491.381 443.76 491.382L417.604 523.242C397.439 547.797 397.44 574.072 417.602 598.607L417.604 598.61L443.762 630.472C443.762 630.472 443.762 630.472 443.762 630.472C467.411 659.27 467.413 690.09 443.76 718.872L388.143 712.352C408.305 687.817 408.306 661.543 388.141 636.989L361.984 605.127C361.983 605.126 361.983 605.125 361.982 605.124C338.331 576.342 338.333 545.524 361.983 516.727L388.14 484.864L388.143 484.861C408.305 460.327 408.306 434.053 388.141 409.498L361.984 377.636C361.983 377.635 361.983 377.634 361.982 377.633C338.331 348.851 338.333 318.034 361.982 289.237C361.982 289.237 361.982 289.237 361.982 289.237L388.143 257.371C408.305 232.836 408.306 206.562 388.141 182.007L361.984 150.146C361.983 150.145 361.983 150.144 361.982 150.143C338.331 121.361 338.333 90.5431 361.982 61.7464C361.982 61.746 361.982 61.7467 361.982 61.7464L388.143 29.8799Z" fill="#17497F"/>
<path fill-rule="evenodd" clip-rule="evenodd" d="M280.709 29.8799C300.871 5.34528 300.873 -20.9287 280.707 -45.4835L336.328 -52C359.978 -23.203 359.98 7.61514 336.329 36.3973C336.329 36.3975 336.33 36.397 336.329 36.3973C336.329 36.398 336.328 36.3995 336.327 36.4003L310.171 68.2608C290.006 92.8156 290.006 119.091 310.168 143.625L310.171 143.628L336.328 175.491C336.329 175.491 336.328 175.49 336.328 175.491C359.977 204.287 359.98 235.106 336.329 263.888C336.328 263.889 336.328 263.89 336.327 263.891L310.171 295.751C290.006 320.306 290.006 346.581 310.168 371.116L310.171 371.119L336.328 402.981C336.329 402.982 336.328 402.981 336.328 402.981C359.977 431.778 359.98 462.597 336.329 491.379C336.328 491.38 336.328 491.381 336.327 491.382L310.171 523.242C290.006 547.797 290.006 574.072 310.168 598.607L310.171 598.61L336.328 630.472C336.329 630.472 336.328 630.472 336.328 630.472C359.978 659.27 359.98 690.09 336.327 718.872L280.709 712.352C300.871 687.817 300.873 661.543 280.707 636.989L254.551 605.127C254.55 605.126 254.549 605.125 254.548 605.124C230.897 576.342 230.9 545.524 254.549 516.727L280.707 484.864L280.709 484.861C300.871 460.327 300.873 434.053 280.707 409.498L254.551 377.636C254.55 377.635 254.549 377.634 254.548 377.633C230.898 348.851 230.9 318.034 254.548 289.237C254.548 289.237 254.548 289.237 254.548 289.237L280.709 257.371C300.871 232.836 300.873 206.562 280.707 182.007L254.551 150.146C254.55 150.145 254.549 150.144 254.548 150.143C230.898 121.361 230.9 90.5431 254.548 61.7464C254.548 61.746 254.548 61.7467 254.548 61.7464L280.709 29.8799Z" fill="#17497F"/>
<path fill-rule="evenodd" clip-rule="evenodd" d="M173.272 29.8799C193.434 5.34528 193.435 -20.9287 173.27 -45.4835L228.891 -52C252.54 -23.203 252.543 7.61514 228.892 36.3973C228.892 36.3975 228.892 36.397 228.892 36.3973C228.891 36.398 228.89 36.3995 228.889 36.4003L202.733 68.2608C182.568 92.8156 182.569 119.091 202.731 143.625L202.733 143.628L228.891 175.491C228.891 175.491 228.891 175.49 228.891 175.491C252.539 204.287 252.542 235.106 228.892 263.888C228.891 263.889 228.89 263.89 228.889 263.891L202.733 295.751C182.568 320.306 182.569 346.581 202.731 371.116L202.733 371.119L228.891 402.981C228.891 402.982 228.891 402.981 228.891 402.981C252.539 431.778 252.542 462.597 228.892 491.379C228.891 491.38 228.89 491.381 228.889 491.382L202.733 523.242C182.568 547.797 182.569 574.072 202.731 598.607L202.733 598.61L228.891 630.472C228.891 630.472 228.891 630.472 228.891 630.472C252.54 659.27 252.542 690.09 228.889 718.872L173.272 712.352C193.434 687.817 193.435 661.543 173.27 636.989L147.113 605.127C147.112 605.126 147.112 605.125 147.111 605.124C123.46 576.342 123.462 545.524 147.112 516.727L173.269 484.864L173.272 484.861C193.434 460.327 193.435 434.053 173.27 409.498L147.113 377.636C147.112 377.635 147.112 377.634 147.111 377.633C123.46 348.851 123.462 318.034 147.111 289.237C147.111 289.237 147.11 289.237 147.111 289.237L173.272 257.371C193.434 232.836 193.435 206.562 173.27 182.007L147.113 150.146C147.112 150.145 147.112 150.144 147.111 150.143C123.46 121.361 123.462 90.5431 147.111 61.7464C147.111 61.746 147.11 61.7467 147.111 61.7464L173.272 29.8799Z" fill="#17497F"/>
<path fill-rule="evenodd" clip-rule="evenodd" d="M65.838 29.8799C86 5.34528 86.0017 -20.9287 65.8364 -45.4835L121.457 -52C145.107 -23.203 145.109 7.61514 121.458 36.3973C121.458 36.3975 121.458 36.397 121.458 36.3973C121.458 36.398 121.456 36.3995 121.456 36.4003L95.2998 68.2608C75.1345 92.8156 75.1353 119.091 95.2973 143.625L95.2998 143.628L121.457 175.491C121.458 175.491 121.457 175.49 121.457 175.491C145.106 204.287 145.109 235.106 121.458 263.888C121.457 263.889 121.457 263.89 121.456 263.891L95.2998 295.751C75.1345 320.306 75.1353 346.581 95.2973 371.116L95.2998 371.119L121.457 402.981C121.458 402.982 121.457 402.981 121.457 402.981C145.106 431.778 145.109 462.597 121.458 491.379C121.457 491.38 121.457 491.381 121.456 491.382L95.2998 523.242C75.1345 547.797 75.1353 574.072 95.2973 598.607L95.2998 598.61L121.457 630.472C121.458 630.472 121.457 630.472 121.457 630.472C145.107 659.27 145.109 690.09 121.456 718.872L65.838 712.352C86 687.817 86.0017 661.543 65.8363 636.989L39.6795 605.127C39.6787 605.126 39.6779 605.125 39.6771 605.124C16.0263 576.342 16.0288 545.524 39.6779 516.727L65.8355 484.864L65.838 484.861C86 460.327 86.0017 434.053 65.8364 409.498L39.6796 377.636C39.6787 377.635 39.6779 377.634 39.6771 377.633C16.0265 348.851 16.0288 318.034 39.6771 289.237C39.6774 289.237 39.6768 289.237 39.6771 289.237L65.838 257.371C86 232.836 86.0017 206.562 65.8364 182.007L39.6796 150.146C39.6787 150.145 39.6779 150.144 39.6771 150.143C16.0266 121.361 16.0288 90.5431 39.6771 61.7464C39.6774 61.746 39.6768 61.7467 39.6771 61.7464L65.838 29.8799Z" fill="#17497F"/>
<rect x="1183.53" y="-288.752" width="1244.97" height="27.1021" transform="rotate(90 1183.53 -288.752)" fill="#5DABFF"/>
<rect x="1129.33" y="-288.752" width="1244.97" height="27.1021" transform="rotate(90 1129.33 -288.752)" fill="#5DABFF"/>
<rect x="1075.12" y="-288.752" width="1244.97" height="27.1021" transform="rotate(90 1075.12 -288.752)" fill="#17497F"/>
<rect x="1020.92" y="-288.752" width="1244.97" height="27.1021" transform="rotate(90 1020.92 -288.752)" fill="#5DABFF"/>
<rect x="966.715" y="-288.752" width="1244.97" height="27.1021" transform="rotate(90 966.715 -288.752)" fill="#5DABFF"/>
<rect x="912.512" y="-288.752" width="1244.97" height="27.1021" transform="rotate(90 912.512 -288.752)" fill="#5DABFF"/>
<path fill-rule="evenodd" clip-rule="evenodd" d="M707.5 421C659.175 421 620 381.825 620 333.5C620 285.175 659.175 246 707.5 246C755.825 246 795 285.175 795 333.5C795 381.825 755.825 421 707.5 421ZM707.5 386.686C678.126 386.686 654.314 362.874 654.314 333.5C654.314 304.126 678.126 280.314 707.5 280.314C736.874 280.314 760.686 304.126 760.686 333.5C760.686 362.874 736.874 386.686 707.5 386.686Z" fill="#393A3D"/>
</g>
<defs>
<clipPath id="clip0_1_4606">
<rect width="1184" height="666" fill="white"/>
</clipPath>
</defs>
</svg>
