<svg width="1200" height="675" viewBox="0 0 1200 675" fill="none" xmlns="http://www.w3.org/2000/svg">
<g clip-path="url(#clip0_6_4006)">
<rect width="1200" height="675" fill="#F4F4EF"/>
<rect x="788" width="396" height="674" fill="#C2F5FF"/>
<path fill-rule="evenodd" clip-rule="evenodd" d="M684.666 -3.73987C642.897 -38.0647 598.167 -38.0676 556.363 -3.73712L545.27 -98.4291C594.295 -138.691 646.761 -138.695 695.761 -98.4305C695.762 -98.4302 695.761 -98.4308 695.761 -98.4305C695.763 -98.4294 695.765 -98.4274 695.766 -98.4263L750.007 -53.8971C791.811 -19.5667 836.543 -19.5681 878.311 -53.8929L878.317 -53.8971L932.561 -98.4291C932.561 -98.4295 932.56 -98.4286 932.561 -98.4291C981.586 -138.689 1034.05 -138.694 1083.05 -98.4305C1083.05 -98.4291 1083.06 -98.4277 1083.06 -98.4263L1137.3 -53.8971C1179.1 -19.5667 1223.83 -19.5681 1265.6 -53.8929L1265.61 -53.8971L1319.85 -98.4291C1319.85 -98.4295 1319.85 -98.4286 1319.85 -98.4291C1368.88 -138.689 1421.34 -138.694 1470.34 -98.4305C1470.35 -98.4291 1470.35 -98.4277 1470.35 -98.4263L1524.59 -53.8971C1566.39 -19.5667 1611.13 -19.5681 1652.89 -53.8929L1652.9 -53.8971L1707.14 -98.4291C1707.14 -98.4295 1707.14 -98.4286 1707.14 -98.4291C1756.17 -138.691 1808.64 -138.694 1857.64 -98.4263L1846.54 -3.73987C1804.77 -38.0647 1760.04 -38.0676 1718.24 -3.73712L1663.99 40.7935C1663.99 40.7949 1663.99 40.7963 1663.99 40.7977C1614.99 81.062 1562.52 81.0577 1513.5 40.7963L1459.25 -3.73569L1459.25 -3.73987C1417.48 -38.0647 1372.75 -38.0676 1330.95 -3.73712L1276.7 40.7935C1276.7 40.7949 1276.7 40.7963 1276.7 40.7977C1227.7 81.0615 1175.23 81.0577 1126.21 40.7977C1126.21 40.7972 1126.21 40.7982 1126.21 40.7977L1071.96 -3.73987C1030.19 -38.0647 985.458 -38.0676 943.655 -3.73712L889.412 40.7935C889.41 40.7949 889.409 40.7963 889.407 40.7977C840.408 81.0615 787.942 81.0577 738.917 40.7977C738.916 40.7972 738.917 40.7982 738.917 40.7977L684.666 -3.73987Z" fill="#6100C2"/>
<path fill-rule="evenodd" clip-rule="evenodd" d="M684.666 179.164C642.897 144.84 598.167 144.837 556.363 179.167L545.27 84.4752C594.295 44.2138 646.761 44.2095 695.761 84.4738C695.762 84.4741 695.761 84.4735 695.761 84.4738C695.763 84.4749 695.765 84.4769 695.766 84.478L750.007 129.007C791.811 163.338 836.543 163.336 878.311 129.011L878.317 129.007L932.561 84.4752C932.561 84.4748 932.56 84.4757 932.561 84.4752C981.586 44.2152 1034.05 44.21 1083.05 84.4738C1083.05 84.4752 1083.06 84.4766 1083.06 84.478L1137.3 129.007C1179.1 163.338 1223.83 163.336 1265.6 129.011L1265.61 129.007L1319.85 84.4752C1319.85 84.4748 1319.85 84.4757 1319.85 84.4752C1368.88 44.2152 1421.34 44.2099 1470.34 84.4738C1470.35 84.4752 1470.35 84.4766 1470.35 84.478L1524.59 129.007C1566.39 163.338 1611.13 163.336 1652.89 129.011L1652.9 129.007L1707.14 84.4752C1707.14 84.4748 1707.14 84.4757 1707.14 84.4752C1756.17 44.2138 1808.64 44.21 1857.64 84.478L1846.54 179.164C1804.77 144.84 1760.04 144.837 1718.24 179.167L1663.99 223.698C1663.99 223.699 1663.99 223.701 1663.99 223.702C1614.99 263.966 1562.52 263.962 1513.5 223.701L1459.25 179.169L1459.25 179.164C1417.48 144.84 1372.75 144.837 1330.95 179.167L1276.7 223.698C1276.7 223.699 1276.7 223.701 1276.7 223.702C1227.7 263.966 1175.23 263.962 1126.21 223.702C1126.21 223.702 1126.21 223.702 1126.21 223.702L1071.96 179.164C1030.19 144.84 985.458 144.837 943.655 179.167L889.412 223.698C889.41 223.699 889.409 223.701 889.407 223.702C840.408 263.966 787.942 263.962 738.917 223.702C738.916 223.702 738.917 223.702 738.917 223.702L684.666 179.164Z" fill="#6100C2"/>
<path fill-rule="evenodd" clip-rule="evenodd" d="M684.666 362.069C642.897 327.744 598.167 327.741 556.363 362.071L545.27 267.38C594.295 227.118 646.761 227.114 695.761 267.378C695.762 267.378 695.761 267.378 695.761 267.378C695.763 267.379 695.765 267.381 695.766 267.382L750.007 311.911C791.811 346.242 836.543 346.24 878.311 311.916L878.317 311.911L932.561 267.38C932.561 267.379 932.56 267.38 932.561 267.38C981.586 227.119 1034.05 227.114 1083.05 267.378C1083.05 267.379 1083.06 267.381 1083.06 267.382L1137.3 311.911C1179.1 346.242 1223.83 346.24 1265.6 311.916L1265.61 311.911L1319.85 267.38C1319.85 267.379 1319.85 267.38 1319.85 267.38C1368.88 227.119 1421.34 227.114 1470.34 267.378C1470.35 267.379 1470.35 267.381 1470.35 267.382L1524.59 311.911C1566.39 346.242 1611.13 346.24 1652.89 311.916L1652.9 311.911L1707.14 267.38C1707.14 267.379 1707.14 267.38 1707.14 267.38C1756.17 227.118 1808.64 227.114 1857.64 267.382L1846.54 362.069C1804.77 327.744 1760.04 327.741 1718.24 362.071L1663.99 406.602C1663.99 406.603 1663.99 406.605 1663.99 406.606C1614.99 446.871 1562.52 446.866 1513.5 406.605L1459.25 362.073L1459.25 362.069C1417.48 327.744 1372.75 327.741 1330.95 362.071L1276.7 406.602C1276.7 406.603 1276.7 406.605 1276.7 406.606C1227.7 446.87 1175.23 446.866 1126.21 406.606C1126.21 406.606 1126.21 406.607 1126.21 406.606L1071.96 362.069C1030.19 327.744 985.458 327.741 943.655 362.071L889.412 406.602C889.41 406.603 889.409 406.605 889.407 406.606C840.408 446.87 787.942 446.866 738.917 406.606C738.916 406.606 738.917 406.607 738.917 406.606L684.666 362.069Z" fill="#6100C2"/>
<path fill-rule="evenodd" clip-rule="evenodd" d="M684.666 544.975C642.897 510.65 598.167 510.647 556.363 544.978L545.27 450.286C594.295 410.024 646.761 410.02 695.761 450.284C695.762 450.285 695.761 450.284 695.761 450.284C695.763 450.285 695.765 450.287 695.766 450.289L750.007 494.818C791.811 529.148 836.543 529.147 878.311 494.822L878.317 494.818L932.561 450.286C932.561 450.285 932.56 450.286 932.561 450.286C981.586 410.026 1034.05 410.021 1083.05 450.284C1083.05 450.286 1083.06 450.287 1083.06 450.289L1137.3 494.818C1179.1 529.148 1223.83 529.147 1265.6 494.822L1265.61 494.818L1319.85 450.286C1319.85 450.285 1319.85 450.286 1319.85 450.286C1368.88 410.026 1421.34 410.02 1470.34 450.284C1470.35 450.286 1470.35 450.287 1470.35 450.289L1524.59 494.818C1566.39 529.148 1611.13 529.147 1652.89 494.822L1652.9 494.818L1707.14 450.286C1707.14 450.285 1707.14 450.286 1707.14 450.286C1756.17 410.024 1808.64 410.021 1857.64 450.289L1846.54 544.975C1804.77 510.65 1760.04 510.647 1718.24 544.978L1663.99 589.508C1663.99 589.51 1663.99 589.511 1663.99 589.513C1614.99 629.777 1562.52 629.773 1513.5 589.511L1459.25 544.979L1459.25 544.975C1417.48 510.65 1372.75 510.647 1330.95 544.978L1276.7 589.508C1276.7 589.51 1276.7 589.511 1276.7 589.513C1227.7 629.776 1175.23 629.773 1126.21 589.513C1126.21 589.512 1126.21 589.513 1126.21 589.513L1071.96 544.975C1030.19 510.65 985.458 510.647 943.655 544.978L889.412 589.508C889.41 589.51 889.409 589.511 889.407 589.513C840.408 629.776 787.942 629.773 738.917 589.513C738.916 589.512 738.917 589.513 738.917 589.513L684.666 544.975Z" fill="#6100C2"/>
<path fill-rule="evenodd" clip-rule="evenodd" d="M684.666 727.879C642.897 693.554 598.167 693.552 556.363 727.882L545.27 633.19C594.295 592.929 646.761 592.924 695.761 633.189C695.762 633.189 695.761 633.188 695.761 633.189C695.763 633.19 695.765 633.192 695.766 633.193L750.007 677.722C791.811 712.052 836.543 712.051 878.311 677.726L878.317 677.722L932.561 633.19C932.561 633.19 932.56 633.191 932.561 633.19C981.586 592.93 1034.05 592.925 1083.05 633.189C1083.05 633.19 1083.06 633.191 1083.06 633.193L1137.3 677.722C1179.1 712.052 1223.83 712.051 1265.6 677.726L1265.61 677.722L1319.85 633.19C1319.85 633.19 1319.85 633.191 1319.85 633.19C1368.88 592.93 1421.34 592.925 1470.34 633.189C1470.35 633.19 1470.35 633.191 1470.35 633.193L1524.59 677.722C1566.39 712.052 1611.13 712.051 1652.89 677.726L1652.9 677.722L1707.14 633.19C1707.14 633.19 1707.14 633.191 1707.14 633.19C1756.17 592.929 1808.64 592.925 1857.64 633.193L1846.54 727.879C1804.77 693.554 1760.04 693.552 1718.24 727.882L1663.99 772.413C1663.99 772.414 1663.99 772.415 1663.99 772.417C1614.99 812.681 1562.52 812.677 1513.5 772.415L1459.25 727.883L1459.25 727.879C1417.48 693.554 1372.75 693.552 1330.95 727.882L1276.7 772.413C1276.7 772.414 1276.7 772.415 1276.7 772.417C1227.7 812.681 1175.23 812.677 1126.21 772.417C1126.21 772.416 1126.21 772.417 1126.21 772.417L1071.96 727.879C1030.19 693.554 985.458 693.552 943.655 727.882L889.412 772.413C889.41 772.414 889.409 772.415 889.407 772.417C840.408 812.681 787.942 812.677 738.917 772.417C738.916 772.416 738.917 772.417 738.917 772.417L684.666 727.879Z" fill="#6100C2"/>
<ellipse cx="384.5" cy="333" rx="30.5" ry="31" fill="#393A3D"/>
<path d="M-0.108299 36.9989L295.783 332.891L-0.108299 628.782V36.9989Z" fill="#B496FF"/>
</g>
<defs>
<clipPath id="clip0_6_4006">
<rect width="1200" height="675" fill="white"/>
</clipPath>
</defs>
</svg>
