<svg width="1200" height="675" viewBox="0 0 1200 675" fill="none" xmlns="http://www.w3.org/2000/svg">
<g clip-path="url(#clip0_6_3908)">
<rect width="1200" height="675" fill="#F4F4EF"/>
<rect x="-8" width="621" height="674" fill="#C2F5FF"/>
<circle cx="293.5" cy="348.5" r="79.5" fill="#393A3D"/>
<rect x="613.289" y="0.275391" width="573.88" height="667.178" fill="#F4F4EF"/>
<rect x="613" y="428" width="571" height="238" fill="#B496FF"/>
<circle cx="19.1597" cy="19.1597" r="19.1597" transform="matrix(1 0 0 -1 635.777 44.707)" fill="#6100C2"/>
<circle cx="19.1597" cy="19.1597" r="19.1597" transform="matrix(1 0 0 -1 697.844 44.707)" fill="#6100C2"/>
<circle cx="19.1597" cy="19.1597" r="19.1597" transform="matrix(1 0 0 -1 759.906 44.707)" fill="#6100C2"/>
<circle cx="19.1597" cy="19.1597" r="19.1597" transform="matrix(1 0 0 -1 821.973 44.707)" fill="#6100C2"/>
<circle cx="19.1597" cy="19.1597" r="19.1597" transform="matrix(1 0 0 -1 635.777 106.537)" fill="#6100C2"/>
<circle cx="19.1597" cy="19.1597" r="19.1597" transform="matrix(1 0 0 -1 697.844 106.537)" fill="#6100C2"/>
<circle cx="19.1597" cy="19.1597" r="19.1597" transform="matrix(1 0 0 -1 759.906 106.537)" fill="#6100C2"/>
<circle cx="19.1597" cy="19.1597" r="19.1597" transform="matrix(1 0 0 -1 821.973 106.537)" fill="#6100C2"/>
<circle cx="19.1597" cy="19.1597" r="19.1597" transform="matrix(1 0 0 -1 635.777 168.367)" fill="#6100C2"/>
<circle cx="19.1597" cy="19.1597" r="19.1597" transform="matrix(1 0 0 -1 697.844 168.367)" fill="#6100C2"/>
<circle cx="19.1597" cy="19.1597" r="19.1597" transform="matrix(1 0 0 -1 759.906 168.367)" fill="#6100C2"/>
<circle cx="19.1597" cy="19.1597" r="19.1597" transform="matrix(1 0 0 -1 821.973 168.367)" fill="#6100C2"/>
<circle cx="19.1597" cy="19.1597" r="19.1597" transform="matrix(1 0 0 -1 635.777 230.199)" fill="#6100C2"/>
<circle cx="19.1597" cy="19.1597" r="19.1597" transform="matrix(1 0 0 -1 697.844 230.199)" fill="#6100C2"/>
<circle cx="19.1597" cy="19.1597" r="19.1597" transform="matrix(1 0 0 -1 760 230.32)" fill="#6100C2"/>
<circle cx="19.1597" cy="19.1597" r="19.1597" transform="matrix(1 0 0 -1 821.973 230.199)" fill="#6100C2"/>
<circle cx="19.1597" cy="19.1597" r="19.1597" transform="matrix(1 0 0 -1 635.777 292.029)" fill="#6100C2"/>
<circle cx="19.1597" cy="19.1597" r="19.1597" transform="matrix(1 0 0 -1 697.844 292.029)" fill="#6100C2"/>
<circle cx="19.1597" cy="19.1597" r="19.1597" transform="matrix(1 0 0 -1 759.906 292.029)" fill="#6100C2"/>
<circle cx="19.1597" cy="19.1597" r="19.1597" transform="matrix(1 0 0 -1 821.973 292.029)" fill="#6100C2"/>
<circle cx="19.1597" cy="19.1597" r="19.1597" transform="matrix(1 0 0 -1 635.777 353.861)" fill="#6100C2"/>
<circle cx="19.1597" cy="19.1597" r="19.1597" transform="matrix(1 0 0 -1 697.844 353.861)" fill="#6100C2"/>
<circle cx="19.1597" cy="19.1597" r="19.1597" transform="matrix(1 0 0 -1 759.906 353.861)" fill="#6100C2"/>
<circle cx="19.1597" cy="19.1597" r="19.1597" transform="matrix(1 0 0 -1 821.973 353.861)" fill="#6100C2"/>
<circle cx="19.1597" cy="19.1597" r="19.1597" transform="matrix(1 0 0 -1 635.777 415.691)" fill="#6100C2"/>
<circle cx="19.1597" cy="19.1597" r="19.1597" transform="matrix(1 0 0 -1 697.844 415.691)" fill="#6100C2"/>
<circle cx="19.1597" cy="19.1597" r="19.1597" transform="matrix(1 0 0 -1 759.906 415.691)" fill="#6100C2"/>
<circle cx="19.1597" cy="19.1597" r="19.1597" transform="matrix(1 0 0 -1 821.973 415.691)" fill="#6100C2"/>
<circle cx="19.1597" cy="19.1597" r="19.1597" transform="matrix(1 0 0 -1 635.777 477.523)" fill="#6100C2"/>
<circle cx="19.1597" cy="19.1597" r="19.1597" transform="matrix(1 0 0 -1 697.844 477.523)" fill="#6100C2"/>
<circle cx="19.1597" cy="19.1597" r="19.1597" transform="matrix(1 0 0 -1 759.906 477.523)" fill="#6100C2"/>
<circle cx="19.1597" cy="19.1597" r="19.1597" transform="matrix(1 0 0 -1 821.973 477.523)" fill="#6100C2"/>
<circle cx="19.1597" cy="19.1597" r="19.1597" transform="matrix(1 0 0 -1 635.777 539.355)" fill="#6100C2"/>
<circle cx="19.1597" cy="19.1597" r="19.1597" transform="matrix(1 0 0 -1 697.844 539.355)" fill="#6100C2"/>
<circle cx="19.1597" cy="19.1597" r="19.1597" transform="matrix(1 0 0 -1 759.906 539.355)" fill="#6100C2"/>
<circle cx="19.1597" cy="19.1597" r="19.1597" transform="matrix(1 0 0 -1 821.973 539.355)" fill="#6100C2"/>
<circle cx="19.1597" cy="19.1597" r="19.1597" transform="matrix(1 0 0 -1 635.777 601.186)" fill="#6100C2"/>
<circle cx="19.1597" cy="19.1597" r="19.1597" transform="matrix(1 0 0 -1 697.844 601.186)" fill="#6100C2"/>
<circle cx="19.1597" cy="19.1597" r="19.1597" transform="matrix(1 0 0 -1 759.906 601.186)" fill="#6100C2"/>
<circle cx="19.1597" cy="19.1597" r="19.1597" transform="matrix(1 0 0 -1 821.973 601.186)" fill="#6100C2"/>
<path fill-rule="evenodd" clip-rule="evenodd" d="M930.648 100.698C917.264 89.6071 902.933 89.6066 889.54 100.698L887.836 86.035C902.338 74.0252 917.858 74.0245 932.352 86.0348C932.352 86.035 932.351 86.0346 932.352 86.0348L949.012 99.8268C962.405 110.918 976.737 110.918 990.12 99.8274L1006.78 86.035C1006.78 86.035 1006.78 86.0351 1006.78 86.035C1021.28 74.0254 1036.8 74.0246 1051.3 86.0348C1051.3 86.035 1051.3 86.0346 1051.3 86.0348L1067.96 99.8268C1081.35 110.918 1095.68 110.918 1109.07 99.8274L1125.73 86.035C1125.73 86.035 1125.73 86.0351 1125.73 86.035C1140.23 74.0254 1155.75 74.0245 1170.24 86.0348C1170.24 86.035 1170.24 86.0346 1170.24 86.0348L1186.9 99.8268C1200.29 110.918 1214.63 110.918 1228.01 99.8274L1244.67 86.035C1259.17 74.0249 1274.69 74.0245 1289.19 86.0355L1287.48 100.698C1274.1 89.6071 1259.77 89.6066 1246.37 100.698L1229.71 114.49C1229.71 114.49 1229.72 114.489 1229.71 114.49C1215.22 126.5 1199.7 126.5 1185.2 114.49L1168.54 100.698C1155.16 89.6077 1140.82 89.6066 1127.43 100.698L1110.77 114.49C1096.28 126.501 1080.76 126.5 1066.25 114.49C1066.25 114.49 1066.25 114.49 1066.25 114.49L1049.59 100.698C1036.21 89.6077 1021.88 89.6066 1008.48 100.698L991.825 114.49C977.331 126.501 961.811 126.5 947.309 114.49C947.309 114.49 947.309 114.49 947.309 114.49L930.648 100.698Z" fill="#B496FF"/>
<path fill-rule="evenodd" clip-rule="evenodd" d="M930.648 157.342C917.264 146.252 902.933 146.251 889.54 157.343L887.836 142.68C902.338 130.67 917.858 130.669 932.352 142.679C932.352 142.68 932.351 142.679 932.352 142.679L949.012 156.471C962.405 167.563 976.737 167.563 990.12 156.472L1006.78 142.68C1006.78 142.679 1006.78 142.68 1006.78 142.68C1021.28 130.67 1036.8 130.669 1051.3 142.679C1051.3 142.68 1051.3 142.679 1051.3 142.679L1067.96 156.471C1081.35 167.563 1095.68 167.563 1109.07 156.472L1125.73 142.68C1125.73 142.679 1125.73 142.68 1125.73 142.68C1140.23 130.67 1155.75 130.669 1170.24 142.679C1170.24 142.68 1170.24 142.679 1170.24 142.679L1186.9 156.471C1200.29 167.563 1214.63 167.563 1228.01 156.472L1244.67 142.68C1259.17 130.669 1274.69 130.669 1289.19 142.68L1287.48 157.342C1274.1 146.252 1259.77 146.251 1246.37 157.343L1229.71 171.134C1229.71 171.134 1229.72 171.134 1229.71 171.134C1215.22 183.144 1199.7 183.144 1185.2 171.135L1168.54 157.343C1155.16 146.252 1140.82 146.251 1127.43 157.343L1110.77 171.134C1096.28 183.145 1080.76 183.145 1066.25 171.135C1066.25 171.135 1066.25 171.135 1066.25 171.135L1049.59 157.343C1036.21 146.252 1021.88 146.251 1008.48 157.343L991.825 171.134C977.331 183.145 961.811 183.145 947.309 171.135C947.309 171.135 947.309 171.135 947.309 171.135L930.648 157.342Z" fill="#B496FF"/>
<path fill-rule="evenodd" clip-rule="evenodd" d="M930.648 213.989C917.264 202.898 902.933 202.898 889.54 213.989L887.836 199.326C902.338 187.316 917.858 187.316 932.352 199.326C932.352 199.326 932.351 199.326 932.352 199.326L949.012 213.118C962.405 224.209 976.737 224.209 990.12 213.118L1006.78 199.326C1006.78 199.326 1006.78 199.326 1006.78 199.326C1021.28 187.316 1036.8 187.316 1051.3 199.326C1051.3 199.326 1051.3 199.326 1051.3 199.326L1067.96 213.118C1081.35 224.209 1095.68 224.209 1109.07 213.118L1125.73 199.326C1125.73 199.326 1125.73 199.326 1125.73 199.326C1140.23 187.316 1155.75 187.316 1170.24 199.326C1170.24 199.326 1170.24 199.326 1170.24 199.326L1186.9 213.118C1200.29 224.209 1214.63 224.209 1228.01 213.118L1244.67 199.326C1259.17 187.316 1274.69 187.316 1289.19 199.326L1287.48 213.989C1274.1 202.898 1259.77 202.898 1246.37 213.989L1229.71 227.781C1229.71 227.781 1229.72 227.78 1229.71 227.781C1215.22 239.791 1199.7 239.791 1185.2 227.781L1168.54 213.989C1155.16 202.899 1140.82 202.898 1127.43 213.989L1110.77 227.781C1096.28 239.792 1080.76 239.791 1066.25 227.781C1066.25 227.781 1066.25 227.781 1066.25 227.781L1049.59 213.989C1036.21 202.899 1021.88 202.898 1008.48 213.989L991.825 227.781C977.331 239.792 961.811 239.791 947.309 227.781C947.309 227.781 947.309 227.781 947.309 227.781L930.648 213.989Z" fill="#B496FF"/>
<path fill-rule="evenodd" clip-rule="evenodd" d="M930.648 270.635C917.264 259.545 902.933 259.544 889.54 270.636L887.836 255.973C902.338 243.963 917.858 243.962 932.352 255.972C932.352 255.973 932.351 255.972 932.352 255.972L949.012 269.764C962.405 280.856 976.737 280.856 990.12 269.765L1006.78 255.973C1006.78 255.972 1006.78 255.973 1006.78 255.973C1021.28 243.963 1036.8 243.962 1051.3 255.972C1051.3 255.973 1051.3 255.972 1051.3 255.972L1067.96 269.764C1081.35 280.856 1095.68 280.856 1109.07 269.765L1125.73 255.973C1125.73 255.972 1125.73 255.973 1125.73 255.973C1140.23 243.963 1155.75 243.962 1170.24 255.972C1170.24 255.973 1170.24 255.972 1170.24 255.972L1186.9 269.764C1200.29 280.856 1214.63 280.856 1228.01 269.765L1244.67 255.973C1259.17 243.962 1274.69 243.962 1289.19 255.973L1287.48 270.635C1274.1 259.545 1259.77 259.544 1246.37 270.636L1229.71 284.427C1229.71 284.427 1229.72 284.427 1229.71 284.427C1215.22 296.437 1199.7 296.437 1185.2 284.428L1168.54 270.636C1155.16 259.545 1140.82 259.544 1127.43 270.636L1110.77 284.427C1096.28 296.438 1080.76 296.438 1066.25 284.428C1066.25 284.428 1066.25 284.428 1066.25 284.428L1049.59 270.636C1036.21 259.545 1021.88 259.544 1008.48 270.636L991.825 284.427C977.331 296.438 961.811 296.438 947.309 284.428C947.309 284.428 947.309 284.428 947.309 284.428L930.648 270.635Z" fill="#B496FF"/>
<path fill-rule="evenodd" clip-rule="evenodd" d="M930.648 327.28C917.264 316.189 902.933 316.189 889.54 327.28L887.836 312.617C902.338 300.607 917.858 300.607 932.352 312.617C932.352 312.617 932.351 312.617 932.352 312.617L949.012 326.409C962.405 337.5 976.737 337.5 990.12 326.409L1006.78 312.617C1006.78 312.617 1006.78 312.617 1006.78 312.617C1021.28 300.607 1036.8 300.607 1051.3 312.617C1051.3 312.617 1051.3 312.617 1051.3 312.617L1067.96 326.409C1081.35 337.5 1095.68 337.5 1109.07 326.409L1125.73 312.617C1125.73 312.617 1125.73 312.617 1125.73 312.617C1140.23 300.607 1155.75 300.607 1170.24 312.617C1170.24 312.617 1170.24 312.617 1170.24 312.617L1186.9 326.409C1200.29 337.5 1214.63 337.5 1228.01 326.409L1244.67 312.617C1259.17 300.607 1274.69 300.607 1289.19 312.617L1287.48 327.28C1274.1 316.189 1259.77 316.189 1246.37 327.28L1229.71 341.072C1229.71 341.072 1229.72 341.071 1229.71 341.072C1215.22 353.082 1199.7 353.082 1185.2 341.072L1168.54 327.28C1155.16 316.19 1140.82 316.189 1127.43 327.28L1110.77 341.072C1096.28 353.083 1080.76 353.082 1066.25 341.072C1066.25 341.072 1066.25 341.072 1066.25 341.072L1049.59 327.28C1036.21 316.19 1021.88 316.189 1008.48 327.28L991.825 341.072C977.331 353.083 961.811 353.082 947.309 341.072C947.309 341.072 947.309 341.072 947.309 341.072L930.648 327.28Z" fill="#B496FF"/>
<path d="M0 292L-2.57897e-05 -2.99997L294 -3L0 292Z" fill="#6100C2"/>
</g>
<defs>
<clipPath id="clip0_6_3908">
<rect width="1200" height="675" fill="white"/>
</clipPath>
</defs>
</svg>
