<svg width="1200" height="675" viewBox="0 0 1200 675" fill="none" xmlns="http://www.w3.org/2000/svg">
<g clip-path="url(#clip0_6_4158)">
<rect width="1200" height="675" fill="#F4F4EF"/>
<path fill-rule="evenodd" clip-rule="evenodd" d="M80.9751 445.541C55.6615 435.758 28.5545 435.758 3.2222 445.541L0 432.607C27.4299 422.014 56.7839 422.013 84.1977 432.607C84.1982 432.607 84.1972 432.607 84.1977 432.607L115.709 444.773C141.041 454.556 168.149 454.556 193.462 444.773L224.974 432.607C224.974 432.607 224.974 432.608 224.974 432.607C252.404 422.014 281.758 422.013 309.172 432.607C309.172 432.607 309.171 432.607 309.172 432.607L340.683 444.773C366.015 454.556 393.123 454.556 418.436 444.773L449.948 432.607C449.948 432.607 449.948 432.608 449.948 432.607C477.378 422.014 506.732 422.013 534.146 432.607C534.146 432.607 534.145 432.607 534.146 432.607L565.657 444.773C590.989 454.556 618.097 454.556 643.41 444.773L674.922 432.607C702.353 422.014 731.707 422.013 759.122 432.608L755.898 445.541C730.584 435.758 703.477 435.758 678.145 445.541L646.635 457.706C646.634 457.706 646.635 457.706 646.635 457.706C619.221 468.3 589.865 468.3 562.435 457.707L530.925 445.541C505.611 435.759 478.503 435.758 453.17 445.541L421.66 457.706C394.246 468.301 364.892 468.3 337.462 457.707C337.462 457.707 337.462 457.707 337.462 457.707L305.951 445.541C280.637 435.759 253.529 435.758 228.196 445.541L196.686 457.706C169.272 468.301 139.918 468.3 112.488 457.707C112.487 457.707 112.488 457.707 112.488 457.707L80.9751 445.541Z" fill="#393A3D"/>
<path fill-rule="evenodd" clip-rule="evenodd" d="M80.9751 495.506C55.6615 485.723 28.5545 485.723 3.2222 495.506L0 482.572C27.4299 471.979 56.7839 471.978 84.1977 482.572C84.1982 482.572 84.1972 482.572 84.1977 482.572L115.709 494.738C141.041 504.521 168.149 504.521 193.462 494.738L224.974 482.572C224.974 482.572 224.974 482.572 224.974 482.572C252.404 471.979 281.758 471.978 309.172 482.572C309.172 482.572 309.171 482.572 309.172 482.572L340.683 494.738C366.015 504.521 393.123 504.521 418.436 494.738L449.948 482.572C449.948 482.572 449.948 482.572 449.948 482.572C477.378 471.979 506.732 471.978 534.146 482.572C534.146 482.572 534.145 482.572 534.146 482.572L565.657 494.738C590.989 504.521 618.097 504.521 643.41 494.738L674.922 482.572C702.353 471.979 731.707 471.978 759.122 482.573L755.898 495.506C730.584 485.723 703.477 485.723 678.145 495.506L646.635 507.671C646.634 507.671 646.635 507.671 646.635 507.671C619.221 518.265 589.865 518.265 562.435 507.671L530.925 495.506C505.611 485.724 478.503 485.723 453.17 495.506L421.66 507.671C394.246 518.265 364.892 518.265 337.462 507.672C337.462 507.672 337.462 507.672 337.462 507.672L305.951 495.506C280.637 485.724 253.529 485.723 228.196 495.506L196.686 507.671C169.272 518.265 139.918 518.265 112.488 507.672C112.487 507.672 112.488 507.672 112.488 507.672L80.9751 495.506Z" fill="#393A3D"/>
<path fill-rule="evenodd" clip-rule="evenodd" d="M80.9751 545.471C55.6615 535.688 28.5545 535.688 3.2222 545.471L0 532.537C27.4299 521.944 56.7839 521.943 84.1977 532.537C84.1982 532.537 84.1972 532.537 84.1977 532.537L115.709 544.702C141.041 554.486 168.149 554.486 193.462 544.703L224.974 532.537C224.974 532.537 224.974 532.537 224.974 532.537C252.404 521.944 281.758 521.943 309.172 532.537C309.172 532.537 309.171 532.537 309.172 532.537L340.683 544.702C366.015 554.486 393.123 554.486 418.436 544.703L449.948 532.537C449.948 532.537 449.948 532.537 449.948 532.537C477.378 521.944 506.732 521.943 534.146 532.537C534.146 532.537 534.145 532.537 534.146 532.537L565.657 544.702C590.989 554.486 618.097 554.486 643.41 544.703L674.922 532.537C702.353 521.943 731.707 521.943 759.122 532.538L755.898 545.471C730.584 535.688 703.477 535.688 678.145 545.471L646.635 557.636C646.634 557.636 646.635 557.636 646.635 557.636C619.221 568.23 589.865 568.23 562.435 557.636L530.925 545.471C505.611 535.688 478.503 535.688 453.17 545.471L421.66 557.636C394.246 568.23 364.892 568.23 337.462 557.637C337.462 557.636 337.462 557.637 337.462 557.637L305.951 545.471C280.637 535.688 253.529 535.688 228.196 545.471L196.686 557.636C169.272 568.23 139.918 568.23 112.488 557.637C112.487 557.636 112.488 557.637 112.488 557.637L80.9751 545.471Z" fill="#393A3D"/>
<path fill-rule="evenodd" clip-rule="evenodd" d="M80.9751 595.541C55.6615 585.758 28.5545 585.758 3.2222 595.541L0 582.607C27.4299 572.014 56.7839 572.013 84.1977 582.607C84.1982 582.607 84.1972 582.607 84.1977 582.607L115.709 594.773C141.041 604.556 168.149 604.556 193.462 594.773L224.974 582.607C224.974 582.607 224.974 582.608 224.974 582.607C252.404 572.014 281.758 572.013 309.172 582.607C309.172 582.607 309.171 582.607 309.172 582.607L340.683 594.773C366.015 604.556 393.123 604.556 418.436 594.773L449.948 582.607C449.948 582.607 449.948 582.608 449.948 582.607C477.378 572.014 506.732 572.013 534.146 582.607C534.146 582.607 534.145 582.607 534.146 582.607L565.657 594.773C590.989 604.556 618.097 604.556 643.41 594.773L674.922 582.607C702.353 572.014 731.707 572.013 759.122 582.608L755.898 595.541C730.584 585.758 703.477 585.758 678.145 595.541L646.635 607.706C646.634 607.706 646.635 607.706 646.635 607.706C619.221 618.3 589.865 618.3 562.435 607.707L530.925 595.541C505.611 585.759 478.503 585.758 453.17 595.541L421.66 607.706C394.246 618.301 364.892 618.3 337.462 607.707C337.462 607.707 337.462 607.707 337.462 607.707L305.951 595.541C280.637 585.759 253.529 585.758 228.196 595.541L196.686 607.706C169.272 618.301 139.918 618.3 112.488 607.707C112.487 607.707 112.488 607.707 112.488 607.707L80.9751 595.541Z" fill="#393A3D"/>
<path fill-rule="evenodd" clip-rule="evenodd" d="M80.9751 645.4C55.6615 635.618 28.5545 635.617 3.2222 645.401L0 632.467C27.4299 621.873 56.7839 621.873 84.1977 632.467C84.1982 632.467 84.1972 632.466 84.1977 632.467L115.709 644.632C141.041 654.415 168.149 654.415 193.462 644.633L224.974 632.467C224.974 632.467 224.974 632.467 224.974 632.467C252.404 621.874 281.758 621.873 309.172 632.467C309.172 632.467 309.171 632.466 309.172 632.467L340.683 644.632C366.015 654.415 393.123 654.415 418.436 644.633L449.948 632.467C449.948 632.467 449.948 632.467 449.948 632.467C477.378 621.874 506.732 621.873 534.146 632.467C534.146 632.467 534.145 632.466 534.146 632.467L565.657 644.632C590.989 654.415 618.097 654.415 643.41 644.633L674.922 632.467C702.353 621.873 731.707 621.873 759.122 632.467L755.898 645.4C730.584 635.618 703.477 635.617 678.145 645.401L646.635 657.566C646.634 657.566 646.635 657.565 646.635 657.566C619.221 668.16 589.865 668.16 562.435 657.566L530.925 645.401C505.611 635.618 478.503 635.617 453.17 645.401L421.66 657.566C394.246 668.16 364.892 668.16 337.462 657.566C337.462 657.566 337.462 657.566 337.462 657.566L305.951 645.401C280.637 635.618 253.529 635.617 228.196 645.401L196.686 657.566C169.272 668.16 139.918 668.16 112.488 657.566C112.487 657.566 112.488 657.566 112.488 657.566L80.9751 645.4Z" fill="#393A3D"/>
<rect x="730" width="454" height="674" fill="#C2F5FF"/>
<circle cx="956.5" cy="517.5" r="57.5" fill="#B496FF"/>
<path d="M375 300L245.096 75L504.904 75L375 300Z" fill="#B496FF"/>
<path d="M375 378L289.263 229.5L460.737 229.5L375 378Z" fill="#393A3D"/>
<path d="M1184 72C1099.5 72 1031 140.5 1031 225C1031 309.5 1099.5 378 1184 378L1184 318C1132.64 318 1091 276.363 1091 225C1091 173.637 1132.64 132 1184 132L1184 72Z" fill="#6100C2"/>
</g>
<defs>
<clipPath id="clip0_6_4158">
<rect width="1200" height="675" fill="white"/>
</clipPath>
</defs>
</svg>
