<svg width="1200" height="675" viewBox="0 0 1200 675" fill="none" xmlns="http://www.w3.org/2000/svg">
<g clip-path="url(#clip0_6_3840)">
<rect width="1200" height="675" fill="#F4F4EF"/>
<rect x="-8" width="661" height="674" fill="#C2F5FF"/>
<rect x="85.5547" y="121" width="276.444" height="84.6919" fill="#B496FF"/>
<rect x="85.5547" y="290.383" width="276.444" height="84.6919" fill="#B496FF"/>
<rect x="85.5547" y="459.768" width="276.444" height="84.6919" fill="#B496FF"/>
<rect x="653" y="121" width="423" height="423" fill="#6100C2"/>
<path fill-rule="evenodd" clip-rule="evenodd" d="M453.009 121C455.126 127.6 458.359 134.144 462.708 140.572L482.166 169.341C497.813 192.451 497.813 217.198 482.165 240.326L462.708 269.093C445.764 294.121 445.765 320.92 462.708 345.962L482.166 374.73C497.813 397.84 497.813 422.588 482.165 445.715L462.708 474.483C445.764 499.511 445.765 526.309 462.708 551.351L483.394 548.41C467.747 525.283 467.747 500.535 483.394 477.425L502.852 448.656C519.796 423.614 519.796 396.815 502.851 371.787L483.394 343.02C467.747 319.893 467.748 295.144 483.395 272.034L502.852 243.266C519.796 218.224 519.796 191.425 502.851 166.397L483.394 137.63C479.695 132.163 476.871 126.605 474.921 121H453.009Z" fill="#393A3D"/>
<path fill-rule="evenodd" clip-rule="evenodd" d="M518.111 121C520.227 127.6 523.46 134.144 527.809 140.572L547.268 169.341C562.914 192.451 562.914 217.198 547.267 240.326L527.809 269.093C510.865 294.121 510.866 320.92 527.809 345.962L547.268 374.73C562.914 397.84 562.914 422.588 547.267 445.715L527.809 474.483C510.865 499.511 510.866 526.309 527.81 551.351L548.496 548.41C532.848 525.283 532.849 500.535 548.495 477.425L567.954 448.656C584.897 423.614 584.898 396.815 567.953 371.787L548.496 343.02C532.848 319.893 532.85 295.144 548.496 272.034L567.954 243.266C584.897 218.224 584.898 191.425 567.953 166.397L548.496 137.63C544.797 132.163 541.972 126.605 540.022 121H518.111Z" fill="#393A3D"/>
<circle cx="864.5" cy="333.5" r="57.5" fill="#B496FF"/>
</g>
<defs>
<clipPath id="clip0_6_3840">
<rect width="1200" height="675" fill="white"/>
</clipPath>
</defs>
</svg>
