<svg width="1200" height="675" viewBox="0 0 1200 675" fill="none" xmlns="http://www.w3.org/2000/svg">
<g clip-path="url(#clip0_6_3834)">
<rect width="1200" height="675" fill="#F4F4EF"/>
<rect x="592" width="592" height="674" fill="#C2F5FF"/>
<circle cx="1269.55" cy="332.553" r="249.553" fill="#6100C2"/>
<path fill-rule="evenodd" clip-rule="evenodd" d="M-0.446634 582.999C137.378 582.999 249.107 471.27 249.107 333.446C249.107 195.622 137.378 83.8926 -0.446634 83.8926C-138.271 83.8926 -250 195.622 -250 333.446C-250 471.27 -138.271 582.999 -0.446634 582.999ZM-0.446634 485.135C83.329 485.135 151.243 417.222 151.243 333.446C151.243 249.67 83.329 181.757 -0.446634 181.757C-84.2223 181.757 -152.136 249.67 -152.136 333.446C-152.136 417.222 -84.2223 485.135 -0.446634 485.135Z" fill="#6100C2"/>
<path fill-rule="evenodd" clip-rule="evenodd" d="M592.5 469C667.335 469 728 408.335 728 333.5C728 258.665 667.335 198 592.5 198C517.665 198 457 258.665 457 333.5C457 408.335 517.665 469 592.5 469ZM592.5 445.088C654.129 445.088 704.088 395.129 704.088 333.5C704.088 271.871 654.129 221.912 592.5 221.912C530.871 221.912 480.912 271.871 480.912 333.5C480.912 395.129 530.871 445.088 592.5 445.088Z" fill="#B496FF"/>
<circle cx="592.5" cy="333.5" r="57.5" fill="#393A3D"/>
</g>
<defs>
<clipPath id="clip0_6_3834">
<rect width="1200" height="675" fill="white"/>
</clipPath>
</defs>
</svg>
