<svg width="1200" height="675" viewBox="0 0 1200 675" fill="none" xmlns="http://www.w3.org/2000/svg">
<g clip-path="url(#clip0_6_4039)">
<rect width="1200" height="675" fill="#F4F4EF"/>
<rect x="1080" width="123" height="674" fill="#C2F5FF"/>
<ellipse cx="180.5" cy="338.5" rx="488.5" ry="471.5" fill="#C2F5FF"/>
<path d="M831 338.5L1223.25 110.302L1223.25 566.698L831 338.5Z" fill="#6100C2"/>
<path fill-rule="evenodd" clip-rule="evenodd" d="M-229.177 178.325C-255.119 162.679 -282.9 162.678 -308.862 178.326L-312.164 157.64C-284.053 140.696 -253.969 140.695 -225.874 157.639C-225.873 157.64 -225.874 157.639 -225.874 157.639L-193.58 177.097C-167.618 192.745 -139.837 192.744 -113.894 177.098L-81.5992 157.64C-81.599 157.639 -81.5993 157.64 -81.5992 157.64C-53.4878 140.696 -23.404 140.695 4.69091 157.639C4.69142 157.64 4.6904 157.639 4.69091 157.639L36.985 177.097C62.9468 192.745 90.728 192.744 116.671 177.098L148.966 157.64C148.966 157.639 148.965 157.64 148.966 157.64C177.077 140.696 207.161 140.695 235.256 157.639C235.256 157.64 235.255 157.639 235.256 157.639L267.55 177.097C293.512 192.745 321.293 192.744 347.235 177.098L379.531 157.64C407.643 140.696 437.727 140.695 465.822 157.64L462.518 178.325C436.575 162.679 408.795 162.678 382.833 178.326L350.54 197.783C350.539 197.783 350.54 197.783 350.54 197.783C322.445 214.727 292.36 214.727 264.248 197.784L231.954 178.326C206.012 162.68 178.23 162.678 152.268 178.326L119.975 197.783C91.8795 214.728 61.7957 214.727 33.6837 197.784C33.6836 197.784 33.6839 197.784 33.6837 197.784L1.38968 178.326C-24.5529 162.68 -52.3351 162.678 -78.2969 178.326L-110.59 197.783C-138.685 214.728 -168.769 214.727 -196.881 197.784C-196.881 197.784 -196.881 197.784 -196.881 197.784L-229.177 178.325Z" fill="#393A3D"/>
<path fill-rule="evenodd" clip-rule="evenodd" d="M-229.177 258.239C-255.119 242.593 -282.9 242.592 -308.862 258.24L-312.164 237.554C-284.053 220.61 -253.969 220.609 -225.874 237.553C-225.873 237.554 -225.874 237.553 -225.874 237.553L-193.58 257.011C-167.618 272.659 -139.837 272.658 -113.894 257.012L-81.5992 237.554C-81.599 237.554 -81.5993 237.554 -81.5992 237.554C-53.4878 220.611 -23.404 220.609 4.69091 237.553C4.69142 237.554 4.6904 237.553 4.69091 237.553L36.985 257.011C62.9468 272.659 90.728 272.658 116.671 257.012L148.966 237.554C148.966 237.554 148.965 237.554 148.966 237.554C177.077 220.611 207.161 220.609 235.256 237.553C235.256 237.554 235.255 237.553 235.256 237.553L267.55 257.011C293.512 272.659 321.293 272.658 347.235 257.012L379.531 237.554C407.643 220.61 437.727 220.609 465.822 237.554L462.518 258.239C436.575 242.593 408.795 242.592 382.833 258.24L350.54 277.697C350.539 277.697 350.54 277.697 350.54 277.697C322.445 294.641 292.36 294.641 264.248 277.698L231.954 258.24C206.012 242.594 178.23 242.592 152.268 258.24L119.975 277.697C91.8795 294.642 61.7957 294.641 33.6837 277.698C33.6836 277.698 33.6839 277.698 33.6837 277.698L1.38968 258.24C-24.5529 242.594 -52.3351 242.592 -78.2969 258.24L-110.59 277.697C-138.685 294.642 -168.769 294.641 -196.881 277.698C-196.881 277.698 -196.881 277.698 -196.881 277.698L-229.177 258.239Z" fill="#393A3D"/>
<path fill-rule="evenodd" clip-rule="evenodd" d="M-229.177 338.156C-255.119 322.509 -282.9 322.508 -308.862 338.156L-312.164 317.47C-284.053 300.526 -253.969 300.525 -225.874 317.469C-225.873 317.47 -225.874 317.469 -225.874 317.469L-193.58 336.927C-167.618 352.575 -139.837 352.574 -113.894 336.928L-81.5992 317.47C-81.599 317.47 -81.5993 317.47 -81.5992 317.47C-53.4878 300.527 -23.404 300.525 4.69091 317.469C4.69142 317.47 4.6904 317.469 4.69091 317.469L36.985 336.927C62.9468 352.575 90.728 352.574 116.671 336.928L148.966 317.47C148.966 317.47 148.965 317.47 148.966 317.47C177.077 300.527 207.161 300.525 235.256 317.469C235.256 317.47 235.255 317.469 235.256 317.469L267.55 336.927C293.512 352.575 321.293 352.574 347.235 336.928L379.531 317.47C407.643 300.526 437.727 300.525 465.822 317.47L462.518 338.156C436.575 322.509 408.795 322.508 382.833 338.156L350.54 357.613C350.539 357.613 350.54 357.613 350.54 357.613C322.445 374.557 292.36 374.557 264.248 357.614L231.954 338.156C206.012 322.51 178.23 322.508 152.268 338.156L119.975 357.613C91.8795 374.558 61.7957 374.557 33.6837 357.614C33.6836 357.614 33.6839 357.614 33.6837 357.614L1.38968 338.156C-24.5529 322.51 -52.3351 322.508 -78.2969 338.156L-110.59 357.613C-138.685 374.558 -168.769 374.557 -196.881 357.614C-196.881 357.614 -196.881 357.614 -196.881 357.614L-229.177 338.156Z" fill="#393A3D"/>
<path fill-rule="evenodd" clip-rule="evenodd" d="M-229.177 418.07C-255.119 402.423 -282.9 402.422 -308.862 418.07L-312.164 397.384C-284.053 380.44 -253.969 380.439 -225.874 397.383C-225.873 397.384 -225.874 397.383 -225.874 397.383L-193.58 416.841C-167.618 432.489 -139.837 432.488 -113.894 416.842L-81.5992 397.384C-81.599 397.384 -81.5993 397.384 -81.5992 397.384C-53.4878 380.441 -23.404 380.439 4.69091 397.383C4.69142 397.384 4.6904 397.383 4.69091 397.383L36.985 416.841C62.9468 432.489 90.728 432.488 116.671 416.842L148.966 397.384C148.966 397.384 148.965 397.384 148.966 397.384C177.077 380.441 207.161 380.439 235.256 397.383C235.256 397.384 235.255 397.383 235.256 397.383L267.55 416.841C293.512 432.489 321.293 432.488 347.235 416.842L379.531 397.384C407.643 380.44 437.727 380.439 465.822 397.384L462.518 418.07C436.575 402.423 408.795 402.422 382.833 418.07L350.54 437.527C350.539 437.527 350.54 437.527 350.54 437.527C322.445 454.471 292.36 454.471 264.248 437.528L231.954 418.07C206.012 402.424 178.23 402.422 152.268 418.07L119.975 437.527C91.8795 454.472 61.7957 454.471 33.6837 437.528C33.6836 437.528 33.6839 437.528 33.6837 437.528L1.38968 418.07C-24.5529 402.424 -52.3351 402.422 -78.2969 418.07L-110.59 437.527C-138.685 454.472 -168.769 454.471 -196.881 437.528C-196.881 437.528 -196.881 437.528 -196.881 437.528L-229.177 418.07Z" fill="#393A3D"/>
<path fill-rule="evenodd" clip-rule="evenodd" d="M-229.177 497.986C-255.119 482.339 -282.9 482.338 -308.862 497.986L-312.164 477.3C-284.053 460.356 -253.969 460.355 -225.874 477.299C-225.873 477.3 -225.874 477.299 -225.874 477.299L-193.58 496.757C-167.618 512.405 -139.837 512.404 -113.894 496.758L-81.5992 477.3C-81.599 477.3 -81.5993 477.3 -81.5992 477.3C-53.4878 460.357 -23.404 460.356 4.69091 477.299C4.69142 477.3 4.6904 477.299 4.69091 477.299L36.985 496.757C62.9468 512.405 90.728 512.404 116.671 496.758L148.966 477.3C148.966 477.3 148.965 477.3 148.966 477.3C177.077 460.357 207.161 460.355 235.256 477.299C235.256 477.3 235.255 477.299 235.256 477.299L267.55 496.757C293.512 512.405 321.293 512.404 347.235 496.758L379.531 477.3C407.643 460.356 437.727 460.355 465.822 477.3L462.518 497.986C436.575 482.339 408.795 482.338 382.833 497.986L350.54 517.443C350.539 517.443 350.54 517.443 350.54 517.443C322.445 534.387 292.36 534.387 264.248 517.444L231.954 497.987C206.012 482.34 178.23 482.338 152.268 497.986L119.975 517.443C91.8795 534.388 61.7957 534.387 33.6837 517.444C33.6836 517.444 33.6839 517.444 33.6837 517.444L1.38968 497.987C-24.5529 482.34 -52.3351 482.338 -78.2969 497.986L-110.59 517.443C-138.685 534.388 -168.769 534.387 -196.881 517.444C-196.881 517.444 -196.881 517.444 -196.881 517.444L-229.177 497.986Z" fill="#393A3D"/>
<circle cx="33.3529" cy="33.3529" r="33.3529" transform="matrix(1 0 0 -1 544 367.705)" fill="#6100C2"/>
<circle cx="33.3529" cy="33.3529" r="33.3529" transform="matrix(1 0 0 -1 701.766 367.705)" fill="#B496FF"/>
<circle cx="33.3529" cy="33.3529" r="33.3529" transform="matrix(1 0 0 -1 909.293 367.705)" fill="#B496FF"/>
<circle cx="33.3529" cy="33.3529" r="33.3529" transform="matrix(1 0 0 -1 1013.06 367.705)" fill="#B496FF"/>
<circle cx="33.3529" cy="33.3529" r="33.3529" transform="matrix(1 0 0 -1 1116.82 367.705)" fill="#B496FF"/>
</g>
<defs>
<clipPath id="clip0_6_4039">
<rect width="1200" height="675" fill="white"/>
</clipPath>
</defs>
</svg>
