<svg width="1185" height="667" viewBox="0 0 1185 667" fill="none" xmlns="http://www.w3.org/2000/svg">
<g clip-path="url(#clip0_1_1956)">
<rect width="1184" height="666" transform="translate(0.332031 0.78125)" fill="#F4F4EF"/>
<rect x="-11" y="345.105" width="1198" height="324" fill="#E2D9FF"/>
<rect x="-11.2344" y="511.633" width="1207.42" height="16.1366" fill="#F54BAC"/>
<rect x="-11.2344" y="543.906" width="1207.42" height="16.1366" fill="#F54BAC"/>
<rect x="-11.2344" y="576.18" width="1207.42" height="16.1366" fill="#F54BAC"/>
<rect x="-11.2344" y="608.453" width="1207.42" height="16.1366" fill="#F54BAC"/>
<rect x="-11.2344" y="640.727" width="1207.42" height="16.1366" fill="#F54BAC"/>
<rect x="-11.2344" y="13.5664" width="1207.42" height="16.1366" fill="#F54BAC"/>
<rect x="-11.2344" y="45.8398" width="1207.42" height="16.1366" fill="#F54BAC"/>
<path d="M106.305 109.797C106.305 136.958 128.323 158.976 155.484 158.976C182.645 158.976 204.664 136.958 204.664 109.797L185.377 109.797C185.377 126.307 171.994 139.69 155.484 139.69C138.974 139.69 125.591 126.307 125.591 109.797L106.305 109.797Z" fill="#393A3D"/>
<path d="M692.879 109.797C692.879 136.958 714.897 158.976 742.058 158.976C769.219 158.976 791.238 136.958 791.238 109.797L771.952 109.797C771.952 126.307 758.568 139.69 742.058 139.69C725.549 139.69 712.165 126.307 712.165 109.797L692.879 109.797Z" fill="#393A3D"/>
<path d="M75.2539 220.219C75.2539 264.528 111.174 300.448 155.483 300.448C199.792 300.448 235.712 264.528 235.712 220.219L204.25 220.219C204.25 247.152 182.416 268.985 155.483 268.986C128.55 268.986 106.716 247.152 106.716 220.219L75.2539 220.219Z" fill="#393A3D"/>
<path d="M661.832 220.219C661.832 264.528 697.752 300.448 742.061 300.448C786.371 300.448 822.29 264.528 822.29 220.219L790.828 220.219C790.828 247.152 768.994 268.985 742.061 268.986C715.128 268.986 693.294 247.152 693.294 220.219L661.832 220.219Z" fill="#393A3D"/>
<path d="M497.945 453.441C497.945 426.28 475.927 404.262 448.766 404.262C421.605 404.262 399.586 426.28 399.586 453.441L418.873 453.441C418.873 436.932 432.256 423.548 448.766 423.548C465.276 423.548 478.659 436.932 478.659 453.441L497.945 453.441Z" fill="#393A3D"/>
<path d="M529.457 345.336C529.457 301.027 493.537 265.107 449.228 265.107C404.919 265.107 368.999 301.027 368.999 345.336L400.461 345.336C400.461 318.403 422.295 296.569 449.228 296.569C476.161 296.569 497.995 318.403 497.995 345.336L529.457 345.336Z" fill="#393A3D"/>
<path d="M567.629 217.793C567.629 152.148 514.413 98.9322 448.768 98.9322C383.123 98.9322 329.907 152.148 329.907 217.793L376.519 217.793C376.519 177.891 408.866 145.544 448.768 145.544C488.67 145.544 521.017 177.891 521.017 217.793L567.629 217.793Z" fill="#393A3D"/>
<path d="M36.6172 345.441C36.6172 411.086 89.833 464.302 155.478 464.302C221.123 464.302 274.339 411.086 274.339 345.441L227.727 345.441C227.727 385.343 195.38 417.69 155.478 417.69C115.576 417.69 83.2293 385.343 83.2292 345.441L36.6172 345.441Z" fill="#393A3D"/>
<path d="M623.199 345.441C623.199 411.086 676.415 464.302 742.06 464.302C807.705 464.302 860.921 411.086 860.921 345.441L814.309 345.441C814.309 385.343 781.962 417.69 742.06 417.69C702.158 417.69 669.811 385.343 669.811 345.441L623.199 345.441Z" fill="#393A3D"/>
<path d="M1081.52 453.441C1081.52 426.28 1059.51 404.262 1032.34 404.262C1005.18 404.262 983.165 426.28 983.165 453.441L1002.45 453.441C1002.45 436.932 1015.83 423.548 1032.34 423.548C1048.85 423.548 1062.24 436.932 1062.24 453.441L1081.52 453.441Z" fill="#393A3D"/>
<path d="M1112.46 345.336C1112.46 301.027 1076.54 265.107 1032.23 265.107C987.919 265.107 951.999 301.027 951.999 345.336L983.461 345.336C983.461 318.403 1005.29 296.569 1032.23 296.569C1059.16 296.569 1080.99 318.403 1080.99 345.336L1112.46 345.336Z" fill="#393A3D"/>
<path d="M1151.21 217.793C1151.21 152.148 1097.99 98.9322 1032.35 98.9322C966.701 98.9322 913.486 152.148 913.486 217.793L960.098 217.793C960.098 177.891 992.444 145.544 1032.35 145.544C1072.25 145.544 1104.59 177.891 1104.59 217.793L1151.21 217.793Z" fill="#393A3D"/>
</g>
<defs>
<clipPath id="clip0_1_1956">
<rect width="1184" height="666" fill="white" transform="translate(0.332031 0.78125)"/>
</clipPath>
</defs>
</svg>
