<svg width="1200" height="675" viewBox="0 0 1200 675" fill="none" xmlns="http://www.w3.org/2000/svg">
<g clip-path="url(#clip0_3_901)">
<rect width="1200" height="675" fill="#F4F4EF"/>
<rect x="432.836" y="-0.234375" width="754" height="668" fill="#E2D9FF"/>
<circle cx="165.356" cy="152.751" r="111.415" fill="#393A3D"/>
<circle cx="845.799" cy="593.023" r="26.9802" fill="#393A3D"/>
<circle cx="1050.91" cy="160.347" r="26.9802" fill="#393A3D"/>
<path d="M706.143 219.918C706.143 291.49 764.163 349.511 835.736 349.511C907.308 349.511 965.329 291.49 965.329 219.918H706.143Z" fill="#F54BAC"/>
<path d="M499.09 75.918C449.353 24.4508 367.311 23.0479 315.844 72.7846C264.377 122.521 262.974 204.563 312.711 256.031L499.09 75.918Z" fill="#B30078"/>
<path fill-rule="evenodd" clip-rule="evenodd" d="M676.084 583.133C754.915 583.133 818.821 519.228 818.821 440.397C818.821 361.565 754.915 297.66 676.084 297.66C597.253 297.66 533.348 361.565 533.348 440.397C533.348 519.228 597.253 583.133 676.084 583.133ZM676.084 527.158C724.001 527.158 762.845 488.314 762.845 440.397C762.845 392.48 724.001 353.635 676.084 353.635C628.167 353.635 589.323 392.48 589.323 440.397C589.323 488.314 628.167 527.158 676.084 527.158Z" fill="#B30078"/>
<path fill-rule="evenodd" clip-rule="evenodd" d="M1149.02 119.382C1203.2 119.382 1247.13 75.4562 1247.13 21.2711C1247.13 -32.914 1203.2 -76.8398 1149.02 -76.8398C1094.83 -76.8398 1050.91 -32.914 1050.91 21.2711C1050.91 75.4562 1094.83 119.382 1149.02 119.382ZM1149.02 80.9072C1181.96 80.9072 1208.66 54.2072 1208.66 21.2711C1208.66 -11.665 1181.96 -38.365 1149.02 -38.365C1116.08 -38.365 1089.38 -11.665 1089.38 21.2711C1089.38 54.2072 1116.08 80.9072 1149.02 80.9072Z" fill="#B30078"/>
<path fill-rule="evenodd" clip-rule="evenodd" d="M443.051 843.441C603.012 843.441 732.687 713.766 732.687 553.805C732.687 393.843 603.012 264.168 443.051 264.168C283.089 264.168 153.414 393.843 153.414 553.805C153.414 713.766 283.089 843.441 443.051 843.441ZM443.051 792.329C574.784 792.329 681.575 685.538 681.575 553.805C681.575 422.071 574.784 315.28 443.051 315.28C311.317 315.28 204.526 422.071 204.526 553.805C204.526 685.538 311.317 792.329 443.051 792.329Z" fill="#F54BAC"/>
<circle cx="835.733" cy="-71.9251" r="203.105" fill="#393A3D" stroke="#393A3D" stroke-width="4.36856"/>
<path d="M137.898 389.141C168.806 335.608 150.464 267.155 96.9309 236.248C43.3977 205.34 -25.0549 223.682 -55.9622 277.215L-17.9503 299.161C0.836521 266.621 42.4449 255.473 74.9847 274.259C107.524 293.046 118.673 334.655 99.8865 367.194L137.898 389.141Z" fill="#393A3D"/>
</g>
<defs>
<clipPath id="clip0_3_901">
<rect width="1200" height="675" fill="white"/>
</clipPath>
</defs>
</svg>
