<svg width="1200" height="675" viewBox="0 0 1200 675" fill="none" xmlns="http://www.w3.org/2000/svg">
<g clip-path="url(#clip0_3_887)">
<rect width="1200" height="675" fill="#E2D9FF"/>
<rect y="302.535" width="1187.17" height="365.246" fill="#F4F4EF"/>
<circle cx="326.411" cy="302.535" r="64.7591" transform="rotate(-45 326.411 302.535)" fill="#393A3D"/>
<path d="M326.41 196.008C296.994 166.591 249.3 166.591 219.884 196.008C190.468 225.424 190.468 273.118 219.884 302.534L326.41 196.008Z" fill="#F54BAC"/>
<path d="M326.41 409.062C355.827 438.479 403.52 438.479 432.936 409.062C462.353 379.646 462.353 331.953 432.936 302.536L326.41 409.062Z" fill="#F54BAC"/>
<path d="M219.883 302.535C190.466 331.952 190.466 379.645 219.883 409.061C249.299 438.478 296.993 438.478 326.409 409.061L219.883 302.535Z" fill="#F54BAC"/>
<path d="M432.934 302.535C462.35 273.119 462.35 225.425 432.934 196.009C403.517 166.593 355.824 166.593 326.407 196.009L432.934 302.535Z" fill="#F54BAC"/>
<path d="M565.793 302.535C565.793 358.154 610.881 403.241 666.499 403.241C722.118 403.241 767.205 358.154 767.205 302.535H727.713C727.713 336.343 700.307 363.749 666.499 363.749C632.692 363.749 605.286 336.343 605.286 302.535H565.793Z" fill="#393A3D"/>
<path d="M755.912 302.535C755.912 358.154 801 403.241 856.618 403.241C912.237 403.241 957.325 358.154 957.325 302.535H917.832C917.832 336.343 890.426 363.749 856.618 363.749C822.811 363.749 795.405 336.343 795.405 302.535H755.912Z" fill="#393A3D"/>
<path d="M946.033 302.535C946.033 358.154 991.121 403.241 1046.74 403.241C1102.36 403.241 1147.45 358.154 1147.45 302.535H1107.95C1107.95 336.343 1080.55 363.749 1046.74 363.749C1012.93 363.749 985.526 336.343 985.526 302.535H946.033Z" fill="#393A3D"/>
<path d="M686.781 302.535C686.781 246.917 641.693 201.829 586.075 201.829C530.456 201.829 485.369 246.917 485.369 302.535L524.861 302.535C524.861 268.728 552.268 241.322 586.075 241.322C619.882 241.322 647.289 268.728 647.289 302.535L686.781 302.535Z" fill="#393A3D"/>
<path d="M876.896 302.535C876.896 246.917 831.809 201.829 776.19 201.829C720.572 201.829 675.484 246.917 675.484 302.535L714.977 302.535C714.977 268.728 742.383 241.322 776.19 241.322C809.998 241.322 837.404 268.728 837.404 302.535L876.896 302.535Z" fill="#393A3D"/>
<path d="M1067.01 302.535C1067.01 246.917 1021.92 201.829 966.305 201.829C910.687 201.829 865.599 246.917 865.599 302.535L905.092 302.535C905.092 268.728 932.498 241.322 966.305 241.322C1000.11 241.322 1027.52 268.728 1027.52 302.535L1067.01 302.535Z" fill="#393A3D"/>
</g>
<defs>
<clipPath id="clip0_3_887">
<rect width="1200" height="675" fill="white"/>
</clipPath>
</defs>
</svg>
