<svg width="1184" height="667" viewBox="0 0 1184 667" fill="none" xmlns="http://www.w3.org/2000/svg">
<g clip-path="url(#clip0_1_1913)">
<rect width="1184" height="666" transform="translate(0 0.105469)" fill="#E2D9FF"/>
<rect x="615" y="0.105469" width="572" height="668" fill="#F4F4EF"/>
<path fill-rule="evenodd" clip-rule="evenodd" d="M333.748 486.953C323.735 478.749 313.012 478.748 302.991 486.954L300.332 464.32C312.084 454.696 324.661 454.695 336.408 464.319C336.408 464.319 336.408 464.319 336.408 464.319C336.408 464.32 336.409 464.32 336.409 464.32L349.411 474.964C359.432 483.17 370.155 483.17 380.168 474.965L380.169 474.964L393.173 464.32C393.173 464.32 393.173 464.32 393.173 464.32C404.925 454.696 417.502 454.695 429.248 464.319C429.249 464.32 429.249 464.32 429.25 464.32L442.252 474.964C452.273 483.17 462.996 483.17 473.009 474.965L473.01 474.964L486.013 464.32C486.014 464.32 486.013 464.32 486.013 464.32C497.766 454.696 510.343 454.695 522.089 464.319C522.089 464.32 522.09 464.32 522.09 464.32L535.093 474.964C545.114 483.17 555.837 483.17 565.85 474.965L565.851 474.964L578.854 464.32C578.854 464.32 578.854 464.32 578.854 464.32C590.607 454.696 603.184 454.695 614.931 464.32L612.27 486.953C602.257 478.749 591.535 478.748 581.513 486.954L568.511 497.598C568.51 497.598 568.51 497.599 568.509 497.599C556.763 507.223 544.186 507.222 532.434 497.599L519.43 486.954L519.429 486.953C509.416 478.749 498.694 478.748 488.673 486.954L475.67 497.598C475.669 497.598 475.669 497.599 475.669 497.599C463.923 507.223 451.346 507.222 439.593 497.599C439.593 497.599 439.594 497.599 439.593 497.599L426.589 486.953C416.576 478.749 405.853 478.748 395.832 486.954L382.829 497.598C382.829 497.598 382.828 497.599 382.828 497.599C371.082 507.223 358.505 507.222 346.753 497.599C346.753 497.599 346.753 497.599 346.753 497.599L333.748 486.953Z" fill="#393A3D"/>
<path fill-rule="evenodd" clip-rule="evenodd" d="M333.748 530.672C323.735 522.467 313.012 522.467 302.991 530.673L300.332 508.038C312.084 498.415 324.661 498.414 336.408 508.038C336.408 508.038 336.408 508.038 336.408 508.038C336.408 508.038 336.409 508.039 336.409 508.039L349.411 518.683C359.432 526.889 370.155 526.889 380.168 518.684L380.169 518.683L393.173 508.038C393.173 508.038 393.173 508.039 393.173 508.038C404.925 498.415 417.502 498.414 429.248 508.038C429.249 508.038 429.249 508.039 429.25 508.039L442.252 518.683C452.273 526.889 462.996 526.889 473.009 518.684L473.01 518.683L486.013 508.038C486.014 508.038 486.013 508.039 486.013 508.038C497.766 498.415 510.343 498.414 522.089 508.038C522.089 508.038 522.09 508.039 522.09 508.039L535.093 518.683C545.114 526.889 555.837 526.889 565.85 518.684L565.851 518.683L578.854 508.038C578.854 508.038 578.854 508.039 578.854 508.038C590.607 498.415 603.184 498.414 614.931 508.039L612.27 530.672C602.257 522.467 591.535 522.467 581.513 530.673L568.511 541.317C568.51 541.317 568.51 541.317 568.509 541.318C556.763 550.942 544.186 550.941 532.434 541.317L519.43 530.673L519.429 530.672C509.416 522.467 498.694 522.467 488.673 530.673L475.67 541.317C475.669 541.317 475.669 541.317 475.669 541.318C463.923 550.942 451.346 550.941 439.593 541.318C439.593 541.318 439.594 541.318 439.593 541.318L426.589 530.672C416.576 522.467 405.853 522.467 395.832 530.673L382.829 541.317C382.829 541.317 382.828 541.317 382.828 541.318C371.082 550.942 358.505 550.941 346.753 541.318C346.753 541.318 346.753 541.318 346.753 541.318L333.748 530.672Z" fill="#393A3D"/>
<path fill-rule="evenodd" clip-rule="evenodd" d="M333.748 574.391C323.735 566.186 313.012 566.185 302.991 574.391L300.332 551.757C312.084 542.134 324.661 542.133 336.408 551.757C336.408 551.757 336.408 551.757 336.408 551.757C336.408 551.757 336.409 551.758 336.409 551.758L349.411 562.402C359.432 570.608 370.155 570.607 380.168 562.403L380.169 562.402L393.173 551.757C393.173 551.757 393.173 551.757 393.173 551.757C404.925 542.134 417.502 542.133 429.248 551.757C429.249 551.757 429.249 551.758 429.25 551.758L442.252 562.402C452.273 570.608 462.996 570.607 473.009 562.403L473.01 562.402L486.013 551.757C486.014 551.757 486.013 551.757 486.013 551.757C497.766 542.134 510.343 542.133 522.089 551.757C522.089 551.757 522.09 551.758 522.09 551.758L535.093 562.402C545.114 570.608 555.837 570.607 565.85 562.403L565.851 562.402L578.854 551.757C578.854 551.757 578.854 551.757 578.854 551.757C590.607 542.134 603.184 542.133 614.931 551.758L612.27 574.391C602.257 566.186 591.535 566.185 581.513 574.391L568.511 585.035C568.51 585.036 568.51 585.036 568.509 585.036C556.763 594.661 544.186 594.66 532.434 585.036L519.43 574.392L519.429 574.391C509.416 566.186 498.694 566.185 488.673 574.391L475.67 585.035C475.669 585.036 475.669 585.036 475.669 585.036C463.923 594.661 451.346 594.66 439.593 585.036C439.593 585.036 439.594 585.037 439.593 585.036L426.589 574.391C416.576 566.186 405.853 566.185 395.832 574.391L382.829 585.035C382.829 585.036 382.828 585.036 382.828 585.036C371.082 594.661 358.505 594.66 346.753 585.036C346.753 585.036 346.753 585.037 346.753 585.036L333.748 574.391Z" fill="#393A3D"/>
<path fill-rule="evenodd" clip-rule="evenodd" d="M333.748 618.113C323.735 609.909 313.012 609.908 302.991 618.114L300.332 595.48C312.084 585.856 324.661 585.855 336.408 595.48C336.408 595.48 336.408 595.479 336.408 595.48C336.408 595.48 336.409 595.48 336.409 595.481L349.411 606.124C359.432 614.33 370.155 614.33 380.168 606.125L380.169 606.124L393.173 595.48C393.173 595.48 393.173 595.48 393.173 595.48C404.925 585.857 417.502 585.855 429.248 595.48C429.249 595.48 429.249 595.48 429.25 595.481L442.252 606.124C452.273 614.33 462.996 614.33 473.009 606.125L473.01 606.124L486.013 595.48C486.014 595.48 486.013 595.48 486.013 595.48C497.766 585.857 510.343 585.855 522.089 595.48C522.089 595.48 522.09 595.48 522.09 595.481L535.093 606.124C545.114 614.33 555.837 614.33 565.85 606.125L565.851 606.124L578.854 595.48C578.854 595.48 578.854 595.48 578.854 595.48C590.607 585.856 603.184 585.855 614.931 595.481L612.27 618.113C602.257 609.909 591.535 609.908 581.513 618.114L568.511 628.758C568.51 628.758 568.51 628.759 568.509 628.759C556.763 638.383 544.186 638.382 532.434 628.759L519.43 618.114L519.429 618.113C509.416 609.909 498.694 609.908 488.673 618.114L475.67 628.758C475.669 628.758 475.669 628.759 475.669 628.759C463.923 638.383 451.346 638.382 439.593 628.759C439.593 628.759 439.594 628.759 439.593 628.759L426.589 618.113C416.576 609.909 405.853 609.908 395.832 618.114L382.829 628.758C382.829 628.758 382.828 628.759 382.828 628.759C371.082 638.383 358.505 638.382 346.753 628.759C346.753 628.759 346.753 628.759 346.753 628.759L333.748 618.113Z" fill="#393A3D"/>
<path fill-rule="evenodd" clip-rule="evenodd" d="M333.748 661.832C323.735 653.627 313.012 653.627 302.991 661.833L300.332 639.199C312.084 629.575 324.661 629.574 336.408 639.198C336.408 639.198 336.408 639.198 336.408 639.198C336.408 639.199 336.409 639.199 336.409 639.199L349.411 649.843C359.432 658.049 370.155 658.049 380.168 649.844L380.169 649.843L393.173 639.199C393.173 639.199 393.173 639.199 393.173 639.199C404.925 629.575 417.502 629.574 429.248 639.198C429.249 639.199 429.249 639.199 429.25 639.199L442.252 649.843C452.273 658.049 462.996 658.049 473.009 649.844L473.01 649.843L486.013 639.199C486.014 639.199 486.013 639.199 486.013 639.199C497.766 629.575 510.343 629.574 522.089 639.198C522.089 639.199 522.09 639.199 522.09 639.199L535.093 649.843C545.114 658.049 555.837 658.049 565.85 649.844L565.851 649.843L578.854 639.199C578.854 639.199 578.854 639.199 578.854 639.199C590.607 629.575 603.184 629.574 614.931 639.199L612.27 661.832C602.257 653.627 591.535 653.627 581.513 661.833L568.511 672.477C568.51 672.477 568.51 672.478 568.509 672.478C556.763 682.102 544.186 682.101 532.434 672.478L519.43 661.833L519.429 661.832C509.416 653.627 498.694 653.627 488.673 661.833L475.67 672.477C475.669 672.477 475.669 672.478 475.669 672.478C463.923 682.102 451.346 682.101 439.593 672.478C439.593 672.478 439.594 672.478 439.593 672.478L426.589 661.832C416.576 653.627 405.853 653.627 395.832 661.833L382.829 672.477C382.829 672.477 382.828 672.478 382.828 672.478C371.082 682.102 358.505 682.101 346.753 672.478C346.753 672.478 346.753 672.478 346.753 672.478L333.748 661.832Z" fill="#393A3D"/>
<path fill-rule="evenodd" clip-rule="evenodd" d="M333.748 23.9571C323.735 15.7525 313.012 15.7518 302.991 23.9578L300.332 1.32364C312.084 -8.30002 324.661 -8.30104 336.408 1.3233C336.408 1.32337 336.408 1.32322 336.408 1.3233C336.408 1.32355 336.409 1.32404 336.409 1.3243L349.411 11.9681C359.432 20.174 370.155 20.1737 380.168 11.9691L380.169 11.9681L393.173 1.32364C393.173 1.32353 393.173 1.32375 393.173 1.32364C404.925 -8.29967 417.502 -8.30092 429.248 1.3233C429.249 1.32363 429.249 1.32396 429.25 1.3243L442.252 11.9681C452.273 20.174 462.996 20.1737 473.009 11.9691L473.01 11.9681L486.013 1.32364C486.014 1.32353 486.013 1.32375 486.013 1.32364C497.766 -8.29968 510.343 -8.30093 522.089 1.3233C522.089 1.32363 522.09 1.32397 522.09 1.3243L535.093 11.9681C545.114 20.174 555.837 20.1737 565.85 11.9691L565.851 11.9681L578.854 1.32364C578.854 1.32353 578.854 1.32375 578.854 1.32364C590.607 -8.30002 603.184 -8.30093 614.931 1.3243L612.27 23.9571C602.257 15.7525 591.535 15.7518 581.513 23.9578L568.511 34.6019C568.51 34.6022 568.51 34.6025 568.509 34.6029C556.763 44.2272 544.186 44.2262 532.434 34.6025L519.43 23.9581L519.429 23.9571C509.416 15.7525 498.694 15.7518 488.673 23.9578L475.67 34.6019C475.669 34.6022 475.669 34.6025 475.669 34.6029C463.923 44.2271 451.346 44.2262 439.593 34.6029C439.593 34.6028 439.594 34.603 439.593 34.6029L426.589 23.9571C416.576 15.7525 405.853 15.7518 395.832 23.9578L382.829 34.6019C382.829 34.6022 382.828 34.6025 382.828 34.6029C371.082 44.2271 358.505 44.2262 346.753 34.6029C346.753 34.6028 346.753 34.603 346.753 34.6029L333.748 23.9571Z" fill="#393A3D"/>
<path fill-rule="evenodd" clip-rule="evenodd" d="M333.748 67.6759C323.735 59.4712 313.012 59.4705 302.991 67.6765L300.332 45.0424C312.084 35.4187 324.661 35.4177 336.408 45.042C336.408 45.0421 336.408 45.042 336.408 45.042C336.408 45.0423 336.409 45.0428 336.409 45.043L349.411 55.6868C359.432 63.8928 370.155 63.8924 380.168 55.6878L380.169 55.6868L393.173 45.0424C393.173 45.0423 393.173 45.0425 393.173 45.0424C404.925 35.4191 417.502 35.4178 429.248 45.042C429.249 45.0424 429.249 45.0427 429.25 45.043L442.252 55.6868C452.273 63.8928 462.996 63.8924 473.009 55.6878L473.01 55.6868L486.013 45.0424C486.014 45.0423 486.013 45.0425 486.013 45.0424C497.766 35.4191 510.343 35.4178 522.089 45.042C522.089 45.0424 522.09 45.0427 522.09 45.043L535.093 55.6868C545.114 63.8928 555.837 63.8924 565.85 55.6878L565.851 55.6868L578.854 45.0424C578.854 45.0423 578.854 45.0425 578.854 45.0424C590.607 35.4187 603.184 35.4178 614.931 45.043L612.27 67.6759C602.257 59.4712 591.535 59.4705 581.513 67.6765L568.511 78.3206C568.51 78.321 568.51 78.3213 568.509 78.3216C556.763 87.946 544.186 87.9449 532.434 78.3213L519.43 67.6769L519.429 67.6759C509.416 59.4712 498.694 59.4705 488.673 67.6765L475.67 78.3206C475.669 78.321 475.669 78.3213 475.669 78.3216C463.923 87.9458 451.346 87.9449 439.593 78.3216C439.593 78.3215 439.594 78.3217 439.593 78.3216L426.589 67.6759C416.576 59.4712 405.853 59.4705 395.832 67.6765L382.829 78.3206C382.829 78.321 382.828 78.3213 382.828 78.3216C371.082 87.9458 358.505 87.9449 346.753 78.3216C346.753 78.3215 346.753 78.3217 346.753 78.3216L333.748 67.6759Z" fill="#393A3D"/>
<path fill-rule="evenodd" clip-rule="evenodd" d="M333.748 111.395C323.735 103.19 313.012 103.189 302.991 111.395L300.332 88.7611C312.084 79.1375 324.661 79.1365 336.408 88.7608C336.408 88.7609 336.408 88.7607 336.408 88.7608C336.408 88.7611 336.409 88.7615 336.409 88.7618L349.411 99.4056C359.432 107.612 370.155 107.611 380.168 99.4066L380.169 99.4056L393.173 88.7611C393.173 88.761 393.173 88.7613 393.173 88.7611C404.925 79.1378 417.502 79.1366 429.248 88.7608C429.249 88.7611 429.249 88.7615 429.25 88.7618L442.252 99.4056C452.273 107.612 462.996 107.611 473.009 99.4066L473.01 99.4056L486.013 88.7611C486.014 88.761 486.013 88.7613 486.013 88.7611C497.766 79.1378 510.343 79.1366 522.089 88.7608C522.089 88.7611 522.09 88.7615 522.09 88.7618L535.093 99.4056C545.114 107.612 555.837 107.611 565.85 99.4066L565.851 99.4056L578.854 88.7611C578.854 88.761 578.854 88.7613 578.854 88.7611C590.607 79.1375 603.184 79.1366 614.931 88.7618L612.27 111.395C602.257 103.19 591.535 103.189 581.513 111.395L568.511 122.039C568.51 122.04 568.51 122.04 568.509 122.04C556.763 131.665 544.186 131.664 532.434 122.04L519.43 111.396L519.429 111.395C509.416 103.19 498.694 103.189 488.673 111.395L475.67 122.039C475.669 122.04 475.669 122.04 475.669 122.04C463.923 131.665 451.346 131.664 439.593 122.04C439.593 122.04 439.594 122.04 439.593 122.04L426.589 111.395C416.576 103.19 405.853 103.189 395.832 111.395L382.829 122.039C382.829 122.04 382.828 122.04 382.828 122.04C371.082 131.665 358.505 131.664 346.753 122.04C346.753 122.04 346.753 122.04 346.753 122.04L333.748 111.395Z" fill="#393A3D"/>
<path fill-rule="evenodd" clip-rule="evenodd" d="M333.748 155.117C323.735 146.913 313.012 146.912 302.991 155.118L300.332 132.484C312.084 122.86 324.661 122.859 336.408 132.483C336.408 132.484 336.408 132.483 336.408 132.483C336.408 132.484 336.409 132.484 336.409 132.484L349.411 143.128C359.432 151.334 370.155 151.334 380.168 143.129L380.169 143.128L393.173 132.484C393.173 132.484 393.173 132.484 393.173 132.484C404.925 122.86 417.502 122.859 429.248 132.483C429.249 132.484 429.249 132.484 429.25 132.484L442.252 143.128C452.273 151.334 462.996 151.334 473.009 143.129L473.01 143.128L486.013 132.484C486.014 132.484 486.013 132.484 486.013 132.484C497.766 122.86 510.343 122.859 522.089 132.483C522.089 132.484 522.09 132.484 522.09 132.484L535.093 143.128C545.114 151.334 555.837 151.334 565.85 143.129L565.851 143.128L578.854 132.484C578.854 132.484 578.854 132.484 578.854 132.484C590.607 122.86 603.184 122.859 614.931 132.484L612.27 155.117C602.257 146.913 591.535 146.912 581.513 155.118L568.511 165.762C568.51 165.762 568.51 165.763 568.509 165.763C556.763 175.387 544.186 175.386 532.434 165.763L519.43 155.118L519.429 155.117C509.416 146.913 498.694 146.912 488.673 155.118L475.67 165.762C475.669 165.762 475.669 165.763 475.669 165.763C463.923 175.387 451.346 175.386 439.593 165.763C439.593 165.763 439.594 165.763 439.593 165.763L426.589 155.117C416.576 146.913 405.853 146.912 395.832 155.118L382.829 165.762C382.829 165.762 382.828 165.763 382.828 165.763C371.082 175.387 358.505 175.386 346.753 165.763C346.753 165.763 346.753 165.763 346.753 165.763L333.748 155.117Z" fill="#393A3D"/>
<path fill-rule="evenodd" clip-rule="evenodd" d="M333.748 198.836C323.735 190.631 313.012 190.631 302.991 198.837L300.332 176.203C312.084 166.579 324.661 166.578 336.408 176.202C336.408 176.202 336.408 176.202 336.408 176.202C336.408 176.202 336.409 176.203 336.409 176.203L349.411 186.847C359.432 195.053 370.155 195.053 380.168 186.848L380.169 186.847L393.173 176.203C393.173 176.202 393.173 176.203 393.173 176.203C404.925 166.579 417.502 166.578 429.248 176.202C429.249 176.203 429.249 176.203 429.25 176.203L442.252 186.847C452.273 195.053 462.996 195.053 473.009 186.848L473.01 186.847L486.013 176.203C486.014 176.202 486.013 176.203 486.013 176.203C497.766 166.579 510.343 166.578 522.089 176.202C522.089 176.203 522.09 176.203 522.09 176.203L535.093 186.847C545.114 195.053 555.837 195.053 565.85 186.848L565.851 186.847L578.854 176.203C578.854 176.202 578.854 176.203 578.854 176.203C590.607 166.579 603.184 166.578 614.931 176.203L612.27 198.836C602.257 190.631 591.535 190.631 581.513 198.837L568.511 209.481C568.51 209.481 568.51 209.481 568.509 209.482C556.763 219.106 544.186 219.105 532.434 209.481L519.43 198.837L519.429 198.836C509.416 190.631 498.694 190.631 488.673 198.837L475.67 209.481C475.669 209.481 475.669 209.481 475.669 209.482C463.923 219.106 451.346 219.105 439.593 209.482C439.593 209.482 439.594 209.482 439.593 209.482L426.589 198.836C416.576 190.631 405.853 190.631 395.832 198.837L382.829 209.481C382.829 209.481 382.828 209.481 382.828 209.482C371.082 219.106 358.505 219.105 346.753 209.482C346.753 209.482 346.753 209.482 346.753 209.482L333.748 198.836Z" fill="#393A3D"/>
<path fill-rule="evenodd" clip-rule="evenodd" d="M10.2439 261.789C0.231169 253.475 -10.4914 253.474 -20.5125 261.789L-23.1719 238.853C-11.4196 229.102 1.15752 229.1 12.9037 238.853C12.9038 238.853 12.9036 238.853 12.9037 238.853C12.904 238.853 12.9046 238.854 12.9049 238.854L25.9075 249.64C35.9285 257.955 46.6515 257.955 56.6643 249.641L56.6655 249.64L69.6688 238.853C69.6689 238.853 69.6687 238.854 69.6688 238.853C81.421 229.102 93.9983 229.101 105.744 238.853C105.745 238.853 105.745 238.854 105.746 238.854L118.748 249.64C128.769 257.955 139.492 257.955 149.505 249.641L149.506 249.64L162.509 238.853C162.51 238.853 162.509 238.854 162.509 238.853C174.262 229.102 186.839 229.101 198.585 238.853C198.585 238.853 198.586 238.854 198.586 238.854L211.589 249.64C221.61 257.955 232.333 257.955 242.346 249.641L242.347 249.64L255.35 238.853C255.35 238.853 255.35 238.854 255.35 238.853C267.103 229.102 279.681 229.101 291.427 238.854L288.766 261.789C278.753 253.475 268.031 253.474 258.01 261.789L245.007 272.575C245.006 272.576 245.006 272.576 245.005 272.576C233.259 282.329 220.682 282.328 208.93 272.576L195.926 261.79L195.925 261.789C185.913 253.475 175.19 253.474 165.169 261.789L152.166 272.575C152.166 272.576 152.165 272.576 152.165 272.576C140.419 282.329 127.842 282.328 116.09 272.576C116.089 272.576 116.09 272.577 116.09 272.576L103.085 261.789C93.0718 253.475 82.3492 253.474 72.3282 261.789L59.3253 272.575C59.3249 272.576 59.3245 272.576 59.3241 272.576C47.578 282.329 35.001 282.328 23.2489 272.576C23.2487 272.576 23.249 272.577 23.2489 272.576L10.2439 261.789Z" fill="#393A3D"/>
<path fill-rule="evenodd" clip-rule="evenodd" d="M10.2439 306.09C0.231169 297.775 -10.4914 297.775 -20.5125 306.09L-23.1719 283.154C-11.4196 273.402 1.15752 273.401 12.9037 283.154C12.9038 283.154 12.9036 283.154 12.9037 283.154C12.904 283.154 12.9046 283.155 12.9049 283.155L25.9075 293.941C35.9285 302.256 46.6515 302.256 56.6643 293.942L56.6655 293.941L69.6688 283.154C69.6689 283.154 69.6687 283.154 69.6688 283.154C81.421 273.403 93.9983 273.401 105.744 283.154C105.745 283.154 105.745 283.155 105.746 283.155L118.748 293.941C128.769 302.256 139.492 302.256 149.505 293.942L149.506 293.941L162.509 283.154C162.51 283.154 162.509 283.154 162.509 283.154C174.262 273.403 186.839 273.401 198.585 283.154C198.585 283.154 198.586 283.155 198.586 283.155L211.589 293.941C221.61 302.256 232.333 302.256 242.346 293.942L242.347 293.941L255.35 283.154C255.35 283.154 255.35 283.154 255.35 283.154C267.103 273.402 279.681 273.401 291.427 283.155L288.766 306.09C278.753 297.775 268.031 297.775 258.01 306.09L245.007 316.876C245.006 316.877 245.006 316.877 245.005 316.877C233.259 326.63 220.682 326.629 208.93 316.877L195.926 306.091L195.925 306.09C185.913 297.775 175.19 297.775 165.169 306.09L152.166 316.876C152.166 316.877 152.165 316.877 152.165 316.877C140.419 326.63 127.842 326.629 116.09 316.877C116.089 316.877 116.09 316.877 116.09 316.877L103.085 306.09C93.0718 297.775 82.3492 297.775 72.3282 306.09L59.3253 316.876C59.3249 316.877 59.3245 316.877 59.3241 316.877C47.578 326.63 35.001 326.629 23.2489 316.877C23.2487 316.877 23.249 316.877 23.2489 316.877L10.2439 306.09Z" fill="#393A3D"/>
<path fill-rule="evenodd" clip-rule="evenodd" d="M10.2439 350.394C0.231169 342.08 -10.4914 342.079 -20.5125 350.395L-23.1719 327.459C-11.4196 317.707 1.15752 317.706 12.9037 327.459C12.9038 327.459 12.9036 327.459 12.9037 327.459C12.904 327.459 12.9046 327.459 12.9049 327.46L25.9075 338.245C35.9285 346.561 46.6515 346.56 56.6643 338.246L56.6655 338.245L69.6688 327.459C69.6689 327.459 69.6687 327.459 69.6688 327.459C81.421 317.707 93.9983 317.706 105.744 327.459C105.745 327.459 105.745 327.459 105.746 327.46L118.748 338.245C128.769 346.561 139.492 346.56 149.505 338.246L149.506 338.245L162.509 327.459C162.51 327.459 162.509 327.459 162.509 327.459C174.262 317.707 186.839 317.706 198.585 327.459C198.585 327.459 198.586 327.459 198.586 327.46L211.589 338.245C221.61 346.561 232.333 346.56 242.346 338.246L242.347 338.245L255.35 327.459C255.35 327.459 255.35 327.459 255.35 327.459C267.103 317.707 279.681 317.706 291.427 327.46L288.766 350.394C278.753 342.08 268.031 342.079 258.01 350.395L245.007 361.181C245.006 361.181 245.006 361.182 245.005 361.182C233.259 370.935 220.682 370.934 208.93 361.182L195.926 350.395L195.925 350.394C185.913 342.08 175.19 342.079 165.169 350.395L152.166 361.181C152.166 361.181 152.165 361.182 152.165 361.182C140.419 370.934 127.842 370.934 116.09 361.182C116.089 361.182 116.09 361.182 116.09 361.182L103.085 350.394C93.0718 342.08 82.3492 342.079 72.3282 350.395L59.3253 361.181C59.3249 361.181 59.3245 361.182 59.3241 361.182C47.578 370.934 35.001 370.934 23.2489 361.182C23.2487 361.182 23.249 361.182 23.2489 361.182L10.2439 350.394Z" fill="#393A3D"/>
<path fill-rule="evenodd" clip-rule="evenodd" d="M10.2439 394.695C0.231169 386.381 -10.4914 386.38 -20.5125 394.696L-23.1719 371.76C-11.4196 362.008 1.15752 362.007 12.9037 371.759C12.9038 371.759 12.9036 371.759 12.9037 371.759C12.904 371.76 12.9046 371.76 12.9049 371.76L25.9075 382.546C35.9285 390.861 46.6515 390.861 56.6643 382.547L56.6655 382.546L69.6688 371.76C69.6689 371.76 69.6687 371.76 69.6688 371.76C81.421 362.008 93.9983 362.007 105.744 371.759C105.745 371.76 105.745 371.76 105.746 371.76L118.748 382.546C128.769 390.861 139.492 390.861 149.505 382.547L149.506 382.546L162.509 371.76C162.51 371.76 162.509 371.76 162.509 371.76C174.262 362.008 186.839 362.007 198.585 371.759C198.585 371.76 198.586 371.76 198.586 371.76L211.589 382.546C221.61 390.861 232.333 390.861 242.346 382.547L242.347 382.546L255.35 371.76C255.35 371.76 255.35 371.76 255.35 371.76C267.103 362.008 279.681 362.007 291.427 371.76L288.766 394.695C278.753 386.381 268.031 386.38 258.01 394.696L245.007 405.482C245.006 405.482 245.006 405.482 245.005 405.483C233.259 415.235 220.682 415.234 208.93 405.482L195.926 394.696L195.925 394.695C185.913 386.381 175.19 386.38 165.169 394.696L152.166 405.482C152.166 405.482 152.165 405.482 152.165 405.483C140.419 415.235 127.842 415.234 116.09 405.483C116.089 405.483 116.09 405.483 116.09 405.483L103.085 394.695C93.0718 386.381 82.3492 386.38 72.3282 394.696L59.3253 405.482C59.3249 405.482 59.3245 405.482 59.3241 405.483C47.578 415.235 35.001 415.234 23.2489 405.483C23.2487 405.483 23.249 405.483 23.2489 405.483L10.2439 394.695Z" fill="#393A3D"/>
<path fill-rule="evenodd" clip-rule="evenodd" d="M10.2439 439C0.231169 430.686 -10.4914 430.685 -20.5125 439L-23.1719 416.064C-11.4196 406.312 1.15752 406.311 12.9037 416.064C12.9038 416.064 12.9036 416.064 12.9037 416.064C12.904 416.064 12.9046 416.065 12.9049 416.065L25.9075 426.851C35.9285 435.166 46.6515 435.166 56.6643 426.852L56.6655 426.851L69.6688 416.064C69.6689 416.064 69.6687 416.065 69.6688 416.064C81.421 406.313 93.9983 406.312 105.744 416.064C105.745 416.064 105.745 416.065 105.746 416.065L118.748 426.851C128.769 435.166 139.492 435.166 149.505 426.852L149.506 426.851L162.509 416.064C162.51 416.064 162.509 416.065 162.509 416.064C174.262 406.313 186.839 406.312 198.585 416.064C198.585 416.064 198.586 416.065 198.586 416.065L211.589 426.851C221.61 435.166 232.333 435.166 242.346 426.852L242.347 426.851L255.35 416.064C255.35 416.064 255.35 416.065 255.35 416.064C267.103 406.312 279.681 406.312 291.427 416.065L288.766 439C278.753 430.686 268.031 430.685 258.01 439L245.007 449.786C245.006 449.787 245.006 449.787 245.005 449.787C233.259 459.54 220.682 459.539 208.93 449.787L195.926 439.001L195.925 439C185.913 430.686 175.19 430.685 165.169 439L152.166 449.786C152.166 449.787 152.165 449.787 152.165 449.787C140.419 459.54 127.842 459.539 116.09 449.787C116.089 449.787 116.09 449.787 116.09 449.787L103.085 439C93.0718 430.686 82.3492 430.685 72.3282 439L59.3253 449.786C59.3249 449.787 59.3245 449.787 59.3241 449.787C47.578 459.54 35.001 459.539 23.2489 449.787C23.2487 449.787 23.249 449.787 23.2489 449.787L10.2439 439Z" fill="#393A3D"/>
<path d="M52.9453 138.711C90.3934 176.159 151.109 176.159 188.557 138.711C226.005 101.263 226.005 40.5475 188.557 3.09942L52.9453 138.711Z" fill="#F54BAC"/>
<path d="M52.9453 631.5C90.3934 668.948 151.109 668.948 188.557 631.5C226.005 594.052 226.005 533.337 188.557 495.888L52.9453 631.5Z" fill="#F54BAC"/>
<path d="M801.5 132.105C706.783 226.822 706.783 380.389 801.5 475.106C896.217 569.822 1049.78 569.822 1144.5 475.106L801.5 132.105Z" fill="#F54BAC"/>
<path d="M369.531 387.539C406.979 424.987 467.695 424.987 505.143 387.539C542.591 350.091 542.591 289.376 505.143 251.928L369.531 387.539Z" fill="#B30078"/>
</g>
<defs>
<clipPath id="clip0_1_1913">
<rect width="1184" height="666" fill="white" transform="translate(0 0.105469)"/>
</clipPath>
</defs>
</svg>
