<svg width="1200" height="675" viewBox="0 0 1200 675" fill="none" xmlns="http://www.w3.org/2000/svg">
<g clip-path="url(#clip0_3_622)">
<rect width="1200" height="675" fill="#F4F4EF"/>
<rect x="-0.164062" y="0.324219" width="681" height="668" fill="#E2D9FF"/>
<path d="M116.535 292.5C159.302 292.5 193.972 257.831 193.972 215.064C193.972 172.297 159.302 137.627 116.535 137.627L116.535 292.5Z" fill="#F54BAC"/>
<path d="M311.352 292.5C354.118 292.5 388.788 257.831 388.788 215.064C388.788 172.297 354.118 137.627 311.352 137.627L311.352 292.5Z" fill="#F54BAC"/>
<path d="M506.156 292.5C548.923 292.5 583.593 257.831 583.593 215.064C583.593 172.297 548.923 137.627 506.156 137.627L506.156 292.5Z" fill="#F54BAC"/>
<path d="M700.971 292.5C743.738 292.5 778.407 257.831 778.407 215.064C778.407 172.297 743.738 137.627 700.971 137.627L700.971 292.5Z" fill="#F54BAC"/>
<path d="M895.787 292.5C938.554 292.5 973.224 257.831 973.224 215.064C973.224 172.297 938.554 137.627 895.787 137.627L895.787 292.5Z" fill="#F54BAC"/>
<path d="M1090.59 292.5C1133.36 292.5 1168.03 257.831 1168.03 215.064C1168.03 172.297 1133.36 137.627 1090.59 137.627L1090.59 292.5Z" fill="#F54BAC"/>
<path d="M96.5742 42.0039C53.8073 42.0039 19.1378 76.6734 19.1378 119.44C19.1378 162.207 53.8073 196.877 96.5742 196.877L96.5742 42.0039Z" fill="#F54BAC"/>
<path d="M291.375 42.0039C248.608 42.0039 213.939 76.6734 213.939 119.44C213.939 162.207 248.608 196.877 291.375 196.877L291.375 42.0039Z" fill="#F54BAC"/>
<path d="M486.191 42.0039C443.424 42.0039 408.755 76.6734 408.755 119.44C408.755 162.207 443.425 196.877 486.191 196.877L486.191 42.0039Z" fill="#F54BAC"/>
<path d="M681.008 42.0039C638.241 42.0039 603.571 76.6734 603.571 119.44C603.571 162.207 638.241 196.877 681.008 196.877L681.008 42.0039Z" fill="#F54BAC"/>
<path d="M875.812 42.0039C833.046 42.0039 798.376 76.6734 798.376 119.44C798.376 162.207 833.046 196.877 875.813 196.877L875.812 42.0039Z" fill="#F54BAC"/>
<path d="M1070.63 42.0039C1027.86 42.0039 993.191 76.6734 993.191 119.44C993.191 162.207 1027.86 196.877 1070.63 196.877L1070.63 42.0039Z" fill="#F54BAC"/>
<path d="M1187.17 284.164V667.843H803.486L1187.17 284.164Z" fill="#393A3D"/>
<circle cx="541.689" cy="495.666" r="19.6585" transform="rotate(180 541.689 495.666)" fill="#B30078"/>
<circle cx="480.529" cy="495.666" r="19.6585" transform="rotate(180 480.529 495.666)" fill="#B30078"/>
<circle cx="419.365" cy="495.666" r="19.6585" transform="rotate(180 419.365 495.666)" fill="#B30078"/>
<circle cx="358.213" cy="495.666" r="19.6585" transform="rotate(180 358.213 495.666)" fill="#B30078"/>
<circle cx="297.052" cy="495.666" r="19.6585" transform="rotate(180 297.052 495.666)" fill="#B30078"/>
<circle cx="235.888" cy="495.666" r="19.6585" transform="rotate(180 235.888 495.666)" fill="#B30078"/>
</g>
<defs>
<clipPath id="clip0_3_622">
<rect width="1200" height="675" fill="white"/>
</clipPath>
</defs>
</svg>
