<svg width="1184" height="667" viewBox="0 0 1184 667" fill="none" xmlns="http://www.w3.org/2000/svg">
<g clip-path="url(#clip0_1_1509)">
<rect width="1184" height="666" transform="translate(0 0.5625)" fill="#E2D9FF"/>
<rect x="513.289" y="0.5625" width="443.66" height="667.781" fill="#F4F4EF"/>
<rect x="513.289" y="0.5625" width="443.66" height="667.781" fill="#F4F4EF"/>
<rect x="1104.24" y="0.5625" width="443.66" height="667.781" fill="#F4F4EF"/>
<circle cx="165.36" cy="153.317" r="111.415" fill="#393A3D"/>
<path d="M593.258 220.48C593.258 292.053 651.279 350.074 722.851 350.074C794.424 350.074 852.445 292.053 852.445 220.48H593.258Z" fill="#F54BAC"/>
<path d="M662.941 220.48C662.941 148.908 604.92 90.8871 533.348 90.8871C461.776 90.8871 403.755 148.908 403.755 220.48L662.941 220.48Z" fill="#F54BAC"/>
<rect x="78.2734" y="297.293" width="174.175" height="22.7589" fill="#B30078"/>
<rect x="78.2734" y="342.812" width="174.175" height="22.7589" fill="#B30078"/>
<rect x="78.2734" y="388.328" width="174.175" height="22.7589" fill="#B30078"/>
<rect x="78.2734" y="433.848" width="174.175" height="22.7589" fill="#B30078"/>
<rect x="78.2734" y="479.363" width="174.175" height="22.7589" fill="#B30078"/>
<rect x="78.2734" y="524.883" width="174.175" height="22.7589" fill="#B30078"/>
<rect x="78.2734" y="570.398" width="174.175" height="22.7589" fill="#B30078"/>
<rect x="78.2734" y="615.918" width="174.175" height="22.7589" fill="#B30078"/>
<rect x="706.137" y="195.582" width="334.424" height="20.901" transform="rotate(-90 706.137 195.582)" fill="#B30078"/>
<rect x="747.941" y="195.582" width="334.424" height="20.901" transform="rotate(-90 747.941 195.582)" fill="#B30078"/>
<rect x="789.742" y="195.582" width="334.424" height="20.901" transform="rotate(-90 789.742 195.582)" fill="#B30078"/>
<rect x="831.543" y="195.582" width="334.424" height="20.901" transform="rotate(-90 831.543 195.582)" fill="#B30078"/>
<rect x="873.344" y="195.582" width="334.424" height="20.901" transform="rotate(-90 873.344 195.582)" fill="#B30078"/>
<rect x="915.148" y="195.582" width="334.424" height="20.901" transform="rotate(-90 915.148 195.582)" fill="#B30078"/>
<rect x="956.949" y="195.582" width="334.424" height="20.901" transform="rotate(-90 956.949 195.582)" fill="#B30078"/>
<rect x="998.75" y="195.582" width="334.424" height="20.901" transform="rotate(-90 998.75 195.582)" fill="#B30078"/>
</g>
<defs>
<clipPath id="clip0_1_1509">
<rect width="1184" height="666" fill="white" transform="translate(0 0.5625)"/>
</clipPath>
</defs>
</svg>
