<svg width="1200" height="675" viewBox="0 0 1200 675" fill="none" xmlns="http://www.w3.org/2000/svg">
<g clip-path="url(#clip0_3_499)">
<rect width="1200" height="675" fill="#E2D9FF"/>
<circle cx="146.255" cy="182.958" r="111.415" fill="#393A3D"/>
<path fill-rule="evenodd" clip-rule="evenodd" d="M93.8814 383.904C75.5417 372.843 55.9026 372.843 37.5493 383.904L35.2148 369.281C55.0878 357.303 76.3548 357.302 96.2162 369.28C96.2165 369.281 96.2158 369.28 96.2162 369.28L119.046 383.036C137.399 394.097 157.039 394.097 175.378 383.036L198.209 369.281C198.209 369.28 198.209 369.281 198.209 369.281C218.082 357.303 239.349 357.302 259.21 369.28C259.211 369.281 259.21 369.28 259.21 369.28L282.04 383.036C300.393 394.097 320.033 394.097 338.372 383.036L361.203 369.281C361.203 369.28 361.203 369.281 361.203 369.281C381.076 357.303 402.343 357.302 422.204 369.28C422.205 369.281 422.204 369.28 422.204 369.28L445.034 383.036C463.387 394.097 483.027 394.097 501.366 383.036L524.197 369.281C544.07 357.302 565.338 357.302 585.199 369.281L582.863 383.904C564.524 372.843 544.885 372.843 526.531 383.904L503.702 397.659C503.702 397.659 503.703 397.659 503.702 397.659C483.841 409.638 462.573 409.638 442.7 397.66L419.87 383.905C401.531 372.844 381.891 372.843 363.537 383.904L340.708 397.659C320.847 409.638 299.579 409.638 279.706 397.66C279.706 397.66 279.706 397.66 279.706 397.66L256.876 383.905C238.537 372.844 218.897 372.843 200.543 383.904L177.714 397.659C157.853 409.638 136.585 409.638 116.712 397.66C116.712 397.66 116.712 397.66 116.712 397.66L93.8814 383.904Z" fill="#F54BAC"/>
<path fill-rule="evenodd" clip-rule="evenodd" d="M93.8814 440.4C75.5417 429.339 55.9026 429.339 37.5493 440.401L35.2148 425.777C55.0878 413.799 76.3548 413.798 96.2162 425.776C96.2165 425.777 96.2158 425.776 96.2162 425.776L119.046 439.532C137.399 450.594 157.039 450.593 175.378 439.532L198.209 425.777C198.209 425.777 198.209 425.777 198.209 425.777C218.082 413.799 239.349 413.798 259.21 425.776C259.211 425.777 259.21 425.776 259.21 425.776L282.04 439.532C300.393 450.594 320.033 450.593 338.372 439.532L361.203 425.777C361.203 425.777 361.203 425.777 361.203 425.777C381.076 413.799 402.343 413.798 422.204 425.776C422.205 425.777 422.204 425.776 422.204 425.776L445.034 439.532C463.387 450.594 483.027 450.593 501.366 439.532L524.197 425.777C544.07 413.799 565.338 413.798 585.199 425.777L582.863 440.4C564.524 429.339 544.885 429.339 526.531 440.401L503.702 454.155C503.702 454.156 503.703 454.155 503.702 454.155C483.841 466.134 462.573 466.134 442.7 454.156L419.87 440.401C401.531 429.34 381.891 429.339 363.537 440.401L340.708 454.155C320.847 466.134 299.579 466.134 279.706 454.156C279.706 454.156 279.706 454.156 279.706 454.156L256.876 440.401C238.537 429.34 218.897 429.339 200.543 440.401L177.714 454.155C157.853 466.134 136.585 466.134 116.712 454.156C116.712 454.156 116.712 454.156 116.712 454.156L93.8814 440.4Z" fill="#F54BAC"/>
<path fill-rule="evenodd" clip-rule="evenodd" d="M93.8814 496.892C75.5417 485.831 55.9026 485.831 37.5493 496.893L35.2148 482.269C55.0878 470.291 76.3548 470.29 96.2162 482.269C96.2165 482.269 96.2158 482.268 96.2162 482.269L119.046 496.024C137.399 507.086 157.039 507.085 175.378 496.024L198.209 482.269C198.209 482.269 198.209 482.269 198.209 482.269C218.082 470.291 239.349 470.29 259.21 482.269C259.211 482.269 259.21 482.268 259.21 482.269L282.04 496.024C300.393 507.086 320.033 507.085 338.372 496.024L361.203 482.269C361.203 482.269 361.203 482.269 361.203 482.269C381.076 470.291 402.343 470.29 422.204 482.269C422.205 482.269 422.204 482.268 422.204 482.269L445.034 496.024C463.387 507.086 483.027 507.085 501.366 496.024L524.197 482.269C544.07 470.291 565.338 470.29 585.199 482.269L582.863 496.892C564.524 485.831 544.885 485.831 526.531 496.893L503.702 510.648C503.702 510.648 503.703 510.647 503.702 510.648C483.841 522.626 462.573 522.626 442.7 510.648L419.87 496.893C401.531 485.832 381.891 485.831 363.537 496.893L340.708 510.648C320.847 522.626 299.579 522.626 279.706 510.648C279.706 510.648 279.706 510.648 279.706 510.648L256.876 496.893C238.537 485.832 218.897 485.831 200.543 496.893L177.714 510.648C157.853 522.626 136.585 522.626 116.712 510.648C116.712 510.648 116.712 510.648 116.712 510.648L93.8814 496.892Z" fill="#F54BAC"/>
<path fill-rule="evenodd" clip-rule="evenodd" d="M93.8814 553.388C75.5417 542.327 55.9026 542.327 37.5493 553.389L35.2148 538.765C55.0878 526.787 76.3548 526.786 96.2162 538.765C96.2165 538.765 96.2158 538.764 96.2162 538.765L119.046 552.52C137.399 563.582 157.039 563.582 175.378 552.521L198.209 538.765C198.209 538.765 198.209 538.765 198.209 538.765C218.082 526.787 239.349 526.786 259.21 538.765C259.211 538.765 259.21 538.764 259.21 538.765L282.04 552.52C300.393 563.582 320.033 563.582 338.372 552.521L361.203 538.765C361.203 538.765 361.203 538.765 361.203 538.765C381.076 526.787 402.343 526.786 422.204 538.765C422.205 538.765 422.204 538.764 422.204 538.765L445.034 552.52C463.387 563.582 483.027 563.582 501.366 552.521L524.197 538.765C544.07 526.787 565.338 526.786 585.199 538.765L582.863 553.388C564.524 542.327 544.885 542.327 526.531 553.389L503.702 567.144C503.702 567.144 503.703 567.143 503.702 567.144C483.841 579.122 462.573 579.122 442.7 567.144L419.87 553.389C401.531 542.328 381.891 542.327 363.537 553.389L340.708 567.144C320.847 579.123 299.579 579.122 279.706 567.144C279.706 567.144 279.706 567.144 279.706 567.144L256.876 553.389C238.537 542.328 218.897 542.327 200.543 553.389L177.714 567.144C157.853 579.123 136.585 579.122 116.712 567.144C116.712 567.144 116.712 567.144 116.712 567.144L93.8814 553.388Z" fill="#F54BAC"/>
<path fill-rule="evenodd" clip-rule="evenodd" d="M93.8814 609.881C75.5417 598.82 55.9026 598.819 37.5493 609.881L35.2148 595.257C55.0878 583.279 76.3548 583.279 96.2162 595.257C96.2165 595.257 96.2158 595.257 96.2162 595.257L119.046 609.012C137.399 620.074 157.039 620.074 175.378 609.013L198.209 595.257C198.209 595.257 198.209 595.257 198.209 595.257C218.082 583.279 239.349 583.279 259.21 595.257C259.211 595.257 259.21 595.257 259.21 595.257L282.04 609.012C300.393 620.074 320.033 620.074 338.372 609.013L361.203 595.257C361.203 595.257 361.203 595.257 361.203 595.257C381.076 583.279 402.343 583.279 422.204 595.257C422.205 595.257 422.204 595.257 422.204 595.257L445.034 609.012C463.387 620.074 483.027 620.074 501.366 609.013L524.197 595.257C544.07 583.279 565.338 583.279 585.199 595.258L582.863 609.881C564.524 598.82 544.885 598.819 526.531 609.881L503.702 623.636C503.702 623.636 503.703 623.636 503.702 623.636C483.841 635.614 462.573 635.614 442.7 623.636L419.87 609.881C401.531 598.82 381.891 598.819 363.537 609.881L340.708 623.636C320.847 635.615 299.579 635.614 279.706 623.636C279.706 623.636 279.706 623.637 279.706 623.636L256.876 609.881C238.537 598.82 218.897 598.819 200.543 609.881L177.714 623.636C157.853 635.615 136.585 635.614 116.712 623.636C116.712 623.636 116.712 623.637 116.712 623.636L93.8814 609.881Z" fill="#F54BAC"/>
<rect x="613.291" y="0.601562" width="573.88" height="667.178" fill="#F4F4EF"/>
<rect x="931.705" y="0.601562" width="255.467" height="365.067" fill="#F54BAC"/>
<rect x="779.072" y="146.555" width="153.333" height="219.116" fill="#F54BAC"/>
<rect x="613.291" y="428.047" width="262.707" height="375.414" fill="#F54BAC"/>
<rect x="350.586" y="-41.5234" width="262.707" height="333.879" fill="#F54BAC"/>
<circle cx="19.1597" cy="19.1597" r="19.1597" transform="matrix(1 0 0 -1 635.777 45.0312)" fill="#B30078"/>
<circle cx="19.1597" cy="19.1597" r="19.1597" transform="matrix(1 0 0 -1 697.842 45.0312)" fill="#B30078"/>
<circle cx="19.1597" cy="19.1597" r="19.1597" transform="matrix(1 0 0 -1 759.908 45.0312)" fill="#B30078"/>
<circle cx="19.1597" cy="19.1597" r="19.1597" transform="matrix(1 0 0 -1 821.973 45.0312)" fill="#B30078"/>
<circle cx="19.1597" cy="19.1597" r="19.1597" transform="matrix(1 0 0 -1 1008.17 45.0312)" fill="#B30078"/>
<circle cx="19.1597" cy="19.1597" r="19.1597" transform="matrix(1 0 0 -1 884.039 45.0312)" fill="#B30078"/>
<circle cx="19.1597" cy="19.1597" r="19.1597" transform="matrix(1 0 0 -1 1070.23 45.0312)" fill="#B30078"/>
<circle cx="19.1597" cy="19.1597" r="19.1597" transform="matrix(1 0 0 -1 946.104 45.0312)" fill="#B30078"/>
<circle cx="19.1597" cy="19.1597" r="19.1597" transform="matrix(1 0 0 -1 1132.3 45.0312)" fill="#B30078"/>
<circle cx="19.1597" cy="19.1597" r="19.1597" transform="matrix(1 0 0 -1 635.777 106.863)" fill="#B30078"/>
<circle cx="19.1597" cy="19.1597" r="19.1597" transform="matrix(1 0 0 -1 697.842 106.863)" fill="#B30078"/>
<circle cx="19.1597" cy="19.1597" r="19.1597" transform="matrix(1 0 0 -1 759.908 106.863)" fill="#B30078"/>
<circle cx="19.1597" cy="19.1597" r="19.1597" transform="matrix(1 0 0 -1 821.973 106.863)" fill="#B30078"/>
<circle cx="19.1597" cy="19.1597" r="19.1597" transform="matrix(1 0 0 -1 1008.17 106.863)" fill="#B30078"/>
<circle cx="19.1597" cy="19.1597" r="19.1597" transform="matrix(1 0 0 -1 884.039 106.863)" fill="#B30078"/>
<circle cx="19.1597" cy="19.1597" r="19.1597" transform="matrix(1 0 0 -1 1070.23 106.863)" fill="#B30078"/>
<circle cx="19.1597" cy="19.1597" r="19.1597" transform="matrix(1 0 0 -1 946.104 106.863)" fill="#B30078"/>
<circle cx="19.1597" cy="19.1597" r="19.1597" transform="matrix(1 0 0 -1 1132.3 106.863)" fill="#B30078"/>
<circle cx="19.1597" cy="19.1597" r="19.1597" transform="matrix(1 0 0 -1 635.777 168.695)" fill="#B30078"/>
<circle cx="19.1597" cy="19.1597" r="19.1597" transform="matrix(1 0 0 -1 697.842 168.695)" fill="#B30078"/>
<circle cx="19.1597" cy="19.1597" r="19.1597" transform="matrix(1 0 0 -1 759.908 168.695)" fill="#B30078"/>
<circle cx="19.1597" cy="19.1597" r="19.1597" transform="matrix(1 0 0 -1 821.973 168.695)" fill="#B30078"/>
<circle cx="19.1597" cy="19.1597" r="19.1597" transform="matrix(1 0 0 -1 1008.17 168.695)" fill="#B30078"/>
<circle cx="19.1597" cy="19.1597" r="19.1597" transform="matrix(1 0 0 -1 884.039 168.695)" fill="#B30078"/>
<circle cx="19.1597" cy="19.1597" r="19.1597" transform="matrix(1 0 0 -1 1070.23 168.695)" fill="#B30078"/>
<circle cx="19.1597" cy="19.1597" r="19.1597" transform="matrix(1 0 0 -1 946.104 168.695)" fill="#B30078"/>
<circle cx="19.1597" cy="19.1597" r="19.1597" transform="matrix(1 0 0 -1 1132.3 168.695)" fill="#B30078"/>
<circle cx="19.1597" cy="19.1597" r="19.1597" transform="matrix(1 0 0 -1 635.777 230.523)" fill="#B30078"/>
<circle cx="19.1597" cy="19.1597" r="19.1597" transform="matrix(1 0 0 -1 697.842 230.523)" fill="#B30078"/>
<circle cx="19.1597" cy="19.1597" r="19.1597" transform="matrix(1 0 0 -1 759.908 230.523)" fill="#B30078"/>
<circle cx="19.1597" cy="19.1597" r="19.1597" transform="matrix(1 0 0 -1 821.973 230.523)" fill="#B30078"/>
<circle cx="19.1597" cy="19.1597" r="19.1597" transform="matrix(1 0 0 -1 1008.17 230.523)" fill="#B30078"/>
<circle cx="19.1597" cy="19.1597" r="19.1597" transform="matrix(1 0 0 -1 884.039 230.523)" fill="#B30078"/>
<circle cx="19.1597" cy="19.1597" r="19.1597" transform="matrix(1 0 0 -1 1070.23 230.523)" fill="#B30078"/>
<circle cx="19.1597" cy="19.1597" r="19.1597" transform="matrix(1 0 0 -1 946.104 230.523)" fill="#B30078"/>
<circle cx="19.1597" cy="19.1597" r="19.1597" transform="matrix(1 0 0 -1 1132.3 230.523)" fill="#B30078"/>
<circle cx="19.1597" cy="19.1597" r="19.1597" transform="matrix(1 0 0 -1 635.777 292.355)" fill="#B30078"/>
<circle cx="19.1597" cy="19.1597" r="19.1597" transform="matrix(1 0 0 -1 697.842 292.355)" fill="#B30078"/>
<circle cx="19.1597" cy="19.1597" r="19.1597" transform="matrix(1 0 0 -1 759.908 292.355)" fill="#B30078"/>
<circle cx="19.1597" cy="19.1597" r="19.1597" transform="matrix(1 0 0 -1 821.973 292.355)" fill="#B30078"/>
<circle cx="19.1597" cy="19.1597" r="19.1597" transform="matrix(1 0 0 -1 1008.17 292.355)" fill="#B30078"/>
<circle cx="19.1597" cy="19.1597" r="19.1597" transform="matrix(1 0 0 -1 884.039 292.355)" fill="#B30078"/>
<circle cx="19.1597" cy="19.1597" r="19.1597" transform="matrix(1 0 0 -1 1070.23 292.355)" fill="#B30078"/>
<circle cx="19.1597" cy="19.1597" r="19.1597" transform="matrix(1 0 0 -1 946.104 292.355)" fill="#B30078"/>
<circle cx="19.1597" cy="19.1597" r="19.1597" transform="matrix(1 0 0 -1 1132.3 292.355)" fill="#B30078"/>
<circle cx="19.1597" cy="19.1597" r="19.1597" transform="matrix(1 0 0 -1 635.777 354.188)" fill="#B30078"/>
<circle cx="19.1597" cy="19.1597" r="19.1597" transform="matrix(1 0 0 -1 697.842 354.188)" fill="#B30078"/>
<circle cx="19.1597" cy="19.1597" r="19.1597" transform="matrix(1 0 0 -1 759.908 354.188)" fill="#B30078"/>
<circle cx="19.1597" cy="19.1597" r="19.1597" transform="matrix(1 0 0 -1 821.973 354.188)" fill="#B30078"/>
<circle cx="19.1597" cy="19.1597" r="19.1597" transform="matrix(1 0 0 -1 1008.17 354.188)" fill="#B30078"/>
<circle cx="19.1597" cy="19.1597" r="19.1597" transform="matrix(1 0 0 -1 884.039 354.188)" fill="#B30078"/>
<circle cx="19.1597" cy="19.1597" r="19.1597" transform="matrix(1 0 0 -1 1070.23 354.188)" fill="#B30078"/>
<circle cx="19.1597" cy="19.1597" r="19.1597" transform="matrix(1 0 0 -1 946.104 354.188)" fill="#B30078"/>
<circle cx="19.1597" cy="19.1597" r="19.1597" transform="matrix(1 0 0 -1 1132.3 354.188)" fill="#B30078"/>
<circle cx="19.1597" cy="19.1597" r="19.1597" transform="matrix(1 0 0 -1 635.777 416.02)" fill="#B30078"/>
<circle cx="19.1597" cy="19.1597" r="19.1597" transform="matrix(1 0 0 -1 697.842 416.02)" fill="#B30078"/>
<circle cx="19.1597" cy="19.1597" r="19.1597" transform="matrix(1 0 0 -1 759.908 416.02)" fill="#B30078"/>
<circle cx="19.1597" cy="19.1597" r="19.1597" transform="matrix(1 0 0 -1 821.973 416.02)" fill="#B30078"/>
<circle cx="19.1597" cy="19.1597" r="19.1597" transform="matrix(1 0 0 -1 1008.17 416.02)" fill="#B30078"/>
<circle cx="19.1597" cy="19.1597" r="19.1597" transform="matrix(1 0 0 -1 884.039 416.02)" fill="#B30078"/>
<circle cx="19.1597" cy="19.1597" r="19.1597" transform="matrix(1 0 0 -1 1070.23 416.02)" fill="#B30078"/>
<circle cx="19.1597" cy="19.1597" r="19.1597" transform="matrix(1 0 0 -1 946.104 416.02)" fill="#B30078"/>
<circle cx="19.1597" cy="19.1597" r="19.1597" transform="matrix(1 0 0 -1 1132.3 416.02)" fill="#B30078"/>
<circle cx="19.1597" cy="19.1597" r="19.1597" transform="matrix(1 0 0 -1 635.777 477.848)" fill="#B30078"/>
<circle cx="19.1597" cy="19.1597" r="19.1597" transform="matrix(1 0 0 -1 697.842 477.848)" fill="#B30078"/>
<circle cx="19.1597" cy="19.1597" r="19.1597" transform="matrix(1 0 0 -1 759.908 477.848)" fill="#B30078"/>
<circle cx="19.1597" cy="19.1597" r="19.1597" transform="matrix(1 0 0 -1 821.973 477.848)" fill="#B30078"/>
<circle cx="19.1597" cy="19.1597" r="19.1597" transform="matrix(1 0 0 -1 1008.17 477.848)" fill="#B30078"/>
<circle cx="19.1597" cy="19.1597" r="19.1597" transform="matrix(1 0 0 -1 884.039 477.848)" fill="#B30078"/>
<circle cx="19.1597" cy="19.1597" r="19.1597" transform="matrix(1 0 0 -1 1070.23 477.848)" fill="#B30078"/>
<circle cx="19.1597" cy="19.1597" r="19.1597" transform="matrix(1 0 0 -1 946.104 477.848)" fill="#B30078"/>
<circle cx="19.1597" cy="19.1597" r="19.1597" transform="matrix(1 0 0 -1 1132.3 477.848)" fill="#B30078"/>
<circle cx="19.1597" cy="19.1597" r="19.1597" transform="matrix(1 0 0 -1 635.777 539.68)" fill="#B30078"/>
<circle cx="19.1597" cy="19.1597" r="19.1597" transform="matrix(1 0 0 -1 697.842 539.68)" fill="#B30078"/>
<circle cx="19.1597" cy="19.1597" r="19.1597" transform="matrix(1 0 0 -1 759.908 539.68)" fill="#B30078"/>
<circle cx="19.1597" cy="19.1597" r="19.1597" transform="matrix(1 0 0 -1 821.973 539.68)" fill="#B30078"/>
<circle cx="19.1597" cy="19.1597" r="19.1597" transform="matrix(1 0 0 -1 1008.17 539.68)" fill="#B30078"/>
<circle cx="19.1597" cy="19.1597" r="19.1597" transform="matrix(1 0 0 -1 884.039 539.68)" fill="#B30078"/>
<circle cx="19.1597" cy="19.1597" r="19.1597" transform="matrix(1 0 0 -1 1070.23 539.68)" fill="#B30078"/>
<circle cx="19.1597" cy="19.1597" r="19.1597" transform="matrix(1 0 0 -1 946.104 539.68)" fill="#B30078"/>
<circle cx="19.1597" cy="19.1597" r="19.1597" transform="matrix(1 0 0 -1 1132.3 539.68)" fill="#B30078"/>
<circle cx="19.1597" cy="19.1597" r="19.1597" transform="matrix(1 0 0 -1 635.777 601.512)" fill="#B30078"/>
<circle cx="19.1597" cy="19.1597" r="19.1597" transform="matrix(1 0 0 -1 697.842 601.512)" fill="#B30078"/>
<circle cx="19.1597" cy="19.1597" r="19.1597" transform="matrix(1 0 0 -1 759.908 601.512)" fill="#B30078"/>
<circle cx="19.1597" cy="19.1597" r="19.1597" transform="matrix(1 0 0 -1 821.973 601.512)" fill="#B30078"/>
<circle cx="19.1597" cy="19.1597" r="19.1597" transform="matrix(1 0 0 -1 1008.17 601.512)" fill="#B30078"/>
<circle cx="19.1597" cy="19.1597" r="19.1597" transform="matrix(1 0 0 -1 884.039 601.512)" fill="#B30078"/>
<circle cx="19.1597" cy="19.1597" r="19.1597" transform="matrix(1 0 0 -1 1070.23 601.512)" fill="#B30078"/>
<circle cx="19.1597" cy="19.1597" r="19.1597" transform="matrix(1 0 0 -1 946.104 601.512)" fill="#B30078"/>
<circle cx="19.1597" cy="19.1597" r="19.1597" transform="matrix(1 0 0 -1 1132.3 601.512)" fill="#B30078"/>
<circle cx="19.1597" cy="19.1597" r="19.1597" transform="matrix(1 0 0 -1 635.777 663.344)" fill="#B30078"/>
<circle cx="19.1597" cy="19.1597" r="19.1597" transform="matrix(1 0 0 -1 697.842 663.344)" fill="#B30078"/>
<circle cx="19.1597" cy="19.1597" r="19.1597" transform="matrix(1 0 0 -1 759.908 663.344)" fill="#B30078"/>
<circle cx="19.1597" cy="19.1597" r="19.1597" transform="matrix(1 0 0 -1 821.973 663.344)" fill="#B30078"/>
<circle cx="19.1597" cy="19.1597" r="19.1597" transform="matrix(1 0 0 -1 1008.17 663.344)" fill="#B30078"/>
<circle cx="19.1597" cy="19.1597" r="19.1597" transform="matrix(1 0 0 -1 884.039 663.344)" fill="#B30078"/>
<circle cx="19.1597" cy="19.1597" r="19.1597" transform="matrix(1 0 0 -1 1070.23 663.344)" fill="#B30078"/>
<circle cx="19.1597" cy="19.1597" r="19.1597" transform="matrix(1 0 0 -1 946.104 663.344)" fill="#B30078"/>
<circle cx="19.1597" cy="19.1597" r="19.1597" transform="matrix(1 0 0 -1 1132.3 663.344)" fill="#B30078"/>
</g>
<defs>
<clipPath id="clip0_3_499">
<rect width="1200" height="675" fill="white"/>
</clipPath>
</defs>
</svg>
