<svg width="1184" height="667" viewBox="0 0 1184 667" fill="none" xmlns="http://www.w3.org/2000/svg">
<g clip-path="url(#clip0_1_1382)">
<rect width="1184" height="666" transform="translate(0 0.105469)" fill="#F4F4EF"/>
<path fill-rule="evenodd" clip-rule="evenodd" d="M738.826 29.1494C753.623 4.61481 753.624 -21.6591 738.825 -46.214L779.646 -52.7305C797.002 -23.9335 797.004 6.88467 779.646 35.6668C779.646 35.667 779.647 35.6666 779.646 35.6668C779.646 35.6676 779.645 35.669 779.645 35.6698L760.448 67.5303C745.649 92.0852 745.649 118.36 760.447 142.895L760.448 142.898L779.646 174.76C779.646 174.761 779.646 174.76 779.646 174.76C797.002 203.557 797.004 234.376 779.646 263.157C779.646 263.158 779.645 263.159 779.645 263.16L760.448 295.021C745.649 319.576 745.649 345.851 760.447 370.385L760.448 370.388L779.646 402.251C779.646 402.251 779.646 402.251 779.646 402.251C797.002 431.048 797.004 461.866 779.646 490.648C779.646 490.649 779.645 490.65 779.645 490.651L760.448 522.512C745.649 547.066 745.649 573.342 760.447 597.876L760.448 597.879L779.646 629.742C779.646 629.742 779.646 629.741 779.646 629.742C797.002 658.539 797.004 689.359 779.645 718.142L738.826 711.621C753.623 687.087 753.624 660.813 738.825 636.258L719.628 604.396C719.627 604.395 719.626 604.394 719.626 604.393C702.268 575.611 702.27 544.793 719.626 515.996L738.824 484.134L738.826 484.131C753.623 459.596 753.624 433.322 738.825 408.767L719.628 376.906C719.627 376.905 719.626 376.904 719.626 376.903C702.268 348.121 702.27 317.303 719.626 288.507C719.626 288.506 719.626 288.507 719.626 288.507L738.826 256.64C753.623 232.105 753.624 205.832 738.825 181.277L719.628 149.415C719.627 149.414 719.626 149.413 719.626 149.412C702.268 120.63 702.27 89.8126 719.626 61.0159C719.626 61.0155 719.626 61.0162 719.626 61.0159L738.826 29.1494Z" fill="#B30078"/>
<path fill-rule="evenodd" clip-rule="evenodd" d="M652.72 28.8603C667.518 4.32574 667.519 -21.9482 652.719 -46.5031L693.54 -53.0195C710.897 -24.2225 710.899 6.59561 693.541 35.3777C693.541 35.378 693.541 35.3775 693.541 35.3777C693.541 35.3785 693.54 35.38 693.539 35.3807L674.343 67.2413C659.543 91.7961 659.544 118.071 674.341 142.606L674.343 142.609L693.54 174.471C693.541 174.471 693.54 174.471 693.54 174.471C710.896 203.268 710.899 234.087 693.541 262.868C693.54 262.869 693.54 262.87 693.539 262.871L674.343 294.732C659.543 319.287 659.544 345.562 674.341 370.096L674.343 370.099L693.54 401.962C693.541 401.962 693.54 401.961 693.54 401.962C710.896 430.759 710.899 461.577 693.541 490.359C693.54 490.36 693.54 490.361 693.539 490.362L674.343 522.223C659.543 546.777 659.544 573.052 674.341 597.587L674.343 597.59L693.54 629.452C693.541 629.453 693.54 629.452 693.54 629.452C710.897 658.25 710.899 689.07 693.539 717.853L652.72 711.332C667.518 686.798 667.519 660.524 652.719 635.969L633.522 604.107C633.522 604.106 633.521 604.105 633.52 604.104C616.163 575.322 616.164 544.504 633.521 515.707L652.718 483.845L652.72 483.842C667.518 459.307 667.519 433.033 652.719 408.478L633.522 376.617C633.522 376.616 633.521 376.615 633.52 376.614C616.163 347.832 616.164 317.014 633.52 288.217C633.521 288.217 633.52 288.218 633.52 288.217L652.72 256.351C667.518 231.816 667.519 205.542 652.719 180.988L633.522 149.126C633.522 149.125 633.521 149.124 633.52 149.123C616.163 120.341 616.164 89.5235 633.52 60.7268C633.521 60.7265 633.52 60.7272 633.52 60.7268L652.72 28.8603Z" fill="#B30078"/>
<path fill-rule="evenodd" clip-rule="evenodd" d="M581.127 29.1494C595.924 4.61481 595.925 -21.6591 581.125 -46.214L621.947 -52.7305C639.303 -23.9335 639.305 6.88467 621.947 35.6668C621.947 35.667 621.947 35.6666 621.947 35.6668C621.947 35.6676 621.946 35.669 621.945 35.6698L602.749 67.5303C587.949 92.0852 587.95 118.36 602.747 142.895L602.749 142.898L621.947 174.76C621.947 174.761 621.946 174.76 621.947 174.76C639.303 203.557 639.305 234.376 621.947 263.157C621.947 263.158 621.946 263.159 621.945 263.16L602.749 295.021C587.949 319.576 587.95 345.851 602.747 370.385L602.749 370.388L621.947 402.251C621.947 402.251 621.946 402.251 621.947 402.251C639.303 431.048 639.305 461.866 621.947 490.648C621.947 490.649 621.946 490.65 621.945 490.651L602.749 522.512C587.949 547.066 587.95 573.342 602.747 597.876L602.749 597.879L621.947 629.742C621.947 629.742 621.946 629.741 621.947 629.742C639.303 658.539 639.305 689.359 621.945 718.142L581.127 711.621C595.924 687.087 595.925 660.813 581.125 636.258L561.928 604.396C561.928 604.395 561.927 604.394 561.927 604.393C544.569 575.611 544.571 544.793 561.927 515.996L581.125 484.134L581.127 484.131C595.924 459.596 595.925 433.322 581.125 408.767L561.928 376.906C561.928 376.905 561.927 376.904 561.927 376.903C544.569 348.121 544.571 317.303 561.927 288.507C561.927 288.506 561.926 288.507 561.927 288.507L581.127 256.64C595.924 232.105 595.925 205.832 581.125 181.277L561.928 149.415C561.928 149.414 561.927 149.413 561.927 149.412C544.569 120.63 544.571 89.8126 561.927 61.0159C561.927 61.0155 561.926 61.0162 561.927 61.0159L581.127 29.1494Z" fill="#F54BAC"/>
<path fill-rule="evenodd" clip-rule="evenodd" d="M502.279 29.1494C517.076 4.61481 517.077 -21.6591 502.278 -46.214L543.099 -52.7305C560.456 -23.9335 560.457 6.88467 543.1 35.6668C543.099 35.667 543.1 35.6666 543.1 35.6668C543.099 35.6676 543.098 35.669 543.098 35.6698L523.901 67.5303C509.102 92.0852 509.102 118.36 523.9 142.895L523.901 142.898L543.099 174.76C543.099 174.761 543.099 174.76 543.099 174.76C560.455 203.557 560.457 234.376 543.1 263.157C543.099 263.158 543.098 263.159 543.098 263.16L523.901 295.021C509.102 319.576 509.102 345.851 523.9 370.385L523.901 370.388L543.099 402.251C543.099 402.251 543.099 402.251 543.099 402.251C560.455 431.048 560.457 461.866 543.1 490.648C543.099 490.649 543.098 490.65 543.098 490.651L523.901 522.512C509.102 547.066 509.102 573.342 523.9 597.876L523.901 597.879L543.099 629.742C543.099 629.742 543.099 629.741 543.099 629.742C560.456 658.539 560.457 689.359 543.098 718.142L502.279 711.621C517.076 687.087 517.077 660.813 502.278 636.258L483.081 604.396C483.08 604.395 483.08 604.394 483.079 604.393C465.721 575.611 465.723 544.793 483.08 515.996L502.277 484.134L502.279 484.131C517.076 459.596 517.077 433.322 502.278 408.767L483.081 376.906C483.08 376.905 483.08 376.904 483.079 376.903C465.721 348.121 465.723 317.303 483.079 288.507C483.079 288.506 483.079 288.507 483.079 288.507L502.279 256.64C517.076 232.105 517.077 205.832 502.278 181.277L483.081 149.415C483.08 149.414 483.08 149.413 483.079 149.412C465.721 120.63 465.723 89.8126 483.079 61.0159C483.079 61.0155 483.079 61.0162 483.079 61.0159L502.279 29.1494Z" fill="#B30078"/>
<path fill-rule="evenodd" clip-rule="evenodd" d="M423.427 29.1494C438.225 4.61481 438.226 -21.6591 423.426 -46.214L464.247 -52.7305C481.604 -23.9335 481.606 6.88467 464.248 35.6668C464.248 35.667 464.248 35.6666 464.248 35.6668C464.248 35.6676 464.247 35.669 464.246 35.6698L445.05 67.5303C430.25 92.0852 430.251 118.36 445.048 142.895L445.05 142.898L464.247 174.76C464.248 174.761 464.247 174.76 464.247 174.76C481.603 203.557 481.606 234.376 464.248 263.157C464.247 263.158 464.247 263.159 464.246 263.16L445.05 295.021C430.25 319.576 430.251 345.851 445.048 370.385L445.05 370.388L464.247 402.251C464.248 402.251 464.247 402.251 464.247 402.251C481.603 431.048 481.606 461.866 464.248 490.648C464.247 490.649 464.247 490.65 464.246 490.651L445.05 522.512C430.25 547.066 430.251 573.342 445.048 597.876L445.05 597.879L464.247 629.742C464.248 629.742 464.247 629.741 464.247 629.742C481.604 658.539 481.606 689.359 464.246 718.142L423.427 711.621C438.225 687.087 438.226 660.813 423.426 636.258L404.229 604.396C404.229 604.395 404.228 604.394 404.227 604.393C386.87 575.611 386.871 544.793 404.228 515.996L423.426 484.134L423.427 484.131C438.225 459.596 438.226 433.322 423.426 408.767L404.229 376.906C404.229 376.905 404.228 376.904 404.227 376.903C386.87 348.121 386.871 317.303 404.227 288.507C404.228 288.506 404.227 288.507 404.227 288.507L423.427 256.64C438.225 232.105 438.226 205.832 423.426 181.277L404.229 149.415C404.229 149.414 404.228 149.413 404.227 149.412C386.87 120.63 386.871 89.8126 404.227 61.0159C404.228 61.0155 404.227 61.0162 404.227 61.0159L423.427 29.1494Z" fill="#B30078"/>
<rect x="-1.5" y="332.98" width="1185" height="668" fill="#E2D9FF"/>
<path d="M803.5 666.98C803.5 549.896 708.584 454.98 591.5 454.98C474.416 454.98 379.5 549.896 379.5 666.98L462.637 666.98C462.637 595.811 520.331 538.118 591.5 538.118C662.669 538.118 720.363 595.811 720.363 666.98L803.5 666.98Z" fill="#F54BAC"/>
<circle cx="1023.09" cy="559.769" r="29.0938" transform="rotate(-90 1023.09 559.769)" fill="#393A3D"/>
<circle cx="1023.09" cy="469.254" r="29.0938" transform="rotate(-90 1023.09 469.254)" fill="#393A3D"/>
<circle cx="1023.09" cy="378.742" r="29.0938" transform="rotate(-90 1023.09 378.742)" fill="#393A3D"/>
<circle cx="1023.09" cy="288.227" r="29.0938" transform="rotate(-90 1023.09 288.227)" fill="#393A3D"/>
<circle cx="1023.09" cy="197.715" r="29.0938" transform="rotate(-90 1023.09 197.715)" fill="#393A3D"/>
<circle cx="1023.09" cy="107.199" r="29.0938" transform="rotate(-90 1023.09 107.199)" fill="#393A3D"/>
</g>
<defs>
<clipPath id="clip0_1_1382">
<rect width="1184" height="666" fill="white" transform="translate(0 0.105469)"/>
</clipPath>
</defs>
</svg>
