<svg width="1200" height="675" viewBox="0 0 1200 675" fill="none" xmlns="http://www.w3.org/2000/svg">
<g clip-path="url(#clip0_3_483)">
<rect width="1200" height="675" fill="#F4F4EF"/>
<rect x="818.502" y="0.214844" width="368" height="668" fill="#E2D9FF"/>
<path fill-rule="evenodd" clip-rule="evenodd" d="M563.46 330.088C541.56 316.88 518.108 316.88 496.192 330.089L493.404 312.626C517.135 298.323 542.531 298.322 566.248 312.626C566.248 312.626 566.247 312.626 566.248 312.626L593.51 329.051C615.426 342.261 638.878 342.26 660.778 329.052L688.04 312.626C688.04 312.626 688.04 312.626 688.04 312.626C711.771 298.323 737.167 298.322 760.884 312.626C760.884 312.626 760.883 312.626 760.884 312.626L788.146 329.051C810.062 342.261 833.514 342.26 855.414 329.052L882.676 312.626C882.676 312.626 882.676 312.626 882.676 312.626C906.407 298.323 931.803 298.322 955.52 312.626C955.52 312.626 955.519 312.626 955.52 312.626L982.782 329.051C1004.7 342.261 1028.15 342.26 1050.05 329.052L1077.31 312.626C1101.04 298.323 1126.44 298.322 1150.16 312.627L1147.37 330.088C1125.47 316.88 1102.02 316.88 1080.1 330.089L1052.84 346.514C1052.84 346.514 1052.84 346.514 1052.84 346.514C1029.12 360.818 1003.73 360.818 979.994 346.515L952.733 330.089C930.833 316.881 907.38 316.88 885.464 330.089L858.203 346.514C834.486 360.818 809.09 360.818 785.359 346.515C785.359 346.515 785.359 346.515 785.359 346.515L758.097 330.089C736.197 316.881 712.744 316.88 690.828 330.089L663.567 346.514C639.85 360.818 614.454 360.818 590.723 346.515C590.723 346.515 590.723 346.515 590.723 346.515L563.46 330.088Z" fill="#F54BAC"/>
<path fill-rule="evenodd" clip-rule="evenodd" d="M563.46 397.549C541.56 384.341 518.108 384.341 496.192 397.55L493.404 380.087C517.135 365.784 542.531 365.783 566.248 380.087C566.248 380.087 566.247 380.087 566.248 380.087L593.51 396.512C615.426 409.722 638.878 409.721 660.778 396.513L688.04 380.087C688.04 380.087 688.04 380.087 688.04 380.087C711.771 365.784 737.167 365.783 760.884 380.087C760.884 380.087 760.883 380.087 760.884 380.087L788.146 396.512C810.062 409.722 833.514 409.721 855.414 396.513L882.676 380.087C882.676 380.087 882.676 380.087 882.676 380.087C906.407 365.784 931.803 365.783 955.52 380.087C955.52 380.087 955.519 380.087 955.52 380.087L982.782 396.512C1004.7 409.722 1028.15 409.721 1050.05 396.513L1077.31 380.087C1101.04 365.784 1126.44 365.783 1150.16 380.088L1147.37 397.549C1125.47 384.341 1102.02 384.341 1080.1 397.55L1052.84 413.975C1052.84 413.975 1052.84 413.975 1052.84 413.975C1029.12 428.279 1003.73 428.279 979.994 413.975L952.733 397.55C930.833 384.342 907.38 384.341 885.464 397.55L858.203 413.975C834.486 428.279 809.09 428.279 785.359 413.976C785.359 413.976 785.359 413.976 785.359 413.976L758.097 397.55C736.197 384.342 712.744 384.341 690.828 397.55L663.567 413.975C639.85 428.279 614.454 428.279 590.723 413.976C590.723 413.976 590.723 413.976 590.723 413.976L563.46 397.549Z" fill="#F54BAC"/>
<path fill-rule="evenodd" clip-rule="evenodd" d="M563.46 465.01C541.56 451.802 518.108 451.802 496.192 465.011L493.404 447.548C517.135 433.245 542.531 433.244 566.248 447.548C566.248 447.548 566.247 447.547 566.248 447.548L593.51 463.973C615.426 477.183 638.878 477.182 660.778 463.974L688.04 447.548C688.04 447.548 688.04 447.548 688.04 447.548C711.771 433.245 737.167 433.244 760.884 447.548C760.884 447.548 760.883 447.547 760.884 447.548L788.146 463.973C810.062 477.183 833.514 477.182 855.414 463.974L882.676 447.548C882.676 447.548 882.676 447.548 882.676 447.548C906.407 433.245 931.803 433.244 955.52 447.548C955.52 447.548 955.519 447.547 955.52 447.548L982.782 463.973C1004.7 477.183 1028.15 477.182 1050.05 463.974L1077.31 447.548C1101.04 433.245 1126.44 433.244 1150.16 447.548L1147.37 465.01C1125.47 451.802 1102.02 451.802 1080.1 465.011L1052.84 481.436C1052.84 481.436 1052.84 481.436 1052.84 481.436C1029.12 495.74 1003.73 495.74 979.994 481.436L952.733 465.011C930.833 451.803 907.38 451.802 885.464 465.011L858.203 481.436C834.486 495.74 809.09 495.74 785.359 481.437C785.359 481.437 785.359 481.437 785.359 481.437L758.097 465.011C736.197 451.803 712.744 451.802 690.828 465.011L663.567 481.436C639.85 495.74 614.454 495.74 590.723 481.437C590.723 481.437 590.723 481.437 590.723 481.437L563.46 465.01Z" fill="#F54BAC"/>
<path fill-rule="evenodd" clip-rule="evenodd" d="M563.46 532.475C541.56 519.267 518.108 519.266 496.192 532.476L493.404 515.013C517.135 500.71 542.531 500.709 566.248 515.013C566.248 515.013 566.247 515.012 566.248 515.013L593.51 531.438C615.426 544.647 638.878 544.647 660.778 531.439L688.04 515.013C688.04 515.013 688.04 515.013 688.04 515.013C711.771 500.71 737.167 500.709 760.884 515.013C760.884 515.013 760.883 515.012 760.884 515.013L788.146 531.438C810.062 544.647 833.514 544.647 855.414 531.439L882.676 515.013C882.676 515.013 882.676 515.013 882.676 515.013C906.407 500.71 931.803 500.709 955.52 515.013C955.52 515.013 955.519 515.012 955.52 515.013L982.782 531.438C1004.7 544.647 1028.15 544.647 1050.05 531.439L1077.31 515.013C1101.04 500.709 1126.44 500.709 1150.16 515.013L1147.37 532.475C1125.47 519.267 1102.02 519.266 1080.1 532.476L1052.84 548.901C1052.84 548.901 1052.84 548.9 1052.84 548.901C1029.12 563.204 1003.73 563.204 979.994 548.901L952.733 532.476C930.833 519.268 907.38 519.266 885.464 532.476L858.203 548.901C834.486 563.205 809.09 563.205 785.359 548.901C785.359 548.901 785.359 548.902 785.359 548.901L758.097 532.476C736.197 519.268 712.744 519.266 690.828 532.476L663.567 548.901C639.85 563.205 614.454 563.205 590.723 548.901C590.723 548.901 590.723 548.902 590.723 548.901L563.46 532.475Z" fill="#F54BAC"/>
<path fill-rule="evenodd" clip-rule="evenodd" d="M563.46 599.936C541.56 586.728 518.108 586.727 496.192 599.937L493.404 582.474C517.135 568.171 542.531 568.17 566.248 582.473C566.248 582.474 566.247 582.473 566.248 582.473L593.51 598.899C615.426 612.108 638.878 612.108 660.778 598.9L688.04 582.474C688.04 582.474 688.04 582.474 688.04 582.474C711.771 568.171 737.167 568.17 760.884 582.473C760.884 582.474 760.883 582.473 760.884 582.473L788.146 598.899C810.062 612.108 833.514 612.108 855.414 598.9L882.676 582.474C882.676 582.474 882.676 582.474 882.676 582.474C906.407 568.171 931.803 568.17 955.52 582.473C955.52 582.474 955.519 582.473 955.52 582.473L982.782 598.899C1004.7 612.108 1028.15 612.108 1050.05 598.9L1077.31 582.474C1101.04 568.17 1126.44 568.17 1150.16 582.474L1147.37 599.936C1125.47 586.728 1102.02 586.727 1080.1 599.937L1052.84 616.362C1052.84 616.362 1052.84 616.361 1052.84 616.362C1029.12 630.665 1003.73 630.665 979.994 616.362L952.733 599.937C930.833 586.729 907.38 586.727 885.464 599.937L858.203 616.362C834.486 630.666 809.09 630.666 785.359 616.362C785.359 616.362 785.359 616.363 785.359 616.362L758.097 599.937C736.197 586.729 712.744 586.727 690.828 599.937L663.567 616.362C639.85 630.666 614.454 630.666 590.723 616.362C590.723 616.362 590.723 616.363 590.723 616.362L563.46 599.936Z" fill="#F54BAC"/>
<path fill-rule="evenodd" clip-rule="evenodd" d="M99.4103 424.321C296.367 424.321 456.031 264.656 456.031 67.6993C456.031 -129.257 296.367 -288.922 99.4103 -288.922C-97.5461 -288.922 -257.211 -129.257 -257.211 67.6993C-257.211 264.656 -97.5461 424.321 99.4103 424.321ZM99.4103 361.387C261.61 361.387 393.098 229.899 393.098 67.6993C393.098 -94.5007 261.61 -225.989 99.4103 -225.989C-62.7893 -225.989 -194.278 -94.5007 -194.278 67.6993C-194.278 229.899 -62.7893 361.387 99.4103 361.387Z" fill="#B30078"/>
<circle cx="240.406" cy="577.91" r="29.0938" transform="rotate(-90 240.406 577.91)" fill="#393A3D"/>
<circle cx="240.406" cy="487.394" r="29.0938" transform="rotate(-90 240.406 487.394)" fill="#393A3D"/>
<circle cx="240.406" cy="396.883" r="29.0938" transform="rotate(-90 240.406 396.883)" fill="#393A3D"/>
<circle cx="240.406" cy="306.367" r="29.0938" transform="rotate(-90 240.406 306.367)" fill="#393A3D"/>
<circle cx="240.406" cy="215.855" r="29.0938" transform="rotate(-90 240.406 215.855)" fill="#393A3D"/>
<circle cx="240.406" cy="125.34" r="29.0938" transform="rotate(-90 240.406 125.34)" fill="#393A3D"/>
</g>
<defs>
<clipPath id="clip0_3_483">
<rect width="1200" height="675" fill="white"/>
</clipPath>
</defs>
</svg>
