<svg width="1200" height="675" viewBox="0 0 1200 675" fill="none" xmlns="http://www.w3.org/2000/svg">
<g clip-path="url(#clip0_3_379)">
<rect width="1200" height="675" fill="#E2D9FF"/>
<path d="M1211.49 -105.645V713.449H392.398L1211.49 -105.645Z" fill="#F4F4EF"/>
<path d="M774.088 65.2328L661.357 -28.6789L800.006 -79.183L774.088 65.2328Z" fill="#B30078"/>
<circle cx="756.264" cy="94.3929" r="11.1116" fill="black"/>
<circle cx="790.836" cy="94.3929" r="11.1116" fill="black"/>
<circle cx="825.407" cy="94.3929" r="11.1116" fill="black"/>
<circle cx="859.973" cy="94.3929" r="11.1116" fill="black"/>
<circle cx="894.543" cy="94.3929" r="11.1116" fill="black"/>
<circle cx="929.11" cy="94.3929" r="11.1116" fill="black"/>
<path d="M745.28 330.113L626.579 126.075L863.981 126.075L745.28 330.113Z" fill="#F54BAC"/>
<path d="M745.28 278.637L671.5 151.814L819.061 151.814L745.28 278.637Z" fill="#B30078"/>
<circle cx="797.051" cy="300.709" r="11.1116" fill="black"/>
<circle cx="831.623" cy="300.709" r="11.1116" fill="black"/>
<circle cx="866.194" cy="300.709" r="11.1116" fill="black"/>
<circle cx="900.76" cy="300.709" r="11.1116" fill="black"/>
<circle cx="935.332" cy="300.709" r="11.1116" fill="black"/>
<circle cx="969.899" cy="300.709" r="11.1116" fill="black"/>
<path d="M745.28 538.41L626.579 334.372L863.981 334.372L745.28 538.41Z" fill="#F54BAC"/>
<path d="M745.28 486.934L671.5 360.11L819.061 360.11L745.28 486.934Z" fill="#E2D9FF"/>
<path d="M773.231 801.703L654.53 597.665L891.932 597.665L773.231 801.703Z" fill="#F54BAC"/>
<path d="M773.228 750.227L699.447 623.403L847.008 623.403L773.228 750.227Z" fill="#B30078"/>
<circle cx="629.346" cy="570.018" r="11.1116" fill="black"/>
<circle cx="663.918" cy="570.018" r="11.1116" fill="black"/>
<circle cx="698.489" cy="570.018" r="11.1116" fill="black"/>
<circle cx="733.055" cy="570.018" r="11.1116" fill="black"/>
<circle cx="767.625" cy="570.018" r="11.1116" fill="black"/>
<circle cx="802.194" cy="570.018" r="11.1116" fill="black"/>
<path d="M1038.2 186.906L919.499 -17.1323L1156.9 -17.1323L1038.2 186.906Z" fill="#F54BAC"/>
<path d="M1115.69 328.96L996.178 243.842L1130.61 182.998L1115.69 328.96Z" fill="#B30078"/>
<circle cx="1049.18" cy="375.201" r="11.1116" fill="black"/>
<circle cx="1083.76" cy="375.201" r="11.1116" fill="black"/>
<circle cx="1118.33" cy="375.201" r="11.1116" fill="black"/>
<circle cx="1152.89" cy="375.201" r="11.1116" fill="black"/>
<circle cx="1187.46" cy="375.201" r="11.1116" fill="black"/>
<path d="M979.107 517.941L960.916 372.35L1096.68 430.165L979.107 517.941Z" fill="#B30078"/>
<path d="M1038.19 756.738L964.414 629.915L1111.97 629.915L1038.19 756.738Z" fill="#B30078"/>
<path d="M484.911 24.1758L366.21 -179.863L603.611 -179.863L484.911 24.1758Z" fill="#F54BAC"/>
<path d="M484.911 232.473L366.21 28.4341L603.611 28.4341L484.911 232.473Z" fill="#F54BAC"/>
<path d="M484.911 180.996L411.131 54.1729L558.692 54.1729L484.911 180.996Z" fill="#B30078"/>
<path d="M412.994 408.154L384.021 262.247L525.511 310.849L412.994 408.154Z" fill="#F54BAC"/>
<path d="M559.993 649.678L392.528 483.314L621.84 421.87L559.993 649.678Z" fill="#F54BAC"/>
<path d="M546.668 599.956L442.577 496.55L585.11 458.359L546.668 599.956Z" fill="#B30078"/>
<path d="M484.911 798L411.131 671.177L558.692 671.177L484.911 798Z" fill="#B30078"/>
<path d="M191.991 134.832L73.2896 -69.2065L310.692 -69.2065L191.991 134.832Z" fill="#F54BAC"/>
<path d="M191.993 83.3555L118.213 -43.4677L265.774 -43.4677L191.993 83.3555Z" fill="#B30078"/>
<path d="M103.826 283.477L65.3839 141.88L207.917 180.071L103.826 283.477Z" fill="#B30078"/>
<circle cx="257.323" cy="224.135" r="11.1116" fill="black"/>
<circle cx="291.893" cy="224.135" r="11.1116" fill="black"/>
<circle cx="326.467" cy="224.135" r="11.1116" fill="black"/>
<circle cx="361.034" cy="224.135" r="11.1116" fill="black"/>
<circle cx="395.604" cy="224.135" r="11.1116" fill="black"/>
<circle cx="430.17" cy="224.135" r="11.1116" fill="black"/>
<circle cx="502.883" cy="268.284" r="11.1116" fill="black"/>
<circle cx="537.453" cy="268.284" r="11.1116" fill="black"/>
<circle cx="572.026" cy="268.284" r="11.1116" fill="black"/>
<circle cx="606.592" cy="268.284" r="11.1116" fill="black"/>
<circle cx="641.164" cy="268.284" r="11.1116" fill="black"/>
<circle cx="675.731" cy="268.284" r="11.1116" fill="black"/>
<path d="M191.991 547.844L73.2896 343.805L310.692 343.805L191.991 547.844Z" fill="#F54BAC"/>
<path d="M191.993 496.367L118.213 369.544L265.774 369.544L191.993 496.367Z" fill="#E2D9FF"/>
<circle cx="153.772" cy="297.592" r="11.1116" fill="black"/>
<circle cx="188.342" cy="297.592" r="11.1116" fill="black"/>
<circle cx="222.916" cy="297.592" r="11.1116" fill="black"/>
<circle cx="257.483" cy="297.592" r="11.1116" fill="black"/>
<circle cx="292.053" cy="297.592" r="11.1116" fill="black"/>
<circle cx="326.619" cy="297.592" r="11.1116" fill="black"/>
<path d="M191.991 750.227L73.2896 546.188L310.692 546.188L191.991 750.227Z" fill="#F54BAC"/>
<path d="M191.993 698.75L118.213 571.927L265.774 571.927L191.993 698.75Z" fill="#B30078"/>
<circle cx="22.514" cy="529.651" r="11.1116" fill="black"/>
<circle cx="57.0804" cy="529.651" r="11.1116" fill="black"/>
<circle cx="91.6507" cy="529.651" r="11.1116" fill="black"/>
<circle cx="126.217" cy="529.651" r="11.1116" fill="black"/>
</g>
<defs>
<clipPath id="clip0_3_379">
<rect width="1200" height="675" fill="white"/>
</clipPath>
</defs>
</svg>
