<svg width="1200" height="675" viewBox="0 0 1200 675" fill="none" xmlns="http://www.w3.org/2000/svg">
<rect width="1200" height="675" fill="#F4F4EF"/>
<rect x="403.836" y="0.105469" width="783" height="668" fill="#E2D9FF"/>
<circle cx="197.251" cy="152.755" r="111.415" fill="#393A3D"/>
<path d="M697.361 224.016C697.361 268.366 733.315 304.32 777.665 304.32C822.016 304.32 857.969 268.366 857.969 224.016H697.361Z" fill="#F54BAC"/>
<path d="M662.939 219.918C662.939 148.346 604.919 90.3246 533.346 90.3246C461.774 90.3246 403.753 148.346 403.753 219.918L662.939 219.918Z" fill="#F54BAC"/>
<circle cx="763.952" cy="432.529" r="11.1184" fill="#393A3D"/>
<circle cx="798.542" cy="432.529" r="11.1184" fill="#393A3D"/>
<circle cx="833.13" cy="432.529" r="11.1184" fill="#393A3D"/>
<circle cx="867.726" cy="432.529" r="11.1184" fill="#393A3D"/>
<circle cx="902.314" cy="432.529" r="11.1184" fill="#393A3D"/>
<circle cx="936.902" cy="432.529" r="11.1184" fill="#393A3D"/>
<circle cx="798.544" cy="462.579" r="11.1184" fill="#393A3D"/>
<circle cx="833.134" cy="462.579" r="11.1184" fill="#393A3D"/>
<circle cx="867.722" cy="462.579" r="11.1184" fill="#393A3D"/>
<circle cx="902.318" cy="462.579" r="11.1184" fill="#393A3D"/>
<circle cx="936.905" cy="462.579" r="11.1184" fill="#393A3D"/>
<circle cx="971.493" cy="462.579" r="11.1184" fill="#393A3D"/>
<circle cx="833.132" cy="492.63" r="11.1184" fill="#393A3D"/>
<circle cx="867.722" cy="492.63" r="11.1184" fill="#393A3D"/>
<circle cx="902.31" cy="492.63" r="11.1184" fill="#393A3D"/>
<circle cx="936.905" cy="492.63" r="11.1184" fill="#393A3D"/>
<circle cx="971.493" cy="492.63" r="11.1184" fill="#393A3D"/>
<circle cx="1006.08" cy="492.63" r="11.1184" fill="#393A3D"/>
<circle cx="867.726" cy="522.681" r="11.1184" fill="#393A3D"/>
<circle cx="902.316" cy="522.681" r="11.1184" fill="#393A3D"/>
<circle cx="936.904" cy="522.681" r="11.1184" fill="#393A3D"/>
<circle cx="971.499" cy="522.681" r="11.1184" fill="#393A3D"/>
<circle cx="1006.09" cy="522.681" r="11.1184" fill="#393A3D"/>
<circle cx="1040.68" cy="522.681" r="11.1184" fill="#393A3D"/>
<circle cx="902.316" cy="552.732" r="11.1184" fill="#393A3D"/>
<circle cx="936.905" cy="552.732" r="11.1184" fill="#393A3D"/>
<circle cx="971.493" cy="552.732" r="11.1184" fill="#393A3D"/>
<circle cx="1006.09" cy="552.732" r="11.1184" fill="#393A3D"/>
<circle cx="1040.68" cy="552.732" r="11.1184" fill="#393A3D"/>
<circle cx="1075.26" cy="552.732" r="11.1184" fill="#393A3D"/>
<rect x="85.8359" y="667.781" width="379.912" height="15.0096" transform="rotate(-90 85.8359 667.781)" fill="#F54BAC"/>
<rect x="115.855" y="667.781" width="379.912" height="15.0096" transform="rotate(-90 115.855 667.781)" fill="#F54BAC"/>
<rect x="145.879" y="667.781" width="379.912" height="15.0096" transform="rotate(-90 145.879 667.781)" fill="#F54BAC"/>
<rect x="175.895" y="667.781" width="379.912" height="15.0096" transform="rotate(-90 175.895 667.781)" fill="#F54BAC"/>
<rect x="205.91" y="667.781" width="379.912" height="15.0096" transform="rotate(-90 205.91 667.781)" fill="#F54BAC"/>
<rect x="235.938" y="667.781" width="379.912" height="15.0096" transform="rotate(-90 235.938 667.781)" fill="#F54BAC"/>
<rect x="265.949" y="667.781" width="379.912" height="15.0096" transform="rotate(-90 265.949 667.781)" fill="#F54BAC"/>
<rect x="295.969" y="667.781" width="379.912" height="15.0096" transform="rotate(-90 295.969 667.781)" fill="#F54BAC"/>
</svg>
