<svg width="1185" height="667" viewBox="0 0 1185 667" fill="none" xmlns="http://www.w3.org/2000/svg">
<g clip-path="url(#clip0_1_1358)">
<rect width="1184" height="666" transform="translate(0.5 0.671875)" fill="#E2D9FF"/>
<rect x="-11" y="345.105" width="1198" height="324" fill="#F4F4EF"/>
<path fill-rule="evenodd" clip-rule="evenodd" d="M751.417 487.228C809.691 487.228 856.931 439.987 856.931 381.714C856.931 323.44 809.691 276.199 751.417 276.199C693.143 276.199 645.902 323.44 645.902 381.714C645.902 439.987 693.143 487.228 751.417 487.228ZM751.417 468.608C799.407 468.608 838.311 429.704 838.311 381.714C838.311 333.723 799.407 294.819 751.417 294.819C703.426 294.819 664.523 333.723 664.523 381.714C664.523 429.704 703.426 468.608 751.417 468.608Z" fill="#393A3D"/>
<path fill-rule="evenodd" clip-rule="evenodd" d="M530.35 698.255C588.624 698.255 635.865 651.015 635.865 592.741C635.865 534.467 588.624 487.227 530.35 487.227C472.076 487.227 424.836 534.467 424.836 592.741C424.836 651.015 472.076 698.255 530.35 698.255ZM530.35 679.635C578.341 679.635 617.244 640.731 617.244 592.741C617.244 544.75 578.341 505.847 530.35 505.847C482.36 505.847 443.456 544.75 443.456 592.741C443.456 640.731 482.36 679.635 530.35 679.635Z" fill="#393A3D"/>
<path fill-rule="evenodd" clip-rule="evenodd" d="M841.474 515.999C879.701 515.999 910.69 485.009 910.69 446.783C910.69 408.556 879.701 377.566 841.474 377.566C803.247 377.566 772.258 408.556 772.258 446.783C772.258 485.009 803.247 515.999 841.474 515.999ZM841.474 503.784C872.955 503.784 898.475 478.264 898.475 446.783C898.475 415.301 872.955 389.781 841.474 389.781C809.993 389.781 784.472 415.301 784.472 446.783C784.472 478.264 809.993 503.784 841.474 503.784Z" fill="#F54BAC"/>
<path fill-rule="evenodd" clip-rule="evenodd" d="M284.145 582.743C351.903 582.743 406.833 527.814 406.833 460.055C406.833 392.296 351.903 337.367 284.145 337.367C216.386 337.367 161.457 392.296 161.457 460.055C161.457 527.814 216.386 582.743 284.145 582.743ZM284.145 561.092C339.946 561.092 385.182 515.856 385.182 460.055C385.182 404.254 339.946 359.018 284.145 359.018C228.344 359.018 183.108 404.254 183.108 460.055C183.108 515.856 228.344 561.092 284.145 561.092Z" fill="#F54BAC"/>
<path fill-rule="evenodd" clip-rule="evenodd" d="M96.9493 582.742C187.131 582.742 260.238 509.635 260.238 419.453C260.238 329.271 187.131 256.164 96.9493 256.164C6.76727 256.164 -66.3398 329.271 -66.3398 419.453C-66.3398 509.635 6.76727 582.742 96.9493 582.742ZM96.9493 553.927C171.217 553.927 231.423 493.721 231.423 419.453C231.423 345.185 171.217 284.98 96.9493 284.98C22.6816 284.98 -37.5241 345.185 -37.5241 419.453C-37.5241 493.721 22.6816 553.927 96.9493 553.927Z" fill="#B30078"/>
<circle cx="464.652" cy="127.606" r="163.289" fill="#393A3D"/>
<circle cx="1172.49" cy="439.188" r="163.289" fill="#393A3D"/>
<line x1="-136.52" y1="72.5094" x2="1316.66" y2="72.5094" stroke="#393A3D" stroke-width="2.1063"/>
<line x1="-136.52" y1="121.173" x2="1316.66" y2="121.173" stroke="#393A3D" stroke-width="6.31889"/>
<line x1="-136.52" y1="174.594" x2="1316.66" y2="174.594" stroke="#393A3D" stroke-width="10.5315"/>
<line x1="-136.52" y1="233.569" x2="1316.66" y2="233.569" stroke="#393A3D" stroke-width="14.7441"/>
<path fill-rule="evenodd" clip-rule="evenodd" d="M996.048 276.198C1033.67 276.198 1064.17 245.699 1064.17 208.076C1064.17 170.453 1033.67 139.953 996.048 139.953C958.425 139.953 927.926 170.453 927.926 208.076C927.926 245.699 958.425 276.198 996.048 276.198ZM996.048 264.177C1027.03 264.177 1052.15 239.059 1052.15 208.076C1052.15 177.092 1027.03 151.975 996.048 151.975C965.065 151.975 939.947 177.092 939.947 208.076C939.947 239.059 965.065 264.177 996.048 264.177Z" fill="#F54BAC"/>
<path fill-rule="evenodd" clip-rule="evenodd" d="M693.641 370.41C783.823 370.41 856.93 297.303 856.93 207.121C856.93 116.939 783.823 43.832 693.641 43.832C603.459 43.832 530.352 116.939 530.352 207.121C530.352 297.303 603.459 370.41 693.641 370.41ZM693.641 341.595C767.908 341.595 828.114 281.389 828.114 207.121C828.114 132.853 767.908 72.6478 693.641 72.6478C619.373 72.6478 559.167 132.853 559.167 207.121C559.167 281.389 619.373 341.595 693.641 341.595Z" fill="#B30078"/>
</g>
<defs>
<clipPath id="clip0_1_1358">
<rect width="1184" height="666" fill="white" transform="translate(0.5 0.671875)"/>
</clipPath>
</defs>
</svg>
