<svg width="1185" height="667" viewBox="0 0 1185 667" fill="none" xmlns="http://www.w3.org/2000/svg">
<g clip-path="url(#clip0_1_1342)">
<rect width="1184" height="666" transform="translate(0.5 0.890625)" fill="#F4F4EF"/>
<rect x="819" y="1.10547" width="368" height="668" fill="#E2D9FF"/>
<path fill-rule="evenodd" clip-rule="evenodd" d="M556.446 326.58C534.838 313.548 511.699 313.547 490.075 326.58L487.324 309.35C510.739 295.238 535.796 295.237 559.197 309.35C559.197 309.35 559.196 309.35 559.197 309.35L586.095 325.556C607.719 338.59 630.858 338.589 652.466 325.557L679.365 309.35C679.365 309.35 679.365 309.35 679.365 309.35C702.78 295.238 727.837 295.237 751.237 309.35C751.238 309.35 751.237 309.35 751.237 309.35L778.136 325.556C799.76 338.59 822.899 338.589 844.507 325.557L871.406 309.35C871.406 309.35 871.406 309.35 871.406 309.35C894.82 295.238 919.878 295.237 943.278 309.35C943.279 309.35 943.278 309.35 943.278 309.35L970.176 325.556C991.8 338.59 1014.94 338.589 1036.55 325.557L1063.45 309.35C1086.86 295.238 1111.92 295.237 1135.32 309.351L1132.57 326.58C1110.96 313.548 1087.82 313.547 1066.2 326.58L1039.3 342.786C1039.3 342.787 1039.3 342.786 1039.3 342.786C1015.9 356.899 990.841 356.899 967.426 342.787L940.529 326.581C918.921 313.548 895.78 313.547 874.157 326.58L847.259 342.786C823.858 356.9 798.801 356.899 775.386 342.787C775.386 342.787 775.386 342.787 775.386 342.787L748.488 326.581C726.88 313.548 703.74 313.547 682.116 326.58L655.218 342.786C631.817 356.9 606.76 356.899 583.345 342.787C583.345 342.787 583.345 342.787 583.345 342.787L556.446 326.58Z" fill="#F54BAC"/>
<path fill-rule="evenodd" clip-rule="evenodd" d="M556.446 393.142C534.838 380.11 511.699 380.11 490.075 393.143L487.324 375.913C510.739 361.8 535.796 361.8 559.197 375.912C559.197 375.913 559.196 375.912 559.197 375.912L586.095 392.119C607.719 405.152 630.858 405.152 652.466 392.12L679.365 375.913C679.365 375.913 679.365 375.913 679.365 375.913C702.78 361.801 727.837 361.8 751.237 375.912C751.238 375.913 751.237 375.912 751.237 375.912L778.136 392.119C799.76 405.152 822.899 405.152 844.507 392.12L871.406 375.913C871.406 375.913 871.406 375.913 871.406 375.913C894.82 361.801 919.878 361.8 943.278 375.912C943.279 375.913 943.278 375.912 943.278 375.912L970.176 392.119C991.8 405.152 1014.94 405.152 1036.55 392.12L1063.45 375.913C1086.86 361.8 1111.92 361.8 1135.32 375.913L1132.57 393.142C1110.96 380.11 1087.82 380.11 1066.2 393.143L1039.3 409.349C1039.3 409.349 1039.3 409.349 1039.3 409.349C1015.9 423.462 990.841 423.462 967.426 409.349L940.529 393.143C918.921 380.111 895.78 380.11 874.157 393.143L847.259 409.349C823.858 423.462 798.801 423.462 775.386 409.35C775.386 409.349 775.386 409.35 775.386 409.35L748.488 393.143C726.88 380.111 703.74 380.11 682.116 393.143L655.218 409.349C631.817 423.462 606.76 423.462 583.345 409.35C583.345 409.349 583.345 409.35 583.345 409.35L556.446 393.142Z" fill="#F54BAC"/>
<path fill-rule="evenodd" clip-rule="evenodd" d="M556.446 459.705C534.838 446.673 511.699 446.672 490.075 459.705L487.324 442.475C510.739 428.363 535.796 428.362 559.197 442.475C559.197 442.475 559.196 442.475 559.197 442.475L586.095 458.681C607.719 471.715 630.858 471.714 652.466 458.682L679.365 442.475C679.365 442.475 679.365 442.475 679.365 442.475C702.78 428.363 727.837 428.362 751.237 442.475C751.238 442.475 751.237 442.475 751.237 442.475L778.136 458.681C799.76 471.715 822.899 471.714 844.507 458.682L871.406 442.475C871.406 442.475 871.406 442.475 871.406 442.475C894.82 428.363 919.878 428.362 943.278 442.475C943.279 442.475 943.278 442.475 943.278 442.475L970.176 458.681C991.8 471.715 1014.94 471.714 1036.55 458.682L1063.45 442.475C1086.86 428.363 1111.92 428.362 1135.32 442.476L1132.57 459.705C1110.96 446.673 1087.82 446.672 1066.2 459.705L1039.3 475.911C1039.3 475.912 1039.3 475.911 1039.3 475.911C1015.9 490.024 990.841 490.024 967.426 475.912L940.529 459.706C918.921 446.673 895.78 446.672 874.157 459.705L847.259 475.911C823.858 490.025 798.801 490.024 775.386 475.912C775.386 475.912 775.386 475.912 775.386 475.912L748.488 459.706C726.88 446.673 703.74 446.672 682.116 459.705L655.218 475.911C631.817 490.025 606.76 490.024 583.345 475.912C583.345 475.912 583.345 475.912 583.345 475.912L556.446 459.705Z" fill="#F54BAC"/>
<path fill-rule="evenodd" clip-rule="evenodd" d="M556.446 526.267C534.838 513.235 511.699 513.235 490.075 526.268L487.324 509.038C510.739 494.925 535.796 494.925 559.197 509.037C559.197 509.038 559.196 509.037 559.197 509.037L586.095 525.244C607.719 538.277 630.858 538.277 652.466 525.245L679.365 509.038C679.365 509.038 679.365 509.038 679.365 509.038C702.78 494.926 727.837 494.925 751.237 509.037C751.238 509.038 751.237 509.037 751.237 509.037L778.136 525.244C799.76 538.277 822.899 538.277 844.507 525.245L871.406 509.038C871.406 509.038 871.406 509.038 871.406 509.038C894.82 494.926 919.878 494.925 943.278 509.037C943.279 509.038 943.278 509.037 943.278 509.037L970.176 525.244C991.8 538.277 1014.94 538.277 1036.55 525.245L1063.45 509.038C1086.86 494.925 1111.92 494.925 1135.32 509.038L1132.57 526.267C1110.96 513.235 1087.82 513.235 1066.2 526.268L1039.3 542.474C1039.3 542.474 1039.3 542.474 1039.3 542.474C1015.9 556.587 990.841 556.587 967.426 542.474L940.529 526.268C918.921 513.236 895.78 513.235 874.157 526.268L847.259 542.474C823.858 556.587 798.801 556.587 775.386 542.475C775.386 542.474 775.386 542.475 775.386 542.475L748.488 526.268C726.88 513.236 703.74 513.235 682.116 526.268L655.218 542.474C631.817 556.587 606.76 556.587 583.345 542.475C583.345 542.474 583.345 542.475 583.345 542.475L556.446 526.267Z" fill="#F54BAC"/>
<path fill-rule="evenodd" clip-rule="evenodd" d="M556.446 592.83C534.838 579.798 511.699 579.797 490.075 592.83L487.324 575.6C510.739 561.488 535.796 561.487 559.197 575.6C559.197 575.6 559.196 575.6 559.197 575.6L586.095 591.806C607.719 604.84 630.858 604.839 652.466 591.807L679.365 575.6C679.365 575.6 679.365 575.6 679.365 575.6C702.78 561.488 727.837 561.487 751.237 575.6C751.238 575.6 751.237 575.6 751.237 575.6L778.136 591.806C799.76 604.84 822.899 604.839 844.507 591.807L871.406 575.6C871.406 575.6 871.406 575.6 871.406 575.6C894.82 561.488 919.878 561.487 943.278 575.6C943.279 575.6 943.278 575.6 943.278 575.6L970.176 591.806C991.8 604.84 1014.94 604.839 1036.55 591.807L1063.45 575.6C1086.86 561.488 1111.92 561.487 1135.32 575.601L1132.57 592.83C1110.96 579.798 1087.82 579.797 1066.2 592.83L1039.3 609.036C1039.3 609.037 1039.3 609.036 1039.3 609.036C1015.9 623.149 990.841 623.149 967.426 609.037L940.529 592.831C918.921 579.798 895.78 579.797 874.157 592.83L847.259 609.036C823.858 623.15 798.801 623.149 775.386 609.037C775.386 609.037 775.386 609.037 775.386 609.037L748.488 592.831C726.88 579.798 703.74 579.797 682.116 592.83L655.218 609.036C631.817 623.15 606.76 623.149 583.345 609.037C583.345 609.037 583.345 609.037 583.345 609.037L556.446 592.83Z" fill="#F54BAC"/>
<path fill-rule="evenodd" clip-rule="evenodd" d="M99.9103 425.211C296.867 425.211 456.531 265.546 456.531 68.59C456.531 -128.366 296.867 -288.031 99.9103 -288.031C-97.0461 -288.031 -256.711 -128.366 -256.711 68.59C-256.711 265.546 -97.0461 425.211 99.9103 425.211ZM99.9103 362.278C262.11 362.278 393.598 230.79 393.598 68.59C393.598 -93.6101 262.11 -225.098 99.9103 -225.098C-62.2893 -225.098 -193.778 -93.6101 -193.778 68.59C-193.778 230.79 -62.2893 362.278 99.9103 362.278Z" fill="#B30078"/>
<circle cx="240.906" cy="578.801" r="29.0938" transform="rotate(-90 240.906 578.801)" fill="#393A3D"/>
<circle cx="240.906" cy="488.285" r="29.0938" transform="rotate(-90 240.906 488.285)" fill="#393A3D"/>
<circle cx="240.906" cy="397.773" r="29.0938" transform="rotate(-90 240.906 397.773)" fill="#393A3D"/>
<circle cx="240.906" cy="307.258" r="29.0938" transform="rotate(-90 240.906 307.258)" fill="#393A3D"/>
<circle cx="240.906" cy="216.746" r="29.0938" transform="rotate(-90 240.906 216.746)" fill="#393A3D"/>
<circle cx="240.906" cy="126.23" r="29.0938" transform="rotate(-90 240.906 126.23)" fill="#393A3D"/>
</g>
<defs>
<clipPath id="clip0_1_1342">
<rect width="1184" height="666" fill="white" transform="translate(0.5 0.890625)"/>
</clipPath>
</defs>
</svg>
