<svg width="1200" height="675" viewBox="0 0 1200 675" fill="none" xmlns="http://www.w3.org/2000/svg">
<g clip-path="url(#clip0_3_307)">
<rect width="1200" height="675" fill="#E2D9FF"/>
<path d="M248.047 672.029L938.469 1.39062H1197.93V672.029H248.047Z" fill="#F4F4EF"/>
<circle cx="803.391" cy="426.532" r="111.415" fill="#393A3D"/>
<circle cx="803.385" cy="426.532" r="111.415" fill="#393A3D"/>
<circle cx="134.253" cy="104.741" r="50.327" fill="#393A3D"/>
<circle cx="914.802" cy="343.503" r="50.327" fill="#393A3D"/>
<circle cx="265.98" cy="611.926" r="123.226" fill="#393A3D"/>
<circle cx="607.591" cy="575.896" r="15.7828" fill="#393A3D"/>
<circle cx="1104.18" cy="67.288" r="28.3193" fill="#393A3D"/>
<circle cx="1079.64" cy="501.732" r="58.3806" fill="#393A3D"/>
<circle cx="984.352" cy="371.823" r="28.3193" fill="#393A3D"/>
<circle cx="645.379" cy="193.164" r="22.0077" fill="#393A3D"/>
<circle cx="730.272" cy="604.218" r="28.3193" fill="#393A3D"/>
<circle cx="171.073" cy="164.847" r="28.3193" fill="#393A3D"/>
<circle cx="14.6317" cy="365.511" r="103.015" fill="#393A3D"/>
<circle cx="1163.64" cy="155.07" r="87.7806" fill="#393A3D"/>
<circle cx="281.284" cy="293.175" r="50.327" fill="#393A3D"/>
<circle cx="241.64" cy="17.8042" r="107.39" fill="#393A3D"/>
<circle cx="918.267" cy="783.323" r="245.374" fill="#393A3D"/>
<rect x="-199.441" y="665.258" width="1543.1" height="69.67" transform="rotate(-45 -199.441 665.258)" fill="#F54BAC"/>
<rect x="-100.914" y="763.785" width="1543.1" height="69.67" transform="rotate(-45 -100.914 763.785)" fill="#F54BAC"/>
<rect x="-2.38281" y="862.312" width="1543.1" height="69.67" transform="rotate(-45 -2.38281 862.312)" fill="#F54BAC"/>
</g>
<defs>
<clipPath id="clip0_3_307">
<rect width="1200" height="675" fill="white"/>
</clipPath>
</defs>
</svg>
