<svg width="1185" height="667" viewBox="0 0 1185 667" fill="none" xmlns="http://www.w3.org/2000/svg">
<g clip-path="url(#clip0_1_1870)">
<rect width="1184" height="666" transform="translate(0.332031 0.5625)" fill="#E2D9FF"/>
<path d="M0.332031 132.711C98.8699 263.489 151.11 266.76 241.012 194.99L241.012 668.345H0.332031V132.711Z" fill="#F54BAC"/>
<path d="M692.938 84.0391C938.559 84.0391 966.029 288.096 1191.89 235.73V668.342H692.938V84.0391Z" fill="#D9D9D9"/>
<rect x="682.852" y="1164.6" width="1082.37" height="15.9012" transform="rotate(-90 682.852 1164.6)" fill="#F54BAC"/>
<rect x="714.555" y="1164.6" width="1082.37" height="15.9012" transform="rotate(-90 714.555 1164.6)" fill="#F54BAC"/>
<rect x="746.254" y="1228.16" width="1141.75" height="15.9012" transform="rotate(-90 746.254 1228.16)" fill="#F54BAC"/>
<rect x="777.957" y="1228.16" width="1141.75" height="15.9012" transform="rotate(-90 777.957 1228.16)" fill="#F54BAC"/>
<rect x="809.66" y="1228.16" width="1141.75" height="15.9012" transform="rotate(-90 809.66 1228.16)" fill="#F54BAC"/>
<rect x="841.363" y="1228.16" width="1141.75" height="15.9012" transform="rotate(-90 841.363 1228.16)" fill="#F54BAC"/>
<rect x="873.062" y="1228.16" width="1141.75" height="15.9012" transform="rotate(-90 873.062 1228.16)" fill="#F54BAC"/>
<rect x="904.766" y="1228.16" width="1091.63" height="15.9012" transform="rotate(-90 904.766 1228.16)" fill="#F54BAC"/>
<rect x="936.469" y="1164.6" width="1024.15" height="15.9012" transform="rotate(-90 936.469 1164.6)" fill="#F54BAC"/>
<rect x="968.172" y="1164.6" width="1024.15" height="15.9012" transform="rotate(-90 968.172 1164.6)" fill="#F54BAC"/>
<rect x="999.875" y="1228.16" width="1024.15" height="15.9012" transform="rotate(-90 999.875 1228.16)" fill="#F54BAC"/>
<rect x="1031.57" y="1228.16" width="1024.15" height="15.9012" transform="rotate(-90 1031.57 1228.16)" fill="#F54BAC"/>
<rect x="1063.28" y="1228.16" width="1024.15" height="15.9012" transform="rotate(-90 1063.28 1228.16)" fill="#F54BAC"/>
<rect x="1094.98" y="1228.16" width="1024.15" height="15.9012" transform="rotate(-90 1094.98 1228.16)" fill="#F54BAC"/>
<rect x="1126.68" y="1228.16" width="1024.15" height="15.9012" transform="rotate(-90 1126.68 1228.16)" fill="#F54BAC"/>
<rect x="1158.38" y="1228.16" width="1024.15" height="15.9012" transform="rotate(-90 1158.38 1228.16)" fill="#F54BAC"/>
<rect x="698.699" y="1474.6" width="1082.37" height="15.9012" transform="rotate(-90 698.699 1474.6)" fill="#B30078"/>
<rect x="730.402" y="1474.6" width="1082.37" height="15.9012" transform="rotate(-90 730.402 1474.6)" fill="#B30078"/>
<rect x="762.102" y="1538.16" width="1141.75" height="15.9012" transform="rotate(-90 762.102 1538.16)" fill="#B30078"/>
<rect x="793.805" y="1538.16" width="1141.75" height="15.9012" transform="rotate(-90 793.805 1538.16)" fill="#B30078"/>
<rect x="825.508" y="1538.16" width="1141.75" height="15.9012" transform="rotate(-90 825.508 1538.16)" fill="#B30078"/>
<rect x="857.211" y="1538.16" width="1141.75" height="15.9012" transform="rotate(-90 857.211 1538.16)" fill="#B30078"/>
<rect x="888.91" y="1538.16" width="1107.5" height="15.9012" transform="rotate(-90 888.91 1538.16)" fill="#B30078"/>
<rect x="920.613" y="1538.16" width="1091.63" height="15.9012" transform="rotate(-90 920.613 1538.16)" fill="#B30078"/>
<rect x="952.316" y="1474.6" width="1024.15" height="15.9012" transform="rotate(-90 952.316 1474.6)" fill="#B30078"/>
<rect x="984.02" y="1474.6" width="992.538" height="15.9012" transform="rotate(-90 984.02 1474.6)" fill="#B30078"/>
<rect x="1015.72" y="1538.16" width="1024.15" height="15.9012" transform="rotate(-90 1015.72 1538.16)" fill="#B30078"/>
<rect x="1047.42" y="1538.16" width="1024.15" height="15.9012" transform="rotate(-90 1047.42 1538.16)" fill="#B30078"/>
<rect x="1079.12" y="1538.16" width="1024.15" height="15.9012" transform="rotate(-90 1079.12 1538.16)" fill="#B30078"/>
<rect x="1110.83" y="1538.16" width="1024.15" height="15.9012" transform="rotate(-90 1110.83 1538.16)" fill="#B30078"/>
<rect x="1142.53" y="1538.16" width="986.445" height="15.9012" transform="rotate(-90 1142.53 1538.16)" fill="#B30078"/>
<rect x="1174.23" y="1538.16" width="967.733" height="15.9012" transform="rotate(-90 1174.23 1538.16)" fill="#B30078"/>
<path fill-rule="evenodd" clip-rule="evenodd" d="M-915.816 156.577C-1016.08 96.108 -1123.44 96.1056 -1223.78 156.58L-1236.54 76.6322C-1127.9 11.1507 -1011.63 11.147 -903.052 76.631C-903.05 76.6322 -903.054 76.6298 -903.052 76.631L-778.244 151.829C-677.909 212.303 -570.542 212.302 -470.281 151.833L-345.47 76.6322C-345.469 76.6318 -345.47 76.6326 -345.47 76.6322C-236.827 11.1518 -120.561 11.1474 -11.9823 76.631C-11.9803 76.6322 -11.9843 76.6298 -11.9823 76.631L112.825 151.829C213.161 212.303 320.527 212.302 420.788 151.833L545.6 76.6322C545.6 76.6318 545.599 76.6326 545.6 76.6322C654.243 11.1518 770.508 11.1474 879.087 76.631C879.089 76.6321 879.085 76.6298 879.087 76.631L1003.89 151.829C1104.23 212.303 1211.6 212.302 1311.86 151.833L1436.67 76.6322C1545.31 11.1495 1661.58 11.147 1770.16 76.6345L1757.39 156.577C1657.13 96.108 1549.77 96.1056 1449.43 156.58L1324.63 231.775C1324.63 231.777 1324.63 231.774 1324.63 231.775C1216.05 297.259 1099.78 297.259 991.134 231.778L866.328 156.581C766.067 96.1115 658.697 96.1056 558.362 156.58L433.558 231.775C324.977 297.263 208.712 297.261 100.067 231.779C100.066 231.779 100.068 231.779 100.067 231.779L-24.7407 156.581C-125.002 96.1115 -232.372 96.1056 -332.707 156.58L-457.511 231.775C-566.092 297.263 -682.358 297.26 -791.002 231.779C-791.003 231.779 -791.002 231.779 -791.002 231.779L-915.816 156.577Z" fill="#393A3D"/>
<path fill-rule="evenodd" clip-rule="evenodd" d="M-915.816 465.425C-1016.08 404.956 -1123.44 404.953 -1223.78 465.427L-1236.54 385.48C-1127.9 319.998 -1011.63 319.995 -903.052 385.479C-903.05 385.48 -903.054 385.477 -903.052 385.479L-778.244 460.677C-677.909 521.151 -570.542 521.15 -470.281 460.68L-345.47 385.48C-345.469 385.479 -345.47 385.48 -345.47 385.48C-236.827 319.999 -120.561 319.995 -11.9823 385.479C-11.9803 385.48 -11.9843 385.477 -11.9823 385.479L112.825 460.677C213.161 521.151 320.527 521.15 420.788 460.68L545.6 385.48C545.6 385.479 545.599 385.48 545.6 385.48C654.243 319.999 770.508 319.995 879.087 385.479C879.089 385.48 879.085 385.477 879.087 385.479L1003.89 460.677C1104.23 521.151 1211.6 521.15 1311.86 460.68L1436.67 385.48C1545.31 319.997 1661.58 319.995 1770.16 385.482L1757.39 465.425C1657.13 404.956 1549.77 404.953 1449.43 465.427L1324.63 540.623C1324.63 540.624 1324.63 540.622 1324.63 540.623C1216.05 606.107 1099.78 606.107 991.134 540.625L866.328 465.428C766.067 404.959 658.697 404.953 558.362 465.427L433.558 540.623C324.977 606.11 208.712 606.108 100.067 540.627C100.066 540.626 100.068 540.627 100.067 540.627L-24.7407 465.428C-125.002 404.959 -232.372 404.953 -332.707 465.427L-457.511 540.623C-566.092 606.11 -682.358 606.108 -791.002 540.627C-791.003 540.626 -791.002 540.627 -791.002 540.627L-915.816 465.425Z" fill="#393A3D"/>
</g>
<defs>
<clipPath id="clip0_1_1870">
<rect width="1184" height="666" fill="white" transform="translate(0.332031 0.5625)"/>
</clipPath>
</defs>
</svg>
