<svg width="1200" height="675" viewBox="0 0 1200 675" fill="none" xmlns="http://www.w3.org/2000/svg">
<g clip-path="url(#clip0_3_871)">
<rect width="1200" height="675" fill="#F4F4EF"/>
<path fill-rule="evenodd" clip-rule="evenodd" d="M748.809 29.4356C763.806 4.56943 763.808 -22.0596 748.808 -46.9462L790.181 -53.5508C807.772 -24.3646 807.774 6.86996 790.182 36.041C790.181 36.0413 790.182 36.0408 790.182 36.041C790.181 36.0418 790.18 36.0433 790.18 36.0441L770.724 68.3351C755.724 93.2218 755.725 119.852 770.722 144.718L770.724 144.721L790.181 177.014C790.181 177.014 790.181 177.014 790.181 177.014C807.771 206.2 807.774 237.435 790.182 266.606C790.181 266.607 790.18 266.608 790.18 266.609L770.724 298.9C755.724 323.787 755.725 350.417 770.722 375.283L770.724 375.286L790.181 407.579C790.181 407.579 790.181 407.579 790.181 407.579C807.771 436.765 807.774 468 790.182 497.171C790.181 497.172 790.18 497.173 790.18 497.174L770.724 529.465C755.724 554.351 755.725 580.982 770.722 605.848L770.724 605.851L790.181 638.144C790.181 638.144 790.181 638.143 790.181 638.144C807.772 667.331 807.774 698.567 790.18 727.739L748.809 721.13C763.806 696.264 763.808 669.635 748.808 644.748L729.352 612.456C729.351 612.455 729.35 612.454 729.35 612.453C711.757 583.282 711.759 552.047 729.35 522.861L748.807 490.568L748.809 490.565C763.806 465.699 763.808 439.07 748.808 414.183L729.352 381.891C729.351 381.89 729.35 381.889 729.35 381.888C711.758 352.718 711.759 321.483 729.35 292.298C729.35 292.297 729.35 292.298 729.35 292.298L748.809 260C763.806 235.134 763.808 208.505 748.808 183.619L729.352 151.327C729.351 151.326 729.35 151.324 729.35 151.323C711.758 122.153 711.759 90.9185 729.35 61.7327C729.35 61.7323 729.35 61.733 729.35 61.7327L748.809 29.4356Z" fill="#B30078"/>
<path fill-rule="evenodd" clip-rule="evenodd" d="M661.54 29.1426C676.537 4.27646 676.538 -22.3525 661.538 -47.2392L702.911 -53.8438C720.502 -24.6576 720.504 6.57699 702.912 35.7481C702.912 35.7483 702.912 35.7478 702.912 35.7481C702.912 35.7489 702.911 35.7503 702.91 35.7511L683.454 68.0422C668.455 92.9288 668.455 119.559 683.453 144.425L683.454 144.428L702.911 176.721C702.912 176.721 702.911 176.721 702.911 176.721C720.502 205.907 720.504 237.142 702.912 266.313C702.911 266.314 702.911 266.315 702.91 266.316L683.454 298.607C668.455 323.494 668.455 350.124 683.453 374.99L683.454 374.993L702.911 407.286C702.912 407.286 702.911 407.286 702.911 407.286C720.502 436.472 720.504 467.707 702.912 496.878C702.911 496.879 702.911 496.88 702.91 496.881L683.454 529.172C668.455 554.058 668.455 580.689 683.453 605.555L683.454 605.558L702.911 637.851C702.912 637.851 702.911 637.85 702.911 637.851C720.502 667.038 720.504 698.274 702.91 727.446L661.54 720.837C676.537 695.971 676.538 669.342 661.538 644.455L642.082 612.163C642.081 612.162 642.081 612.161 642.08 612.16C624.488 582.989 624.49 551.755 642.081 522.568L661.538 490.275L661.54 490.272C676.537 465.406 676.538 438.777 661.538 413.89L642.082 381.598C642.081 381.597 642.081 381.596 642.08 381.595C624.488 352.425 624.49 321.19 642.08 292.005C642.08 292.004 642.08 292.005 642.08 292.005L661.54 259.707C676.537 234.841 676.538 208.212 661.538 183.326L642.082 151.034C642.081 151.033 642.081 151.032 642.08 151.031C624.488 121.86 624.49 90.6256 642.08 61.4397C642.08 61.4394 642.08 61.4401 642.08 61.4397L661.54 29.1426Z" fill="#B30078"/>
<path fill-rule="evenodd" clip-rule="evenodd" d="M588.979 29.4356C603.976 4.56943 603.978 -22.0596 588.978 -46.9462L630.351 -53.5508C647.942 -24.3646 647.944 6.86996 630.351 36.041C630.351 36.0413 630.352 36.0408 630.351 36.041C630.351 36.0418 630.35 36.0433 630.35 36.0441L610.894 68.3351C595.894 93.2218 595.895 119.852 610.892 144.718L610.894 144.721L630.351 177.014C630.351 177.014 630.351 177.014 630.351 177.014C647.941 206.2 647.944 237.435 630.351 266.606C630.351 266.607 630.35 266.608 630.35 266.609L610.894 298.9C595.894 323.787 595.895 350.417 610.892 375.283L610.894 375.286L630.351 407.579C630.351 407.579 630.351 407.579 630.351 407.579C647.941 436.765 647.944 468 630.351 497.171C630.351 497.172 630.35 497.173 630.35 497.174L610.894 529.465C595.894 554.351 595.895 580.982 610.892 605.848L610.894 605.851L630.351 638.144C630.351 638.144 630.351 638.143 630.351 638.144C647.942 667.331 647.944 698.567 630.35 727.739L588.979 721.13C603.976 696.264 603.978 669.635 588.978 644.748L569.522 612.456C569.521 612.455 569.52 612.454 569.52 612.453C551.927 583.282 551.929 552.047 569.52 522.861L588.977 490.568L588.979 490.565C603.976 465.699 603.978 439.07 588.978 414.183L569.522 381.891C569.521 381.89 569.52 381.889 569.52 381.888C551.928 352.718 551.929 321.483 569.52 292.298C569.52 292.297 569.519 292.298 569.52 292.298L588.979 260C603.976 235.134 603.978 208.505 588.978 183.619L569.522 151.327C569.521 151.326 569.52 151.324 569.52 151.323C551.928 122.153 551.929 90.9185 569.52 61.7327C569.52 61.7323 569.519 61.733 569.52 61.7327L588.979 29.4356Z" fill="#F54BAC"/>
<path fill-rule="evenodd" clip-rule="evenodd" d="M509.065 29.4356C524.062 4.56943 524.064 -22.0596 509.064 -46.9462L550.437 -53.5508C568.028 -24.3646 568.03 6.86996 550.437 36.041C550.437 36.0413 550.438 36.0408 550.437 36.041C550.437 36.0418 550.436 36.0433 550.436 36.0441L530.98 68.3351C515.98 93.2218 515.981 119.852 530.978 144.718L530.98 144.721L550.437 177.014C550.437 177.014 550.437 177.014 550.437 177.014C568.027 206.2 568.029 237.435 550.437 266.606C550.437 266.607 550.436 266.608 550.436 266.609L530.98 298.9C515.98 323.787 515.981 350.417 530.978 375.283L530.98 375.286L550.437 407.579C550.437 407.579 550.437 407.579 550.437 407.579C568.027 436.765 568.03 468 550.437 497.171C550.437 497.172 550.436 497.173 550.436 497.174L530.98 529.465C515.98 554.351 515.981 580.982 530.978 605.848L530.98 605.851L550.437 638.144C550.437 638.144 550.437 638.143 550.437 638.144C568.028 667.331 568.029 698.567 550.436 727.739L509.065 721.13C524.062 696.264 524.064 669.635 509.064 644.748L489.607 612.456C489.607 612.455 489.606 612.454 489.606 612.453C472.013 583.282 472.015 552.047 489.606 522.861L509.063 490.568L509.065 490.565C524.062 465.699 524.064 439.07 509.064 414.183L489.607 381.891C489.607 381.89 489.606 381.889 489.606 381.888C472.013 352.718 472.015 321.483 489.606 292.298C489.606 292.297 489.605 292.298 489.606 292.298L509.065 260C524.062 235.134 524.064 208.505 509.064 183.619L489.607 151.327C489.607 151.326 489.606 151.324 489.606 151.323C472.013 122.153 472.015 90.9185 489.606 61.7327C489.606 61.7323 489.605 61.733 489.606 61.7327L509.065 29.4356Z" fill="#B30078"/>
<path fill-rule="evenodd" clip-rule="evenodd" d="M429.149 29.4356C444.146 4.56943 444.148 -22.0596 429.148 -46.9462L470.521 -53.5508C488.112 -24.3646 488.114 6.86996 470.521 36.041C470.521 36.0413 470.522 36.0408 470.521 36.041C470.521 36.0418 470.52 36.0433 470.52 36.0441L451.064 68.3351C436.064 93.2218 436.065 119.852 451.062 144.718L451.064 144.721L470.521 177.014C470.521 177.014 470.521 177.014 470.521 177.014C488.111 206.2 488.113 237.435 470.521 266.606C470.521 266.607 470.52 266.608 470.52 266.609L451.064 298.9C436.064 323.787 436.065 350.417 451.062 375.283L451.064 375.286L470.521 407.579C470.521 407.579 470.521 407.579 470.521 407.579C488.111 436.765 488.113 468 470.521 497.171C470.521 497.172 470.52 497.173 470.52 497.174L451.064 529.465C436.064 554.351 436.065 580.982 451.062 605.848L451.064 605.851L470.521 638.144C470.521 638.144 470.521 638.143 470.521 638.144C488.112 667.331 488.113 698.567 470.52 727.739L429.149 721.13C444.146 696.264 444.147 669.635 429.148 644.748L409.691 612.456C409.691 612.455 409.69 612.454 409.69 612.453C392.097 583.282 392.099 552.047 409.69 522.861L429.147 490.568L429.149 490.565C444.146 465.699 444.148 439.07 429.148 414.183L409.691 381.891C409.691 381.89 409.69 381.889 409.69 381.888C392.097 352.718 392.099 321.483 409.69 292.298C409.69 292.297 409.689 292.298 409.69 292.298L429.149 260C444.146 235.134 444.148 208.505 429.148 183.619L409.691 151.327C409.691 151.326 409.69 151.324 409.69 151.323C392.097 122.153 392.099 90.9185 409.69 61.7327C409.69 61.7323 409.689 61.733 409.69 61.7327L429.149 29.4356Z" fill="#B30078"/>
<rect x="-1.5" y="332.875" width="1185" height="668" fill="#E2D9FF"/>
<path d="M803.502 666.875C803.502 549.791 708.586 454.875 591.502 454.875C474.418 454.875 379.502 549.791 379.502 666.875L462.639 666.875C462.639 595.706 520.333 538.012 591.502 538.012C662.671 538.012 720.365 595.706 720.365 666.875L803.502 666.875Z" fill="#F54BAC"/>
<circle cx="1023.09" cy="559.664" r="29.0938" transform="rotate(-90 1023.09 559.664)" fill="#393A3D"/>
<circle cx="1023.09" cy="469.148" r="29.0938" transform="rotate(-90 1023.09 469.148)" fill="#393A3D"/>
<circle cx="1023.09" cy="378.637" r="29.0938" transform="rotate(-90 1023.09 378.637)" fill="#393A3D"/>
<circle cx="1023.09" cy="288.121" r="29.0938" transform="rotate(-90 1023.09 288.121)" fill="#393A3D"/>
<circle cx="1023.09" cy="197.609" r="29.0938" transform="rotate(-90 1023.09 197.609)" fill="#393A3D"/>
<circle cx="1023.09" cy="107.094" r="29.0938" transform="rotate(-90 1023.09 107.094)" fill="#393A3D"/>
</g>
<defs>
<clipPath id="clip0_3_871">
<rect width="1200" height="675" fill="white"/>
</clipPath>
</defs>
</svg>
