<svg width="1184" height="667" viewBox="0 0 1184 667" fill="none" xmlns="http://www.w3.org/2000/svg">
<g clip-path="url(#clip0_1_1767)">
<rect width="1184" height="666" transform="translate(0 0.105469)" fill="#E2D9FF"/>
<path d="M1211.49 -105.539V713.555H392.398L1211.49 -105.539Z" fill="#F4F4EF"/>
<path d="M774.092 65.3382L661.361 -28.5734L800.01 -79.0775L774.092 65.3382Z" fill="#B30078"/>
<circle cx="756.264" cy="94.4983" r="11.1116" fill="black"/>
<circle cx="790.834" cy="94.4983" r="11.1116" fill="black"/>
<circle cx="825.409" cy="94.4983" r="11.1116" fill="black"/>
<circle cx="859.975" cy="94.4983" r="11.1116" fill="black"/>
<circle cx="894.545" cy="94.4983" r="11.1116" fill="black"/>
<circle cx="929.112" cy="94.4983" r="11.1116" fill="black"/>
<path d="M745.284 330.219L626.583 126.18L863.985 126.18L745.284 330.219Z" fill="#F54BAC"/>
<path d="M745.282 278.742L671.502 151.919L819.063 151.919L745.282 278.742Z" fill="#B30078"/>
<circle cx="797.053" cy="300.815" r="11.1116" fill="black"/>
<circle cx="831.627" cy="300.815" r="11.1116" fill="black"/>
<circle cx="866.198" cy="300.815" r="11.1116" fill="black"/>
<circle cx="900.764" cy="300.815" r="11.1116" fill="black"/>
<circle cx="935.334" cy="300.815" r="11.1116" fill="black"/>
<circle cx="969.901" cy="300.815" r="11.1116" fill="black"/>
<path d="M745.284 538.516L626.583 334.477L863.985 334.477L745.284 538.516Z" fill="#F54BAC"/>
<path d="M745.282 487.039L671.502 360.216L819.063 360.216L745.282 487.039Z" fill="#E2D9FF"/>
<path d="M773.233 801.813L654.532 597.774L891.934 597.774L773.233 801.813Z" fill="#F54BAC"/>
<path d="M773.228 750.336L699.447 623.513L847.008 623.513L773.228 750.336Z" fill="#B30078"/>
<circle cx="629.346" cy="570.127" r="11.1116" fill="black"/>
<circle cx="663.916" cy="570.127" r="11.1116" fill="black"/>
<circle cx="698.491" cy="570.127" r="11.1116" fill="black"/>
<circle cx="733.057" cy="570.127" r="11.1116" fill="black"/>
<circle cx="767.627" cy="570.127" r="11.1116" fill="black"/>
<circle cx="802.194" cy="570.127" r="11.1116" fill="black"/>
<path d="M1038.2 187.012L919.497 -17.0268L1156.9 -17.0268L1038.2 187.012Z" fill="#F54BAC"/>
<path d="M1115.69 329.066L996.176 243.947L1130.61 183.104L1115.69 329.066Z" fill="#B30078"/>
<circle cx="1049.19" cy="375.307" r="11.1116" fill="black"/>
<circle cx="1083.76" cy="375.307" r="11.1116" fill="black"/>
<circle cx="1118.33" cy="375.307" r="11.1116" fill="black"/>
<circle cx="1152.9" cy="375.307" r="11.1116" fill="black"/>
<circle cx="1187.47" cy="375.307" r="11.1116" fill="black"/>
<path d="M979.109 518.046L960.918 372.455L1096.68 430.27L979.109 518.046Z" fill="#B30078"/>
<path d="M1038.19 756.844L964.412 630.021L1111.97 630.021L1038.19 756.844Z" fill="#B30078"/>
<path d="M484.909 232.578L366.208 28.5396L603.61 28.5396L484.909 232.578Z" fill="#F54BAC"/>
<path d="M484.907 181.102L411.127 54.2784L558.688 54.2784L484.907 181.102Z" fill="#B30078"/>
<path d="M412.99 408.26L384.017 262.352L525.508 310.955L412.99 408.26Z" fill="#F54BAC"/>
<path d="M559.993 649.783L392.528 483.419L621.84 421.975L559.993 649.783Z" fill="#F54BAC"/>
<path d="M546.666 600.062L442.575 496.656L585.108 458.464L546.666 600.062Z" fill="#B30078"/>
<path d="M191.991 134.938L73.2896 -69.101L310.692 -69.101L191.991 134.938Z" fill="#F54BAC"/>
<path d="M191.993 83.4609L118.213 -43.3622L265.774 -43.3622L191.993 83.4609Z" fill="#B30078"/>
<path d="M103.826 283.583L65.3839 141.985L207.917 180.177L103.826 283.583Z" fill="#B30078"/>
<circle cx="257.323" cy="224.241" r="11.1116" fill="black"/>
<circle cx="291.893" cy="224.241" r="11.1116" fill="black"/>
<circle cx="326.467" cy="224.241" r="11.1116" fill="black"/>
<circle cx="361.034" cy="224.241" r="11.1116" fill="black"/>
<circle cx="395.604" cy="224.241" r="11.1116" fill="black"/>
<circle cx="430.17" cy="224.241" r="11.1116" fill="black"/>
<circle cx="502.885" cy="268.389" r="11.1116" fill="black"/>
<circle cx="537.455" cy="268.389" r="11.1116" fill="black"/>
<circle cx="572.03" cy="268.389" r="11.1116" fill="black"/>
<circle cx="606.592" cy="268.389" r="11.1116" fill="black"/>
<circle cx="641.166" cy="268.389" r="11.1116" fill="black"/>
<circle cx="675.733" cy="268.389" r="11.1116" fill="black"/>
<path d="M191.991 547.949L73.2896 343.911L310.692 343.911L191.991 547.949Z" fill="#F54BAC"/>
<path d="M191.993 496.473L118.213 369.65L265.774 369.649L191.993 496.473Z" fill="#E2D9FF"/>
<circle cx="153.772" cy="297.698" r="11.1116" fill="black"/>
<circle cx="188.342" cy="297.698" r="11.1116" fill="black"/>
<circle cx="222.916" cy="297.698" r="11.1116" fill="black"/>
<circle cx="257.483" cy="297.698" r="11.1116" fill="black"/>
<circle cx="292.053" cy="297.698" r="11.1116" fill="black"/>
<circle cx="326.619" cy="297.698" r="11.1116" fill="black"/>
<path d="M191.991 750.332L73.2896 546.294L310.692 546.293L191.991 750.332Z" fill="#F54BAC"/>
<path d="M191.993 698.855L118.213 572.032L265.774 572.032L191.993 698.855Z" fill="#B30078"/>
<circle cx="22.514" cy="529.756" r="11.1116" fill="black"/>
<circle cx="57.0804" cy="529.756" r="11.1116" fill="black"/>
<circle cx="91.6507" cy="529.756" r="11.1116" fill="black"/>
<circle cx="126.217" cy="529.756" r="11.1116" fill="black"/>
</g>
<defs>
<clipPath id="clip0_1_1767">
<rect width="1184" height="666" fill="white" transform="translate(0 0.105469)"/>
</clipPath>
</defs>
</svg>
