<svg width="1200" height="675" viewBox="0 0 1200 675" fill="none" xmlns="http://www.w3.org/2000/svg">
<g clip-path="url(#clip0_3_784)">
<rect width="1200" height="675" fill="#E2D9FF"/>
<rect x="615" width="572" height="668" fill="#F4F4EF"/>
<path fill-rule="evenodd" clip-rule="evenodd" d="M974.816 -20.2035C964.803 -28.5175 954.081 -28.5182 944.06 -20.2028L941.4 -43.1387C953.153 -52.8907 965.73 -52.8917 977.476 -43.1391C977.476 -43.139 977.476 -43.1391 977.476 -43.1391C977.476 -43.1388 977.477 -43.1383 977.477 -43.138L990.48 -32.3524C1000.5 -24.037 1011.22 -24.0373 1021.24 -32.3513L1021.24 -32.3524L1034.24 -43.1387C1034.24 -43.1388 1034.24 -43.1386 1034.24 -43.1387C1045.99 -52.8903 1058.57 -52.8916 1070.32 -43.1391C1070.32 -43.1387 1070.32 -43.1384 1070.32 -43.138L1083.32 -32.3524C1093.34 -24.037 1104.06 -24.0373 1114.08 -32.3513L1114.08 -32.3524L1127.08 -43.1387C1127.08 -43.1388 1127.08 -43.1386 1127.08 -43.1387C1138.83 -52.8903 1151.41 -52.8916 1163.16 -43.1391C1163.16 -43.1387 1163.16 -43.1384 1163.16 -43.138L1176.16 -32.3524C1186.18 -24.037 1196.91 -24.0373 1206.92 -32.3513L1206.92 -32.3524L1219.92 -43.1387C1219.92 -43.1388 1219.92 -43.1386 1219.92 -43.1387C1231.68 -52.8907 1244.25 -52.8916 1256 -43.138L1253.34 -20.2035C1243.33 -28.5175 1232.6 -28.5182 1222.58 -20.2028L1209.58 -9.41677C1209.58 -9.41643 1209.58 -9.41609 1209.58 -9.41576C1197.83 0.336913 1185.25 0.335874 1173.5 -9.4161L1160.5 -20.2025L1160.5 -20.2035C1150.48 -28.5175 1139.76 -28.5182 1129.74 -20.2028L1116.74 -9.41677C1116.74 -9.41643 1116.74 -9.41609 1116.74 -9.41576C1104.99 0.336798 1092.41 0.335874 1080.66 -9.41576C1080.66 -9.41587 1080.66 -9.41564 1080.66 -9.41576L1067.66 -20.2035C1057.64 -28.5175 1046.92 -28.5182 1036.9 -20.2028L1023.9 -9.41677C1023.9 -9.41643 1023.9 -9.41609 1023.9 -9.41576C1012.15 0.336798 999.573 0.335874 987.821 -9.41576C987.821 -9.41587 987.821 -9.41564 987.821 -9.41576L974.816 -20.2035Z" fill="#393A3D"/>
<path fill-rule="evenodd" clip-rule="evenodd" d="M974.816 24.0973C964.803 15.7833 954.081 15.7826 944.06 24.098L941.4 1.16207C953.153 -8.58991 965.73 -8.59094 977.476 1.16172C977.476 1.1618 977.476 1.16164 977.476 1.16172C977.476 1.16198 977.477 1.16248 977.477 1.16274L990.48 11.9484C1000.5 20.2638 1011.22 20.2635 1021.24 11.9494L1021.24 11.9484L1034.24 1.16207C1034.24 1.16195 1034.24 1.16219 1034.24 1.16207C1045.99 -8.58956 1058.57 -8.59082 1070.32 1.16172C1070.32 1.16206 1070.32 1.1624 1070.32 1.16274L1083.32 11.9484C1093.34 20.2638 1104.06 20.2635 1114.08 11.9494L1114.08 11.9484L1127.08 1.16207C1127.08 1.16196 1127.08 1.16218 1127.08 1.16207C1138.83 -8.58957 1151.41 -8.59083 1163.16 1.16172C1163.16 1.16206 1163.16 1.1624 1163.16 1.16274L1176.16 11.9484C1186.18 20.2638 1196.91 20.2635 1206.92 11.9494L1206.92 11.9484L1219.92 1.16207C1219.92 1.16196 1219.92 1.16218 1219.92 1.16207C1231.68 -8.5899 1244.25 -8.59083 1256 1.16274L1253.34 24.0973C1243.33 15.7833 1232.6 15.7826 1222.58 24.098L1209.58 34.884C1209.58 34.8844 1209.58 34.8847 1209.58 34.885C1197.83 44.6377 1185.25 44.6367 1173.5 34.8847L1160.5 24.0983L1160.5 24.0973C1150.48 15.7833 1139.76 15.7826 1129.74 24.098L1116.74 34.884C1116.74 34.8844 1116.74 34.8847 1116.74 34.885C1104.99 44.6376 1092.41 44.6367 1080.66 34.885C1080.66 34.8849 1080.66 34.8851 1080.66 34.885L1067.66 24.0973C1057.64 15.7833 1046.92 15.7826 1036.9 24.098L1023.9 34.884C1023.9 34.8844 1023.9 34.8847 1023.9 34.885C1012.15 44.6376 999.573 44.6367 987.821 34.885C987.821 34.8849 987.821 34.8851 987.821 34.885L974.816 24.0973Z" fill="#393A3D"/>
<path fill-rule="evenodd" clip-rule="evenodd" d="M974.816 68.402C964.803 60.088 954.081 60.0873 944.06 68.4027L941.4 45.4668C953.153 35.7148 965.73 35.7137 977.476 45.4664C977.476 45.4665 977.476 45.4663 977.476 45.4664C977.476 45.4667 977.477 45.4672 977.477 45.4674L990.48 56.2531C1000.5 64.5685 1011.22 64.5681 1021.24 56.2541L1021.24 56.2531L1034.24 45.4668C1034.24 45.4666 1034.24 45.4669 1034.24 45.4668C1045.99 35.7151 1058.57 35.7139 1070.32 45.4664C1070.32 45.4668 1070.32 45.4671 1070.32 45.4674L1083.32 56.2531C1093.34 64.5685 1104.06 64.5681 1114.08 56.2541L1114.08 56.2531L1127.08 45.4668C1127.08 45.4666 1127.08 45.4669 1127.08 45.4668C1138.83 35.7151 1151.41 35.7139 1163.16 45.4664C1163.16 45.4667 1163.16 45.4671 1163.16 45.4674L1176.16 56.2531C1186.18 64.5685 1196.91 64.5681 1206.92 56.2541L1206.92 56.2531L1219.92 45.4668C1219.92 45.4666 1219.92 45.4669 1219.92 45.4668C1231.68 35.7148 1244.25 35.7139 1256 45.4674L1253.34 68.402C1243.33 60.088 1232.6 60.0873 1222.58 68.4027L1209.58 79.1887C1209.58 79.189 1209.58 79.1894 1209.58 79.1897C1197.83 88.9424 1185.25 88.9413 1173.5 79.1894L1160.5 68.403L1160.5 68.402C1150.48 60.088 1139.76 60.0873 1129.74 68.4027L1116.74 79.1887C1116.74 79.189 1116.74 79.1894 1116.74 79.1897C1104.99 88.9423 1092.41 88.9413 1080.66 79.1897C1080.66 79.1896 1080.66 79.1898 1080.66 79.1897L1067.66 68.402C1057.64 60.088 1046.92 60.0873 1036.9 68.4027L1023.9 79.1887C1023.9 79.189 1023.9 79.1894 1023.9 79.1897C1012.15 88.9423 999.573 88.9413 987.821 79.1897C987.821 79.1896 987.821 79.1898 987.821 79.1897L974.816 68.402Z" fill="#393A3D"/>
<path fill-rule="evenodd" clip-rule="evenodd" d="M974.816 112.703C964.803 104.389 954.081 104.388 944.06 112.703L941.4 89.7675C953.153 80.0156 965.73 80.0145 977.476 89.7672C977.476 89.7673 977.476 89.7671 977.476 89.7672C977.476 89.7675 977.477 89.7679 977.477 89.7682L990.48 100.554C1000.5 108.869 1011.22 108.869 1021.24 100.555L1021.24 100.554L1034.24 89.7675C1034.24 89.7674 1034.24 89.7677 1034.24 89.7675C1045.99 80.0159 1058.57 80.0146 1070.32 89.7672C1070.32 89.7675 1070.32 89.7679 1070.32 89.7682L1083.32 100.554C1093.34 108.869 1104.06 108.869 1114.08 100.555L1114.08 100.554L1127.08 89.7675C1127.08 89.7674 1127.08 89.7677 1127.08 89.7675C1138.83 80.0159 1151.41 80.0146 1163.16 89.7672C1163.16 89.7675 1163.16 89.7679 1163.16 89.7682L1176.16 100.554C1186.18 108.869 1196.91 108.869 1206.92 100.555L1206.92 100.554L1219.92 89.7675C1219.92 89.7674 1219.92 89.7677 1219.92 89.7675C1231.68 80.0156 1244.25 80.0146 1256 89.7682L1253.34 112.703C1243.33 104.389 1232.6 104.388 1222.58 112.703L1209.58 123.489C1209.58 123.49 1209.58 123.49 1209.58 123.49C1197.83 133.243 1185.25 133.242 1173.5 123.49L1160.5 112.704L1160.5 112.703C1150.48 104.389 1139.76 104.388 1129.74 112.703L1116.74 123.489C1116.74 123.49 1116.74 123.49 1116.74 123.49C1104.99 133.243 1092.41 133.242 1080.66 123.49C1080.66 123.49 1080.66 123.491 1080.66 123.49L1067.66 112.703C1057.64 104.389 1046.92 104.388 1036.9 112.703L1023.9 123.489C1023.9 123.49 1023.9 123.49 1023.9 123.49C1012.15 133.243 999.573 133.242 987.821 123.49C987.821 123.49 987.821 123.491 987.821 123.49L974.816 112.703Z" fill="#393A3D"/>
<path fill-rule="evenodd" clip-rule="evenodd" d="M974.816 157.007C964.803 148.693 954.081 148.693 944.06 157.008L941.4 134.072C953.153 124.32 965.73 124.319 977.476 134.072C977.476 134.072 977.476 134.072 977.476 134.072C977.476 134.072 977.477 134.073 977.477 134.073L990.48 144.859C1000.5 153.174 1011.22 153.174 1021.24 144.86L1021.24 144.859L1034.24 134.072C1034.24 134.072 1034.24 134.072 1034.24 134.072C1045.99 124.321 1058.57 124.319 1070.32 134.072C1070.32 134.072 1070.32 134.073 1070.32 134.073L1083.32 144.859C1093.34 153.174 1104.06 153.174 1114.08 144.86L1114.08 144.859L1127.08 134.072C1127.08 134.072 1127.08 134.072 1127.08 134.072C1138.83 124.321 1151.41 124.319 1163.16 134.072C1163.16 134.072 1163.16 134.073 1163.16 134.073L1176.16 144.859C1186.18 153.174 1196.91 153.174 1206.92 144.86L1206.92 144.859L1219.92 134.072C1219.92 134.072 1219.92 134.072 1219.92 134.072C1231.68 124.32 1244.25 124.319 1256 134.073L1253.34 157.007C1243.33 148.693 1232.6 148.693 1222.58 157.008L1209.58 167.794C1209.58 167.795 1209.58 167.795 1209.58 167.795C1197.83 177.548 1185.25 177.547 1173.5 167.795L1160.5 157.008L1160.5 157.007C1150.48 148.693 1139.76 148.693 1129.74 157.008L1116.74 167.794C1116.74 167.795 1116.74 167.795 1116.74 167.795C1104.99 177.548 1092.41 177.547 1080.66 167.795C1080.66 167.795 1080.66 167.795 1080.66 167.795L1067.66 157.007C1057.64 148.693 1046.92 148.693 1036.9 157.008L1023.9 167.794C1023.9 167.795 1023.9 167.795 1023.9 167.795C1012.15 177.548 999.573 177.547 987.821 167.795C987.821 167.795 987.821 167.795 987.821 167.795L974.816 157.007Z" fill="#393A3D"/>
<path fill-rule="evenodd" clip-rule="evenodd" d="M974.816 584.852C964.803 576.647 954.081 576.646 944.06 584.852L941.4 562.218C953.153 552.595 965.73 552.593 977.476 562.218C977.476 562.218 977.476 562.218 977.476 562.218C977.476 562.218 977.477 562.219 977.477 562.219L990.48 572.863C1000.5 581.069 1011.22 581.068 1021.24 572.864L1021.24 572.863L1034.24 562.218C1034.24 562.218 1034.24 562.218 1034.24 562.218C1045.99 552.595 1058.57 552.594 1070.32 562.218C1070.32 562.218 1070.32 562.218 1070.32 562.219L1083.32 572.863C1093.34 581.069 1104.06 581.068 1114.08 572.864L1114.08 572.863L1127.08 562.218C1127.08 562.218 1127.08 562.218 1127.08 562.218C1138.83 552.595 1151.41 552.594 1163.16 562.218C1163.16 562.218 1163.16 562.218 1163.16 562.219L1176.16 572.863C1186.18 581.069 1196.91 581.068 1206.92 572.864L1206.92 572.863L1219.92 562.218C1219.92 562.218 1219.92 562.218 1219.92 562.218C1231.68 552.595 1244.25 552.594 1256 562.219L1253.34 584.852C1243.33 576.647 1232.6 576.646 1222.58 584.852L1209.58 595.496C1209.58 595.497 1209.58 595.497 1209.58 595.497C1197.83 605.122 1185.25 605.121 1173.5 595.497L1160.5 584.853L1160.5 584.852C1150.48 576.647 1139.76 576.646 1129.74 584.852L1116.74 595.496C1116.74 595.497 1116.74 595.497 1116.74 595.497C1104.99 605.122 1092.41 605.121 1080.66 595.497C1080.66 595.497 1080.66 595.498 1080.66 595.497L1067.66 584.852C1057.64 576.647 1046.92 576.646 1036.9 584.852L1023.9 595.496C1023.9 595.497 1023.9 595.497 1023.9 595.497C1012.15 605.122 999.573 605.121 987.821 595.497C987.821 595.497 987.821 595.498 987.821 595.497L974.816 584.852Z" fill="#393A3D"/>
<path fill-rule="evenodd" clip-rule="evenodd" d="M974.816 628.57C964.803 620.366 954.081 620.365 944.06 628.571L941.4 605.937C953.153 596.313 965.73 596.312 977.476 605.937C977.476 605.937 977.476 605.937 977.476 605.937C977.476 605.937 977.477 605.937 977.477 605.938L990.48 616.581C1000.5 624.787 1011.22 624.787 1021.24 616.582L1021.24 616.581L1034.24 605.937C1034.24 605.937 1034.24 605.937 1034.24 605.937C1045.99 596.314 1058.57 596.312 1070.32 605.937C1070.32 605.937 1070.32 605.937 1070.32 605.938L1083.32 616.581C1093.34 624.787 1104.06 624.787 1114.08 616.582L1114.08 616.581L1127.08 605.937C1127.08 605.937 1127.08 605.937 1127.08 605.937C1138.83 596.314 1151.41 596.312 1163.16 605.937C1163.16 605.937 1163.16 605.937 1163.16 605.938L1176.16 616.581C1186.18 624.787 1196.91 624.787 1206.92 616.582L1206.92 616.581L1219.92 605.937C1219.92 605.937 1219.92 605.937 1219.92 605.937C1231.68 596.313 1244.25 596.312 1256 605.938L1253.34 628.57C1243.33 620.366 1232.6 620.365 1222.58 628.571L1209.58 639.215C1209.58 639.215 1209.58 639.216 1209.58 639.216C1197.83 648.84 1185.25 648.839 1173.5 639.216L1160.5 628.571L1160.5 628.57C1150.48 620.366 1139.76 620.365 1129.74 628.571L1116.74 639.215C1116.74 639.215 1116.74 639.216 1116.74 639.216C1104.99 648.84 1092.41 648.839 1080.66 639.216C1080.66 639.216 1080.66 639.216 1080.66 639.216L1067.66 628.57C1057.64 620.366 1046.92 620.365 1036.9 628.571L1023.9 639.215C1023.9 639.215 1023.9 639.216 1023.9 639.216C1012.15 648.84 999.573 648.839 987.821 639.216C987.821 639.216 987.821 639.216 987.821 639.216L974.816 628.57Z" fill="#393A3D"/>
<path fill-rule="evenodd" clip-rule="evenodd" d="M974.816 672.289C964.803 664.085 954.081 664.084 944.06 672.29L941.4 649.656C953.153 640.032 965.73 640.031 977.476 649.655C977.476 649.655 977.476 649.655 977.476 649.655C977.476 649.656 977.477 649.656 977.477 649.656L990.48 660.3C1000.5 668.506 1011.22 668.506 1021.24 660.301L1021.24 660.3L1034.24 649.656C1034.24 649.656 1034.24 649.656 1034.24 649.656C1045.99 640.032 1058.57 640.031 1070.32 649.655C1070.32 649.656 1070.32 649.656 1070.32 649.656L1083.32 660.3C1093.34 668.506 1104.06 668.506 1114.08 660.301L1114.08 660.3L1127.08 649.656C1127.08 649.656 1127.08 649.656 1127.08 649.656C1138.83 640.032 1151.41 640.031 1163.16 649.655C1163.16 649.656 1163.16 649.656 1163.16 649.656L1176.16 660.3C1186.18 668.506 1196.91 668.506 1206.92 660.301L1206.92 660.3L1219.92 649.656C1219.92 649.656 1219.92 649.656 1219.92 649.656C1231.68 640.032 1244.25 640.031 1256 649.656L1253.34 672.289C1243.33 664.085 1232.6 664.084 1222.58 672.29L1209.58 682.934C1209.58 682.934 1209.58 682.935 1209.58 682.935C1197.83 692.559 1185.25 692.558 1173.5 682.935L1160.5 672.29L1160.5 672.289C1150.48 664.085 1139.76 664.084 1129.74 672.29L1116.74 682.934C1116.74 682.934 1116.74 682.935 1116.74 682.935C1104.99 692.559 1092.41 692.558 1080.66 682.935C1080.66 682.935 1080.66 682.935 1080.66 682.935L1067.66 672.289C1057.64 664.085 1046.92 664.084 1036.9 672.29L1023.9 682.934C1023.9 682.934 1023.9 682.935 1023.9 682.935C1012.15 692.559 999.573 692.558 987.821 682.935C987.821 682.935 987.821 682.935 987.821 682.935L974.816 672.289Z" fill="#393A3D"/>
<path fill-rule="evenodd" clip-rule="evenodd" d="M333.748 -20.2035C323.735 -28.5175 313.012 -28.5182 302.991 -20.2028L300.332 -43.1387C312.084 -52.8907 324.661 -52.8917 336.408 -43.1391C336.408 -43.139 336.408 -43.1391 336.408 -43.1391C336.408 -43.1388 336.409 -43.1383 336.409 -43.138L349.411 -32.3524C359.432 -24.037 370.155 -24.0373 380.168 -32.3513L380.169 -32.3524L393.173 -43.1387C393.173 -43.1388 393.173 -43.1386 393.173 -43.1387C404.925 -52.8903 417.502 -52.8916 429.248 -43.1391C429.249 -43.1387 429.249 -43.1384 429.25 -43.138L442.252 -32.3524C452.273 -24.037 462.996 -24.0373 473.009 -32.3513L473.01 -32.3524L486.013 -43.1387C486.014 -43.1388 486.013 -43.1386 486.013 -43.1387C497.766 -52.8903 510.343 -52.8916 522.089 -43.1391C522.089 -43.1387 522.09 -43.1384 522.09 -43.138L535.093 -32.3524C545.114 -24.037 555.837 -24.0373 565.85 -32.3513L565.851 -32.3524L578.854 -43.1387C578.854 -43.1388 578.854 -43.1386 578.854 -43.1387C590.607 -52.8907 603.184 -52.8916 614.931 -43.138L612.27 -20.2035C602.257 -28.5175 591.535 -28.5182 581.513 -20.2028L568.511 -9.41677C568.51 -9.41643 568.51 -9.41609 568.509 -9.41576C556.763 0.336913 544.186 0.335874 532.434 -9.4161L519.43 -20.2025L519.429 -20.2035C509.416 -28.5175 498.694 -28.5182 488.673 -20.2028L475.67 -9.41677C475.669 -9.41643 475.669 -9.41609 475.669 -9.41576C463.923 0.336798 451.346 0.335874 439.593 -9.41576C439.593 -9.41587 439.594 -9.41564 439.593 -9.41576L426.589 -20.2035C416.576 -28.5175 405.853 -28.5182 395.832 -20.2028L382.829 -9.41677C382.829 -9.41643 382.828 -9.41609 382.828 -9.41576C371.082 0.336798 358.505 0.335874 346.753 -9.41576C346.753 -9.41587 346.753 -9.41564 346.753 -9.41576L333.748 -20.2035Z" fill="#393A3D"/>
<path fill-rule="evenodd" clip-rule="evenodd" d="M333.748 24.0973C323.735 15.7833 313.012 15.7826 302.991 24.098L300.332 1.16207C312.084 -8.58991 324.661 -8.59094 336.408 1.16172C336.408 1.1618 336.408 1.16164 336.408 1.16172C336.408 1.16198 336.409 1.16248 336.409 1.16274L349.411 11.9484C359.432 20.2638 370.155 20.2635 380.168 11.9494L380.169 11.9484L393.173 1.16207C393.173 1.16195 393.173 1.16219 393.173 1.16207C404.925 -8.58956 417.502 -8.59082 429.248 1.16172C429.249 1.16206 429.249 1.1624 429.25 1.16274L442.252 11.9484C452.273 20.2638 462.996 20.2635 473.009 11.9494L473.01 11.9484L486.013 1.16207C486.014 1.16196 486.013 1.16218 486.013 1.16207C497.766 -8.58957 510.343 -8.59083 522.089 1.16172C522.089 1.16206 522.09 1.1624 522.09 1.16274L535.093 11.9484C545.114 20.2638 555.837 20.2635 565.85 11.9494L565.851 11.9484L578.854 1.16207C578.854 1.16196 578.854 1.16218 578.854 1.16207C590.607 -8.5899 603.184 -8.59083 614.931 1.16274L612.27 24.0973C602.257 15.7833 591.535 15.7826 581.513 24.098L568.511 34.884C568.51 34.8844 568.51 34.8847 568.509 34.885C556.763 44.6377 544.186 44.6367 532.434 34.8847L519.43 24.0983L519.429 24.0973C509.416 15.7833 498.694 15.7826 488.673 24.098L475.67 34.884C475.669 34.8844 475.669 34.8847 475.669 34.885C463.923 44.6376 451.346 44.6367 439.593 34.885C439.593 34.8849 439.594 34.8851 439.593 34.885L426.589 24.0973C416.576 15.7833 405.853 15.7826 395.832 24.098L382.829 34.884C382.829 34.8844 382.828 34.8847 382.828 34.885C371.082 44.6376 358.505 44.6367 346.753 34.885C346.753 34.8849 346.753 34.8851 346.753 34.885L333.748 24.0973Z" fill="#393A3D"/>
<path fill-rule="evenodd" clip-rule="evenodd" d="M333.748 68.402C323.735 60.088 313.012 60.0873 302.991 68.4027L300.332 45.4668C312.084 35.7148 324.661 35.7137 336.408 45.4664C336.408 45.4665 336.408 45.4663 336.408 45.4664C336.408 45.4667 336.409 45.4672 336.409 45.4674L349.411 56.2531C359.432 64.5685 370.155 64.5681 380.168 56.2541L380.169 56.2531L393.173 45.4668C393.173 45.4666 393.173 45.4669 393.173 45.4668C404.925 35.7151 417.502 35.7139 429.248 45.4664C429.249 45.4668 429.249 45.4671 429.25 45.4674L442.252 56.2531C452.273 64.5685 462.996 64.5681 473.009 56.2541L473.01 56.2531L486.013 45.4668C486.014 45.4666 486.013 45.4669 486.013 45.4668C497.766 35.7151 510.343 35.7139 522.089 45.4664C522.089 45.4667 522.09 45.4671 522.09 45.4674L535.093 56.2531C545.114 64.5685 555.837 64.5681 565.85 56.2541L565.851 56.2531L578.854 45.4668C578.854 45.4666 578.854 45.4669 578.854 45.4668C590.607 35.7148 603.184 35.7139 614.931 45.4674L612.27 68.402C602.257 60.088 591.535 60.0873 581.513 68.4027L568.511 79.1887C568.51 79.189 568.51 79.1894 568.509 79.1897C556.763 88.9424 544.186 88.9413 532.434 79.1894L519.43 68.403L519.429 68.402C509.416 60.088 498.694 60.0873 488.673 68.4027L475.67 79.1887C475.669 79.189 475.669 79.1894 475.669 79.1897C463.923 88.9423 451.346 88.9413 439.593 79.1897C439.593 79.1896 439.594 79.1898 439.593 79.1897L426.589 68.402C416.576 60.088 405.853 60.0873 395.832 68.4027L382.829 79.1887C382.829 79.189 382.828 79.1894 382.828 79.1897C371.082 88.9423 358.505 88.9413 346.753 79.1897C346.753 79.1896 346.753 79.1898 346.753 79.1897L333.748 68.402Z" fill="#393A3D"/>
<path fill-rule="evenodd" clip-rule="evenodd" d="M333.748 112.703C323.735 104.389 313.012 104.388 302.991 112.703L300.332 89.7675C312.084 80.0156 324.661 80.0145 336.408 89.7672C336.408 89.7673 336.408 89.7671 336.408 89.7672C336.408 89.7675 336.409 89.7679 336.409 89.7682L349.411 100.554C359.432 108.869 370.155 108.869 380.168 100.555L380.169 100.554L393.173 89.7675C393.173 89.7674 393.173 89.7677 393.173 89.7675C404.925 80.0159 417.502 80.0146 429.248 89.7672C429.249 89.7675 429.249 89.7679 429.25 89.7682L442.252 100.554C452.273 108.869 462.996 108.869 473.009 100.555L473.01 100.554L486.013 89.7675C486.014 89.7674 486.013 89.7677 486.013 89.7675C497.766 80.0159 510.343 80.0146 522.089 89.7672C522.089 89.7675 522.09 89.7679 522.09 89.7682L535.093 100.554C545.114 108.869 555.837 108.869 565.85 100.555L565.851 100.554L578.854 89.7675C578.854 89.7674 578.854 89.7677 578.854 89.7675C590.607 80.0156 603.184 80.0146 614.931 89.7682L612.27 112.703C602.257 104.389 591.535 104.388 581.513 112.703L568.511 123.489C568.51 123.49 568.51 123.49 568.509 123.49C556.763 133.243 544.186 133.242 532.434 123.49L519.43 112.704L519.429 112.703C509.416 104.389 498.694 104.388 488.673 112.703L475.67 123.489C475.669 123.49 475.669 123.49 475.669 123.49C463.923 133.243 451.346 133.242 439.593 123.49C439.593 123.49 439.594 123.491 439.593 123.49L426.589 112.703C416.576 104.389 405.853 104.388 395.832 112.703L382.829 123.489C382.829 123.49 382.828 123.49 382.828 123.49C371.082 133.243 358.505 133.242 346.753 123.49C346.753 123.49 346.753 123.491 346.753 123.49L333.748 112.703Z" fill="#393A3D"/>
<path fill-rule="evenodd" clip-rule="evenodd" d="M333.748 157.007C323.735 148.693 313.012 148.693 302.991 157.008L300.332 134.072C312.084 124.32 324.661 124.319 336.408 134.072C336.408 134.072 336.408 134.072 336.408 134.072C336.408 134.072 336.409 134.073 336.409 134.073L349.411 144.859C359.432 153.174 370.155 153.174 380.168 144.86L380.169 144.859L393.173 134.072C393.173 134.072 393.173 134.072 393.173 134.072C404.925 124.321 417.502 124.319 429.248 134.072C429.249 134.072 429.249 134.073 429.25 134.073L442.252 144.859C452.273 153.174 462.996 153.174 473.009 144.86L473.01 144.859L486.013 134.072C486.014 134.072 486.013 134.072 486.013 134.072C497.766 124.321 510.343 124.319 522.089 134.072C522.089 134.072 522.09 134.073 522.09 134.073L535.093 144.859C545.114 153.174 555.837 153.174 565.85 144.86L565.851 144.859L578.854 134.072C578.854 134.072 578.854 134.072 578.854 134.072C590.607 124.32 603.184 124.319 614.931 134.073L612.27 157.007C602.257 148.693 591.535 148.693 581.513 157.008L568.511 167.794C568.51 167.795 568.51 167.795 568.509 167.795C556.763 177.548 544.186 177.547 532.434 167.795L519.43 157.008L519.429 157.007C509.416 148.693 498.694 148.693 488.673 157.008L475.67 167.794C475.669 167.795 475.669 167.795 475.669 167.795C463.923 177.548 451.346 177.547 439.593 167.795C439.593 167.795 439.594 167.795 439.593 167.795L426.589 157.007C416.576 148.693 405.853 148.693 395.832 157.008L382.829 167.794C382.829 167.795 382.828 167.795 382.828 167.795C371.082 177.548 358.505 177.547 346.753 167.795C346.753 167.795 346.753 167.795 346.753 167.795L333.748 157.007Z" fill="#393A3D"/>
<path fill-rule="evenodd" clip-rule="evenodd" d="M333.748 584.852C323.735 576.647 313.012 576.646 302.991 584.852L300.332 562.218C312.084 552.595 324.661 552.593 336.408 562.218C336.408 562.218 336.408 562.218 336.408 562.218C336.408 562.218 336.409 562.219 336.409 562.219L349.411 572.863C359.432 581.069 370.155 581.068 380.168 572.864L380.169 572.863L393.173 562.218C393.173 562.218 393.173 562.218 393.173 562.218C404.925 552.595 417.502 552.594 429.248 562.218C429.249 562.218 429.249 562.218 429.25 562.219L442.252 572.863C452.273 581.069 462.996 581.068 473.009 572.864L473.01 572.863L486.013 562.218C486.014 562.218 486.013 562.218 486.013 562.218C497.766 552.595 510.343 552.594 522.089 562.218C522.089 562.218 522.09 562.218 522.09 562.219L535.093 572.863C545.114 581.069 555.837 581.068 565.85 572.864L565.851 572.863L578.854 562.218C578.854 562.218 578.854 562.218 578.854 562.218C590.607 552.595 603.184 552.594 614.931 562.219L612.27 584.852C602.257 576.647 591.535 576.646 581.513 584.852L568.511 595.496C568.51 595.497 568.51 595.497 568.509 595.497C556.763 605.122 544.186 605.121 532.434 595.497L519.43 584.853L519.429 584.852C509.416 576.647 498.694 576.646 488.673 584.852L475.67 595.496C475.669 595.497 475.669 595.497 475.669 595.497C463.923 605.122 451.346 605.121 439.593 595.497C439.593 595.497 439.594 595.498 439.593 595.497L426.589 584.852C416.576 576.647 405.853 576.646 395.832 584.852L382.829 595.496C382.829 595.497 382.828 595.497 382.828 595.497C371.082 605.122 358.505 605.121 346.753 595.497C346.753 595.497 346.753 595.498 346.753 595.497L333.748 584.852Z" fill="#393A3D"/>
<path fill-rule="evenodd" clip-rule="evenodd" d="M333.748 628.57C323.735 620.366 313.012 620.365 302.991 628.571L300.332 605.937C312.084 596.313 324.661 596.312 336.408 605.937C336.408 605.937 336.408 605.937 336.408 605.937C336.408 605.937 336.409 605.937 336.409 605.938L349.411 616.581C359.432 624.787 370.155 624.787 380.168 616.582L380.169 616.581L393.173 605.937C393.173 605.937 393.173 605.937 393.173 605.937C404.925 596.314 417.502 596.312 429.248 605.937C429.249 605.937 429.249 605.937 429.25 605.938L442.252 616.581C452.273 624.787 462.996 624.787 473.009 616.582L473.01 616.581L486.013 605.937C486.014 605.937 486.013 605.937 486.013 605.937C497.766 596.314 510.343 596.312 522.089 605.937C522.089 605.937 522.09 605.937 522.09 605.938L535.093 616.581C545.114 624.787 555.837 624.787 565.85 616.582L565.851 616.581L578.854 605.937C578.854 605.937 578.854 605.937 578.854 605.937C590.607 596.313 603.184 596.312 614.931 605.938L612.27 628.57C602.257 620.366 591.535 620.365 581.513 628.571L568.511 639.215C568.51 639.215 568.51 639.216 568.509 639.216C556.763 648.84 544.186 648.839 532.434 639.216L519.43 628.571L519.429 628.57C509.416 620.366 498.694 620.365 488.673 628.571L475.67 639.215C475.669 639.215 475.669 639.216 475.669 639.216C463.923 648.84 451.346 648.839 439.593 639.216C439.593 639.216 439.594 639.216 439.593 639.216L426.589 628.57C416.576 620.366 405.853 620.365 395.832 628.571L382.829 639.215C382.829 639.215 382.828 639.216 382.828 639.216C371.082 648.84 358.505 648.839 346.753 639.216C346.753 639.216 346.753 639.216 346.753 639.216L333.748 628.57Z" fill="#393A3D"/>
<path fill-rule="evenodd" clip-rule="evenodd" d="M333.748 672.289C323.735 664.085 313.012 664.084 302.991 672.29L300.332 649.656C312.084 640.032 324.661 640.031 336.408 649.655C336.408 649.655 336.408 649.655 336.408 649.655C336.408 649.656 336.409 649.656 336.409 649.656L349.411 660.3C359.432 668.506 370.155 668.506 380.168 660.301L380.169 660.3L393.173 649.656C393.173 649.656 393.173 649.656 393.173 649.656C404.925 640.032 417.502 640.031 429.248 649.655C429.249 649.656 429.249 649.656 429.25 649.656L442.252 660.3C452.273 668.506 462.996 668.506 473.009 660.301L473.01 660.3L486.013 649.656C486.014 649.656 486.013 649.656 486.013 649.656C497.766 640.032 510.343 640.031 522.089 649.655C522.089 649.656 522.09 649.656 522.09 649.656L535.093 660.3C545.114 668.506 555.837 668.506 565.85 660.301L565.851 660.3L578.854 649.656C578.854 649.656 578.854 649.656 578.854 649.656C590.607 640.032 603.184 640.031 614.931 649.656L612.27 672.289C602.257 664.085 591.535 664.084 581.513 672.29L568.511 682.934C568.51 682.934 568.51 682.935 568.509 682.935C556.763 692.559 544.186 692.558 532.434 682.935L519.43 672.29L519.429 672.289C509.416 664.085 498.694 664.084 488.673 672.29L475.67 682.934C475.669 682.934 475.669 682.935 475.669 682.935C463.923 692.559 451.346 692.558 439.593 682.935C439.593 682.935 439.594 682.935 439.593 682.935L426.589 672.289C416.576 664.085 405.853 664.084 395.832 672.29L382.829 682.934C382.829 682.934 382.828 682.935 382.828 682.935C371.082 692.559 358.505 692.558 346.753 682.935C346.753 682.935 346.753 682.935 346.753 682.935L333.748 672.289Z" fill="#393A3D"/>
<path fill-rule="evenodd" clip-rule="evenodd" d="M660.217 219.797C650.204 211.592 639.481 211.592 629.46 219.798L626.801 197.163C638.553 187.54 651.13 187.539 662.876 197.163C662.876 197.163 662.876 197.163 662.876 197.163C662.877 197.163 662.877 197.164 662.878 197.164L675.88 207.808C685.901 216.014 696.624 216.014 706.637 207.809L706.638 207.808L719.641 197.163C719.642 197.163 719.641 197.164 719.641 197.163C731.394 187.54 743.971 187.539 755.717 197.163C755.717 197.163 755.718 197.164 755.718 197.164L768.721 207.808C778.742 216.014 789.465 216.014 799.478 207.809L799.479 207.808L812.482 197.163C812.482 197.163 812.482 197.164 812.482 197.163C824.234 187.54 836.812 187.539 848.558 197.163C848.558 197.163 848.559 197.164 848.559 197.164L861.561 207.808C871.582 216.014 882.306 216.014 892.318 207.809L892.319 207.808L905.323 197.163C905.323 197.163 905.323 197.164 905.323 197.163C917.075 187.54 929.653 187.539 941.4 197.164L938.739 219.797C928.726 211.592 918.003 211.592 907.982 219.798L894.979 230.442C894.979 230.442 894.978 230.442 894.978 230.443C883.232 240.067 870.655 240.066 858.902 230.442L845.899 219.798L845.898 219.797C835.885 211.592 825.163 211.592 815.142 219.798L802.139 230.442C802.138 230.442 802.138 230.442 802.137 230.443C790.391 240.067 777.814 240.066 766.062 230.443C766.062 230.443 766.062 230.443 766.062 230.443L753.057 219.797C743.045 211.592 732.322 211.592 722.301 219.798L709.298 230.442C709.298 230.442 709.297 230.442 709.297 230.443C697.551 240.067 684.974 240.066 673.222 230.443C673.221 230.443 673.222 230.443 673.222 230.443L660.217 219.797Z" fill="#393A3D"/>
<path fill-rule="evenodd" clip-rule="evenodd" d="M660.217 263.516C650.204 255.311 639.481 255.31 629.46 263.516L626.801 240.882C638.553 231.259 651.13 231.258 662.876 240.882C662.876 240.882 662.876 240.882 662.876 240.882C662.877 240.882 662.877 240.883 662.878 240.883L675.88 251.527C685.901 259.733 696.624 259.732 706.637 251.528L706.638 251.527L719.641 240.882C719.642 240.882 719.641 240.882 719.641 240.882C731.394 231.259 743.971 231.258 755.717 240.882C755.717 240.882 755.718 240.883 755.718 240.883L768.721 251.527C778.742 259.733 789.465 259.732 799.478 251.528L799.479 251.527L812.482 240.882C812.482 240.882 812.482 240.882 812.482 240.882C824.234 231.259 836.812 231.258 848.558 240.882C848.558 240.882 848.559 240.883 848.559 240.883L861.561 251.527C871.582 259.733 882.306 259.732 892.318 251.528L892.319 251.527L905.323 240.882C905.323 240.882 905.323 240.882 905.323 240.882C917.075 231.259 929.653 231.258 941.4 240.883L938.739 263.516C928.726 255.311 918.003 255.31 907.982 263.516L894.979 274.16C894.979 274.161 894.978 274.161 894.978 274.161C883.232 283.786 870.655 283.785 858.902 274.161L845.899 263.517L845.898 263.516C835.885 255.311 825.163 255.31 815.142 263.516L802.139 274.16C802.138 274.161 802.138 274.161 802.137 274.161C790.391 283.786 777.814 283.785 766.062 274.161C766.062 274.161 766.062 274.162 766.062 274.161L753.057 263.516C743.045 255.311 732.322 255.31 722.301 263.516L709.298 274.16C709.298 274.161 709.297 274.161 709.297 274.161C697.551 283.786 684.974 283.785 673.222 274.161C673.221 274.161 673.222 274.162 673.222 274.161L660.217 263.516Z" fill="#393A3D"/>
<path fill-rule="evenodd" clip-rule="evenodd" d="M660.217 307.234C650.204 299.03 639.481 299.029 629.46 307.235L626.801 284.601C638.553 274.977 651.13 274.976 662.876 284.601C662.876 284.601 662.876 284.601 662.876 284.601C662.877 284.601 662.877 284.601 662.878 284.602L675.88 295.245C685.901 303.451 696.624 303.451 706.637 295.246L706.638 295.245L719.641 284.601C719.642 284.601 719.641 284.601 719.641 284.601C731.394 274.978 743.971 274.976 755.717 284.601C755.717 284.601 755.718 284.601 755.718 284.602L768.721 295.245C778.742 303.451 789.465 303.451 799.478 295.246L799.479 295.245L812.482 284.601C812.482 284.601 812.482 284.601 812.482 284.601C824.234 274.978 836.812 274.976 848.558 284.601C848.558 284.601 848.559 284.601 848.559 284.602L861.561 295.245C871.582 303.451 882.306 303.451 892.318 295.246L892.319 295.245L905.323 284.601C905.323 284.601 905.323 284.601 905.323 284.601C917.075 274.977 929.653 274.976 941.4 284.602L938.739 307.234C928.726 299.03 918.003 299.029 907.982 307.235L894.979 317.879C894.979 317.88 894.978 317.88 894.978 317.88C883.232 327.505 870.655 327.504 858.902 317.88L845.899 307.235L845.898 307.234C835.885 299.03 825.163 299.029 815.142 307.235L802.139 317.879C802.138 317.88 802.138 317.88 802.137 317.88C790.391 327.504 777.814 327.504 766.062 317.88C766.062 317.88 766.062 317.88 766.062 317.88L753.057 307.234C743.045 299.03 732.322 299.029 722.301 307.235L709.298 317.879C709.298 317.88 709.297 317.88 709.297 317.88C697.551 327.504 684.974 327.504 673.222 317.88C673.221 317.88 673.222 317.88 673.222 317.88L660.217 307.234Z" fill="#393A3D"/>
<path fill-rule="evenodd" clip-rule="evenodd" d="M660.217 350.957C650.204 342.752 639.481 342.752 629.46 350.958L626.801 328.324C638.553 318.7 651.13 318.699 662.876 328.323C662.876 328.323 662.876 328.323 662.876 328.323C662.877 328.324 662.877 328.324 662.878 328.324L675.88 338.968C685.901 347.174 696.624 347.174 706.637 338.969L706.638 338.968L719.641 328.324C719.642 328.324 719.641 328.324 719.641 328.324C731.394 318.7 743.971 318.699 755.717 328.323C755.717 328.324 755.718 328.324 755.718 328.324L768.721 338.968C778.742 347.174 789.465 347.174 799.478 338.969L799.479 338.968L812.482 328.324C812.482 328.324 812.482 328.324 812.482 328.324C824.234 318.7 836.812 318.699 848.558 328.323C848.558 328.324 848.559 328.324 848.559 328.324L861.561 338.968C871.582 347.174 882.306 347.174 892.318 338.969L892.319 338.968L905.323 328.324C905.323 328.324 905.323 328.324 905.323 328.324C917.075 318.7 929.653 318.699 941.4 328.324L938.739 350.957C928.726 342.752 918.003 342.752 907.982 350.958L894.979 361.602C894.979 361.602 894.978 361.603 894.978 361.603C883.232 371.227 870.655 371.226 858.902 361.603L845.899 350.958L845.898 350.957C835.885 342.752 825.163 342.752 815.142 350.958L802.139 361.602C802.138 361.602 802.138 361.603 802.137 361.603C790.391 371.227 777.814 371.226 766.062 361.603C766.062 361.603 766.062 361.603 766.062 361.603L753.057 350.957C743.045 342.752 732.322 342.752 722.301 350.958L709.298 361.602C709.298 361.602 709.297 361.603 709.297 361.603C697.551 371.227 684.974 371.226 673.222 361.603C673.221 361.603 673.222 361.603 673.222 361.603L660.217 350.957Z" fill="#393A3D"/>
<path fill-rule="evenodd" clip-rule="evenodd" d="M660.217 394.676C650.204 386.471 639.481 386.471 629.46 394.677L626.801 372.042C638.553 362.419 651.13 362.418 662.876 372.042C662.876 372.042 662.876 372.042 662.876 372.042C662.877 372.042 662.877 372.043 662.878 372.043L675.88 382.687C685.901 390.893 696.624 390.892 706.637 382.688L706.638 382.687L719.641 372.042C719.642 372.042 719.641 372.043 719.641 372.042C731.394 362.419 743.971 362.418 755.717 372.042C755.717 372.042 755.718 372.043 755.718 372.043L768.721 382.687C778.742 390.893 789.465 390.892 799.478 382.688L799.479 382.687L812.482 372.042C812.482 372.042 812.482 372.043 812.482 372.042C824.234 362.419 836.812 362.418 848.558 372.042C848.558 372.042 848.559 372.043 848.559 372.043L861.561 382.687C871.582 390.893 882.306 390.892 892.318 382.688L892.319 382.687L905.323 372.042C905.323 372.042 905.323 372.043 905.323 372.042C917.075 362.419 929.653 362.418 941.4 372.043L938.739 394.676C928.726 386.471 918.003 386.471 907.982 394.677L894.979 405.321C894.979 405.321 894.978 405.321 894.978 405.322C883.232 414.946 870.655 414.945 858.902 405.321L845.899 394.677L845.898 394.676C835.885 386.471 825.163 386.471 815.142 394.677L802.139 405.321C802.138 405.321 802.138 405.321 802.137 405.322C790.391 414.946 777.814 414.945 766.062 405.322C766.062 405.322 766.062 405.322 766.062 405.322L753.057 394.676C743.045 386.471 732.322 386.471 722.301 394.677L709.298 405.321C709.298 405.321 709.297 405.321 709.297 405.322C697.551 414.946 684.974 414.945 673.222 405.322C673.221 405.322 673.222 405.322 673.222 405.322L660.217 394.676Z" fill="#393A3D"/>
<path fill-rule="evenodd" clip-rule="evenodd" d="M10.2439 219.797C0.231169 211.592 -10.4914 211.592 -20.5125 219.798L-23.1719 197.163C-11.4196 187.54 1.15752 187.539 12.9037 197.163C12.9038 197.163 12.9036 197.163 12.9037 197.163C12.904 197.163 12.9046 197.164 12.9049 197.164L25.9075 207.808C35.9285 216.014 46.6515 216.014 56.6643 207.809L56.6655 207.808L69.6688 197.163C69.6689 197.163 69.6687 197.164 69.6688 197.163C81.421 187.54 93.9983 187.539 105.744 197.163C105.745 197.163 105.745 197.164 105.746 197.164L118.748 207.808C128.769 216.014 139.492 216.014 149.505 207.809L149.506 207.808L162.509 197.163C162.51 197.163 162.509 197.164 162.509 197.163C174.262 187.54 186.839 187.539 198.585 197.163C198.585 197.163 198.586 197.164 198.586 197.164L211.589 207.808C221.61 216.014 232.333 216.014 242.346 207.809L242.347 207.808L255.35 197.163C255.35 197.163 255.35 197.164 255.35 197.163C267.103 187.54 279.681 187.539 291.427 197.164L288.766 219.797C278.753 211.592 268.031 211.592 258.01 219.798L245.007 230.442C245.006 230.442 245.006 230.442 245.005 230.443C233.259 240.067 220.682 240.066 208.93 230.442L195.926 219.798L195.925 219.797C185.913 211.592 175.19 211.592 165.169 219.798L152.166 230.442C152.166 230.442 152.165 230.442 152.165 230.443C140.419 240.067 127.842 240.066 116.09 230.443C116.089 230.443 116.09 230.443 116.09 230.443L103.085 219.797C93.0718 211.592 82.3492 211.592 72.3282 219.798L59.3253 230.442C59.3249 230.442 59.3245 230.442 59.3241 230.443C47.578 240.067 35.001 240.066 23.2489 230.443C23.2487 230.443 23.249 230.443 23.2489 230.443L10.2439 219.797Z" fill="#393A3D"/>
<path fill-rule="evenodd" clip-rule="evenodd" d="M10.2439 263.516C0.231169 255.311 -10.4914 255.31 -20.5125 263.516L-23.1719 240.882C-11.4196 231.259 1.15752 231.258 12.9037 240.882C12.9038 240.882 12.9036 240.882 12.9037 240.882C12.904 240.882 12.9046 240.883 12.9049 240.883L25.9075 251.527C35.9285 259.733 46.6515 259.732 56.6643 251.528L56.6655 251.527L69.6688 240.882C69.6689 240.882 69.6687 240.882 69.6688 240.882C81.421 231.259 93.9983 231.258 105.744 240.882C105.745 240.882 105.745 240.883 105.746 240.883L118.748 251.527C128.769 259.733 139.492 259.732 149.505 251.528L149.506 251.527L162.509 240.882C162.51 240.882 162.509 240.882 162.509 240.882C174.262 231.259 186.839 231.258 198.585 240.882C198.585 240.882 198.586 240.883 198.586 240.883L211.589 251.527C221.61 259.733 232.333 259.732 242.346 251.528L242.347 251.527L255.35 240.882C255.35 240.882 255.35 240.882 255.35 240.882C267.103 231.259 279.681 231.258 291.427 240.883L288.766 263.516C278.753 255.311 268.031 255.31 258.01 263.516L245.007 274.16C245.006 274.161 245.006 274.161 245.005 274.161C233.259 283.786 220.682 283.785 208.93 274.161L195.926 263.517L195.925 263.516C185.913 255.311 175.19 255.31 165.169 263.516L152.166 274.16C152.166 274.161 152.165 274.161 152.165 274.161C140.419 283.786 127.842 283.785 116.09 274.161C116.089 274.161 116.09 274.162 116.09 274.161L103.085 263.516C93.0718 255.311 82.3492 255.31 72.3282 263.516L59.3253 274.16C59.3249 274.161 59.3245 274.161 59.3241 274.161C47.578 283.786 35.001 283.785 23.2489 274.161C23.2487 274.161 23.249 274.162 23.2489 274.161L10.2439 263.516Z" fill="#393A3D"/>
<path fill-rule="evenodd" clip-rule="evenodd" d="M10.2439 307.234C0.231169 299.03 -10.4914 299.029 -20.5125 307.235L-23.1719 284.601C-11.4196 274.977 1.15752 274.976 12.9037 284.601C12.9038 284.601 12.9036 284.601 12.9037 284.601C12.904 284.601 12.9046 284.601 12.9049 284.602L25.9075 295.245C35.9285 303.451 46.6515 303.451 56.6643 295.246L56.6655 295.245L69.6688 284.601C69.6689 284.601 69.6687 284.601 69.6688 284.601C81.421 274.978 93.9983 274.976 105.744 284.601C105.745 284.601 105.745 284.601 105.746 284.602L118.748 295.245C128.769 303.451 139.492 303.451 149.505 295.246L149.506 295.245L162.509 284.601C162.51 284.601 162.509 284.601 162.509 284.601C174.262 274.978 186.839 274.976 198.585 284.601C198.585 284.601 198.586 284.601 198.586 284.602L211.589 295.245C221.61 303.451 232.333 303.451 242.346 295.246L242.347 295.245L255.35 284.601C255.35 284.601 255.35 284.601 255.35 284.601C267.103 274.977 279.681 274.976 291.427 284.602L288.766 307.234C278.753 299.03 268.031 299.029 258.01 307.235L245.007 317.879C245.006 317.88 245.006 317.88 245.005 317.88C233.259 327.505 220.682 327.504 208.93 317.88L195.926 307.235L195.925 307.234C185.913 299.03 175.19 299.029 165.169 307.235L152.166 317.879C152.166 317.88 152.165 317.88 152.165 317.88C140.419 327.504 127.842 327.504 116.09 317.88C116.089 317.88 116.09 317.88 116.09 317.88L103.085 307.234C93.0718 299.03 82.3492 299.029 72.3282 307.235L59.3253 317.879C59.3249 317.88 59.3245 317.88 59.3241 317.88C47.578 327.504 35.001 327.504 23.2489 317.88C23.2487 317.88 23.249 317.88 23.2489 317.88L10.2439 307.234Z" fill="#393A3D"/>
<path fill-rule="evenodd" clip-rule="evenodd" d="M10.2439 350.957C0.231169 342.752 -10.4914 342.752 -20.5125 350.958L-23.1719 328.324C-11.4196 318.7 1.15752 318.699 12.9037 328.323C12.9038 328.323 12.9036 328.323 12.9037 328.323C12.904 328.324 12.9046 328.324 12.9049 328.324L25.9075 338.968C35.9285 347.174 46.6515 347.174 56.6643 338.969L56.6655 338.968L69.6688 328.324C69.6689 328.324 69.6687 328.324 69.6688 328.324C81.421 318.7 93.9983 318.699 105.744 328.323C105.745 328.324 105.745 328.324 105.746 328.324L118.748 338.968C128.769 347.174 139.492 347.174 149.505 338.969L149.506 338.968L162.509 328.324C162.51 328.324 162.509 328.324 162.509 328.324C174.262 318.7 186.839 318.699 198.585 328.323C198.585 328.324 198.586 328.324 198.586 328.324L211.589 338.968C221.61 347.174 232.333 347.174 242.346 338.969L242.347 338.968L255.35 328.324C255.35 328.324 255.35 328.324 255.35 328.324C267.103 318.7 279.681 318.699 291.427 328.324L288.766 350.957C278.753 342.752 268.031 342.752 258.01 350.958L245.007 361.602C245.006 361.602 245.006 361.603 245.005 361.603C233.259 371.227 220.682 371.226 208.93 361.603L195.926 350.958L195.925 350.957C185.913 342.752 175.19 342.752 165.169 350.958L152.166 361.602C152.166 361.602 152.165 361.603 152.165 361.603C140.419 371.227 127.842 371.226 116.09 361.603C116.089 361.603 116.09 361.603 116.09 361.603L103.085 350.957C93.0718 342.752 82.3492 342.752 72.3282 350.958L59.3253 361.602C59.3249 361.602 59.3245 361.603 59.3241 361.603C47.578 371.227 35.001 371.226 23.2489 361.603C23.2487 361.603 23.249 361.603 23.2489 361.603L10.2439 350.957Z" fill="#393A3D"/>
<path fill-rule="evenodd" clip-rule="evenodd" d="M10.2439 394.676C0.231169 386.471 -10.4914 386.471 -20.5125 394.677L-23.1719 372.042C-11.4196 362.419 1.15752 362.418 12.9037 372.042C12.9038 372.042 12.9036 372.042 12.9037 372.042C12.904 372.042 12.9046 372.043 12.9049 372.043L25.9075 382.687C35.9285 390.893 46.6515 390.892 56.6643 382.688L56.6655 382.687L69.6688 372.042C69.6689 372.042 69.6687 372.043 69.6688 372.042C81.421 362.419 93.9983 362.418 105.744 372.042C105.745 372.042 105.745 372.043 105.746 372.043L118.748 382.687C128.769 390.893 139.492 390.892 149.505 382.688L149.506 382.687L162.509 372.042C162.51 372.042 162.509 372.043 162.509 372.042C174.262 362.419 186.839 362.418 198.585 372.042C198.585 372.042 198.586 372.043 198.586 372.043L211.589 382.687C221.61 390.893 232.333 390.892 242.346 382.688L242.347 382.687L255.35 372.042C255.35 372.042 255.35 372.043 255.35 372.042C267.103 362.419 279.681 362.418 291.427 372.043L288.766 394.676C278.753 386.471 268.031 386.471 258.01 394.677L245.007 405.321C245.006 405.321 245.006 405.321 245.005 405.322C233.259 414.946 220.682 414.945 208.93 405.321L195.926 394.677L195.925 394.676C185.913 386.471 175.19 386.471 165.169 394.677L152.166 405.321C152.166 405.321 152.165 405.321 152.165 405.322C140.419 414.946 127.842 414.945 116.09 405.322C116.089 405.322 116.09 405.322 116.09 405.322L103.085 394.676C93.0718 386.471 82.3492 386.471 72.3282 394.677L59.3253 405.321C59.3249 405.321 59.3245 405.321 59.3241 405.322C47.578 414.946 35.001 414.945 23.2489 405.322C23.2487 405.322 23.249 405.322 23.2489 405.322L10.2439 394.676Z" fill="#393A3D"/>
<path fill-rule="evenodd" clip-rule="evenodd" d="M974.816 121.856C964.803 113.651 954.081 113.65 944.06 121.856L941.4 99.2221C953.153 89.5984 965.73 89.5974 977.476 99.2217C977.476 99.2218 977.476 99.2217 977.476 99.2217C977.476 99.222 977.477 99.2225 977.477 99.2227L990.48 109.867C1000.5 118.072 1011.22 118.072 1021.24 109.868L1021.24 109.867L1034.24 99.2221C1034.24 99.222 1034.24 99.2222 1034.24 99.2221C1045.99 89.5988 1058.57 89.5975 1070.32 99.2217C1070.32 99.2221 1070.32 99.2224 1070.32 99.2227L1083.32 109.867C1093.34 118.072 1104.06 118.072 1114.08 109.868L1114.08 109.867L1127.08 99.2221C1127.08 99.222 1127.08 99.2222 1127.08 99.2221C1138.83 89.5988 1151.41 89.5975 1163.16 99.2217C1163.16 99.2221 1163.16 99.2224 1163.16 99.2227L1176.16 109.867C1186.18 118.072 1196.91 118.072 1206.92 109.868L1206.92 109.867L1219.92 99.2221C1219.92 99.222 1219.92 99.2222 1219.92 99.2221C1231.68 89.5984 1244.25 89.5975 1256 99.2227L1253.34 121.856C1243.33 113.651 1232.6 113.65 1222.58 121.856L1209.58 132.5C1209.58 132.501 1209.58 132.501 1209.58 132.501C1197.83 142.126 1185.25 142.125 1173.5 132.501L1160.5 121.857L1160.5 121.856C1150.48 113.651 1139.76 113.65 1129.74 121.856L1116.74 132.5C1116.74 132.501 1116.74 132.501 1116.74 132.501C1104.99 142.126 1092.41 142.125 1080.66 132.501C1080.66 132.501 1080.66 132.501 1080.66 132.501L1067.66 121.856C1057.64 113.651 1046.92 113.65 1036.9 121.856L1023.9 132.5C1023.9 132.501 1023.9 132.501 1023.9 132.501C1012.15 142.126 999.573 142.125 987.821 132.501C987.821 132.501 987.821 132.501 987.821 132.501L974.816 121.856Z" fill="#393A3D"/>
<path fill-rule="evenodd" clip-rule="evenodd" d="M974.816 165.574C964.803 157.37 954.081 157.369 944.06 165.575L941.4 142.941C953.153 133.317 965.73 133.316 977.476 142.94C977.476 142.941 977.476 142.94 977.476 142.94C977.476 142.941 977.477 142.941 977.477 142.941L990.48 153.585C1000.5 161.791 1011.22 161.791 1021.24 153.586L1021.24 153.585L1034.24 142.941C1034.24 142.941 1034.24 142.941 1034.24 142.941C1045.99 133.318 1058.57 133.316 1070.32 142.94C1070.32 142.941 1070.32 142.941 1070.32 142.941L1083.32 153.585C1093.34 161.791 1104.06 161.791 1114.08 153.586L1114.08 153.585L1127.08 142.941C1127.08 142.941 1127.08 142.941 1127.08 142.941C1138.83 133.318 1151.41 133.316 1163.16 142.94C1163.16 142.941 1163.16 142.941 1163.16 142.941L1176.16 153.585C1186.18 161.791 1196.91 161.791 1206.92 153.586L1206.92 153.585L1219.92 142.941C1219.92 142.941 1219.92 142.941 1219.92 142.941C1231.68 133.317 1244.25 133.316 1256 142.941L1253.34 165.574C1243.33 157.37 1232.6 157.369 1222.58 165.575L1209.58 176.219C1209.58 176.219 1209.58 176.22 1209.58 176.22C1197.83 185.844 1185.25 185.843 1173.5 176.22L1160.5 165.575L1160.5 165.574C1150.48 157.37 1139.76 157.369 1129.74 165.575L1116.74 176.219C1116.74 176.219 1116.74 176.22 1116.74 176.22C1104.99 185.844 1092.41 185.843 1080.66 176.22C1080.66 176.22 1080.66 176.22 1080.66 176.22L1067.66 165.574C1057.64 157.37 1046.92 157.369 1036.9 165.575L1023.9 176.219C1023.9 176.219 1023.9 176.22 1023.9 176.22C1012.15 185.844 999.573 185.843 987.821 176.22C987.821 176.22 987.821 176.22 987.821 176.22L974.816 165.574Z" fill="#393A3D"/>
<path fill-rule="evenodd" clip-rule="evenodd" d="M974.816 209.293C964.803 201.088 954.081 201.088 944.06 209.294L941.4 186.66C953.153 177.036 965.73 177.035 977.476 186.659C977.476 186.659 977.476 186.659 977.476 186.659C977.476 186.659 977.477 186.66 977.477 186.66L990.48 197.304C1000.5 205.51 1011.22 205.51 1021.24 197.305L1021.24 197.304L1034.24 186.66C1034.24 186.659 1034.24 186.66 1034.24 186.66C1045.99 177.036 1058.57 177.035 1070.32 186.659C1070.32 186.66 1070.32 186.66 1070.32 186.66L1083.32 197.304C1093.34 205.51 1104.06 205.51 1114.08 197.305L1114.08 197.304L1127.08 186.66C1127.08 186.659 1127.08 186.66 1127.08 186.66C1138.83 177.036 1151.41 177.035 1163.16 186.659C1163.16 186.66 1163.16 186.66 1163.16 186.66L1176.16 197.304C1186.18 205.51 1196.91 205.51 1206.92 197.305L1206.92 197.304L1219.92 186.66C1219.92 186.659 1219.92 186.66 1219.92 186.66C1231.68 177.036 1244.25 177.035 1256 186.66L1253.34 209.293C1243.33 201.088 1232.6 201.088 1222.58 209.294L1209.58 219.938C1209.58 219.938 1209.58 219.938 1209.58 219.939C1197.83 229.563 1185.25 229.562 1173.5 219.938L1160.5 209.294L1160.5 209.293C1150.48 201.088 1139.76 201.088 1129.74 209.294L1116.74 219.938C1116.74 219.938 1116.74 219.938 1116.74 219.939C1104.99 229.563 1092.41 229.562 1080.66 219.939C1080.66 219.939 1080.66 219.939 1080.66 219.939L1067.66 209.293C1057.64 201.088 1046.92 201.088 1036.9 209.294L1023.9 219.938C1023.9 219.938 1023.9 219.938 1023.9 219.939C1012.15 229.563 999.573 229.562 987.821 219.939C987.821 219.939 987.821 219.939 987.821 219.939L974.816 209.293Z" fill="#393A3D"/>
<path fill-rule="evenodd" clip-rule="evenodd" d="M974.816 253.016C964.803 244.811 954.081 244.81 944.06 253.016L941.4 230.382C953.153 220.759 965.73 220.758 977.476 230.382C977.476 230.382 977.476 230.382 977.476 230.382C977.476 230.382 977.477 230.383 977.477 230.383L990.48 241.027C1000.5 249.233 1011.22 249.232 1021.24 241.028L1021.24 241.027L1034.24 230.382C1034.24 230.382 1034.24 230.382 1034.24 230.382C1045.99 220.759 1058.57 220.758 1070.32 230.382C1070.32 230.382 1070.32 230.383 1070.32 230.383L1083.32 241.027C1093.34 249.233 1104.06 249.232 1114.08 241.028L1114.08 241.027L1127.08 230.382C1127.08 230.382 1127.08 230.382 1127.08 230.382C1138.83 220.759 1151.41 220.758 1163.16 230.382C1163.16 230.382 1163.16 230.383 1163.16 230.383L1176.16 241.027C1186.18 249.233 1196.91 249.232 1206.92 241.028L1206.92 241.027L1219.92 230.382C1219.92 230.382 1219.92 230.382 1219.92 230.382C1231.68 220.759 1244.25 220.758 1256 230.383L1253.34 253.016C1243.33 244.811 1232.6 244.81 1222.58 253.016L1209.58 263.66C1209.58 263.661 1209.58 263.661 1209.58 263.661C1197.83 273.286 1185.25 273.285 1173.5 263.661L1160.5 253.017L1160.5 253.016C1150.48 244.811 1139.76 244.81 1129.74 253.016L1116.74 263.66C1116.74 263.661 1116.74 263.661 1116.74 263.661C1104.99 273.286 1092.41 273.285 1080.66 263.661C1080.66 263.661 1080.66 263.662 1080.66 263.661L1067.66 253.016C1057.64 244.811 1046.92 244.81 1036.9 253.016L1023.9 263.66C1023.9 263.661 1023.9 263.661 1023.9 263.661C1012.15 273.286 999.573 273.285 987.821 263.661C987.821 263.661 987.821 263.662 987.821 263.661L974.816 253.016Z" fill="#393A3D"/>
<path fill-rule="evenodd" clip-rule="evenodd" d="M974.816 296.734C964.803 288.53 954.081 288.529 944.06 296.735L941.4 274.101C953.153 264.477 965.73 264.476 977.476 274.101C977.476 274.101 977.476 274.101 977.476 274.101C977.476 274.101 977.477 274.101 977.477 274.102L990.48 284.745C1000.5 292.951 1011.22 292.951 1021.24 284.746L1021.24 284.745L1034.24 274.101C1034.24 274.101 1034.24 274.101 1034.24 274.101C1045.99 264.478 1058.57 264.476 1070.32 274.101C1070.32 274.101 1070.32 274.101 1070.32 274.102L1083.32 284.745C1093.34 292.951 1104.06 292.951 1114.08 284.746L1114.08 284.745L1127.08 274.101C1127.08 274.101 1127.08 274.101 1127.08 274.101C1138.83 264.478 1151.41 264.476 1163.16 274.101C1163.16 274.101 1163.16 274.101 1163.16 274.102L1176.16 284.745C1186.18 292.951 1196.91 292.951 1206.92 284.746L1206.92 284.745L1219.92 274.101C1219.92 274.101 1219.92 274.101 1219.92 274.101C1231.68 264.477 1244.25 264.476 1256 274.102L1253.34 296.734C1243.33 288.53 1232.6 288.529 1222.58 296.735L1209.58 307.379C1209.58 307.38 1209.58 307.38 1209.58 307.38C1197.83 317.005 1185.25 317.004 1173.5 307.38L1160.5 296.735L1160.5 296.734C1150.48 288.53 1139.76 288.529 1129.74 296.735L1116.74 307.379C1116.74 307.38 1116.74 307.38 1116.74 307.38C1104.99 317.004 1092.41 317.004 1080.66 307.38C1080.66 307.38 1080.66 307.38 1080.66 307.38L1067.66 296.734C1057.64 288.53 1046.92 288.529 1036.9 296.735L1023.9 307.379C1023.9 307.38 1023.9 307.38 1023.9 307.38C1012.15 317.004 999.573 317.004 987.821 307.38C987.821 307.38 987.821 307.38 987.821 307.38L974.816 296.734Z" fill="#393A3D"/>
<path fill-rule="evenodd" clip-rule="evenodd" d="M333.748 121.856C323.735 113.651 313.012 113.65 302.991 121.856L300.332 99.2221C312.084 89.5984 324.661 89.5974 336.408 99.2217C336.408 99.2218 336.408 99.2217 336.408 99.2217C336.408 99.222 336.409 99.2225 336.409 99.2227L349.411 109.867C359.432 118.072 370.155 118.072 380.168 109.868L380.169 109.867L393.173 99.2221C393.173 99.222 393.173 99.2222 393.173 99.2221C404.925 89.5988 417.502 89.5975 429.248 99.2217C429.249 99.2221 429.249 99.2224 429.25 99.2227L442.252 109.867C452.273 118.072 462.996 118.072 473.009 109.868L473.01 109.867L486.013 99.2221C486.014 99.222 486.013 99.2222 486.013 99.2221C497.766 89.5988 510.343 89.5975 522.089 99.2217C522.089 99.2221 522.09 99.2224 522.09 99.2227L535.093 109.867C545.114 118.072 555.837 118.072 565.85 109.868L565.851 109.867L578.854 99.2221C578.854 99.222 578.854 99.2222 578.854 99.2221C590.607 89.5984 603.184 89.5975 614.931 99.2227L612.27 121.856C602.257 113.651 591.535 113.65 581.513 121.856L568.511 132.5C568.51 132.501 568.51 132.501 568.509 132.501C556.763 142.126 544.186 142.125 532.434 132.501L519.43 121.857L519.429 121.856C509.416 113.651 498.694 113.65 488.673 121.856L475.67 132.5C475.669 132.501 475.669 132.501 475.669 132.501C463.923 142.126 451.346 142.125 439.593 132.501C439.593 132.501 439.594 132.501 439.593 132.501L426.589 121.856C416.576 113.651 405.853 113.65 395.832 121.856L382.829 132.5C382.829 132.501 382.828 132.501 382.828 132.501C371.082 142.126 358.505 142.125 346.753 132.501C346.753 132.501 346.753 132.501 346.753 132.501L333.748 121.856Z" fill="#393A3D"/>
<path fill-rule="evenodd" clip-rule="evenodd" d="M333.748 165.574C323.735 157.37 313.012 157.369 302.991 165.575L300.332 142.941C312.084 133.317 324.661 133.316 336.408 142.94C336.408 142.941 336.408 142.94 336.408 142.94C336.408 142.941 336.409 142.941 336.409 142.941L349.411 153.585C359.432 161.791 370.155 161.791 380.168 153.586L380.169 153.585L393.173 142.941C393.173 142.941 393.173 142.941 393.173 142.941C404.925 133.318 417.502 133.316 429.248 142.94C429.249 142.941 429.249 142.941 429.25 142.941L442.252 153.585C452.273 161.791 462.996 161.791 473.009 153.586L473.01 153.585L486.013 142.941C486.014 142.941 486.013 142.941 486.013 142.941C497.766 133.318 510.343 133.316 522.089 142.94C522.089 142.941 522.09 142.941 522.09 142.941L535.093 153.585C545.114 161.791 555.837 161.791 565.85 153.586L565.851 153.585L578.854 142.941C578.854 142.941 578.854 142.941 578.854 142.941C590.607 133.317 603.184 133.316 614.931 142.941L612.27 165.574C602.257 157.37 591.535 157.369 581.513 165.575L568.511 176.219C568.51 176.219 568.51 176.22 568.509 176.22C556.763 185.844 544.186 185.843 532.434 176.22L519.43 165.575L519.429 165.574C509.416 157.37 498.694 157.369 488.673 165.575L475.67 176.219C475.669 176.219 475.669 176.22 475.669 176.22C463.923 185.844 451.346 185.843 439.593 176.22C439.593 176.22 439.594 176.22 439.593 176.22L426.589 165.574C416.576 157.37 405.853 157.369 395.832 165.575L382.829 176.219C382.829 176.219 382.828 176.22 382.828 176.22C371.082 185.844 358.505 185.843 346.753 176.22C346.753 176.22 346.753 176.22 346.753 176.22L333.748 165.574Z" fill="#393A3D"/>
<path fill-rule="evenodd" clip-rule="evenodd" d="M333.748 209.293C323.735 201.088 313.012 201.088 302.991 209.294L300.332 186.66C312.084 177.036 324.661 177.035 336.408 186.659C336.408 186.659 336.408 186.659 336.408 186.659C336.408 186.659 336.409 186.66 336.409 186.66L349.411 197.304C359.432 205.51 370.155 205.51 380.168 197.305L380.169 197.304L393.173 186.66C393.173 186.659 393.173 186.66 393.173 186.66C404.925 177.036 417.502 177.035 429.248 186.659C429.249 186.66 429.249 186.66 429.25 186.66L442.252 197.304C452.273 205.51 462.996 205.51 473.009 197.305L473.01 197.304L486.013 186.66C486.014 186.659 486.013 186.66 486.013 186.66C497.766 177.036 510.343 177.035 522.089 186.659C522.089 186.66 522.09 186.66 522.09 186.66L535.093 197.304C545.114 205.51 555.837 205.51 565.85 197.305L565.851 197.304L578.854 186.66C578.854 186.659 578.854 186.66 578.854 186.66C590.607 177.036 603.184 177.035 614.931 186.66L612.27 209.293C602.257 201.088 591.535 201.088 581.513 209.294L568.511 219.938C568.51 219.938 568.51 219.938 568.509 219.939C556.763 229.563 544.186 229.562 532.434 219.938L519.43 209.294L519.429 209.293C509.416 201.088 498.694 201.088 488.673 209.294L475.67 219.938C475.669 219.938 475.669 219.938 475.669 219.939C463.923 229.563 451.346 229.562 439.593 219.939C439.593 219.939 439.594 219.939 439.593 219.939L426.589 209.293C416.576 201.088 405.853 201.088 395.832 209.294L382.829 219.938C382.829 219.938 382.828 219.938 382.828 219.939C371.082 229.563 358.505 229.562 346.753 219.939C346.753 219.939 346.753 219.939 346.753 219.939L333.748 209.293Z" fill="#393A3D"/>
<path fill-rule="evenodd" clip-rule="evenodd" d="M333.748 253.016C323.735 244.811 313.012 244.81 302.991 253.016L300.332 230.382C312.084 220.759 324.661 220.758 336.408 230.382C336.408 230.382 336.408 230.382 336.408 230.382C336.408 230.382 336.409 230.383 336.409 230.383L349.411 241.027C359.432 249.233 370.155 249.232 380.168 241.028L380.169 241.027L393.173 230.382C393.173 230.382 393.173 230.382 393.173 230.382C404.925 220.759 417.502 220.758 429.248 230.382C429.249 230.382 429.249 230.383 429.25 230.383L442.252 241.027C452.273 249.233 462.996 249.232 473.009 241.028L473.01 241.027L486.013 230.382C486.014 230.382 486.013 230.382 486.013 230.382C497.766 220.759 510.343 220.758 522.089 230.382C522.089 230.382 522.09 230.383 522.09 230.383L535.093 241.027C545.114 249.233 555.837 249.232 565.85 241.028L565.851 241.027L578.854 230.382C578.854 230.382 578.854 230.382 578.854 230.382C590.607 220.759 603.184 220.758 614.931 230.383L612.27 253.016C602.257 244.811 591.535 244.81 581.513 253.016L568.511 263.66C568.51 263.661 568.51 263.661 568.509 263.661C556.763 273.286 544.186 273.285 532.434 263.661L519.43 253.017L519.429 253.016C509.416 244.811 498.694 244.81 488.673 253.016L475.67 263.66C475.669 263.661 475.669 263.661 475.669 263.661C463.923 273.286 451.346 273.285 439.593 263.661C439.593 263.661 439.594 263.662 439.593 263.661L426.589 253.016C416.576 244.811 405.853 244.81 395.832 253.016L382.829 263.66C382.829 263.661 382.828 263.661 382.828 263.661C371.082 273.286 358.505 273.285 346.753 263.661C346.753 263.661 346.753 263.662 346.753 263.661L333.748 253.016Z" fill="#393A3D"/>
<path fill-rule="evenodd" clip-rule="evenodd" d="M333.748 296.734C323.735 288.53 313.012 288.529 302.991 296.735L300.332 274.101C312.084 264.477 324.661 264.476 336.408 274.101C336.408 274.101 336.408 274.101 336.408 274.101C336.408 274.101 336.409 274.101 336.409 274.102L349.411 284.745C359.432 292.951 370.155 292.951 380.168 284.746L380.169 284.745L393.173 274.101C393.173 274.101 393.173 274.101 393.173 274.101C404.925 264.478 417.502 264.476 429.248 274.101C429.249 274.101 429.249 274.101 429.25 274.102L442.252 284.745C452.273 292.951 462.996 292.951 473.009 284.746L473.01 284.745L486.013 274.101C486.014 274.101 486.013 274.101 486.013 274.101C497.766 264.478 510.343 264.476 522.089 274.101C522.089 274.101 522.09 274.101 522.09 274.102L535.093 284.745C545.114 292.951 555.837 292.951 565.85 284.746L565.851 284.745L578.854 274.101C578.854 274.101 578.854 274.101 578.854 274.101C590.607 264.477 603.184 264.476 614.931 274.102L612.27 296.734C602.257 288.53 591.535 288.529 581.513 296.735L568.511 307.379C568.51 307.38 568.51 307.38 568.509 307.38C556.763 317.005 544.186 317.004 532.434 307.38L519.43 296.735L519.429 296.734C509.416 288.53 498.694 288.529 488.673 296.735L475.67 307.379C475.669 307.38 475.669 307.38 475.669 307.38C463.923 317.004 451.346 317.004 439.593 307.38C439.593 307.38 439.594 307.38 439.593 307.38L426.589 296.734C416.576 288.53 405.853 288.529 395.832 296.735L382.829 307.379C382.829 307.38 382.828 307.38 382.828 307.38C371.082 317.004 358.505 317.004 346.753 307.38C346.753 307.38 346.753 307.38 346.753 307.38L333.748 296.734Z" fill="#393A3D"/>
<path fill-rule="evenodd" clip-rule="evenodd" d="M660.217 359.687C650.204 351.373 639.481 351.372 629.46 359.688L626.801 336.752C638.553 327 651.13 326.999 662.876 336.752C662.876 336.752 662.876 336.751 662.876 336.752C662.877 336.752 662.877 336.752 662.878 336.753L675.88 347.538C685.901 355.854 696.624 355.853 706.637 347.539L706.638 347.538L719.641 336.752C719.642 336.752 719.641 336.752 719.641 336.752C731.394 327 743.971 326.999 755.717 336.752C755.717 336.752 755.718 336.752 755.718 336.753L768.721 347.538C778.742 355.854 789.465 355.853 799.478 347.539L799.479 347.538L812.482 336.752C812.482 336.752 812.482 336.752 812.482 336.752C824.234 327 836.812 326.999 848.558 336.752C848.558 336.752 848.559 336.752 848.559 336.753L861.561 347.538C871.582 355.854 882.306 355.853 892.318 347.539L892.319 347.538L905.323 336.752C905.323 336.752 905.323 336.752 905.323 336.752C917.075 327 929.653 326.999 941.4 336.753L938.739 359.687C928.726 351.373 918.003 351.372 907.982 359.688L894.979 370.474C894.979 370.474 894.978 370.475 894.978 370.475C883.232 380.228 870.655 380.226 858.902 370.475L845.899 359.688L845.898 359.687C835.885 351.373 825.163 351.372 815.142 359.688L802.139 370.474C802.138 370.474 802.138 370.475 802.137 370.475C790.391 380.227 777.814 380.226 766.062 370.475C766.062 370.475 766.062 370.475 766.062 370.475L753.057 359.687C743.045 351.373 732.322 351.372 722.301 359.688L709.298 370.474C709.298 370.474 709.297 370.475 709.297 370.475C697.551 380.227 684.974 380.226 673.222 370.475C673.221 370.475 673.222 370.475 673.222 370.475L660.217 359.687Z" fill="#393A3D"/>
<path fill-rule="evenodd" clip-rule="evenodd" d="M660.217 403.988C650.204 395.674 639.481 395.673 629.46 403.989L626.801 381.053C638.553 371.301 651.13 371.3 662.876 381.052C662.876 381.052 662.876 381.052 662.876 381.052C662.877 381.053 662.877 381.053 662.878 381.053L675.88 391.839C685.901 400.154 696.624 400.154 706.637 391.84L706.638 391.839L719.641 381.053C719.642 381.053 719.641 381.053 719.641 381.053C731.394 371.301 743.971 371.3 755.717 381.052C755.717 381.053 755.718 381.053 755.718 381.053L768.721 391.839C778.742 400.154 789.465 400.154 799.478 391.84L799.479 391.839L812.482 381.053C812.482 381.053 812.482 381.053 812.482 381.053C824.234 371.301 836.812 371.3 848.558 381.052C848.558 381.053 848.559 381.053 848.559 381.053L861.561 391.839C871.582 400.154 882.306 400.154 892.318 391.84L892.319 391.839L905.323 381.053C905.323 381.053 905.323 381.053 905.323 381.053C917.075 371.301 929.653 371.3 941.4 381.053L938.739 403.988C928.726 395.674 918.003 395.673 907.982 403.989L894.979 414.775C894.979 414.775 894.978 414.775 894.978 414.776C883.232 424.528 870.655 424.527 858.902 414.775L845.899 403.989L845.898 403.988C835.885 395.674 825.163 395.673 815.142 403.989L802.139 414.775C802.138 414.775 802.138 414.775 802.137 414.776C790.391 424.528 777.814 424.527 766.062 414.776C766.062 414.776 766.062 414.776 766.062 414.776L753.057 403.988C743.045 395.674 732.322 395.673 722.301 403.989L709.298 414.775C709.298 414.775 709.297 414.775 709.297 414.776C697.551 424.528 684.974 424.527 673.222 414.776C673.221 414.776 673.222 414.776 673.222 414.776L660.217 403.988Z" fill="#393A3D"/>
<path fill-rule="evenodd" clip-rule="evenodd" d="M660.217 448.293C650.204 439.979 639.481 439.978 629.46 448.293L626.801 425.357C638.553 415.605 651.13 415.604 662.876 425.357C662.876 425.357 662.876 425.357 662.876 425.357C662.877 425.357 662.877 425.358 662.878 425.358L675.88 436.144C685.901 444.459 696.624 444.459 706.637 436.145L706.638 436.144L719.641 425.357C719.642 425.357 719.641 425.357 719.641 425.357C731.394 415.606 743.971 415.604 755.717 425.357C755.717 425.357 755.718 425.358 755.718 425.358L768.721 436.144C778.742 444.459 789.465 444.459 799.478 436.145L799.479 436.144L812.482 425.357C812.482 425.357 812.482 425.357 812.482 425.357C824.234 415.606 836.812 415.604 848.558 425.357C848.558 425.357 848.559 425.358 848.559 425.358L861.561 436.144C871.582 444.459 882.306 444.459 892.318 436.145L892.319 436.144L905.323 425.357C905.323 425.357 905.323 425.357 905.323 425.357C917.075 415.605 929.653 415.604 941.4 425.358L938.739 448.293C928.726 439.979 918.003 439.978 907.982 448.293L894.979 459.079C894.979 459.08 894.978 459.08 894.978 459.08C883.232 468.833 870.655 468.832 858.902 459.08L845.899 448.294L845.898 448.293C835.885 439.979 825.163 439.978 815.142 448.293L802.139 459.079C802.138 459.08 802.138 459.08 802.137 459.08C790.391 468.833 777.814 468.832 766.062 459.08C766.062 459.08 766.062 459.08 766.062 459.08L753.057 448.293C743.045 439.979 732.322 439.978 722.301 448.293L709.298 459.079C709.298 459.08 709.297 459.08 709.297 459.08C697.551 468.833 684.974 468.832 673.222 459.08C673.221 459.08 673.222 459.08 673.222 459.08L660.217 448.293Z" fill="#393A3D"/>
<path fill-rule="evenodd" clip-rule="evenodd" d="M660.217 492.593C650.204 484.279 639.481 484.279 629.46 492.594L626.801 469.658C638.553 459.906 651.13 459.905 662.876 469.658C662.876 469.658 662.876 469.658 662.876 469.658C662.877 469.658 662.877 469.659 662.878 469.659L675.88 480.445C685.901 488.76 696.624 488.76 706.637 480.446L706.638 480.445L719.641 469.658C719.642 469.658 719.641 469.658 719.641 469.658C731.394 459.907 743.971 459.905 755.717 469.658C755.717 469.658 755.718 469.658 755.718 469.659L768.721 480.445C778.742 488.76 789.465 488.76 799.478 480.446L799.479 480.445L812.482 469.658C812.482 469.658 812.482 469.658 812.482 469.658C824.234 459.907 836.812 459.905 848.558 469.658C848.558 469.658 848.559 469.658 848.559 469.659L861.561 480.445C871.582 488.76 882.306 488.76 892.318 480.446L892.319 480.445L905.323 469.658C905.323 469.658 905.323 469.658 905.323 469.658C917.075 459.906 929.653 459.905 941.4 469.659L938.739 492.593C928.726 484.279 918.003 484.279 907.982 492.594L894.979 503.38C894.979 503.38 894.978 503.381 894.978 503.381C883.232 513.134 870.655 513.133 858.902 503.381L845.899 492.594L845.898 492.593C835.885 484.279 825.163 484.279 815.142 492.594L802.139 503.38C802.138 503.38 802.138 503.381 802.137 503.381C790.391 513.134 777.814 513.133 766.062 503.381C766.062 503.381 766.062 503.381 766.062 503.381L753.057 492.593C743.045 484.279 732.322 484.279 722.301 492.594L709.298 503.38C709.298 503.38 709.297 503.381 709.297 503.381C697.551 513.134 684.974 513.133 673.222 503.381C673.221 503.381 673.222 503.381 673.222 503.381L660.217 492.593Z" fill="#393A3D"/>
<path fill-rule="evenodd" clip-rule="evenodd" d="M660.217 536.898C650.204 528.584 639.481 528.583 629.46 536.899L626.801 513.963C638.553 504.211 651.13 504.21 662.876 513.963C662.876 513.963 662.876 513.962 662.876 513.963C662.877 513.963 662.877 513.963 662.878 513.964L675.88 524.749C685.901 533.065 696.624 533.064 706.637 524.75L706.638 524.749L719.641 513.963C719.642 513.963 719.641 513.963 719.641 513.963C731.394 504.211 743.971 504.21 755.717 513.963C755.717 513.963 755.718 513.963 755.718 513.964L768.721 524.749C778.742 533.065 789.465 533.064 799.478 524.75L799.479 524.749L812.482 513.963C812.482 513.963 812.482 513.963 812.482 513.963C824.234 504.211 836.812 504.21 848.558 513.963C848.558 513.963 848.559 513.963 848.559 513.964L861.561 524.749C871.582 533.065 882.306 533.064 892.318 524.75L892.319 524.749L905.323 513.963C905.323 513.963 905.323 513.963 905.323 513.963C917.075 504.211 929.653 504.21 941.4 513.964L938.739 536.898C928.726 528.584 918.003 528.583 907.982 536.899L894.979 547.685C894.979 547.685 894.978 547.685 894.978 547.686C883.232 557.438 870.655 557.437 858.902 547.685L845.899 536.899L845.898 536.898C835.885 528.584 825.163 528.583 815.142 536.899L802.139 547.685C802.138 547.685 802.138 547.685 802.137 547.686C790.391 557.438 777.814 557.437 766.062 547.686C766.062 547.686 766.062 547.686 766.062 547.686L753.057 536.898C743.045 528.584 732.322 528.583 722.301 536.899L709.298 547.685C709.298 547.685 709.297 547.685 709.297 547.686C697.551 557.438 684.974 557.437 673.222 547.686C673.221 547.686 673.222 547.686 673.222 547.686L660.217 536.898Z" fill="#393A3D"/>
<path fill-rule="evenodd" clip-rule="evenodd" d="M10.2439 359.687C0.231169 351.373 -10.4914 351.372 -20.5125 359.688L-23.1719 336.752C-11.4196 327 1.15752 326.999 12.9037 336.752C12.9038 336.752 12.9036 336.751 12.9037 336.752C12.904 336.752 12.9046 336.752 12.9049 336.753L25.9075 347.538C35.9285 355.854 46.6515 355.853 56.6643 347.539L56.6655 347.538L69.6688 336.752C69.6689 336.752 69.6687 336.752 69.6688 336.752C81.421 327 93.9983 326.999 105.744 336.752C105.745 336.752 105.745 336.752 105.746 336.753L118.748 347.538C128.769 355.854 139.492 355.853 149.505 347.539L149.506 347.538L162.509 336.752C162.51 336.752 162.509 336.752 162.509 336.752C174.262 327 186.839 326.999 198.585 336.752C198.585 336.752 198.586 336.752 198.586 336.753L211.589 347.538C221.61 355.854 232.333 355.853 242.346 347.539L242.347 347.538L255.35 336.752C255.35 336.752 255.35 336.752 255.35 336.752C267.103 327 279.681 326.999 291.427 336.753L288.766 359.687C278.753 351.373 268.031 351.372 258.01 359.688L245.007 370.474C245.006 370.474 245.006 370.475 245.005 370.475C233.259 380.228 220.682 380.226 208.93 370.475L195.926 359.688L195.925 359.687C185.913 351.373 175.19 351.372 165.169 359.688L152.166 370.474C152.166 370.474 152.165 370.475 152.165 370.475C140.419 380.227 127.842 380.226 116.09 370.475C116.089 370.475 116.09 370.475 116.09 370.475L103.085 359.687C93.0718 351.373 82.3492 351.372 72.3282 359.688L59.3253 370.474C59.3249 370.474 59.3245 370.475 59.3241 370.475C47.578 380.227 35.001 380.226 23.2489 370.475C23.2487 370.475 23.249 370.475 23.2489 370.475L10.2439 359.687Z" fill="#393A3D"/>
<path fill-rule="evenodd" clip-rule="evenodd" d="M10.2439 403.988C0.231169 395.674 -10.4914 395.673 -20.5125 403.989L-23.1719 381.053C-11.4196 371.301 1.15752 371.3 12.9037 381.052C12.9038 381.052 12.9036 381.052 12.9037 381.052C12.904 381.053 12.9046 381.053 12.9049 381.053L25.9075 391.839C35.9285 400.154 46.6515 400.154 56.6643 391.84L56.6655 391.839L69.6688 381.053C69.6689 381.053 69.6687 381.053 69.6688 381.053C81.421 371.301 93.9983 371.3 105.744 381.052C105.745 381.053 105.745 381.053 105.746 381.053L118.748 391.839C128.769 400.154 139.492 400.154 149.505 391.84L149.506 391.839L162.509 381.053C162.51 381.053 162.509 381.053 162.509 381.053C174.262 371.301 186.839 371.3 198.585 381.052C198.585 381.053 198.586 381.053 198.586 381.053L211.589 391.839C221.61 400.154 232.333 400.154 242.346 391.84L242.347 391.839L255.35 381.053C255.35 381.053 255.35 381.053 255.35 381.053C267.103 371.301 279.681 371.3 291.427 381.053L288.766 403.988C278.753 395.674 268.031 395.673 258.01 403.989L245.007 414.775C245.006 414.775 245.006 414.775 245.005 414.776C233.259 424.528 220.682 424.527 208.93 414.775L195.926 403.989L195.925 403.988C185.913 395.674 175.19 395.673 165.169 403.989L152.166 414.775C152.166 414.775 152.165 414.775 152.165 414.776C140.419 424.528 127.842 424.527 116.09 414.776C116.089 414.776 116.09 414.776 116.09 414.776L103.085 403.988C93.0718 395.674 82.3492 395.673 72.3282 403.989L59.3253 414.775C59.3249 414.775 59.3245 414.775 59.3241 414.776C47.578 424.528 35.001 424.527 23.2489 414.776C23.2487 414.776 23.249 414.776 23.2489 414.776L10.2439 403.988Z" fill="#393A3D"/>
<path fill-rule="evenodd" clip-rule="evenodd" d="M10.2439 448.293C0.231169 439.979 -10.4914 439.978 -20.5125 448.293L-23.1719 425.357C-11.4196 415.605 1.15752 415.604 12.9037 425.357C12.9038 425.357 12.9036 425.357 12.9037 425.357C12.904 425.357 12.9046 425.358 12.9049 425.358L25.9075 436.144C35.9285 444.459 46.6515 444.459 56.6643 436.145L56.6655 436.144L69.6688 425.357C69.6689 425.357 69.6687 425.357 69.6688 425.357C81.421 415.606 93.9983 415.604 105.744 425.357C105.745 425.357 105.745 425.358 105.746 425.358L118.748 436.144C128.769 444.459 139.492 444.459 149.505 436.145L149.506 436.144L162.509 425.357C162.51 425.357 162.509 425.357 162.509 425.357C174.262 415.606 186.839 415.604 198.585 425.357C198.585 425.357 198.586 425.358 198.586 425.358L211.589 436.144C221.61 444.459 232.333 444.459 242.346 436.145L242.347 436.144L255.35 425.357C255.35 425.357 255.35 425.357 255.35 425.357C267.103 415.605 279.681 415.604 291.427 425.358L288.766 448.293C278.753 439.979 268.031 439.978 258.01 448.293L245.007 459.079C245.006 459.08 245.006 459.08 245.005 459.08C233.259 468.833 220.682 468.832 208.93 459.08L195.926 448.294L195.925 448.293C185.913 439.979 175.19 439.978 165.169 448.293L152.166 459.079C152.166 459.08 152.165 459.08 152.165 459.08C140.419 468.833 127.842 468.832 116.09 459.08C116.089 459.08 116.09 459.08 116.09 459.08L103.085 448.293C93.0718 439.979 82.3492 439.978 72.3282 448.293L59.3253 459.079C59.3249 459.08 59.3245 459.08 59.3241 459.08C47.578 468.833 35.001 468.832 23.2489 459.08C23.2487 459.08 23.249 459.08 23.2489 459.08L10.2439 448.293Z" fill="#393A3D"/>
<path fill-rule="evenodd" clip-rule="evenodd" d="M10.2439 492.593C0.231169 484.279 -10.4914 484.279 -20.5125 492.594L-23.1719 469.658C-11.4196 459.906 1.15752 459.905 12.9037 469.658C12.9038 469.658 12.9036 469.658 12.9037 469.658C12.904 469.658 12.9046 469.659 12.9049 469.659L25.9075 480.445C35.9285 488.76 46.6515 488.76 56.6643 480.446L56.6655 480.445L69.6688 469.658C69.6689 469.658 69.6687 469.658 69.6688 469.658C81.421 459.907 93.9983 459.905 105.744 469.658C105.745 469.658 105.745 469.658 105.746 469.659L118.748 480.445C128.769 488.76 139.492 488.76 149.505 480.446L149.506 480.445L162.509 469.658C162.51 469.658 162.509 469.658 162.509 469.658C174.262 459.907 186.839 459.905 198.585 469.658C198.585 469.658 198.586 469.658 198.586 469.659L211.589 480.445C221.61 488.76 232.333 488.76 242.346 480.446L242.347 480.445L255.35 469.658C255.35 469.658 255.35 469.658 255.35 469.658C267.103 459.906 279.681 459.905 291.427 469.659L288.766 492.593C278.753 484.279 268.031 484.279 258.01 492.594L245.007 503.38C245.006 503.38 245.006 503.381 245.005 503.381C233.259 513.134 220.682 513.133 208.93 503.381L195.926 492.594L195.925 492.593C185.913 484.279 175.19 484.279 165.169 492.594L152.166 503.38C152.166 503.38 152.165 503.381 152.165 503.381C140.419 513.134 127.842 513.133 116.09 503.381C116.089 503.381 116.09 503.381 116.09 503.381L103.085 492.593C93.0718 484.279 82.3492 484.279 72.3282 492.594L59.3253 503.38C59.3249 503.38 59.3245 503.381 59.3241 503.381C47.578 513.134 35.001 513.133 23.2489 503.381C23.2487 503.381 23.249 503.381 23.2489 503.381L10.2439 492.593Z" fill="#393A3D"/>
<path fill-rule="evenodd" clip-rule="evenodd" d="M10.2439 536.898C0.231169 528.584 -10.4914 528.583 -20.5125 536.899L-23.1719 513.963C-11.4196 504.211 1.15752 504.21 12.9037 513.963C12.9038 513.963 12.9036 513.962 12.9037 513.963C12.904 513.963 12.9046 513.963 12.9049 513.964L25.9075 524.749C35.9285 533.065 46.6515 533.064 56.6643 524.75L56.6655 524.749L69.6688 513.963C69.6689 513.963 69.6687 513.963 69.6688 513.963C81.421 504.211 93.9983 504.21 105.744 513.963C105.745 513.963 105.745 513.963 105.746 513.964L118.748 524.749C128.769 533.065 139.492 533.064 149.505 524.75L149.506 524.749L162.509 513.963C162.51 513.963 162.509 513.963 162.509 513.963C174.262 504.211 186.839 504.21 198.585 513.963C198.585 513.963 198.586 513.963 198.586 513.964L211.589 524.749C221.61 533.065 232.333 533.064 242.346 524.75L242.347 524.749L255.35 513.963C255.35 513.963 255.35 513.963 255.35 513.963C267.103 504.211 279.681 504.21 291.427 513.964L288.766 536.898C278.753 528.584 268.031 528.583 258.01 536.899L245.007 547.685C245.006 547.685 245.006 547.685 245.005 547.686C233.259 557.438 220.682 557.437 208.93 547.685L195.926 536.899L195.925 536.898C185.913 528.584 175.19 528.583 165.169 536.899L152.166 547.685C152.166 547.685 152.165 547.685 152.165 547.686C140.419 557.438 127.842 557.437 116.09 547.686C116.089 547.686 116.09 547.686 116.09 547.686L103.085 536.898C93.0718 528.584 82.3492 528.583 72.3282 536.899L59.3253 547.685C59.3249 547.685 59.3245 547.685 59.3241 547.686C47.578 557.438 35.001 557.437 23.2489 547.686C23.2487 547.686 23.249 547.686 23.2489 547.686L10.2439 536.898Z" fill="#393A3D"/>
<path d="M52.9453 115.145C90.3934 152.593 151.109 152.593 188.557 115.145C226.005 77.6965 226.005 16.9811 188.557 -20.467L52.9453 115.145Z" fill="#F54BAC"/>
<path d="M52.9453 729.398C90.3934 766.846 151.109 766.847 188.557 729.398C226.005 691.95 226.005 631.235 188.557 593.787L52.9453 729.398Z" fill="#B30078"/>
<path d="M699.812 115.145C737.261 152.593 797.976 152.593 835.424 115.145C872.872 77.6965 872.872 16.9811 835.424 -20.467L699.812 115.145Z" fill="#B30078"/>
<path d="M699.812 729.398C737.261 766.846 797.976 766.847 835.424 729.398C872.872 691.95 872.872 631.235 835.424 593.787L699.812 729.398Z" fill="#F54BAC"/>
<path d="M996.098 484.91C1033.55 522.358 1094.26 522.358 1131.71 484.91C1169.16 447.462 1169.16 386.747 1131.71 349.299L996.098 484.91Z" fill="#B30078"/>
<path d="M369.531 485.441C406.979 522.889 467.695 522.89 505.143 485.441C542.591 447.993 542.591 387.278 505.143 349.83L369.531 485.441Z" fill="#F54BAC"/>
</g>
<defs>
<clipPath id="clip0_3_784">
<rect width="1200" height="675" fill="white"/>
</clipPath>
</defs>
</svg>
