<svg width="1200" height="675" viewBox="0 0 1200 675" fill="none" xmlns="http://www.w3.org/2000/svg">
<g clip-path="url(#clip0_3_741)">
<rect width="1200" height="675" fill="#E2D9FF"/>
<path d="M0 132.148C98.5379 262.926 150.778 266.198 240.68 194.428L240.68 667.782H0V132.148Z" fill="#F54BAC"/>
<path d="M692.606 83.4766C938.227 83.4766 965.697 287.533 1191.56 235.168V667.779H692.606V83.4766Z" fill="#D9D9D9"/>
<rect x="682.52" y="1164.04" width="1082.37" height="15.9012" transform="rotate(-90 682.52 1164.04)" fill="#F54BAC"/>
<rect x="714.223" y="1164.04" width="1082.37" height="15.9012" transform="rotate(-90 714.223 1164.04)" fill="#F54BAC"/>
<rect x="745.924" y="1227.59" width="1141.75" height="15.9012" transform="rotate(-90 745.924 1227.59)" fill="#F54BAC"/>
<rect x="777.625" y="1227.59" width="1141.75" height="15.9012" transform="rotate(-90 777.625 1227.59)" fill="#F54BAC"/>
<rect x="809.328" y="1227.59" width="1141.75" height="15.9012" transform="rotate(-90 809.328 1227.59)" fill="#F54BAC"/>
<rect x="841.029" y="1227.59" width="1141.75" height="15.9012" transform="rotate(-90 841.029 1227.59)" fill="#F54BAC"/>
<rect x="872.732" y="1227.59" width="1141.75" height="15.9012" transform="rotate(-90 872.732 1227.59)" fill="#F54BAC"/>
<rect x="904.436" y="1227.59" width="1091.63" height="15.9012" transform="rotate(-90 904.436 1227.59)" fill="#F54BAC"/>
<rect x="936.137" y="1164.04" width="1024.15" height="15.9012" transform="rotate(-90 936.137 1164.04)" fill="#F54BAC"/>
<rect x="967.838" y="1164.04" width="1024.15" height="15.9012" transform="rotate(-90 967.838 1164.04)" fill="#F54BAC"/>
<rect x="999.541" y="1227.59" width="1024.15" height="15.9012" transform="rotate(-90 999.541 1227.59)" fill="#F54BAC"/>
<rect x="1031.24" y="1227.59" width="1024.15" height="15.9012" transform="rotate(-90 1031.24 1227.59)" fill="#F54BAC"/>
<rect x="1062.95" y="1227.59" width="1024.15" height="15.9012" transform="rotate(-90 1062.95 1227.59)" fill="#F54BAC"/>
<rect x="1094.65" y="1227.59" width="1024.15" height="15.9012" transform="rotate(-90 1094.65 1227.59)" fill="#F54BAC"/>
<rect x="1126.35" y="1227.59" width="1024.15" height="15.9012" transform="rotate(-90 1126.35 1227.59)" fill="#F54BAC"/>
<rect x="1158.05" y="1227.59" width="1024.15" height="15.9012" transform="rotate(-90 1158.05 1227.59)" fill="#F54BAC"/>
<rect x="698.369" y="1474.04" width="1082.37" height="15.9012" transform="rotate(-90 698.369 1474.04)" fill="#B30078"/>
<rect x="730.072" y="1474.04" width="1082.37" height="15.9012" transform="rotate(-90 730.072 1474.04)" fill="#B30078"/>
<rect x="761.773" y="1537.59" width="1141.75" height="15.9012" transform="rotate(-90 761.773 1537.59)" fill="#B30078"/>
<rect x="793.475" y="1537.59" width="1141.75" height="15.9012" transform="rotate(-90 793.475 1537.59)" fill="#B30078"/>
<rect x="825.178" y="1537.59" width="1141.75" height="15.9012" transform="rotate(-90 825.178 1537.59)" fill="#B30078"/>
<rect x="856.879" y="1537.59" width="1141.75" height="15.9012" transform="rotate(-90 856.879 1537.59)" fill="#B30078"/>
<rect x="888.582" y="1537.59" width="1107.5" height="15.9012" transform="rotate(-90 888.582 1537.59)" fill="#B30078"/>
<rect x="920.285" y="1537.59" width="1091.63" height="15.9012" transform="rotate(-90 920.285 1537.59)" fill="#B30078"/>
<rect x="951.986" y="1474.04" width="1024.15" height="15.9012" transform="rotate(-90 951.986 1474.04)" fill="#B30078"/>
<rect x="983.688" y="1474.04" width="992.538" height="15.9012" transform="rotate(-90 983.688 1474.04)" fill="#B30078"/>
<rect x="1015.39" y="1537.59" width="1024.15" height="15.9012" transform="rotate(-90 1015.39 1537.59)" fill="#B30078"/>
<rect x="1047.09" y="1537.59" width="1024.15" height="15.9012" transform="rotate(-90 1047.09 1537.59)" fill="#B30078"/>
<rect x="1078.79" y="1537.59" width="1024.15" height="15.9012" transform="rotate(-90 1078.79 1537.59)" fill="#B30078"/>
<rect x="1110.5" y="1537.59" width="1024.15" height="15.9012" transform="rotate(-90 1110.5 1537.59)" fill="#B30078"/>
<rect x="1142.2" y="1537.59" width="986.445" height="15.9012" transform="rotate(-90 1142.2 1537.59)" fill="#B30078"/>
<rect x="1173.9" y="1537.59" width="967.733" height="15.9012" transform="rotate(-90 1173.9 1537.59)" fill="#B30078"/>
<path fill-rule="evenodd" clip-rule="evenodd" d="M-928.529 158.122C-1030.14 96.8357 -1138.96 96.8332 -1240.65 158.124L-1253.59 77.0967C-1143.47 10.7302 -1025.64 10.7266 -915.592 77.0954C-915.59 77.0966 -915.594 77.0942 -915.592 77.0954L-789.098 153.31C-687.407 214.601 -578.589 214.6 -476.973 153.313L-350.475 77.0967C-350.474 77.0963 -350.476 77.0971 -350.475 77.0967C-240.364 10.7314 -122.527 10.727 -12.4811 77.0954C-12.4791 77.0966 -12.4831 77.0943 -12.4811 77.0954L114.013 153.31C215.704 214.601 324.522 214.6 426.137 153.313L552.636 77.0967C552.636 77.0963 552.635 77.0971 552.636 77.0967C662.747 10.7314 780.583 10.7269 890.629 77.0954C890.631 77.0966 890.627 77.0943 890.629 77.0954L1017.12 153.31C1118.81 214.601 1227.63 214.6 1329.25 153.313L1455.75 77.0967C1565.86 10.729 1683.7 10.7266 1793.75 77.099L1780.8 158.122C1679.19 96.8357 1570.37 96.8332 1468.68 158.124L1342.19 234.336C1342.19 234.338 1342.19 234.335 1342.19 234.336C1232.14 300.705 1114.3 300.705 1004.19 234.339L877.699 158.126C776.083 96.8393 667.262 96.8332 565.571 158.124L439.08 234.336C329.032 300.709 211.195 300.706 101.082 234.34C101.082 234.34 101.083 234.34 101.082 234.34L-25.4119 158.126C-127.028 96.8393 -235.849 96.8332 -337.54 158.124L-464.031 234.336C-574.079 300.709 -691.916 300.706 -802.028 234.34C-802.029 234.34 -802.028 234.34 -802.028 234.34L-928.529 158.122Z" fill="#393A3D"/>
<path fill-rule="evenodd" clip-rule="evenodd" d="M-928.529 471.146C-1030.14 409.859 -1138.96 409.857 -1240.65 471.148L-1253.59 390.12C-1143.47 323.754 -1025.64 323.75 -915.592 390.119C-915.59 390.12 -915.594 390.118 -915.592 390.119L-789.098 466.333C-687.407 527.624 -578.589 527.623 -476.973 466.337L-350.475 390.12C-350.474 390.12 -350.476 390.121 -350.475 390.12C-240.364 323.755 -122.527 323.75 -12.4811 390.119C-12.4791 390.12 -12.4831 390.118 -12.4811 390.119L114.013 466.333C215.704 527.624 324.522 527.623 426.137 466.337L552.636 390.12C552.636 390.12 552.635 390.121 552.636 390.12C662.747 323.755 780.583 323.75 890.629 390.119C890.631 390.12 890.627 390.118 890.629 390.119L1017.12 466.333C1118.81 527.624 1227.63 527.623 1329.25 466.337L1455.75 390.12C1565.86 323.752 1683.7 323.75 1793.75 390.122L1780.8 471.146C1679.19 409.859 1570.37 409.857 1468.68 471.148L1342.19 547.36C1342.19 547.361 1342.19 547.359 1342.19 547.36C1232.14 613.729 1114.3 613.729 1004.19 547.362L877.699 471.149C776.083 409.863 667.262 409.857 565.571 471.148L439.08 547.36C329.032 613.732 211.195 613.73 101.082 547.363C101.082 547.363 101.083 547.364 101.082 547.363L-25.4119 471.149C-127.028 409.863 -235.849 409.857 -337.54 471.148L-464.031 547.36C-574.079 613.732 -691.916 613.73 -802.028 547.363C-802.029 547.363 -802.028 547.364 -802.028 547.363L-928.529 471.146Z" fill="#393A3D"/>
</g>
<defs>
<clipPath id="clip0_3_741">
<rect width="1200" height="675" fill="white"/>
</clipPath>
</defs>
</svg>
