<svg width="1185" height="667" viewBox="0 0 1185 667" fill="none" xmlns="http://www.w3.org/2000/svg">
<g clip-path="url(#clip0_1_1745)">
<rect width="1184" height="666" transform="translate(0.164062 0.78125)" fill="#F4F4EF"/>
<rect y="1.10547" width="681" height="668" fill="#E2D9FF"/>
<path d="M116.699 293.281C159.466 293.281 194.136 258.612 194.136 215.845C194.136 173.078 159.466 138.408 116.699 138.408L116.699 293.281Z" fill="#F54BAC"/>
<path d="M311.516 293.281C354.283 293.281 388.952 258.612 388.952 215.845C388.952 173.078 354.283 138.408 311.516 138.408L311.516 293.281Z" fill="#F54BAC"/>
<path d="M506.32 293.281C549.087 293.281 583.757 258.612 583.757 215.845C583.757 173.078 549.087 138.408 506.32 138.408L506.32 293.281Z" fill="#F54BAC"/>
<path d="M701.137 293.281C743.904 293.281 778.573 258.612 778.573 215.845C778.573 173.078 743.904 138.408 701.137 138.408L701.137 293.281Z" fill="#F54BAC"/>
<path d="M895.949 293.281C938.716 293.281 973.386 258.612 973.386 215.845C973.386 173.078 938.716 138.408 895.949 138.408L895.949 293.281Z" fill="#F54BAC"/>
<path d="M1090.75 293.281C1133.52 293.281 1168.19 258.612 1168.19 215.845C1168.19 173.078 1133.52 138.408 1090.75 138.408L1090.75 293.281Z" fill="#F54BAC"/>
<path d="M96.7383 42.7852C53.9714 42.7852 19.3019 77.4546 19.3019 120.222C19.3019 162.988 53.9714 197.658 96.7383 197.658L96.7383 42.7852Z" fill="#F54BAC"/>
<path d="M291.539 42.7852C248.772 42.7852 214.103 77.4546 214.103 120.222C214.103 162.988 248.772 197.658 291.539 197.658L291.539 42.7852Z" fill="#F54BAC"/>
<path d="M486.355 42.7852C443.589 42.7852 408.919 77.4546 408.919 120.222C408.919 162.988 443.589 197.658 486.355 197.658L486.355 42.7852Z" fill="#F54BAC"/>
<path d="M681.172 42.7852C638.405 42.7852 603.735 77.4546 603.735 120.222C603.735 162.988 638.405 197.658 681.172 197.658L681.172 42.7852Z" fill="#F54BAC"/>
<path d="M875.977 42.7852C833.21 42.7852 798.54 77.4546 798.54 120.222C798.54 162.988 833.21 197.658 875.977 197.658L875.977 42.7852Z" fill="#F54BAC"/>
<path d="M1070.79 42.7852C1028.03 42.7852 993.357 77.4546 993.357 120.222C993.357 162.988 1028.03 197.658 1070.79 197.658L1070.79 42.7852Z" fill="#F54BAC"/>
<path d="M1187.33 284.945V668.624H803.648L1187.33 284.945Z" fill="#393A3D"/>
<circle cx="541.853" cy="496.447" r="19.6585" transform="rotate(180 541.853 496.447)" fill="#B30078"/>
<circle cx="480.693" cy="496.447" r="19.6585" transform="rotate(180 480.693 496.447)" fill="#B30078"/>
<circle cx="419.529" cy="496.447" r="19.6585" transform="rotate(180 419.529 496.447)" fill="#B30078"/>
<circle cx="358.377" cy="496.447" r="19.6585" transform="rotate(180 358.377 496.447)" fill="#B30078"/>
<circle cx="297.216" cy="496.447" r="19.6585" transform="rotate(180 297.216 496.447)" fill="#B30078"/>
<circle cx="236.052" cy="496.447" r="19.6585" transform="rotate(180 236.052 496.447)" fill="#B30078"/>
</g>
<defs>
<clipPath id="clip0_1_1745">
<rect width="1184" height="666" fill="white" transform="translate(0.164062 0.78125)"/>
</clipPath>
</defs>
</svg>
