<svg width="1185" height="667" viewBox="0 0 1185 667" fill="none" xmlns="http://www.w3.org/2000/svg">
<g clip-path="url(#clip0_1_1733)">
<rect width="1184" height="666" transform="translate(0.164062 0.34375)" fill="#F4F4EF"/>
<rect x="433" y="0.109375" width="754" height="668" fill="#E2D9FF"/>
<circle cx="165.52" cy="153.094" r="111.415" fill="#393A3D"/>
<circle cx="845.965" cy="593.367" r="26.9802" fill="#393A3D"/>
<circle cx="1051.07" cy="160.691" r="26.9802" fill="#393A3D"/>
<path d="M706.305 220.262C706.305 291.834 764.326 349.855 835.898 349.855C907.47 349.855 965.491 291.834 965.491 220.262H706.305Z" fill="#F54BAC"/>
<path d="M499.254 76.2617C449.517 24.7945 367.475 23.3916 316.008 73.1284C264.541 122.865 263.138 204.907 312.875 256.374L499.254 76.2617Z" fill="#B30078"/>
<path fill-rule="evenodd" clip-rule="evenodd" d="M676.248 583.477C755.079 583.477 818.985 519.571 818.985 440.74C818.985 361.909 755.079 298.004 676.248 298.004C597.417 298.004 533.512 361.909 533.512 440.74C533.512 519.571 597.417 583.477 676.248 583.477ZM676.248 527.502C724.165 527.502 763.01 488.657 763.01 440.74C763.01 392.823 724.165 353.979 676.248 353.979C628.331 353.979 589.487 392.823 589.487 440.74C589.487 488.657 628.331 527.502 676.248 527.502Z" fill="#B30078"/>
<path fill-rule="evenodd" clip-rule="evenodd" d="M1149.18 119.726C1203.37 119.726 1247.29 75.8 1247.29 21.6148C1247.29 -32.5703 1203.37 -76.4961 1149.18 -76.4961C1095 -76.4961 1051.07 -32.5703 1051.07 21.6148C1051.07 75.8 1095 119.726 1149.18 119.726ZM1149.18 81.2509C1182.12 81.2509 1208.82 54.551 1208.82 21.6148C1208.82 -11.3213 1182.12 -38.0212 1149.18 -38.0212C1116.25 -38.0212 1089.55 -11.3213 1089.55 21.6148C1089.55 54.551 1116.25 81.2509 1149.18 81.2509Z" fill="#B30078"/>
<path fill-rule="evenodd" clip-rule="evenodd" d="M443.215 843.785C603.177 843.785 732.851 714.11 732.851 554.148C732.851 394.187 603.177 264.512 443.215 264.512C283.253 264.512 153.578 394.187 153.578 554.148C153.578 714.11 283.253 843.785 443.215 843.785ZM443.215 792.673C574.948 792.673 681.739 685.882 681.739 554.148C681.739 422.415 574.948 315.624 443.215 315.624C311.481 315.624 204.69 422.415 204.69 554.148C204.69 685.882 311.481 792.673 443.215 792.673Z" fill="#F54BAC"/>
<circle cx="835.895" cy="-71.5814" r="203.105" fill="#393A3D" stroke="#393A3D" stroke-width="4.36856"/>
<path d="M138.062 389.484C168.97 335.951 150.628 267.499 97.0949 236.591C43.5618 205.684 -24.8908 224.026 -55.7982 277.559L-17.7863 299.505C1.00058 266.965 42.6089 255.816 75.1487 274.603C107.689 293.39 118.837 334.998 100.051 367.538L138.062 389.484Z" fill="#393A3D"/>
</g>
<defs>
<clipPath id="clip0_1_1733">
<rect width="1184" height="666" fill="white" transform="translate(0.164062 0.34375)"/>
</clipPath>
</defs>
</svg>
