<svg width="1185" height="667" viewBox="0 0 1185 667" fill="none" xmlns="http://www.w3.org/2000/svg">
<g clip-path="url(#clip0_1_1720)">
<rect width="1184" height="666" transform="translate(0.164062 0.5625)" fill="#F4F4EF"/>
<circle cx="165.52" cy="153.317" r="111.415" fill="#393A3D"/>
<path d="M663.102 220.48C663.102 148.908 605.081 90.8871 533.508 90.8871C461.936 90.8871 403.915 148.908 403.915 220.48L663.102 220.48Z" fill="#F54BAC"/>
<path d="M59.9778 670.258L59.9777 0.563758L729.672 0.5637L59.9778 670.258Z" fill="#E2D9FF"/>
<path d="M270.814 670.258L270.814 0.563758L940.508 0.5637L270.814 670.258Z" fill="#B30078"/>
<path d="M514.626 670.258L514.626 0.563758L1184.32 0.5637L514.626 670.258Z" fill="#F54BAC"/>
<rect x="210.996" y="669.832" width="901.29" height="59.8145" transform="rotate(-90 210.996 669.832)" fill="#393A3D"/>
<rect x="454.805" y="669.832" width="901.29" height="59.8145" transform="rotate(-90 454.805 669.832)" fill="#393A3D"/>
<rect x="0.164062" y="669.832" width="901.29" height="59.8145" transform="rotate(-90 0.164062 669.832)" fill="#393A3D"/>
</g>
<defs>
<clipPath id="clip0_1_1720">
<rect width="1184" height="666" fill="white" transform="translate(0.164062 0.5625)"/>
</clipPath>
</defs>
</svg>
