<svg width="1200" height="675" viewBox="0 0 1200 675" fill="none" xmlns="http://www.w3.org/2000/svg">
<g clip-path="url(#clip0_3_703)">
<rect width="1200" height="675" fill="#E2D9FF"/>
<rect x="513.289" width="443.66" height="667.781" fill="#F4F4EF"/>
<rect x="513.289" width="443.66" height="667.781" fill="#F4F4EF"/>
<rect x="1104.24" width="443.66" height="667.781" fill="#F4F4EF"/>
<circle cx="165.36" cy="152.755" r="111.415" fill="#393A3D"/>
<path d="M593.258 219.918C593.258 291.49 651.279 349.511 722.851 349.511C794.424 349.511 852.445 291.49 852.445 219.918H593.258Z" fill="#F54BAC"/>
<path d="M662.941 219.918C662.941 148.346 604.92 90.3246 533.348 90.3246C461.776 90.3246 403.755 148.346 403.755 219.918L662.941 219.918Z" fill="#F54BAC"/>
<rect x="78.2734" y="296.73" width="174.175" height="22.7589" fill="#B30078"/>
<rect x="78.2734" y="342.25" width="174.175" height="22.7589" fill="#B30078"/>
<rect x="78.2734" y="387.766" width="174.175" height="22.7589" fill="#B30078"/>
<rect x="78.2734" y="433.285" width="174.175" height="22.7589" fill="#B30078"/>
<rect x="78.2734" y="478.801" width="174.175" height="22.7589" fill="#B30078"/>
<rect x="78.2734" y="524.32" width="174.175" height="22.7589" fill="#B30078"/>
<rect x="78.2734" y="569.836" width="174.175" height="22.7589" fill="#B30078"/>
<rect x="78.2734" y="615.355" width="174.175" height="22.7589" fill="#B30078"/>
<rect x="706.137" y="195.02" width="334.424" height="20.901" transform="rotate(-90 706.137 195.02)" fill="#B30078"/>
<rect x="747.943" y="195.02" width="334.424" height="20.901" transform="rotate(-90 747.943 195.02)" fill="#B30078"/>
<rect x="789.742" y="195.02" width="334.424" height="20.901" transform="rotate(-90 789.742 195.02)" fill="#B30078"/>
<rect x="831.543" y="195.02" width="334.424" height="20.901" transform="rotate(-90 831.543 195.02)" fill="#B30078"/>
<rect x="873.342" y="195.02" width="334.424" height="20.901" transform="rotate(-90 873.342 195.02)" fill="#B30078"/>
<rect x="915.148" y="195.02" width="334.424" height="20.901" transform="rotate(-90 915.148 195.02)" fill="#B30078"/>
<rect x="956.949" y="195.02" width="334.424" height="20.901" transform="rotate(-90 956.949 195.02)" fill="#B30078"/>
<rect x="998.748" y="195.02" width="334.424" height="20.901" transform="rotate(-90 998.748 195.02)" fill="#B30078"/>
</g>
<defs>
<clipPath id="clip0_3_703">
<rect width="1200" height="675" fill="white"/>
</clipPath>
</defs>
</svg>
