<svg width="1184" height="667" viewBox="0 0 1184 667" fill="none" xmlns="http://www.w3.org/2000/svg">
<g clip-path="url(#clip0_1_1548)">
<rect width="1184" height="666" transform="translate(0 0.78125)" fill="#E2D9FF"/>
<circle cx="146.255" cy="183.739" r="111.415" fill="#393A3D"/>
<path fill-rule="evenodd" clip-rule="evenodd" d="M92.6265 379.566C74.5313 368.652 55.1541 368.652 37.0455 379.566L34.7422 365.137C54.3502 353.319 75.3337 353.319 94.9302 365.137C94.9305 365.137 94.9298 365.137 94.9302 365.137L117.456 378.709C135.564 389.623 154.942 389.623 173.037 378.71L195.563 365.137C195.563 365.137 195.563 365.137 195.563 365.137C215.171 353.319 236.155 353.319 255.751 365.137C255.751 365.137 255.751 365.137 255.751 365.137L278.276 378.709C296.385 389.623 315.762 389.623 333.858 378.71L356.384 365.137C356.384 365.137 356.384 365.137 356.384 365.137C375.992 353.319 396.975 353.319 416.572 365.137C416.572 365.137 416.571 365.137 416.572 365.137L439.097 378.709C457.206 389.623 476.583 389.623 494.678 378.71L517.204 365.137C536.813 353.319 557.797 353.319 577.393 365.138L575.089 379.566C556.994 368.652 537.616 368.652 519.508 379.566L496.983 393.138C496.983 393.138 496.983 393.137 496.983 393.138C477.387 404.956 456.402 404.956 436.794 393.138L414.269 379.567C396.174 368.653 376.796 368.652 358.687 379.566L336.162 393.138C316.566 404.957 295.582 404.956 275.974 393.138C275.974 393.138 275.974 393.138 275.974 393.138L253.448 379.567C235.353 368.653 215.975 368.652 197.866 379.566L175.342 393.138C155.745 404.957 134.761 404.956 115.153 393.138C115.153 393.138 115.153 393.138 115.153 393.138L92.6265 379.566Z" fill="#F54BAC"/>
<path fill-rule="evenodd" clip-rule="evenodd" d="M92.6265 435.308C74.5313 424.395 55.1541 424.394 37.0455 435.308L34.7422 420.88C54.3502 409.061 75.3337 409.061 94.9302 420.879C94.9305 420.88 94.9298 420.879 94.9302 420.879L117.456 434.451C135.564 445.365 154.942 445.365 173.037 434.452L195.563 420.88C195.563 420.879 195.563 420.88 195.563 420.88C215.171 409.062 236.155 409.061 255.751 420.879C255.751 420.88 255.751 420.879 255.751 420.879L278.276 434.451C296.385 445.365 315.762 445.365 333.858 434.452L356.384 420.88C356.384 420.879 356.384 420.88 356.384 420.88C375.992 409.062 396.975 409.061 416.572 420.879C416.572 420.879 416.571 420.879 416.572 420.879L439.097 434.451C457.206 445.365 476.583 445.365 494.678 434.452L517.204 420.88C536.813 409.061 557.797 409.061 577.393 420.88L575.089 435.308C556.994 424.395 537.616 424.394 519.508 435.308L496.983 448.88C496.983 448.88 496.983 448.88 496.983 448.88C477.387 460.698 456.402 460.698 436.794 448.88L414.269 435.309C396.174 424.395 376.796 424.394 358.687 435.308L336.162 448.88C316.566 460.699 295.582 460.699 275.974 448.88C275.974 448.88 275.974 448.881 275.974 448.88L253.448 435.309C235.353 424.395 215.975 424.394 197.866 435.308L175.342 448.88C155.745 460.699 134.761 460.699 115.153 448.88C115.153 448.88 115.153 448.881 115.153 448.88L92.6265 435.308Z" fill="#F54BAC"/>
<path fill-rule="evenodd" clip-rule="evenodd" d="M92.6265 491.046C74.5313 480.133 55.1541 480.132 37.0455 491.047L34.7422 476.618C54.3502 464.8 75.3337 464.799 94.9302 476.618C94.9305 476.618 94.9298 476.617 94.9302 476.618L117.456 490.189C135.564 501.104 154.942 501.104 173.037 490.19L195.563 476.618C195.563 476.618 195.563 476.618 195.563 476.618C215.171 464.8 236.155 464.799 255.751 476.618C255.751 476.618 255.751 476.617 255.751 476.618L278.276 490.189C296.385 501.104 315.762 501.104 333.858 490.19L356.384 476.618C356.384 476.618 356.384 476.618 356.384 476.618C375.992 464.8 396.975 464.799 416.572 476.618C416.572 476.618 416.571 476.617 416.572 476.618L439.097 490.189C457.206 501.104 476.583 501.104 494.678 490.19L517.204 476.618C536.813 464.799 557.797 464.799 577.393 476.618L575.089 491.046C556.994 480.133 537.616 480.132 519.508 491.047L496.983 504.618C496.983 504.618 496.983 504.618 496.983 504.618C477.387 516.437 456.402 516.437 436.794 504.619L414.269 491.047C396.174 480.133 376.796 480.132 358.687 491.047L336.162 504.618C316.566 516.437 295.582 516.437 275.974 504.619C275.974 504.619 275.974 504.619 275.974 504.619L253.448 491.047C235.353 480.133 215.975 480.132 197.866 491.047L175.342 504.618C155.745 516.437 134.761 516.437 115.153 504.619C115.153 504.619 115.153 504.619 115.153 504.619L92.6265 491.046Z" fill="#F54BAC"/>
<path fill-rule="evenodd" clip-rule="evenodd" d="M92.6265 546.789C74.5313 535.875 55.1541 535.875 37.0455 546.789L34.7422 532.36C54.3502 520.542 75.3337 520.541 94.9302 532.36C94.9305 532.36 94.9298 532.36 94.9302 532.36L117.456 545.932C135.564 556.846 154.942 556.846 173.037 545.932L195.563 532.36C195.563 532.36 195.563 532.36 195.563 532.36C215.171 520.542 236.155 520.541 255.751 532.36C255.751 532.36 255.751 532.36 255.751 532.36L278.276 545.932C296.385 556.846 315.762 556.846 333.858 545.932L356.384 532.36C356.384 532.36 356.384 532.36 356.384 532.36C375.992 520.542 396.975 520.541 416.572 532.36C416.572 532.36 416.571 532.36 416.572 532.36L439.097 545.932C457.206 556.846 476.583 556.846 494.678 545.932L517.204 532.36C536.813 520.542 557.797 520.541 577.393 532.36L575.089 546.789C556.994 535.875 537.616 535.875 519.508 546.789L496.983 560.36C496.983 560.361 496.983 560.36 496.983 560.36C477.387 572.179 456.402 572.179 436.794 560.361L414.269 546.789C396.174 535.876 376.796 535.875 358.687 546.789L336.162 560.36C316.566 572.179 295.582 572.179 275.974 560.361C275.974 560.361 275.974 560.361 275.974 560.361L253.448 546.789C235.353 535.876 215.975 535.875 197.866 546.789L175.342 560.36C155.745 572.179 134.761 572.179 115.153 560.361C115.153 560.361 115.153 560.361 115.153 560.361L92.6265 546.789Z" fill="#F54BAC"/>
<path fill-rule="evenodd" clip-rule="evenodd" d="M92.6265 602.531C74.5313 591.617 55.1541 591.617 37.0455 602.531L34.7422 588.102C54.3502 576.284 75.3337 576.283 94.9302 588.102C94.9305 588.102 94.9298 588.102 94.9302 588.102L117.456 601.674C135.564 612.588 154.942 612.588 173.037 601.674L195.563 588.102C195.563 588.102 195.563 588.102 195.563 588.102C215.171 576.284 236.155 576.283 255.751 588.102C255.751 588.102 255.751 588.102 255.751 588.102L278.276 601.674C296.385 612.588 315.762 612.588 333.858 601.674L356.384 588.102C356.384 588.102 356.384 588.102 356.384 588.102C375.992 576.284 396.975 576.283 416.572 588.102C416.572 588.102 416.571 588.102 416.572 588.102L439.097 601.674C457.206 612.588 476.583 612.588 494.678 601.674L517.204 588.102C536.813 576.284 557.797 576.283 577.393 588.103L575.089 602.531C556.994 591.617 537.616 591.617 519.508 602.531L496.983 616.103C496.983 616.103 496.983 616.102 496.983 616.103C477.387 627.921 456.402 627.921 436.794 616.103L414.269 602.531C396.174 591.618 376.796 591.617 358.687 602.531L336.162 616.103C316.566 627.922 295.582 627.921 275.974 616.103C275.974 616.103 275.974 616.103 275.974 616.103L253.448 602.531C235.353 591.618 215.975 591.617 197.866 602.531L175.342 616.103C155.745 627.922 134.761 627.921 115.153 616.103C115.153 616.103 115.153 616.103 115.153 616.103L92.6265 602.531Z" fill="#F54BAC"/>
<rect x="613" y="0.105469" width="574" height="668" fill="#F4F4EF"/>
<rect x="932" y="1.10547" width="255" height="365" fill="#F54BAC"/>
<rect x="779.07" y="147.336" width="153.333" height="219.116" fill="#F54BAC"/>
<rect x="613" y="429.105" width="263" height="375" fill="#F54BAC"/>
<rect x="350.586" y="-40.7422" width="262.707" height="333.879" fill="#F54BAC"/>
<circle cx="19.1597" cy="19.1597" r="19.1597" transform="matrix(1 0 0 -1 635.777 45.8125)" fill="#B30078"/>
<circle cx="19.1597" cy="19.1597" r="19.1597" transform="matrix(1 0 0 -1 697.844 45.8125)" fill="#B30078"/>
<circle cx="19.1597" cy="19.1597" r="19.1597" transform="matrix(1 0 0 -1 759.906 45.8125)" fill="#B30078"/>
<circle cx="19.1597" cy="19.1597" r="19.1597" transform="matrix(1 0 0 -1 821.973 45.8125)" fill="#B30078"/>
<circle cx="19.1597" cy="19.1597" r="19.1597" transform="matrix(1 0 0 -1 1008.17 45.8125)" fill="#B30078"/>
<circle cx="19.1597" cy="19.1597" r="19.1597" transform="matrix(1 0 0 -1 884.039 45.8125)" fill="#B30078"/>
<circle cx="19.1597" cy="19.1597" r="19.1597" transform="matrix(1 0 0 -1 1070.23 45.8125)" fill="#B30078"/>
<circle cx="19.1597" cy="19.1597" r="19.1597" transform="matrix(1 0 0 -1 946.105 45.8125)" fill="#B30078"/>
<circle cx="19.1597" cy="19.1597" r="19.1597" transform="matrix(1 0 0 -1 1132.3 45.8125)" fill="#B30078"/>
<circle cx="19.1597" cy="19.1597" r="19.1597" transform="matrix(1 0 0 -1 635.777 107.645)" fill="#B30078"/>
<circle cx="19.1597" cy="19.1597" r="19.1597" transform="matrix(1 0 0 -1 697.844 107.645)" fill="#B30078"/>
<circle cx="19.1597" cy="19.1597" r="19.1597" transform="matrix(1 0 0 -1 759.906 107.645)" fill="#B30078"/>
<circle cx="19.1597" cy="19.1597" r="19.1597" transform="matrix(1 0 0 -1 821.973 107.645)" fill="#B30078"/>
<circle cx="19.1597" cy="19.1597" r="19.1597" transform="matrix(1 0 0 -1 1008.17 107.645)" fill="#B30078"/>
<circle cx="19.1597" cy="19.1597" r="19.1597" transform="matrix(1 0 0 -1 884.039 107.645)" fill="#B30078"/>
<circle cx="19.1597" cy="19.1597" r="19.1597" transform="matrix(1 0 0 -1 1070.23 107.645)" fill="#B30078"/>
<circle cx="19.1597" cy="19.1597" r="19.1597" transform="matrix(1 0 0 -1 946.105 107.645)" fill="#B30078"/>
<circle cx="19.1597" cy="19.1597" r="19.1597" transform="matrix(1 0 0 -1 1132.3 107.645)" fill="#B30078"/>
<circle cx="19.1597" cy="19.1597" r="19.1597" transform="matrix(1 0 0 -1 635.777 169.477)" fill="#B30078"/>
<circle cx="19.1597" cy="19.1597" r="19.1597" transform="matrix(1 0 0 -1 697.844 169.477)" fill="#B30078"/>
<circle cx="19.1597" cy="19.1597" r="19.1597" transform="matrix(1 0 0 -1 759.906 169.477)" fill="#B30078"/>
<circle cx="19.1597" cy="19.1597" r="19.1597" transform="matrix(1 0 0 -1 821.973 169.477)" fill="#B30078"/>
<circle cx="19.1597" cy="19.1597" r="19.1597" transform="matrix(1 0 0 -1 1008.17 169.477)" fill="#B30078"/>
<circle cx="19.1597" cy="19.1597" r="19.1597" transform="matrix(1 0 0 -1 884.039 169.477)" fill="#B30078"/>
<circle cx="19.1597" cy="19.1597" r="19.1597" transform="matrix(1 0 0 -1 1070.23 169.477)" fill="#B30078"/>
<circle cx="19.1597" cy="19.1597" r="19.1597" transform="matrix(1 0 0 -1 946.105 169.477)" fill="#B30078"/>
<circle cx="19.1597" cy="19.1597" r="19.1597" transform="matrix(1 0 0 -1 1132.3 169.477)" fill="#B30078"/>
<circle cx="19.1597" cy="19.1597" r="19.1597" transform="matrix(1 0 0 -1 635.777 231.305)" fill="#B30078"/>
<circle cx="19.1597" cy="19.1597" r="19.1597" transform="matrix(1 0 0 -1 697.844 231.305)" fill="#B30078"/>
<circle cx="19.1597" cy="19.1597" r="19.1597" transform="matrix(1 0 0 -1 759.906 231.305)" fill="#B30078"/>
<circle cx="19.1597" cy="19.1597" r="19.1597" transform="matrix(1 0 0 -1 821.973 231.305)" fill="#B30078"/>
<circle cx="19.1597" cy="19.1597" r="19.1597" transform="matrix(1 0 0 -1 1008.17 231.305)" fill="#B30078"/>
<circle cx="19.1597" cy="19.1597" r="19.1597" transform="matrix(1 0 0 -1 884.039 231.305)" fill="#B30078"/>
<circle cx="19.1597" cy="19.1597" r="19.1597" transform="matrix(1 0 0 -1 1070.23 231.305)" fill="#B30078"/>
<circle cx="19.1597" cy="19.1597" r="19.1597" transform="matrix(1 0 0 -1 946.105 231.305)" fill="#B30078"/>
<circle cx="19.1597" cy="19.1597" r="19.1597" transform="matrix(1 0 0 -1 1132.3 231.305)" fill="#B30078"/>
<circle cx="19.1597" cy="19.1597" r="19.1597" transform="matrix(1 0 0 -1 635.777 293.137)" fill="#B30078"/>
<circle cx="19.1597" cy="19.1597" r="19.1597" transform="matrix(1 0 0 -1 697.844 293.137)" fill="#B30078"/>
<circle cx="19.1597" cy="19.1597" r="19.1597" transform="matrix(1 0 0 -1 759.906 293.137)" fill="#B30078"/>
<circle cx="19.1597" cy="19.1597" r="19.1597" transform="matrix(1 0 0 -1 821.973 293.137)" fill="#B30078"/>
<circle cx="19.1597" cy="19.1597" r="19.1597" transform="matrix(1 0 0 -1 1008.17 293.137)" fill="#B30078"/>
<circle cx="19.1597" cy="19.1597" r="19.1597" transform="matrix(1 0 0 -1 884.039 293.137)" fill="#B30078"/>
<circle cx="19.1597" cy="19.1597" r="19.1597" transform="matrix(1 0 0 -1 1070.23 293.137)" fill="#B30078"/>
<circle cx="19.1597" cy="19.1597" r="19.1597" transform="matrix(1 0 0 -1 946.105 293.137)" fill="#B30078"/>
<circle cx="19.1597" cy="19.1597" r="19.1597" transform="matrix(1 0 0 -1 1132.3 293.137)" fill="#B30078"/>
<circle cx="19.1597" cy="19.1597" r="19.1597" transform="matrix(1 0 0 -1 635.777 354.969)" fill="#B30078"/>
<circle cx="19.1597" cy="19.1597" r="19.1597" transform="matrix(1 0 0 -1 697.844 354.969)" fill="#B30078"/>
<circle cx="19.1597" cy="19.1597" r="19.1597" transform="matrix(1 0 0 -1 759.906 354.969)" fill="#B30078"/>
<circle cx="19.1597" cy="19.1597" r="19.1597" transform="matrix(1 0 0 -1 821.973 354.969)" fill="#B30078"/>
<circle cx="19.1597" cy="19.1597" r="19.1597" transform="matrix(1 0 0 -1 1008.17 354.969)" fill="#B30078"/>
<circle cx="19.1597" cy="19.1597" r="19.1597" transform="matrix(1 0 0 -1 884.039 354.969)" fill="#B30078"/>
<circle cx="19.1597" cy="19.1597" r="19.1597" transform="matrix(1 0 0 -1 1070.23 354.969)" fill="#B30078"/>
<circle cx="19.1597" cy="19.1597" r="19.1597" transform="matrix(1 0 0 -1 946.105 354.969)" fill="#B30078"/>
<circle cx="19.1597" cy="19.1597" r="19.1597" transform="matrix(1 0 0 -1 1132.3 354.969)" fill="#B30078"/>
<circle cx="19.1597" cy="19.1597" r="19.1597" transform="matrix(1 0 0 -1 635.777 416.801)" fill="#B30078"/>
<circle cx="19.1597" cy="19.1597" r="19.1597" transform="matrix(1 0 0 -1 697.844 416.801)" fill="#B30078"/>
<circle cx="19.1597" cy="19.1597" r="19.1597" transform="matrix(1 0 0 -1 759.906 416.801)" fill="#B30078"/>
<circle cx="19.1597" cy="19.1597" r="19.1597" transform="matrix(1 0 0 -1 821.973 416.801)" fill="#B30078"/>
<circle cx="19.1597" cy="19.1597" r="19.1597" transform="matrix(1 0 0 -1 1008.17 416.801)" fill="#B30078"/>
<circle cx="19.1597" cy="19.1597" r="19.1597" transform="matrix(1 0 0 -1 884.039 416.801)" fill="#B30078"/>
<circle cx="19.1597" cy="19.1597" r="19.1597" transform="matrix(1 0 0 -1 1070.23 416.801)" fill="#B30078"/>
<circle cx="19.1597" cy="19.1597" r="19.1597" transform="matrix(1 0 0 -1 946.105 416.801)" fill="#B30078"/>
<circle cx="19.1597" cy="19.1597" r="19.1597" transform="matrix(1 0 0 -1 1132.3 416.801)" fill="#B30078"/>
<circle cx="19.1597" cy="19.1597" r="19.1597" transform="matrix(1 0 0 -1 635.777 478.629)" fill="#B30078"/>
<circle cx="19.1597" cy="19.1597" r="19.1597" transform="matrix(1 0 0 -1 697.844 478.629)" fill="#B30078"/>
<circle cx="19.1597" cy="19.1597" r="19.1597" transform="matrix(1 0 0 -1 759.906 478.629)" fill="#B30078"/>
<circle cx="19.1597" cy="19.1597" r="19.1597" transform="matrix(1 0 0 -1 821.973 478.629)" fill="#B30078"/>
<circle cx="19.1597" cy="19.1597" r="19.1597" transform="matrix(1 0 0 -1 1008.17 478.629)" fill="#B30078"/>
<circle cx="19.1597" cy="19.1597" r="19.1597" transform="matrix(1 0 0 -1 884.039 478.629)" fill="#B30078"/>
<circle cx="19.1597" cy="19.1597" r="19.1597" transform="matrix(1 0 0 -1 1070.23 478.629)" fill="#B30078"/>
<circle cx="19.1597" cy="19.1597" r="19.1597" transform="matrix(1 0 0 -1 946.105 478.629)" fill="#B30078"/>
<circle cx="19.1597" cy="19.1597" r="19.1597" transform="matrix(1 0 0 -1 1132.3 478.629)" fill="#B30078"/>
<circle cx="19.1597" cy="19.1597" r="19.1597" transform="matrix(1 0 0 -1 635.777 540.461)" fill="#B30078"/>
<circle cx="19.1597" cy="19.1597" r="19.1597" transform="matrix(1 0 0 -1 697.844 540.461)" fill="#B30078"/>
<circle cx="19.1597" cy="19.1597" r="19.1597" transform="matrix(1 0 0 -1 759.906 540.461)" fill="#B30078"/>
<circle cx="19.1597" cy="19.1597" r="19.1597" transform="matrix(1 0 0 -1 821.973 540.461)" fill="#B30078"/>
<circle cx="19.1597" cy="19.1597" r="19.1597" transform="matrix(1 0 0 -1 1008.17 540.461)" fill="#B30078"/>
<circle cx="19.1597" cy="19.1597" r="19.1597" transform="matrix(1 0 0 -1 884.039 540.461)" fill="#B30078"/>
<circle cx="19.1597" cy="19.1597" r="19.1597" transform="matrix(1 0 0 -1 1070.23 540.461)" fill="#B30078"/>
<circle cx="19.1597" cy="19.1597" r="19.1597" transform="matrix(1 0 0 -1 946.105 540.461)" fill="#B30078"/>
<circle cx="19.1597" cy="19.1597" r="19.1597" transform="matrix(1 0 0 -1 1132.3 540.461)" fill="#B30078"/>
<circle cx="19.1597" cy="19.1597" r="19.1597" transform="matrix(1 0 0 -1 635.777 602.293)" fill="#B30078"/>
<circle cx="19.1597" cy="19.1597" r="19.1597" transform="matrix(1 0 0 -1 697.844 602.293)" fill="#B30078"/>
<circle cx="19.1597" cy="19.1597" r="19.1597" transform="matrix(1 0 0 -1 759.906 602.293)" fill="#B30078"/>
<circle cx="19.1597" cy="19.1597" r="19.1597" transform="matrix(1 0 0 -1 821.973 602.293)" fill="#B30078"/>
<circle cx="19.1597" cy="19.1597" r="19.1597" transform="matrix(1 0 0 -1 1008.17 602.293)" fill="#B30078"/>
<circle cx="19.1597" cy="19.1597" r="19.1597" transform="matrix(1 0 0 -1 884.039 602.293)" fill="#B30078"/>
<circle cx="19.1597" cy="19.1597" r="19.1597" transform="matrix(1 0 0 -1 1070.23 602.293)" fill="#B30078"/>
<circle cx="19.1597" cy="19.1597" r="19.1597" transform="matrix(1 0 0 -1 946.105 602.293)" fill="#B30078"/>
<circle cx="19.1597" cy="19.1597" r="19.1597" transform="matrix(1 0 0 -1 1132.3 602.293)" fill="#B30078"/>
<circle cx="19.1597" cy="19.1597" r="19.1597" transform="matrix(1 0 0 -1 635.777 664.125)" fill="#B30078"/>
<circle cx="19.1597" cy="19.1597" r="19.1597" transform="matrix(1 0 0 -1 697.844 664.125)" fill="#B30078"/>
<circle cx="19.1597" cy="19.1597" r="19.1597" transform="matrix(1 0 0 -1 759.906 664.125)" fill="#B30078"/>
<circle cx="19.1597" cy="19.1597" r="19.1597" transform="matrix(1 0 0 -1 821.973 664.125)" fill="#B30078"/>
<circle cx="19.1597" cy="19.1597" r="19.1597" transform="matrix(1 0 0 -1 1008.17 664.125)" fill="#B30078"/>
<circle cx="19.1597" cy="19.1597" r="19.1597" transform="matrix(1 0 0 -1 884.039 664.125)" fill="#B30078"/>
<circle cx="19.1597" cy="19.1597" r="19.1597" transform="matrix(1 0 0 -1 1070.23 664.125)" fill="#B30078"/>
<circle cx="19.1597" cy="19.1597" r="19.1597" transform="matrix(1 0 0 -1 946.105 664.125)" fill="#B30078"/>
<circle cx="19.1597" cy="19.1597" r="19.1597" transform="matrix(1 0 0 -1 1132.3 664.125)" fill="#B30078"/>
</g>
<defs>
<clipPath id="clip0_1_1548">
<rect width="1184" height="666" fill="white" transform="translate(0 0.78125)"/>
</clipPath>
</defs>
</svg>
