<svg width="1200" height="675" viewBox="0 0 1200 675" fill="none" xmlns="http://www.w3.org/2000/svg">
<g clip-path="url(#clip0_3_679)">
<rect width="1200" height="675" fill="#E2D9FF"/>
<rect x="-11.5" y="344.434" width="1198" height="324" fill="#F4F4EF"/>
<path fill-rule="evenodd" clip-rule="evenodd" d="M750.915 486.556C809.189 486.556 856.429 439.316 856.429 381.042C856.429 322.768 809.189 275.527 750.915 275.527C692.641 275.527 645.4 322.768 645.4 381.042C645.4 439.316 692.641 486.556 750.915 486.556ZM750.915 467.936C798.905 467.936 837.809 429.032 837.809 381.042C837.809 333.051 798.905 294.148 750.915 294.148C702.924 294.148 664.021 333.051 664.021 381.042C664.021 429.032 702.924 467.936 750.915 467.936Z" fill="#393A3D"/>
<path fill-rule="evenodd" clip-rule="evenodd" d="M529.85 697.583C588.124 697.583 635.365 650.343 635.365 592.069C635.365 533.795 588.124 486.555 529.85 486.555C471.576 486.555 424.336 533.795 424.336 592.069C424.336 650.343 471.576 697.583 529.85 697.583ZM529.85 678.963C577.841 678.963 616.744 640.059 616.744 592.069C616.744 544.079 577.841 505.175 529.85 505.175C481.86 505.175 442.956 544.079 442.956 592.069C442.956 640.059 481.86 678.963 529.85 678.963Z" fill="#393A3D"/>
<path fill-rule="evenodd" clip-rule="evenodd" d="M840.972 515.327C879.199 515.327 910.188 484.338 910.188 446.111C910.188 407.884 879.199 376.895 840.972 376.895C802.745 376.895 771.756 407.884 771.756 446.111C771.756 484.338 802.745 515.327 840.972 515.327ZM840.972 503.112C872.453 503.112 897.973 477.592 897.973 446.111C897.973 414.629 872.453 389.109 840.972 389.109C809.491 389.109 783.97 414.629 783.97 446.111C783.97 477.592 809.491 503.112 840.972 503.112Z" fill="#F54BAC"/>
<path fill-rule="evenodd" clip-rule="evenodd" d="M283.645 582.071C351.403 582.071 406.333 527.142 406.333 459.383C406.333 391.625 351.403 336.695 283.645 336.695C215.886 336.695 160.957 391.625 160.957 459.383C160.957 527.142 215.886 582.071 283.645 582.071ZM283.645 560.42C339.446 560.42 384.682 515.185 384.682 459.383C384.682 403.582 339.446 358.346 283.645 358.346C227.844 358.346 182.608 403.582 182.608 459.383C182.608 515.185 227.844 560.42 283.645 560.42Z" fill="#F54BAC"/>
<path fill-rule="evenodd" clip-rule="evenodd" d="M96.4493 582.071C186.631 582.071 259.738 508.963 259.738 418.781C259.738 328.599 186.631 255.492 96.4493 255.492C6.26727 255.492 -66.8398 328.599 -66.8398 418.781C-66.8398 508.963 6.26727 582.071 96.4493 582.071ZM96.4493 553.255C170.717 553.255 230.923 493.049 230.923 418.781C230.923 344.513 170.717 284.308 96.4493 284.308C22.1816 284.308 -38.0241 344.513 -38.0241 418.781C-38.0241 493.049 22.1816 553.255 96.4493 553.255Z" fill="#B30078"/>
<circle cx="464.152" cy="126.934" r="163.289" fill="#393A3D"/>
<circle cx="1171.99" cy="438.516" r="163.289" fill="#393A3D"/>
<line x1="-137.02" y1="71.8375" x2="1316.16" y2="71.8375" stroke="#393A3D" stroke-width="2.1063"/>
<line x1="-137.02" y1="120.501" x2="1316.16" y2="120.501" stroke="#393A3D" stroke-width="6.31889"/>
<line x1="-137.02" y1="173.922" x2="1316.16" y2="173.922" stroke="#393A3D" stroke-width="10.5315"/>
<line x1="-137.02" y1="232.897" x2="1316.16" y2="232.897" stroke="#393A3D" stroke-width="14.7441"/>
<path fill-rule="evenodd" clip-rule="evenodd" d="M995.55 275.526C1033.17 275.526 1063.67 245.027 1063.67 207.404C1063.67 169.781 1033.17 139.281 995.55 139.281C957.927 139.281 927.428 169.781 927.428 207.404C927.428 245.027 957.927 275.526 995.55 275.526ZM995.55 263.505C1026.53 263.505 1051.65 238.388 1051.65 207.404C1051.65 176.42 1026.53 151.303 995.55 151.303C964.567 151.303 939.449 176.42 939.449 207.404C939.449 238.388 964.567 263.505 995.55 263.505Z" fill="#F54BAC"/>
<path fill-rule="evenodd" clip-rule="evenodd" d="M693.141 369.738C783.323 369.738 856.43 296.631 856.43 206.449C856.43 116.267 783.323 43.1602 693.141 43.1602C602.959 43.1602 529.852 116.267 529.852 206.449C529.852 296.631 602.959 369.738 693.141 369.738ZM693.141 340.923C767.408 340.923 827.614 280.717 827.614 206.449C827.614 132.181 767.408 71.9759 693.141 71.9759C618.873 71.9759 558.667 132.181 558.667 206.449C558.667 280.717 618.873 340.923 693.141 340.923Z" fill="#B30078"/>
</g>
<defs>
<clipPath id="clip0_3_679">
<rect width="1200" height="675" fill="white"/>
</clipPath>
</defs>
</svg>
