<svg width="1200" height="675" viewBox="0 0 1200 675" fill="none" xmlns="http://www.w3.org/2000/svg">
<g clip-path="url(#clip0_3_644)">
<rect width="1200" height="675" fill="#F4F4EF"/>
<rect x="-11.332" y="344.324" width="1198" height="324" fill="#E2D9FF"/>
<rect x="-11.5664" y="510.852" width="1207.42" height="16.1366" fill="#F54BAC"/>
<rect x="-11.5664" y="543.125" width="1207.42" height="16.1366" fill="#F54BAC"/>
<rect x="-11.5664" y="575.398" width="1207.42" height="16.1366" fill="#F54BAC"/>
<rect x="-11.5664" y="607.672" width="1207.42" height="16.1366" fill="#F54BAC"/>
<rect x="-11.5664" y="639.945" width="1207.42" height="16.1366" fill="#F54BAC"/>
<rect x="-11.5664" y="672.219" width="1207.42" height="16.1366" fill="#F54BAC"/>
<rect x="-11.5664" y="12.7852" width="1207.42" height="16.1366" fill="#F54BAC"/>
<rect x="-11.5664" y="45.0586" width="1207.42" height="16.1366" fill="#F54BAC"/>
<path d="M105.973 109.016C105.973 136.177 127.991 158.195 155.152 158.195C182.313 158.195 204.332 136.177 204.332 109.016L185.045 109.016C185.045 125.525 171.662 138.909 155.152 138.909C138.642 138.909 125.259 125.525 125.259 109.016L105.973 109.016Z" fill="#393A3D"/>
<path d="M692.547 109.016C692.547 136.177 714.565 158.195 741.726 158.195C768.887 158.195 790.906 136.177 790.906 109.016L771.62 109.016C771.62 125.525 758.236 138.909 741.726 138.909C725.217 138.909 711.833 125.525 711.833 109.016L692.547 109.016Z" fill="#393A3D"/>
<path d="M74.9219 219.438C74.9219 263.747 110.842 299.667 155.151 299.667C199.46 299.667 235.38 263.747 235.38 219.437L203.918 219.437C203.918 246.371 182.084 268.204 155.151 268.204C128.218 268.204 106.384 246.371 106.384 219.437L74.9219 219.438Z" fill="#393A3D"/>
<path d="M661.502 219.438C661.502 263.747 697.422 299.667 741.731 299.667C786.04 299.667 821.96 263.747 821.96 219.437L790.498 219.437C790.498 246.371 768.664 268.204 741.731 268.204C714.798 268.204 692.964 246.371 692.964 219.437L661.502 219.438Z" fill="#393A3D"/>
<path d="M497.613 452.66C497.613 425.499 475.595 403.481 448.434 403.481C421.273 403.481 399.254 425.499 399.254 452.66L418.54 452.66C418.54 436.15 431.924 422.767 448.434 422.767C464.944 422.767 478.327 436.15 478.327 452.66L497.613 452.66Z" fill="#393A3D"/>
<path d="M528.668 342.238C528.668 297.929 492.748 262.009 448.439 262.009C404.129 262.009 368.21 297.929 368.21 342.238L399.672 342.238C399.672 315.305 421.506 293.472 448.439 293.472C475.372 293.472 497.206 315.305 497.206 342.238L528.668 342.238Z" fill="#393A3D"/>
<path d="M567.297 217.012C567.297 151.367 514.081 98.151 448.436 98.151C382.791 98.151 329.575 151.367 329.575 217.012L376.187 217.012C376.187 177.11 408.534 144.763 448.436 144.763C488.338 144.763 520.685 177.11 520.685 217.012L567.297 217.012Z" fill="#393A3D"/>
<path d="M36.2852 344.66C36.2852 410.305 89.501 463.521 155.146 463.521C220.791 463.521 274.007 410.305 274.007 344.66L227.395 344.66C227.395 384.562 195.048 416.909 155.146 416.909C115.244 416.909 82.8972 384.562 82.8972 344.66L36.2852 344.66Z" fill="#393A3D"/>
<path d="M622.867 344.66C622.867 410.305 676.083 463.521 741.728 463.521C807.373 463.521 860.589 410.305 860.589 344.66L813.977 344.66C813.977 384.562 781.63 416.909 741.728 416.909C701.826 416.909 669.479 384.562 669.479 344.66L622.867 344.66Z" fill="#393A3D"/>
<path d="M1081.19 452.66C1081.19 425.499 1059.17 403.481 1032.01 403.481C1004.85 403.481 982.834 425.499 982.835 452.66L1002.12 452.66C1002.12 436.15 1015.5 422.767 1032.01 422.767C1048.52 422.767 1061.91 436.15 1061.91 452.66L1081.19 452.66Z" fill="#393A3D"/>
<path d="M1112.25 342.238C1112.25 297.929 1076.33 262.009 1032.02 262.009C987.71 262.009 951.79 297.929 951.79 342.238L983.252 342.238C983.252 315.305 1005.09 293.472 1032.02 293.472C1058.95 293.472 1080.79 315.305 1080.79 342.238L1112.25 342.238Z" fill="#393A3D"/>
<path d="M1150.88 217.012C1150.88 151.367 1097.66 98.151 1032.02 98.151C966.371 98.151 913.155 151.367 913.155 217.012L959.767 217.012C959.767 177.11 992.114 144.763 1032.02 144.763C1071.92 144.763 1104.26 177.11 1104.26 217.012L1150.88 217.012Z" fill="#393A3D"/>
</g>
<defs>
<clipPath id="clip0_3_644">
<rect width="1200" height="675" fill="white"/>
</clipPath>
</defs>
</svg>
