<svg width="1184" height="667" viewBox="0 0 1184 667" fill="none" xmlns="http://www.w3.org/2000/svg">
<g clip-path="url(#clip0_1_1534)">
<rect width="1184" height="666" transform="translate(0 0.34375)" fill="#E2D9FF"/>
<rect y="302.879" width="1187.17" height="365.246" fill="#F4F4EF"/>
<circle cx="326.411" cy="302.879" r="64.7591" transform="rotate(-45 326.411 302.879)" fill="#393A3D"/>
<path d="M326.41 196.352C296.994 166.935 249.3 166.935 219.884 196.352C190.468 225.768 190.468 273.461 219.884 302.878L326.41 196.352Z" fill="#F54BAC"/>
<path d="M326.41 409.406C355.827 438.823 403.52 438.823 432.936 409.406C462.353 379.99 462.353 332.296 432.936 302.88L326.41 409.406Z" fill="#F54BAC"/>
<path d="M219.883 302.879C190.466 332.295 190.466 379.989 219.883 409.405C249.299 438.821 296.993 438.821 326.409 409.405L219.883 302.879Z" fill="#F54BAC"/>
<path d="M432.934 302.879C462.35 273.463 462.35 225.769 432.934 196.353C403.517 166.936 355.824 166.936 326.407 196.353L432.934 302.879Z" fill="#F54BAC"/>
<path d="M565.793 302.879C565.793 358.497 610.881 403.585 666.499 403.585C722.118 403.585 767.205 358.497 767.205 302.879H727.713C727.713 336.686 700.307 364.093 666.499 364.093C632.692 364.093 605.286 336.686 605.286 302.879H565.793Z" fill="#393A3D"/>
<path d="M755.914 302.879C755.914 358.497 801.002 403.585 856.62 403.585C912.239 403.585 957.327 358.497 957.327 302.879H917.834C917.834 336.686 890.428 364.093 856.62 364.093C822.813 364.093 795.407 336.686 795.407 302.879H755.914Z" fill="#393A3D"/>
<path d="M946.035 302.879C946.035 358.497 991.123 403.585 1046.74 403.585C1102.36 403.585 1147.45 358.497 1147.45 302.879H1107.96C1107.96 336.686 1080.55 364.093 1046.74 364.093C1012.93 364.093 985.528 336.686 985.528 302.879H946.035Z" fill="#393A3D"/>
<path d="M686.781 302.879C686.781 247.26 641.693 202.173 586.075 202.173C530.456 202.173 485.369 247.26 485.369 302.879L524.861 302.879C524.861 269.072 552.268 241.665 586.075 241.665C619.882 241.665 647.289 269.072 647.289 302.879L686.781 302.879Z" fill="#393A3D"/>
<path d="M876.898 302.879C876.898 247.26 831.811 202.173 776.192 202.173C720.574 202.173 675.486 247.26 675.486 302.879L714.979 302.879C714.979 269.072 742.385 241.665 776.192 241.665C810 241.665 837.406 269.072 837.406 302.879L876.898 302.879Z" fill="#393A3D"/>
<path d="M1067.01 302.879C1067.01 247.26 1021.92 202.173 966.305 202.173C910.687 202.173 865.599 247.26 865.599 302.879L905.092 302.879C905.092 269.072 932.498 241.665 966.305 241.665C1000.11 241.665 1027.52 269.072 1027.52 302.879L1067.01 302.879Z" fill="#393A3D"/>
</g>
<defs>
<clipPath id="clip0_1_1534">
<rect width="1184" height="666" fill="white" transform="translate(0 0.34375)"/>
</clipPath>
</defs>
</svg>
