<svg width="1184" height="670" viewBox="0 0 1184 670" fill="none" xmlns="http://www.w3.org/2000/svg">
<g clip-path="url(#clip0_127_1109)">
<rect width="1184" height="670" fill="#F4F5F8"/>
<rect x="810" y="420" width="374" height="246" fill="black"/>
<path d="M490 666L740 420V666H490Z" fill="#17497F"/>
<circle cx="1182" r="162" fill="#DB334D"/>
<path d="M240 300L110.096 75L369.904 75L240 300Z" fill="#17497F"/>
<path d="M240 390L110.096 165L369.904 165L240 390Z" fill="#DB334D"/>
<path d="M487.096 0C487.096 272.33 266.33 493.096 -6 493.096V666C361.822 666 660 367.822 660 0H487.096Z" fill="#F9C741"/>
<path fill-rule="evenodd" clip-rule="evenodd" d="M932 510.327C981.886 510.327 1022.33 469.886 1022.33 420C1022.33 370.114 981.886 329.673 932 329.673C882.114 329.673 841.673 370.114 841.673 420C841.673 469.886 882.114 510.327 932 510.327ZM932 542C999.379 542 1054 487.379 1054 420C1054 352.621 999.379 298 932 298C864.621 298 810 352.621 810 420C810 487.379 864.621 542 932 542Z" fill="#F9C741"/>
<path d="M810 420C810 487.379 864.621 542 932 542C999.379 542 1054 487.379 1054 420H810Z" fill="#DB334D"/>
<rect x="739" y="162" width="71" height="71" fill="black"/>
</g>
<defs>
<clipPath id="clip0_127_1109">
<rect width="1184" height="670" fill="white"/>
</clipPath>
</defs>
</svg>
