<svg width="1184" height="670" viewBox="0 0 1184 670" fill="none" xmlns="http://www.w3.org/2000/svg">
<rect width="1184" height="670" fill="#EAEAE3"/>
<rect x="850" y="458" width="334" height="208" fill="white"/>
<rect x="150" y="240" width="12" height="426" fill="#393A3D"/>
<rect x="300" width="12" height="666" fill="#393A3D"/>
<rect x="474" width="12" height="666" fill="#393A3D"/>
<rect x="648" width="12" height="450" fill="#393A3D"/>
<rect x="735" width="12" height="450" fill="#393A3D"/>
<rect x="1020" width="12" height="666" fill="#393A3D"/>
<rect x="822" width="32" height="666" fill="#393A3D"/>
<rect y="450" width="840" height="13" fill="#393A3D"/>
<rect y="281" width="480" height="7" fill="#393A3D"/>
<rect x="480" y="420" width="360" height="7" fill="#393A3D"/>
<rect y="103" width="648" height="7" fill="#393A3D"/>
<rect y="240" width="1184" height="7" fill="#393A3D"/>
<rect x="486" y="463" width="336" height="203" fill="#F9C741"/>
<rect x="162" y="288" width="138" height="162" fill="#393A3D"/>
<rect x="312" y="247" width="162" height="34" fill="#393A3D"/>
<rect x="312" y="288" width="162" height="162" fill="white"/>
<rect x="312" y="463" width="162" height="203" fill="white"/>
<rect x="854" width="166" height="240" fill="white"/>
<rect x="1032" y="247" width="152" height="99" fill="#DB334D"/>
<rect y="110" width="300" height="130" fill="#3492EF"/>
<rect x="162" y="247" width="138" height="34" fill="#F9C741"/>
<rect x="854" y="352" width="166" height="100" fill="#3492EF"/>
<rect x="485" width="163" height="103" fill="#393A3D"/>
<rect x="660" y="426" width="162" height="24" fill="#393A3D"/>
<rect x="486" y="427" width="162" height="23" fill="#DB334D"/>
<rect y="463" width="150" height="203" fill="#DB334D"/>
<rect width="300" height="103" fill="white"/>
<rect x="850" y="345" width="334" height="7" fill="#393A3D"/>
<rect x="850" y="451" width="334" height="7" fill="#393A3D"/>
</svg>
