<svg width="1184" height="670" viewBox="0 0 1184 670" fill="none" xmlns="http://www.w3.org/2000/svg">
<g clip-path="url(#clip0_127_1010)">
<rect width="1184" height="670" fill="#17497F"/>
<rect x="510" width="674" height="666" fill="#F4F4EF"/>
<circle cx="348" cy="333" r="162" fill="#FFBD6F"/>
<circle cx="924" cy="552" r="162" fill="#F9C741"/>
<rect x="592" y="-86.7412" width="16.1538" height="666" transform="rotate(-19.8359 592 -86.7412)" fill="#393A3D"/>
<rect x="622.391" y="-97.7041" width="16.1538" height="666" transform="rotate(-19.8359 622.391 -97.7041)" fill="#393A3D"/>
<rect x="652.782" y="-108.667" width="16.1538" height="666" transform="rotate(-19.8359 652.782 -108.667)" fill="#393A3D"/>
<rect x="683.172" y="-119.63" width="16.1538" height="666" transform="rotate(-19.8359 683.172 -119.63)" fill="#393A3D"/>
<rect x="713.563" y="-130.593" width="16.1538" height="666" transform="rotate(-19.8359 713.563 -130.593)" fill="#393A3D"/>
<rect x="743.954" y="-141.556" width="16.1538" height="666" transform="rotate(-19.8359 743.954 -141.556)" fill="#393A3D"/>
<rect x="774.345" y="-152.519" width="16.1538" height="666" transform="rotate(-19.8359 774.345 -152.519)" fill="#393A3D"/>
<circle cx="24" cy="333" r="162" fill="#DB334D"/>
</g>
<defs>
<clipPath id="clip0_127_1010">
<rect width="1184" height="670" fill="white"/>
</clipPath>
</defs>
</svg>
