<svg width="19200" height="676" viewBox="0 0 19200 676" fill="none" xmlns="http://www.w3.org/2000/svg">
<g clip-path="url(#clip0_1_9179)">
<rect width="1200" height="675" transform="translate(0 0.78125)" fill="#F4F4EF"/>
<rect x="560" y="0.78125" width="666" height="560" transform="rotate(90 560 0.78125)" fill="#D3FA90"/>
<path fill-rule="evenodd" clip-rule="evenodd" d="M550.6 823.783C688.425 823.783 800.154 712.054 800.154 574.229C800.154 436.405 688.425 324.676 550.6 324.676C412.776 324.676 301.047 436.405 301.047 574.229C301.047 712.054 412.776 823.783 550.6 823.783ZM550.6 725.918C634.376 725.918 702.29 658.005 702.29 574.229C702.29 490.453 634.376 422.54 550.6 422.54C466.825 422.54 398.911 490.453 398.911 574.229C398.911 658.005 466.825 725.918 550.6 725.918Z" fill="#AC6500"/>
<path fill-rule="evenodd" clip-rule="evenodd" d="M307.858 -74.2188C309.304 -69.8565 311.31 -65.5309 313.878 -61.2707L327.37 -38.8779C338.219 -20.8899 338.219 -1.62698 327.369 16.3744L313.878 38.7664C302.129 58.2468 302.13 79.1063 313.878 98.5982L327.37 120.991C338.219 138.979 338.219 158.242 327.369 176.243L313.878 198.635C302.129 218.116 302.13 238.975 313.878 258.467L328.221 256.177C317.372 238.176 317.372 218.913 328.221 200.925L341.713 178.532C353.461 159.04 353.462 138.181 341.712 118.7L328.221 96.3085C317.372 78.3071 317.373 59.0435 328.222 41.0554L341.713 18.6634C353.461 -0.828827 353.462 -21.6883 341.712 -41.169L328.221 -63.5604C326.105 -67.0714 324.402 -70.6305 323.111 -74.2188H307.858Z" fill="#393A3D"/>
<path fill-rule="evenodd" clip-rule="evenodd" d="M352.995 -74.2188C354.44 -69.8566 356.447 -65.531 359.015 -61.2708L372.506 -38.878C383.355 -20.89 383.356 -1.62711 372.506 16.3743L359.014 38.7663C347.266 58.2467 347.267 79.1062 359.015 98.5981L372.506 120.991C383.355 138.979 383.356 158.242 372.506 176.243L359.014 198.635C347.266 218.116 347.266 238.975 359.015 258.467L373.358 256.177C362.508 238.176 362.509 218.913 373.358 200.925L386.85 178.532C398.598 159.04 398.598 138.18 386.849 118.7L373.358 96.3083C362.508 78.307 362.509 59.0434 373.358 41.0553L386.85 18.6633C398.598 -0.828941 398.598 -21.6884 386.849 -41.1692L373.358 -63.5605C371.242 -67.0715 369.539 -70.6305 368.248 -74.2188H352.995Z" fill="#393A3D"/>
<path fill-rule="evenodd" clip-rule="evenodd" d="M398.14 -74.2188C399.585 -69.8566 401.591 -65.531 404.159 -61.2708L417.651 -38.878C428.5 -20.89 428.5 -1.62711 417.65 16.3743L404.159 38.7663C392.41 58.2467 392.411 79.1062 404.159 98.5981L417.651 120.991C428.5 138.979 428.5 158.242 417.65 176.243L404.159 198.635C392.41 218.116 392.411 238.975 404.159 258.467L418.503 256.177C407.653 238.176 407.653 218.913 418.502 200.925L431.994 178.532C443.743 159.04 443.743 138.18 431.994 118.7L418.503 96.3083C407.653 78.307 407.654 59.0434 418.503 41.0553L431.994 18.6633C443.743 -0.828941 443.743 -21.6884 431.994 -41.1692L418.503 -63.5605C416.386 -67.0715 414.683 -70.6305 413.392 -74.2188H398.14Z" fill="#393A3D"/>
<path fill-rule="evenodd" clip-rule="evenodd" d="M443.292 -74.2188C444.737 -69.8566 446.744 -65.531 449.311 -61.2708L462.803 -38.878C473.652 -20.89 473.652 -1.62711 462.803 16.3743L449.311 38.7663C437.563 58.2467 437.563 79.1062 449.311 98.5981L462.803 120.991C473.652 138.979 473.652 158.242 462.803 176.243L449.311 198.635C437.563 218.116 437.563 238.975 449.311 258.467L463.655 256.177C452.805 238.176 452.806 218.913 463.655 200.925L477.147 178.532C488.895 159.04 488.895 138.18 477.146 118.7L463.655 96.3083C452.805 78.307 452.806 59.0434 463.655 41.0553L477.147 18.6633C488.895 -0.828941 488.895 -21.6884 477.146 -41.1692L463.655 -63.5605C461.539 -67.0715 459.835 -70.6305 458.545 -74.2188H443.292Z" fill="#393A3D"/>
<path fill-rule="evenodd" clip-rule="evenodd" d="M488.421 -74.2188C489.866 -69.8566 491.873 -65.531 494.44 -61.2708L507.932 -38.878C518.781 -20.89 518.781 -1.62711 507.932 16.3743L494.44 38.7663C482.692 58.2467 482.692 79.1062 494.44 98.5981L507.932 120.991C518.781 138.979 518.781 158.242 507.932 176.243L494.44 198.635C482.691 218.116 482.692 238.975 494.44 258.467L508.784 256.177C497.934 238.176 497.935 218.913 508.783 200.925L522.276 178.532C534.024 159.04 534.024 138.18 522.275 118.7L508.784 96.3083C497.934 78.307 497.935 59.0434 508.784 41.0553L522.276 18.6633C534.024 -0.828941 534.024 -21.6884 522.275 -41.1692L508.784 -63.5605C506.668 -67.0715 504.964 -70.6305 503.674 -74.2188H488.421Z" fill="#393A3D"/>
<circle cx="813.141" cy="254.922" r="54.1408" fill="#F9C741"/>
</g>
<g clip-path="url(#clip1_1_9179)">
<rect width="1200" height="675" transform="translate(1200 0.78125)" fill="#D3FA90"/>
<rect x="1792" y="0.78125" width="666" height="592" transform="rotate(90 1792 0.78125)" fill="#F4F4EF"/>
<circle cx="1096.9" cy="48.6784" r="148.897" fill="#393A3D"/>
<circle cx="1560.16" cy="-51.3216" r="148.897" fill="#393A3D"/>
<circle cx="2023.37" cy="-51.3216" r="148.897" fill="#393A3D"/>
<circle cx="2486.64" cy="48.6784" r="148.897" fill="#393A3D"/>
<circle cx="1096.9" cy="619.678" r="148.897" fill="#393A3D"/>
<circle cx="1560.16" cy="699.678" r="148.897" fill="#393A3D"/>
<circle cx="2023.37" cy="699.678" r="148.897" fill="#393A3D"/>
<circle cx="2486.64" cy="619.678" r="148.897" fill="#393A3D"/>
<circle cx="1350.26" cy="333.921" r="43.2643" fill="#AC6500"/>
<ellipse cx="1792.5" cy="333.781" rx="81.5" ry="82" fill="#F9C741"/>
<circle cx="2234.26" cy="333.921" r="43.2643" fill="#AC6500"/>
</g>
<g clip-path="url(#clip2_1_9179)">
<rect width="1200" height="675" transform="translate(2400 0.78125)" fill="#F4F4EF"/>
<rect x="3058" y="-43.2188" width="673" height="711" fill="#D3FA90"/>
<rect x="2315.88" y="400.781" width="1362.78" height="29.6667" fill="#393A3D"/>
<rect x="2315.88" y="460.113" width="1362.78" height="29.6667" fill="#393A3D"/>
<rect x="2315.88" y="519.449" width="1362.78" height="29.6667" fill="#393A3D"/>
<rect x="2315.88" y="578.781" width="1362.78" height="29.6667" fill="#393A3D"/>
<rect x="2315.88" y="638.113" width="1362.78" height="29.6667" fill="#393A3D"/>
<path d="M2400 248.781V667.235H2818.45L2400 248.781Z" fill="#AC6500"/>
<path d="M2394.5 454.781C2538.65 454.781 2655.5 337.927 2655.5 193.781C2655.5 49.635 2538.65 -67.2188 2394.5 -67.2188L2394.5 35.1341C2482.12 35.1341 2553.15 106.163 2553.15 193.781C2553.15 281.4 2482.12 352.428 2394.5 352.428L2394.5 454.781Z" fill="#393A3D"/>
<path d="M2883 0.78125C2883 96.5367 2960.63 174.162 3056.38 174.162C3152.14 174.162 3229.76 96.5367 3229.76 0.78125L2883 0.78125Z" fill="#F9C741"/>
</g>
<g clip-path="url(#clip3_1_9179)">
<rect width="1200" height="675" transform="translate(3600 0.78125)" fill="#D3FA90"/>
<rect x="4784" y="0.78125" width="666" height="336" transform="rotate(90 4784 0.78125)" fill="#F4F4EF"/>
<rect x="4728" y="0.78125" width="666" height="56" transform="rotate(90 4728 0.78125)" fill="#F9C741"/>
<rect x="4616" y="0.78125" width="666" height="56" transform="rotate(90 4616 0.78125)" fill="#F9C741"/>
<rect x="4504" y="0.78125" width="666" height="56" transform="rotate(90 4504 0.78125)" fill="#F9C741"/>
<rect x="3600" y="28.7812" width="1184" height="28" fill="#AC6500"/>
<rect x="3600" y="84.7812" width="1184" height="28" fill="#AC6500"/>
<rect x="3600" y="140.781" width="1184" height="28" fill="#AC6500"/>
<circle cx="3827.5" cy="466.281" r="72.5" fill="#393A3D"/>
</g>
<g clip-path="url(#clip4_1_9179)">
<rect width="1200" height="675" transform="translate(4800 0.78125)" fill="#F4F4EF"/>
<rect x="5391" y="0.78125" width="666" height="591" transform="rotate(90 5391 0.78125)" fill="#D3FA90"/>
<circle cx="4838.92" cy="128.796" r="78.3194" transform="rotate(15 4838.92 128.796)" fill="#F9C741"/>
<circle cx="5074.27" cy="191.863" r="78.3194" transform="rotate(15 5074.27 191.863)" fill="#F9C741"/>
<circle cx="5309.63" cy="254.925" r="78.3194" transform="rotate(15 5309.63 254.925)" fill="#F9C741"/>
<circle cx="5544.99" cy="317.988" r="78.3194" transform="rotate(15 5544.99 317.988)" fill="#F9C741"/>
<circle cx="5780.36" cy="381.054" r="78.3194" transform="rotate(15 5780.36 381.054)" fill="#F9C741"/>
<circle cx="6015.7" cy="444.117" r="78.3194" transform="rotate(15 6015.7 444.117)" fill="#F9C741"/>
<circle cx="5002.48" cy="-20.2506" r="78.3194" transform="rotate(15 5002.48 -20.2506)" fill="#AC6500"/>
<circle cx="5237.83" cy="42.8158" r="78.3194" transform="rotate(15 5237.83 42.8158)" fill="#AC6500"/>
<circle cx="5473.2" cy="105.878" r="78.3194" transform="rotate(15 5473.2 105.878)" fill="#AC6500"/>
<circle cx="5708.55" cy="168.941" r="78.3194" transform="rotate(15 5708.55 168.941)" fill="#AC6500"/>
<circle cx="5943.92" cy="232.007" r="78.3194" transform="rotate(15 5943.92 232.007)" fill="#AC6500"/>
<circle cx="5636.76" cy="-43.1686" r="78.3194" transform="rotate(15 5636.76 -43.1686)" fill="#393A3D"/>
<circle cx="5872.11" cy="19.8939" r="78.3194" transform="rotate(15 5872.11 19.8939)" fill="#393A3D"/>
</g>
<g clip-path="url(#clip5_1_9179)">
<rect width="1200" height="675" transform="translate(6000 0.78125)" fill="#F4F4EF"/>
<rect x="6493" y="0.78125" width="666" height="493" transform="rotate(90 6493 0.78125)" fill="#D3FA90"/>
<rect x="6050.3" y="485.188" width="181.866" height="181.866" fill="#AC6500"/>
<rect x="6310" y="484.781" width="181.866" height="181.866" fill="#F9C741"/>
<rect x="6568.86" y="485.188" width="181.866" height="181.866" fill="#AC6500"/>
<rect x="7183.87" y="50.7812" width="181.866" height="181.866" transform="rotate(90 7183.87 50.7812)" fill="#F9C741"/>
<rect x="6016.93" y="-157.219" width="181.866" height="181.866" transform="rotate(30 6016.93 -157.219)" fill="#AC6500"/>
<rect x="6235.46" y="-25.0898" width="181.866" height="181.866" transform="rotate(30 6235.46 -25.0898)" fill="#393A3D"/>
<rect x="6460.01" y="104.555" width="181.866" height="181.866" transform="rotate(30 6460.01 104.555)" fill="#AC6500"/>
<rect x="6684.55" y="234.195" width="181.866" height="181.866" transform="rotate(30 6684.55 234.195)" fill="#F9C741"/>
<rect x="6780.27" y="-149.133" width="181.866" height="181.866" transform="rotate(60 6780.27 -149.133)" fill="#393A3D"/>
<rect x="6909.89" y="75.418" width="181.866" height="181.866" transform="rotate(60 6909.89 75.418)" fill="#AC6500"/>
<circle cx="7118.45" cy="582.235" r="138.359" transform="rotate(15 7118.45 582.235)" fill="#F9C741"/>
</g>
<g clip-path="url(#clip6_1_9179)">
<rect width="1200" height="675" transform="translate(7200 0.78125)" fill="#F4F4EF"/>
<rect x="7794" y="-5.21875" width="672" height="594" transform="rotate(90 7794 -5.21875)" fill="#D3FA90"/>
<path d="M7732.12 36.8672C7795 145.78 7757.68 285.047 7648.77 347.928C7539.86 410.809 7400.59 373.492 7337.71 264.579L7732.12 36.8672Z" fill="#393A3D"/>
<path d="M7861.8 630.199C7798.92 521.286 7836.23 382.02 7945.15 319.139C8054.06 256.258 8193.32 293.574 8256.21 402.487L7861.8 630.199Z" fill="#393A3D"/>
<path d="M7800.12 672.129C7623.73 773.973 7398.16 713.535 7296.32 537.135C7194.47 360.735 7254.91 135.173 7431.31 33.3285L7800.12 672.129Z" fill="#AC6500"/>
<path d="M7793.79 -5.0625C7970.19 -106.907 8195.75 -46.4681 8297.6 129.932C8399.44 306.332 8339 531.893 8162.6 633.738L7793.79 -5.0625Z" fill="#F9C741"/>
</g>
<g clip-path="url(#clip7_1_9179)">
<rect width="1200" height="675" transform="translate(8400 0.78125)" fill="#F4F4EF"/>
<rect x="9598" y="0.78125" width="666" height="636" transform="rotate(90 9598 0.78125)" fill="#D3FA90"/>
<path d="M9119 168.727C9211.49 193.51 9306.56 138.621 9331.35 46.1279C9356.13 -46.3647 9301.24 -141.436 9208.75 -166.219L9191.15 -100.543C9247.37 -85.4791 9280.74 -27.6909 9265.67 28.5302C9250.61 84.7513 9192.82 118.115 9136.6 103.051L9119 168.727Z" fill="#393A3D"/>
<path d="M9503.6 502.781C9435.89 570.491 9435.89 680.269 9503.6 747.979C9571.31 815.688 9681.09 815.688 9748.8 747.979L9700.72 699.901C9659.56 741.057 9592.84 741.057 9551.68 699.901C9510.52 658.744 9510.52 592.016 9551.68 550.859L9503.6 502.781Z" fill="#393A3D"/>
<path d="M9220.2 394.578C9287.9 326.869 9287.9 217.09 9220.2 149.381C9152.49 81.6716 9042.71 81.6716 8975 149.381L9023.08 197.459C9064.23 156.302 9130.96 156.302 9172.12 197.459C9213.27 238.615 9213.27 305.344 9172.12 346.5L9220.2 394.578Z" fill="#F9C741"/>
<path d="M8932.99 126.934C8885.11 44.007 8779.08 15.5942 8696.15 63.4719C8613.22 111.35 8584.81 217.388 8632.69 300.314L8691.57 266.318C8662.47 215.912 8679.74 151.457 8730.15 122.355C8780.55 93.2528 8845.01 110.523 8874.11 160.93L8932.99 126.934Z" fill="#F9C741"/>
<path d="M9077.95 334.004C9102.73 241.511 9047.84 146.44 8955.35 121.657C8862.85 96.8735 8767.78 151.763 8743 244.255L8808.68 261.853C8823.74 205.632 8881.53 172.268 8937.75 187.332C8993.97 202.397 9027.33 260.185 9012.27 316.406L9077.95 334.004Z" fill="#F9C741"/>
<path d="M9429.8 333.379C9362.09 265.67 9252.31 265.67 9184.6 333.379C9116.89 401.088 9116.89 510.867 9184.6 578.576L9232.68 530.498C9191.52 489.342 9191.52 422.614 9232.68 381.457C9273.83 340.3 9340.56 340.3 9381.72 381.457L9429.8 333.379Z" fill="#AC6500"/>
<path d="M9314.38 736.777C9397.31 688.9 9425.72 582.862 9377.84 499.935C9329.97 417.008 9223.93 388.596 9141 436.473L9175 495.356C9225.4 466.254 9289.86 483.525 9318.96 533.931C9348.06 584.338 9330.79 648.792 9280.39 677.894L9314.38 736.777Z" fill="#AC6500"/>
<path d="M9716.99 113.934C9669.11 31.007 9563.08 2.59417 9480.15 50.4719C9397.22 98.3496 9368.81 204.388 9416.69 287.314L9475.57 253.318C9446.47 202.912 9463.74 138.457 9514.15 109.355C9564.55 80.2528 9629.01 97.5233 9658.11 147.93L9716.99 113.934Z" fill="#F9C741"/>
<path d="M9468.15 238.781C9385.22 286.659 9356.81 392.697 9404.69 475.624C9452.56 558.55 9558.6 586.963 9641.53 539.085L9607.53 480.202C9557.13 509.304 9492.67 492.034 9463.57 441.627C9434.47 391.221 9451.74 326.767 9502.14 297.664L9468.15 238.781Z" fill="#F9C741"/>
<path d="M8738.95 639.004C8763.73 546.511 8708.84 451.44 8616.35 426.657C8523.85 401.874 8428.78 456.763 8404 549.255L8469.68 566.853C8484.74 510.632 8542.53 477.268 8598.75 492.332C8654.97 507.397 8688.33 565.185 8673.27 621.406L8738.95 639.004Z" fill="#AC6500"/>
<path d="M8623.38 494.777C8706.31 446.9 8734.72 340.862 8686.84 257.935C8638.97 175.008 8532.93 146.596 8450 194.473L8484 253.356C8534.4 224.254 8598.86 241.525 8627.96 291.931C8657.06 342.338 8639.79 406.792 8589.39 435.894L8623.38 494.777Z" fill="#AC6500"/>
<path d="M8226 289.977C8293.71 357.686 8403.49 357.686 8471.2 289.977C8538.91 222.267 8538.91 112.489 8471.2 44.7793L8423.12 92.8572C8464.28 134.014 8464.28 200.742 8423.12 241.899C8381.96 283.055 8315.23 283.055 8274.08 241.899L8226 289.977Z" fill="#393A3D"/>
<path d="M8471.2 780.578C8538.9 712.869 8538.9 603.09 8471.2 535.381C8403.49 467.672 8293.71 467.672 8226 535.381L8274.08 583.459C8315.23 542.302 8381.96 542.302 8423.12 583.459C8464.27 624.615 8464.27 691.344 8423.12 732.5L8471.2 780.578Z" fill="#F9C741"/>
<path d="M8294 -23.4688C8318.78 69.0239 8413.85 123.913 8506.35 99.1299C8598.84 74.3466 8653.73 -20.7245 8628.95 -113.217L8563.27 -95.6195C8578.33 -39.3983 8544.97 18.3898 8488.75 33.4543C8432.53 48.5187 8374.74 15.1546 8359.68 -41.0665L8294 -23.4688Z" fill="#393A3D"/>
<path d="M8553 539.531C8577.78 632.024 8672.85 686.913 8765.35 662.13C8857.84 637.347 8912.73 542.275 8887.95 449.783L8822.27 467.381C8837.33 523.602 8803.97 581.39 8747.75 596.454C8691.53 611.519 8633.74 578.155 8618.68 521.934L8553 539.531Z" fill="#393A3D"/>
</g>
<g clip-path="url(#clip8_1_9179)">
<rect width="1200" height="675" transform="translate(9600 0.78125)" fill="#D3FA90"/>
<rect x="9985" y="0.78125" width="666" height="385" transform="rotate(90 9985 0.78125)" fill="#F4F4EF"/>
<rect x="10339" y="219.781" width="557" height="25.4076" fill="#F9C741"/>
<rect x="10339" y="270.594" width="557" height="25.4076" fill="#F9C741"/>
<rect x="10339" y="321.414" width="557" height="25.4076" fill="#F9C741"/>
<rect x="10339" y="372.227" width="557" height="25.4076" fill="#F9C741"/>
<rect x="10339" y="423.039" width="557" height="25.4076" fill="#F9C741"/>
<circle cx="9636.5" cy="333.281" r="224.5" fill="#F9C741"/>
<circle cx="9987.5" cy="333.281" r="60.5" fill="#393A3D"/>
<path d="M10410.9 37.7802L10115 333.672L10410.9 629.564L10410.9 37.7802Z" fill="#AC6500"/>
</g>
<g clip-path="url(#clip9_1_9179)">
<rect width="1200" height="675" transform="translate(10800 0.78125)" fill="#F4F4EF"/>
<rect x="9814" y="226.781" width="2094" height="914" transform="rotate(-30 9814 226.781)" fill="#D3FA90"/>
<path d="M12004.4 -120.219C11908.6 -120.219 11831 -42.5936 11831 53.1619C11831 148.917 11908.6 226.543 12004.4 226.543L12004.4 -120.219Z" fill="#AC6500"/>
<path d="M11101.8 669.16C11101.8 573.405 11024.1 495.78 10928.4 495.779C10832.6 495.779 10755 573.405 10755 669.16L11101.8 669.16Z" fill="#AC6500"/>
<path d="M11984 342.781C11771.9 342.781 11600 514.928 11600 727.281C11600 939.635 11771.9 1111.78 11984 1111.78L11984 342.781Z" fill="#F9C741"/>
<path d="M10208 -146.219C10208 124.953 10428.1 344.781 10699.5 344.781C10970.9 344.781 11191 124.953 11191 -146.219L10208 -146.219Z" fill="#F9C741"/>
<circle cx="11416.5" cy="274.281" r="210.5" fill="#393A3D"/>
</g>
<g clip-path="url(#clip10_1_9179)">
<rect width="1200" height="675" transform="translate(12000 0.78125)" fill="#F4F4EF"/>
<rect x="11038" y="305.781" width="2094" height="914" transform="rotate(-30 11038 305.781)" fill="#D3FA90"/>
<rect x="12519" y="228.781" width="145" height="291" fill="#F9C741"/>
<path d="M12364 228.781C12364 271.307 12398.7 305.781 12441.5 305.781C12484.3 305.781 12519 271.307 12519 228.781L12364 228.781Z" fill="#AC6500"/>
<rect x="12314" y="519.781" width="557" height="25.4076" fill="#393A3D"/>
<rect x="12314" y="570.594" width="557" height="25.4076" fill="#393A3D"/>
<circle cx="12591.5" cy="122.281" r="72.5" fill="#393A3D"/>
</g>
<g clip-path="url(#clip11_1_9179)">
<rect width="1200" height="675" transform="translate(13200 0.78125)" fill="#F4F4EF"/>
<rect x="12242" y="314.77" width="1191.98" height="1350.58" transform="rotate(-30 12242 314.77)" fill="#D3FA90"/>
<path d="M14679.8 854.898C14445.9 917.567 14205.5 778.771 14142.8 544.888C14080.2 311.006 14218.9 70.6031 14452.8 7.93451L14679.8 854.898Z" fill="#AC6500"/>
<path d="M13454 304.414C13663.7 183.348 13931.8 255.194 14052.9 464.887C14174 674.58 14102.1 942.715 13892.4 1063.78L13454 304.414Z" fill="#F9C741"/>
<path d="M14274 -440.219C14395.1 -230.525 14323.2 37.6086 14113.5 158.675C13903.8 279.742 13635.7 207.895 13514.6 -1.79796L14274 -440.219Z" fill="#F9C741"/>
<circle cx="13699.5" cy="394.281" r="72.5" fill="#393A3D"/>
</g>
<g clip-path="url(#clip12_1_9179)">
<rect width="1200" height="675" transform="translate(14400 0.78125)" fill="#F4F4EF"/>
<rect x="14992" y="0.78125" width="666" height="592" transform="rotate(90 14992 0.78125)" fill="#D3FA90"/>
<rect x="14400" y="1.25" width="178" height="44.3687" fill="#AC6500"/>
<rect x="14400" y="89.9883" width="178" height="44.3687" fill="#AC6500"/>
<rect x="14400" y="178.727" width="178" height="44.3687" fill="#AC6500"/>
<rect x="14400" y="267.461" width="178" height="44.3687" fill="#AC6500"/>
<rect x="14400" y="356.199" width="178" height="44.3687" fill="#AC6500"/>
<rect x="14400" y="444.781" width="178" height="44.3687" fill="#AC6500"/>
<rect x="14400" y="533.676" width="178" height="44.3687" fill="#AC6500"/>
<rect x="14400" y="622.41" width="178" height="44.3687" fill="#AC6500"/>
<path d="M14992.2 37.7802L15288.1 333.672L14992.2 629.564V37.7802Z" fill="#AC6500"/>
<path d="M15583.9 629.564L15288 333.672L15583.9 37.7801L15583.9 629.564Z" fill="#F9C741"/>
<circle cx="14777.5" cy="333.281" r="72.5" fill="#393A3D"/>
</g>
<g clip-path="url(#clip13_1_9179)">
<rect width="1200" height="675" transform="translate(15600 0.78125)" fill="#F4F4EF"/>
<rect x="16195" y="0.78125" width="666" height="595" transform="rotate(90 16195 0.78125)" fill="#D3FA90"/>
<rect x="15966" y="126.781" width="211.73" height="27.666" fill="#F9C741"/>
<rect x="15966" y="182.113" width="211.73" height="27.666" fill="#AC6500"/>
<rect x="15966" y="237.445" width="211.73" height="27.666" fill="#393A3D"/>
<rect x="15966" y="292.777" width="211.73" height="27.666" fill="#AC6500"/>
<rect x="15966" y="348.109" width="211.73" height="27.666" fill="#F9C741"/>
<rect x="15966" y="403.441" width="211.73" height="27.666" fill="#AC6500"/>
<rect x="15966" y="458.773" width="211.73" height="27.666" fill="#F9C741"/>
<rect x="15966" y="514.105" width="211.73" height="27.666" fill="#393A3D"/>
<rect x="16456" y="126.781" width="211.73" height="27.666" fill="#BABEC5"/>
<rect x="16456" y="182.113" width="211.73" height="27.666" fill="#BABEC5"/>
<rect x="16456" y="237.445" width="211.73" height="27.666" fill="#BABEC5"/>
<rect x="16456" y="292.777" width="211.73" height="27.666" fill="#BABEC5"/>
<rect x="16456" y="348.109" width="211.73" height="27.666" fill="#BABEC5"/>
<rect x="16456" y="403.441" width="211.73" height="27.666" fill="#BABEC5"/>
<rect x="16456" y="458.773" width="211.73" height="27.666" fill="#BABEC5"/>
<rect x="16456" y="514.105" width="211.73" height="27.666" fill="#BABEC5"/>
<rect x="16456" y="126.781" width="211.73" height="27.666" fill="#F9C741"/>
<rect x="16456" y="182.113" width="211.73" height="27.666" fill="#AC6500"/>
<rect x="16456" y="237.445" width="211.73" height="27.666" fill="#393A3D"/>
<rect x="16456" y="292.777" width="211.73" height="27.666" fill="#AC6500"/>
<rect x="16456" y="348.109" width="211.73" height="27.666" fill="#393A3D"/>
<rect x="16456" y="403.441" width="211.73" height="27.666" fill="#AC6500"/>
<rect x="16456" y="458.773" width="211.73" height="27.666" fill="#F9C741"/>
<rect x="16456" y="514.105" width="211.73" height="27.666" fill="#AC6500"/>
<rect x="16211" y="209.781" width="211.73" height="27.666" fill="#F9C741"/>
<rect x="16211" y="265.113" width="211.73" height="27.666" fill="#AC6500"/>
<rect x="16211" y="320.445" width="211.73" height="27.666" fill="#393A3D"/>
<rect x="16211" y="375.777" width="211.73" height="27.666" fill="#F9C741"/>
<rect x="16211" y="431.109" width="211.73" height="27.666" fill="#AC6500"/>
<rect x="16211" y="486.441" width="211.73" height="27.666" fill="#F9C741"/>
<rect x="16211" y="541.773" width="211.73" height="27.666" fill="#393A3D"/>
<rect x="16211" y="597.105" width="211.73" height="27.666" fill="#AC6500"/>
<rect x="15721" y="43.7812" width="211.73" height="27.666" fill="#F9C741"/>
<rect x="15721" y="99.1133" width="211.73" height="27.666" fill="#393A3D"/>
<rect x="15721" y="154.445" width="211.73" height="27.666" fill="#F9C741"/>
<rect x="15721" y="209.777" width="211.73" height="27.666" fill="#393A3D"/>
<rect x="15721" y="265.109" width="211.73" height="27.666" fill="#AC6500"/>
<rect x="15721" y="320.441" width="211.73" height="27.666" fill="#F9C741"/>
<rect x="15721" y="375.773" width="211.73" height="27.666" fill="#393A3D"/>
<rect x="15721" y="431.105" width="211.73" height="27.666" fill="#AC6500"/>
</g>
<g clip-path="url(#clip14_1_9179)">
<rect width="1200" height="675" transform="translate(16800 0.78125)" fill="#F4F4EF"/>
<rect x="17984" y="442.781" width="224" height="1184" transform="rotate(90 17984 442.781)" fill="#D3FA90"/>
<path d="M17155 393.781L17012.1 146.281L17297.9 146.281L17155 393.781Z" fill="#F9C741"/>
<path d="M17628 393.781L17485.1 146.281L17770.9 146.281L17628 393.781Z" fill="#F9C741"/>
<path d="M17392 264.781L17436.2 341.281L17347.8 341.281L17392 264.781Z" fill="#393A3D"/>
<path d="M17227 442.781C17227 538.537 17304.6 616.162 17400.4 616.162C17496.1 616.162 17573.8 538.537 17573.8 442.781H17505.8C17505.8 500.986 17458.6 548.169 17400.4 548.169C17342.2 548.169 17295 500.986 17295 442.781H17227Z" fill="#AC6500"/>
<circle cx="16965" cy="344.781" r="49" fill="#D3FA90"/>
<circle cx="17820" cy="344.781" r="49" fill="#D3FA90"/>
</g>
<g clip-path="url(#clip15_1_9179)">
<rect width="1200" height="675" transform="translate(18000 0.78125)" fill="#F4F4EF"/>
<rect x="18738" y="184.781" width="482" height="738" transform="rotate(90 18738 184.781)" fill="#D3FA90"/>
<rect x="18738" y="6.78125" width="178" height="49.2" transform="rotate(90 18738 6.78125)" fill="#AC6500"/>
<rect x="18639.6" y="6.78125" width="178" height="49.2" transform="rotate(90 18639.6 6.78125)" fill="#AC6500"/>
<rect x="18541.2" y="6.78125" width="178" height="49.2" transform="rotate(90 18541.2 6.78125)" fill="#AC6500"/>
<rect x="18442.8" y="6.78125" width="178" height="49.2" transform="rotate(90 18442.8 6.78125)" fill="#AC6500"/>
<rect x="18344.4" y="6.78125" width="178" height="49.2" transform="rotate(90 18344.4 6.78125)" fill="#AC6500"/>
<rect x="18246.2" y="6.78125" width="178" height="49.2" transform="rotate(90 18246.2 6.78125)" fill="#AC6500"/>
<rect x="18147.6" y="6.78125" width="178" height="49.2" transform="rotate(90 18147.6 6.78125)" fill="#AC6500"/>
<rect x="18049.2" y="6.78125" width="178" height="49.2" transform="rotate(90 18049.2 6.78125)" fill="#AC6500"/>
<path d="M18738.4 274.781C18642.6 274.781 18565 352.406 18565 448.162C18565 543.917 18642.6 621.543 18738.4 621.543L18738.4 553.55C18680.2 553.55 18633 506.366 18633 448.162C18633 389.958 18680.2 342.774 18738.4 342.774L18738.4 274.781Z" fill="#F9C741"/>
<path d="M18738 621.543C18833.8 621.543 18911.4 543.918 18911.4 448.162C18911.4 352.407 18833.8 274.782 18738 274.782L18738 342.774C18796.2 342.774 18843.4 389.958 18843.4 448.162C18843.4 506.367 18796.2 553.551 18738 553.551L18738 621.543Z" fill="#AC6500"/>
<path fill-rule="evenodd" clip-rule="evenodd" d="M19046.8 308.972C19020.9 294.687 18993.1 294.686 18967.2 308.972L18963.9 290.086C18992 274.618 19022 274.617 19050.1 290.086C19050.1 290.086 19050.1 290.086 19050.1 290.086L19082.4 307.85C19108.4 322.136 19136.2 322.135 19162.1 307.851L19194.4 290.086C19194.4 290.086 19194.4 290.086 19194.4 290.086C19222.5 274.618 19252.6 274.617 19280.7 290.086C19280.7 290.086 19280.7 290.086 19280.7 290.086L19313 307.85C19339 322.136 19366.7 322.135 19392.7 307.851L19425 290.086C19425 290.086 19425 290.086 19425 290.086C19453.1 274.618 19483.2 274.617 19511.3 290.086C19511.3 290.086 19511.3 290.086 19511.3 290.086L19543.6 307.85C19569.5 322.136 19597.3 322.135 19623.3 307.851L19655.5 290.086C19683.7 274.617 19713.7 274.617 19741.8 290.087L19738.5 308.972C19712.6 294.687 19684.8 294.686 19658.8 308.972L19626.6 326.735C19626.6 326.736 19626.6 326.735 19626.6 326.735C19598.5 342.205 19568.4 342.205 19540.3 326.736L19508 308.972C19482 294.688 19454.2 294.686 19428.3 308.972L19396 326.735C19367.9 342.205 19337.8 342.205 19309.7 326.736C19309.7 326.736 19309.7 326.736 19309.7 326.736L19277.4 308.972C19251.5 294.688 19223.7 294.686 19197.7 308.972L19165.4 326.735C19137.3 342.205 19107.2 342.205 19079.1 326.736C19079.1 326.736 19079.1 326.736 19079.1 326.736L19046.8 308.972Z" fill="#393A3D"/>
<path fill-rule="evenodd" clip-rule="evenodd" d="M19046.8 381.932C19020.9 367.648 18993.1 367.647 18967.2 381.933L18963.9 363.047C18992 347.579 19022 347.578 19050.1 363.047C19050.1 363.047 19050.1 363.047 19050.1 363.047L19082.4 380.811C19108.4 395.096 19136.2 395.096 19162.1 380.812L19194.4 363.047C19194.4 363.047 19194.4 363.047 19194.4 363.047C19222.5 347.579 19252.6 347.578 19280.7 363.047C19280.7 363.047 19280.7 363.047 19280.7 363.047L19313 380.811C19339 395.096 19366.7 395.096 19392.7 380.812L19425 363.047C19425 363.047 19425 363.047 19425 363.047C19453.1 347.579 19483.2 347.578 19511.3 363.047C19511.3 363.047 19511.3 363.047 19511.3 363.047L19543.6 380.811C19569.5 395.096 19597.3 395.096 19623.3 380.812L19655.5 363.047C19683.7 347.578 19713.7 347.578 19741.8 363.048L19738.5 381.932C19712.6 367.648 19684.8 367.647 19658.8 381.933L19626.6 399.696C19626.6 399.697 19626.6 399.696 19626.6 399.696C19598.5 415.166 19568.4 415.166 19540.3 399.697L19508 381.933C19482 367.649 19454.2 367.647 19428.3 381.933L19396 399.696C19367.9 415.166 19337.8 415.166 19309.7 399.697C19309.7 399.697 19309.7 399.697 19309.7 399.697L19277.4 381.933C19251.5 367.649 19223.7 367.647 19197.7 381.933L19165.4 399.696C19137.3 415.166 19107.2 415.166 19079.1 399.697C19079.1 399.697 19079.1 399.697 19079.1 399.697L19046.8 381.932Z" fill="#393A3D"/>
<path fill-rule="evenodd" clip-rule="evenodd" d="M19046.8 454.889C19020.9 440.605 18993.1 440.604 18967.2 454.89L18963.9 436.004C18992 420.536 19022 420.535 19050.1 436.004C19050.1 436.004 19050.1 436.004 19050.1 436.004L19082.4 453.768C19108.4 468.054 19136.2 468.053 19162.1 453.769L19194.4 436.004C19194.4 436.004 19194.4 436.004 19194.4 436.004C19222.5 420.536 19252.6 420.535 19280.7 436.004C19280.7 436.004 19280.7 436.004 19280.7 436.004L19313 453.768C19339 468.054 19366.7 468.053 19392.7 453.769L19425 436.004C19425 436.004 19425 436.004 19425 436.004C19453.1 420.536 19483.2 420.535 19511.3 436.004C19511.3 436.004 19511.3 436.004 19511.3 436.004L19543.6 453.768C19569.5 468.054 19597.3 468.053 19623.3 453.769L19655.5 436.004C19683.7 420.535 19713.7 420.535 19741.8 436.005L19738.5 454.889C19712.6 440.605 19684.8 440.604 19658.8 454.89L19626.6 472.653C19626.6 472.654 19626.6 472.653 19626.6 472.653C19598.5 488.123 19568.4 488.123 19540.3 472.654L19508 454.89C19482 440.606 19454.2 440.604 19428.3 454.89L19396 472.653C19367.9 488.123 19337.8 488.123 19309.7 472.654C19309.7 472.654 19309.7 472.654 19309.7 472.654L19277.4 454.89C19251.5 440.606 19223.7 440.604 19197.7 454.89L19165.4 472.653C19137.3 488.123 19107.2 488.123 19079.1 472.654C19079.1 472.654 19079.1 472.654 19079.1 472.654L19046.8 454.889Z" fill="#393A3D"/>
<path fill-rule="evenodd" clip-rule="evenodd" d="M19046.8 527.847C19020.9 513.562 18993.1 513.561 18967.2 527.847L18963.9 508.961C18992 493.493 19022 493.492 19050.1 508.961C19050.1 508.961 19050.1 508.961 19050.1 508.961L19082.4 526.725C19108.4 541.011 19136.2 541.01 19162.1 526.726L19194.4 508.961C19194.4 508.961 19194.4 508.961 19194.4 508.961C19222.5 493.493 19252.6 493.492 19280.7 508.961C19280.7 508.961 19280.7 508.961 19280.7 508.961L19313 526.725C19339 541.011 19366.7 541.01 19392.7 526.726L19425 508.961C19425 508.961 19425 508.961 19425 508.961C19453.1 493.493 19483.2 493.492 19511.3 508.961C19511.3 508.961 19511.3 508.961 19511.3 508.961L19543.6 526.725C19569.5 541.011 19597.3 541.01 19623.3 526.726L19655.5 508.961C19683.7 493.492 19713.7 493.492 19741.8 508.962L19738.5 527.847C19712.6 513.562 19684.8 513.561 19658.8 527.847L19626.6 545.61C19626.6 545.611 19626.6 545.61 19626.6 545.61C19598.5 561.08 19568.4 561.08 19540.3 545.611L19508 527.847C19482 513.563 19454.2 513.561 19428.3 527.847L19396 545.61C19367.9 561.08 19337.8 561.08 19309.7 545.611C19309.7 545.611 19309.7 545.611 19309.7 545.611L19277.4 527.847C19251.5 513.563 19223.7 513.561 19197.7 527.847L19165.4 545.61C19137.3 561.08 19107.2 561.08 19079.1 545.611C19079.1 545.611 19079.1 545.611 19079.1 545.611L19046.8 527.847Z" fill="#393A3D"/>
<path fill-rule="evenodd" clip-rule="evenodd" d="M19046.8 600.807C19020.9 586.523 18993.1 586.522 18967.2 600.808L18963.9 581.922C18992 566.454 19022 566.453 19050.1 581.922C19050.1 581.922 19050.1 581.922 19050.1 581.922L19082.4 599.686C19108.4 613.971 19136.2 613.971 19162.1 599.687L19194.4 581.922C19194.4 581.922 19194.4 581.922 19194.4 581.922C19222.5 566.454 19252.6 566.453 19280.7 581.922C19280.7 581.922 19280.7 581.922 19280.7 581.922L19313 599.686C19339 613.971 19366.7 613.971 19392.7 599.687L19425 581.922C19425 581.922 19425 581.922 19425 581.922C19453.1 566.454 19483.2 566.453 19511.3 581.922C19511.3 581.922 19511.3 581.922 19511.3 581.922L19543.6 599.686C19569.5 613.971 19597.3 613.971 19623.3 599.687L19655.5 581.922C19683.7 566.453 19713.7 566.453 19741.8 581.923L19738.5 600.807C19712.6 586.523 19684.8 586.522 19658.8 600.808L19626.6 618.571C19626.6 618.572 19626.6 618.571 19626.6 618.571C19598.5 634.041 19568.4 634.041 19540.3 618.572L19508 600.808C19482 586.524 19454.2 586.522 19428.3 600.808L19396 618.571C19367.9 634.041 19337.8 634.041 19309.7 618.572C19309.7 618.572 19309.7 618.572 19309.7 618.572L19277.4 600.808C19251.5 586.524 19223.7 586.522 19197.7 600.808L19165.4 618.571C19137.3 634.041 19107.2 634.041 19079.1 618.572C19079.1 618.572 19079.1 618.572 19079.1 618.572L19046.8 600.807Z" fill="#393A3D"/>
</g>
<defs>
<clipPath id="clip0_1_9179">
<rect width="1200" height="675" fill="white" transform="translate(0 0.78125)"/>
</clipPath>
<clipPath id="clip1_1_9179">
<rect width="1200" height="675" fill="white" transform="translate(1200 0.78125)"/>
</clipPath>
<clipPath id="clip2_1_9179">
<rect width="1200" height="675" fill="white" transform="translate(2400 0.78125)"/>
</clipPath>
<clipPath id="clip3_1_9179">
<rect width="1200" height="675" fill="white" transform="translate(3600 0.78125)"/>
</clipPath>
<clipPath id="clip4_1_9179">
<rect width="1200" height="675" fill="white" transform="translate(4800 0.78125)"/>
</clipPath>
<clipPath id="clip5_1_9179">
<rect width="1200" height="675" fill="white" transform="translate(6000 0.78125)"/>
</clipPath>
<clipPath id="clip6_1_9179">
<rect width="1200" height="675" fill="white" transform="translate(7200 0.78125)"/>
</clipPath>
<clipPath id="clip7_1_9179">
<rect width="1200" height="675" fill="white" transform="translate(8400 0.78125)"/>
</clipPath>
<clipPath id="clip8_1_9179">
<rect width="1200" height="675" fill="white" transform="translate(9600 0.78125)"/>
</clipPath>
<clipPath id="clip9_1_9179">
<rect width="1200" height="675" fill="white" transform="translate(10800 0.78125)"/>
</clipPath>
<clipPath id="clip10_1_9179">
<rect width="1200" height="675" fill="white" transform="translate(12000 0.78125)"/>
</clipPath>
<clipPath id="clip11_1_9179">
<rect width="1200" height="675" fill="white" transform="translate(13200 0.78125)"/>
</clipPath>
<clipPath id="clip12_1_9179">
<rect width="1200" height="675" fill="white" transform="translate(14400 0.78125)"/>
</clipPath>
<clipPath id="clip13_1_9179">
<rect width="1200" height="675" fill="white" transform="translate(15600 0.78125)"/>
</clipPath>
<clipPath id="clip14_1_9179">
<rect width="1200" height="675" fill="white" transform="translate(16800 0.78125)"/>
</clipPath>
<clipPath id="clip15_1_9179">
<rect width="1200" height="675" fill="white" transform="translate(18000 0.78125)"/>
</clipPath>
</defs>
</svg>
