<svg width="28800" height="676" viewBox="0 0 28800 676" fill="none" xmlns="http://www.w3.org/2000/svg">
<g clip-path="url(#clip0_1_7081)">
<rect width="1200" height="675" transform="translate(0 0.78125)" fill="#F4F4EF"/>
<rect y="0.78125" width="592" height="674" fill="#C2F5FF"/>
<path d="M567.454 124.781V543.235H149L567.454 124.781Z" fill="#6100C2"/>
<path d="M616.999 124.781V543.235H1035.45L616.999 124.781Z" fill="#B496FF"/>
<circle cx="1051.5" cy="125.281" r="57.5" fill="#393A3D"/>
<rect x="617" y="383.781" width="159" height="159" fill="#6100C2"/>
</g>
<g clip-path="url(#clip1_1_7081)">
<rect width="1200" height="675" transform="translate(1200 0.78125)" fill="#F4F4EF"/>
<rect x="1792" y="0.78125" width="592" height="674" fill="#C2F5FF"/>
<circle cx="2469.55" cy="333.335" r="249.553" fill="#6100C2"/>
<path fill-rule="evenodd" clip-rule="evenodd" d="M1199.55 583.781C1337.38 583.781 1449.11 472.052 1449.11 334.227C1449.11 196.403 1337.38 84.6738 1199.55 84.6738C1061.73 84.6738 950 196.403 950 334.227C950 472.052 1061.73 583.781 1199.55 583.781ZM1199.55 485.916C1283.33 485.916 1351.24 418.003 1351.24 334.227C1351.24 250.451 1283.33 182.538 1199.55 182.538C1115.78 182.538 1047.86 250.451 1047.86 334.227C1047.86 418.003 1115.78 485.916 1199.55 485.916Z" fill="#6100C2"/>
<path fill-rule="evenodd" clip-rule="evenodd" d="M1792.5 469.781C1867.33 469.781 1928 409.116 1928 334.281C1928 259.447 1867.33 198.781 1792.5 198.781C1717.67 198.781 1657 259.447 1657 334.281C1657 409.116 1717.67 469.781 1792.5 469.781ZM1792.5 445.869C1854.13 445.869 1904.09 395.91 1904.09 334.281C1904.09 272.653 1854.13 222.693 1792.5 222.693C1730.87 222.693 1680.91 272.653 1680.91 334.281C1680.91 395.91 1730.87 445.869 1792.5 445.869Z" fill="#B496FF"/>
<circle cx="1792.5" cy="334.281" r="57.5" fill="#393A3D"/>
</g>
<g clip-path="url(#clip2_1_7081)">
<rect width="1200" height="675" transform="translate(2400 0.78125)" fill="#F4F4EF"/>
<rect x="2392" y="0.78125" width="661" height="674" fill="#C2F5FF"/>
<rect x="2485.55" y="121.781" width="276.444" height="84.6919" fill="#B496FF"/>
<rect x="2485.55" y="291.164" width="276.444" height="84.6919" fill="#B496FF"/>
<rect x="2485.55" y="460.549" width="276.444" height="84.6919" fill="#B496FF"/>
<rect x="3053" y="121.781" width="423" height="423" fill="#6100C2"/>
<path fill-rule="evenodd" clip-rule="evenodd" d="M2853.01 121.781C2855.13 128.381 2858.36 134.925 2862.71 141.353L2882.17 170.122C2897.81 193.232 2897.81 217.98 2882.17 241.107L2862.71 269.875C2845.76 294.902 2845.76 321.701 2862.71 346.743L2882.17 375.512C2897.81 398.622 2897.81 423.369 2882.17 446.496L2862.71 475.264C2845.76 500.292 2845.76 527.091 2862.71 552.133L2883.39 549.191C2867.75 526.064 2867.75 501.316 2883.39 478.207L2902.85 449.437C2919.8 424.395 2919.8 397.596 2902.85 372.568L2883.39 343.801C2867.75 320.674 2867.75 295.925 2883.39 272.815L2902.85 244.048C2919.8 219.005 2919.8 192.206 2902.85 167.178L2883.39 138.411C2879.7 132.944 2876.87 127.387 2874.92 121.781H2853.01Z" fill="#393A3D"/>
<path fill-rule="evenodd" clip-rule="evenodd" d="M2918.11 121.781C2920.23 128.381 2923.46 134.925 2927.81 141.353L2947.27 170.122C2962.91 193.232 2962.91 217.98 2947.27 241.107L2927.81 269.875C2910.87 294.902 2910.87 321.701 2927.81 346.743L2947.27 375.512C2962.91 398.622 2962.91 423.369 2947.27 446.496L2927.81 475.264C2910.87 500.292 2910.87 527.091 2927.81 552.133L2948.5 549.191C2932.85 526.064 2932.85 501.316 2948.5 478.207L2967.95 449.437C2984.9 424.395 2984.9 397.596 2967.95 372.568L2948.5 343.801C2932.85 320.674 2932.85 295.925 2948.5 272.815L2967.95 244.048C2984.9 219.005 2984.9 192.206 2967.95 167.178L2948.5 138.411C2944.8 132.944 2941.97 127.387 2940.02 121.781H2918.11Z" fill="#393A3D"/>
<circle cx="3264.5" cy="334.281" r="57.5" fill="#B496FF"/>
</g>
<g clip-path="url(#clip3_1_7081)">
<rect width="1200" height="675" transform="translate(3600 0.78125)" fill="#F4F4EF"/>
<g filter="url(#filter0_d_1_7081)">
<g clip-path="url(#clip4_1_7081)">
<rect x="3600.16" y="0.455078" width="1187.17" height="667.781" rx="12.0321" fill="#F4F4EF"/>
<rect x="3600" y="0.78125" width="681" height="668" fill="#C2F5FF"/>
<path d="M4495.95 292.955C4538.72 292.955 4573.39 258.286 4573.39 215.519C4573.39 172.752 4538.72 138.082 4495.95 138.082L4495.95 292.955Z" fill="#B496FF"/>
<path d="M3716.7 624.279C3759.47 624.279 3794.14 589.61 3794.14 546.843C3794.14 504.076 3759.47 469.406 3716.7 469.406L3716.7 624.279Z" fill="#6100C2"/>
<path d="M3911.52 624.279C3954.28 624.279 3988.95 589.61 3988.95 546.843C3988.95 504.076 3954.28 469.406 3911.52 469.406L3911.52 624.279Z" fill="#6100C2"/>
<path d="M4106.32 624.279C4149.09 624.279 4183.76 589.61 4183.76 546.843C4183.76 504.076 4149.09 469.406 4106.32 469.406L4106.32 624.279Z" fill="#6100C2"/>
<path d="M3696.74 373.781C3653.97 373.781 3619.3 408.451 3619.3 451.218C3619.3 493.985 3653.97 528.654 3696.74 528.654L3696.74 373.781Z" fill="#6100C2"/>
<path d="M3891.54 373.781C3848.78 373.781 3814.11 408.451 3814.11 451.218C3814.11 493.985 3848.78 528.654 3891.54 528.654L3891.54 373.781Z" fill="#6100C2"/>
<path d="M4086.36 373.781C4043.59 373.781 4008.92 408.451 4008.92 451.218C4008.92 493.985 4043.59 528.654 4086.36 528.654L4086.36 373.781Z" fill="#6100C2"/>
<path d="M4787 373.781V668.781H4493L4787 373.781Z" fill="#393A3D"/>
<circle cx="4402.46" cy="215.439" r="19.6585" transform="rotate(180 4402.46 215.439)" fill="#6100C2"/>
<circle cx="4341.3" cy="215.439" r="19.6585" transform="rotate(180 4341.3 215.439)" fill="#6100C2"/>
<circle cx="4280.13" cy="215.439" r="19.6585" transform="rotate(180 4280.13 215.439)" fill="#393A3D"/>
<circle cx="4218.98" cy="215.439" r="19.6585" transform="rotate(180 4218.98 215.439)" fill="#6100C2"/>
<circle cx="4157.82" cy="215.439" r="19.6585" transform="rotate(180 4157.82 215.439)" fill="#6100C2"/>
<circle cx="4096.66" cy="215.439" r="19.6585" transform="rotate(180 4096.66 215.439)" fill="#6100C2"/>
<circle cx="4600.5" cy="479.281" r="57.5" fill="#393A3D"/>
</g>
</g>
</g>
<g clip-path="url(#clip5_1_7081)">
<rect width="1200" height="675" transform="translate(4800 0.78125)" fill="#F4F4EF"/>
<rect x="4800" y="297.781" width="1184" height="377" fill="#C2F5FF"/>
<path d="M5496.34 181.904C5328.82 14.3928 5057.23 14.3928 4889.72 181.904C4722.21 349.416 4722.21 621.006 4889.72 788.517L5008.67 669.574C4906.85 567.753 4906.85 402.669 5008.67 300.848C5110.49 199.027 5275.57 199.027 5377.39 300.848L5496.34 181.904Z" fill="#B496FF"/>
<path d="M5287.08 485.211C5454.59 652.722 5726.18 652.722 5893.69 485.211C6061.2 317.699 6061.2 46.1093 5893.69 -121.402L5774.75 -2.45847C5876.57 99.3624 5876.57 264.446 5774.75 366.267C5672.93 468.088 5507.84 468.088 5406.02 366.267L5287.08 485.211Z" fill="#6100C2"/>
<circle cx="5508.5" cy="294.281" r="57.5" fill="#393A3D"/>
</g>
<rect width="1200" height="675" transform="translate(6000 0.78125)" fill="#F4F4EF"/>
<rect x="6000" y="344.781" width="1184" height="330" fill="#C2F5FF"/>
<path d="M6414.76 345.162C6414.76 249.407 6337.14 171.781 6241.38 171.781C6145.63 171.781 6068 249.407 6068 345.162L6135.99 345.162C6135.99 286.958 6183.18 239.774 6241.38 239.774C6299.59 239.774 6346.77 286.958 6346.77 345.162L6414.76 345.162Z" fill="#B496FF"/>
<path d="M6972.76 345.162C6972.76 249.407 6895.14 171.781 6799.38 171.781C6703.63 171.781 6626 249.407 6626 345.162L6693.99 345.162C6693.99 286.958 6741.18 239.774 6799.38 239.774C6857.59 239.774 6904.77 286.958 6904.77 345.162L6972.76 345.162Z" fill="#B496FF"/>
<path d="M6347 344.781C6347 440.537 6424.63 518.162 6520.38 518.162C6616.14 518.162 6693.76 440.537 6693.76 344.781H6625.77C6625.77 402.986 6578.59 450.169 6520.38 450.169C6462.18 450.169 6414.99 402.986 6414.99 344.781H6347Z" fill="#6100C2"/>
<circle cx="6940.5" cy="452.281" r="57.5" fill="#393A3D"/>
<g clip-path="url(#clip6_1_7081)">
<rect width="1200" height="675" transform="translate(7200 0.78125)" fill="#F4F4EF"/>
<rect x="7792" y="0.78125" width="592" height="674" fill="#C2F5FF"/>
<path d="M7598.5 195.781L7758.28 470.281H7438.72L7598.5 195.781Z" fill="#B496FF"/>
<path d="M7985.5 195.781L8145.28 470.281H7825.72L7985.5 195.781Z" fill="#B496FF"/>
<path d="M7792.5 471.781L7632.72 197.281L7952.28 197.281L7792.5 471.781Z" fill="#6100C2"/>
<rect x="7200" y="195.781" width="151" height="55.2" fill="#6100C2"/>
<rect x="7200" y="306.182" width="151" height="55.2" fill="#6100C2"/>
<rect x="7200" y="416.582" width="151" height="55.2" fill="#6100C2"/>
<rect x="8233" y="195.781" width="151" height="55.2" fill="#393A3D"/>
<rect x="8233" y="306.182" width="151" height="55.2" fill="#393A3D"/>
<rect x="8233" y="416.582" width="151" height="55.2" fill="#393A3D"/>
</g>
<g clip-path="url(#clip7_1_7081)">
<rect width="1200" height="675" transform="translate(8400 0.78125)" fill="#F4F4EF"/>
<rect x="8392" y="0.78125" width="621" height="674" fill="#C2F5FF"/>
<circle cx="8693.5" cy="349.281" r="79.5" fill="#393A3D"/>
<rect x="9013.29" y="1.05664" width="573.88" height="667.178" fill="#F4F4EF"/>
<rect x="9013" y="428.781" width="571" height="238" fill="#B496FF"/>
<circle cx="19.1597" cy="19.1597" r="19.1597" transform="matrix(1 0 0 -1 9035.78 45.4883)" fill="#6100C2"/>
<circle cx="19.1597" cy="19.1597" r="19.1597" transform="matrix(1 0 0 -1 9097.84 45.4883)" fill="#6100C2"/>
<circle cx="19.1597" cy="19.1597" r="19.1597" transform="matrix(1 0 0 -1 9159.91 45.4883)" fill="#6100C2"/>
<circle cx="19.1597" cy="19.1597" r="19.1597" transform="matrix(1 0 0 -1 9221.97 45.4883)" fill="#6100C2"/>
<circle cx="19.1597" cy="19.1597" r="19.1597" transform="matrix(1 0 0 -1 9035.78 107.318)" fill="#6100C2"/>
<circle cx="19.1597" cy="19.1597" r="19.1597" transform="matrix(1 0 0 -1 9097.84 107.318)" fill="#6100C2"/>
<circle cx="19.1597" cy="19.1597" r="19.1597" transform="matrix(1 0 0 -1 9159.91 107.318)" fill="#6100C2"/>
<circle cx="19.1597" cy="19.1597" r="19.1597" transform="matrix(1 0 0 -1 9221.97 107.318)" fill="#6100C2"/>
<circle cx="19.1597" cy="19.1597" r="19.1597" transform="matrix(1 0 0 -1 9035.78 169.148)" fill="#6100C2"/>
<circle cx="19.1597" cy="19.1597" r="19.1597" transform="matrix(1 0 0 -1 9097.84 169.148)" fill="#6100C2"/>
<circle cx="19.1597" cy="19.1597" r="19.1597" transform="matrix(1 0 0 -1 9159.91 169.148)" fill="#6100C2"/>
<circle cx="19.1597" cy="19.1597" r="19.1597" transform="matrix(1 0 0 -1 9221.97 169.148)" fill="#6100C2"/>
<circle cx="19.1597" cy="19.1597" r="19.1597" transform="matrix(1 0 0 -1 9035.78 230.98)" fill="#6100C2"/>
<circle cx="19.1597" cy="19.1597" r="19.1597" transform="matrix(1 0 0 -1 9097.84 230.98)" fill="#6100C2"/>
<circle cx="19.1597" cy="19.1597" r="19.1597" transform="matrix(1 0 0 -1 9160 231.102)" fill="#6100C2"/>
<circle cx="19.1597" cy="19.1597" r="19.1597" transform="matrix(1 0 0 -1 9221.97 230.98)" fill="#6100C2"/>
<circle cx="19.1597" cy="19.1597" r="19.1597" transform="matrix(1 0 0 -1 9035.78 292.811)" fill="#6100C2"/>
<circle cx="19.1597" cy="19.1597" r="19.1597" transform="matrix(1 0 0 -1 9097.84 292.811)" fill="#6100C2"/>
<circle cx="19.1597" cy="19.1597" r="19.1597" transform="matrix(1 0 0 -1 9159.91 292.811)" fill="#6100C2"/>
<circle cx="19.1597" cy="19.1597" r="19.1597" transform="matrix(1 0 0 -1 9221.97 292.811)" fill="#6100C2"/>
<circle cx="19.1597" cy="19.1597" r="19.1597" transform="matrix(1 0 0 -1 9035.78 354.643)" fill="#6100C2"/>
<circle cx="19.1597" cy="19.1597" r="19.1597" transform="matrix(1 0 0 -1 9097.84 354.643)" fill="#6100C2"/>
<circle cx="19.1597" cy="19.1597" r="19.1597" transform="matrix(1 0 0 -1 9159.91 354.643)" fill="#6100C2"/>
<circle cx="19.1597" cy="19.1597" r="19.1597" transform="matrix(1 0 0 -1 9221.97 354.643)" fill="#6100C2"/>
<circle cx="19.1597" cy="19.1597" r="19.1597" transform="matrix(1 0 0 -1 9035.78 416.473)" fill="#6100C2"/>
<circle cx="19.1597" cy="19.1597" r="19.1597" transform="matrix(1 0 0 -1 9097.84 416.473)" fill="#6100C2"/>
<circle cx="19.1597" cy="19.1597" r="19.1597" transform="matrix(1 0 0 -1 9159.91 416.473)" fill="#6100C2"/>
<circle cx="19.1597" cy="19.1597" r="19.1597" transform="matrix(1 0 0 -1 9221.97 416.473)" fill="#6100C2"/>
<circle cx="19.1597" cy="19.1597" r="19.1597" transform="matrix(1 0 0 -1 9035.78 478.305)" fill="#6100C2"/>
<circle cx="19.1597" cy="19.1597" r="19.1597" transform="matrix(1 0 0 -1 9097.84 478.305)" fill="#6100C2"/>
<circle cx="19.1597" cy="19.1597" r="19.1597" transform="matrix(1 0 0 -1 9159.91 478.305)" fill="#6100C2"/>
<circle cx="19.1597" cy="19.1597" r="19.1597" transform="matrix(1 0 0 -1 9221.97 478.305)" fill="#6100C2"/>
<circle cx="19.1597" cy="19.1597" r="19.1597" transform="matrix(1 0 0 -1 9035.78 540.137)" fill="#6100C2"/>
<circle cx="19.1597" cy="19.1597" r="19.1597" transform="matrix(1 0 0 -1 9097.84 540.137)" fill="#6100C2"/>
<circle cx="19.1597" cy="19.1597" r="19.1597" transform="matrix(1 0 0 -1 9159.91 540.137)" fill="#6100C2"/>
<circle cx="19.1597" cy="19.1597" r="19.1597" transform="matrix(1 0 0 -1 9221.97 540.137)" fill="#6100C2"/>
<circle cx="19.1597" cy="19.1597" r="19.1597" transform="matrix(1 0 0 -1 9035.78 601.967)" fill="#6100C2"/>
<circle cx="19.1597" cy="19.1597" r="19.1597" transform="matrix(1 0 0 -1 9097.84 601.967)" fill="#6100C2"/>
<circle cx="19.1597" cy="19.1597" r="19.1597" transform="matrix(1 0 0 -1 9159.91 601.967)" fill="#6100C2"/>
<circle cx="19.1597" cy="19.1597" r="19.1597" transform="matrix(1 0 0 -1 9221.97 601.967)" fill="#6100C2"/>
<path fill-rule="evenodd" clip-rule="evenodd" d="M9330.65 101.479C9317.26 90.3883 9302.93 90.3879 9289.54 101.479L9287.84 86.8163C9302.34 74.8064 9317.86 74.8057 9332.35 86.8161C9332.35 86.8163 9332.35 86.8158 9332.35 86.8161L9349.01 100.608C9362.41 111.699 9376.74 111.699 9390.12 100.609L9406.78 86.8163C9406.78 86.8162 9406.78 86.8163 9406.78 86.8163C9421.28 74.8066 9436.8 74.8058 9451.3 86.8161C9451.3 86.8163 9451.3 86.8158 9451.3 86.8161L9467.96 100.608C9481.35 111.699 9495.68 111.699 9509.07 100.609L9525.73 86.8163C9525.73 86.8162 9525.73 86.8163 9525.73 86.8163C9540.23 74.8066 9555.75 74.8058 9570.24 86.8161C9570.24 86.8163 9570.24 86.8158 9570.24 86.8161L9586.9 100.608C9600.29 111.699 9614.63 111.699 9628.01 100.609L9644.67 86.8163C9659.17 74.8062 9674.69 74.8057 9689.19 86.8167L9687.48 101.479C9674.1 90.3883 9659.77 90.3879 9646.37 101.479L9629.71 115.271C9629.71 115.271 9629.72 115.271 9629.71 115.271C9615.22 127.281 9599.7 127.281 9585.2 115.271L9568.54 101.48C9555.16 90.389 9540.82 90.3879 9527.43 101.479L9510.77 115.271C9496.28 127.282 9480.76 127.281 9466.25 115.272C9466.25 115.271 9466.25 115.272 9466.25 115.272L9449.59 101.48C9436.21 90.389 9421.88 90.3879 9408.48 101.479L9391.82 115.271C9377.33 127.282 9361.81 127.281 9347.31 115.272C9347.31 115.271 9347.31 115.272 9347.31 115.272L9330.65 101.479Z" fill="#B496FF"/>
<path fill-rule="evenodd" clip-rule="evenodd" d="M9330.65 158.123C9317.26 147.033 9302.93 147.032 9289.54 158.124L9287.84 143.461C9302.34 131.451 9317.86 131.45 9332.35 143.461C9332.35 143.461 9332.35 143.46 9332.35 143.461L9349.01 157.253C9362.41 168.344 9376.74 168.344 9390.12 157.253L9406.78 143.461C9406.78 143.461 9406.78 143.461 9406.78 143.461C9421.28 131.451 9436.8 131.45 9451.3 143.461C9451.3 143.461 9451.3 143.46 9451.3 143.461L9467.96 157.253C9481.35 168.344 9495.68 168.344 9509.07 157.253L9525.73 143.461C9525.73 143.461 9525.73 143.461 9525.73 143.461C9540.23 131.451 9555.75 131.45 9570.24 143.461C9570.24 143.461 9570.24 143.46 9570.24 143.461L9586.9 157.253C9600.29 168.344 9614.63 168.344 9628.01 157.253L9644.67 143.461C9659.17 131.451 9674.69 131.45 9689.19 143.461L9687.48 158.123C9674.1 147.033 9659.77 147.032 9646.37 158.124L9629.71 171.915C9629.71 171.916 9629.72 171.915 9629.71 171.915C9615.22 183.926 9599.7 183.926 9585.2 171.916L9568.54 158.124C9555.16 147.033 9540.82 147.032 9527.43 158.124L9510.77 171.915C9496.28 183.926 9480.76 183.926 9466.25 171.916C9466.25 171.916 9466.25 171.916 9466.25 171.916L9449.59 158.124C9436.21 147.033 9421.88 147.032 9408.48 158.124L9391.82 171.915C9377.33 183.926 9361.81 183.926 9347.31 171.916C9347.31 171.916 9347.31 171.916 9347.31 171.916L9330.65 158.123Z" fill="#B496FF"/>
<path fill-rule="evenodd" clip-rule="evenodd" d="M9330.65 214.77C9317.26 203.679 9302.93 203.679 9289.54 214.77L9287.84 200.107C9302.34 188.097 9317.86 188.097 9332.35 200.107C9332.35 200.107 9332.35 200.107 9332.35 200.107L9349.01 213.899C9362.41 224.991 9376.74 224.99 9390.12 213.9L9406.78 200.107C9406.78 200.107 9406.78 200.107 9406.78 200.107C9421.28 188.098 9436.8 188.097 9451.3 200.107C9451.3 200.107 9451.3 200.107 9451.3 200.107L9467.96 213.899C9481.35 224.991 9495.68 224.99 9509.07 213.9L9525.73 200.107C9525.73 200.107 9525.73 200.107 9525.73 200.107C9540.23 188.098 9555.75 188.097 9570.24 200.107C9570.24 200.107 9570.24 200.107 9570.24 200.107L9586.9 213.899C9600.29 224.991 9614.63 224.99 9628.01 213.9L9644.67 200.107C9659.17 188.097 9674.69 188.097 9689.19 200.108L9687.48 214.77C9674.1 203.679 9659.77 203.679 9646.37 214.77L9629.71 228.562C9629.71 228.562 9629.72 228.562 9629.71 228.562C9615.22 240.572 9599.7 240.572 9585.2 228.562L9568.54 214.771C9555.16 203.68 9540.82 203.679 9527.43 214.77L9510.77 228.562C9496.28 240.573 9480.76 240.572 9466.25 228.563C9466.25 228.562 9466.25 228.563 9466.25 228.563L9449.59 214.771C9436.21 203.68 9421.88 203.679 9408.48 214.77L9391.82 228.562C9377.33 240.573 9361.81 240.572 9347.31 228.563C9347.31 228.562 9347.31 228.563 9347.31 228.563L9330.65 214.77Z" fill="#B496FF"/>
<path fill-rule="evenodd" clip-rule="evenodd" d="M9330.65 271.416C9317.26 260.326 9302.93 260.325 9289.54 271.417L9287.84 256.754C9302.34 244.744 9317.86 244.743 9332.35 256.754C9332.35 256.754 9332.35 256.753 9332.35 256.754L9349.01 270.546C9362.41 281.637 9376.74 281.637 9390.12 270.546L9406.78 256.754C9406.78 256.754 9406.78 256.754 9406.78 256.754C9421.28 244.744 9436.8 244.743 9451.3 256.754C9451.3 256.754 9451.3 256.753 9451.3 256.754L9467.96 270.546C9481.35 281.637 9495.68 281.637 9509.07 270.546L9525.73 256.754C9525.73 256.754 9525.73 256.754 9525.73 256.754C9540.23 244.744 9555.75 244.743 9570.24 256.754C9570.24 256.754 9570.24 256.753 9570.24 256.754L9586.9 270.546C9600.29 281.637 9614.63 281.637 9628.01 270.546L9644.67 256.754C9659.17 244.744 9674.69 244.743 9689.19 256.754L9687.48 271.416C9674.1 260.326 9659.77 260.325 9646.37 271.417L9629.71 285.208C9629.71 285.209 9629.72 285.208 9629.71 285.208C9615.22 297.219 9599.7 297.219 9585.2 285.209L9568.54 271.417C9555.16 260.326 9540.82 260.325 9527.43 271.417L9510.77 285.208C9496.28 297.219 9480.76 297.219 9466.25 285.209C9466.25 285.209 9466.25 285.209 9466.25 285.209L9449.59 271.417C9436.21 260.326 9421.88 260.325 9408.48 271.417L9391.82 285.208C9377.33 297.219 9361.81 297.219 9347.31 285.209C9347.31 285.209 9347.31 285.209 9347.31 285.209L9330.65 271.416Z" fill="#B496FF"/>
<path fill-rule="evenodd" clip-rule="evenodd" d="M9330.65 328.061C9317.26 316.97 9302.93 316.97 9289.54 328.061L9287.84 313.398C9302.34 301.388 9317.86 301.388 9332.35 313.398C9332.35 313.398 9332.35 313.398 9332.35 313.398L9349.01 327.19C9362.41 338.282 9376.74 338.281 9390.12 327.191L9406.78 313.398C9406.78 313.398 9406.78 313.398 9406.78 313.398C9421.28 301.389 9436.8 301.388 9451.3 313.398C9451.3 313.398 9451.3 313.398 9451.3 313.398L9467.96 327.19C9481.35 338.282 9495.68 338.281 9509.07 327.191L9525.73 313.398C9525.73 313.398 9525.73 313.398 9525.73 313.398C9540.23 301.389 9555.75 301.388 9570.24 313.398C9570.24 313.398 9570.24 313.398 9570.24 313.398L9586.9 327.19C9600.29 338.282 9614.63 338.281 9628.01 327.191L9644.67 313.398C9659.17 301.388 9674.69 301.388 9689.19 313.399L9687.48 328.061C9674.1 316.97 9659.77 316.97 9646.37 328.061L9629.71 341.853C9629.71 341.853 9629.72 341.853 9629.71 341.853C9615.22 353.863 9599.7 353.863 9585.2 341.853L9568.54 328.062C9555.16 316.971 9540.82 316.97 9527.43 328.061L9510.77 341.853C9496.28 353.864 9480.76 353.863 9466.25 341.854C9466.25 341.853 9466.25 341.854 9466.25 341.854L9449.59 328.062C9436.21 316.971 9421.88 316.97 9408.48 328.061L9391.82 341.853C9377.33 353.864 9361.81 353.863 9347.31 341.854C9347.31 341.853 9347.31 341.854 9347.31 341.854L9330.65 328.061Z" fill="#B496FF"/>
<path d="M8400 292.781L8400 -2.21872L8694 -2.21875L8400 292.781Z" fill="#6100C2"/>
</g>
<g clip-path="url(#clip8_1_7081)">
<rect width="1200" height="675" transform="translate(9600 0.78125)" fill="#F4F4EF"/>
<path d="M9891.22 661.559L10192.2 360.554L10493.2 661.559H9891.22Z" fill="#B496FF"/>
<rect x="9600" y="0.78125" width="1184" height="360" fill="#C2F5FF"/>
<circle cx="10191.5" cy="293.281" r="32.5" fill="#393A3D"/>
<line x1="9600" y1="226.454" x2="10784" y2="226.454" stroke="#393A3D" stroke-width="2.65524"/>
<line x1="9600" y1="356.955" x2="10784" y2="356.955" stroke="#393A3D" stroke-width="7.96573"/>
<line x1="9600" y1="499.94" x2="10784" y2="499.94" stroke="#393A3D" stroke-width="13.2762"/>
<line x1="9600" y1="657.488" x2="10784" y2="657.488" stroke="#393A3D" stroke-width="18.5867"/>
<path d="M10349.1 70.6626L10192.2 227.544L10035.3 70.6625L10349.1 70.6626Z" fill="#6100C2"/>
</g>
<g clip-path="url(#clip9_1_7081)">
<rect width="1200" height="675" transform="translate(10800 0.78125)" fill="#F4F4EF"/>
<rect x="10800" y="0.78125" width="660" height="674" fill="#C2F5FF"/>
<rect x="11774" y="0.78125" width="16.1538" height="666" fill="#393A3D"/>
<rect x="11806.3" y="0.78125" width="16.1538" height="666" fill="#393A3D"/>
<rect x="11838.6" y="0.78125" width="16.1538" height="666" fill="#393A3D"/>
<rect x="11870.9" y="0.78125" width="16.1538" height="666" fill="#393A3D"/>
<rect x="11903.2" y="0.78125" width="16.1538" height="666" fill="#393A3D"/>
<rect x="11935.5" y="0.78125" width="16.1538" height="666" fill="#393A3D"/>
<rect x="11967.8" y="0.78125" width="16.1538" height="666" fill="#393A3D"/>
<path d="M11287.1 0.78125C11287.1 273.111 11066.3 493.877 10794 493.877V666.781C11161.8 666.781 11460 368.603 11460 0.78125H11287.1Z" fill="#6100C2"/>
<rect x="11572" y="569.051" width="89.2705" height="89.2705" transform="rotate(-90 11572 569.051)" fill="#B496FF"/>
<rect x="11572" y="442.051" width="89.2705" height="89.2705" transform="rotate(-90 11572 442.051)" fill="#B496FF"/>
<rect x="11572" y="315.051" width="89.2705" height="89.2705" transform="rotate(-90 11572 315.051)" fill="#B496FF"/>
<rect x="11572" y="188.051" width="89.2705" height="89.2705" transform="rotate(-90 11572 188.051)" fill="#B496FF"/>
</g>
<g clip-path="url(#clip10_1_7081)">
<rect width="1200" height="675" transform="translate(12000 0.78125)" fill="#F4F4EF"/>
<rect x="12592" y="0.78125" width="592" height="674" fill="#C2F5FF"/>
<path d="M12887.8 0.672951L12591.9 296.565L12296 0.672951H12887.8Z" fill="#B496FF"/>
<path d="M12296 666.673L12591.9 370.781L12887.8 666.673H12296Z" fill="#B496FF"/>
<path d="M11999.9 37.7802L12295.8 333.672L11999.9 629.564V37.7802Z" fill="#B496FF"/>
<path d="M13183.9 629.564L12888 333.672L13183.9 37.7801L13183.9 629.564Z" fill="#6100C2"/>
<circle cx="12591.5" cy="337.281" r="57.5" fill="#393A3D"/>
<circle cx="12347.5" cy="337.281" r="57.5" fill="#393A3D"/>
<circle cx="12104.5" cy="337.281" r="57.5" fill="#393A3D"/>
</g>
<g clip-path="url(#clip11_1_7081)">
<rect width="1200" height="675" transform="translate(13200 0.78125)" fill="#F4F4EF"/>
<rect x="13988" y="0.78125" width="396" height="674" fill="#C2F5FF"/>
<path fill-rule="evenodd" clip-rule="evenodd" d="M13884.7 -2.95862C13842.9 -37.2834 13798.2 -37.2863 13756.4 -2.95587L13745.3 -97.6478C13794.3 -137.909 13846.8 -137.914 13895.8 -97.6492C13895.8 -97.6489 13895.8 -97.6496 13895.8 -97.6492C13895.8 -97.6482 13895.8 -97.6461 13895.8 -97.6451L13950 -53.1159C13991.8 -18.7854 14036.5 -18.7869 14078.3 -53.1117L14078.3 -53.1159L14132.6 -97.6478C14132.6 -97.6483 14132.6 -97.6473 14132.6 -97.6478C14181.6 -137.908 14234.1 -137.913 14283.1 -97.6492C14283.1 -97.6478 14283.1 -97.6465 14283.1 -97.6451L14337.3 -53.1159C14379.1 -18.7854 14423.8 -18.7869 14465.6 -53.1117L14465.6 -53.1159L14519.9 -97.6478C14519.9 -97.6483 14519.9 -97.6473 14519.9 -97.6478C14568.9 -137.908 14621.3 -137.913 14670.3 -97.6492C14670.3 -97.6479 14670.3 -97.6464 14670.3 -97.6451L14724.6 -53.1159C14766.4 -18.7854 14811.1 -18.7869 14852.9 -53.1117L14852.9 -53.1159L14907.1 -97.6478C14907.1 -97.6483 14907.1 -97.6473 14907.1 -97.6478C14956.2 -137.909 15008.6 -137.913 15057.6 -97.6451L15046.5 -2.95862C15004.8 -37.2834 14960 -37.2863 14918.2 -2.95587L14864 41.5748C14864 41.5762 14864 41.5775 14864 41.5789C14815 81.8433 14762.5 81.839 14713.5 41.5775L14659.3 -2.95444L14659.2 -2.95862C14617.5 -37.2834 14572.7 -37.2863 14530.9 -2.95587L14476.7 41.5748C14476.7 41.5762 14476.7 41.5775 14476.7 41.5789C14427.7 81.8428 14375.2 81.839 14326.2 41.5789C14326.2 41.5785 14326.2 41.5794 14326.2 41.5789L14272 -2.95862C14230.2 -37.2834 14185.5 -37.2863 14143.7 -2.95587L14089.4 41.5748C14089.4 41.5762 14089.4 41.5775 14089.4 41.5789C14040.4 81.8428 13987.9 81.839 13938.9 41.5789C13938.9 41.5785 13938.9 41.5794 13938.9 41.5789L13884.7 -2.95862Z" fill="#6100C2"/>
<path fill-rule="evenodd" clip-rule="evenodd" d="M13884.7 179.946C13842.9 145.621 13798.2 145.618 13756.4 179.948L13745.3 85.2565C13794.3 44.995 13846.8 44.9907 13895.8 85.2551C13895.8 85.2554 13895.8 85.2547 13895.8 85.2551C13895.8 85.2561 13895.8 85.2582 13895.8 85.2592L13950 129.788C13991.8 164.119 14036.5 164.117 14078.3 129.793L14078.3 129.788L14132.6 85.2565C14132.6 85.256 14132.6 85.257 14132.6 85.2565C14181.6 44.9965 14234.1 44.9912 14283.1 85.2551C14283.1 85.2565 14283.1 85.2578 14283.1 85.2592L14337.3 129.788C14379.1 164.119 14423.8 164.117 14465.6 129.793L14465.6 129.788L14519.9 85.2565C14519.9 85.256 14519.9 85.257 14519.9 85.2565C14568.9 44.9964 14621.3 44.9912 14670.3 85.2551C14670.3 85.2564 14670.3 85.2578 14670.3 85.2592L14724.6 129.788C14766.4 164.119 14811.1 164.117 14852.9 129.793L14852.9 129.788L14907.1 85.2565C14907.1 85.256 14907.1 85.257 14907.1 85.2565C14956.2 44.995 15008.6 44.9912 15057.6 85.2592L15046.5 179.946C15004.8 145.621 14960 145.618 14918.2 179.948L14864 224.479C14864 224.48 14864 224.482 14864 224.483C14815 264.748 14762.5 264.743 14713.5 224.482L14659.3 179.95L14659.2 179.946C14617.5 145.621 14572.7 145.618 14530.9 179.948L14476.7 224.479C14476.7 224.48 14476.7 224.482 14476.7 224.483C14427.7 264.747 14375.2 264.743 14326.2 224.483C14326.2 224.483 14326.2 224.484 14326.2 224.483L14272 179.946C14230.2 145.621 14185.5 145.618 14143.7 179.948L14089.4 224.479C14089.4 224.48 14089.4 224.482 14089.4 224.483C14040.4 264.747 13987.9 264.743 13938.9 224.483C13938.9 224.483 13938.9 224.484 13938.9 224.483L13884.7 179.946Z" fill="#6100C2"/>
<path fill-rule="evenodd" clip-rule="evenodd" d="M13884.7 362.85C13842.9 328.525 13798.2 328.522 13756.4 362.853L13745.3 268.161C13794.3 227.899 13846.8 227.895 13895.8 268.159C13895.8 268.16 13895.8 268.159 13895.8 268.159C13895.8 268.16 13895.8 268.162 13895.8 268.164L13950 312.693C13991.8 347.023 14036.5 347.022 14078.3 312.697L14078.3 312.693L14132.6 268.161C14132.6 268.16 14132.6 268.161 14132.6 268.161C14181.6 227.901 14234.1 227.896 14283.1 268.159C14283.1 268.161 14283.1 268.162 14283.1 268.164L14337.3 312.693C14379.1 347.023 14423.8 347.022 14465.6 312.697L14465.6 312.693L14519.9 268.161C14519.9 268.16 14519.9 268.161 14519.9 268.161C14568.9 227.901 14621.3 227.895 14670.3 268.159C14670.3 268.161 14670.3 268.162 14670.3 268.164L14724.6 312.693C14766.4 347.023 14811.1 347.022 14852.9 312.697L14852.9 312.693L14907.1 268.161C14907.1 268.16 14907.1 268.161 14907.1 268.161C14956.2 227.899 15008.6 227.896 15057.6 268.164L15046.5 362.85C15004.8 328.525 14960 328.522 14918.2 362.853L14864 407.383C14864 407.385 14864 407.386 14864 407.388C14815 447.652 14762.5 447.648 14713.5 407.386L14659.3 362.854L14659.2 362.85C14617.5 328.525 14572.7 328.522 14530.9 362.853L14476.7 407.383C14476.7 407.385 14476.7 407.386 14476.7 407.388C14427.7 447.651 14375.2 447.648 14326.2 407.388C14326.2 407.387 14326.2 407.388 14326.2 407.388L14272 362.85C14230.2 328.525 14185.5 328.522 14143.7 362.853L14089.4 407.383C14089.4 407.385 14089.4 407.386 14089.4 407.388C14040.4 447.651 13987.9 447.648 13938.9 407.388C13938.9 407.387 13938.9 407.388 13938.9 407.388L13884.7 362.85Z" fill="#6100C2"/>
<path fill-rule="evenodd" clip-rule="evenodd" d="M13884.7 545.756C13842.9 511.431 13798.2 511.429 13756.4 545.759L13745.3 451.067C13794.3 410.806 13846.8 410.801 13895.8 451.066C13895.8 451.066 13895.8 451.065 13895.8 451.066C13895.8 451.067 13895.8 451.069 13895.8 451.07L13950 495.599C13991.8 529.929 14036.5 529.928 14078.3 495.603L14078.3 495.599L14132.6 451.067C14132.6 451.067 14132.6 451.068 14132.6 451.067C14181.6 410.807 14234.1 410.802 14283.1 451.066C14283.1 451.067 14283.1 451.068 14283.1 451.07L14337.3 495.599C14379.1 529.929 14423.8 529.928 14465.6 495.603L14465.6 495.599L14519.9 451.067C14519.9 451.067 14519.9 451.068 14519.9 451.067C14568.9 410.807 14621.3 410.802 14670.3 451.066C14670.3 451.067 14670.3 451.068 14670.3 451.07L14724.6 495.599C14766.4 529.929 14811.1 529.928 14852.9 495.603L14852.9 495.599L14907.1 451.067C14907.1 451.067 14907.1 451.068 14907.1 451.067C14956.2 410.806 15008.6 410.802 15057.6 451.07L15046.5 545.756C15004.8 511.431 14960 511.429 14918.2 545.759L14864 590.29C14864 590.291 14864 590.292 14864 590.294C14815 630.558 14762.5 630.554 14713.5 590.292L14659.3 545.76L14659.2 545.756C14617.5 511.431 14572.7 511.429 14530.9 545.759L14476.7 590.29C14476.7 590.291 14476.7 590.292 14476.7 590.294C14427.7 630.558 14375.2 630.554 14326.2 590.294C14326.2 590.293 14326.2 590.294 14326.2 590.294L14272 545.756C14230.2 511.431 14185.5 511.429 14143.7 545.759L14089.4 590.29C14089.4 590.291 14089.4 590.292 14089.4 590.294C14040.4 630.558 13987.9 630.554 13938.9 590.294C13938.9 590.293 13938.9 590.294 13938.9 590.294L13884.7 545.756Z" fill="#6100C2"/>
<path fill-rule="evenodd" clip-rule="evenodd" d="M13884.7 728.661C13842.9 694.336 13798.2 694.333 13756.4 728.663L13745.3 633.971C13794.3 593.71 13846.8 593.706 13895.8 633.97C13895.8 633.97 13895.8 633.97 13895.8 633.97C13895.8 633.971 13895.8 633.973 13895.8 633.974L13950 678.503C13991.8 712.834 14036.5 712.832 14078.3 678.507L14078.3 678.503L14132.6 633.971C14132.6 633.971 14132.6 633.972 14132.6 633.971C14181.6 593.711 14234.1 593.706 14283.1 633.97C14283.1 633.971 14283.1 633.973 14283.1 633.974L14337.3 678.503C14379.1 712.834 14423.8 712.832 14465.6 678.507L14465.6 678.503L14519.9 633.971C14519.9 633.971 14519.9 633.972 14519.9 633.971C14568.9 593.711 14621.3 593.706 14670.3 633.97C14670.3 633.971 14670.3 633.973 14670.3 633.974L14724.6 678.503C14766.4 712.834 14811.1 712.832 14852.9 678.507L14852.9 678.503L14907.1 633.971C14907.1 633.971 14907.1 633.972 14907.1 633.971C14956.2 593.71 15008.6 593.706 15057.6 633.974L15046.5 728.661C15004.8 694.336 14960 694.333 14918.2 728.663L14864 773.194C14864 773.195 14864 773.197 14864 773.198C14815 813.462 14762.5 813.458 14713.5 773.197L14659.3 728.665L14659.2 728.661C14617.5 694.336 14572.7 694.333 14530.9 728.663L14476.7 773.194C14476.7 773.195 14476.7 773.197 14476.7 773.198C14427.7 813.462 14375.2 813.458 14326.2 773.198C14326.2 773.198 14326.2 773.199 14326.2 773.198L14272 728.661C14230.2 694.336 14185.5 694.333 14143.7 728.663L14089.4 773.194C14089.4 773.195 14089.4 773.197 14089.4 773.198C14040.4 813.462 13987.9 813.458 13938.9 773.198C13938.9 773.198 13938.9 773.199 13938.9 773.198L13884.7 728.661Z" fill="#6100C2"/>
<ellipse cx="13584.5" cy="333.781" rx="30.5" ry="31" fill="#393A3D"/>
<path d="M13199.9 37.7802L13495.8 333.672L13199.9 629.564V37.7802Z" fill="#B496FF"/>
</g>
<g clip-path="url(#clip12_1_7081)">
<rect width="1200" height="675" transform="translate(14400 0.78125)" fill="#F4F4EF"/>
<rect x="14400" y="1.25" width="1244.97" height="27.1021" fill="#393A3D"/>
<rect x="14400" y="55.4551" width="1244.97" height="27.1021" fill="#393A3D"/>
<rect x="14400" y="109.658" width="1244.97" height="27.1021" fill="#393A3D"/>
<rect x="14400" y="163.861" width="1244.97" height="27.1021" fill="#393A3D"/>
<rect x="14400" y="190.781" width="1184" height="484" fill="#C2F5FF"/>
<rect x="14757" y="481.781" width="89.2705" height="89.2705" fill="#6100C2"/>
<rect x="14884" y="481.781" width="89.2705" height="89.2705" fill="#B496FF"/>
<rect x="15011" y="481.781" width="89.2705" height="89.2705" fill="#B496FF"/>
<rect x="15138" y="481.781" width="89.2705" height="89.2705" fill="#6100C2"/>
<path d="M15149.1 279.663L14992.2 436.544L14835.3 279.663L15149.1 279.663Z" fill="#6100C2"/>
</g>
<g clip-path="url(#clip13_1_7081)">
<rect width="1200" height="675" transform="translate(15600 0.78125)" fill="#F4F4EF"/>
<rect x="15600" y="0.78125" width="592" height="674" fill="#C2F5FF"/>
<path fill-rule="evenodd" clip-rule="evenodd" d="M15936.9 238.553C15914.6 228.77 15890.7 228.77 15868.4 238.553L15865.5 225.619C15889.7 215.026 15915.6 215.025 15939.7 225.619C15939.7 225.619 15939.7 225.619 15939.7 225.619L15967.5 237.784C15989.8 247.568 16013.7 247.568 16036 237.785L16063.8 225.619C16063.8 225.619 16063.8 225.619 16063.8 225.619C16088 215.026 16113.8 215.025 16138 225.619C16138 225.619 16138 225.619 16138 225.619L16165.7 237.784C16188.1 247.568 16211.9 247.568 16234.3 237.785L16262 225.619C16262 225.619 16262 225.619 16262 225.619C16286.2 215.026 16312.1 215.025 16336.2 225.619C16336.2 225.619 16336.2 225.619 16336.2 225.619L16364 237.784C16386.3 247.568 16410.2 247.568 16432.5 237.785L16460.3 225.619C16484.4 215.026 16510.3 215.025 16534.5 225.62L16531.6 238.553C16509.3 228.77 16485.4 228.77 16463.1 238.553L16435.3 250.718C16435.3 250.718 16435.3 250.718 16435.3 250.718C16411.2 261.312 16385.3 261.312 16361.1 250.718L16333.4 238.553C16311.1 228.771 16287.2 228.77 16264.9 238.553L16237.1 250.718C16212.9 261.312 16187.1 261.312 16162.9 250.719C16162.9 250.718 16162.9 250.719 16162.9 250.719L16135.1 238.553C16112.8 228.771 16088.9 228.77 16066.6 238.553L16038.9 250.718C16014.7 261.312 15988.8 261.312 15964.7 250.719C15964.7 250.718 15964.7 250.719 15964.7 250.719L15936.9 238.553Z" fill="#393A3D"/>
<path fill-rule="evenodd" clip-rule="evenodd" d="M15936.9 288.517C15914.6 278.735 15890.7 278.734 15868.4 288.518L15865.5 275.584C15889.7 264.991 15915.6 264.99 15939.7 275.584C15939.7 275.584 15939.7 275.584 15939.7 275.584L15967.5 287.749C15989.8 297.533 16013.7 297.532 16036 287.75L16063.8 275.584C16063.8 275.584 16063.8 275.584 16063.8 275.584C16088 264.991 16113.8 264.99 16138 275.584C16138 275.584 16138 275.584 16138 275.584L16165.7 287.749C16188.1 297.533 16211.9 297.532 16234.3 287.75L16262 275.584C16262 275.584 16262 275.584 16262 275.584C16286.2 264.991 16312.1 264.99 16336.2 275.584C16336.2 275.584 16336.2 275.584 16336.2 275.584L16364 287.749C16386.3 297.533 16410.2 297.532 16432.5 287.75L16460.3 275.584C16484.4 264.99 16510.3 264.99 16534.5 275.584L16531.6 288.517C16509.3 278.735 16485.4 278.734 16463.1 288.518L16435.3 300.683C16435.3 300.683 16435.3 300.683 16435.3 300.683C16411.2 311.277 16385.3 311.277 16361.1 300.683L16333.4 288.518C16311.1 278.735 16287.2 278.734 16264.9 288.518L16237.1 300.683C16212.9 311.277 16187.1 311.277 16162.9 300.683C16162.9 300.683 16162.9 300.683 16162.9 300.683L16135.1 288.518C16112.8 278.735 16088.9 278.734 16066.6 288.518L16038.9 300.683C16014.7 311.277 15988.8 311.277 15964.7 300.683C15964.7 300.683 15964.7 300.683 15964.7 300.683L15936.9 288.517Z" fill="#393A3D"/>
<path fill-rule="evenodd" clip-rule="evenodd" d="M15936.9 338.482C15914.6 328.7 15890.7 328.699 15868.4 338.483L15865.5 325.549C15889.7 314.955 15915.6 314.955 15939.7 325.549C15939.7 325.549 15939.7 325.548 15939.7 325.549L15967.5 337.714C15989.8 347.497 16013.7 347.497 16036 337.715L16063.8 325.549C16063.8 325.549 16063.8 325.549 16063.8 325.549C16088 314.956 16113.8 314.955 16138 325.549C16138 325.549 16138 325.548 16138 325.549L16165.7 337.714C16188.1 347.497 16211.9 347.497 16234.3 337.715L16262 325.549C16262 325.549 16262 325.549 16262 325.549C16286.2 314.956 16312.1 314.955 16336.2 325.549C16336.2 325.549 16336.2 325.548 16336.2 325.549L16364 337.714C16386.3 347.497 16410.2 347.497 16432.5 337.715L16460.3 325.549C16484.4 314.955 16510.3 314.955 16534.5 325.549L16531.6 338.482C16509.3 328.7 16485.4 328.699 16463.1 338.483L16435.3 350.648C16435.3 350.648 16435.3 350.647 16435.3 350.648C16411.2 361.242 16385.3 361.242 16361.1 350.648L16333.4 338.483C16311.1 328.7 16287.2 328.699 16264.9 338.483L16237.1 350.648C16212.9 361.242 16187.1 361.242 16162.9 350.648C16162.9 350.648 16162.9 350.648 16162.9 350.648L16135.1 338.483C16112.8 328.7 16088.9 328.699 16066.6 338.483L16038.9 350.648C16014.7 361.242 15988.8 361.242 15964.7 350.648C15964.7 350.648 15964.7 350.648 15964.7 350.648L15936.9 338.482Z" fill="#393A3D"/>
<path fill-rule="evenodd" clip-rule="evenodd" d="M15936.9 388.553C15914.6 378.77 15890.7 378.77 15868.4 388.553L15865.5 375.619C15889.7 365.026 15915.6 365.025 15939.7 375.619C15939.7 375.619 15939.7 375.619 15939.7 375.619L15967.5 387.784C15989.8 397.568 16013.7 397.568 16036 387.785L16063.8 375.619C16063.8 375.619 16063.8 375.619 16063.8 375.619C16088 365.026 16113.8 365.025 16138 375.619C16138 375.619 16138 375.619 16138 375.619L16165.7 387.784C16188.1 397.568 16211.9 397.568 16234.3 387.785L16262 375.619C16262 375.619 16262 375.619 16262 375.619C16286.2 365.026 16312.1 365.025 16336.2 375.619C16336.2 375.619 16336.2 375.619 16336.2 375.619L16364 387.784C16386.3 397.568 16410.2 397.568 16432.5 387.785L16460.3 375.619C16484.4 365.026 16510.3 365.025 16534.5 375.62L16531.6 388.553C16509.3 378.77 16485.4 378.77 16463.1 388.553L16435.3 400.718C16435.3 400.718 16435.3 400.718 16435.3 400.718C16411.2 411.312 16385.3 411.312 16361.1 400.718L16333.4 388.553C16311.1 378.771 16287.2 378.77 16264.9 388.553L16237.1 400.718C16212.9 411.312 16187.1 411.312 16162.9 400.719C16162.9 400.718 16162.9 400.719 16162.9 400.719L16135.1 388.553C16112.8 378.771 16088.9 378.77 16066.6 388.553L16038.9 400.718C16014.7 411.312 15988.8 411.312 15964.7 400.719C15964.7 400.718 15964.7 400.719 15964.7 400.719L15936.9 388.553Z" fill="#393A3D"/>
<path fill-rule="evenodd" clip-rule="evenodd" d="M15936.9 438.412C15914.6 428.629 15890.7 428.629 15868.4 438.412L15865.5 425.479C15889.7 414.885 15915.6 414.884 15939.7 425.478C15939.7 425.479 15939.7 425.478 15939.7 425.478L15967.5 437.644C15989.8 447.427 16013.7 447.427 16036 437.644L16063.8 425.479C16063.8 425.478 16063.8 425.479 16063.8 425.479C16088 414.885 16113.8 414.885 16138 425.478C16138 425.479 16138 425.478 16138 425.478L16165.7 437.644C16188.1 447.427 16211.9 447.427 16234.3 437.644L16262 425.479C16262 425.478 16262 425.479 16262 425.479C16286.2 414.885 16312.1 414.885 16336.2 425.478C16336.2 425.479 16336.2 425.478 16336.2 425.478L16364 437.644C16386.3 447.427 16410.2 447.427 16432.5 437.644L16460.3 425.479C16484.4 414.885 16510.3 414.884 16534.5 425.479L16531.6 438.412C16509.3 428.629 16485.4 428.629 16463.1 438.412L16435.3 450.577C16435.3 450.578 16435.3 450.577 16435.3 450.577C16411.2 461.171 16385.3 461.171 16361.1 450.578L16333.4 438.413C16311.1 428.63 16287.2 428.629 16264.9 438.412L16237.1 450.577C16212.9 461.172 16187.1 461.171 16162.9 450.578C16162.9 450.578 16162.9 450.578 16162.9 450.578L16135.1 438.413C16112.8 428.63 16088.9 428.629 16066.6 438.412L16038.9 450.577C16014.7 461.172 15988.8 461.171 15964.7 450.578C15964.7 450.578 15964.7 450.578 15964.7 450.578L15936.9 438.412Z" fill="#393A3D"/>
<circle cx="16192.5" cy="544.281" r="57.5" fill="#B496FF"/>
<circle cx="16192.5" cy="123.281" r="57.5" fill="#6100C2"/>
</g>
<g clip-path="url(#clip14_1_7081)">
<rect width="1200" height="675" transform="translate(16800 0.78125)" fill="#F4F4EF"/>
<rect x="17880" y="0.78125" width="123" height="674" fill="#C2F5FF"/>
<ellipse cx="16980.5" cy="339.281" rx="488.5" ry="471.5" fill="#C2F5FF"/>
<path d="M17631 339.281L18023.2 111.084L18023.2 567.479L17631 339.281Z" fill="#6100C2"/>
<path fill-rule="evenodd" clip-rule="evenodd" d="M16570.8 179.107C16544.9 163.46 16517.1 163.46 16491.1 179.107L16487.8 158.421C16515.9 141.477 16546 141.476 16574.1 158.421C16574.1 158.421 16574.1 158.42 16574.1 158.421L16606.4 177.878C16632.4 193.526 16660.2 193.525 16686.1 177.879L16718.4 158.421C16718.4 158.421 16718.4 158.421 16718.4 158.421C16746.5 141.478 16776.6 141.477 16804.7 158.421C16804.7 158.421 16804.7 158.42 16804.7 158.421L16837 177.878C16862.9 193.526 16890.7 193.525 16916.7 177.879L16949 158.421C16949 158.421 16949 158.421 16949 158.421C16977.1 141.478 17007.2 141.477 17035.3 158.421C17035.3 158.421 17035.3 158.42 17035.3 158.421L17067.5 177.878C17093.5 193.526 17121.3 193.525 17147.2 177.879L17179.5 158.421C17207.6 141.477 17237.7 141.476 17265.8 158.421L17262.5 179.107C17236.6 163.46 17208.8 163.46 17182.8 179.107L17150.5 198.564C17150.5 198.565 17150.5 198.564 17150.5 198.564C17122.4 215.508 17092.4 215.508 17064.2 198.565L17032 179.108C17006 163.461 16978.2 163.46 16952.3 179.107L16920 198.564C16891.9 215.509 16861.8 215.509 16833.7 198.565C16833.7 198.565 16833.7 198.565 16833.7 198.565L16801.4 179.108C16775.4 163.461 16747.7 163.46 16721.7 179.107L16689.4 198.564C16661.3 215.509 16631.2 215.509 16603.1 198.565C16603.1 198.565 16603.1 198.565 16603.1 198.565L16570.8 179.107Z" fill="#393A3D"/>
<path fill-rule="evenodd" clip-rule="evenodd" d="M16570.8 259.021C16544.9 243.374 16517.1 243.374 16491.1 259.021L16487.8 238.335C16515.9 221.391 16546 221.391 16574.1 238.335C16574.1 238.335 16574.1 238.334 16574.1 238.335L16606.4 257.792C16632.4 273.44 16660.2 273.44 16686.1 257.793L16718.4 238.335C16718.4 238.335 16718.4 238.335 16718.4 238.335C16746.5 221.392 16776.6 221.391 16804.7 238.335C16804.7 238.335 16804.7 238.334 16804.7 238.335L16837 257.792C16862.9 273.44 16890.7 273.44 16916.7 257.793L16949 238.335C16949 238.335 16949 238.335 16949 238.335C16977.1 221.392 17007.2 221.391 17035.3 238.335C17035.3 238.335 17035.3 238.334 17035.3 238.335L17067.5 257.792C17093.5 273.44 17121.3 273.44 17147.2 257.793L17179.5 238.335C17207.6 221.391 17237.7 221.391 17265.8 238.335L17262.5 259.021C17236.6 243.374 17208.8 243.374 17182.8 259.021L17150.5 278.478C17150.5 278.479 17150.5 278.478 17150.5 278.478C17122.4 295.422 17092.4 295.422 17064.2 278.479L17032 259.022C17006 243.375 16978.2 243.374 16952.3 259.021L16920 278.478C16891.9 295.423 16861.8 295.423 16833.7 278.479C16833.7 278.479 16833.7 278.479 16833.7 278.479L16801.4 259.022C16775.4 243.375 16747.7 243.374 16721.7 259.021L16689.4 278.478C16661.3 295.423 16631.2 295.423 16603.1 278.479C16603.1 278.479 16603.1 278.479 16603.1 278.479L16570.8 259.021Z" fill="#393A3D"/>
<path fill-rule="evenodd" clip-rule="evenodd" d="M16570.8 338.937C16544.9 323.29 16517.1 323.29 16491.1 338.937L16487.8 318.251C16515.9 301.308 16546 301.307 16574.1 318.251C16574.1 318.251 16574.1 318.25 16574.1 318.251L16606.4 337.708C16632.4 353.356 16660.2 353.356 16686.1 337.709L16718.4 318.251C16718.4 318.251 16718.4 318.251 16718.4 318.251C16746.5 301.308 16776.6 301.307 16804.7 318.251C16804.7 318.251 16804.7 318.25 16804.7 318.251L16837 337.708C16862.9 353.356 16890.7 353.356 16916.7 337.709L16949 318.251C16949 318.251 16949 318.251 16949 318.251C16977.1 301.308 17007.2 301.307 17035.3 318.251C17035.3 318.251 17035.3 318.25 17035.3 318.251L17067.5 337.708C17093.5 353.356 17121.3 353.356 17147.2 337.709L17179.5 318.251C17207.6 301.307 17237.7 301.307 17265.8 318.252L17262.5 338.937C17236.6 323.29 17208.8 323.29 17182.8 338.937L17150.5 358.394C17150.5 358.395 17150.5 358.394 17150.5 358.394C17122.4 375.338 17092.4 375.338 17064.2 358.395L17032 338.938C17006 323.291 16978.2 323.29 16952.3 338.937L16920 358.394C16891.9 375.339 16861.8 375.339 16833.7 358.395C16833.7 358.395 16833.7 358.395 16833.7 358.395L16801.4 338.938C16775.4 323.291 16747.7 323.29 16721.7 338.937L16689.4 358.394C16661.3 375.339 16631.2 375.339 16603.1 358.395C16603.1 358.395 16603.1 358.395 16603.1 358.395L16570.8 338.937Z" fill="#393A3D"/>
<path fill-rule="evenodd" clip-rule="evenodd" d="M16570.8 418.851C16544.9 403.204 16517.1 403.204 16491.1 418.851L16487.8 398.165C16515.9 381.222 16546 381.221 16574.1 398.165C16574.1 398.165 16574.1 398.164 16574.1 398.165L16606.4 417.622C16632.4 433.27 16660.2 433.27 16686.1 417.623L16718.4 398.165C16718.4 398.165 16718.4 398.165 16718.4 398.165C16746.5 381.222 16776.6 381.221 16804.7 398.165C16804.7 398.165 16804.7 398.164 16804.7 398.165L16837 417.622C16862.9 433.27 16890.7 433.27 16916.7 417.623L16949 398.165C16949 398.165 16949 398.165 16949 398.165C16977.1 381.222 17007.2 381.221 17035.3 398.165C17035.3 398.165 17035.3 398.164 17035.3 398.165L17067.5 417.622C17093.5 433.27 17121.3 433.27 17147.2 417.623L17179.5 398.165C17207.6 381.221 17237.7 381.221 17265.8 398.166L17262.5 418.851C17236.6 403.204 17208.8 403.204 17182.8 418.851L17150.5 438.308C17150.5 438.309 17150.5 438.308 17150.5 438.308C17122.4 455.252 17092.4 455.252 17064.2 438.309L17032 418.852C17006 403.205 16978.2 403.204 16952.3 418.851L16920 438.308C16891.9 455.253 16861.8 455.253 16833.7 438.309C16833.7 438.309 16833.7 438.309 16833.7 438.309L16801.4 418.852C16775.4 403.205 16747.7 403.204 16721.7 418.851L16689.4 438.308C16661.3 455.253 16631.2 455.253 16603.1 438.309C16603.1 438.309 16603.1 438.309 16603.1 438.309L16570.8 418.851Z" fill="#393A3D"/>
<path fill-rule="evenodd" clip-rule="evenodd" d="M16570.8 498.767C16544.9 483.12 16517.1 483.12 16491.1 498.767L16487.8 478.081C16515.9 461.138 16546 461.137 16574.1 478.081C16574.1 478.081 16574.1 478.08 16574.1 478.081L16606.4 497.538C16632.4 513.186 16660.2 513.186 16686.1 497.539L16718.4 478.081C16718.4 478.081 16718.4 478.081 16718.4 478.081C16746.5 461.138 16776.6 461.137 16804.7 478.081C16804.7 478.081 16804.7 478.08 16804.7 478.081L16837 497.538C16862.9 513.186 16890.7 513.186 16916.7 497.539L16949 478.081C16949 478.081 16949 478.081 16949 478.081C16977.1 461.138 17007.2 461.137 17035.3 478.081C17035.3 478.081 17035.3 478.08 17035.3 478.081L17067.5 497.538C17093.5 513.186 17121.3 513.186 17147.2 497.539L17179.5 478.081C17207.6 461.137 17237.7 461.137 17265.8 478.082L17262.5 498.767C17236.6 483.12 17208.8 483.12 17182.8 498.767L17150.5 518.224C17150.5 518.225 17150.5 518.224 17150.5 518.224C17122.4 535.168 17092.4 535.168 17064.2 518.225L17032 498.768C17006 483.121 16978.2 483.12 16952.3 498.767L16920 518.224C16891.9 535.169 16861.8 535.169 16833.7 518.225C16833.7 518.225 16833.7 518.225 16833.7 518.225L16801.4 498.768C16775.4 483.121 16747.7 483.12 16721.7 498.767L16689.4 518.224C16661.3 535.169 16631.2 535.169 16603.1 518.225C16603.1 518.225 16603.1 518.225 16603.1 518.225L16570.8 498.767Z" fill="#393A3D"/>
<circle cx="33.3529" cy="33.3529" r="33.3529" transform="matrix(1 0 0 -1 17344 368.486)" fill="#6100C2"/>
<circle cx="33.3529" cy="33.3529" r="33.3529" transform="matrix(1 0 0 -1 17501.8 368.486)" fill="#B496FF"/>
<circle cx="33.3529" cy="33.3529" r="33.3529" transform="matrix(1 0 0 -1 17709.3 368.486)" fill="#B496FF"/>
<circle cx="33.3529" cy="33.3529" r="33.3529" transform="matrix(1 0 0 -1 17813.1 368.486)" fill="#B496FF"/>
<circle cx="33.3529" cy="33.3529" r="33.3529" transform="matrix(1 0 0 -1 17916.8 368.486)" fill="#B496FF"/>
</g>
<g clip-path="url(#clip15_1_7081)">
<rect width="1200" height="675" transform="translate(18000 0.78125)" fill="#F4F4EF"/>
<rect x="18000" y="0.78125" width="592" height="674" fill="#C2F5FF"/>
<path fill-rule="evenodd" clip-rule="evenodd" d="M18092.6 832.888C18230.4 832.888 18342.1 721.159 18342.1 583.335C18342.1 445.51 18230.4 333.781 18092.6 333.781C17954.7 333.781 17843 445.51 17843 583.335C17843 721.159 17954.7 832.888 18092.6 832.888ZM18092.6 735.024C18176.3 735.024 18244.2 667.11 18244.2 583.335C18244.2 499.559 18176.3 431.645 18092.6 431.645C18008.8 431.645 17940.9 499.559 17940.9 583.335C17940.9 667.11 18008.8 735.024 18092.6 735.024Z" fill="#B496FF"/>
<path fill-rule="evenodd" clip-rule="evenodd" d="M18591.6 333.888C18729.4 333.888 18841.1 222.159 18841.1 84.3346C18841.1 -53.4898 18729.4 -165.219 18591.6 -165.219C18453.7 -165.219 18342 -53.4898 18342 84.3346C18342 222.159 18453.7 333.888 18591.6 333.888ZM18591.6 236.024C18675.3 236.024 18743.2 168.11 18743.2 84.3346C18743.2 0.558819 18675.3 -67.3547 18591.6 -67.3547C18507.8 -67.3547 18439.9 0.558819 18439.9 84.3346C18439.9 168.11 18507.8 236.024 18591.6 236.024Z" fill="#6100C2"/>
<path fill-rule="evenodd" clip-rule="evenodd" d="M19090.6 829.888C19228.4 829.888 19340.1 718.159 19340.1 580.335C19340.1 442.51 19228.4 330.781 19090.6 330.781C18952.7 330.781 18841 442.51 18841 580.335C18841 718.159 18952.7 829.888 19090.6 829.888ZM19090.6 732.024C19174.3 732.024 19242.2 664.11 19242.2 580.335C19242.2 496.559 19174.3 428.645 19090.6 428.645C19006.8 428.645 18938.9 496.559 18938.9 580.335C18938.9 664.11 19006.8 732.024 19090.6 732.024Z" fill="#6100C2"/>
<path d="M18592.5 588.781L18501.1 431.281L18683.9 431.281L18592.5 588.781Z" fill="#393A3D"/>
</g>
<g clip-path="url(#clip16_1_7081)">
<rect width="1200" height="675" transform="translate(19200 0.78125)" fill="#F4F4EF"/>
<rect x="19200" y="0.78125" width="566" height="674" fill="#C2F5FF"/>
<rect x="20251" y="124.418" width="418.454" height="418.454" fill="#B496FF"/>
<rect x="19200" y="124.781" width="418.454" height="418.454" fill="#6100C2"/>
<path fill-rule="evenodd" clip-rule="evenodd" d="M19408.5 456.781C19340.8 456.781 19286 401.936 19286 334.281C19286 266.626 19340.8 211.781 19408.5 211.781C19476.2 211.781 19531 266.626 19531 334.281C19531 401.936 19476.2 456.781 19408.5 456.781ZM19408.5 408.742C19367.4 408.742 19334 375.405 19334 334.281C19334 293.158 19367.4 259.82 19408.5 259.82C19449.6 259.82 19483 293.158 19483 334.281C19483 375.405 19449.6 408.742 19408.5 408.742Z" fill="#B496FF"/>
<rect x="19766" y="239.781" width="188" height="188" fill="#6100C2"/>
<rect x="19954" y="124.781" width="115" height="115" fill="#B496FF"/>
<rect x="19897" y="67.7812" width="57" height="57" fill="#393A3D"/>
<rect x="19618" y="542.781" width="57" height="57" fill="#B496FF"/>
<rect x="19675" y="509.781" width="33" height="33" fill="#393A3D"/>
<circle cx="20250.5" cy="333.281" r="57.5" fill="#6100C2"/>
</g>
<g clip-path="url(#clip17_1_7081)">
<rect width="1200" height="675" transform="translate(20400 0.78125)" fill="#F4F4EF"/>
<rect x="20926" y="0.78125" width="658" height="674" fill="#C2F5FF"/>
<path d="M20799.4 334.099L20379.8 578.159L20379.8 90.0394L20799.4 334.099Z" fill="#6100C2"/>
<path d="M21123 334.281L20925.7 449.03L20925.7 219.533L21123 334.281Z" fill="#B496FF"/>
<path d="M21255 334.281L21057.7 449.03L21057.7 219.533L21255 334.281Z" fill="#6100C2"/>
<path d="M21387 334.281L21189.7 449.03L21189.7 219.533L21387 334.281Z" fill="#6100C2"/>
<path d="M21519 334.281L21321.7 449.03L21321.7 219.533L21519 334.281Z" fill="#6100C2"/>
</g>
<g clip-path="url(#clip18_1_7081)">
<rect width="1200" height="675" transform="translate(21600 0.78125)" fill="#F4F4EF"/>
<rect x="21600" y="0.78125" width="423" height="674" fill="#C2F5FF"/>
<rect x="22530" y="0.78125" width="254" height="674" fill="#C2F5FF"/>
<rect x="21600" y="667.24" width="423.459" height="84.6919" transform="rotate(-90 21600 667.24)" fill="#6100C2"/>
<rect x="21769.4" y="667.24" width="423.459" height="84.6919" transform="rotate(-90 21769.4 667.24)" fill="#B496FF"/>
<rect x="21938.8" y="667.24" width="423.459" height="84.6919" transform="rotate(-90 21938.8 667.24)" fill="#6100C2"/>
<rect x="22023" y="243.781" width="243" height="50.7327" transform="rotate(-90 22023 243.781)" fill="#B496FF"/>
<rect x="22124.5" y="243.781" width="243" height="50.7327" transform="rotate(-90 22124.5 243.781)" fill="#B496FF"/>
<rect x="22225.9" y="243.781" width="243" height="50.7327" transform="rotate(-90 22225.9 243.781)" fill="#B496FF"/>
<rect x="22327.4" y="243.781" width="243" height="50.7327" transform="rotate(-90 22327.4 243.781)" fill="#393A3D"/>
<rect x="22428.9" y="243.781" width="243" height="50.7327" transform="rotate(-90 22428.9 243.781)" fill="#393A3D"/>
<rect x="22530.3" y="243.781" width="243" height="50.7327" transform="rotate(-90 22530.3 243.781)" fill="#B496FF"/>
<rect x="22631.8" y="243.781" width="243" height="50.7327" transform="rotate(-90 22631.8 243.781)" fill="#B496FF"/>
<rect x="22733.3" y="243.781" width="243" height="50.7327" transform="rotate(-90 22733.3 243.781)" fill="#B496FF"/>
<circle cx="22377.5" cy="455.281" r="57.5" fill="#393A3D"/>
<path d="M22378.4 282.781C22282.6 282.781 22205 360.406 22205 456.162C22205 551.917 22282.6 629.543 22378.4 629.543L22378.4 561.55C22320.2 561.55 22273 514.366 22273 456.162C22273 397.958 22320.2 350.774 22378.4 350.774L22378.4 282.781Z" fill="#6100C2"/>
</g>
<g clip-path="url(#clip19_1_7081)">
<rect width="1200" height="675" transform="translate(22800 0.78125)" fill="#F4F4EF"/>
<rect x="22800" y="0.78125" width="1184" height="334" fill="#C2F5FF"/>
<circle cx="22971.1" cy="333.922" r="54.1408" fill="#B496FF"/>
<circle cx="23139.6" cy="333.922" r="54.1408" fill="#B496FF"/>
<circle cx="23308" cy="333.922" r="54.1408" fill="#6100C2"/>
<circle cx="23476.5" cy="333.922" r="54.1408" fill="#6100C2"/>
<circle cx="23644.9" cy="333.922" r="54.1408" fill="#B496FF"/>
<circle cx="23813.3" cy="333.922" r="54.1408" fill="#B496FF"/>
<path fill-rule="evenodd" clip-rule="evenodd" d="M23559 524.647C23574.7 498.705 23574.7 470.924 23559 444.962L23579.7 441.66C23596.6 469.772 23596.7 499.855 23579.7 527.95C23579.7 527.951 23579.7 527.95 23579.7 527.95L23560.2 560.244C23544.6 586.206 23544.6 613.987 23560.2 639.93L23579.7 672.225C23579.7 672.225 23579.7 672.225 23579.7 672.225C23596.6 700.336 23596.7 730.42 23579.7 758.515C23579.7 758.516 23579.7 758.515 23579.7 758.515L23560.2 790.809C23544.6 816.771 23544.6 844.552 23560.2 870.495L23579.7 902.79C23579.7 902.79 23579.7 902.79 23579.7 902.79C23596.6 930.901 23596.7 960.985 23579.7 989.08C23579.7 989.08 23579.7 989.079 23579.7 989.08L23560.2 1021.37C23544.6 1047.34 23544.6 1075.12 23560.2 1101.06L23579.7 1133.35C23596.6 1161.47 23596.7 1191.55 23579.7 1219.65L23559 1216.34C23574.7 1190.4 23574.7 1162.62 23559 1136.66L23539.6 1104.36C23539.6 1104.36 23539.6 1104.36 23539.6 1104.36C23522.6 1076.27 23522.6 1046.18 23539.6 1018.07L23559 985.779C23574.7 959.836 23574.7 932.054 23559 906.092L23539.6 873.799C23522.6 845.704 23522.6 815.62 23539.6 787.508C23539.6 787.508 23539.6 787.508 23539.6 787.508L23559 755.214C23574.7 729.271 23574.7 701.489 23559 675.527L23539.6 643.234C23522.6 615.139 23522.6 585.055 23539.6 556.943C23539.6 556.943 23539.6 556.943 23539.6 556.943L23559 524.647Z" fill="#6100C2"/>
<path fill-rule="evenodd" clip-rule="evenodd" d="M23479.1 524.647C23494.8 498.705 23494.8 470.924 23479.1 444.962L23499.8 441.66C23516.7 469.772 23516.7 499.855 23499.8 527.95C23499.8 527.951 23499.8 527.95 23499.8 527.95L23480.3 560.244C23464.7 586.206 23464.7 613.987 23480.3 639.93L23499.8 672.225C23499.8 672.225 23499.8 672.225 23499.8 672.225C23516.7 700.336 23516.7 730.42 23499.8 758.515C23499.8 758.516 23499.8 758.515 23499.8 758.515L23480.3 790.809C23464.7 816.771 23464.7 844.552 23480.3 870.495L23499.8 902.79C23499.8 902.79 23499.8 902.79 23499.8 902.79C23516.7 930.901 23516.7 960.985 23499.8 989.08C23499.8 989.08 23499.8 989.079 23499.8 989.08L23480.3 1021.37C23464.7 1047.34 23464.7 1075.12 23480.3 1101.06L23499.8 1133.35C23516.7 1161.47 23516.7 1191.55 23499.8 1219.65L23479.1 1216.34C23494.8 1190.4 23494.8 1162.62 23479.1 1136.66L23459.6 1104.36C23459.6 1104.36 23459.6 1104.36 23459.6 1104.36C23442.7 1076.27 23442.7 1046.18 23459.6 1018.07L23479.1 985.779C23494.8 959.836 23494.8 932.054 23479.1 906.092L23459.6 873.799C23442.7 845.704 23442.7 815.62 23459.6 787.508C23459.6 787.508 23459.6 787.508 23459.6 787.508L23479.1 755.214C23494.8 729.271 23494.8 701.489 23479.1 675.527L23459.6 643.234C23442.7 615.139 23442.7 585.055 23459.6 556.943C23459.6 556.943 23459.6 556.943 23459.6 556.943L23479.1 524.647Z" fill="#6100C2"/>
<path fill-rule="evenodd" clip-rule="evenodd" d="M23399.2 524.647C23414.8 498.705 23414.8 470.924 23399.2 444.962L23419.9 441.66C23436.8 469.772 23436.8 499.855 23419.9 527.95C23419.9 527.951 23419.9 527.95 23419.9 527.95L23400.4 560.244C23384.8 586.206 23384.8 613.987 23400.4 639.93L23419.9 672.225C23419.9 672.225 23419.9 672.225 23419.9 672.225C23436.8 700.336 23436.8 730.42 23419.9 758.515C23419.9 758.516 23419.9 758.515 23419.9 758.515L23400.4 790.809C23384.8 816.771 23384.8 844.552 23400.4 870.495L23419.9 902.79C23419.9 902.79 23419.9 902.79 23419.9 902.79C23436.8 930.901 23436.8 960.985 23419.9 989.08C23419.9 989.08 23419.9 989.079 23419.9 989.08L23400.4 1021.37C23384.8 1047.34 23384.8 1075.12 23400.4 1101.06L23419.9 1133.35C23436.8 1161.47 23436.8 1191.55 23419.9 1219.65L23399.2 1216.34C23414.8 1190.4 23414.8 1162.62 23399.2 1136.66L23379.7 1104.36C23379.7 1104.36 23379.7 1104.36 23379.7 1104.36C23362.8 1076.27 23362.8 1046.18 23379.7 1018.07L23399.2 985.779C23414.8 959.836 23414.8 932.054 23399.2 906.092L23379.7 873.799C23362.8 845.704 23362.8 815.62 23379.7 787.508C23379.7 787.508 23379.7 787.508 23379.7 787.508L23399.2 755.214C23414.8 729.271 23414.8 701.489 23399.2 675.527L23379.7 643.234C23362.8 615.139 23362.8 585.055 23379.7 556.943C23379.7 556.943 23379.7 556.943 23379.7 556.943L23399.2 524.647Z" fill="#6100C2"/>
<path fill-rule="evenodd" clip-rule="evenodd" d="M23319.3 524.647C23334.9 498.705 23334.9 470.924 23319.3 444.962L23340 441.66C23356.9 469.772 23356.9 499.855 23340 527.95C23340 527.951 23340 527.95 23340 527.95L23320.5 560.244C23304.9 586.206 23304.9 613.987 23320.5 639.93L23340 672.225C23340 672.225 23340 672.225 23340 672.225C23356.9 700.336 23356.9 730.42 23340 758.515C23340 758.516 23340 758.515 23340 758.515L23320.5 790.809C23304.9 816.771 23304.9 844.552 23320.5 870.495L23340 902.79C23340 902.79 23340 902.79 23340 902.79C23356.9 930.901 23356.9 960.985 23340 989.08C23340 989.08 23340 989.079 23340 989.08L23320.5 1021.37C23304.9 1047.34 23304.9 1075.12 23320.5 1101.06L23340 1133.35C23356.9 1161.47 23356.9 1191.55 23340 1219.65L23319.3 1216.34C23334.9 1190.4 23334.9 1162.62 23319.3 1136.66L23299.8 1104.36C23299.8 1104.36 23299.8 1104.36 23299.8 1104.36C23282.9 1076.27 23282.9 1046.18 23299.8 1018.07L23319.3 985.779C23334.9 959.836 23334.9 932.054 23319.3 906.092L23299.8 873.799C23282.9 845.704 23282.9 815.62 23299.8 787.508C23299.8 787.508 23299.8 787.508 23299.8 787.508L23319.3 755.214C23334.9 729.271 23334.9 701.489 23319.3 675.527L23299.8 643.234C23282.9 615.139 23282.9 585.055 23299.8 556.943C23299.8 556.943 23299.8 556.943 23299.8 556.943L23319.3 524.647Z" fill="#6100C2"/>
<path fill-rule="evenodd" clip-rule="evenodd" d="M23239.4 524.647C23255 498.705 23255 470.924 23239.4 444.962L23260 441.66C23277 469.772 23277 499.855 23260 527.95C23260 527.951 23260 527.95 23260 527.95L23240.6 560.244C23224.9 586.206 23224.9 613.987 23240.6 639.93L23260 672.225C23260 672.225 23260 672.225 23260 672.225C23277 700.336 23277 730.42 23260 758.515C23260 758.516 23260 758.515 23260 758.515L23240.6 790.809C23224.9 816.771 23224.9 844.552 23240.6 870.495L23260 902.79C23260 902.79 23260 902.79 23260 902.79C23277 930.901 23277 960.985 23260 989.08C23260 989.08 23260 989.079 23260 989.08L23240.6 1021.37C23224.9 1047.34 23224.9 1075.12 23240.6 1101.06L23260 1133.35C23277 1161.47 23277 1191.55 23260 1219.65L23239.4 1216.34C23255 1190.4 23255 1162.62 23239.4 1136.66L23219.9 1104.36C23219.9 1104.36 23219.9 1104.36 23219.9 1104.36C23203 1076.27 23203 1046.18 23219.9 1018.07L23239.4 985.779C23255 959.836 23255 932.054 23239.4 906.092L23219.9 873.799C23203 845.704 23203 815.62 23219.9 787.508C23219.9 787.508 23219.9 787.508 23219.9 787.508L23239.4 755.214C23255 729.271 23255 701.489 23239.4 675.527L23219.9 643.234C23203 615.139 23203 585.055 23219.9 556.943C23219.9 556.943 23219.9 556.943 23219.9 556.943L23239.4 524.647Z" fill="#6100C2"/>
</g>
<g clip-path="url(#clip20_1_7081)">
<rect width="1200" height="675" transform="translate(24000 0.78125)" fill="#F4F4EF"/>
<path d="M25315 -134.219V666.781H24514L25315 -134.219Z" fill="#C2F5FF"/>
<path fill-rule="evenodd" clip-rule="evenodd" d="M24812.5 510.781C24887.3 510.781 24948 450.116 24948 375.281C24948 300.447 24887.3 239.781 24812.5 239.781C24737.7 239.781 24677 300.447 24677 375.281C24677 450.116 24737.7 510.781 24812.5 510.781ZM24812.5 457.644C24858 457.644 24894.9 420.769 24894.9 375.281C24894.9 329.794 24858 292.919 24812.5 292.919C24767 292.919 24730.1 329.794 24730.1 375.281C24730.1 420.769 24767 457.644 24812.5 457.644Z" fill="#B496FF"/>
<path fill-rule="evenodd" clip-rule="evenodd" d="M24122.8 -141.219C24124.8 -135.083 24127.7 -128.998 24131.3 -123.002L24150.7 -90.7073C24166.4 -64.7647 24166.4 -36.9835 24150.7 -11.0217L24131.3 21.2724C24114.3 49.3673 24114.3 79.4511 24131.3 107.562L24150.7 139.858C24166.4 165.8 24166.4 193.581 24150.7 219.543L24131.3 251.837C24114.3 279.932 24114.3 310.016 24131.3 338.127L24152 334.825C24136.3 308.863 24136.3 281.083 24152 255.14L24171.4 222.844C24188.4 194.732 24188.4 164.649 24171.4 136.553L24152 104.26C24136.3 78.2984 24136.3 50.5162 24152 24.5736L24171.4 -7.72047C24188.4 -35.8324 24188.4 -65.9162 24171.4 -94.0116L24152 -126.305C24149 -131.219 24146.6 -136.199 24144.8 -141.219H24122.8Z" fill="#393A3D"/>
<path fill-rule="evenodd" clip-rule="evenodd" d="M24187.9 -141.219C24189.9 -135.083 24192.8 -128.998 24196.4 -123.002L24215.9 -90.7073C24231.5 -64.7647 24231.5 -36.9835 24215.9 -11.0217L24196.4 21.2724C24179.4 49.3673 24179.5 79.4511 24196.4 107.562L24215.9 139.858C24231.5 165.8 24231.5 193.581 24215.9 219.543L24196.4 251.837C24179.4 279.932 24179.5 310.016 24196.4 338.127L24217.1 334.825C24201.4 308.863 24201.4 281.083 24217.1 255.14L24236.5 222.844C24253.5 194.732 24253.5 164.649 24236.5 136.553L24217.1 104.26C24201.4 78.2984 24201.4 50.5162 24217.1 24.5736L24236.5 -7.72047C24253.5 -35.8324 24253.5 -65.9162 24236.5 -94.0116L24217.1 -126.305C24214.1 -131.219 24211.7 -136.199 24209.9 -141.219H24187.9Z" fill="#393A3D"/>
<path fill-rule="evenodd" clip-rule="evenodd" d="M24253 -141.219C24255 -135.083 24257.9 -128.998 24261.5 -123.002L24281 -90.7073C24296.6 -64.7647 24296.6 -36.9835 24281 -11.0217L24261.5 21.2724C24244.6 49.3673 24244.6 79.4511 24261.5 107.562L24281 139.858C24296.6 165.8 24296.6 193.581 24281 219.543L24261.5 251.837C24244.6 279.932 24244.6 310.016 24261.5 338.127L24282.2 334.825C24266.5 308.863 24266.5 281.083 24282.2 255.14L24301.6 222.844C24318.6 194.732 24318.6 164.649 24301.6 136.553L24282.2 104.26C24266.5 78.2984 24266.5 50.5162 24282.2 24.5736L24301.6 -7.72047C24318.6 -35.8324 24318.6 -65.9162 24301.6 -94.0116L24282.2 -126.305C24279.2 -131.219 24276.8 -136.199 24275 -141.219H24253Z" fill="#393A3D"/>
<path fill-rule="evenodd" clip-rule="evenodd" d="M24318.1 -141.219C24320.1 -135.083 24323 -128.998 24326.6 -123.002L24346.1 -90.7073C24361.7 -64.7647 24361.7 -36.9835 24346.1 -11.0217L24326.6 21.2724C24309.7 49.3673 24309.7 79.4511 24326.6 107.562L24346.1 139.858C24361.7 165.8 24361.7 193.581 24346.1 219.543L24326.6 251.837C24309.7 279.932 24309.7 310.016 24326.6 338.127L24347.3 334.825C24331.6 308.863 24331.6 281.083 24347.3 255.14L24366.7 222.844C24383.7 194.732 24383.7 164.649 24366.7 136.553L24347.3 104.26C24331.6 78.2984 24331.6 50.5162 24347.3 24.5736L24366.7 -7.72047C24383.7 -35.8324 24383.7 -65.9162 24366.7 -94.0116L24347.3 -126.305C24344.3 -131.219 24341.9 -136.199 24340.1 -141.219H24318.1Z" fill="#393A3D"/>
<path fill-rule="evenodd" clip-rule="evenodd" d="M24383.2 -141.219C24385.2 -135.083 24388.1 -128.998 24391.7 -123.002L24411.2 -90.7073C24426.8 -64.7647 24426.8 -36.9835 24411.2 -11.0217L24391.7 21.2724C24374.8 49.3673 24374.8 79.4511 24391.7 107.562L24411.2 139.858C24426.8 165.8 24426.8 193.581 24411.2 219.543L24391.7 251.837C24374.8 279.932 24374.8 310.016 24391.7 338.127L24412.4 334.825C24396.7 308.863 24396.7 281.083 24412.4 255.14L24431.8 222.844C24448.8 194.732 24448.8 164.649 24431.8 136.553L24412.4 104.26C24396.7 78.2984 24396.7 50.5162 24412.4 24.5736L24431.8 -7.72047C24448.8 -35.8324 24448.8 -65.9162 24431.8 -94.0116L24412.4 -126.305C24409.4 -131.219 24407 -136.199 24405.2 -141.219H24383.2Z" fill="#393A3D"/>
<rect x="24117" y="375.781" width="322" height="291" fill="#6100C2"/>
<circle cx="24277.5" cy="521.281" r="57.5" fill="#B496FF"/>
</g>
<g clip-path="url(#clip21_1_7081)">
<rect width="1200" height="675" transform="translate(25200 0.78125)" fill="#F4F4EF"/>
<path fill-rule="evenodd" clip-rule="evenodd" d="M25281 446.322C25255.7 436.539 25228.6 436.539 25203.2 446.322L25200 433.389C25227.4 422.795 25256.8 422.795 25284.2 433.389C25284.2 433.389 25284.2 433.388 25284.2 433.389L25315.7 445.554C25341 455.337 25368.1 455.337 25393.5 445.555L25425 433.389C25425 433.389 25425 433.389 25425 433.389C25452.4 422.795 25481.8 422.795 25509.2 433.389C25509.2 433.389 25509.2 433.388 25509.2 433.389L25540.7 445.554C25566 455.337 25593.1 455.337 25618.4 445.555L25649.9 433.389C25649.9 433.389 25649.9 433.389 25649.9 433.389C25677.4 422.795 25706.7 422.795 25734.1 433.389C25734.1 433.389 25734.1 433.388 25734.1 433.389L25765.7 445.554C25791 455.337 25818.1 455.337 25843.4 445.555L25874.9 433.389C25902.4 422.795 25931.7 422.795 25959.1 433.389L25955.9 446.322C25930.6 436.539 25903.5 436.539 25878.1 446.322L25846.6 458.488C25846.6 458.488 25846.6 458.487 25846.6 458.488C25819.2 469.081 25789.9 469.081 25762.4 458.488L25730.9 446.323C25705.6 436.54 25678.5 436.539 25653.2 446.322L25621.7 458.488C25594.2 469.082 25564.9 469.082 25537.5 458.488C25537.5 458.488 25537.5 458.488 25537.5 458.488L25506 446.323C25480.6 436.54 25453.5 436.539 25428.2 446.322L25396.7 458.488C25369.3 469.082 25339.9 469.082 25312.5 458.488C25312.5 458.488 25312.5 458.488 25312.5 458.488L25281 446.322Z" fill="#393A3D"/>
<path fill-rule="evenodd" clip-rule="evenodd" d="M25281 496.287C25255.7 486.504 25228.6 486.504 25203.2 496.287L25200 483.354C25227.4 472.76 25256.8 472.759 25284.2 483.353C25284.2 483.354 25284.2 483.353 25284.2 483.353L25315.7 495.519C25341 505.302 25368.1 505.302 25393.5 495.519L25425 483.354C25425 483.353 25425 483.354 25425 483.354C25452.4 472.76 25481.8 472.76 25509.2 483.353C25509.2 483.354 25509.2 483.353 25509.2 483.353L25540.7 495.519C25566 505.302 25593.1 505.302 25618.4 495.519L25649.9 483.354C25649.9 483.353 25649.9 483.354 25649.9 483.354C25677.4 472.76 25706.7 472.76 25734.1 483.353C25734.1 483.354 25734.1 483.353 25734.1 483.353L25765.7 495.519C25791 505.302 25818.1 505.302 25843.4 495.519L25874.9 483.354C25902.4 472.76 25931.7 472.759 25959.1 483.354L25955.9 496.287C25930.6 486.504 25903.5 486.504 25878.1 496.287L25846.6 508.452C25846.6 508.453 25846.6 508.452 25846.6 508.452C25819.2 519.046 25789.9 519.046 25762.4 508.453L25730.9 496.288C25705.6 486.505 25678.5 486.504 25653.2 496.287L25621.7 508.452C25594.2 519.047 25564.9 519.046 25537.5 508.453C25537.5 508.453 25537.5 508.453 25537.5 508.453L25506 496.288C25480.6 486.505 25453.5 486.504 25428.2 496.287L25396.7 508.452C25369.3 519.047 25339.9 519.046 25312.5 508.453C25312.5 508.453 25312.5 508.453 25312.5 508.453L25281 496.287Z" fill="#393A3D"/>
<path fill-rule="evenodd" clip-rule="evenodd" d="M25281 546.252C25255.7 536.469 25228.6 536.469 25203.2 546.252L25200 533.318C25227.4 522.725 25256.8 522.724 25284.2 533.318C25284.2 533.318 25284.2 533.318 25284.2 533.318L25315.7 545.484C25341 555.267 25368.1 555.267 25393.5 545.484L25425 533.318C25425 533.318 25425 533.318 25425 533.318C25452.4 522.725 25481.8 522.724 25509.2 533.318C25509.2 533.318 25509.2 533.318 25509.2 533.318L25540.7 545.484C25566 555.267 25593.1 555.267 25618.4 545.484L25649.9 533.318C25649.9 533.318 25649.9 533.318 25649.9 533.318C25677.4 522.725 25706.7 522.724 25734.1 533.318C25734.1 533.318 25734.1 533.318 25734.1 533.318L25765.7 545.484C25791 555.267 25818.1 555.267 25843.4 545.484L25874.9 533.318C25902.4 522.725 25931.7 522.724 25959.1 533.319L25955.9 546.252C25930.6 536.469 25903.5 536.469 25878.1 546.252L25846.6 558.417C25846.6 558.417 25846.6 558.417 25846.6 558.417C25819.2 569.011 25789.9 569.011 25762.4 558.418L25730.9 546.252C25705.6 536.47 25678.5 536.469 25653.2 546.252L25621.7 558.417C25594.2 569.012 25564.9 569.011 25537.5 558.418C25537.5 558.418 25537.5 558.418 25537.5 558.418L25506 546.252C25480.6 536.47 25453.5 536.469 25428.2 546.252L25396.7 558.417C25369.3 569.012 25339.9 569.011 25312.5 558.418C25312.5 558.418 25312.5 558.418 25312.5 558.418L25281 546.252Z" fill="#393A3D"/>
<path fill-rule="evenodd" clip-rule="evenodd" d="M25281 596.322C25255.7 586.539 25228.6 586.539 25203.2 596.322L25200 583.389C25227.4 572.795 25256.8 572.795 25284.2 583.389C25284.2 583.389 25284.2 583.388 25284.2 583.389L25315.7 595.554C25341 605.337 25368.1 605.337 25393.5 595.555L25425 583.389C25425 583.389 25425 583.389 25425 583.389C25452.4 572.795 25481.8 572.795 25509.2 583.389C25509.2 583.389 25509.2 583.388 25509.2 583.389L25540.7 595.554C25566 605.337 25593.1 605.337 25618.4 595.555L25649.9 583.389C25649.9 583.389 25649.9 583.389 25649.9 583.389C25677.4 572.795 25706.7 572.795 25734.1 583.389C25734.1 583.389 25734.1 583.388 25734.1 583.389L25765.7 595.554C25791 605.337 25818.1 605.337 25843.4 595.555L25874.9 583.389C25902.4 572.795 25931.7 572.795 25959.1 583.389L25955.9 596.322C25930.6 586.539 25903.5 586.539 25878.1 596.322L25846.6 608.488C25846.6 608.488 25846.6 608.487 25846.6 608.488C25819.2 619.081 25789.9 619.081 25762.4 608.488L25730.9 596.323C25705.6 586.54 25678.5 586.539 25653.2 596.322L25621.7 608.488C25594.2 619.082 25564.9 619.082 25537.5 608.488C25537.5 608.488 25537.5 608.488 25537.5 608.488L25506 596.323C25480.6 586.54 25453.5 586.539 25428.2 596.322L25396.7 608.488C25369.3 619.082 25339.9 619.082 25312.5 608.488C25312.5 608.488 25312.5 608.488 25312.5 608.488L25281 596.322Z" fill="#393A3D"/>
<path fill-rule="evenodd" clip-rule="evenodd" d="M25281 646.181C25255.7 636.399 25228.6 636.398 25203.2 646.182L25200 633.248C25227.4 622.655 25256.8 622.654 25284.2 633.248C25284.2 633.248 25284.2 633.248 25284.2 633.248L25315.7 645.413C25341 655.197 25368.1 655.197 25393.5 645.414L25425 633.248C25425 633.248 25425 633.248 25425 633.248C25452.4 622.655 25481.8 622.654 25509.2 633.248C25509.2 633.248 25509.2 633.248 25509.2 633.248L25540.7 645.413C25566 655.197 25593.1 655.197 25618.4 645.414L25649.9 633.248C25649.9 633.248 25649.9 633.248 25649.9 633.248C25677.4 622.655 25706.7 622.654 25734.1 633.248C25734.1 633.248 25734.1 633.248 25734.1 633.248L25765.7 645.413C25791 655.197 25818.1 655.197 25843.4 645.414L25874.9 633.248C25902.4 622.654 25931.7 622.654 25959.1 633.248L25955.9 646.181C25930.6 636.399 25903.5 636.398 25878.1 646.182L25846.6 658.347C25846.6 658.347 25846.6 658.347 25846.6 658.347C25819.2 668.941 25789.9 668.941 25762.4 658.347L25730.9 646.182C25705.6 636.399 25678.5 636.398 25653.2 646.182L25621.7 658.347C25594.2 668.941 25564.9 668.941 25537.5 658.347C25537.5 658.347 25537.5 658.348 25537.5 658.347L25506 646.182C25480.6 636.399 25453.5 636.398 25428.2 646.182L25396.7 658.347C25369.3 668.941 25339.9 668.941 25312.5 658.347C25312.5 658.347 25312.5 658.348 25312.5 658.347L25281 646.181Z" fill="#393A3D"/>
<rect x="25930" y="0.78125" width="454" height="674" fill="#C2F5FF"/>
<circle cx="26156.5" cy="518.281" r="57.5" fill="#B496FF"/>
<path d="M25575 300.781L25445.1 75.7812L25704.9 75.7812L25575 300.781Z" fill="#B496FF"/>
<path d="M25575 378.781L25489.3 230.281L25660.7 230.281L25575 378.781Z" fill="#393A3D"/>
<path d="M26384 72.7812C26299.5 72.7813 26231 141.282 26231 225.781C26231 310.281 26299.5 378.781 26384 378.781L26384 318.781C26332.6 318.781 26291 277.144 26291 225.781C26291 174.419 26332.6 132.781 26384 132.781L26384 72.7812Z" fill="#6100C2"/>
</g>
<g clip-path="url(#clip22_1_7081)">
<rect x="26400" y="0.78125" width="1200" height="675" rx="12" fill="#F4F4EF"/>
<rect x="26906" y="0.78125" width="678" height="674" fill="#C2F5FF"/>
<path d="M27447 337.781L27595.5 252.045L27595.5 423.518L27447 337.781Z" fill="#393A3D"/>
<circle cx="26403.6" cy="337.922" r="54.1408" fill="#B496FF"/>
<circle cx="26572" cy="337.922" r="54.1408" fill="#B496FF"/>
<circle cx="26740.5" cy="337.922" r="54.1408" fill="#B496FF"/>
<circle cx="26908.9" cy="337.922" r="54.1408" fill="#393A3D"/>
<circle cx="27077.3" cy="337.922" r="54.1408" fill="#B496FF"/>
<circle cx="27180.8" cy="534.679" r="25.7769" fill="#6100C2"/>
<circle cx="27261" cy="534.679" r="25.7769" fill="#B496FF"/>
<circle cx="27341.2" cy="534.679" r="25.7769" fill="#6100C2"/>
<circle cx="27421.4" cy="534.679" r="25.7769" fill="#B496FF"/>
<circle cx="27501.6" cy="534.679" r="25.7769" fill="#6100C2"/>
<circle cx="27581.8" cy="534.679" r="25.7769" fill="#B496FF"/>
<circle cx="27180.8" cy="132.558" r="25.7769" fill="#6100C2"/>
<circle cx="27261" cy="132.558" r="25.7769" fill="#B496FF"/>
<circle cx="27341.2" cy="132.558" r="25.7769" fill="#6100C2"/>
<circle cx="27421.4" cy="132.558" r="25.7769" fill="#B496FF"/>
<circle cx="27501.6" cy="132.558" r="25.7769" fill="#6100C2"/>
<circle cx="27581.8" cy="132.558" r="25.7769" fill="#B496FF"/>
</g>
<g clip-path="url(#clip23_1_7081)">
<rect x="27600" y="0.78125" width="1200" height="675" rx="12" fill="#F4F4EF"/>
<rect x="27600" y="0.78125" width="1184" height="334" fill="#C2F5FF"/>
<rect x="28094" y="229.512" width="208.271" height="208.271" fill="#B496FF"/>
<rect x="28378" y="229.781" width="70" height="208" fill="#6100C2"/>
<rect x="28524" y="229.781" width="30" height="208" fill="#B496FF"/>
<rect x="28630" y="229.781" width="15" height="208" fill="#6100C2"/>
<rect x="28721" y="229.781" width="7" height="208" fill="#393A3D"/>
<rect x="28018.5" y="228.781" width="209.227" height="418.454" transform="rotate(90 28018.5 228.781)" fill="#6100C2"/>
</g>
<defs>
<filter id="filter0_d_1_7081" x="3584.12" y="-11.577" width="1219.25" height="699.867" filterUnits="userSpaceOnUse" color-interpolation-filters="sRGB">
<feFlood flood-opacity="0" result="BackgroundImageFix"/>
<feColorMatrix in="SourceAlpha" type="matrix" values="0 0 0 0 0 0 0 0 0 0 0 0 0 0 0 0 0 0 127 0" result="hardAlpha"/>
<feOffset dy="4.01069"/>
<feGaussianBlur stdDeviation="8.02139"/>
<feColorMatrix type="matrix" values="0 0 0 0 0 0 0 0 0 0 0 0 0 0 0 0 0 0 0.2 0"/>
<feBlend mode="normal" in2="BackgroundImageFix" result="effect1_dropShadow_1_7081"/>
<feBlend mode="normal" in="SourceGraphic" in2="effect1_dropShadow_1_7081" result="shape"/>
</filter>
<clipPath id="clip0_1_7081">
<rect width="1200" height="675" fill="white" transform="translate(0 0.78125)"/>
</clipPath>
<clipPath id="clip1_1_7081">
<rect width="1200" height="675" fill="white" transform="translate(1200 0.78125)"/>
</clipPath>
<clipPath id="clip2_1_7081">
<rect width="1200" height="675" fill="white" transform="translate(2400 0.78125)"/>
</clipPath>
<clipPath id="clip3_1_7081">
<rect width="1200" height="675" fill="white" transform="translate(3600 0.78125)"/>
</clipPath>
<clipPath id="clip4_1_7081">
<rect x="3600.16" y="0.455078" width="1187.17" height="667.781" rx="12.0321" fill="white"/>
</clipPath>
<clipPath id="clip5_1_7081">
<rect width="1200" height="675" fill="white" transform="translate(4800 0.78125)"/>
</clipPath>
<clipPath id="clip6_1_7081">
<rect width="1200" height="675" fill="white" transform="translate(7200 0.78125)"/>
</clipPath>
<clipPath id="clip7_1_7081">
<rect width="1200" height="675" fill="white" transform="translate(8400 0.78125)"/>
</clipPath>
<clipPath id="clip8_1_7081">
<rect width="1200" height="675" fill="white" transform="translate(9600 0.78125)"/>
</clipPath>
<clipPath id="clip9_1_7081">
<rect width="1200" height="675" fill="white" transform="translate(10800 0.78125)"/>
</clipPath>
<clipPath id="clip10_1_7081">
<rect width="1200" height="675" fill="white" transform="translate(12000 0.78125)"/>
</clipPath>
<clipPath id="clip11_1_7081">
<rect width="1200" height="675" fill="white" transform="translate(13200 0.78125)"/>
</clipPath>
<clipPath id="clip12_1_7081">
<rect width="1200" height="675" fill="white" transform="translate(14400 0.78125)"/>
</clipPath>
<clipPath id="clip13_1_7081">
<rect width="1200" height="675" fill="white" transform="translate(15600 0.78125)"/>
</clipPath>
<clipPath id="clip14_1_7081">
<rect width="1200" height="675" fill="white" transform="translate(16800 0.78125)"/>
</clipPath>
<clipPath id="clip15_1_7081">
<rect width="1200" height="675" fill="white" transform="translate(18000 0.78125)"/>
</clipPath>
<clipPath id="clip16_1_7081">
<rect width="1200" height="675" fill="white" transform="translate(19200 0.78125)"/>
</clipPath>
<clipPath id="clip17_1_7081">
<rect width="1200" height="675" fill="white" transform="translate(20400 0.78125)"/>
</clipPath>
<clipPath id="clip18_1_7081">
<rect width="1200" height="675" fill="white" transform="translate(21600 0.78125)"/>
</clipPath>
<clipPath id="clip19_1_7081">
<rect width="1200" height="675" fill="white" transform="translate(22800 0.78125)"/>
</clipPath>
<clipPath id="clip20_1_7081">
<rect width="1200" height="675" fill="white" transform="translate(24000 0.78125)"/>
</clipPath>
<clipPath id="clip21_1_7081">
<rect width="1200" height="675" fill="white" transform="translate(25200 0.78125)"/>
</clipPath>
<clipPath id="clip22_1_7081">
<rect x="26400" y="0.78125" width="1200" height="675" rx="12" fill="white"/>
</clipPath>
<clipPath id="clip23_1_7081">
<rect x="27600" y="0.78125" width="1200" height="675" rx="12" fill="white"/>
</clipPath>
</defs>
</svg>
