<svg width="32768" height="660" viewBox="0 0 32768 660" fill="none" xmlns="http://www.w3.org/2000/svg">
<g clip-path="url(#clip0_1_11294)">
<rect width="1200" height="675" transform="translate(0 0.761905) scale(0.975238)" fill="#F4F4EF"/>
<path fill-rule="evenodd" clip-rule="evenodd" d="M766.102 568.455C900.513 568.455 1009.48 459.492 1009.48 325.081C1009.48 190.669 900.513 81.7067 766.102 81.7067C631.69 81.7067 522.728 190.669 522.728 325.081C522.728 459.492 631.69 568.455 766.102 568.455ZM766.102 473.014C847.803 473.014 914.035 406.782 914.035 325.081C914.035 243.379 847.803 177.147 766.102 177.147C684.4 177.147 618.168 243.379 618.168 325.081C618.168 406.782 684.4 473.014 766.102 473.014Z" fill="#17497F"/>
<rect y="0.761905" width="766.537" height="649.509" fill="#DDECE1"/>
<circle cx="766.049" cy="325.029" r="126.293" fill="#5DABFF"/>
<circle cx="136.433" cy="325.416" r="23.3054" fill="#17497F"/>
<circle cx="208.94" cy="325.416" r="23.3054" fill="#17497F"/>
<circle cx="281.446" cy="325.416" r="23.3054" fill="#17497F"/>
<circle cx="353.949" cy="325.416" r="23.3054" fill="#17497F"/>
<circle cx="426.456" cy="325.416" r="23.3054" fill="#17497F"/>
<circle cx="498.963" cy="325.416" r="23.3054" fill="#17497F"/>
</g>
<g clip-path="url(#clip1_1_11294)">
<rect width="1200" height="675" transform="translate(1170.29 0.761905) scale(0.975238)" fill="#F4F4EF"/>
<rect x="1747.63" y="0.761905" width="577.341" height="649.509" fill="#DDECE1"/>
<rect x="1170.29" y="447.421" width="446.659" height="24.9735" transform="rotate(-90 1170.29 447.421)" fill="#17497F"/>
<rect x="1220.23" y="447.421" width="446.659" height="24.9735" transform="rotate(-90 1220.23 447.421)" fill="#17497F"/>
<rect x="1270.18" y="447.421" width="446.659" height="24.9735" transform="rotate(-90 1270.18 447.421)" fill="#17497F"/>
<rect x="1320.13" y="447.421" width="446.659" height="24.9735" transform="rotate(-90 1320.13 447.421)" fill="#17497F"/>
<rect x="1370.08" y="447.421" width="446.659" height="24.9735" transform="rotate(-90 1370.08 447.421)" fill="#17497F"/>
<rect x="1420.02" y="447.421" width="446.659" height="24.9735" transform="rotate(-90 1420.02 447.421)" fill="#17497F"/>
<rect x="1469.97" y="447.421" width="446.659" height="24.9735" transform="rotate(-90 1469.97 447.421)" fill="#17497F"/>
<rect x="1519.92" y="447.421" width="446.659" height="24.9735" transform="rotate(-90 1519.92 447.421)" fill="#5DABFF"/>
<rect x="1544.78" y="447.421" width="203.113" height="203.113" fill="#5DABFF"/>
<path d="M2325.34 109.013C2231.95 109.013 2156.25 184.716 2156.25 278.101C2156.25 371.485 2231.95 447.188 2325.34 447.188L2325.34 380.879C2268.57 380.879 2222.56 334.864 2222.56 278.101C2222.56 221.338 2268.57 175.322 2325.34 175.322L2325.34 109.013Z" fill="#393A3D"/>
</g>
<g clip-path="url(#clip2_1_11294)">
<rect width="1200" height="675" transform="translate(2340.57 0.761905) scale(0.975238)" fill="#DDECE1"/>
<path d="M2748.66 242.621V650.713H2340.57L2748.66 242.621Z" fill="#5DABFF"/>
<circle cx="2738.96" cy="0.274286" r="243.322" fill="#17497F"/>
<circle cx="2900.37" cy="446.583" r="52.8002" fill="#393A3D"/>
<circle cx="3064.64" cy="446.583" r="52.8002" fill="#393A3D"/>
<circle cx="3229.15" cy="446.583" r="52.8002" fill="#17497F"/>
<circle cx="3393.17" cy="446.583" r="52.8002" fill="#393A3D"/>
<rect x="3187.08" y="294.309" width="293.547" height="82.8953" transform="rotate(-90 3187.08 294.309)" fill="#5DABFF"/>
<rect x="3187.08" y="650.27" width="64.3657" height="82.8952" transform="rotate(-90 3187.08 650.27)" fill="#5DABFF"/>
</g>
<g clip-path="url(#clip3_1_11294)">
<rect width="1200" height="675" transform="translate(3510.86 0.761905) scale(0.975238)" fill="#F4F4EF"/>
<rect x="3510.86" y="325.516" width="1154.68" height="324.754" fill="#DDECE1"/>
<path fill-rule="evenodd" clip-rule="evenodd" d="M3952.12 42.1562C3966.75 17.9058 3966.75 -8.06381 3952.12 -32.3342L3992.47 -38.7752C4009.63 -10.3118 4009.63 20.1494 3992.47 48.5981C3992.47 48.5984 3992.47 48.5979 3992.47 48.5981C3992.47 48.5989 3992.47 48.6003 3992.47 48.6011L3973.49 80.0926C3958.87 104.363 3958.87 130.334 3973.49 154.584L3973.49 154.587L3992.47 186.08C3992.47 186.081 3992.47 186.08 3992.47 186.08C4009.62 214.544 4009.63 245.005 3992.47 273.454C3992.47 273.455 3992.47 273.456 3992.47 273.457L3973.49 304.948C3958.87 329.219 3958.87 355.189 3973.49 379.44L3973.49 379.443L3992.47 410.936C3992.47 410.936 3992.47 410.936 3992.47 410.936C4009.62 439.399 4009.63 469.861 3992.47 498.309C3992.47 498.31 3992.47 498.311 3992.47 498.312L3973.49 529.804C3958.87 554.074 3958.87 580.045 3973.49 604.295L3973.49 604.298L3992.47 635.792C3992.47 635.792 3992.47 635.791 3992.47 635.792C4009.63 664.256 4009.63 694.719 3992.47 723.168L3952.12 716.723C3966.75 692.473 3966.75 666.503 3952.12 642.233L3933.15 610.74C3933.15 610.739 3933.15 610.738 3933.14 610.737C3915.99 582.288 3915.99 551.827 3933.15 523.364L3952.12 491.87L3952.12 491.867C3966.75 467.617 3966.75 441.647 3952.12 417.377L3933.15 385.884C3933.15 385.884 3933.15 385.883 3933.14 385.882C3915.99 357.433 3915.99 326.972 3933.14 298.509C3933.15 298.509 3933.14 298.51 3933.14 298.509L3952.12 267.012C3966.75 242.761 3966.75 216.792 3952.12 192.521L3933.15 161.029C3933.15 161.028 3933.15 161.027 3933.14 161.026C3915.99 132.578 3915.99 102.117 3933.14 73.6536C3933.15 73.6532 3933.14 73.6539 3933.14 73.6536L3952.12 42.1562Z" fill="#17497F"/>
<path fill-rule="evenodd" clip-rule="evenodd" d="M3857.18 42.1562C3871.81 17.9058 3871.81 -8.06381 3857.18 -32.3342L3897.53 -38.7752C3914.68 -10.3118 3914.69 20.1494 3897.53 48.5981C3897.53 48.5984 3897.53 48.5979 3897.53 48.5981C3897.53 48.5989 3897.53 48.6003 3897.53 48.6011L3878.55 80.0926C3863.93 104.363 3863.93 130.334 3878.55 154.584L3878.55 154.587L3897.53 186.08C3897.53 186.081 3897.53 186.08 3897.53 186.08C3914.68 214.544 3914.69 245.005 3897.53 273.454C3897.53 273.455 3897.53 273.456 3897.53 273.457L3878.55 304.948C3863.93 329.219 3863.93 355.189 3878.55 379.44L3878.55 379.443L3897.53 410.936C3897.53 410.936 3897.53 410.936 3897.53 410.936C3914.68 439.399 3914.69 469.861 3897.53 498.309C3897.53 498.31 3897.53 498.311 3897.53 498.312L3878.55 529.804C3863.93 554.074 3863.93 580.045 3878.55 604.295L3878.55 604.298L3897.53 635.792C3897.53 635.792 3897.53 635.791 3897.53 635.792C3914.68 664.256 3914.69 694.719 3897.53 723.168L3857.18 716.723C3871.81 692.473 3871.81 666.503 3857.18 642.233L3838.21 610.74C3838.21 610.739 3838.2 610.738 3838.2 610.737C3821.05 582.288 3821.05 551.827 3838.2 523.364L3857.18 491.87L3857.18 491.867C3871.81 467.617 3871.81 441.647 3857.18 417.377L3838.21 385.884C3838.21 385.884 3838.2 385.883 3838.2 385.882C3821.05 357.433 3821.05 326.972 3838.2 298.509C3838.2 298.509 3838.2 298.51 3838.2 298.509L3857.18 267.012C3871.81 242.761 3871.81 216.792 3857.18 192.521L3838.21 161.029C3838.21 161.028 3838.2 161.027 3838.2 161.026C3821.05 132.578 3821.05 102.117 3838.2 73.6536C3838.2 73.6532 3838.2 73.6539 3838.2 73.6536L3857.18 42.1562Z" fill="#17497F"/>
<path fill-rule="evenodd" clip-rule="evenodd" d="M3762.24 42.1562C3776.86 17.9058 3776.86 -8.06381 3762.24 -32.3342L3802.58 -38.7752C3819.74 -10.3118 3819.74 20.1494 3802.58 48.5981C3802.58 48.5984 3802.58 48.5979 3802.58 48.5981C3802.58 48.5989 3802.58 48.6003 3802.58 48.6011L3783.61 80.0926C3768.98 104.363 3768.98 130.334 3783.61 154.584L3783.61 154.587L3802.58 186.08C3802.58 186.081 3802.58 186.08 3802.58 186.08C3819.74 214.544 3819.74 245.005 3802.58 273.454C3802.58 273.455 3802.58 273.456 3802.58 273.457L3783.61 304.948C3768.98 329.219 3768.98 355.189 3783.61 379.44L3783.61 379.443L3802.58 410.936C3802.58 410.936 3802.58 410.936 3802.58 410.936C3819.74 439.399 3819.74 469.861 3802.58 498.309C3802.58 498.31 3802.58 498.311 3802.58 498.312L3783.61 529.804C3768.98 554.074 3768.98 580.045 3783.61 604.295L3783.61 604.298L3802.58 635.792C3802.58 635.792 3802.58 635.791 3802.58 635.792C3819.74 664.256 3819.74 694.719 3802.58 723.168L3762.24 716.723C3776.86 692.473 3776.86 666.503 3762.24 642.233L3743.26 610.74C3743.26 610.739 3743.26 610.738 3743.26 610.737C3726.1 582.288 3726.1 551.827 3743.26 523.364L3762.23 491.87L3762.24 491.867C3776.86 467.617 3776.86 441.647 3762.24 417.377L3743.26 385.884C3743.26 385.884 3743.26 385.883 3743.26 385.882C3726.1 357.433 3726.1 326.972 3743.26 298.509C3743.26 298.509 3743.26 298.51 3743.26 298.509L3762.24 267.012C3776.86 242.761 3776.86 216.792 3762.24 192.521L3743.26 161.029C3743.26 161.028 3743.26 161.027 3743.26 161.026C3726.1 132.578 3726.1 102.117 3743.26 73.6536C3743.26 73.6532 3743.26 73.6539 3743.26 73.6536L3762.24 42.1562Z" fill="#17497F"/>
<path fill-rule="evenodd" clip-rule="evenodd" d="M3667.3 42.1562C3681.92 17.9058 3681.92 -8.06381 3667.29 -32.3342L3707.64 -38.7752C3724.8 -10.3118 3724.8 20.1494 3707.64 48.5981C3707.64 48.5984 3707.64 48.5979 3707.64 48.5981C3707.64 48.5989 3707.64 48.6003 3707.64 48.6011L3688.67 80.0926C3674.04 104.363 3674.04 130.334 3688.67 154.584L3688.67 154.587L3707.64 186.08C3707.64 186.081 3707.64 186.08 3707.64 186.08C3724.8 214.544 3724.8 245.005 3707.64 273.454C3707.64 273.455 3707.64 273.456 3707.64 273.457L3688.67 304.948C3674.04 329.219 3674.04 355.189 3688.67 379.44L3688.67 379.443L3707.64 410.936C3707.64 410.936 3707.64 410.936 3707.64 410.936C3724.8 439.399 3724.8 469.861 3707.64 498.309C3707.64 498.31 3707.64 498.311 3707.64 498.312L3688.67 529.804C3674.04 554.074 3674.04 580.045 3688.67 604.295L3688.67 604.298L3707.64 635.792C3707.64 635.792 3707.64 635.791 3707.64 635.792C3724.8 664.256 3724.8 694.719 3707.64 723.168L3667.3 716.723C3681.92 692.473 3681.92 666.503 3667.29 642.233L3648.32 610.74C3648.32 610.739 3648.32 610.738 3648.32 610.737C3631.16 582.288 3631.16 551.827 3648.32 523.364L3667.29 491.87L3667.3 491.867C3681.92 467.617 3681.92 441.647 3667.29 417.377L3648.32 385.884C3648.32 385.884 3648.32 385.883 3648.32 385.882C3631.16 357.433 3631.16 326.972 3648.32 298.509C3648.32 298.509 3648.32 298.51 3648.32 298.509L3667.3 267.012C3681.92 242.761 3681.92 216.792 3667.29 192.521L3648.32 161.029C3648.32 161.028 3648.32 161.027 3648.32 161.026C3631.16 132.578 3631.16 102.117 3648.32 73.6536C3648.32 73.6532 3648.32 73.6539 3648.32 73.6536L3667.3 42.1562Z" fill="#17497F"/>
<path fill-rule="evenodd" clip-rule="evenodd" d="M3572.35 42.1562C3586.98 17.9058 3586.98 -8.06381 3572.35 -32.3342L3612.7 -38.7752C3629.86 -10.3118 3629.86 20.1494 3612.7 48.5981C3612.7 48.5984 3612.7 48.5979 3612.7 48.5981C3612.7 48.5989 3612.7 48.6003 3612.7 48.6011L3593.73 80.0926C3579.1 104.363 3579.1 130.334 3593.73 154.584L3593.73 154.587L3612.7 186.08C3612.7 186.081 3612.7 186.08 3612.7 186.08C3629.86 214.544 3629.86 245.005 3612.7 273.454C3612.7 273.455 3612.7 273.456 3612.7 273.457L3593.73 304.948C3579.1 329.219 3579.1 355.189 3593.73 379.44L3593.73 379.443L3612.7 410.936C3612.7 410.936 3612.7 410.936 3612.7 410.936C3629.86 439.399 3629.86 469.861 3612.7 498.309C3612.7 498.31 3612.7 498.311 3612.7 498.312L3593.73 529.804C3579.1 554.074 3579.1 580.045 3593.73 604.295L3593.73 604.298L3612.7 635.792C3612.7 635.792 3612.7 635.791 3612.7 635.792C3629.86 664.256 3629.86 694.719 3612.7 723.168L3572.35 716.723C3586.98 692.473 3586.98 666.503 3572.35 642.233L3553.38 610.74C3553.38 610.739 3553.38 610.738 3553.38 610.737C3536.22 582.288 3536.22 551.827 3553.38 523.364L3572.35 491.87L3572.35 491.867C3586.98 467.617 3586.98 441.647 3572.35 417.377L3553.38 385.884C3553.38 385.884 3553.38 385.883 3553.38 385.882C3536.22 357.433 3536.22 326.972 3553.38 298.509C3553.38 298.509 3553.38 298.51 3553.38 298.509L3572.35 267.012C3586.98 242.761 3586.98 216.792 3572.35 192.521L3553.38 161.029C3553.38 161.028 3553.38 161.027 3553.38 161.026C3536.22 132.578 3536.22 102.117 3553.38 73.6536C3553.38 73.6532 3553.38 73.6539 3553.38 73.6536L3572.35 42.1562Z" fill="#17497F"/>
<path fill-rule="evenodd" clip-rule="evenodd" d="M4368.58 481.554C4454.49 481.554 4524.13 411.912 4524.13 326.004C4524.13 240.096 4454.49 170.453 4368.58 170.453C4282.67 170.453 4213.03 240.096 4213.03 326.004C4213.03 411.912 4282.67 481.554 4368.58 481.554ZM4368.58 420.554C4420.8 420.554 4463.13 378.223 4463.13 326.004C4463.13 273.785 4420.8 231.454 4368.58 231.454C4316.36 231.454 4274.03 273.785 4274.03 326.004C4274.03 378.223 4316.36 420.554 4368.58 420.554Z" fill="#5DABFF"/>
</g>
<g clip-path="url(#clip4_1_11294)">
<rect width="1200" height="675" transform="translate(4681.14 0.761905) scale(0.975238)" fill="#F4F4EF"/>
<rect x="5258.48" y="0.761905" width="577.341" height="649.509" fill="#DDECE1"/>
<path d="M5258.93 242.621V650.713H4850.83L5258.93 242.621Z" fill="#5DABFF"/>
<path d="M5258.48 242.621V650.713H5666.58L5258.48 242.621Z" fill="#17497F"/>
<rect x="4681.14" y="242.164" width="396.465" height="24.7784" transform="rotate(-90 4681.14 242.164)" fill="#17497F"/>
<rect x="4730.7" y="242.164" width="396.465" height="24.7784" transform="rotate(-90 4730.7 242.164)" fill="#17497F"/>
<rect x="4780.26" y="242.164" width="396.465" height="24.7784" transform="rotate(-90 4780.26 242.164)" fill="#17497F"/>
<rect x="4829.81" y="242.164" width="396.465" height="24.7784" transform="rotate(-90 4829.81 242.164)" fill="#17497F"/>
<rect x="4879.37" y="242.164" width="396.465" height="24.7784" transform="rotate(-90 4879.37 242.164)" fill="#17497F"/>
<rect x="4928.93" y="242.164" width="396.465" height="24.7784" transform="rotate(-90 4928.93 242.164)" fill="#5DABFF"/>
<rect x="4978.48" y="242.164" width="396.465" height="24.7784" transform="rotate(-90 4978.48 242.164)" fill="#17497F"/>
<rect x="5028.04" y="242.164" width="396.465" height="24.7784" transform="rotate(-90 5028.04 242.164)" fill="#17497F"/>
<path fill-rule="evenodd" clip-rule="evenodd" d="M5742.2 285.531C5718.5 285.531 5699.29 266.32 5699.29 242.621C5699.29 218.922 5718.5 199.71 5742.2 199.71C5765.9 199.71 5785.11 218.922 5785.11 242.621C5785.11 266.32 5765.9 285.531 5742.2 285.531ZM5742.2 277.959C5722.69 277.959 5706.86 262.138 5706.86 242.621C5706.86 223.104 5722.69 207.283 5742.2 207.283C5761.72 207.283 5777.54 223.104 5777.54 242.621C5777.54 262.138 5761.72 277.959 5742.2 277.959Z" fill="#17497F"/>
<path fill-rule="evenodd" clip-rule="evenodd" d="M5699.29 285.531C5675.59 285.531 5656.38 266.32 5656.38 242.621C5656.38 218.922 5675.59 199.71 5699.29 199.71C5722.99 199.71 5742.2 218.922 5742.2 242.621C5742.2 266.32 5722.99 285.531 5699.29 285.531ZM5699.29 277.959C5679.77 277.959 5663.95 262.138 5663.95 242.621C5663.95 223.104 5679.77 207.283 5699.29 207.283C5718.81 207.283 5734.63 223.104 5734.63 242.621C5734.63 262.138 5718.81 277.959 5699.29 277.959Z" fill="#5DABFF"/>
<path fill-rule="evenodd" clip-rule="evenodd" d="M5656.38 285.531C5632.68 285.531 5613.47 266.32 5613.47 242.621C5613.47 218.922 5632.68 199.71 5656.38 199.71C5680.08 199.71 5699.29 218.922 5699.29 242.621C5699.29 266.32 5680.08 285.531 5656.38 285.531ZM5656.38 277.959C5636.86 277.959 5621.04 262.138 5621.04 242.621C5621.04 223.104 5636.86 207.283 5656.38 207.283C5675.9 207.283 5691.72 223.104 5691.72 242.621C5691.72 262.138 5675.9 277.959 5656.38 277.959Z" fill="#17497F"/>
<rect x="5797.79" y="199.71" width="38.0343" height="85.821" fill="#393A3D"/>
</g>
<g clip-path="url(#clip5_1_11294)">
<rect width="1200" height="675" transform="translate(5851.43 0.761905) scale(0.975238)" fill="#F4F4EF"/>
<rect x="5851.43" y="118.766" width="987.007" height="82.5948" fill="#17497F"/>
<rect x="5851.43" y="283.956" width="987.007" height="82.5948" fill="#17497F"/>
<rect x="5851.43" y="449.145" width="987.007" height="82.5948" fill="#17497F"/>
<rect x="6188.86" y="0.761905" width="817.25" height="649.509" fill="#DDECE1"/>
<circle cx="6597.38" cy="144.022" r="23.3054" transform="rotate(90 6597.38 144.022)" fill="#17497F"/>
<circle cx="6597.38" cy="216.528" r="23.3054" transform="rotate(90 6597.38 216.528)" fill="#17497F"/>
<circle cx="6597.38" cy="289.033" r="23.3054" transform="rotate(90 6597.38 289.033)" fill="#17497F"/>
<circle cx="6597.38" cy="361.54" r="23.3054" transform="rotate(90 6597.38 361.54)" fill="#17497F"/>
<circle cx="6597.38" cy="434.044" r="23.3054" transform="rotate(90 6597.38 434.044)" fill="#17497F"/>
<circle cx="6597.38" cy="506.551" r="23.3054" transform="rotate(90 6597.38 506.551)" fill="#17497F"/>
<path d="M6188.86 531.291C6302.51 531.291 6394.64 438.944 6394.64 325.029C6394.64 211.113 6302.51 118.766 6188.86 118.766L6188.86 531.291Z" fill="#5DABFF"/>
<path d="M7006.11 118.766C6892.46 118.766 6800.34 211.113 6800.34 325.029C6800.34 438.944 6892.46 531.291 7006.11 531.291L7006.11 118.766Z" fill="#5DABFF"/>
</g>
<g clip-path="url(#clip6_1_11294)">
<rect width="1200" height="675" transform="translate(7021.71 0.761905) scale(0.975238)" fill="#F4F4EF"/>
<rect x="7021.71" y="0.761905" width="766.537" height="649.509" fill="#DDECE1"/>
<rect x="7788.25" y="238.72" width="203.113" height="203.113" fill="#17497F"/>
<rect x="7991.1" y="153.874" width="84.8457" height="84.8457" fill="#5DABFF"/>
<rect x="7021.71" y="441.57" width="442.758" height="51.1023" transform="rotate(-90 7021.71 441.57)" fill="#17497F"/>
<rect x="7123.92" y="441.57" width="442.758" height="51.1023" transform="rotate(-90 7123.92 441.57)" fill="#17497F"/>
<rect x="7226.13" y="441.57" width="442.758" height="51.1023" transform="rotate(-90 7226.13 441.57)" fill="#17497F"/>
<rect x="7788.25" y="650.27" width="511.025" height="41.7395" transform="rotate(180 7788.25 650.27)" fill="#5DABFF"/>
<rect x="7788.25" y="566.789" width="511.025" height="41.7395" transform="rotate(180 7788.25 566.789)" fill="#5DABFF"/>
<rect x="7788.25" y="483.309" width="511.025" height="41.7395" transform="rotate(180 7788.25 483.309)" fill="#5DABFF"/>
</g>
<rect width="1200" height="675" transform="translate(8192 0.761905) scale(0.975238)" fill="#F4F4EF"/>
<line x1="8192" y1="220.846" x2="9346.68" y2="220.846" stroke="#5DABFF" stroke-width="2.65524"/>
<line x1="8192" y1="280.672" x2="9346.68" y2="280.672" stroke="#5DABFF" stroke-width="7.96573"/>
<line x1="8192" y1="346.349" x2="9346.68" y2="346.349" stroke="#5DABFF" stroke-width="13.2762"/>
<line x1="8192" y1="418.853" x2="9346.68" y2="418.853" stroke="#5DABFF" stroke-width="18.5867"/>
<path fill-rule="evenodd" clip-rule="evenodd" d="M8768.91 568.455C8903.32 568.455 9012.28 459.492 9012.28 325.081C9012.28 190.669 8903.32 81.7067 8768.91 81.7067C8634.49 81.7067 8525.53 190.669 8525.53 325.081C8525.53 459.492 8634.49 568.455 8768.91 568.455ZM8768.91 473.014C8850.61 473.014 8916.84 406.782 8916.84 325.081C8916.84 243.379 8850.61 177.147 8768.91 177.147C8687.2 177.147 8620.97 243.379 8620.97 325.081C8620.97 406.782 8687.2 473.014 8768.91 473.014Z" fill="#17497F"/>
<rect x="8192" y="426.941" width="1154.68" height="223.33" fill="#DDECE1"/>
<circle cx="8769.24" cy="464.875" r="23.3054" transform="rotate(90 8769.24 464.875)" fill="#5DABFF"/>
<circle cx="8769.24" cy="537.382" r="23.3054" transform="rotate(90 8769.24 537.382)" fill="#393A3D"/>
<circle cx="8769.24" cy="609.886" r="23.3054" transform="rotate(90 8769.24 609.886)" fill="#5DABFF"/>
<g clip-path="url(#clip7_1_11294)">
<rect width="1200" height="675" transform="translate(9362.29 0.761905) scale(0.975238)" fill="#F4F4EF"/>
<rect x="9362.29" y="0.761905" width="769.463" height="646.583" fill="#DDECE1"/>
<path fill-rule="evenodd" clip-rule="evenodd" d="M9533.44 286.507C9596.73 286.507 9648.03 235.203 9648.03 171.916C9648.03 108.63 9596.73 57.3257 9533.44 57.3257C9470.15 57.3257 9418.85 108.63 9418.85 171.916C9418.85 235.203 9470.15 286.507 9533.44 286.507ZM9533.44 241.569C9571.91 241.569 9603.09 210.385 9603.09 171.916C9603.09 133.448 9571.91 102.263 9533.44 102.263C9494.97 102.263 9463.79 133.448 9463.79 171.916C9463.79 210.385 9494.97 241.569 9533.44 241.569Z" fill="#393A3D"/>
<path d="M9747.5 326.491V650.27H9362.29L9747.5 326.491Z" fill="#5DABFF"/>
<path d="M10131.7 326.491V650.27H9747.5L10131.7 326.491Z" fill="#5DABFF"/>
<path d="M10517 326.491V650.27H10131.7L10517 326.491Z" fill="#5DABFF"/>
<path d="M10131.7 0.761905V326.491H9747.5L10131.7 0.761905Z" fill="#17497F"/>
<path d="M10517 0.761905V326.491H10131.7L10517 0.761905Z" fill="#17497F"/>
</g>
<g clip-path="url(#clip8_1_11294)">
<rect width="1200" height="675" transform="translate(10532.6 0.761905) scale(0.975238)" fill="#F4F4EF"/>
<rect x="10784.2" y="0.761905" width="903.07" height="649.509" fill="#DDECE1"/>
<path d="M11279.6 650.27C11279.6 560.861 11203.8 488.381 11110.4 488.381C11017 488.381 10941.2 560.861 10941.2 650.271L11007.6 650.27C11007.6 595.924 11053.6 551.867 11110.4 551.867C11167.2 551.867 11213.2 595.924 11213.2 650.27L11279.6 650.27Z" fill="#5DABFF"/>
<path d="M10941.2 325.516C10941.2 415.464 11017 488.381 11110.4 488.381C11203.8 488.381 11279.6 415.464 11279.6 325.516H11213.2C11213.2 380.19 11167.2 424.512 11110.4 424.512C11053.6 424.512 11007.6 380.19 11007.6 325.516H10941.2Z" fill="#5DABFF"/>
<path d="M11279.6 325.516C11279.6 236.107 11203.8 163.627 11110.4 163.627C11017 163.627 10941.2 236.107 10941.2 325.516L11007.6 325.516C11007.6 271.169 11053.6 227.113 11110.4 227.113C11167.2 227.113 11213.2 271.169 11213.2 325.516L11279.6 325.516Z" fill="#17497F"/>
<path d="M10941.2 0.761905C10941.2 90.7096 11017 163.627 11110.4 163.627C11203.8 163.627 11279.6 90.7096 11279.6 0.761905L11213.2 0.761905C11213.2 55.4361 11167.2 99.7582 11110.4 99.7582C11053.6 99.7582 11007.6 55.4361 11007.6 0.761905L10941.2 0.761905Z" fill="#17497F"/>
<path d="M10784.1 199.397L10658.1 325.411L10784.1 451.426L10784.1 199.397Z" fill="#393A3D"/>
<path d="M11688.1 199.397L11562.1 325.411L11688.1 451.426L11688.1 199.397Z" fill="#17497F"/>
<path d="M10658.6 199.397L10532.6 325.411L10658.6 451.426L10658.6 199.397Z" fill="#17497F"/>
<path d="M11562.6 199.397L11436.6 325.411L11562.6 451.426L11562.6 199.397Z" fill="#393A3D"/>
</g>
<g clip-path="url(#clip9_1_11294)">
<rect width="1200" height="675" transform="translate(11702.9 0.761905) scale(0.975238)" fill="#F4F4EF"/>
<path d="M11702.9 0.761905H12857.5V648.32L11702.9 0.761905Z" fill="#DDECE1"/>
<path fill-rule="evenodd" clip-rule="evenodd" d="M12820.4 29.5943C12835 5.3439 12835 -20.6257 12820.4 -44.8961L12860.7 -51.3371C12877.9 -22.8737 12877.9 7.58747 12860.7 36.0362C12860.7 36.0364 12860.7 36.036 12860.7 36.0362C12860.7 36.037 12860.7 36.0384 12860.7 36.0392L12841.7 67.5307C12827.1 91.8011 12827.1 117.772 12841.7 142.022L12841.7 142.025L12860.7 173.518C12860.7 173.519 12860.7 173.518 12860.7 173.518C12877.9 201.982 12877.9 232.443 12860.7 260.892C12860.7 260.893 12860.7 260.894 12860.7 260.895L12841.7 292.386C12827.1 316.657 12827.1 342.627 12841.7 366.878L12841.7 366.881L12860.7 398.374C12860.7 398.374 12860.7 398.374 12860.7 398.374C12877.9 426.837 12877.9 457.299 12860.7 485.747C12860.7 485.748 12860.7 485.749 12860.7 485.75L12841.7 517.242C12827.1 541.512 12827.1 567.483 12841.7 591.733L12841.7 591.736L12860.7 623.23C12860.7 623.23 12860.7 623.229 12860.7 623.23C12877.9 651.694 12877.9 682.157 12860.7 710.606L12820.4 704.161C12835 679.911 12835 653.941 12820.4 629.671L12801.4 598.178C12801.4 598.177 12801.4 598.176 12801.4 598.175C12784.2 569.727 12784.2 539.265 12801.4 510.802L12820.4 479.308L12820.4 479.306C12835 455.055 12835 429.086 12820.4 404.815L12801.4 373.323C12801.4 373.322 12801.4 373.321 12801.4 373.32C12784.2 344.871 12784.2 314.41 12801.4 285.947C12801.4 285.947 12801.4 285.948 12801.4 285.947L12820.4 254.45C12835 230.2 12835 204.23 12820.4 179.959L12801.4 148.467C12801.4 148.466 12801.4 148.465 12801.4 148.464C12784.2 120.016 12784.2 89.5548 12801.4 61.0917C12801.4 61.0913 12801.4 61.092 12801.4 61.0917L12820.4 29.5943Z" fill="#17497F"/>
<path fill-rule="evenodd" clip-rule="evenodd" d="M12742.4 29.5943C12757.1 5.3439 12757.1 -20.6257 12742.4 -44.8961L12782.8 -51.3371C12799.9 -22.8737 12799.9 7.58747 12782.8 36.0362C12782.8 36.0364 12782.8 36.036 12782.8 36.0362C12782.8 36.037 12782.8 36.0384 12782.8 36.0392L12763.8 67.5307C12749.2 91.8011 12749.2 117.772 12763.8 142.022L12763.8 142.025L12782.8 173.518C12782.8 173.519 12782.8 173.518 12782.8 173.518C12799.9 201.982 12799.9 232.443 12782.8 260.892C12782.8 260.893 12782.8 260.894 12782.8 260.895L12763.8 292.386C12749.2 316.657 12749.2 342.627 12763.8 366.878L12763.8 366.881L12782.8 398.374C12782.8 398.374 12782.8 398.374 12782.8 398.374C12799.9 426.837 12799.9 457.299 12782.8 485.747C12782.8 485.748 12782.8 485.749 12782.8 485.75L12763.8 517.242C12749.2 541.512 12749.2 567.483 12763.8 591.733L12763.8 591.736L12782.8 623.23C12782.8 623.23 12782.8 623.229 12782.8 623.23C12799.9 651.694 12799.9 682.157 12782.8 710.606L12742.4 704.161C12757.1 679.911 12757.1 653.941 12742.4 629.671L12723.5 598.178C12723.5 598.177 12723.5 598.176 12723.5 598.175C12706.3 569.727 12706.3 539.265 12723.5 510.802L12742.4 479.308L12742.4 479.306C12757.1 455.055 12757.1 429.086 12742.4 404.815L12723.5 373.323C12723.5 373.322 12723.5 373.321 12723.5 373.32C12706.3 344.871 12706.3 314.41 12723.5 285.947C12723.5 285.947 12723.5 285.948 12723.5 285.947L12742.4 254.45C12757.1 230.2 12757.1 204.23 12742.4 179.959L12723.5 148.467C12723.5 148.466 12723.5 148.465 12723.5 148.464C12706.3 120.016 12706.3 89.5548 12723.5 61.0917C12723.5 61.0913 12723.5 61.092 12723.5 61.0917L12742.4 29.5943Z" fill="#17497F"/>
<path fill-rule="evenodd" clip-rule="evenodd" d="M12664.5 29.5943C12679.1 5.3439 12679.1 -20.6257 12664.5 -44.8961L12704.9 -51.3371C12722 -22.8737 12722 7.58747 12704.9 36.0362C12704.9 36.0364 12704.9 36.036 12704.9 36.0362C12704.9 36.037 12704.9 36.0384 12704.9 36.0392L12685.9 67.5307C12671.3 91.8011 12671.3 117.772 12685.9 142.022L12685.9 142.025L12704.9 173.518C12704.9 173.519 12704.9 173.518 12704.9 173.518C12722 201.982 12722 232.443 12704.9 260.892C12704.9 260.893 12704.9 260.894 12704.9 260.895L12685.9 292.386C12671.3 316.657 12671.3 342.627 12685.9 366.878L12685.9 366.881L12704.9 398.374C12704.9 398.374 12704.9 398.374 12704.9 398.374C12722 426.837 12722 457.299 12704.9 485.747C12704.9 485.748 12704.9 485.749 12704.9 485.75L12685.9 517.242C12671.3 541.512 12671.3 567.483 12685.9 591.733L12685.9 591.736L12704.9 623.23C12704.9 623.23 12704.9 623.229 12704.9 623.23C12722 651.694 12722 682.157 12704.9 710.606L12664.5 704.161C12679.1 679.911 12679.1 653.941 12664.5 629.671L12645.5 598.178C12645.5 598.177 12645.5 598.176 12645.5 598.175C12628.4 569.727 12628.4 539.265 12645.5 510.802L12664.5 479.308L12664.5 479.306C12679.1 455.055 12679.1 429.086 12664.5 404.815L12645.5 373.323C12645.5 373.322 12645.5 373.321 12645.5 373.32C12628.4 344.871 12628.4 314.41 12645.5 285.947C12645.5 285.947 12645.5 285.948 12645.5 285.947L12664.5 254.45C12679.1 230.2 12679.1 204.23 12664.5 179.959L12645.5 148.467C12645.5 148.466 12645.5 148.465 12645.5 148.464C12628.4 120.016 12628.4 89.5548 12645.5 61.0917C12645.5 61.0913 12645.5 61.092 12645.5 61.0917L12664.5 29.5943Z" fill="#17497F"/>
<path fill-rule="evenodd" clip-rule="evenodd" d="M12586.6 29.5943C12601.2 5.3439 12601.2 -20.6257 12586.6 -44.8961L12626.9 -51.3371C12644.1 -22.8737 12644.1 7.58747 12626.9 36.0362C12626.9 36.0364 12626.9 36.036 12626.9 36.0362C12626.9 36.037 12626.9 36.0384 12626.9 36.0392L12607.9 67.5307C12593.3 91.8011 12593.3 117.772 12607.9 142.022L12607.9 142.025L12626.9 173.518C12626.9 173.519 12626.9 173.518 12626.9 173.518C12644.1 201.982 12644.1 232.443 12626.9 260.892C12626.9 260.893 12626.9 260.894 12626.9 260.895L12607.9 292.386C12593.3 316.657 12593.3 342.627 12607.9 366.878L12607.9 366.881L12626.9 398.374C12626.9 398.374 12626.9 398.374 12626.9 398.374C12644.1 426.837 12644.1 457.299 12626.9 485.747C12626.9 485.748 12626.9 485.749 12626.9 485.75L12607.9 517.242C12593.3 541.512 12593.3 567.483 12607.9 591.733L12607.9 591.736L12626.9 623.23C12626.9 623.23 12626.9 623.229 12626.9 623.23C12644.1 651.694 12644.1 682.157 12626.9 710.606L12586.6 704.161C12601.2 679.911 12601.2 653.941 12586.6 629.671L12567.6 598.178C12567.6 598.177 12567.6 598.176 12567.6 598.175C12550.4 569.727 12550.4 539.265 12567.6 510.802L12586.6 479.308L12586.6 479.306C12601.2 455.055 12601.2 429.086 12586.6 404.815L12567.6 373.323C12567.6 373.322 12567.6 373.321 12567.6 373.32C12550.4 344.871 12550.4 314.41 12567.6 285.947C12567.6 285.947 12567.6 285.948 12567.6 285.947L12586.6 254.45C12601.2 230.2 12601.2 204.23 12586.6 179.959L12567.6 148.467C12567.6 148.466 12567.6 148.465 12567.6 148.464C12550.4 120.016 12550.4 89.5548 12567.6 61.0917C12567.6 61.0913 12567.6 61.092 12567.6 61.0917L12586.6 29.5943Z" fill="#17497F"/>
<path fill-rule="evenodd" clip-rule="evenodd" d="M12508.6 29.5943C12523.3 5.3439 12523.3 -20.6257 12508.6 -44.8961L12549 -51.3371C12566.1 -22.8737 12566.1 7.58747 12549 36.0362C12549 36.0364 12549 36.036 12549 36.0362C12549 36.037 12549 36.0384 12549 36.0392L12530 67.5307C12515.4 91.8011 12515.4 117.772 12530 142.022L12530 142.025L12549 173.518C12549 173.519 12549 173.518 12549 173.518C12566.1 201.982 12566.1 232.443 12549 260.892C12549 260.893 12549 260.894 12549 260.895L12530 292.386C12515.4 316.657 12515.4 342.627 12530 366.878L12530 366.881L12549 398.374C12549 398.374 12549 398.374 12549 398.374C12566.1 426.837 12566.1 457.299 12549 485.747C12549 485.748 12549 485.749 12549 485.75L12530 517.242C12515.4 541.512 12515.4 567.483 12530 591.733L12530 591.736L12549 623.23C12549 623.23 12549 623.229 12549 623.23C12566.1 651.694 12566.1 682.157 12549 710.606L12508.6 704.161C12523.3 679.911 12523.3 653.941 12508.6 629.671L12489.7 598.178C12489.7 598.177 12489.7 598.176 12489.7 598.175C12472.5 569.727 12472.5 539.265 12489.7 510.802L12508.6 479.308L12508.6 479.306C12523.3 455.055 12523.3 429.086 12508.6 404.815L12489.7 373.323C12489.7 373.322 12489.7 373.321 12489.7 373.32C12472.5 344.871 12472.5 314.41 12489.7 285.947C12489.7 285.947 12489.7 285.948 12489.7 285.947L12508.6 254.45C12523.3 230.2 12523.3 204.23 12508.6 179.959L12489.7 148.467C12489.7 148.466 12489.7 148.465 12489.7 148.464C12472.5 120.016 12472.5 89.5548 12489.7 61.0917C12489.7 61.0913 12489.7 61.092 12489.7 61.0917L12508.6 29.5943Z" fill="#17497F"/>
<rect x="11702.9" y="425.966" width="224.305" height="224.305" fill="#5DABFF"/>
<path fill-rule="evenodd" clip-rule="evenodd" d="M12012.5 425.966C11965.4 425.966 11927.2 387.761 11927.2 340.632C11927.2 293.504 11965.4 255.299 12012.5 255.299C12059.6 255.299 12097.8 293.504 12097.8 340.632C12097.8 387.761 12059.6 425.966 12012.5 425.966ZM12012.5 392.502C11983.8 392.502 11960.6 369.279 11960.6 340.632C11960.6 311.986 11983.8 288.763 12012.5 288.763C12041.1 288.763 12064.4 311.986 12064.4 340.632C12064.4 369.279 12041.1 392.502 12012.5 392.502Z" fill="#17497F"/>
</g>
<g clip-path="url(#clip10_1_11294)">
<rect width="1200" height="675" transform="translate(12873.1 0.761905) scale(0.975238)" fill="#F4F4EF"/>
<rect x="13246.7" y="120.716" width="408.092" height="408.092" fill="#17497F"/>
<path d="M14027.8 0.761905H12873.1V648.32L14027.8 0.761905Z" fill="#DDECE1"/>
<mask id="mask0_1_11294" style="mask-type:alpha" maskUnits="userSpaceOnUse" x="12873" y="0" width="1155" height="649">
<path d="M14027.8 0.761905H12873.1V648.32L14027.8 0.761905Z" fill="#DDECE1"/>
</mask>
<g mask="url(#mask0_1_11294)">
<rect x="13246.7" y="120.716" width="408.092" height="408.092" fill="#5DABFF"/>
</g>
<rect x="14027.8" y="529.453" width="143.36" height="27.1841" transform="rotate(180 14027.8 529.453)" fill="#17497F"/>
<rect x="14027.8" y="475.084" width="143.36" height="27.1841" transform="rotate(180 14027.8 475.084)" fill="#17497F"/>
<rect x="14027.8" y="420.714" width="143.36" height="27.1841" transform="rotate(180 14027.8 420.714)" fill="#17497F"/>
<rect x="14027.8" y="366.349" width="143.36" height="27.1841" transform="rotate(180 14027.8 366.349)" fill="#17497F"/>
<rect x="14027.8" y="311.979" width="143.36" height="27.1841" transform="rotate(180 14027.8 311.979)" fill="#5DABFF"/>
<rect x="14027.8" y="257.61" width="143.36" height="27.1841" transform="rotate(180 14027.8 257.61)" fill="#17497F"/>
<rect x="14027.8" y="203.246" width="143.36" height="27.1841" transform="rotate(180 14027.8 203.246)" fill="#17497F"/>
<rect x="14027.8" y="148.876" width="143.36" height="27.1841" transform="rotate(180 14027.8 148.876)" fill="#17497F"/>
</g>
<g clip-path="url(#clip11_1_11294)">
<rect width="1200" height="675" transform="translate(14043.4 0.761905) scale(0.975238)" fill="#F4F4EF"/>
<rect x="14043.4" y="0.761905" width="769.463" height="649.509" fill="#DDECE1"/>
<path fill-rule="evenodd" clip-rule="evenodd" d="M14148.4 313.051C14107.5 297.792 14063.8 297.791 14022.9 313.051L14017.7 292.877C14062 276.353 14109.3 276.352 14153.6 292.877C14153.6 292.877 14153.6 292.876 14153.6 292.877L14204.4 311.853C14245.3 327.113 14289 327.112 14329.8 311.853L14380.7 292.877C14380.7 292.877 14380.7 292.877 14380.7 292.877C14424.9 276.354 14472.3 276.352 14516.5 292.877C14516.5 292.877 14516.5 292.876 14516.5 292.877L14567.3 311.853C14608.2 327.113 14651.9 327.112 14692.8 311.853L14743.6 292.877C14743.6 292.877 14743.6 292.877 14743.6 292.877C14787.9 276.354 14835.2 276.352 14879.4 292.877C14879.4 292.877 14879.4 292.876 14879.4 292.877L14930.3 311.853C14971.1 327.113 15014.9 327.112 15055.7 311.853L15106.5 292.877C15150.8 276.353 15198.2 276.352 15242.4 292.878L15237.2 313.051C15196.3 297.792 15152.6 297.791 15111.7 313.051L15060.9 332.026C15060.9 332.027 15060.9 332.026 15060.9 332.026C15016.7 348.551 14969.3 348.551 14925.1 332.027L14874.2 313.052C14833.4 297.793 14789.7 297.791 14748.8 313.051L14698 332.026C14653.7 348.552 14606.4 348.551 14562.1 332.027C14562.1 332.027 14562.1 332.027 14562.1 332.027L14511.3 313.052C14470.5 297.793 14426.7 297.791 14385.9 313.051L14335 332.026C14290.8 348.552 14243.5 348.551 14199.2 332.027C14199.2 332.027 14199.2 332.027 14199.2 332.027L14148.4 313.051Z" fill="#5DABFF"/>
<path fill-rule="evenodd" clip-rule="evenodd" d="M14148.4 390.988C14107.5 375.729 14063.8 375.728 14022.9 390.988L14017.7 370.814C14062 354.29 14109.3 354.289 14153.6 370.814C14153.6 370.814 14153.6 370.814 14153.6 370.814L14204.4 389.79C14245.3 405.05 14289 405.05 14329.8 389.791L14380.7 370.814C14380.7 370.814 14380.7 370.814 14380.7 370.814C14424.9 354.291 14472.3 354.29 14516.5 370.814C14516.5 370.814 14516.5 370.814 14516.5 370.814L14567.3 389.79C14608.2 405.05 14651.9 405.05 14692.8 389.791L14743.6 370.814C14743.6 370.814 14743.6 370.814 14743.6 370.814C14787.9 354.291 14835.2 354.29 14879.4 370.814C14879.4 370.814 14879.4 370.814 14879.4 370.814L14930.3 389.79C14971.1 405.05 15014.9 405.05 15055.7 389.791L15106.5 370.814C15150.8 354.29 15198.2 354.289 15242.4 370.815L15237.2 390.988C15196.3 375.729 15152.6 375.728 15111.7 390.988L15060.9 409.964C15060.9 409.964 15060.9 409.963 15060.9 409.964C15016.7 426.488 14969.3 426.488 14925.1 409.964L14874.2 390.989C14833.4 375.73 14789.7 375.728 14748.8 390.988L14698 409.964C14653.7 426.489 14606.4 426.488 14562.1 409.965C14562.1 409.964 14562.1 409.965 14562.1 409.965L14511.3 390.989C14470.5 375.73 14426.7 375.728 14385.9 390.988L14335 409.964C14290.8 426.489 14243.5 426.488 14199.2 409.965C14199.2 409.964 14199.2 409.965 14199.2 409.965L14148.4 390.988Z" fill="#5DABFF"/>
<path fill-rule="evenodd" clip-rule="evenodd" d="M14148.4 468.923C14107.5 453.664 14063.8 453.663 14022.9 468.924L14017.7 448.749C14062 432.226 14109.3 432.225 14153.6 448.749C14153.6 448.749 14153.6 448.749 14153.6 448.749L14204.4 467.725C14245.3 482.985 14289 482.985 14329.8 467.726L14380.7 448.749C14380.7 448.749 14380.7 448.75 14380.7 448.749C14424.9 432.226 14472.3 432.225 14516.5 448.749C14516.5 448.749 14516.5 448.749 14516.5 448.749L14567.3 467.725C14608.2 482.985 14651.9 482.985 14692.8 467.726L14743.6 448.749C14743.6 448.749 14743.6 448.75 14743.6 448.749C14787.9 432.226 14835.2 432.225 14879.4 448.749C14879.4 448.749 14879.4 448.749 14879.4 448.749L14930.3 467.725C14971.1 482.985 15014.9 482.985 15055.7 467.726L15106.5 448.749C15150.8 432.225 15198.2 432.225 15242.4 448.75L15237.2 468.923C15196.3 453.664 15152.6 453.663 15111.7 468.924L15060.9 487.899C15060.9 487.899 15060.9 487.899 15060.9 487.899C15016.7 504.423 14969.3 504.423 14925.1 487.899L14874.2 468.924C14833.4 453.665 14789.7 453.663 14748.8 468.924L14698 487.899C14653.7 504.424 14606.4 504.424 14562.1 487.9C14562.1 487.9 14562.1 487.9 14562.1 487.9L14511.3 468.924C14470.5 453.665 14426.7 453.663 14385.9 468.924L14335 487.899C14290.8 504.424 14243.5 504.424 14199.2 487.9C14199.2 487.9 14199.2 487.9 14199.2 487.9L14148.4 468.923Z" fill="#393A3D"/>
<path fill-rule="evenodd" clip-rule="evenodd" d="M14148.4 546.86C14107.5 531.601 14063.8 531.601 14022.9 546.861L14017.7 526.687C14062 510.163 14109.3 510.162 14153.6 526.686C14153.6 526.687 14153.6 526.686 14153.6 526.686L14204.4 545.662C14245.3 560.922 14289 560.922 14329.8 545.663L14380.7 526.687C14380.7 526.686 14380.7 526.687 14380.7 526.687C14424.9 510.163 14472.3 510.162 14516.5 526.686C14516.5 526.687 14516.5 526.686 14516.5 526.686L14567.3 545.662C14608.2 560.922 14651.9 560.922 14692.8 545.663L14743.6 526.687C14743.6 526.686 14743.6 526.687 14743.6 526.687C14787.9 510.163 14835.2 510.162 14879.4 526.686C14879.4 526.687 14879.4 526.686 14879.4 526.686L14930.3 545.662C14971.1 560.922 15014.9 560.922 15055.7 545.663L15106.5 526.687C15150.8 510.162 15198.2 510.162 15242.4 526.687L15237.2 546.86C15196.3 531.601 15152.6 531.601 15111.7 546.861L15060.9 565.836C15060.9 565.836 15060.9 565.836 15060.9 565.836C15016.7 582.36 14969.3 582.36 14925.1 565.837L14874.2 546.861C14833.4 531.602 14789.7 531.601 14748.8 546.861L14698 565.836C14653.7 582.361 14606.4 582.361 14562.1 565.837C14562.1 565.837 14562.1 565.837 14562.1 565.837L14511.3 546.861C14470.5 531.602 14426.7 531.601 14385.9 546.861L14335 565.836C14290.8 582.361 14243.5 582.361 14199.2 565.837C14199.2 565.837 14199.2 565.837 14199.2 565.837L14148.4 546.86Z" fill="#5DABFF"/>
<path fill-rule="evenodd" clip-rule="evenodd" d="M14148.4 624.794C14107.5 609.535 14063.8 609.534 14022.9 624.794L14017.7 604.62C14062 588.096 14109.3 588.095 14153.6 604.62C14153.6 604.62 14153.6 604.619 14153.6 604.62L14204.4 623.595C14245.3 638.856 14289 638.855 14329.8 623.596L14380.7 604.62C14380.7 604.62 14380.7 604.62 14380.7 604.62C14424.9 588.096 14472.3 588.095 14516.5 604.62C14516.5 604.62 14516.5 604.619 14516.5 604.62L14567.3 623.595C14608.2 638.856 14651.9 638.855 14692.8 623.596L14743.6 604.62C14743.6 604.62 14743.6 604.62 14743.6 604.62C14787.9 588.096 14835.2 588.095 14879.4 604.62C14879.4 604.62 14879.4 604.619 14879.4 604.62L14930.3 623.595C14971.1 638.856 15014.9 638.855 15055.7 623.596L15106.5 604.62C15150.8 588.096 15198.2 588.095 15242.4 604.621L15237.2 624.794C15196.3 609.535 15152.6 609.534 15111.7 624.794L15060.9 643.769C15060.9 643.77 15060.9 643.769 15060.9 643.769C15016.7 660.294 14969.3 660.294 14925.1 643.77L14874.2 624.794C14833.4 609.535 14789.7 609.534 14748.8 624.794L14698 643.769C14653.7 660.295 14606.4 660.294 14562.1 643.77C14562.1 643.77 14562.1 643.77 14562.1 643.77L14511.3 624.794C14470.5 609.535 14426.7 609.534 14385.9 624.794L14335 643.769C14290.8 660.295 14243.5 660.294 14199.2 643.77C14199.2 643.77 14199.2 643.77 14199.2 643.77L14148.4 624.794Z" fill="#5DABFF"/>
<path fill-rule="evenodd" clip-rule="evenodd" d="M14255.5 242.621C14208.4 242.621 14170.2 204.416 14170.2 157.288C14170.2 110.159 14208.4 71.9543 14255.5 71.9543C14302.7 71.9543 14340.9 110.159 14340.9 157.288C14340.9 204.416 14302.7 242.621 14255.5 242.621ZM14255.5 209.157C14226.9 209.157 14203.7 185.934 14203.7 157.288C14203.7 128.641 14226.9 105.418 14255.5 105.418C14284.2 105.418 14307.4 128.641 14307.4 157.288C14307.4 185.934 14284.2 209.157 14255.5 209.157Z" fill="#17497F"/>
<path fill-rule="evenodd" clip-rule="evenodd" d="M14622.2 242.621C14575.1 242.621 14536.9 204.416 14536.9 157.288C14536.9 110.159 14575.1 71.9543 14622.2 71.9543C14669.4 71.9543 14707.6 110.159 14707.6 157.288C14707.6 204.416 14669.4 242.621 14622.2 242.621ZM14622.2 209.157C14593.6 209.157 14570.4 185.934 14570.4 157.288C14570.4 128.641 14593.6 105.418 14622.2 105.418C14650.9 105.418 14674.1 128.641 14674.1 157.288C14674.1 185.934 14650.9 209.157 14622.2 209.157Z" fill="#17497F"/>
<path fill-rule="evenodd" clip-rule="evenodd" d="M14988.9 242.621C14941.8 242.621 14903.6 204.416 14903.6 157.288C14903.6 110.159 14941.8 71.9543 14988.9 71.9543C15036.1 71.9543 15074.3 110.159 15074.3 157.288C15074.3 204.416 15036.1 242.621 14988.9 242.621ZM14988.9 209.157C14960.3 209.157 14937.1 185.934 14937.1 157.288C14937.1 128.641 14960.3 105.418 14988.9 105.418C15017.6 105.418 15040.8 128.641 15040.8 157.288C15040.8 185.934 15017.6 209.157 14988.9 209.157Z" fill="#17497F"/>
</g>
<g clip-path="url(#clip12_1_11294)">
<rect width="1200" height="675" transform="translate(15213.7 0.761905) scale(0.975238)" fill="#F4F4EF"/>
<rect x="15791.1" y="0.761905" width="577.341" height="649.509" fill="#DDECE1"/>
<path fill-rule="evenodd" clip-rule="evenodd" d="M15798.9 1225.66C16117.7 1225.66 16376.2 967.176 16376.2 648.32C16376.2 329.464 16117.7 70.979 15798.9 70.979C15480 70.979 15221.5 329.464 15221.5 648.32C15221.5 967.176 15480 1225.66 15798.9 1225.66ZM15798.9 999.253C15992.7 999.253 16149.8 842.135 16149.8 648.32C16149.8 454.505 15992.7 297.387 15798.9 297.387C15605 297.387 15447.9 454.505 15447.9 648.32C15447.9 842.135 15605 999.253 15798.9 999.253Z" fill="#5DABFF"/>
<path fill-rule="evenodd" clip-rule="evenodd" d="M15799.3 736.091C15752.2 736.091 15714 697.886 15714 650.758C15714 603.63 15752.2 565.425 15799.3 565.425C15846.5 565.425 15884.7 603.63 15884.7 650.758C15884.7 697.886 15846.5 736.091 15799.3 736.091ZM15799.3 702.627C15770.7 702.627 15747.5 679.405 15747.5 650.758C15747.5 622.111 15770.7 598.889 15799.3 598.889C15828 598.889 15851.2 622.111 15851.2 650.758C15851.2 679.405 15828 702.627 15799.3 702.627Z" fill="#17497F"/>
<path fill-rule="evenodd" clip-rule="evenodd" d="M15799.3 915.535C15653.1 915.535 15534.6 796.99 15534.6 650.758C15534.6 504.526 15653.1 385.981 15799.3 385.981C15945.6 385.981 16064.1 504.526 16064.1 650.758C16064.1 796.99 15945.6 915.535 15799.3 915.535ZM15799.3 811.701C15710.5 811.701 15638.4 739.645 15638.4 650.758C15638.4 561.872 15710.5 489.815 15799.3 489.815C15888.2 489.815 15960.3 561.872 15960.3 650.758C15960.3 739.645 15888.2 811.701 15799.3 811.701Z" fill="#393A3D"/>
</g>
<g clip-path="url(#clip13_1_11294)">
<rect width="1200" height="675" transform="translate(16384 0.761905) scale(0.975238)" fill="#F4F4EF"/>
<rect x="16384" y="0.761905" width="1154.68" height="223.33" fill="#DDECE1"/>
<rect x="16672.7" y="223.829" width="223.067" height="38.4894" transform="rotate(-90 16672.7 223.829)" fill="#5DABFF"/>
<rect x="16749.6" y="223.829" width="223.067" height="38.4894" transform="rotate(-90 16749.6 223.829)" fill="#5DABFF"/>
<rect x="16826.6" y="223.829" width="223.067" height="38.4894" transform="rotate(-90 16826.6 223.829)" fill="#5DABFF"/>
<rect x="16903.6" y="223.829" width="223.067" height="38.4894" transform="rotate(-90 16903.6 223.829)" fill="#17497F"/>
<rect x="16980.1" y="223.829" width="223.067" height="38.4894" transform="rotate(-90 16980.1 223.829)" fill="#17497F"/>
<rect x="17057.6" y="223.829" width="223.067" height="38.4894" transform="rotate(-90 17057.6 223.829)" fill="#5DABFF"/>
<rect x="17134.5" y="223.829" width="223.067" height="38.4894" transform="rotate(-90 17134.5 223.829)" fill="#5DABFF"/>
<rect x="17211.5" y="223.829" width="223.067" height="38.4894" transform="rotate(-90 17211.5 223.829)" fill="#5DABFF"/>
<path d="M17249.8 223.986L16961.2 512.551L16672.7 223.986H17249.8Z" fill="#5DABFF"/>
<path d="M17074.6 224.304L16961.2 337.644L16847.9 224.304H17074.6Z" fill="#17497F"/>
<rect x="16384" y="537.143" width="1154.68" height="113.128" fill="#DDECE1"/>
<path d="M17076.3 537.355L16960.7 650.695L16845 537.355H17076.3Z" fill="#393A3D"/>
<path d="M16845.8 537.355L16730.2 650.695L16614.5 537.355H16845.8Z" fill="#393A3D"/>
<path d="M16615.3 537.355L16499.6 650.695L16384 537.355H16615.3Z" fill="#393A3D"/>
<path d="M17307.5 537.355L17191.9 650.695L17076.2 537.355H17307.5Z" fill="#393A3D"/>
<path d="M17538.7 537.355L17423 650.695L17307.4 537.355H17538.7Z" fill="#393A3D"/>
</g>
<g clip-path="url(#clip14_1_11294)">
<rect width="1200" height="675" transform="translate(17554.3 0.761905) scale(0.975238)" fill="#F4F4EF"/>
<path d="M17564 0.761905H18709V651.246H18086.8V345.936L17564 0.761905Z" fill="#DDECE1"/>
<path fill-rule="evenodd" clip-rule="evenodd" d="M18527.4 801.373C18512.8 825.624 18512.8 851.593 18527.4 875.864L18487.1 882.305C18469.9 853.841 18469.9 823.38 18487.1 794.931C18487.1 794.931 18487.1 794.932 18487.1 794.931C18487.1 794.931 18487.1 794.929 18487.1 794.928L18506 763.437C18520.7 739.167 18520.7 713.196 18506 688.945L18506 688.943L18487.1 657.449C18487.1 657.449 18487.1 657.449 18487.1 657.449C18469.9 628.986 18469.9 598.524 18487.1 570.076C18487.1 570.075 18487.1 570.074 18487.1 570.073L18506 538.581C18520.7 514.311 18520.7 488.34 18506 464.09L18506 464.087L18487.1 432.593C18487.1 432.593 18487.1 432.594 18487.1 432.593C18469.9 404.13 18469.9 373.669 18487.1 345.22C18487.1 345.219 18487.1 345.218 18487.1 345.217L18506 313.726C18520.7 289.455 18520.7 263.485 18506 239.234L18506 239.231L18487.1 207.738C18487.1 207.738 18487.1 207.738 18487.1 207.738C18469.9 179.274 18469.9 148.811 18487.1 120.362L18527.4 126.807C18512.8 151.057 18512.8 177.026 18527.4 201.297L18546.4 232.789C18546.4 232.79 18546.4 232.791 18546.4 232.792C18563.6 261.241 18563.5 291.702 18546.4 320.166L18527.4 351.659L18527.4 351.662C18512.8 375.912 18512.8 401.882 18527.4 426.153L18546.4 457.645C18546.4 457.646 18546.4 457.647 18546.4 457.648C18563.6 486.096 18563.5 516.557 18546.4 545.02C18546.4 545.021 18546.4 545.02 18546.4 545.02L18527.4 576.518C18512.8 600.768 18512.8 626.738 18527.4 651.008L18546.4 682.501C18546.4 682.502 18546.4 682.503 18546.4 682.504C18563.6 710.952 18563.5 741.413 18546.4 769.876C18546.4 769.876 18546.4 769.876 18546.4 769.876L18527.4 801.373Z" fill="#393A3D"/>
<path fill-rule="evenodd" clip-rule="evenodd" d="M18404.2 801.373C18389.5 825.624 18389.5 851.593 18404.2 875.864L18363.8 882.305C18346.7 853.841 18346.7 823.38 18363.8 794.931C18363.8 794.931 18363.8 794.932 18363.8 794.931C18363.8 794.931 18363.8 794.929 18363.8 794.928L18382.8 763.437C18397.4 739.167 18397.4 713.196 18382.8 688.945L18382.8 688.943L18363.8 657.449C18363.8 657.449 18363.8 657.449 18363.8 657.449C18346.7 628.986 18346.7 598.524 18363.8 570.076C18363.8 570.075 18363.8 570.074 18363.8 570.073L18382.8 538.581C18397.4 514.311 18397.4 488.34 18382.8 464.09L18382.8 464.087L18363.8 432.593C18363.8 432.593 18363.8 432.594 18363.8 432.593C18346.7 404.13 18346.7 373.669 18363.8 345.22C18363.8 345.219 18363.8 345.218 18363.8 345.217L18382.8 313.726C18397.4 289.455 18397.4 263.485 18382.8 239.234L18382.8 239.231L18363.8 207.738C18363.8 207.738 18363.8 207.738 18363.8 207.738C18346.7 179.274 18346.7 148.811 18363.8 120.362L18404.2 126.807C18389.5 151.057 18389.5 177.026 18404.2 201.297L18423.1 232.789C18423.1 232.79 18423.1 232.791 18423.1 232.792C18440.3 261.241 18440.3 291.702 18423.1 320.166L18404.2 351.659L18404.2 351.662C18389.5 375.912 18389.5 401.882 18404.2 426.153L18423.1 457.645C18423.1 457.646 18423.1 457.647 18423.1 457.648C18440.3 486.096 18440.3 516.557 18423.1 545.02C18423.1 545.021 18423.1 545.02 18423.1 545.02L18404.2 576.518C18389.5 600.768 18389.5 626.738 18404.2 651.008L18423.1 682.501C18423.1 682.502 18423.1 682.503 18423.1 682.504C18440.3 710.952 18440.3 741.413 18423.1 769.876C18423.1 769.876 18423.1 769.876 18423.1 769.876L18404.2 801.373Z" fill="#5DABFF"/>
<path fill-rule="evenodd" clip-rule="evenodd" d="M18650.3 801.373C18635.7 825.624 18635.7 851.593 18650.3 875.864L18609.9 882.305C18592.8 853.841 18592.8 823.38 18609.9 794.931C18609.9 794.931 18609.9 794.932 18609.9 794.931C18609.9 794.931 18609.9 794.929 18609.9 794.928L18628.9 763.437C18643.5 739.167 18643.5 713.196 18628.9 688.945L18628.9 688.943L18609.9 657.449C18609.9 657.449 18609.9 657.449 18609.9 657.449C18592.8 628.986 18592.8 598.524 18609.9 570.076C18609.9 570.075 18609.9 570.074 18609.9 570.073L18628.9 538.581C18643.5 514.311 18643.5 488.34 18628.9 464.09L18628.9 464.087L18609.9 432.593C18609.9 432.593 18609.9 432.594 18609.9 432.593C18592.8 404.13 18592.8 373.669 18609.9 345.22C18609.9 345.219 18609.9 345.218 18609.9 345.217L18628.9 313.726C18643.5 289.455 18643.5 263.485 18628.9 239.234L18628.9 239.231L18609.9 207.738C18609.9 207.738 18609.9 207.738 18609.9 207.738C18592.8 179.274 18592.8 148.811 18609.9 120.362L18650.3 126.807C18635.7 151.057 18635.7 177.026 18650.3 201.297L18669.3 232.789C18669.3 232.79 18669.3 232.791 18669.3 232.792C18686.4 261.241 18686.4 291.702 18669.3 320.166L18650.3 351.659L18650.3 351.662C18635.7 375.912 18635.7 401.882 18650.3 426.153L18669.3 457.645C18669.3 457.646 18669.3 457.647 18669.3 457.648C18686.4 486.096 18686.4 516.557 18669.3 545.02C18669.3 545.021 18669.3 545.02 18669.3 545.02L18650.3 576.518C18635.7 600.768 18635.7 626.738 18650.3 651.008L18669.3 682.501C18669.3 682.502 18669.3 682.503 18669.3 682.504C18686.4 710.952 18686.4 741.413 18669.3 769.876C18669.3 769.876 18669.3 769.876 18669.3 769.876L18650.3 801.373Z" fill="#5DABFF"/>
<path fill-rule="evenodd" clip-rule="evenodd" d="M17619.6 1282.22C17978.9 1282.22 18270.1 990.993 18270.1 631.741C18270.1 272.489 17978.9 -18.7429 17619.6 -18.7429C17260.4 -18.7429 16969.1 272.489 16969.1 631.741C16969.1 990.993 17260.4 1282.22 17619.6 1282.22ZM17619.6 1027.13C17838 1027.13 18015 850.11 18015 631.741C18015 413.372 17838 236.349 17619.6 236.349C17401.3 236.349 17224.2 413.372 17224.2 631.741C17224.2 850.11 17401.3 1027.13 17619.6 1027.13Z" fill="#5DABFF"/>
<rect x="18315.9" y="59.2762" width="87.06" height="87.06" fill="#5DABFF"/>
<rect x="18439.8" y="59.2762" width="87.06" height="87.06" fill="#393A3D"/>
<rect x="18563.7" y="59.2762" width="87.06" height="87.06" fill="#5DABFF"/>
<path d="M17661.6 350.872V542.994H17831.3L17661.6 350.872Z" fill="#17497F"/>
</g>
<g clip-path="url(#clip15_1_11294)">
<rect width="1200" height="675" transform="translate(18724.6 0.761905) scale(0.975238)" fill="#F4F4EF"/>
<rect x="19089.3" y="0.761905" width="789.943" height="649.509" fill="#DDECE1"/>
<path d="M18724.6 494.385C18818 494.385 18893.7 418.682 18893.7 325.297C18893.7 231.913 18818 156.21 18724.6 156.21L18724.6 222.519C18781.3 222.519 18827.4 268.534 18827.4 325.297C18827.4 382.06 18781.3 428.076 18724.6 428.076L18724.6 494.385Z" fill="#5DABFF"/>
<path d="M19879.6 156.21C19786.2 156.21 19710.5 231.913 19710.5 325.297C19710.5 418.681 19786.2 494.384 19879.6 494.384L19879.6 428.076C19822.9 428.076 19776.8 382.06 19776.8 325.297C19776.8 268.534 19822.9 222.518 19879.6 222.518L19879.6 156.21Z" fill="#17497F"/>
<path d="M19458.3 156.211C19364.9 156.211 19289.2 231.915 19289.2 325.299C19289.2 418.683 19364.9 494.386 19458.3 494.386L19458.3 428.077C19401.6 428.077 19355.5 382.062 19355.5 325.299C19355.5 268.536 19401.6 222.52 19458.3 222.52L19458.3 156.211Z" fill="#17497F"/>
<path d="M19458 494.002C19551.3 494.002 19627 418.299 19627 324.914C19627 231.53 19551.3 155.827 19458 155.827L19458 222.136C19514.7 222.136 19560.7 268.151 19560.7 324.914C19560.7 381.678 19514.7 427.693 19458 427.693L19458 494.002Z" fill="#5DABFF"/>
<circle cx="18956.2" cy="319.177" r="17.0667" fill="#393A3D"/>
<circle cx="19009.3" cy="319.177" r="17.0667" fill="#393A3D"/>
<circle cx="19062.4" cy="319.177" r="17.0667" fill="#393A3D"/>
<circle cx="19115.5" cy="319.177" r="17.0667" fill="#393A3D"/>
<circle cx="19168.6" cy="319.177" r="17.0667" fill="#393A3D"/>
<circle cx="19221.7" cy="319.177" r="17.0667" fill="#393A3D"/>
</g>
<g clip-path="url(#clip16_1_11294)">
<rect width="1200" height="675" transform="translate(19894.9 0.761905) scale(0.975238)" fill="#F4F4EF"/>
<rect x="20197.2" y="0.761905" width="852.358" height="649.509" fill="#DDECE1"/>
<path d="M20647.7 0.761905C20647.7 94.1462 20723.4 169.849 20816.8 169.849C20910.2 169.849 20985.9 94.1462 20985.9 0.761905H20919.6C20919.6 57.525 20873.6 103.541 20816.8 103.541C20760.1 103.541 20714 57.525 20714 0.761905H20647.7Z" fill="#5DABFF"/>
<path d="M20197 250.423L20435 659.556H19959L20197 250.423Z" fill="#5DABFF"/>
<rect x="20149.4" y="122.402" width="67.2061" height="67.2061" transform="rotate(-45 20149.4 122.402)" fill="#17497F"/>
<rect x="20630.2" y="721.981" width="396.465" height="24.7784" transform="rotate(-90 20630.2 721.981)" fill="#17497F"/>
<rect x="20679.7" y="721.981" width="396.465" height="24.7784" transform="rotate(-90 20679.7 721.981)" fill="#17497F"/>
<rect x="20729.3" y="721.981" width="396.465" height="24.7784" transform="rotate(-90 20729.3 721.981)" fill="#17497F"/>
<rect x="20778.9" y="721.981" width="396.465" height="24.7784" transform="rotate(-90 20778.9 721.981)" fill="#17497F"/>
<rect x="20828.4" y="721.981" width="396.465" height="24.7784" transform="rotate(-90 20828.4 721.981)" fill="#17497F"/>
<rect x="20878" y="721.981" width="396.465" height="24.7784" transform="rotate(-90 20878 721.981)" fill="#17497F"/>
<rect x="20927.5" y="721.981" width="396.465" height="24.7784" transform="rotate(-90 20927.5 721.981)" fill="#17497F"/>
<rect x="20977.1" y="721.981" width="396.465" height="24.7784" transform="rotate(-90 20977.1 721.981)" fill="#17497F"/>
</g>
<g clip-path="url(#clip17_1_11294)">
<rect width="1200" height="675" transform="translate(21065.1 0.761905) scale(0.975238)" fill="#F4F4EF"/>
<rect x="21065.1" y="0.761905" width="863.086" height="649.509" fill="#DDECE1"/>
<path fill-rule="evenodd" clip-rule="evenodd" d="M21555.3 30.2953C21575.2 6.04485 21575.2 -19.9248 21555.3 -44.1952L21610.3 -50.6362C21633.6 -22.1727 21633.6 8.28842 21610.3 36.7372C21610.3 36.7374 21610.3 36.7369 21610.3 36.7372C21610.3 36.7379 21610.3 36.7394 21610.3 36.7401L21584.4 68.2316C21564.5 92.502 21564.5 118.473 21584.4 142.723L21584.4 142.726L21610.3 174.219C21610.3 174.22 21610.3 174.219 21610.3 174.219C21633.6 202.683 21633.6 233.144 21610.3 261.593C21610.3 261.594 21610.3 261.595 21610.3 261.596L21584.4 293.087C21564.5 317.358 21564.5 343.328 21584.4 367.579L21584.4 367.582L21610.3 399.075C21610.3 399.075 21610.3 399.075 21610.3 399.075C21633.6 427.538 21633.6 458 21610.3 486.448C21610.3 486.449 21610.3 486.45 21610.3 486.451L21584.4 517.943C21564.5 542.213 21564.5 568.184 21584.4 592.434L21584.4 592.437L21610.3 623.931C21610.3 623.931 21610.3 623.93 21610.3 623.931C21633.6 652.395 21633.6 682.858 21610.3 711.307L21555.3 704.862C21575.2 680.612 21575.2 654.642 21555.3 630.372L21529.4 598.879C21529.4 598.878 21529.4 598.877 21529.4 598.876C21506.1 570.428 21506.1 539.966 21529.4 511.503L21555.3 480.009L21555.3 480.006C21575.2 455.756 21575.2 429.787 21555.3 405.516L21529.4 374.024C21529.4 374.023 21529.4 374.022 21529.4 374.021C21506.1 345.572 21506.1 315.111 21529.4 286.648C21529.4 286.648 21529.4 286.649 21529.4 286.648L21555.3 255.151C21575.2 230.9 21575.2 204.931 21555.3 180.66L21529.4 149.168C21529.4 149.167 21529.4 149.166 21529.4 149.165C21506.1 120.717 21506.1 90.2558 21529.4 61.7926C21529.4 61.7923 21529.4 61.793 21529.4 61.7926L21555.3 30.2953Z" fill="#17497F"/>
<path fill-rule="evenodd" clip-rule="evenodd" d="M21448.8 30.2953C21468.7 6.04485 21468.7 -19.9248 21448.8 -44.1952L21503.8 -50.6362C21527.1 -22.1727 21527.1 8.28842 21503.8 36.7372C21503.8 36.7374 21503.8 36.7369 21503.8 36.7372C21503.8 36.7379 21503.8 36.7394 21503.8 36.7401L21477.9 68.2316C21458 92.502 21458 118.473 21477.9 142.723L21477.9 142.726L21503.8 174.219C21503.8 174.22 21503.8 174.219 21503.8 174.219C21527.1 202.683 21527.1 233.144 21503.8 261.593C21503.8 261.594 21503.8 261.595 21503.8 261.596L21477.9 293.087C21458 317.358 21458 343.328 21477.9 367.579L21477.9 367.582L21503.8 399.075C21503.8 399.075 21503.8 399.075 21503.8 399.075C21527.1 427.538 21527.1 458 21503.8 486.448C21503.8 486.449 21503.8 486.45 21503.8 486.451L21477.9 517.943C21458 542.213 21458 568.184 21477.9 592.434L21477.9 592.437L21503.8 623.931C21503.8 623.931 21503.8 623.93 21503.8 623.931C21527.1 652.395 21527.1 682.858 21503.8 711.307L21448.8 704.862C21468.7 680.612 21468.7 654.642 21448.8 630.372L21422.9 598.879C21422.9 598.878 21422.9 598.877 21422.9 598.876C21399.6 570.428 21399.6 539.966 21422.9 511.503L21448.8 480.009L21448.8 480.006C21468.7 455.756 21468.7 429.787 21448.8 405.516L21422.9 374.024C21422.9 374.023 21422.9 374.022 21422.9 374.021C21399.6 345.572 21399.6 315.111 21422.9 286.648C21422.9 286.648 21422.9 286.649 21422.9 286.648L21448.8 255.151C21468.7 230.9 21468.7 204.931 21448.8 180.66L21422.9 149.168C21422.9 149.167 21422.9 149.166 21422.9 149.165C21399.6 120.717 21399.6 90.2558 21422.9 61.7926C21422.9 61.7923 21422.9 61.793 21422.9 61.7926L21448.8 30.2953Z" fill="#17497F"/>
<path fill-rule="evenodd" clip-rule="evenodd" d="M21342.6 30.2953C21362.5 6.04485 21362.5 -19.9248 21342.6 -44.1952L21397.6 -50.6362C21421 -22.1727 21421 8.28842 21397.6 36.7372C21397.6 36.7374 21397.6 36.7369 21397.6 36.7372C21397.6 36.7379 21397.6 36.7394 21397.6 36.7401L21371.7 68.2316C21351.8 92.502 21351.8 118.473 21371.7 142.723L21371.7 142.726L21397.6 174.219C21397.6 174.22 21397.6 174.219 21397.6 174.219C21421 202.683 21421 233.144 21397.6 261.593C21397.6 261.594 21397.6 261.595 21397.6 261.596L21371.7 293.087C21351.8 317.358 21351.8 343.328 21371.7 367.579L21371.7 367.582L21397.6 399.075C21397.6 399.075 21397.6 399.075 21397.6 399.075C21421 427.538 21421 458 21397.6 486.448C21397.6 486.449 21397.6 486.45 21397.6 486.451L21371.7 517.943C21351.8 542.213 21351.8 568.184 21371.7 592.434L21371.7 592.437L21397.6 623.931C21397.6 623.931 21397.6 623.93 21397.6 623.931C21421 652.395 21421 682.858 21397.6 711.307L21342.6 704.862C21362.5 680.612 21362.5 654.642 21342.6 630.372L21316.7 598.879C21316.7 598.878 21316.7 598.877 21316.7 598.876C21293.4 570.428 21293.4 539.966 21316.7 511.503L21342.6 480.009L21342.6 480.006C21362.5 455.756 21362.5 429.787 21342.6 405.516L21316.7 374.024C21316.7 374.023 21316.7 374.022 21316.7 374.021C21293.4 345.572 21293.4 315.111 21316.7 286.648C21316.7 286.648 21316.7 286.649 21316.7 286.648L21342.6 255.151C21362.5 230.9 21362.5 204.931 21342.6 180.66L21316.7 149.168C21316.7 149.167 21316.7 149.166 21316.7 149.165C21293.4 120.717 21293.4 90.2558 21316.7 61.7926C21316.7 61.7923 21316.7 61.793 21316.7 61.7926L21342.6 30.2953Z" fill="#17497F"/>
<path fill-rule="evenodd" clip-rule="evenodd" d="M21236.4 30.2953C21256.3 6.04485 21256.3 -19.9248 21236.4 -44.1952L21291.4 -50.6362C21314.8 -22.1727 21314.8 8.28842 21291.4 36.7372C21291.4 36.7374 21291.4 36.7369 21291.4 36.7372C21291.4 36.7379 21291.4 36.7394 21291.4 36.7401L21265.5 68.2316C21245.6 92.502 21245.6 118.473 21265.5 142.723L21265.5 142.726L21291.4 174.219C21291.4 174.22 21291.4 174.219 21291.4 174.219C21314.8 202.683 21314.8 233.144 21291.4 261.593C21291.4 261.594 21291.4 261.595 21291.4 261.596L21265.5 293.087C21245.6 317.358 21245.6 343.328 21265.5 367.579L21265.5 367.582L21291.4 399.075C21291.4 399.075 21291.4 399.075 21291.4 399.075C21314.8 427.538 21314.8 458 21291.4 486.448C21291.4 486.449 21291.4 486.45 21291.4 486.451L21265.5 517.943C21245.6 542.213 21245.6 568.184 21265.5 592.434L21265.5 592.437L21291.4 623.931C21291.4 623.931 21291.4 623.93 21291.4 623.931C21314.8 652.395 21314.8 682.858 21291.4 711.307L21236.4 704.862C21256.3 680.612 21256.3 654.642 21236.4 630.372L21210.6 598.879C21210.6 598.878 21210.5 598.877 21210.5 598.876C21187.2 570.428 21187.2 539.966 21210.5 511.503L21236.4 480.009L21236.4 480.006C21256.3 455.756 21256.3 429.787 21236.4 405.516L21210.6 374.024C21210.6 374.023 21210.5 374.022 21210.5 374.021C21187.2 345.572 21187.2 315.111 21210.5 286.648C21210.5 286.648 21210.5 286.649 21210.5 286.648L21236.4 255.151C21256.3 230.9 21256.3 204.931 21236.4 180.66L21210.6 149.168C21210.6 149.167 21210.5 149.166 21210.5 149.165C21187.2 120.717 21187.2 90.2558 21210.5 61.7926C21210.5 61.7923 21210.5 61.793 21210.5 61.7926L21236.4 30.2953Z" fill="#17497F"/>
<path fill-rule="evenodd" clip-rule="evenodd" d="M21130.2 30.2953C21150.1 6.04485 21150.1 -19.9248 21130.2 -44.1952L21185.2 -50.6362C21208.6 -22.1727 21208.6 8.28842 21185.2 36.7372C21185.2 36.7374 21185.2 36.7369 21185.2 36.7372C21185.2 36.7379 21185.2 36.7394 21185.2 36.7401L21159.3 68.2316C21139.4 92.502 21139.4 118.473 21159.3 142.723L21159.3 142.726L21185.2 174.219C21185.2 174.22 21185.2 174.219 21185.2 174.219C21208.6 202.683 21208.6 233.144 21185.2 261.593C21185.2 261.594 21185.2 261.595 21185.2 261.596L21159.3 293.087C21139.4 317.358 21139.4 343.328 21159.3 367.579L21159.3 367.582L21185.2 399.075C21185.2 399.075 21185.2 399.075 21185.2 399.075C21208.6 427.538 21208.6 458 21185.2 486.448C21185.2 486.449 21185.2 486.45 21185.2 486.451L21159.3 517.943C21139.4 542.213 21139.4 568.184 21159.3 592.434L21159.3 592.437L21185.2 623.931C21185.2 623.931 21185.2 623.93 21185.2 623.931C21208.6 652.395 21208.6 682.858 21185.2 711.307L21130.2 704.862C21150.1 680.612 21150.1 654.642 21130.2 630.372L21104.4 598.879C21104.4 598.878 21104.4 598.877 21104.4 598.876C21081 570.428 21081 539.966 21104.4 511.503L21130.2 480.009L21130.2 480.006C21150.1 455.756 21150.1 429.787 21130.2 405.516L21104.4 374.024C21104.4 374.023 21104.4 374.022 21104.4 374.021C21081 345.572 21081 315.111 21104.4 286.648C21104.4 286.648 21104.4 286.649 21104.4 286.648L21130.2 255.151C21150.1 230.9 21150.1 204.931 21130.2 180.66L21104.4 149.168C21104.4 149.167 21104.4 149.166 21104.4 149.165C21081 120.717 21081 90.2558 21104.4 61.7926C21104.4 61.7923 21104.4 61.793 21104.4 61.7926L21130.2 30.2953Z" fill="#17497F"/>
<rect x="22219.4" y="-280.84" width="1214.14" height="26.431" transform="rotate(90 22219.4 -280.84)" fill="#5DABFF"/>
<rect x="22166.5" y="-280.84" width="1214.14" height="26.431" transform="rotate(90 22166.5 -280.84)" fill="#5DABFF"/>
<rect x="22113.6" y="-280.84" width="1214.14" height="26.431" transform="rotate(90 22113.6 -280.84)" fill="#17497F"/>
<rect x="22060.8" y="-280.84" width="1214.14" height="26.431" transform="rotate(90 22060.8 -280.84)" fill="#5DABFF"/>
<rect x="22007.9" y="-280.84" width="1214.14" height="26.431" transform="rotate(90 22007.9 -280.84)" fill="#5DABFF"/>
<rect x="21955.1" y="-280.84" width="1214.14" height="26.431" transform="rotate(90 21955.1 -280.84)" fill="#5DABFF"/>
<path fill-rule="evenodd" clip-rule="evenodd" d="M21755.1 411.337C21708 411.337 21669.8 373.132 21669.8 326.004C21669.8 278.876 21708 240.67 21755.1 240.67C21802.3 240.67 21840.5 278.876 21840.5 326.004C21840.5 373.132 21802.3 411.337 21755.1 411.337ZM21755.1 377.873C21726.5 377.873 21703.3 354.65 21703.3 326.004C21703.3 297.357 21726.5 274.135 21755.1 274.135C21783.8 274.135 21807 297.357 21807 326.004C21807 354.65 21783.8 377.873 21755.1 377.873Z" fill="#393A3D"/>
</g>
<g clip-path="url(#clip18_1_11294)">
<rect width="1200" height="675" transform="translate(22235.4 0.761905) scale(0.975238)" fill="#F4F4EF"/>
<circle cx="23389.7" cy="325.081" r="243.374" fill="#DDECE1"/>
<circle cx="22812.3" cy="325.081" r="243.374" fill="#DDECE1"/>
<path fill-rule="evenodd" clip-rule="evenodd" d="M22812.3 418.164C22863.7 418.164 22905.4 376.466 22905.4 325.029C22905.4 273.591 22863.7 231.893 22812.3 231.893C22760.8 231.893 22719.1 273.591 22719.1 325.029C22719.1 376.466 22760.8 418.164 22812.3 418.164ZM22812.3 381.64C22843.5 381.64 22868.9 356.294 22868.9 325.029C22868.9 293.763 22843.5 268.417 22812.3 268.417C22781 268.417 22755.7 293.763 22755.7 325.029C22755.7 356.294 22781 381.64 22812.3 381.64Z" fill="#5DABFF"/>
<path fill-rule="evenodd" clip-rule="evenodd" d="M23389.6 418.164C23441.1 418.164 23482.8 376.466 23482.8 325.029C23482.8 273.591 23441.1 231.893 23389.6 231.893C23338.2 231.893 23296.5 273.591 23296.5 325.029C23296.5 376.466 23338.2 418.164 23389.6 418.164ZM23389.6 381.64C23420.9 381.64 23446.2 356.294 23446.2 325.029C23446.2 293.763 23420.9 268.417 23389.6 268.417C23358.4 268.417 23333 293.763 23333 325.029C23333 356.294 23358.4 381.64 23389.6 381.64Z" fill="#17497F"/>
<circle cx="22235" cy="325.081" r="243.374" fill="#DDECE1"/>
<path fill-rule="evenodd" clip-rule="evenodd" d="M22234.9 418.164C22286.4 418.164 22328.1 376.466 22328.1 325.029C22328.1 273.591 22286.4 231.893 22234.9 231.893C22183.5 231.893 22141.8 273.591 22141.8 325.029C22141.8 376.466 22183.5 418.164 22234.9 418.164ZM22234.9 381.64C22266.2 381.64 22291.6 356.294 22291.6 325.029C22291.6 293.763 22266.2 268.417 22234.9 268.417C22203.7 268.417 22178.3 293.763 22178.3 325.029C22178.3 356.294 22203.7 381.64 22234.9 381.64Z" fill="#17497F"/>
</g>
<g clip-path="url(#clip19_1_11294)">
<rect width="1200" height="675" transform="translate(23405.7 0.761905) scale(0.975238)" fill="#F4F4EF"/>
<rect x="23770.5" y="325.516" width="789.943" height="324.754" fill="#DDECE1"/>
<rect x="23405.7" y="0.761905" width="364.739" height="324.754" fill="#DDECE1"/>
<circle cx="24463" cy="572.146" r="52.8002" transform="rotate(-90 24463 572.146)" fill="#5DABFF"/>
<circle cx="24463" cy="407.88" r="52.8002" transform="rotate(-90 24463 407.88)" fill="#5DABFF"/>
<circle cx="24463" cy="243.611" r="52.8002" transform="rotate(-90 24463 243.611)" fill="#5DABFF"/>
<circle cx="24463" cy="79.3446" r="52.8002" transform="rotate(-90 24463 79.3446)" fill="#5DABFF"/>
<circle cx="24307" cy="572.146" r="52.8002" transform="rotate(-90 24307 572.146)" fill="#17497F"/>
<circle cx="24307" cy="407.88" r="52.8002" transform="rotate(-90 24307 407.88)" fill="#17497F"/>
<circle cx="24307" cy="243.611" r="52.8002" transform="rotate(-90 24307 243.611)" fill="#17497F"/>
<circle cx="24307" cy="79.3446" r="52.8002" transform="rotate(-90 24307 79.3446)" fill="#17497F"/>
<circle cx="24150.9" cy="572.146" r="52.8002" transform="rotate(-90 24150.9 572.146)" fill="#5DABFF"/>
<circle cx="24150.9" cy="407.88" r="52.8002" transform="rotate(-90 24150.9 407.88)" fill="#5DABFF"/>
<circle cx="24150.9" cy="243.611" r="52.8002" transform="rotate(-90 24150.9 243.611)" fill="#5DABFF"/>
<circle cx="24150.9" cy="79.3446" r="52.8002" transform="rotate(-90 24150.9 79.3446)" fill="#5DABFF"/>
<circle cx="23588.1" cy="493.257" r="74.1181" fill="#17497F"/>
</g>
<g clip-path="url(#clip20_1_11294)">
<rect width="1200" height="675" transform="translate(24576 0.761905) scale(0.975238)" fill="#F4F4EF"/>
<rect x="24576" y="0.761905" width="321.829" height="649.509" fill="#DDECE1"/>
<rect x="24897.8" y="123.642" width="206.487" height="26.981" fill="#17497F"/>
<rect x="24897.8" y="177.604" width="206.487" height="26.981" fill="#17497F"/>
<rect x="24897.8" y="231.566" width="206.487" height="26.981" fill="#17497F"/>
<rect x="24897.8" y="285.528" width="206.487" height="26.981" fill="#5DABFF"/>
<rect x="24897.8" y="339.49" width="206.487" height="26.981" fill="#5DABFF"/>
<rect x="24897.8" y="393.451" width="206.487" height="26.981" fill="#17497F"/>
<rect x="24897.8" y="447.413" width="206.487" height="26.981" fill="#17497F"/>
<rect x="24897.8" y="501.375" width="206.487" height="26.981" fill="#17497F"/>
<path d="M25269.4 650.27L25513.2 410.362V650.27H25269.4Z" fill="#17497F"/>
<path d="M25731.1 71.9543C25637.7 71.9543 25562 147.657 25562 241.042C25562 334.426 25637.7 410.129 25731.1 410.129L25731.1 343.82C25674.3 343.82 25628.3 297.805 25628.3 241.042C25628.3 184.279 25674.3 138.263 25731.1 138.263L25731.1 71.9543Z" fill="#5DABFF"/>
<circle cx="24736.9" cy="330.392" r="74.1181" fill="#17497F"/>
</g>
<g clip-path="url(#clip21_1_11294)">
<rect width="1200" height="675" transform="translate(25746.3 0.761905) scale(0.975238)" fill="#DDECE1"/>
<path fill-rule="evenodd" clip-rule="evenodd" d="M25888.1 0.761905C25890.2 10.3092 25893.2 19.7754 25897.1 29.0877L25916 74.5219C25931.3 111.019 25931.3 150.103 25916 186.627L25897.1 232.06C25880.5 271.585 25880.5 313.908 25897.1 353.457L25916 398.891C25931.3 435.388 25931.3 474.472 25916 510.996L25897.1 556.429C25880.5 595.955 25880.5 638.277 25897.1 677.826L25917.2 673.18C25902 636.656 25902 597.573 25917.2 561.076L25936.2 515.641C25952.7 476.092 25952.7 433.768 25936.2 394.242L25917.2 348.811C25902 312.287 25902 273.202 25917.2 236.704L25936.2 191.272C25952.7 151.722 25952.7 109.399 25936.2 69.8733L25917.2 24.4419C25914 16.6485 25911.4 8.73848 25909.5 0.761905H25888.1Z" fill="#17497F"/>
<path fill-rule="evenodd" clip-rule="evenodd" d="M25951.6 0.761905C25953.7 10.3092 25956.7 19.7754 25960.5 29.0877L25979.5 74.5219C25994.8 111.019 25994.8 150.103 25979.5 186.627L25960.5 232.06C25944 271.585 25944 313.908 25960.5 353.457L25979.5 398.891C25994.8 435.388 25994.8 474.472 25979.5 510.996L25960.5 556.429C25944 595.955 25944 638.277 25960.5 677.826L25980.7 673.18C25965.5 636.656 25965.5 597.573 25980.7 561.076L25999.7 515.641C26016.2 476.092 26016.2 433.768 25999.7 394.242L25980.7 348.811C25965.5 312.287 25965.5 273.202 25980.7 236.704L25999.7 191.272C26016.2 151.722 26016.2 109.399 25999.7 69.8733L25980.7 24.4419C25977.5 16.6485 25974.9 8.73848 25973 0.761905H25951.6Z" fill="#17497F"/>
<path fill-rule="evenodd" clip-rule="evenodd" d="M26015.1 0.761905C26017.2 10.3092 26020.1 19.7754 26024 29.0877L26043 74.5219C26058.3 111.019 26058.3 150.103 26043 186.627L26024 232.06C26007.5 271.585 26007.5 313.908 26024 353.457L26043 398.891C26058.3 435.388 26058.3 474.472 26043 510.996L26024 556.429C26007.5 595.955 26007.5 638.277 26024 677.826L26044.2 673.18C26029 636.656 26029 597.573 26044.2 561.076L26063.2 515.641C26079.7 476.092 26079.7 433.768 26063.2 394.242L26044.2 348.811C26029 312.287 26029 273.202 26044.2 236.704L26063.2 191.272C26079.7 151.722 26079.7 109.399 26063.2 69.8733L26044.2 24.4419C26041 16.6485 26038.4 8.73848 26036.5 0.761905H26015.1Z" fill="#17497F"/>
<path fill-rule="evenodd" clip-rule="evenodd" d="M26078.6 0.761905C26080.7 10.3092 26083.6 19.7754 26087.5 29.0877L26106.5 74.5219C26121.8 111.019 26121.8 150.103 26106.5 186.627L26087.5 232.06C26071 271.585 26071 313.908 26087.5 353.457L26106.5 398.891C26121.8 435.388 26121.8 474.472 26106.5 510.996L26087.5 556.429C26071 595.955 26071 638.277 26087.5 677.826L26107.7 673.18C26092.4 636.656 26092.4 597.573 26107.7 561.076L26126.7 515.641C26143.2 476.092 26143.2 433.768 26126.7 394.242L26107.7 348.811C26092.4 312.287 26092.4 273.202 26107.7 236.704L26126.7 191.272C26143.2 151.722 26143.2 109.399 26126.7 69.8733L26107.7 24.4419C26104.4 16.6485 26101.9 8.73848 26100 0.761905H26078.6Z" fill="#17497F"/>
<path fill-rule="evenodd" clip-rule="evenodd" d="M26142.1 0.761905C26144.2 10.3092 26147.1 19.7754 26151 29.0877L26170 74.5219C26185.3 111.019 26185.3 150.103 26170 186.627L26151 232.06C26134.5 271.585 26134.5 313.908 26151 353.457L26170 398.891C26185.3 435.388 26185.3 474.472 26170 510.996L26151 556.429C26134.5 595.955 26134.5 638.277 26151 677.826L26171.2 673.18C26155.9 636.656 26155.9 597.573 26171.2 561.076L26190.2 515.641C26206.7 476.092 26206.7 433.768 26190.2 394.242L26171.2 348.811C26155.9 312.287 26155.9 273.202 26171.2 236.704L26190.2 191.272C26206.7 151.722 26206.7 109.399 26190.2 69.8733L26171.2 24.4419C26167.9 16.6485 26165.4 8.73848 26163.5 0.761905H26142.1Z" fill="#17497F"/>
<path d="M26481.6 437.269C26547.6 503.301 26654.7 503.301 26720.7 437.269C26786.7 371.236 26786.7 264.176 26720.7 198.143L26481.6 437.269Z" fill="#393A3D"/>
<path d="M26575 231.503C26509 165.47 26401.9 165.47 26335.9 231.503C26269.9 297.536 26269.9 404.596 26335.9 470.629L26575 231.503Z" fill="#5DABFF"/>
</g>
<g clip-path="url(#clip22_1_11294)">
<rect width="1200" height="675" transform="translate(26916.6 0.761905) scale(0.975238)" fill="#F4F4EF"/>
<rect x="26918.5" y="0.761905" width="407.65" height="649.509" fill="#DDECE1"/>
<rect x="27663.6" y="0.761905" width="407.65" height="649.509" fill="#DDECE1"/>
<rect x="26918.5" y="0.761905" width="407.65" height="26.981" fill="#17497F"/>
<rect x="26918.5" y="54.7238" width="407.65" height="26.981" fill="#17497F"/>
<rect x="26918.5" y="108.686" width="407.65" height="26.981" fill="#17497F"/>
<rect x="26918.5" y="162.648" width="407.65" height="26.981" fill="#5DABFF"/>
<rect x="26918.5" y="216.61" width="407.65" height="26.981" fill="#5DABFF"/>
<rect x="27663.6" y="242.621" width="408.092" height="408.092" fill="#17497F"/>
<rect width="144" height="144" transform="matrix(-0.975238 0 0 0.975238 27663.6 102.187)" fill="#5DABFF"/>
<circle cx="27122.5" cy="499.246" r="52.8002" transform="rotate(-90 27122.5 499.246)" fill="#5DABFF"/>
</g>
<g clip-path="url(#clip23_1_11294)">
<rect width="1200" height="675" transform="translate(28086.9 0.761905) scale(0.975238)" fill="#F4F4EF"/>
<rect x="28389.2" y="0.761905" width="852.358" height="649.509" fill="#DDECE1"/>
<path fill-rule="evenodd" clip-rule="evenodd" d="M28868.6 569.327C29003 569.327 29111.9 460.365 29111.9 325.953C29111.9 191.541 29003 82.579 28868.6 82.579C28734.2 82.579 28625.2 191.541 28625.2 325.953C28625.2 460.365 28734.2 569.327 28868.6 569.327ZM28868.6 473.886C28950.3 473.886 29016.5 407.654 29016.5 325.953C29016.5 244.252 28950.3 178.02 28868.6 178.02C28786.9 178.02 28720.6 244.252 28720.6 325.953C28720.6 407.654 28786.9 473.886 28868.6 473.886Z" fill="#5DABFF"/>
<path d="M28389.2 650.27L28249.8 389.301L28528.5 389.301L28389.2 650.27Z" fill="#17497F"/>
<path d="M28389.2 454.149L28249.8 193.179L28528.5 193.179L28389.2 454.149Z" fill="#393A3D"/>
<path d="M28389.2 258.025L28249.8 -2.94518L28528.5 -2.94521L28389.2 258.025Z" fill="#17497F"/>
<circle cx="28869" cy="330.392" r="74.1181" fill="#17497F"/>
</g>
<g clip-path="url(#clip24_1_11294)">
<rect width="1200" height="675" transform="translate(29257.1 0.761905) scale(0.975238)" fill="#F4F4EF"/>
<rect x="29257.1" y="0.761905" width="769.463" height="646.583" fill="#DDECE1"/>
<rect x="29257.1" y="361.6" width="288.67" height="288.67" fill="#17497F"/>
<rect x="29545.8" y="72.9295" width="288.67" height="288.67" fill="#5DABFF"/>
<rect x="30267.5" y="72.9295" width="288.67" height="288.67" fill="#17497F"/>
<rect x="30205.1" y="72.9295" width="62.4152" height="288.67" fill="#5DABFF"/>
<rect x="29737.9" y="72.9295" width="96.5486" height="288.67" fill="#17497F"/>
<path fill-rule="evenodd" clip-rule="evenodd" d="M30026.1 361.6C29979 361.6 29940.8 323.395 29940.8 276.267C29940.8 229.138 29979 190.933 30026.1 190.933C30073.2 190.933 30111.5 229.138 30111.5 276.267C30111.5 323.395 30073.2 361.6 30026.1 361.6ZM30026.1 328.136C29997.5 328.136 29974.2 304.913 29974.2 276.267C29974.2 247.62 29997.5 224.397 30026.1 224.397C30054.8 224.397 30078 247.62 30078 276.267C30078 304.913 30054.8 328.136 30026.1 328.136Z" fill="#393A3D"/>
</g>
<g clip-path="url(#clip25_1_11294)">
<rect width="1200" height="675" transform="translate(30427.4 0.761905) scale(0.975238)" fill="#F4F4EF"/>
<path fill-rule="evenodd" clip-rule="evenodd" d="M30366 494.591C30375.3 492.541 30384.4 489.627 30393.5 485.849L30438.9 466.872C30475.4 451.613 30514.5 451.613 30551 466.873L30596.5 485.849C30636 502.373 30678.3 502.372 30717.9 485.849L30763.3 466.872C30799.8 451.613 30838.9 451.613 30875.4 466.873L30920.8 485.849C30960.4 502.373 31002.7 502.372 31042.2 485.849L31037.6 465.674C31001.1 480.935 30962 480.934 30925.5 465.675L30880 446.698C30840.5 430.174 30798.2 430.174 30758.6 446.699L30713.2 465.674C30676.7 480.935 30637.6 480.933 30601.1 465.674L30555.7 446.698C30516.1 430.175 30473.8 430.174 30434.3 446.699L30388.8 465.674C30381.3 468.818 30373.7 471.313 30366 473.162L30366 494.591Z" fill="#17497F"/>
<path fill-rule="evenodd" clip-rule="evenodd" d="M30366 431.102C30375.3 429.051 30384.4 426.137 30393.5 422.359L30438.9 403.383C30475.4 388.124 30514.5 388.123 30551 403.384L30596.5 422.359C30636 438.884 30678.3 438.883 30717.9 422.359L30763.3 403.383C30799.8 388.124 30838.9 388.123 30875.4 403.384L30920.8 422.359C30960.4 438.884 31002.7 438.883 31042.2 422.359L31037.6 402.185C31001.1 417.445 30962 417.444 30925.5 402.185L30880 383.209C30840.5 366.685 30798.2 366.684 30758.6 383.21L30713.2 402.185C30676.7 417.445 30637.6 417.444 30601.1 402.185L30555.7 383.209C30516.1 366.685 30473.8 366.684 30434.3 383.21L30388.8 402.185C30381.3 405.328 30373.7 407.824 30366 409.672L30366 431.102Z" fill="#17497F"/>
<path fill-rule="evenodd" clip-rule="evenodd" d="M30366 367.61C30375.3 365.56 30384.4 362.646 30393.5 358.868L30438.9 339.891C30475.4 324.632 30514.5 324.632 30551 339.892L30596.5 358.868C30636 375.392 30678.3 375.391 30717.9 358.868L30763.3 339.891C30799.8 324.632 30838.9 324.632 30875.4 339.892L30920.8 358.868C30960.4 375.392 31002.7 375.392 31042.2 358.868L31037.6 338.693C31001.1 353.954 30962 353.953 30925.5 338.694L30880 319.717C30840.5 303.194 30798.2 303.193 30758.6 319.718L30713.2 338.693C30676.7 353.954 30637.6 353.952 30601.1 338.693L30555.7 319.717C30516.1 303.194 30473.8 303.193 30434.3 319.718L30388.8 338.693C30381.3 341.837 30373.7 344.332 30366 346.181L30366 367.61Z" fill="#17497F"/>
<path fill-rule="evenodd" clip-rule="evenodd" d="M30366 304.121C30375.3 302.07 30384.4 299.156 30393.5 295.378L30438.9 276.402C30475.4 261.143 30514.5 261.142 30551 276.403L30596.5 295.378C30636 311.903 30678.3 311.902 30717.9 295.378L30763.3 276.402C30799.8 261.143 30838.9 261.142 30875.4 276.403L30920.8 295.378C30960.4 311.903 31002.7 311.902 31042.2 295.378L31037.6 275.204C31001.1 290.464 30962 290.464 30925.5 275.205L30880 256.228C30840.5 239.704 30798.2 239.703 30758.6 256.229L30713.2 275.204C30676.7 290.464 30637.6 290.463 30601.1 275.204L30555.7 256.228C30516.1 239.704 30473.8 239.704 30434.3 256.229L30388.8 275.204C30381.3 278.347 30373.7 280.843 30366 282.691L30366 304.121Z" fill="#17497F"/>
<path fill-rule="evenodd" clip-rule="evenodd" d="M30366 240.629C30375.3 238.579 30384.4 235.665 30393.5 231.887L30438.9 212.91C30475.4 197.651 30514.5 197.651 30551 212.911L30596.5 231.887C30636 248.411 30678.3 248.41 30717.9 231.887L30763.3 212.91C30799.8 197.651 30838.9 197.651 30875.4 212.911L30920.8 231.887C30960.4 248.411 31002.7 248.411 31042.2 231.887L31037.6 211.712C31001.1 226.973 30962 226.972 30925.5 211.713L30880 192.736C30840.5 176.213 30798.2 176.212 30758.6 192.737L30713.2 211.713C30676.7 226.973 30637.6 226.971 30601.1 211.712L30555.7 192.736C30516.1 176.213 30473.8 176.212 30434.3 192.737L30388.8 211.713C30381.3 214.856 30373.7 217.351 30366 219.2L30366 240.629Z" fill="#17497F"/>
<rect x="31004.8" y="0.761905" width="577.341" height="649.509" fill="#DDECE1"/>
<rect x="31582.6" y="-168.251" width="987.007" height="82.5948" transform="rotate(90 31582.6 -168.251)" fill="#5DABFF"/>
<rect x="31417.4" y="-168.251" width="987.007" height="82.5948" transform="rotate(90 31417.4 -168.251)" fill="#393A3D"/>
<rect x="31252.2" y="-168.251" width="987.007" height="82.5948" transform="rotate(90 31252.2 -168.251)" fill="#5DABFF"/>
</g>
<g clip-path="url(#clip26_1_11294)">
<rect width="1200" height="675" transform="translate(31597.7 0.761905) scale(0.975238)" fill="#F4F4EF"/>
<rect x="31599.7" y="0.761905" width="800.67" height="649.509" fill="#DDECE1"/>
<rect x="32622.7" y="121.691" width="129.707" height="407.65" fill="#17497F"/>
<rect x="31767.4" y="121.691" width="408.092" height="408.092" fill="#5DABFF"/>
<path fill-rule="evenodd" clip-rule="evenodd" d="M32398.9 410.362C32351.7 410.362 32313.5 372.157 32313.5 325.029C32313.5 277.9 32351.7 239.695 32398.9 239.695C32446 239.695 32484.2 277.9 32484.2 325.029C32484.2 372.157 32446 410.362 32398.9 410.362ZM32398.9 376.898C32370.2 376.898 32347 353.675 32347 325.029C32347 296.382 32370.2 273.159 32398.9 273.159C32427.5 273.159 32450.7 296.382 32450.7 325.029C32450.7 353.675 32427.5 376.898 32398.9 376.898Z" fill="#393A3D"/>
<rect x="31767.4" y="325.516" width="203.825" height="203.825" fill="#17497F"/>
<rect width="51" height="51" transform="matrix(-0.975238 0 0 0.975238 31767.4 529.341)" fill="#393A3D"/>
</g>
<defs>
<clipPath id="clip0_1_11294">
<rect width="1200" height="675" fill="white" transform="translate(0 0.761905) scale(0.975238)"/>
</clipPath>
<clipPath id="clip1_1_11294">
<rect width="1200" height="675" fill="white" transform="translate(1170.29 0.761905) scale(0.975238)"/>
</clipPath>
<clipPath id="clip2_1_11294">
<rect width="1200" height="675" fill="white" transform="translate(2340.57 0.761905) scale(0.975238)"/>
</clipPath>
<clipPath id="clip3_1_11294">
<rect width="1200" height="675" fill="white" transform="translate(3510.86 0.761905) scale(0.975238)"/>
</clipPath>
<clipPath id="clip4_1_11294">
<rect width="1200" height="675" fill="white" transform="translate(4681.14 0.761905) scale(0.975238)"/>
</clipPath>
<clipPath id="clip5_1_11294">
<rect width="1200" height="675" fill="white" transform="translate(5851.43 0.761905) scale(0.975238)"/>
</clipPath>
<clipPath id="clip6_1_11294">
<rect width="1200" height="675" fill="white" transform="translate(7021.71 0.761905) scale(0.975238)"/>
</clipPath>
<clipPath id="clip7_1_11294">
<rect width="1200" height="675" fill="white" transform="translate(9362.29 0.761905) scale(0.975238)"/>
</clipPath>
<clipPath id="clip8_1_11294">
<rect width="1200" height="675" fill="white" transform="translate(10532.6 0.761905) scale(0.975238)"/>
</clipPath>
<clipPath id="clip9_1_11294">
<rect width="1200" height="675" fill="white" transform="translate(11702.9 0.761905) scale(0.975238)"/>
</clipPath>
<clipPath id="clip10_1_11294">
<rect width="1200" height="675" fill="white" transform="translate(12873.1 0.761905) scale(0.975238)"/>
</clipPath>
<clipPath id="clip11_1_11294">
<rect width="1200" height="675" fill="white" transform="translate(14043.4 0.761905) scale(0.975238)"/>
</clipPath>
<clipPath id="clip12_1_11294">
<rect width="1200" height="675" fill="white" transform="translate(15213.7 0.761905) scale(0.975238)"/>
</clipPath>
<clipPath id="clip13_1_11294">
<rect width="1200" height="675" fill="white" transform="translate(16384 0.761905) scale(0.975238)"/>
</clipPath>
<clipPath id="clip14_1_11294">
<rect width="1200" height="675" fill="white" transform="translate(17554.3 0.761905) scale(0.975238)"/>
</clipPath>
<clipPath id="clip15_1_11294">
<rect width="1200" height="675" fill="white" transform="translate(18724.6 0.761905) scale(0.975238)"/>
</clipPath>
<clipPath id="clip16_1_11294">
<rect width="1200" height="675" fill="white" transform="translate(19894.9 0.761905) scale(0.975238)"/>
</clipPath>
<clipPath id="clip17_1_11294">
<rect width="1200" height="675" fill="white" transform="translate(21065.1 0.761905) scale(0.975238)"/>
</clipPath>
<clipPath id="clip18_1_11294">
<rect width="1200" height="675" fill="white" transform="translate(22235.4 0.761905) scale(0.975238)"/>
</clipPath>
<clipPath id="clip19_1_11294">
<rect width="1200" height="675" fill="white" transform="translate(23405.7 0.761905) scale(0.975238)"/>
</clipPath>
<clipPath id="clip20_1_11294">
<rect width="1200" height="675" fill="white" transform="translate(24576 0.761905) scale(0.975238)"/>
</clipPath>
<clipPath id="clip21_1_11294">
<rect width="1200" height="675" fill="white" transform="translate(25746.3 0.761905) scale(0.975238)"/>
</clipPath>
<clipPath id="clip22_1_11294">
<rect width="1200" height="675" fill="white" transform="translate(26916.6 0.761905) scale(0.975238)"/>
</clipPath>
<clipPath id="clip23_1_11294">
<rect width="1200" height="675" fill="white" transform="translate(28086.9 0.761905) scale(0.975238)"/>
</clipPath>
<clipPath id="clip24_1_11294">
<rect width="1200" height="675" fill="white" transform="translate(29257.1 0.761905) scale(0.975238)"/>
</clipPath>
<clipPath id="clip25_1_11294">
<rect width="1200" height="675" fill="white" transform="translate(30427.4 0.761905) scale(0.975238)"/>
</clipPath>
<clipPath id="clip26_1_11294">
<rect width="1200" height="675" fill="white" transform="translate(31597.7 0.761905) scale(0.975238)"/>
</clipPath>
</defs>
</svg>
