<svg width="22800" height="676" viewBox="0 0 22800 676" fill="none" xmlns="http://www.w3.org/2000/svg">
<g clip-path="url(#clip0_1_12317)">
<rect width="1200" height="675" transform="translate(0 0.78125)" fill="#DFD4D8"/>
<circle cx="591.5" cy="333.281" r="458.5" fill="#F4F4EF"/>
<circle cx="591.553" cy="666.335" r="249.553" fill="#14324F"/>
<circle cx="591.553" cy="0.334625" r="249.553" fill="#393A3D"/>
<circle cx="-0.446625" cy="333.335" r="249.553" fill="#4E82B5"/>
<circle cx="1183.55" cy="333.335" r="249.553" fill="#14324F"/>
</g>
<g clip-path="url(#clip1_1_12317)">
<rect width="1200" height="675" transform="translate(1200 0.78125)" fill="#F4F4EF"/>
<rect x="1200" y="0.78125" width="1197" height="223" fill="#DFD4D8"/>
<path fill-rule="evenodd" clip-rule="evenodd" d="M1327.65 176.97C1287.62 152.829 1244.76 152.828 1204.7 176.971L1199.61 145.053C1242.98 118.91 1289.4 118.909 1332.75 145.053C1332.75 145.053 1332.75 145.052 1332.75 145.053L1382.57 175.075C1422.63 199.218 1465.5 199.218 1505.53 175.076L1555.36 145.053C1555.36 145.053 1555.35 145.053 1555.36 145.053C1598.73 118.911 1645.15 118.909 1688.5 145.053C1688.5 145.053 1688.5 145.052 1688.5 145.053L1738.32 175.075C1778.38 199.218 1821.25 199.218 1861.27 175.076L1911.1 145.053C1911.1 145.053 1911.1 145.053 1911.1 145.053C1954.48 118.911 2000.9 118.909 2044.25 145.053C2044.25 145.053 2044.24 145.052 2044.25 145.053L2094.07 175.075C2134.13 199.218 2177 199.218 2217.02 175.076L2266.85 145.053C2310.23 118.91 2356.65 118.909 2400 145.054L2394.9 176.97C2354.87 152.829 2312.01 152.828 2271.95 176.971L2222.12 206.992C2222.12 206.993 2222.12 206.992 2222.12 206.992C2178.77 233.136 2132.35 233.136 2088.98 206.993L2039.15 176.972C1999.12 152.83 1956.26 152.828 1916.2 176.971L1866.37 206.992C1823.02 233.137 1776.61 233.136 1733.23 206.994C1733.23 206.993 1733.23 206.994 1733.23 206.994L1683.4 176.972C1643.37 152.83 1600.51 152.828 1560.45 176.971L1510.62 206.992C1467.27 233.137 1420.86 233.136 1377.48 206.994C1377.48 206.993 1377.48 206.994 1377.48 206.994L1327.65 176.97Z" fill="#4E82B5"/>
<path fill-rule="evenodd" clip-rule="evenodd" d="M1327.65 300.275C1287.62 276.133 1244.76 276.132 1204.7 300.276L1199.61 268.358C1242.98 242.215 1289.4 242.213 1332.75 268.357C1332.75 268.358 1332.75 268.357 1332.75 268.357L1382.57 298.379C1422.63 322.523 1465.5 322.522 1505.53 298.381L1555.36 268.358C1555.36 268.358 1555.35 268.358 1555.36 268.358C1598.73 242.215 1645.15 242.214 1688.5 268.357C1688.5 268.358 1688.5 268.357 1688.5 268.357L1738.32 298.379C1778.38 322.523 1821.25 322.522 1861.27 298.381L1911.1 268.358C1911.1 268.358 1911.1 268.358 1911.1 268.358C1954.48 242.215 2000.9 242.214 2044.25 268.357C2044.25 268.358 2044.24 268.357 2044.25 268.357L2094.07 298.379C2134.13 322.523 2177 322.522 2217.02 298.381L2266.85 268.358C2310.23 242.214 2356.65 242.213 2400 268.359L2394.9 300.275C2354.87 276.133 2312.01 276.132 2271.95 300.276L2222.12 330.297C2222.12 330.297 2222.12 330.296 2222.12 330.297C2178.77 356.441 2132.35 356.441 2088.98 330.298L2039.15 300.276C1999.12 276.135 1956.26 276.132 1916.2 300.276L1866.37 330.297C1823.02 356.442 1776.61 356.441 1733.23 330.298C1733.23 330.298 1733.23 330.298 1733.23 330.298L1683.4 300.276C1643.37 276.135 1600.51 276.132 1560.45 300.276L1510.62 330.297C1467.27 356.442 1420.86 356.441 1377.48 330.298C1377.48 330.298 1377.48 330.299 1377.48 330.298L1327.65 300.275Z" fill="#4E82B5"/>
<path fill-rule="evenodd" clip-rule="evenodd" d="M1327.65 423.58C1287.62 399.438 1244.76 399.437 1204.7 423.581L1199.61 391.662C1242.98 365.52 1289.4 365.518 1332.75 391.662C1332.75 391.662 1332.75 391.661 1332.75 391.662L1382.57 421.684C1422.63 445.828 1465.5 445.827 1505.53 421.685L1555.36 391.662C1555.36 391.662 1555.35 391.663 1555.36 391.662C1598.73 365.52 1645.15 365.518 1688.5 391.662C1688.5 391.662 1688.5 391.661 1688.5 391.662L1738.32 421.684C1778.38 445.828 1821.25 445.827 1861.27 421.685L1911.1 391.662C1911.1 391.662 1911.1 391.663 1911.1 391.662C1954.48 365.52 2000.9 365.518 2044.25 391.662C2044.25 391.662 2044.24 391.661 2044.25 391.662L2094.07 421.684C2134.13 445.828 2177 445.827 2217.02 421.685L2266.85 391.662C2310.23 365.519 2356.65 365.518 2400 391.663L2394.9 423.58C2354.87 399.438 2312.01 399.437 2271.95 423.581L2222.12 453.602C2222.12 453.602 2222.12 453.601 2222.12 453.602C2178.77 479.745 2132.35 479.745 2088.98 453.603L2039.15 423.581C1999.12 399.439 1956.26 399.437 1916.2 423.581L1866.37 453.602C1823.02 479.747 1776.61 479.746 1733.23 453.603C1733.23 453.603 1733.23 453.603 1733.23 453.603L1683.4 423.581C1643.37 399.439 1600.51 399.437 1560.45 423.581L1510.62 453.602C1467.27 479.747 1420.86 479.746 1377.48 453.603C1377.48 453.603 1377.48 453.603 1377.48 453.603L1327.65 423.58Z" fill="#4E82B5"/>
<path fill-rule="evenodd" clip-rule="evenodd" d="M1327.65 546.884C1287.62 522.743 1244.76 522.742 1204.7 546.885L1199.61 514.967C1242.98 488.824 1289.4 488.823 1332.75 514.967C1332.75 514.967 1332.75 514.966 1332.75 514.967L1382.57 544.989C1422.63 569.132 1465.5 569.132 1505.53 544.99L1555.36 514.967C1555.36 514.967 1555.35 514.967 1555.36 514.967C1598.73 488.825 1645.15 488.823 1688.5 514.967C1688.5 514.967 1688.5 514.966 1688.5 514.967L1738.32 544.989C1778.38 569.132 1821.25 569.132 1861.27 544.99L1911.1 514.967C1911.1 514.967 1911.1 514.967 1911.1 514.967C1954.48 488.825 2000.9 488.823 2044.25 514.967C2044.25 514.967 2044.24 514.966 2044.25 514.967L2094.07 544.989C2134.13 569.132 2177 569.132 2217.02 544.99L2266.85 514.967C2310.23 488.824 2356.65 488.823 2400 514.968L2394.9 546.884C2354.87 522.743 2312.01 522.742 2271.95 546.885L2222.12 576.906C2222.12 576.907 2222.12 576.906 2222.12 576.906C2178.77 603.05 2132.35 603.05 2088.98 576.907L2039.15 546.886C1999.12 522.744 1956.26 522.742 1916.2 546.885L1866.37 576.906C1823.02 603.051 1776.61 603.05 1733.23 576.908C1733.23 576.908 1733.23 576.908 1733.23 576.908L1683.4 546.886C1643.37 522.744 1600.51 522.742 1560.45 546.885L1510.62 576.906C1467.27 603.051 1420.86 603.05 1377.48 576.908C1377.48 576.908 1377.48 576.908 1377.48 576.908L1327.65 546.884Z" fill="#4E82B5"/>
<path fill-rule="evenodd" clip-rule="evenodd" d="M1327.65 670.189C1287.62 646.047 1244.76 646.046 1204.7 670.19L1199.61 638.272C1242.98 612.129 1289.4 612.128 1332.75 638.271C1332.75 638.272 1332.75 638.271 1332.75 638.271L1382.57 668.293C1422.63 692.437 1465.5 692.436 1505.53 668.295L1555.36 638.272C1555.36 638.272 1555.35 638.272 1555.36 638.272C1598.73 612.129 1645.15 612.128 1688.5 638.271C1688.5 638.272 1688.5 638.271 1688.5 638.271L1738.32 668.293C1778.38 692.437 1821.25 692.436 1861.27 668.295L1911.1 638.272C1911.1 638.272 1911.1 638.272 1911.1 638.272C1954.48 612.129 2000.9 612.128 2044.25 638.271C2044.25 638.272 2044.24 638.271 2044.25 638.271L2094.07 668.293C2134.13 692.437 2177 692.436 2217.02 668.295L2266.85 638.272C2310.23 612.128 2356.65 612.128 2400 638.273L2394.9 670.189C2354.87 646.047 2312.01 646.046 2271.95 670.19L2222.12 700.211C2222.12 700.211 2222.12 700.211 2222.12 700.211C2178.77 726.355 2132.35 726.355 2088.98 700.212L2039.15 670.19C1999.12 646.049 1956.26 646.046 1916.2 670.19L1866.37 700.211C1823.02 726.356 1776.61 726.355 1733.23 700.212C1733.23 700.212 1733.23 700.213 1733.23 700.212L1683.4 670.19C1643.37 646.049 1600.51 646.046 1560.45 670.19L1510.62 700.211C1467.27 726.356 1420.86 726.355 1377.48 700.212C1377.48 700.212 1377.48 700.213 1377.48 700.212L1327.65 670.189Z" fill="#4E82B5"/>
<circle cx="1791.55" cy="666.335" r="249.553" fill="#14324F"/>
</g>
<rect width="1200" height="675" transform="translate(2400 0.78125)" fill="#F4F4EF"/>
<rect x="2400" y="327.781" width="1198" height="339" fill="#DFD4D8"/>
<rect x="2780" y="545.242" width="423.459" height="84.6919" transform="rotate(-90 2780 545.242)" fill="#14324F"/>
<rect x="2949.38" y="545.242" width="423.459" height="84.6919" transform="rotate(-90 2949.38 545.242)" fill="#393A3D"/>
<rect x="3118.77" y="545.242" width="423.459" height="84.6919" transform="rotate(-90 3118.77 545.242)" fill="#4E82B5"/>
<g clip-path="url(#clip2_1_12317)">
<rect width="1200" height="675" transform="translate(3600 0.78125)" fill="#F4F4EF"/>
<rect x="4369.6" y="0.78125" width="769.6" height="336" fill="#4E82B5"/>
<rect x="3600" y="-4.01562" width="1244.97" height="27.1021" fill="#DFD4D8"/>
<rect x="3600" y="50.1914" width="1244.97" height="27.1021" fill="#DFD4D8"/>
<rect x="3600" y="104.395" width="1244.97" height="27.1021" fill="#DFD4D8"/>
<rect x="3600" y="158.598" width="1244.97" height="27.1021" fill="#DFD4D8"/>
<rect x="3600" y="212.801" width="1244.97" height="27.1021" fill="#DFD4D8"/>
<rect x="3600" y="267.008" width="1244.97" height="27.1021" fill="#DFD4D8"/>
<rect x="3600" y="321.211" width="1244.97" height="27.1021" fill="#DFD4D8"/>
<path d="M4177.55 667.162C4177.55 762.918 4255.17 840.543 4350.93 840.543C4446.68 840.543 4524.31 762.918 4524.31 667.162H4177.55Z" fill="#DFD4D8"/>
<path d="M4072.76 667.162C4072.76 571.407 3995.13 493.781 3899.38 493.781C3803.62 493.781 3726 571.407 3726 667.162L4072.76 667.162Z" fill="#393A3D"/>
<circle cx="4016.9" cy="604.678" r="23.8972" fill="#4E82B5"/>
<circle cx="4091.24" cy="604.678" r="23.8972" fill="#4E82B5"/>
<circle cx="4165.59" cy="604.678" r="23.8972" fill="#4E82B5"/>
<circle cx="4239.94" cy="604.678" r="23.8972" fill="#4E82B5"/>
<circle cx="4314.28" cy="604.678" r="23.8972" fill="#4E82B5"/>
<circle cx="4388.63" cy="604.678" r="23.8972" fill="#4E82B5"/>
</g>
<g clip-path="url(#clip3_1_12317)">
<rect width="1200" height="675" transform="translate(4800 0.78125)" fill="#F4F4EF"/>
<rect x="4800" y="0.78125" width="502" height="666" fill="#DFD4D8"/>
<path fill-rule="evenodd" clip-rule="evenodd" d="M4613.39 391.945C4587.45 376.298 4559.67 376.297 4533.71 391.945L4530.41 371.259C4558.52 354.315 4588.6 354.314 4616.7 371.258C4616.7 371.259 4616.7 371.258 4616.7 371.258L4648.99 390.716C4674.95 406.364 4702.73 406.363 4728.68 390.717L4760.97 371.259C4760.97 371.259 4760.97 371.259 4760.97 371.259C4789.08 354.316 4819.17 354.314 4847.26 371.258C4847.26 371.259 4847.26 371.258 4847.26 371.258L4879.56 390.716C4905.52 406.364 4933.3 406.363 4959.24 390.717L4991.54 371.259C4991.54 371.259 4991.54 371.259 4991.54 371.259C5019.65 354.316 5049.73 354.314 5077.83 371.258C5077.83 371.259 5077.83 371.258 5077.83 371.258L5110.12 390.716C5136.08 406.364 5163.86 406.363 5189.81 390.717L5222.1 371.259C5250.21 354.315 5280.3 354.314 5308.39 371.259L5305.09 391.945C5279.15 376.298 5251.36 376.297 5225.4 391.945L5193.11 411.402C5193.11 411.402 5193.11 411.402 5193.11 411.402C5165.01 428.346 5134.93 428.346 5106.82 411.403L5074.52 391.945C5048.58 376.299 5020.8 376.297 4994.84 391.945L4962.55 411.402C4934.45 428.347 4904.37 428.346 4876.25 411.403C4876.25 411.403 4876.25 411.403 4876.25 411.403L4843.96 391.945C4818.02 376.299 4790.24 376.297 4764.27 391.945L4731.98 411.402C4703.88 428.347 4673.8 428.346 4645.69 411.403C4645.69 411.403 4645.69 411.403 4645.69 411.403L4613.39 391.945Z" fill="#4E82B5"/>
<path fill-rule="evenodd" clip-rule="evenodd" d="M4613.39 471.859C4587.45 456.212 4559.67 456.212 4533.71 471.859L4530.41 451.173C4558.52 434.229 4588.6 434.228 4616.7 451.172C4616.7 451.173 4616.7 451.172 4616.7 451.172L4648.99 470.63C4674.95 486.278 4702.73 486.277 4728.68 470.631L4760.97 451.173C4760.97 451.173 4760.97 451.173 4760.97 451.173C4789.08 434.23 4819.17 434.229 4847.26 451.172C4847.26 451.173 4847.26 451.172 4847.26 451.172L4879.56 470.63C4905.52 486.278 4933.3 486.277 4959.24 470.631L4991.54 451.173C4991.54 451.173 4991.54 451.173 4991.54 451.173C5019.65 434.23 5049.73 434.229 5077.83 451.172C5077.83 451.173 5077.83 451.172 5077.83 451.172L5110.12 470.63C5136.08 486.278 5163.86 486.277 5189.81 470.631L5222.1 451.173C5250.21 434.229 5280.3 434.228 5308.39 451.173L5305.09 471.859C5279.15 456.212 5251.36 456.212 5225.4 471.859L5193.11 491.316C5193.11 491.317 5193.11 491.316 5193.11 491.316C5165.01 508.26 5134.93 508.26 5106.82 491.317L5074.52 471.86C5048.58 456.213 5020.8 456.212 4994.84 471.859L4962.55 491.316C4934.45 508.261 4904.37 508.261 4876.25 491.317C4876.25 491.317 4876.25 491.317 4876.25 491.317L4843.96 471.86C4818.02 456.213 4790.24 456.212 4764.27 471.859L4731.98 491.316C4703.88 508.261 4673.8 508.261 4645.69 491.317C4645.69 491.317 4645.69 491.317 4645.69 491.317L4613.39 471.859Z" fill="#4E82B5"/>
<path fill-rule="evenodd" clip-rule="evenodd" d="M4613.39 551.773C4587.45 536.126 4559.67 536.126 4533.71 551.773L4530.41 531.087C4558.52 514.143 4588.6 514.143 4616.7 531.087C4616.7 531.087 4616.7 531.086 4616.7 531.087L4648.99 550.544C4674.95 566.192 4702.73 566.191 4728.68 550.545L4760.97 531.087C4760.97 531.087 4760.97 531.087 4760.97 531.087C4789.08 514.144 4819.17 514.143 4847.26 531.087C4847.26 531.087 4847.26 531.086 4847.26 531.087L4879.56 550.544C4905.52 566.192 4933.3 566.191 4959.24 550.545L4991.54 531.087C4991.54 531.087 4991.54 531.087 4991.54 531.087C5019.65 514.144 5049.73 514.143 5077.83 531.087C5077.83 531.087 5077.83 531.086 5077.83 531.087L5110.12 550.544C5136.08 566.192 5163.86 566.191 5189.81 550.545L5222.1 531.087C5250.21 514.143 5280.3 514.143 5308.39 531.087L5305.09 551.773C5279.15 536.126 5251.36 536.126 5225.4 551.773L5193.11 571.23C5193.11 571.231 5193.11 571.23 5193.11 571.23C5165.01 588.174 5134.93 588.174 5106.82 571.231L5074.52 551.774C5048.58 536.127 5020.8 536.126 4994.84 551.773L4962.55 571.23C4934.45 588.175 4904.37 588.175 4876.25 571.231C4876.25 571.231 4876.25 571.231 4876.25 571.231L4843.96 551.774C4818.02 536.127 4790.24 536.126 4764.27 551.773L4731.98 571.23C4703.88 588.175 4673.8 588.175 4645.69 571.231C4645.69 571.231 4645.69 571.231 4645.69 571.231L4613.39 551.773Z" fill="#4E82B5"/>
<path fill-rule="evenodd" clip-rule="evenodd" d="M4613.39 631.689C4587.45 616.042 4559.67 616.042 4533.71 631.689L4530.41 611.003C4558.52 594.059 4588.6 594.059 4616.7 611.003C4616.7 611.003 4616.7 611.002 4616.7 611.003L4648.99 630.46C4674.95 646.108 4702.73 646.108 4728.68 630.461L4760.97 611.003C4760.97 611.003 4760.97 611.003 4760.97 611.003C4789.08 594.06 4819.17 594.059 4847.26 611.003C4847.26 611.003 4847.26 611.002 4847.26 611.003L4879.56 630.46C4905.52 646.108 4933.3 646.108 4959.24 630.461L4991.54 611.003C4991.54 611.003 4991.54 611.003 4991.54 611.003C5019.65 594.06 5049.73 594.059 5077.83 611.003C5077.83 611.003 5077.83 611.002 5077.83 611.003L5110.12 630.46C5136.08 646.108 5163.86 646.108 5189.81 630.461L5222.1 611.003C5250.21 594.059 5280.3 594.059 5308.39 611.003L5305.09 631.689C5279.15 616.042 5251.36 616.042 5225.4 631.689L5193.11 651.146C5193.11 651.147 5193.11 651.146 5193.11 651.146C5165.01 668.09 5134.93 668.09 5106.82 651.147L5074.52 631.69C5048.58 616.043 5020.8 616.042 4994.84 631.689L4962.55 651.146C4934.45 668.091 4904.37 668.091 4876.25 651.147C4876.25 651.147 4876.25 651.147 4876.25 651.147L4843.96 631.69C4818.02 616.043 4790.24 616.042 4764.27 631.689L4731.98 651.146C4703.88 668.091 4673.8 668.091 4645.69 651.147C4645.69 651.147 4645.69 651.147 4645.69 651.147L4613.39 631.689Z" fill="#4E82B5"/>
<path fill-rule="evenodd" clip-rule="evenodd" d="M4613.39 711.605C4587.45 695.958 4559.67 695.958 4533.71 711.605L4530.41 690.919C4558.52 673.975 4588.6 673.975 4616.7 690.919C4616.7 690.919 4616.7 690.918 4616.7 690.919L4648.99 710.376C4674.95 726.024 4702.73 726.024 4728.68 710.377L4760.97 690.919C4760.97 690.919 4760.97 690.919 4760.97 690.919C4789.08 673.976 4819.17 673.975 4847.26 690.919C4847.26 690.919 4847.26 690.918 4847.26 690.919L4879.56 710.376C4905.52 726.024 4933.3 726.024 4959.24 710.377L4991.54 690.919C4991.54 690.919 4991.54 690.919 4991.54 690.919C5019.65 673.976 5049.73 673.975 5077.83 690.919C5077.83 690.919 5077.83 690.918 5077.83 690.919L5110.12 710.376C5136.08 726.024 5163.86 726.024 5189.81 710.377L5222.1 690.919C5250.21 673.975 5280.3 673.975 5308.39 690.919L5305.09 711.605C5279.15 695.958 5251.36 695.958 5225.4 711.605L5193.11 731.062C5193.11 731.063 5193.11 731.062 5193.11 731.062C5165.01 748.006 5134.93 748.006 5106.82 731.063L5074.52 711.606C5048.58 695.959 5020.8 695.958 4994.84 711.605L4962.55 731.062C4934.45 748.007 4904.37 748.007 4876.25 731.063C4876.25 731.063 4876.25 731.063 4876.25 731.063L4843.96 711.606C4818.02 695.959 4790.24 695.958 4764.27 711.605L4731.98 731.062C4703.88 748.007 4673.8 748.007 4645.69 731.063C4645.69 731.063 4645.69 731.063 4645.69 731.063L4613.39 711.605Z" fill="#4E82B5"/>
<path d="M5293 0.78125V666.781H5959L5293 0.78125Z" fill="#393A3D"/>
<path fill-rule="evenodd" clip-rule="evenodd" d="M5787.5 317.781C5858.47 317.781 5916 260.25 5916 189.281C5916 118.313 5858.47 60.7812 5787.5 60.7812C5716.53 60.7812 5659 118.313 5659 189.281C5659 260.25 5716.53 317.781 5787.5 317.781ZM5787.5 267.389C5830.64 267.389 5865.61 232.419 5865.61 189.281C5865.61 146.143 5830.64 111.173 5787.5 111.173C5744.36 111.173 5709.39 146.143 5709.39 189.281C5709.39 232.419 5744.36 267.389 5787.5 267.389Z" fill="#14324F"/>
</g>
<g clip-path="url(#clip4_1_12317)">
<rect width="1200" height="675" transform="translate(6000 0.78125)" fill="#F4F4EF"/>
<rect x="6000" y="-18.2188" width="1184" height="247" fill="#DFD4D8"/>
<line x1="6000" y1="227.454" x2="7186" y2="227.454" stroke="#14324F" stroke-width="2.65524"/>
<line x1="6000" y1="357.798" x2="7186" y2="357.798" stroke="#14324F" stroke-width="7.96573"/>
<line x1="6000" y1="500.143" x2="7186" y2="500.143" stroke="#14324F" stroke-width="13.2762"/>
<line x1="6000" y1="657.488" x2="7186" y2="657.488" stroke="#14324F" stroke-width="18.5867"/>
<path d="M6819 228.781C6819 108.383 6721.17 10.7812 6600.5 10.7812C6479.83 10.7812 6382 108.383 6382 228.781L6819 228.781Z" fill="#4E82B5"/>
</g>
<g clip-path="url(#clip5_1_12317)">
<rect width="1200" height="675" transform="translate(7200 0.78125)" fill="#DFD4D8"/>
<rect x="7200" y="326.781" width="1198" height="340" fill="#F4F4EF"/>
<path fill-rule="evenodd" clip-rule="evenodd" d="M7296.22 97.1877C7255.55 63.7272 7211.99 63.7244 7171.28 97.1904L7160.47 4.88281C7208.22 -34.3649 7259.31 -34.369 7307.03 4.88141C7307.03 4.88173 7307.03 4.8811 7307.03 4.88141C7307.03 4.88246 7307.03 4.88445 7307.03 4.88549L7359.85 48.2934C7400.56 81.7594 7444.13 81.758 7484.8 48.2975L7484.81 48.2934L7537.63 4.88281C7537.63 4.88235 7537.63 4.88328 7537.63 4.88281C7585.38 -34.3635 7636.47 -34.3686 7684.19 4.88142C7684.19 4.88278 7684.19 4.88413 7684.19 4.88549L7737.01 48.2934C7777.72 81.7594 7821.29 81.758 7861.96 48.2975L7861.97 48.2934L7914.79 4.88281C7914.79 4.88235 7914.79 4.88327 7914.79 4.88281C7962.54 -34.3635 8013.63 -34.3686 8061.35 4.88141C8061.35 4.88277 8061.35 4.88414 8061.35 4.88549L8114.18 48.2934C8154.88 81.7594 8198.45 81.758 8239.12 48.2975L8239.13 48.2934L8291.95 4.88281C8291.95 4.88235 8291.95 4.88327 8291.95 4.88281C8339.7 -34.3649 8390.79 -34.3686 8438.51 4.88549L8427.7 97.1877C8387.03 63.7272 8343.47 63.7244 8302.76 97.1904L8249.93 140.6C8249.93 140.601 8249.93 140.602 8249.93 140.604C8202.21 179.854 8151.12 179.85 8103.37 140.602L8050.55 97.1918L8050.54 97.1877C8009.87 63.7272 7966.31 63.7244 7925.6 97.1904L7872.77 140.6C7872.77 140.601 7872.77 140.602 7872.77 140.604C7825.05 179.854 7773.96 179.85 7726.21 140.604C7726.21 140.603 7726.22 140.604 7726.21 140.604L7673.38 97.1877C7632.71 63.7272 7589.15 63.7244 7548.44 97.1904L7495.61 140.6C7495.61 140.601 7495.61 140.602 7495.61 140.604C7447.89 179.854 7396.8 179.85 7349.05 140.604C7349.05 140.603 7349.06 140.604 7349.05 140.604L7296.22 97.1877Z" fill="#4E82B5"/>
<path fill-rule="evenodd" clip-rule="evenodd" d="M7296.22 276.201C7255.55 242.566 7211.99 242.563 7171.28 276.203L7160.47 183.415C7208.22 143.963 7259.31 143.959 7307.03 183.414C7307.03 183.414 7307.03 183.413 7307.03 183.414C7307.03 183.415 7307.03 183.417 7307.03 183.418L7359.85 227.052C7400.56 260.692 7444.13 260.691 7484.8 227.056L7484.81 227.052L7537.63 183.415C7537.63 183.415 7537.63 183.416 7537.63 183.415C7585.38 143.964 7636.47 143.959 7684.19 183.414C7684.19 183.415 7684.19 183.416 7684.19 183.418L7737.01 227.052C7777.72 260.692 7821.29 260.691 7861.96 227.056L7861.97 227.052L7914.79 183.415C7914.79 183.415 7914.79 183.416 7914.79 183.415C7962.54 143.964 8013.63 143.959 8061.35 183.414C8061.35 183.415 8061.35 183.416 8061.35 183.418L8114.18 227.052C8154.88 260.692 8198.45 260.691 8239.12 227.056L8239.13 227.052L8291.95 183.415C8291.95 183.415 8291.95 183.416 8291.95 183.415C8339.7 143.963 8390.79 143.959 8438.51 183.418L8427.7 276.201C8387.03 242.566 8343.47 242.563 8302.76 276.203L8249.93 319.839C8249.93 319.84 8249.93 319.842 8249.93 319.843C8202.21 359.298 8151.12 359.294 8103.37 319.842L8050.55 276.205L8050.54 276.201C8009.87 242.566 7966.31 242.563 7925.6 276.203L7872.77 319.839C7872.77 319.84 7872.77 319.842 7872.77 319.843C7825.05 359.297 7773.96 359.294 7726.21 319.843C7726.21 319.842 7726.22 319.843 7726.21 319.843L7673.38 276.201C7632.71 242.566 7589.15 242.563 7548.44 276.203L7495.61 319.839C7495.61 319.84 7495.61 319.842 7495.61 319.843C7447.89 359.297 7396.8 359.294 7349.05 319.843C7349.05 319.842 7349.06 319.843 7349.05 319.843L7296.22 276.201Z" fill="#4E82B5"/>
<path fill-rule="evenodd" clip-rule="evenodd" d="M7296.22 454.198C7255.55 420.389 7211.99 420.386 7171.28 454.201L7160.47 360.932C7208.22 321.275 7259.31 321.271 7307.03 360.93C7307.03 360.931 7307.03 360.93 7307.03 360.93C7307.03 360.931 7307.03 360.933 7307.03 360.934L7359.85 404.794C7400.56 438.609 7444.13 438.608 7484.8 404.799L7484.81 404.794L7537.63 360.932C7537.63 360.931 7537.63 360.932 7537.63 360.932C7585.38 321.277 7636.47 321.271 7684.19 360.93C7684.19 360.932 7684.19 360.933 7684.19 360.934L7737.01 404.794C7777.72 438.609 7821.29 438.608 7861.96 404.799L7861.97 404.794L7914.79 360.932C7914.79 360.931 7914.79 360.932 7914.79 360.932C7962.54 321.277 8013.63 321.271 8061.35 360.93C8061.35 360.932 8061.35 360.933 8061.35 360.934L8114.18 404.794C8154.88 438.609 8198.45 438.608 8239.12 404.799L8239.13 404.794L8291.95 360.932C8291.95 360.931 8291.95 360.932 8291.95 360.932C8339.7 321.275 8390.79 321.271 8438.51 360.934L8427.7 454.198C8387.03 420.389 8343.47 420.386 8302.76 454.201L8249.93 498.062C8249.93 498.064 8249.93 498.065 8249.93 498.066C8202.21 537.726 8151.12 537.722 8103.37 498.065L8050.55 454.202L8050.54 454.198C8009.87 420.389 7966.31 420.386 7925.6 454.201L7872.77 498.062C7872.77 498.064 7872.77 498.065 7872.77 498.066C7825.05 537.725 7773.96 537.722 7726.21 498.066C7726.21 498.066 7726.22 498.067 7726.21 498.066L7673.38 454.198C7632.71 420.389 7589.15 420.386 7548.44 454.201L7495.61 498.062C7495.61 498.064 7495.61 498.065 7495.61 498.066C7447.89 537.725 7396.8 537.722 7349.05 498.066C7349.05 498.066 7349.06 498.067 7349.05 498.066L7296.22 454.198Z" fill="#4E82B5"/>
<path fill-rule="evenodd" clip-rule="evenodd" d="M7296.22 632.702C7255.55 599.416 7211.99 599.413 7171.28 632.705L7160.47 540.878C7208.22 501.835 7259.31 501.831 7307.03 540.877C7307.03 540.877 7307.03 540.876 7307.03 540.877C7307.03 540.878 7307.03 540.88 7307.03 540.881L7359.85 584.062C7400.56 617.354 7444.13 617.353 7484.8 584.067L7484.81 584.062L7537.63 540.878C7537.63 540.877 7537.63 540.878 7537.63 540.878C7585.38 501.836 7636.47 501.831 7684.19 540.877C7684.19 540.878 7684.19 540.879 7684.19 540.881L7737.01 584.062C7777.72 617.354 7821.29 617.353 7861.96 584.067L7861.97 584.062L7914.79 540.878C7914.79 540.877 7914.79 540.878 7914.79 540.878C7962.54 501.836 8013.63 501.831 8061.35 540.877C8061.35 540.878 8061.35 540.879 8061.35 540.881L8114.18 584.062C8154.88 617.354 8198.45 617.353 8239.12 584.067L8239.13 584.062L8291.95 540.878C8291.95 540.877 8291.95 540.878 8291.95 540.878C8339.7 501.835 8390.79 501.831 8438.51 540.881L8427.7 632.702C8387.03 599.416 8343.47 599.413 8302.76 632.705L8249.93 675.888C8249.93 675.889 8249.93 675.891 8249.93 675.892C8202.21 714.938 8151.12 714.934 8103.37 675.891L8050.55 632.706L8050.54 632.702C8009.87 599.416 7966.31 599.413 7925.6 632.705L7872.77 675.888C7872.77 675.889 7872.77 675.891 7872.77 675.892C7825.05 714.938 7773.96 714.934 7726.21 675.892C7726.21 675.892 7726.22 675.893 7726.21 675.892L7673.38 632.702C7632.71 599.416 7589.15 599.413 7548.44 632.705L7495.61 675.888C7495.61 675.889 7495.61 675.891 7495.61 675.892C7447.89 714.938 7396.8 714.934 7349.05 675.892C7349.05 675.892 7349.06 675.893 7349.05 675.892L7296.22 632.702Z" fill="#4E82B5"/>
<circle cx="7381" cy="106.781" r="327" fill="#14324F"/>
<rect width="109.689" height="14.3327" transform="matrix(-1 0 0 1 8065.71 451.781)" fill="#393A3D"/>
<rect width="109.689" height="14.3327" transform="matrix(-1 0 0 1 8065.71 480.445)" fill="#393A3D"/>
<rect width="109.689" height="14.3327" transform="matrix(-1 0 0 1 8065.71 509.113)" fill="#393A3D"/>
<rect width="109.689" height="14.3327" transform="matrix(-1 0 0 1 8065.71 537.777)" fill="#393A3D"/>
<rect width="109.689" height="14.3327" transform="matrix(-1 0 0 1 8065.71 566.443)" fill="#393A3D"/>
<rect width="109.689" height="14.3327" transform="matrix(-1 0 0 1 8065.71 595.107)" fill="#393A3D"/>
<rect width="109.689" height="14.3327" transform="matrix(-1 0 0 1 8065.71 623.773)" fill="#393A3D"/>
<rect width="109.689" height="14.3327" transform="matrix(-1 0 0 1 8065.71 652.439)" fill="#393A3D"/>
<path d="M8103 435.781C8103 492.114 8148.22 537.781 8204 537.781C8259.78 537.781 8305 492.114 8305 435.781H8103Z" fill="#393A3D"/>
<path d="M8069 435.781C8069 380.001 8023.56 334.781 7967.5 334.781C7911.44 334.781 7866 380.001 7866 435.781L8069 435.781Z" fill="#393A3D"/>
</g>
<g clip-path="url(#clip6_1_12317)">
<rect width="1200" height="675" transform="translate(8400 0.78125)" fill="#DFD4D8"/>
<rect x="8400" y="-52.2188" width="430" height="719" fill="#F4F4EF"/>
<path d="M9148.8 282.383C9081.09 214.674 8971.31 214.674 8903.6 282.383C8835.89 350.092 8835.89 459.871 8903.6 527.58L8951.68 479.502C8910.52 438.345 8910.52 371.617 8951.68 330.461C8992.83 289.304 9059.56 289.304 9100.72 330.461L9148.8 282.383Z" fill="#4E82B5"/>
<path d="M9677.8 282.383C9610.09 214.674 9500.31 214.674 9432.6 282.383C9364.89 350.092 9364.89 459.871 9432.6 527.58L9480.68 479.502C9439.52 438.345 9439.52 371.617 9480.68 330.461C9521.83 289.304 9588.56 289.304 9629.72 330.461L9677.8 282.383Z" fill="#4E82B5"/>
<path d="M9061.79 404.977C9129.5 472.686 9239.28 472.686 9306.99 404.977C9374.7 337.267 9374.7 227.489 9306.99 159.779L9258.91 207.857C9300.07 249.014 9300.07 315.742 9258.91 356.899C9217.75 398.055 9151.02 398.055 9109.87 356.899L9061.79 404.977Z" fill="#4E82B5"/>
<path d="M9590.79 404.977C9658.5 472.686 9768.28 472.686 9835.99 404.977C9903.7 337.267 9903.7 227.489 9835.99 159.779L9787.91 207.857C9829.07 249.014 9829.07 315.742 9787.91 356.899C9746.75 398.055 9680.02 398.055 9638.87 356.899L9590.79 404.977Z" fill="#4E82B5"/>
<path d="M9148.8 70.3828C9081.09 2.6735 8971.31 2.6735 8903.6 70.3828C8835.89 138.092 8835.89 247.871 8903.6 315.58L8951.68 267.502C8910.52 226.345 8910.52 159.617 8951.68 118.461C8992.83 77.304 9059.56 77.304 9100.72 118.461L9148.8 70.3828Z" fill="#4E82B5"/>
<path d="M9677.8 70.3828C9610.09 2.6735 9500.31 2.6735 9432.6 70.3828C9364.89 138.092 9364.89 247.871 9432.6 315.58L9480.68 267.502C9439.52 226.345 9439.52 159.617 9480.68 118.461C9521.83 77.304 9588.56 77.304 9629.72 118.461L9677.8 70.3828Z" fill="#4E82B5"/>
<path d="M9061.79 192.977C9129.5 260.686 9239.28 260.686 9306.99 192.977C9374.7 125.267 9374.7 15.4886 9306.99 -52.2207L9258.91 -4.1428C9300.07 37.0139 9300.07 103.742 9258.91 144.899C9217.75 186.055 9151.02 186.055 9109.87 144.899L9061.79 192.977Z" fill="#4E82B5"/>
<path d="M9590.79 192.977C9658.5 260.686 9768.28 260.686 9835.99 192.977C9903.7 125.267 9903.7 15.4886 9835.99 -52.2207L9787.91 -4.1428C9829.07 37.0139 9829.07 103.742 9787.91 144.899C9746.75 186.055 9680.02 186.055 9638.87 144.899L9590.79 192.977Z" fill="#4E82B5"/>
<path d="M9148.8 506.383C9081.09 438.674 8971.31 438.674 8903.6 506.383C8835.89 574.092 8835.89 683.871 8903.6 751.58L8951.68 703.502C8910.52 662.345 8910.52 595.617 8951.68 554.461C8992.83 513.304 9059.56 513.304 9100.72 554.461L9148.8 506.383Z" fill="#4E82B5"/>
<path d="M9677.8 506.383C9610.09 438.674 9500.31 438.674 9432.6 506.383C9364.89 574.092 9364.89 683.871 9432.6 751.58L9480.68 703.502C9439.52 662.345 9439.52 595.617 9480.68 554.461C9521.83 513.304 9588.56 513.304 9629.72 554.461L9677.8 506.383Z" fill="#4E82B5"/>
<path d="M9061.79 628.979C9129.5 696.688 9239.28 696.688 9306.99 628.979C9374.7 561.269 9374.7 451.491 9306.99 383.781L9258.91 431.859C9300.07 473.016 9300.07 539.744 9258.91 580.901C9217.75 622.057 9151.02 622.057 9109.87 580.901L9061.79 628.979Z" fill="#4E82B5"/>
<path d="M9590.79 628.979C9658.5 696.688 9768.28 696.688 9835.99 628.979C9903.7 561.269 9903.7 451.491 9835.99 383.781L9787.91 431.859C9829.07 473.016 9829.07 539.744 9787.91 580.901C9746.75 622.057 9680.02 622.057 9638.87 580.901L9590.79 628.979Z" fill="#4E82B5"/>
<circle cx="8675.5" cy="50.2812" r="60.5" fill="#14324F"/>
<circle cx="8509.5" cy="171.281" r="60.5" fill="#14324F"/>
<circle cx="9554.5" cy="192.281" r="60.5" fill="#14324F"/>
<circle cx="9025.5" cy="186.281" r="60.5" fill="#14324F"/>
<circle cx="9191.5" cy="71.2812" r="60.5" fill="#14324F"/>
<circle cx="8675.5" cy="270.281" r="60.5" fill="#14324F"/>
<circle cx="8509.5" cy="391.281" r="60.5" fill="#14324F"/>
<circle cx="9554.5" cy="412.281" r="60.5" fill="#14324F"/>
<circle cx="9025.5" cy="406.281" r="60.5" fill="#14324F"/>
<circle cx="9191.5" cy="291.281" r="60.5" fill="#14324F"/>
<circle cx="8675.5" cy="496.281" r="60.5" fill="#14324F"/>
<circle cx="8509.5" cy="617.281" r="60.5" fill="#14324F"/>
<circle cx="9554.5" cy="638.281" r="60.5" fill="#14324F"/>
<circle cx="9025.5" cy="632.281" r="60.5" fill="#14324F"/>
<circle cx="9191.5" cy="517.281" r="60.5" fill="#14324F"/>
</g>
<g clip-path="url(#clip7_1_12317)">
<rect width="1200" height="675" transform="translate(9600 0.78125)" fill="#DFD4D8"/>
<rect x="9600" y="0.78125" width="387" height="666" fill="#F4F4EF"/>
<path d="M10624 674.781C10624 499.155 10481.4 356.781 10305.5 356.781C10129.6 356.781 9987 499.155 9987 674.781L10624 674.781Z" fill="#14324F"/>
<path d="M9759 674.781C9759 611.821 9810.04 560.781 9873 560.781C9935.96 560.781 9987 611.821 9987 674.781L9759 674.781Z" fill="#393A3D"/>
<path d="M10487 196.781L10546.8 299.531H10427.2L10487 196.781Z" fill="#4E82B5"/>
<path d="M10338 196.781L10397.8 299.531H10278.2L10338 196.781Z" fill="#4E82B5"/>
<path d="M10636 196.781L10695.8 299.531H10576.2L10636 196.781Z" fill="#4E82B5"/>
<path d="M10785 196.781L10844.8 299.531H10725.2L10785 196.781Z" fill="#4E82B5"/>
<path d="M10560 300.781L10500.2 198.031L10619.8 198.031L10560 300.781Z" fill="#4E82B5"/>
<path d="M10411 300.781L10351.2 198.031L10470.8 198.031L10411 300.781Z" fill="#4E82B5"/>
<path d="M10709 300.781L10649.2 198.031L10768.8 198.031L10709 300.781Z" fill="#4E82B5"/>
<path d="M10858 300.781L10798.2 198.031L10917.8 198.031L10858 300.781Z" fill="#4E82B5"/>
<path d="M10487 75.7812L10546.8 178.531H10427.2L10487 75.7812Z" fill="#4E82B5"/>
<path d="M10338 75.7812L10397.8 178.531H10278.2L10338 75.7812Z" fill="#4E82B5"/>
<path d="M10636 75.7812L10695.8 178.531H10576.2L10636 75.7812Z" fill="#4E82B5"/>
<path d="M10785 75.7812L10844.8 178.531H10725.2L10785 75.7812Z" fill="#4E82B5"/>
<path d="M10560 179.781L10500.2 77.0312L10619.8 77.0312L10560 179.781Z" fill="#4E82B5"/>
<path d="M10411 179.781L10351.2 77.0312L10470.8 77.0312L10411 179.781Z" fill="#4E82B5"/>
<path d="M10709 179.781L10649.2 77.0312L10768.8 77.0312L10709 179.781Z" fill="#4E82B5"/>
<path d="M10858 179.781L10798.2 77.0312L10917.8 77.0312L10858 179.781Z" fill="#4E82B5"/>
<path fill-rule="evenodd" clip-rule="evenodd" d="M9181.3 84.8508C9155.36 69.2044 9127.58 69.2037 9101.61 84.8514L9098.31 64.165C9126.42 47.2216 9156.51 47.2206 9184.6 64.1647C9184.6 64.165 9184.6 64.1644 9184.6 64.1647L9216.9 83.6222C9242.86 99.2699 9270.64 99.2696 9296.58 83.6231L9328.88 64.165C9328.88 64.1649 9328.88 64.1651 9328.88 64.165C9356.99 47.2219 9387.07 47.2207 9415.17 64.1647C9415.17 64.165 9415.17 64.1644 9415.17 64.1647L9447.46 83.6222C9473.42 99.2699 9501.2 99.2696 9527.15 83.6231L9559.44 64.165C9559.44 64.1649 9559.44 64.1651 9559.44 64.165C9587.55 47.2219 9617.64 47.2207 9645.73 64.1647C9645.73 64.165 9645.73 64.1644 9645.73 64.1647L9678.03 83.6222C9703.99 99.2699 9731.77 99.2696 9757.71 83.6231L9790.01 64.165C9818.12 47.2213 9848.2 47.2206 9876.3 64.1656L9872.99 84.8508C9847.05 69.2044 9819.27 69.2037 9793.31 84.8514L9761.02 104.308C9761.02 104.309 9761.02 104.308 9761.02 104.308C9732.92 121.252 9702.84 121.252 9674.72 104.309L9642.43 84.8517C9616.49 69.2053 9588.71 69.2037 9562.74 84.8514L9530.45 104.308C9502.36 121.253 9472.27 121.253 9444.16 104.309C9444.16 104.309 9444.16 104.309 9444.16 104.309L9411.87 84.8517C9385.92 69.2053 9358.14 69.2037 9332.18 84.8514L9299.89 104.308C9271.79 121.253 9241.71 121.253 9213.6 104.309C9213.6 104.309 9213.6 104.309 9213.6 104.309L9181.3 84.8508Z" fill="#4E82B5"/>
<path fill-rule="evenodd" clip-rule="evenodd" d="M9181.3 164.765C9155.36 149.118 9127.58 149.118 9101.61 164.765L9098.31 144.079C9126.42 127.136 9156.51 127.135 9184.6 144.079C9184.6 144.079 9184.6 144.078 9184.6 144.079L9216.9 163.536C9242.86 179.184 9270.64 179.184 9296.58 163.537L9328.88 144.079C9328.88 144.079 9328.88 144.079 9328.88 144.079C9356.99 127.136 9387.07 127.135 9415.17 144.079C9415.17 144.079 9415.17 144.078 9415.17 144.079L9447.46 163.536C9473.42 179.184 9501.2 179.184 9527.15 163.537L9559.44 144.079C9559.44 144.079 9559.44 144.079 9559.44 144.079C9587.55 127.136 9617.64 127.135 9645.73 144.079C9645.73 144.079 9645.73 144.078 9645.73 144.079L9678.03 163.536C9703.99 179.184 9731.77 179.184 9757.71 163.537L9790.01 144.079C9818.12 127.135 9848.2 127.135 9876.3 144.08L9872.99 164.765C9847.05 149.118 9819.27 149.118 9793.31 164.765L9761.02 184.222C9761.02 184.223 9761.02 184.222 9761.02 184.222C9732.92 201.167 9702.84 201.166 9674.72 184.223L9642.43 164.766C9616.49 149.119 9588.71 149.118 9562.74 164.765L9530.45 184.222C9502.36 201.167 9472.27 201.167 9444.16 184.223C9444.16 184.223 9444.16 184.223 9444.16 184.223L9411.87 164.766C9385.92 149.119 9358.14 149.118 9332.18 164.765L9299.89 184.222C9271.79 201.167 9241.71 201.167 9213.6 184.223C9213.6 184.223 9213.6 184.223 9213.6 184.223L9181.3 164.765Z" fill="#4E82B5"/>
<path fill-rule="evenodd" clip-rule="evenodd" d="M9181.3 244.679C9155.36 229.032 9127.58 229.032 9101.61 244.68L9098.31 223.993C9126.42 207.05 9156.51 207.049 9184.6 223.993C9184.6 223.993 9184.6 223.992 9184.6 223.993L9216.9 243.45C9242.86 259.098 9270.64 259.098 9296.58 243.451L9328.88 223.993C9328.88 223.993 9328.88 223.993 9328.88 223.993C9356.99 207.05 9387.07 207.049 9415.17 223.993C9415.17 223.993 9415.17 223.992 9415.17 223.993L9447.46 243.45C9473.42 259.098 9501.2 259.098 9527.15 243.451L9559.44 223.993C9559.44 223.993 9559.44 223.993 9559.44 223.993C9587.55 207.05 9617.64 207.049 9645.73 223.993C9645.73 223.993 9645.73 223.992 9645.73 223.993L9678.03 243.45C9703.99 259.098 9731.77 259.098 9757.71 243.451L9790.01 223.993C9818.12 207.049 9848.2 207.049 9876.3 223.994L9872.99 244.679C9847.05 229.032 9819.27 229.032 9793.31 244.68L9761.02 264.137C9761.02 264.137 9761.02 264.136 9761.02 264.137C9732.92 281.081 9702.84 281.081 9674.72 264.137L9642.43 244.68C9616.49 229.033 9588.71 229.032 9562.74 244.68L9530.45 264.137C9502.36 281.081 9472.27 281.081 9444.16 264.137C9444.16 264.137 9444.16 264.138 9444.16 264.137L9411.87 244.68C9385.92 229.033 9358.14 229.032 9332.18 244.68L9299.89 264.137C9271.79 281.081 9241.71 281.081 9213.6 264.137C9213.6 264.137 9213.6 264.138 9213.6 264.137L9181.3 244.679Z" fill="#4E82B5"/>
<path fill-rule="evenodd" clip-rule="evenodd" d="M9181.3 324.597C9155.36 308.95 9127.58 308.95 9101.61 324.598L9098.31 303.911C9126.42 286.968 9156.51 286.967 9184.6 303.911C9184.6 303.911 9184.6 303.91 9184.6 303.911L9216.9 323.368C9242.86 339.016 9270.64 339.016 9296.58 323.369L9328.88 303.911C9328.88 303.911 9328.88 303.911 9328.88 303.911C9356.99 286.968 9387.07 286.967 9415.17 303.911C9415.17 303.911 9415.17 303.91 9415.17 303.911L9447.46 323.368C9473.42 339.016 9501.2 339.016 9527.15 323.369L9559.44 303.911C9559.44 303.911 9559.44 303.911 9559.44 303.911C9587.55 286.968 9617.64 286.967 9645.73 303.911C9645.73 303.911 9645.73 303.91 9645.73 303.911L9678.03 323.368C9703.99 339.016 9731.77 339.016 9757.71 323.369L9790.01 303.911C9818.12 286.967 9848.2 286.967 9876.3 303.912L9872.99 324.597C9847.05 308.95 9819.27 308.95 9793.31 324.598L9761.02 344.054C9761.02 344.055 9761.02 344.054 9761.02 344.054C9732.92 360.999 9702.84 360.999 9674.72 344.055L9642.43 324.598C9616.49 308.951 9588.71 308.95 9562.74 324.598L9530.45 344.054C9502.36 360.999 9472.27 360.999 9444.16 344.055C9444.16 344.055 9444.16 344.056 9444.16 344.055L9411.87 324.598C9385.92 308.951 9358.14 308.95 9332.18 324.598L9299.89 344.054C9271.79 360.999 9241.71 360.999 9213.6 344.055C9213.6 344.055 9213.6 344.056 9213.6 344.055L9181.3 324.597Z" fill="#4E82B5"/>
<path fill-rule="evenodd" clip-rule="evenodd" d="M9181.3 404.511C9155.36 388.865 9127.58 388.864 9101.61 404.512L9098.31 383.825C9126.42 366.882 9156.51 366.881 9184.6 383.825C9184.6 383.825 9184.6 383.825 9184.6 383.825L9216.9 403.282C9242.86 418.93 9270.64 418.93 9296.58 403.283L9328.88 383.825C9328.88 383.825 9328.88 383.825 9328.88 383.825C9356.99 366.882 9387.07 366.881 9415.17 383.825C9415.17 383.825 9415.17 383.825 9415.17 383.825L9447.46 403.282C9473.42 418.93 9501.2 418.93 9527.15 403.283L9559.44 383.825C9559.44 383.825 9559.44 383.825 9559.44 383.825C9587.55 366.882 9617.64 366.881 9645.73 383.825C9645.73 383.825 9645.73 383.825 9645.73 383.825L9678.03 403.282C9703.99 418.93 9731.77 418.93 9757.71 403.283L9790.01 383.825C9818.12 366.881 9848.2 366.881 9876.3 383.826L9872.99 404.511C9847.05 388.865 9819.27 388.864 9793.31 404.512L9761.02 423.969C9761.02 423.969 9761.02 423.968 9761.02 423.969C9732.92 440.913 9702.84 440.913 9674.72 423.969L9642.43 404.512C9616.49 388.865 9588.71 388.864 9562.74 404.512L9530.45 423.969C9502.36 440.913 9472.27 440.913 9444.16 423.969C9444.16 423.969 9444.16 423.97 9444.16 423.969L9411.87 404.512C9385.92 388.865 9358.14 388.864 9332.18 404.512L9299.89 423.969C9271.79 440.913 9241.71 440.913 9213.6 423.969C9213.6 423.969 9213.6 423.97 9213.6 423.969L9181.3 404.511Z" fill="#4E82B5"/>
</g>
<g clip-path="url(#clip8_1_12317)">
<rect width="1200" height="675" transform="translate(10800 0.78125)" fill="#F4F4EF"/>
<rect x="10800" y="0.78125" width="1197" height="352" fill="#DFD4D8"/>
<rect width="142.671" height="18.6423" transform="matrix(-1 0 0 1 11465.7 423.762)" fill="#393A3D"/>
<rect width="142.671" height="18.6423" transform="matrix(-1 0 0 1 11465.7 461.047)" fill="#393A3D"/>
<rect width="142.671" height="18.6423" transform="matrix(-1 0 0 1 11465.7 498.328)" fill="#393A3D"/>
<rect width="142.671" height="18.6423" transform="matrix(-1 0 0 1 11465.7 535.617)" fill="#393A3D"/>
<rect width="142.671" height="18.6423" transform="matrix(-1 0 0 1 11465.7 572.9)" fill="#393A3D"/>
<rect width="142.671" height="18.6423" transform="matrix(-1 0 0 1 11465.7 610.184)" fill="#393A3D"/>
<rect width="142.671" height="18.6423" transform="matrix(-1 0 0 1 11465.7 647.469)" fill="#393A3D"/>
<path d="M11406 353.094C11406 426.548 11464.9 486.094 11537.5 486.094C11610.1 486.094 11669 426.548 11669 353.094H11406Z" fill="#14324F"/>
<path d="M11362 353.094C11362 280.744 11302.9 222.094 11230 222.094C11157.1 222.094 11098 280.745 11098 353.094L11362 353.094Z" fill="#4E82B5"/>
<path d="M11388.8 331.566C11459.5 350.53 11532.1 309.092 11550.9 239.011C11569.7 168.93 11527.5 96.745 11456.8 77.781L11388.8 331.566Z" fill="#4E82B5"/>
<path d="M11377.3 374.281C11307.2 355.503 11235.1 397.373 11216.3 467.801C11197.4 538.229 11238.9 610.545 11309 629.323L11377.3 374.281Z" fill="#14324F"/>
<path fill-rule="evenodd" clip-rule="evenodd" d="M10833.5 141.781C10904.5 141.781 10962 84.2498 10962 13.2812C10962 -57.6873 10904.5 -115.219 10833.5 -115.219C10762.5 -115.219 10705 -57.6873 10705 13.2812C10705 84.2498 10762.5 141.781 10833.5 141.781ZM10833.5 91.3891C10876.6 91.3891 10911.6 56.4191 10911.6 13.2812C10911.6 -29.8566 10876.6 -64.8266 10833.5 -64.8266C10790.4 -64.8266 10755.4 -29.8566 10755.4 13.2812C10755.4 56.4191 10790.4 91.3891 10833.5 91.3891Z" fill="#F4F4EF"/>
</g>
<g clip-path="url(#clip9_1_12317)">
<rect width="1200" height="675" transform="translate(12000 0.78125)" fill="#F4F4EF"/>
<rect x="12000" y="0.78125" width="397" height="666" fill="#DFD4D8"/>
<path d="M12187.3 134.781V322.24H11999L12187.3 134.781Z" fill="#4E82B5"/>
<path d="M12209.5 134.781V322.24H12396.9L12209.5 134.781Z" fill="#4E82B5"/>
<path d="M12208.7 531.898L12208.7 344.44L12396.9 344.44L12208.7 531.898Z" fill="#4E82B5"/>
<path d="M12186.5 531.898L12186.5 344.44L11999 344.44L12186.5 531.898Z" fill="#4E82B5"/>
<path d="M12577 134.781V322.24H12388.7L12577 134.781Z" fill="#393A3D"/>
<path d="M12599.2 134.781V322.24H12786.7L12599.2 134.781Z" fill="#393A3D"/>
<path d="M12598.4 531.898L12598.4 344.44L12786.7 344.44L12598.4 531.898Z" fill="#393A3D"/>
<path d="M12576.2 531.898L12576.2 344.44L12388.7 344.44L12576.2 531.898Z" fill="#393A3D"/>
<path d="M12974.9 134.781V322.24H12786.7L12974.9 134.781Z" fill="#4E82B5"/>
<path d="M12997.1 134.781V322.24H13184.6L12997.1 134.781Z" fill="#4E82B5"/>
<path d="M12996.3 531.898L12996.3 344.44L13184.6 344.44L12996.3 531.898Z" fill="#4E82B5"/>
<path d="M12974.1 531.898L12974.1 344.44L12786.7 344.44L12974.1 531.898Z" fill="#4E82B5"/>
</g>
<g clip-path="url(#clip10_1_12317)">
<rect width="1200" height="675" transform="translate(13200 0.78125)" fill="#DFD4D8"/>
<rect x="13200" y="0.78125" width="397" height="666" fill="#F4F4EF"/>
<path fill-rule="evenodd" clip-rule="evenodd" d="M13201.9 473.442C13177 453.008 13150.4 453.006 13125.5 473.444L13118.9 417.071C13148.1 393.103 13179.3 393.1 13208.5 417.071C13208.5 417.071 13208.5 417.07 13208.5 417.071C13208.5 417.071 13208.5 417.072 13208.5 417.073L13240.8 443.582C13265.7 464.02 13292.3 464.019 13317.2 443.585L13317.2 443.582L13349.5 417.071C13349.5 417.071 13349.5 417.072 13349.5 417.071C13378.7 393.103 13409.9 393.1 13439.1 417.071C13439.1 417.071 13439.1 417.072 13439.1 417.073L13471.4 443.582C13496.3 464.02 13522.9 464.019 13547.8 443.585L13547.8 443.582L13580 417.071C13580 417.071 13580 417.072 13580 417.071C13609.2 393.103 13640.5 393.1 13669.6 417.071C13669.6 417.071 13669.6 417.072 13669.6 417.073L13701.9 443.582C13726.8 464.02 13753.5 464.019 13778.3 443.585L13778.3 443.582L13810.6 417.071C13810.6 417.071 13810.6 417.072 13810.6 417.071C13839.8 393.103 13871 393.1 13900.2 417.073L13893.6 473.442C13868.7 453.008 13842.1 453.006 13817.2 473.444L13784.9 499.954C13784.9 499.955 13784.9 499.956 13784.9 499.957C13755.8 523.927 13724.5 523.925 13695.3 499.956L13663 473.445L13663 473.442C13638.2 453.008 13611.5 453.006 13586.7 473.444L13554.4 499.954C13554.4 499.955 13554.4 499.956 13554.4 499.957C13525.2 523.927 13494 523.925 13464.8 499.957C13464.8 499.957 13464.8 499.957 13464.8 499.957L13432.5 473.442C13407.6 453.008 13381 453.006 13356.1 473.444L13323.8 499.954C13323.8 499.955 13323.8 499.956 13323.8 499.957C13294.6 523.927 13263.4 523.925 13234.2 499.957C13234.2 499.957 13234.2 499.957 13234.2 499.957L13201.9 473.442Z" fill="#4E82B5"/>
<path fill-rule="evenodd" clip-rule="evenodd" d="M13201.9 582.329C13177 561.895 13150.4 561.893 13125.5 582.331L13118.9 525.958C13148.1 501.989 13179.3 501.987 13208.5 525.957C13208.5 525.957 13208.5 525.957 13208.5 525.957C13208.5 525.958 13208.5 525.959 13208.5 525.96L13240.8 552.469C13265.7 572.907 13292.3 572.906 13317.2 552.472L13317.2 552.469L13349.5 525.958C13349.5 525.958 13349.5 525.958 13349.5 525.958C13378.7 501.99 13409.9 501.987 13439.1 525.957C13439.1 525.958 13439.1 525.959 13439.1 525.96L13471.4 552.469C13496.3 572.907 13522.9 572.906 13547.8 552.472L13547.8 552.469L13580 525.958C13580 525.958 13580 525.958 13580 525.958C13609.2 501.99 13640.5 501.987 13669.6 525.957C13669.6 525.958 13669.6 525.959 13669.6 525.96L13701.9 552.469C13726.8 572.907 13753.5 572.906 13778.3 552.472L13778.3 552.469L13810.6 525.958C13810.6 525.958 13810.6 525.958 13810.6 525.958C13839.8 501.989 13871 501.987 13900.2 525.96L13893.6 582.329C13868.7 561.895 13842.1 561.893 13817.2 582.331L13784.9 608.841C13784.9 608.842 13784.9 608.843 13784.9 608.844C13755.8 632.814 13724.5 632.811 13695.3 608.843L13663 582.332L13663 582.329C13638.2 561.895 13611.5 561.893 13586.7 582.331L13554.4 608.841C13554.4 608.842 13554.4 608.843 13554.4 608.844C13525.2 632.814 13494 632.811 13464.8 608.844C13464.8 608.843 13464.8 608.844 13464.8 608.844L13432.5 582.329C13407.6 561.895 13381 561.893 13356.1 582.331L13323.8 608.841C13323.8 608.842 13323.8 608.843 13323.8 608.844C13294.6 632.814 13263.4 632.811 13234.2 608.844C13234.2 608.843 13234.2 608.844 13234.2 608.844L13201.9 582.329Z" fill="#4E82B5"/>
<path fill-rule="evenodd" clip-rule="evenodd" d="M13201.9 691.22C13177 670.785 13150.4 670.784 13125.5 691.221L13118.9 634.849C13148.1 610.88 13179.3 610.877 13208.5 634.848C13208.5 634.848 13208.5 634.848 13208.5 634.848C13208.5 634.848 13208.5 634.85 13208.5 634.85L13240.8 661.36C13265.7 681.798 13292.3 681.797 13317.2 661.362L13317.2 661.36L13349.5 634.849C13349.5 634.848 13349.5 634.849 13349.5 634.849C13378.7 610.881 13409.9 610.878 13439.1 634.848C13439.1 634.849 13439.1 634.85 13439.1 634.85L13471.4 661.36C13496.3 681.798 13522.9 681.797 13547.8 661.362L13547.8 661.36L13580 634.849C13580 634.848 13580 634.849 13580 634.849C13609.2 610.881 13640.5 610.878 13669.6 634.848C13669.6 634.849 13669.6 634.85 13669.6 634.85L13701.9 661.36C13726.8 681.798 13753.5 681.797 13778.3 661.362L13778.3 661.36L13810.6 634.849C13810.6 634.848 13810.6 634.849 13810.6 634.849C13839.8 610.88 13871 610.878 13900.2 634.85L13893.6 691.22C13868.7 670.785 13842.1 670.784 13817.2 691.221L13784.9 717.732C13784.9 717.732 13784.9 717.733 13784.9 717.734C13755.8 741.705 13724.5 741.702 13695.3 717.733L13663 691.222L13663 691.22C13638.2 670.785 13611.5 670.784 13586.7 691.221L13554.4 717.732C13554.4 717.732 13554.4 717.733 13554.4 717.734C13525.2 741.704 13494 741.702 13464.8 717.734C13464.8 717.734 13464.8 717.734 13464.8 717.734L13432.5 691.22C13407.6 670.785 13381 670.784 13356.1 691.221L13323.8 717.732C13323.8 717.732 13323.8 717.733 13323.8 717.734C13294.6 741.704 13263.4 741.702 13234.2 717.734C13234.2 717.734 13234.2 717.734 13234.2 717.734L13201.9 691.22Z" fill="#4E82B5"/>
<path fill-rule="evenodd" clip-rule="evenodd" d="M13994 269.199C13970.2 254.201 13944.7 254.2 13920.9 269.2L13914.5 227.827C13942.5 210.236 13972.4 210.234 14000.3 227.826C14000.3 227.826 14000.3 227.826 14000.3 227.826C14000.3 227.827 14000.3 227.828 14000.3 227.828L14031.2 247.284C14055 262.284 14080.5 262.283 14104.3 247.286L14104.3 247.284L14135.3 227.827C14135.3 227.827 14135.3 227.827 14135.3 227.827C14163.2 210.236 14193.1 210.234 14221 227.826C14221 227.827 14221 227.828 14221 227.828L14251.9 247.284C14275.8 262.284 14301.3 262.283 14325.1 247.286L14325.1 247.284L14356 227.827C14356 227.827 14356 227.827 14356 227.827C14383.9 210.236 14413.8 210.234 14441.8 227.826C14441.8 227.827 14441.8 227.828 14441.8 227.828L14472.7 247.284C14496.5 262.284 14522 262.283 14545.8 247.286L14545.8 247.284L14576.7 227.827C14576.7 227.827 14576.7 227.827 14576.7 227.827C14604.7 210.236 14634.6 210.234 14662.5 227.828L14656.2 269.199C14632.4 254.201 14606.9 254.2 14583 269.2L14552.1 288.656C14552.1 288.657 14552.1 288.657 14552.1 288.658C14524.2 306.25 14494.3 306.248 14466.4 288.657L14435.4 269.2L14435.4 269.199C14411.6 254.201 14386.1 254.2 14362.3 269.2L14331.4 288.656C14331.4 288.657 14331.4 288.657 14331.4 288.658C14303.5 306.25 14273.6 306.248 14245.6 288.658C14245.6 288.658 14245.6 288.658 14245.6 288.658L14214.7 269.199C14190.9 254.201 14165.4 254.2 14141.6 269.2L14110.7 288.656C14110.7 288.657 14110.7 288.657 14110.7 288.658C14082.7 306.25 14052.8 306.248 14024.9 288.658C14024.9 288.658 14024.9 288.658 14024.9 288.658L13994 269.199Z" fill="#14324F"/>
<path fill-rule="evenodd" clip-rule="evenodd" d="M13994 349.113C13970.2 334.115 13944.7 334.114 13920.9 349.114L13914.5 307.741C13942.5 290.15 13972.4 290.148 14000.3 307.74C14000.3 307.74 14000.3 307.74 14000.3 307.74C14000.3 307.741 14000.3 307.742 14000.3 307.742L14031.2 327.198C14055 342.198 14080.5 342.197 14104.3 327.2L14104.3 327.198L14135.3 307.741C14135.3 307.741 14135.3 307.741 14135.3 307.741C14163.2 290.151 14193.1 290.148 14221 307.74C14221 307.741 14221 307.742 14221 307.742L14251.9 327.198C14275.8 342.198 14301.3 342.197 14325.1 327.2L14325.1 327.198L14356 307.741C14356 307.741 14356 307.741 14356 307.741C14383.9 290.15 14413.8 290.148 14441.8 307.74C14441.8 307.741 14441.8 307.742 14441.8 307.742L14472.7 327.198C14496.5 342.198 14522 342.197 14545.8 327.2L14545.8 327.198L14576.7 307.741C14576.7 307.741 14576.7 307.741 14576.7 307.741C14604.7 290.15 14634.6 290.148 14662.5 307.742L14656.2 349.113C14632.4 334.115 14606.9 334.114 14583 349.114L14552.1 368.57C14552.1 368.571 14552.1 368.571 14552.1 368.572C14524.2 386.164 14494.3 386.163 14466.4 368.571L14435.4 349.115L14435.4 349.113C14411.6 334.115 14386.1 334.114 14362.3 349.114L14331.4 368.57C14331.4 368.571 14331.4 368.571 14331.4 368.572C14303.5 386.164 14273.6 386.163 14245.6 368.572C14245.6 368.572 14245.6 368.572 14245.6 368.572L14214.7 349.113C14190.9 334.115 14165.4 334.114 14141.6 349.114L14110.7 368.57C14110.7 368.571 14110.7 368.571 14110.7 368.572C14082.7 386.164 14052.8 386.163 14024.9 368.572C14024.9 368.572 14024.9 368.572 14024.9 368.572L13994 349.113Z" fill="#14324F"/>
<path fill-rule="evenodd" clip-rule="evenodd" d="M13994 429.031C13970.2 414.033 13944.7 414.032 13920.9 429.032L13914.5 387.659C13942.5 370.068 13972.4 370.066 14000.3 387.658C14000.3 387.658 14000.3 387.658 14000.3 387.658C14000.3 387.659 14000.3 387.66 14000.3 387.66L14031.2 407.116C14055 422.116 14080.5 422.115 14104.3 407.118L14104.3 407.116L14135.3 387.659C14135.3 387.659 14135.3 387.659 14135.3 387.659C14163.2 370.068 14193.1 370.066 14221 387.658C14221 387.659 14221 387.66 14221 387.66L14251.9 407.116C14275.8 422.116 14301.3 422.115 14325.1 407.118L14325.1 407.116L14356 387.659C14356 387.659 14356 387.659 14356 387.659C14383.9 370.068 14413.8 370.066 14441.8 387.658C14441.8 387.659 14441.8 387.66 14441.8 387.66L14472.7 407.116C14496.5 422.116 14522 422.115 14545.8 407.118L14545.8 407.116L14576.7 387.659C14576.7 387.659 14576.7 387.659 14576.7 387.659C14604.7 370.068 14634.6 370.066 14662.5 387.66L14656.2 429.031C14632.4 414.033 14606.9 414.032 14583 429.032L14552.1 448.488C14552.1 448.489 14552.1 448.489 14552.1 448.49C14524.2 466.082 14494.3 466.081 14466.4 448.489L14435.4 429.032L14435.4 429.031C14411.6 414.033 14386.1 414.032 14362.3 429.032L14331.4 448.488C14331.4 448.489 14331.4 448.489 14331.4 448.49C14303.5 466.082 14273.6 466.081 14245.6 448.49C14245.6 448.49 14245.6 448.49 14245.6 448.49L14214.7 429.031C14190.9 414.033 14165.4 414.032 14141.6 429.032L14110.7 448.488C14110.7 448.489 14110.7 448.489 14110.7 448.49C14082.7 466.082 14052.8 466.081 14024.9 448.49C14024.9 448.49 14024.9 448.49 14024.9 448.49L13994 429.031Z" fill="#14324F"/>
<path fill-rule="evenodd" clip-rule="evenodd" d="M13641.6 -263.219C13643.6 -257.641 13646.2 -252.109 13649.5 -246.651L13669 -214.356C13684.6 -188.413 13684.6 -160.632 13669 -134.67L13649.5 -102.376C13632.6 -74.2814 13632.6 -44.1976 13649.5 -16.0862L13669 16.2089C13684.6 42.1515 13684.6 69.9327 13669 95.8945L13649.5 128.189C13632.6 156.284 13632.6 186.367 13649.5 214.479L13670.2 211.176C13654.6 185.215 13654.6 157.434 13670.2 131.491L13689.7 99.1957C13706.6 71.0838 13706.6 41 13689.7 12.9046L13670.2 -19.3885C13654.6 -45.3503 13654.6 -73.1325 13670.2 -99.0751L13689.7 -131.369C13706.6 -159.481 13706.6 -189.565 13689.7 -217.66L13670.2 -249.953C13667.6 -254.329 13665.4 -258.757 13663.6 -263.219H13641.6Z" fill="#4E82B5"/>
<path fill-rule="evenodd" clip-rule="evenodd" d="M13706.7 -263.219C13708.7 -257.641 13711.3 -252.109 13714.6 -246.651L13734.1 -214.356C13749.7 -188.413 13749.7 -160.632 13734.1 -134.67L13714.6 -102.376C13697.7 -74.2814 13697.7 -44.1976 13714.6 -16.0862L13734.1 16.2089C13749.7 42.1515 13749.7 69.9327 13734.1 95.8945L13714.6 128.189C13697.7 156.284 13697.7 186.367 13714.6 214.479L13735.3 211.176C13719.7 185.215 13719.7 157.434 13735.3 131.491L13754.8 99.1957C13771.7 71.0838 13771.7 41 13754.8 12.9046L13735.3 -19.3885C13719.7 -45.3503 13719.7 -73.1325 13735.3 -99.0751L13754.8 -131.369C13771.7 -159.481 13771.7 -189.565 13754.8 -217.66L13735.3 -249.953C13732.7 -254.329 13730.5 -258.757 13728.7 -263.219H13706.7Z" fill="#4E82B5"/>
<path fill-rule="evenodd" clip-rule="evenodd" d="M13771.8 -263.219C13773.8 -257.641 13776.4 -252.109 13779.7 -246.651L13799.2 -214.356C13814.8 -188.413 13814.8 -160.632 13799.2 -134.67L13779.7 -102.376C13762.8 -74.2814 13762.8 -44.1976 13779.7 -16.0862L13799.2 16.2089C13814.8 42.1515 13814.8 69.9327 13799.2 95.8945L13779.7 128.189C13762.8 156.284 13762.8 186.367 13779.7 214.479L13800.4 211.176C13784.8 185.215 13784.8 157.434 13800.4 131.491L13819.9 99.1957C13836.8 71.0838 13836.8 41 13819.9 12.9046L13800.4 -19.3885C13784.8 -45.3503 13784.8 -73.1325 13800.4 -99.0751L13819.9 -131.369C13836.8 -159.481 13836.8 -189.565 13819.9 -217.66L13800.4 -249.953C13797.8 -254.329 13795.6 -258.757 13793.8 -263.219H13771.8Z" fill="#4E82B5"/>
<path fill-rule="evenodd" clip-rule="evenodd" d="M13836.9 -263.219C13838.9 -257.641 13841.6 -252.109 13844.8 -246.651L13864.3 -214.356C13879.9 -188.413 13879.9 -160.632 13864.3 -134.67L13844.8 -102.376C13827.9 -74.2814 13827.9 -44.1976 13844.8 -16.0862L13864.3 16.2089C13879.9 42.1515 13879.9 69.9327 13864.3 95.8945L13844.8 128.189C13827.9 156.284 13827.9 186.367 13844.8 214.479L13865.5 211.176C13849.9 185.215 13849.9 157.434 13865.5 131.491L13885 99.1957C13901.9 71.0838 13901.9 41 13885 12.9046L13865.5 -19.3885C13849.9 -45.3503 13849.9 -73.1325 13865.5 -99.0751L13885 -131.369C13901.9 -159.481 13901.9 -189.565 13885 -217.66L13865.5 -249.953C13862.9 -254.329 13860.7 -258.757 13858.9 -263.219H13836.9Z" fill="#4E82B5"/>
<path fill-rule="evenodd" clip-rule="evenodd" d="M13902 -263.219C13904 -257.641 13906.7 -252.109 13909.9 -246.651L13929.4 -214.356C13945 -188.413 13945 -160.632 13929.4 -134.67L13909.9 -102.376C13893 -74.2814 13893 -44.1976 13909.9 -16.0862L13929.4 16.2089C13945 42.1515 13945 69.9327 13929.4 95.8945L13909.9 128.189C13893 156.284 13893 186.367 13909.9 214.479L13930.6 211.176C13915 185.215 13915 157.434 13930.6 131.491L13950.1 99.1957C13967 71.0838 13967 41 13950.1 12.9046L13930.6 -19.3885C13915 -45.3503 13915 -73.1325 13930.6 -99.0751L13950.1 -131.369C13967 -159.481 13967 -189.565 13950.1 -217.66L13930.6 -249.953C13928 -254.329 13925.8 -258.757 13924.1 -263.219H13902Z" fill="#4E82B5"/>
</g>
<g clip-path="url(#clip11_1_12317)">
<rect width="1200" height="675" transform="translate(14400 0.78125)" fill="#F4F4EF"/>
<rect x="14401" y="0.78125" width="1182" height="336" fill="#DFD4D8"/>
<path d="M15213 160.781V688.781H14685L15213 160.781Z" fill="#393A3D"/>
<path fill-rule="evenodd" clip-rule="evenodd" d="M14535.7 699.593C14495.1 666.306 14451.5 666.304 14410.8 699.595L14400 607.769C14447.7 568.725 14498.8 568.721 14546.6 607.767C14546.6 607.767 14546.6 607.767 14546.6 607.767C14546.6 607.768 14546.6 607.77 14546.6 607.771L14599.4 650.953C14640.1 684.245 14683.7 684.243 14724.3 650.957L14724.3 650.953L14777.2 607.769C14777.2 607.768 14777.2 607.769 14777.2 607.769C14824.9 568.727 14876 568.722 14923.7 607.767C14923.7 607.769 14923.7 607.77 14923.7 607.771L14976.5 650.953C15017.3 684.245 15060.8 684.243 15101.5 650.957L15101.5 650.953L15154.3 607.769C15154.3 607.768 15154.3 607.769 15154.3 607.769C15202.1 568.727 15253.2 568.722 15300.9 607.767C15300.9 607.769 15300.9 607.77 15300.9 607.771L15353.7 650.953C15394.4 684.245 15438 684.243 15478.7 650.957L15478.7 650.953L15531.5 607.769C15531.5 607.768 15531.5 607.769 15531.5 607.769C15579.2 568.725 15630.3 568.722 15678 607.771L15667.2 699.593C15626.6 666.306 15583 666.304 15542.3 699.595L15489.5 742.779C15489.5 742.78 15489.5 742.781 15489.5 742.783C15441.7 781.829 15390.6 781.825 15342.9 742.781L15290.1 699.597L15290.1 699.593C15249.4 666.306 15205.8 666.304 15165.1 699.595L15112.3 742.779C15112.3 742.78 15112.3 742.781 15112.3 742.783C15064.6 781.828 15013.5 781.825 14965.7 742.783C14965.7 742.782 14965.7 742.783 14965.7 742.783L14912.9 699.593C14872.2 666.306 14828.7 666.304 14788 699.595L14735.1 742.779C14735.1 742.78 14735.1 742.781 14735.1 742.783C14687.4 781.828 14636.3 781.825 14588.6 742.783C14588.6 742.782 14588.6 742.783 14588.6 742.783L14535.7 699.593Z" fill="#4E82B5"/>
</g>
<g clip-path="url(#clip12_1_12317)">
<rect width="1200" height="675" transform="translate(15600 0.78125)" fill="#DFD4D8"/>
<rect x="15570" y="293.391" width="1244.97" height="27.1021" fill="#4E82B5"/>
<rect x="15570" y="130.781" width="1244.97" height="27.1021" fill="#4E82B5"/>
<rect x="15570" y="184.984" width="1244.97" height="27.1021" fill="#4E82B5"/>
<rect x="15570" y="456.008" width="1244.97" height="27.1021" fill="#4E82B5"/>
<rect x="15570" y="510.211" width="1244.97" height="27.1021" fill="#4E82B5"/>
<rect x="15570" y="401.801" width="1244.97" height="27.1021" fill="#4E82B5"/>
<rect x="15570" y="239.188" width="1244.97" height="27.1021" fill="#4E82B5"/>
<rect x="15570" y="347.598" width="1244.97" height="27.1021" fill="#4E82B5"/>
<path d="M16569.8 420.164C16569.8 324.409 16492.1 246.783 16396.4 246.783C16300.6 246.783 16223 324.409 16223 420.164L16291 420.164C16291 361.96 16338.2 314.776 16396.4 314.776C16454.6 314.776 16501.8 361.96 16501.8 420.164L16569.8 420.164Z" fill="#14324F"/>
<path d="M15814 246.781C15814 342.537 15891.6 420.162 15987.4 420.162C16083.1 420.162 16160.8 342.537 16160.8 246.781H15814Z" fill="#14324F"/>
</g>
<g clip-path="url(#clip13_1_12317)">
<rect width="1200" height="675" transform="translate(16800 0.78125)" fill="#F4F4EF"/>
<rect x="16801" y="0.78125" width="499" height="666" fill="#DFD4D8"/>
<rect x="17767" y="267.781" width="278" height="27" fill="#4E82B5"/>
<rect x="17767" y="161.781" width="278" height="26" fill="#4E82B5"/>
<rect x="17762" y="586.781" width="278" height="26" fill="#4E82B5"/>
<rect x="17767" y="0.78125" width="278" height="27" fill="#4E82B5"/>
<rect x="17762" y="425.781" width="278" height="27" fill="#4E82B5"/>
<rect x="17767" y="53.7812" width="278" height="27" fill="#4E82B5"/>
<rect x="17762" y="478.781" width="278" height="27" fill="#4E82B5"/>
<rect x="17767" y="374.781" width="278" height="27" fill="#4E82B5"/>
<path d="M17707.8 418.164C17707.8 322.409 17630.1 244.783 17534.4 244.783C17438.6 244.783 17361 322.409 17361 418.164L17429 418.164C17429 359.96 17476.2 312.776 17534.4 312.776C17592.6 312.776 17639.8 359.96 17639.8 418.164L17707.8 418.164Z" fill="#14324F"/>
<path d="M16871 475.781C16871 571.537 16948.6 649.162 17044.4 649.162C17140.1 649.162 17217.8 571.537 17217.8 475.781L17149.8 475.781C17149.8 533.986 17102.6 581.169 17044.4 581.169C16986.2 581.169 16939 533.986 16939 475.781L16871 475.781Z" fill="#14324F"/>
<path d="M16871 244.781C16871 340.537 16948.6 418.162 17044.4 418.162C17140.1 418.162 17217.8 340.537 17217.8 244.781H16871Z" fill="#14324F"/>
<path d="M16871 27.7812C16871 123.537 16948.6 201.162 17044.4 201.162C17140.1 201.162 17217.8 123.537 17217.8 27.7813L17149.8 27.7813C17149.8 85.9856 17102.6 133.169 17044.4 133.169C16986.2 133.169 16939 85.9856 16939 27.7813L16871 27.7812Z" fill="#14324F"/>
<path d="M17707.8 201.164C17707.8 105.409 17630.1 27.7834 17534.4 27.7834C17438.6 27.7834 17361 105.409 17361 201.164L17707.8 201.164Z" fill="#14324F"/>
<path d="M17707.8 649.162C17707.8 553.407 17630.1 475.781 17534.4 475.781C17438.6 475.781 17361 553.407 17361 649.162L17707.8 649.162Z" fill="#14324F"/>
<rect x="17767" y="106.781" width="278" height="28" fill="#4E82B5"/>
<rect x="17762" y="531.781" width="278" height="28" fill="#4E82B5"/>
<rect x="17767" y="214.781" width="278" height="27" fill="#4E82B5"/>
<rect x="17762" y="639.781" width="278" height="27" fill="#4E82B5"/>
<rect x="17767" y="320.781" width="278" height="27" fill="#4E82B5"/>
</g>
<g clip-path="url(#clip14_1_12317)">
<rect width="1200" height="675" transform="translate(18000 0.78125)" fill="#DFD4D8"/>
<rect x="18000" y="0.78125" width="602" height="666" fill="#F4F4EF"/>
<path d="M18173 333.781C18173 429.537 18250.6 507.162 18346.4 507.162C18442.1 507.162 18519.8 429.537 18519.8 333.781H18173Z" fill="#4E82B5"/>
<path d="M19037.8 507.164C19037.8 411.409 18960.1 333.783 18864.4 333.783C18768.6 333.783 18691 411.409 18691 507.164L19037.8 507.164Z" fill="#14324F"/>
<path d="M18309 246.781C18309 216.958 18284.6 192.781 18254.5 192.781C18224.4 192.781 18200 216.958 18200 246.781L18221.4 246.781C18221.4 228.653 18236.2 213.958 18254.5 213.958C18272.8 213.958 18287.6 228.653 18287.6 246.781L18309 246.781Z" fill="#14324F"/>
<path d="M18491 246.781C18491 216.958 18466.6 192.781 18436.5 192.781C18406.4 192.781 18382 216.958 18382 246.781L18403.4 246.781C18403.4 228.653 18418.2 213.958 18436.5 213.958C18454.8 213.958 18469.6 228.653 18469.6 246.781L18491 246.781Z" fill="#14324F"/>
<circle cx="47.5" cy="47.5" r="47.5" transform="matrix(-1 0 0 1 18825 192.781)" fill="#4E82B5"/>
<circle cx="47.5" cy="47.5" r="47.5" transform="matrix(-1 0 0 1 18985 192.781)" fill="#4E82B5"/>
</g>
<g clip-path="url(#clip15_1_12317)">
<rect width="1200" height="675" transform="translate(19200 0.78125)" fill="#F4F4EF"/>
<rect x="19200" y="0.78125" width="592" height="666" fill="#DFD4D8"/>
<path fill-rule="evenodd" clip-rule="evenodd" d="M19492.8 189.132C19467.9 174.135 19441.3 174.134 19416.4 189.133L19409.8 147.761C19439 130.169 19470.2 130.168 19499.4 147.76C19499.4 147.76 19499.4 147.76 19499.4 147.76C19499.4 147.76 19499.4 147.761 19499.4 147.762L19531.7 167.217C19556.6 182.217 19583.2 182.217 19608.1 167.219L19608.1 167.217L19640.4 147.761C19640.4 147.76 19640.4 147.761 19640.4 147.761C19669.5 130.17 19700.8 130.168 19730 147.76C19730 147.76 19730 147.761 19730 147.762L19762.2 167.217C19787.1 182.217 19813.8 182.217 19838.6 167.219L19838.6 167.217L19870.9 147.761C19870.9 147.76 19870.9 147.761 19870.9 147.761C19900.1 130.17 19931.3 130.168 19960.5 147.76C19960.5 147.76 19960.5 147.761 19960.5 147.762L19992.8 167.217C20017.7 182.217 20044.3 182.217 20069.2 167.219L20069.2 167.217L20101.5 147.761C20101.5 147.76 20101.5 147.761 20101.5 147.761C20130.7 130.169 20161.9 130.168 20191.1 147.762L20184.5 189.132C20159.6 174.135 20133 174.134 20108.1 189.133L20075.8 208.59C20075.8 208.59 20075.8 208.591 20075.8 208.592C20046.6 226.184 20015.4 226.182 19986.2 208.591L19953.9 189.134L19953.9 189.132C19929 174.135 19902.4 174.134 19877.5 189.133L19845.2 208.59C19845.2 208.59 19845.2 208.591 19845.2 208.592C19816.1 226.184 19784.8 226.182 19755.6 208.592C19755.6 208.591 19755.6 208.592 19755.6 208.592L19723.3 189.132C19698.5 174.135 19671.9 174.134 19647 189.133L19614.7 208.59C19614.7 208.59 19614.7 208.591 19614.7 208.592C19585.5 226.184 19554.3 226.182 19525.1 208.592C19525.1 208.591 19525.1 208.592 19525.1 208.592L19492.8 189.132Z" fill="#4E82B5"/>
<path fill-rule="evenodd" clip-rule="evenodd" d="M19492.8 269.046C19467.9 254.049 19441.3 254.048 19416.4 269.047L19409.8 227.675C19439 210.083 19470.2 210.082 19499.4 227.674C19499.4 227.674 19499.4 227.674 19499.4 227.674C19499.4 227.674 19499.4 227.675 19499.4 227.676L19531.7 247.132C19556.6 262.131 19583.2 262.131 19608.1 247.133L19608.1 247.132L19640.4 227.675C19640.4 227.674 19640.4 227.675 19640.4 227.675C19669.5 210.084 19700.8 210.082 19730 227.674C19730 227.675 19730 227.675 19730 227.676L19762.2 247.132C19787.1 262.131 19813.8 262.131 19838.6 247.133L19838.6 247.132L19870.9 227.675C19870.9 227.674 19870.9 227.675 19870.9 227.675C19900.1 210.084 19931.3 210.082 19960.5 227.674C19960.5 227.675 19960.5 227.675 19960.5 227.676L19992.8 247.132C20017.7 262.131 20044.3 262.131 20069.2 247.133L20069.2 247.132L20101.5 227.675C20101.5 227.674 20101.5 227.675 20101.5 227.675C20130.7 210.083 20161.9 210.082 20191.1 227.676L20184.5 269.046C20159.6 254.049 20133 254.048 20108.1 269.047L20075.8 288.504C20075.8 288.504 20075.8 288.505 20075.8 288.506C20046.6 306.098 20015.4 306.096 19986.2 288.505L19953.9 269.048L19953.9 269.046C19929 254.049 19902.4 254.048 19877.5 269.047L19845.2 288.504C19845.2 288.504 19845.2 288.505 19845.2 288.506C19816.1 306.098 19784.8 306.096 19755.6 288.506C19755.6 288.505 19755.6 288.506 19755.6 288.506L19723.3 269.046C19698.5 254.049 19671.9 254.048 19647 269.047L19614.7 288.504C19614.7 288.504 19614.7 288.505 19614.7 288.506C19585.5 306.098 19554.3 306.096 19525.1 288.506C19525.1 288.505 19525.1 288.506 19525.1 288.506L19492.8 269.046Z" fill="#14324F"/>
<path fill-rule="evenodd" clip-rule="evenodd" d="M19492.8 348.96C19467.9 333.963 19441.3 333.962 19416.4 348.962L19409.8 307.589C19439 289.998 19470.2 289.996 19499.4 307.588C19499.4 307.588 19499.4 307.588 19499.4 307.588C19499.4 307.588 19499.4 307.589 19499.4 307.59L19531.7 327.046C19556.6 342.045 19583.2 342.045 19608.1 327.047L19608.1 327.046L19640.4 307.589C19640.4 307.588 19640.4 307.589 19640.4 307.589C19669.5 289.998 19700.8 289.996 19730 307.588C19730 307.589 19730 307.589 19730 307.59L19762.2 327.046C19787.1 342.045 19813.8 342.045 19838.6 327.047L19838.6 327.046L19870.9 307.589C19870.9 307.588 19870.9 307.589 19870.9 307.589C19900.1 289.998 19931.3 289.996 19960.5 307.588C19960.5 307.589 19960.5 307.589 19960.5 307.59L19992.8 327.046C20017.7 342.045 20044.3 342.045 20069.2 327.047L20069.2 327.046L20101.5 307.589C20101.5 307.588 20101.5 307.589 20101.5 307.589C20130.7 289.998 20161.9 289.996 20191.1 307.59L20184.5 348.96C20159.6 333.963 20133 333.962 20108.1 348.962L20075.8 368.418C20075.8 368.419 20075.8 368.419 20075.8 368.42C20046.6 386.012 20015.4 386.01 19986.2 368.419L19953.9 348.962L19953.9 348.96C19929 333.963 19902.4 333.962 19877.5 348.962L19845.2 368.418C19845.2 368.419 19845.2 368.419 19845.2 368.42C19816.1 386.012 19784.8 386.01 19755.6 368.42C19755.6 368.42 19755.6 368.42 19755.6 368.42L19723.3 348.96C19698.5 333.963 19671.9 333.962 19647 348.962L19614.7 368.418C19614.7 368.419 19614.7 368.419 19614.7 368.42C19585.5 386.012 19554.3 386.01 19525.1 368.42C19525.1 368.42 19525.1 368.42 19525.1 368.42L19492.8 348.96Z" fill="#4E82B5"/>
<path fill-rule="evenodd" clip-rule="evenodd" d="M19492.8 428.878C19467.9 413.881 19441.3 413.88 19416.4 428.88L19409.8 387.507C19439 369.916 19470.2 369.914 19499.4 387.506C19499.4 387.506 19499.4 387.506 19499.4 387.506C19499.4 387.506 19499.4 387.507 19499.4 387.508L19531.7 406.964C19556.6 421.963 19583.2 421.963 19608.1 406.965L19608.1 406.964L19640.4 387.507C19640.4 387.506 19640.4 387.507 19640.4 387.507C19669.5 369.916 19700.8 369.914 19730 387.506C19730 387.507 19730 387.507 19730 387.508L19762.2 406.964C19787.1 421.963 19813.8 421.963 19838.6 406.965L19838.6 406.964L19870.9 387.507C19870.9 387.506 19870.9 387.507 19870.9 387.507C19900.1 369.916 19931.3 369.914 19960.5 387.506C19960.5 387.507 19960.5 387.507 19960.5 387.508L19992.8 406.964C20017.7 421.963 20044.3 421.963 20069.2 406.965L20069.2 406.964L20101.5 387.507C20101.5 387.506 20101.5 387.507 20101.5 387.507C20130.7 369.916 20161.9 369.914 20191.1 387.508L20184.5 428.878C20159.6 413.881 20133 413.88 20108.1 428.88L20075.8 448.336C20075.8 448.337 20075.8 448.337 20075.8 448.338C20046.6 465.93 20015.4 465.928 19986.2 448.337L19953.9 428.88L19953.9 428.878C19929 413.881 19902.4 413.88 19877.5 428.88L19845.2 448.336C19845.2 448.337 19845.2 448.337 19845.2 448.338C19816.1 465.93 19784.8 465.928 19755.6 448.338C19755.6 448.338 19755.6 448.338 19755.6 448.338L19723.3 428.878C19698.5 413.881 19671.9 413.88 19647 428.88L19614.7 448.336C19614.7 448.337 19614.7 448.337 19614.7 448.338C19585.5 465.93 19554.3 465.928 19525.1 448.338C19525.1 448.338 19525.1 448.338 19525.1 448.338L19492.8 428.878Z" fill="#14324F"/>
<path fill-rule="evenodd" clip-rule="evenodd" d="M19492.8 508.792C19467.9 493.795 19441.3 493.794 19416.4 508.794L19409.8 467.421C19439 449.83 19470.2 449.828 19499.4 467.42C19499.4 467.42 19499.4 467.42 19499.4 467.42C19499.4 467.421 19499.4 467.421 19499.4 467.422L19531.7 486.878C19556.6 501.877 19583.2 501.877 19608.1 486.879L19608.1 486.878L19640.4 467.421C19640.4 467.42 19640.4 467.421 19640.4 467.421C19669.5 449.83 19700.8 449.828 19730 467.42C19730 467.421 19730 467.421 19730 467.422L19762.2 486.878C19787.1 501.877 19813.8 501.877 19838.6 486.879L19838.6 486.878L19870.9 467.421C19870.9 467.42 19870.9 467.421 19870.9 467.421C19900.1 449.83 19931.3 449.828 19960.5 467.42C19960.5 467.421 19960.5 467.421 19960.5 467.422L19992.8 486.878C20017.7 501.877 20044.3 501.877 20069.2 486.879L20069.2 486.878L20101.5 467.421C20101.5 467.42 20101.5 467.421 20101.5 467.421C20130.7 449.83 20161.9 449.828 20191.1 467.422L20184.5 508.792C20159.6 493.795 20133 493.794 20108.1 508.794L20075.8 528.25C20075.8 528.251 20075.8 528.251 20075.8 528.252C20046.6 545.844 20015.4 545.842 19986.2 528.251L19953.9 508.794L19953.9 508.792C19929 493.795 19902.4 493.794 19877.5 508.794L19845.2 528.25C19845.2 528.251 19845.2 528.251 19845.2 528.252C19816.1 545.844 19784.8 545.842 19755.6 528.252C19755.6 528.252 19755.6 528.252 19755.6 528.252L19723.3 508.792C19698.5 493.795 19671.9 493.794 19647 508.794L19614.7 528.25C19614.7 528.251 19614.7 528.251 19614.7 528.252C19585.5 545.844 19554.3 545.842 19525.1 528.252C19525.1 528.252 19525.1 528.252 19525.1 528.252L19492.8 508.792Z" fill="#4E82B5"/>
</g>
<g clip-path="url(#clip16_1_12317)">
<rect width="1200" height="675" transform="translate(20400 0.78125)" fill="#F4F4EF"/>
<rect x="20400" y="0.78125" width="592" height="666" fill="#DFD4D8"/>
<path d="M20767.3 183.387L20841.9 751.51L21410 676.904L20767.3 183.387Z" fill="#4E82B5"/>
<path d="M20613.6 379.391L20713.8 788.296L21122.7 688.108L20613.6 379.391Z" fill="#4E82B5"/>
<path d="M21479.1 378.152L21384.7 733.834L21029 639.416L21479.1 378.152Z" fill="#4E82B5"/>
<path d="M20470.9 504.398L20546.3 807.144L20849.1 731.723L20470.9 504.398Z" fill="#4E82B5"/>
<circle cx="74.5" cy="74.5" r="74.5" transform="matrix(-1 0 0 1 21328 134.781)" fill="#14324F"/>
</g>
<g clip-path="url(#clip17_1_12317)">
<rect width="1200" height="675" transform="translate(21600 0.78125)" fill="#F4F4EF"/>
<rect x="21600" y="0.78125" width="592" height="666" fill="#DFD4D8"/>
<path d="M21953 231.781C21953 357.15 22054.9 458.781 22180.5 458.781C22306.1 458.781 22408 357.15 22408 231.781H21953Z" fill="#14324F"/>
<rect x="22149.4" y="794.24" width="423.459" height="84.6919" transform="rotate(-90 22149.4 794.24)" fill="#14324F"/>
<path d="M22279 720.781C22279 672.733 22239.8 633.781 22191.5 633.781C22143.2 633.781 22104 672.733 22104 720.781L22279 720.781Z" fill="#14324F"/>
<path d="M22459.1 281.945C22486.7 254.287 22486.5 209.238 22458.6 181.324C22430.7 153.41 22385.7 153.202 22358 180.86L22377.8 200.681C22394.6 183.869 22422 183.995 22439 200.962C22456 217.93 22456.1 245.313 22439.3 262.125L22459.1 281.945Z" fill="#4E82B5"/>
</g>
<defs>
<clipPath id="clip0_1_12317">
<rect width="1200" height="675" fill="white" transform="translate(0 0.78125)"/>
</clipPath>
<clipPath id="clip1_1_12317">
<rect width="1200" height="675" fill="white" transform="translate(1200 0.78125)"/>
</clipPath>
<clipPath id="clip2_1_12317">
<rect width="1200" height="675" fill="white" transform="translate(3600 0.78125)"/>
</clipPath>
<clipPath id="clip3_1_12317">
<rect width="1200" height="675" fill="white" transform="translate(4800 0.78125)"/>
</clipPath>
<clipPath id="clip4_1_12317">
<rect width="1200" height="675" fill="white" transform="translate(6000 0.78125)"/>
</clipPath>
<clipPath id="clip5_1_12317">
<rect width="1200" height="675" fill="white" transform="translate(7200 0.78125)"/>
</clipPath>
<clipPath id="clip6_1_12317">
<rect width="1200" height="675" fill="white" transform="translate(8400 0.78125)"/>
</clipPath>
<clipPath id="clip7_1_12317">
<rect width="1200" height="675" fill="white" transform="translate(9600 0.78125)"/>
</clipPath>
<clipPath id="clip8_1_12317">
<rect width="1200" height="675" fill="white" transform="translate(10800 0.78125)"/>
</clipPath>
<clipPath id="clip9_1_12317">
<rect width="1200" height="675" fill="white" transform="translate(12000 0.78125)"/>
</clipPath>
<clipPath id="clip10_1_12317">
<rect width="1200" height="675" fill="white" transform="translate(13200 0.78125)"/>
</clipPath>
<clipPath id="clip11_1_12317">
<rect width="1200" height="675" fill="white" transform="translate(14400 0.78125)"/>
</clipPath>
<clipPath id="clip12_1_12317">
<rect width="1200" height="675" fill="white" transform="translate(15600 0.78125)"/>
</clipPath>
<clipPath id="clip13_1_12317">
<rect width="1200" height="675" fill="white" transform="translate(16800 0.78125)"/>
</clipPath>
<clipPath id="clip14_1_12317">
<rect width="1200" height="675" fill="white" transform="translate(18000 0.78125)"/>
</clipPath>
<clipPath id="clip15_1_12317">
<rect width="1200" height="675" fill="white" transform="translate(19200 0.78125)"/>
</clipPath>
<clipPath id="clip16_1_12317">
<rect width="1200" height="675" fill="white" transform="translate(20400 0.78125)"/>
</clipPath>
<clipPath id="clip17_1_12317">
<rect width="1200" height="675" fill="white" transform="translate(21600 0.78125)"/>
</clipPath>
</defs>
</svg>
