<svg width="25200" height="676" viewBox="0 0 25200 676" fill="none" xmlns="http://www.w3.org/2000/svg">
<g clip-path="url(#clip0_1_10067)">
<rect width="1200" height="675" transform="translate(0 0.78125)" fill="#F4F4EF"/>
<rect x="250" y="0.78125" width="666" height="250" transform="rotate(90 250 0.78125)" fill="#A0CFFF"/>
<rect x="805" y="-39.2188" width="214" height="208" fill="#393A3D"/>
<line x1="806.672" y1="666.781" x2="806.672" y2="94.7812" stroke="#393A3D" stroke-width="2.65524"/>
<line x1="868.017" y1="666.781" x2="868.017" y2="94.7812" stroke="#393A3D" stroke-width="7.96573"/>
<line x1="935.362" y1="666.781" x2="935.362" y2="94.7812" stroke="#393A3D" stroke-width="13.2762"/>
<line x1="1009.71" y1="666.781" x2="1009.71" y2="94.7812" stroke="#393A3D" stroke-width="18.5867"/>
<circle cx="246.141" cy="342.922" r="54.1408" fill="#006C23"/>
<circle cx="583.016" cy="342.922" r="54.1408" fill="#006C23"/>
<circle cx="751.453" cy="342.922" r="54.1408" fill="#006C23"/>
<circle cx="919.895" cy="342.922" r="54.1408" fill="#006C23"/>
<circle cx="1088.33" cy="342.922" r="54.1408" fill="#006C23"/>
<circle cx="583.141" cy="508.922" r="48.1251" fill="#5BEF76" stroke="#006C23" stroke-width="12.0313"/>
<circle cx="751.578" cy="508.922" r="48.1251" fill="#5BEF76" stroke="#006C23" stroke-width="12.0313"/>
<circle cx="920.016" cy="508.922" r="48.1251" fill="#5BEF76" stroke="#006C23" stroke-width="12.0313"/>
<circle cx="1088.45" cy="508.922" r="48.1251" fill="#5BEF76" stroke="#006C23" stroke-width="12.0313"/>
<path fill-rule="evenodd" clip-rule="evenodd" d="M245.5 530.781C349.606 530.781 434 446.387 434 342.281C434 238.176 349.606 153.781 245.5 153.781C141.394 153.781 57 238.176 57 342.281C57 446.387 141.394 530.781 245.5 530.781ZM245.5 456.86C308.78 456.86 360.078 405.561 360.078 342.281C360.078 279.001 308.78 227.703 245.5 227.703C182.22 227.703 130.922 279.001 130.922 342.281C130.922 405.561 182.22 456.86 245.5 456.86Z" fill="#5BEF76"/>
</g>
<g clip-path="url(#clip1_1_10067)">
<rect width="1200" height="675" transform="translate(1200 0.78125)" fill="#F4F4EF"/>
<rect x="1446" y="0.78125" width="666" height="246" transform="rotate(90 1446 0.78125)" fill="#006C23"/>
<rect x="2170" y="0.78125" width="214" height="168" fill="#A0CFFF"/>
<line x1="2171.67" y1="666.781" x2="2171.67" y2="94.7812" stroke="#A0CFFF" stroke-width="2.65524"/>
<line x1="2233.02" y1="666.781" x2="2233.02" y2="94.7812" stroke="#A0CFFF" stroke-width="7.96573"/>
<line x1="2300.36" y1="666.781" x2="2300.36" y2="94.7812" stroke="#A0CFFF" stroke-width="13.2762"/>
<line x1="2374.71" y1="666.781" x2="2374.71" y2="94.7812" stroke="#A0CFFF" stroke-width="18.5867"/>
<rect x="1661" y="0.78125" width="214" height="168" fill="#A0CFFF"/>
<line x1="1662.67" y1="666.781" x2="1662.67" y2="94.7812" stroke="#A0CFFF" stroke-width="2.65524"/>
<line x1="1724.02" y1="666.781" x2="1724.02" y2="94.7812" stroke="#A0CFFF" stroke-width="7.96573"/>
<line x1="1791.36" y1="666.781" x2="1791.36" y2="94.7812" stroke="#A0CFFF" stroke-width="13.2762"/>
<line x1="1865.71" y1="666.781" x2="1865.71" y2="94.7812" stroke="#A0CFFF" stroke-width="18.5867"/>
<rect x="1660" y="666.781" width="214" height="168" transform="rotate(180 1660 666.781)" fill="#A0CFFF"/>
<line x1="1658.33" y1="0.78125" x2="1658.33" y2="572.781" stroke="#A0CFFF" stroke-width="2.65524"/>
<line x1="1596.98" y1="0.78125" x2="1596.98" y2="572.781" stroke="#A0CFFF" stroke-width="7.96573"/>
<line x1="1529.64" y1="0.78125" x2="1529.64" y2="572.781" stroke="#A0CFFF" stroke-width="13.2762"/>
<line x1="1455.29" y1="0.78125" x2="1455.29" y2="572.781" stroke="#A0CFFF" stroke-width="18.5867"/>
<rect x="2170" y="666.781" width="214" height="168" transform="rotate(180 2170 666.781)" fill="#A0CFFF"/>
<line x1="2168.33" y1="0.78125" x2="2168.33" y2="572.781" stroke="#A0CFFF" stroke-width="2.65524"/>
<line x1="2106.98" y1="0.78125" x2="2106.98" y2="572.781" stroke="#A0CFFF" stroke-width="7.96573"/>
<line x1="2039.64" y1="0.78125" x2="2039.64" y2="572.781" stroke="#A0CFFF" stroke-width="13.2762"/>
<line x1="1965.29" y1="0.78125" x2="1965.29" y2="572.781" stroke="#A0CFFF" stroke-width="18.5867"/>
<circle cx="1448" cy="168.781" r="107" fill="#393A3D"/>
<circle cx="1951.45" cy="168.922" r="54.1408" fill="#006C23"/>
<circle cx="2119.89" cy="168.922" r="54.1408" fill="#006C23"/>
<circle cx="2288.33" cy="168.922" r="54.1408" fill="#006C23"/>
<path fill-rule="evenodd" clip-rule="evenodd" d="M1447.5 518.781C1641.08 518.781 1798 361.857 1798 168.281C1798 -25.2944 1641.08 -182.219 1447.5 -182.219C1253.92 -182.219 1097 -25.2944 1097 168.281C1097 361.857 1253.92 518.781 1447.5 518.781ZM1447.5 381.33C1565.16 381.33 1660.55 285.945 1660.55 168.281C1660.55 50.6174 1565.16 -44.7678 1447.5 -44.7678C1329.84 -44.7678 1234.45 50.6174 1234.45 168.281C1234.45 285.945 1329.84 381.33 1447.5 381.33Z" fill="#5BEF76"/>
</g>
<g clip-path="url(#clip2_1_10067)">
<rect width="1200" height="675" transform="translate(2400 0.78125)" fill="#F4F4EF"/>
<rect x="3062" y="0.78125" width="522" height="666" fill="#A0CFFF"/>
<rect x="2785" y="458.781" width="278" height="209" fill="#A0CFFF"/>
<path d="M2400 249.781V668.235H2818.45L2400 249.781Z" fill="#5BEF76"/>
<path d="M3584 666.781V144.781H3062L3584 666.781Z" fill="#5BEF76"/>
<path d="M2785 284.781V0.781245H2501L2785 284.781Z" fill="#5BEF76"/>
<path d="M2503 0.781241L2400 0.781245L2400 103.781L2503 0.781241Z" fill="#006C23"/>
<path d="M3416 458.781L3063 458.781L3063 811.781L3416 458.781Z" fill="#5BEF76"/>
<path d="M3062 0.78125V458.781H2604L3062 0.78125Z" fill="#006C23"/>
<path fill-rule="evenodd" clip-rule="evenodd" d="M2784.5 108.781C2839.45 108.781 2884 64.2335 2884 9.28125C2884 -45.671 2839.45 -90.2188 2784.5 -90.2188C2729.55 -90.2188 2685 -45.671 2685 9.28125C2685 64.2335 2729.55 108.781 2784.5 108.781ZM2784.5 91.2224C2829.75 91.2224 2866.44 54.5363 2866.44 9.28125C2866.44 -35.9738 2829.75 -72.6599 2784.5 -72.6599C2739.25 -72.6599 2702.56 -35.9738 2702.56 9.28125C2702.56 54.5363 2739.25 91.2224 2784.5 91.2224Z" fill="#393A3D"/>
<path fill-rule="evenodd" clip-rule="evenodd" d="M3062.5 752.781C3117.45 752.781 3162 708.234 3162 653.281C3162 598.329 3117.45 553.781 3062.5 553.781C3007.55 553.781 2963 598.329 2963 653.281C2963 708.234 3007.55 752.781 3062.5 752.781ZM3062.5 735.222C3107.75 735.222 3144.44 698.536 3144.44 653.281C3144.44 608.026 3107.75 571.34 3062.5 571.34C3017.25 571.34 2980.56 608.026 2980.56 653.281C2980.56 698.536 3017.25 735.222 3062.5 735.222Z" fill="#393A3D"/>
</g>
<g clip-path="url(#clip3_1_10067)">
<rect width="1200" height="675" transform="translate(3600 0.78125)" fill="#F4F4EF"/>
<rect x="4382" y="0.78125" width="402" height="666" fill="#A0CFFF"/>
<path fill-rule="evenodd" clip-rule="evenodd" d="M3398.19 34.175C3372.25 18.5286 3344.47 18.5279 3318.51 34.1756L3315.2 13.4892C3343.31 -3.45421 3373.4 -3.45514 3401.49 13.4889C3401.49 13.4892 3401.49 13.4886 3401.49 13.4889L3433.79 32.9465C3459.75 48.5942 3487.53 48.5938 3513.47 32.9474L3545.77 13.4892C3545.77 13.4891 3545.77 13.4893 3545.77 13.4892C3573.88 -3.4539 3603.96 -3.45504 3632.06 13.4889C3632.06 13.4892 3632.06 13.4886 3632.06 13.4889L3664.35 32.9465C3690.31 48.5942 3718.1 48.5938 3744.04 32.9474L3776.33 13.4892C3776.33 13.4891 3776.33 13.4893 3776.33 13.4892C3804.44 -3.45391 3834.53 -3.45506 3862.62 13.4889C3862.62 13.4892 3862.62 13.4886 3862.62 13.4889L3894.92 32.9465C3920.88 48.5942 3948.66 48.5938 3974.6 32.9474L4006.9 13.4892C4035.01 -3.45452 4065.09 -3.45514 4093.19 13.4898L4089.89 34.175C4063.94 18.5286 4036.16 18.5279 4010.2 34.1756L3977.91 53.6326C3977.91 53.6329 3977.91 53.6323 3977.91 53.6326C3949.81 70.5767 3919.73 70.5766 3891.62 53.6332L3859.32 34.176C3833.38 18.5295 3805.6 18.5279 3779.64 34.1756L3747.34 53.6326C3719.25 70.5775 3689.16 70.5769 3661.05 53.6335C3661.05 53.6334 3661.05 53.6336 3661.05 53.6335L3628.76 34.176C3602.81 18.5295 3575.03 18.5279 3549.07 34.1756L3516.78 53.6326C3488.68 70.5775 3458.6 70.5769 3430.49 53.6335C3430.49 53.6334 3430.49 53.6336 3430.49 53.6335L3398.19 34.175Z" fill="#A0CFFF"/>
<path fill-rule="evenodd" clip-rule="evenodd" d="M3398.19 114.089C3372.25 98.4426 3344.47 98.442 3318.51 114.09L3315.2 93.4033C3343.31 76.4599 3373.4 76.4589 3401.49 93.4029C3401.49 93.4032 3401.49 93.4026 3401.49 93.4029L3433.79 112.861C3459.75 128.508 3487.53 128.508 3513.47 112.861L3545.77 93.4033C3545.77 93.4031 3545.77 93.4034 3545.77 93.4033C3573.88 76.4602 3603.96 76.459 3632.06 93.4029C3632.06 93.4032 3632.06 93.4026 3632.06 93.4029L3664.35 112.861C3690.31 128.508 3718.1 128.508 3744.04 112.861L3776.33 93.4033C3776.33 93.4031 3776.33 93.4034 3776.33 93.4033C3804.44 76.4602 3834.53 76.459 3862.62 93.4029C3862.62 93.4032 3862.62 93.4026 3862.62 93.4029L3894.92 112.861C3920.88 128.508 3948.66 128.508 3974.6 112.861L4006.9 93.4033C4035.01 76.4595 4065.09 76.4589 4093.19 93.4039L4089.89 114.089C4063.94 98.4426 4036.16 98.442 4010.2 114.09L3977.91 133.547C3977.91 133.547 3977.91 133.546 3977.91 133.547C3949.81 150.491 3919.73 150.491 3891.62 133.547L3859.32 114.09C3833.38 98.4435 3805.6 98.442 3779.64 114.09L3747.34 133.547C3719.25 150.492 3689.16 150.491 3661.05 133.548C3661.05 133.547 3661.05 133.548 3661.05 133.548L3628.76 114.09C3602.81 98.4435 3575.03 98.442 3549.07 114.09L3516.78 133.547C3488.68 150.492 3458.6 150.491 3430.49 133.548C3430.49 133.547 3430.49 133.548 3430.49 133.548L3398.19 114.089Z" fill="#A0CFFF"/>
<path fill-rule="evenodd" clip-rule="evenodd" d="M3398.19 194.005C3372.25 178.359 3344.47 178.358 3318.51 194.006L3315.2 173.319C3343.31 156.376 3373.4 156.375 3401.49 173.319C3401.49 173.319 3401.49 173.319 3401.49 173.319L3433.79 192.777C3459.75 208.424 3487.53 208.424 3513.47 192.777L3545.77 173.319C3545.77 173.319 3545.77 173.319 3545.77 173.319C3573.88 156.376 3603.96 156.375 3632.06 173.319C3632.06 173.319 3632.06 173.319 3632.06 173.319L3664.35 192.777C3690.31 208.424 3718.1 208.424 3744.04 192.777L3776.33 173.319C3776.33 173.319 3776.33 173.319 3776.33 173.319C3804.44 156.376 3834.53 156.375 3862.62 173.319C3862.62 173.319 3862.62 173.319 3862.62 173.319L3894.92 192.777C3920.88 208.424 3948.66 208.424 3974.6 192.777L4006.9 173.319C4035.01 156.376 4065.09 156.375 4093.19 173.32L4089.89 194.005C4063.94 178.359 4036.16 178.358 4010.2 194.006L3977.91 213.463C3977.91 213.463 3977.91 213.462 3977.91 213.463C3949.81 230.407 3919.73 230.407 3891.62 213.463L3859.32 194.006C3833.38 178.36 3805.6 178.358 3779.64 194.006L3747.34 213.463C3719.25 230.408 3689.16 230.407 3661.05 213.464C3661.05 213.464 3661.05 213.464 3661.05 213.464L3628.76 194.006C3602.81 178.36 3575.03 178.358 3549.07 194.006L3516.78 213.463C3488.68 230.408 3458.6 230.407 3430.49 213.464C3430.49 213.464 3430.49 213.464 3430.49 213.464L3398.19 194.005Z" fill="#A0CFFF"/>
<path fill-rule="evenodd" clip-rule="evenodd" d="M3398.19 273.919C3372.25 258.273 3344.47 258.272 3318.51 273.92L3315.2 253.233C3343.31 236.29 3373.4 236.289 3401.49 253.233C3401.49 253.233 3401.49 253.233 3401.49 253.233L3433.79 272.691C3459.75 288.338 3487.53 288.338 3513.47 272.692L3545.77 253.233C3545.77 253.233 3545.77 253.233 3545.77 253.233C3573.88 236.29 3603.96 236.289 3632.06 253.233C3632.06 253.233 3632.06 253.233 3632.06 253.233L3664.35 272.691C3690.31 288.338 3718.1 288.338 3744.04 272.692L3776.33 253.233C3776.33 253.233 3776.33 253.233 3776.33 253.233C3804.44 236.29 3834.53 236.289 3862.62 253.233C3862.62 253.233 3862.62 253.233 3862.62 253.233L3894.92 272.691C3920.88 288.338 3948.66 288.338 3974.6 272.692L4006.9 253.233C4035.01 236.29 4065.09 236.289 4093.19 253.234L4089.89 273.919C4063.94 258.273 4036.16 258.272 4010.2 273.92L3977.91 293.377C3977.91 293.377 3977.91 293.376 3977.91 293.377C3949.81 310.321 3919.73 310.321 3891.62 293.377L3859.32 273.92C3833.38 258.274 3805.6 258.272 3779.64 273.92L3747.34 293.377C3719.25 310.322 3689.16 310.321 3661.05 293.378C3661.05 293.378 3661.05 293.378 3661.05 293.378L3628.76 273.92C3602.81 258.274 3575.03 258.272 3549.07 273.92L3516.78 293.377C3488.68 310.322 3458.6 310.321 3430.49 293.378C3430.49 293.378 3430.49 293.378 3430.49 293.378L3398.19 273.919Z" fill="#A0CFFF"/>
<path fill-rule="evenodd" clip-rule="evenodd" d="M3398.19 353.835C3372.25 338.189 3344.47 338.188 3318.51 353.836L3315.2 333.149C3343.31 316.206 3373.4 316.205 3401.49 333.149C3401.49 333.149 3401.49 333.149 3401.49 333.149L3433.79 352.607C3459.75 368.254 3487.53 368.254 3513.47 352.608L3545.77 333.149C3545.77 333.149 3545.77 333.149 3545.77 333.149C3573.88 316.206 3603.96 316.205 3632.06 333.149C3632.06 333.149 3632.06 333.149 3632.06 333.149L3664.35 352.607C3690.31 368.254 3718.1 368.254 3744.04 352.608L3776.33 333.149C3776.33 333.149 3776.33 333.149 3776.33 333.149C3804.44 316.206 3834.53 316.205 3862.62 333.149C3862.62 333.149 3862.62 333.149 3862.62 333.149L3894.92 352.607C3920.88 368.254 3948.66 368.254 3974.6 352.608L4006.9 333.149C4035.01 316.206 4065.09 316.205 4093.19 333.15L4089.89 353.835C4063.94 338.189 4036.16 338.188 4010.2 353.836L3977.91 373.293C3977.91 373.293 3977.91 373.292 3977.91 373.293C3949.81 390.237 3919.73 390.237 3891.62 373.293L3859.32 353.836C3833.38 338.19 3805.6 338.188 3779.64 353.836L3747.34 373.293C3719.25 390.238 3689.16 390.237 3661.05 373.294C3661.05 373.294 3661.05 373.294 3661.05 373.294L3628.76 353.836C3602.81 338.19 3575.03 338.188 3549.07 353.836L3516.78 373.293C3488.68 390.238 3458.6 390.237 3430.49 373.294C3430.49 373.294 3430.49 373.294 3430.49 373.294L3398.19 353.835Z" fill="#A0CFFF"/>
<path fill-rule="evenodd" clip-rule="evenodd" d="M4359.26 407.079C4374.91 381.137 4374.91 353.356 4359.26 327.394L4379.94 324.092C4396.89 352.203 4396.89 382.287 4379.94 410.382C4379.94 410.382 4379.95 410.381 4379.94 410.382L4360.49 442.676C4344.84 468.638 4344.84 496.419 4360.49 522.362L4379.94 554.657C4379.94 554.657 4379.94 554.657 4379.94 554.657C4396.89 582.768 4396.89 612.852 4379.94 640.947C4379.94 640.947 4379.95 640.946 4379.94 640.947L4360.49 673.241C4344.84 699.203 4344.84 726.984 4360.49 752.926L4379.94 785.222C4379.94 785.222 4379.94 785.221 4379.94 785.222C4396.89 813.333 4396.89 843.417 4379.94 871.512C4379.94 871.512 4379.94 871.511 4379.94 871.512L4360.49 903.806C4344.84 929.767 4344.84 957.549 4360.49 983.491L4379.94 1015.79C4396.89 1043.9 4396.89 1073.98 4379.94 1102.08L4359.26 1098.77C4374.9 1072.83 4374.91 1045.05 4359.26 1019.09L4339.8 986.796C4339.8 986.795 4339.8 986.796 4339.8 986.796C4322.86 958.701 4322.86 928.615 4339.8 900.504L4359.26 868.21C4374.9 842.268 4374.91 814.486 4359.26 788.524L4339.8 756.231C4322.86 728.135 4322.86 698.052 4339.8 669.94C4339.8 669.939 4339.8 669.94 4339.8 669.94L4359.26 637.646C4374.9 611.703 4374.91 583.921 4359.26 557.959L4339.8 525.666C4322.86 497.571 4322.86 467.487 4339.8 439.375C4339.8 439.375 4339.8 439.375 4339.8 439.375L4359.26 407.079Z" fill="#A0CFFF"/>
<path fill-rule="evenodd" clip-rule="evenodd" d="M4279.34 407.079C4294.99 381.137 4294.99 353.356 4279.34 327.394L4300.03 324.092C4316.97 352.203 4316.97 382.287 4300.03 410.382C4300.03 410.382 4300.03 410.381 4300.03 410.382L4280.57 442.676C4264.93 468.638 4264.93 496.419 4280.57 522.362L4300.03 554.657C4300.03 554.657 4300.03 554.657 4300.03 554.657C4316.97 582.768 4316.97 612.852 4300.03 640.947C4300.03 640.947 4300.03 640.946 4300.03 640.947L4280.57 673.241C4264.93 699.203 4264.93 726.984 4280.57 752.926L4300.03 785.222C4300.03 785.222 4300.03 785.221 4300.03 785.222C4316.97 813.333 4316.97 843.417 4300.03 871.512C4300.03 871.512 4300.03 871.511 4300.03 871.512L4280.57 903.806C4264.93 929.767 4264.93 957.549 4280.57 983.491L4300.03 1015.79C4316.97 1043.9 4316.97 1073.98 4300.03 1102.08L4279.34 1098.77C4294.99 1072.83 4294.99 1045.05 4279.34 1019.09L4259.89 986.796C4259.89 986.795 4259.89 986.796 4259.89 986.796C4242.94 958.701 4242.94 928.615 4259.89 900.504L4279.34 868.21C4294.99 842.268 4294.99 814.486 4279.34 788.524L4259.89 756.231C4242.94 728.135 4242.94 698.052 4259.89 669.94C4259.89 669.939 4259.89 669.94 4259.89 669.94L4279.34 637.646C4294.99 611.703 4294.99 583.921 4279.34 557.959L4259.89 525.666C4242.94 497.571 4242.94 467.487 4259.89 439.375C4259.89 439.375 4259.89 439.375 4259.89 439.375L4279.34 407.079Z" fill="#A0CFFF"/>
<path fill-rule="evenodd" clip-rule="evenodd" d="M4199.43 407.079C4215.08 381.137 4215.08 353.356 4199.43 327.394L4220.12 324.092C4237.06 352.203 4237.06 382.287 4220.12 410.382C4220.12 410.382 4220.12 410.381 4220.12 410.382L4200.66 442.676C4185.01 468.638 4185.01 496.419 4200.66 522.362L4220.12 554.657C4220.12 554.657 4220.12 554.657 4220.12 554.657C4237.06 582.768 4237.06 612.852 4220.12 640.947C4220.12 640.947 4220.12 640.946 4220.12 640.947L4200.66 673.241C4185.01 699.203 4185.01 726.984 4200.66 752.926L4220.12 785.222C4220.12 785.222 4220.12 785.221 4220.12 785.222C4237.06 813.333 4237.06 843.417 4220.12 871.512C4220.12 871.512 4220.12 871.511 4220.12 871.512L4200.66 903.806C4185.01 929.767 4185.01 957.549 4200.66 983.491L4220.12 1015.79C4237.06 1043.9 4237.06 1073.98 4220.12 1102.08L4199.43 1098.77C4215.08 1072.83 4215.08 1045.05 4199.43 1019.09L4179.97 986.796C4179.97 986.795 4179.97 986.796 4179.97 986.796C4163.03 958.701 4163.03 928.615 4179.97 900.504L4199.43 868.21C4215.08 842.268 4215.08 814.486 4199.43 788.524L4179.97 756.231C4163.03 728.135 4163.03 698.052 4179.97 669.94C4179.97 669.939 4179.97 669.94 4179.97 669.94L4199.43 637.646C4215.08 611.703 4215.08 583.921 4199.43 557.959L4179.97 525.666C4163.03 497.571 4163.03 467.487 4179.97 439.375C4179.97 439.375 4179.97 439.375 4179.97 439.375L4199.43 407.079Z" fill="#A0CFFF"/>
<path fill-rule="evenodd" clip-rule="evenodd" d="M4119.51 407.079C4135.16 381.137 4135.16 353.356 4119.51 327.394L4140.2 324.092C4157.14 352.203 4157.14 382.287 4140.2 410.382C4140.2 410.382 4140.2 410.381 4140.2 410.382L4120.74 442.676C4105.09 468.638 4105.09 496.419 4120.74 522.362L4140.2 554.657C4140.2 554.657 4140.2 554.657 4140.2 554.657C4157.14 582.768 4157.14 612.852 4140.2 640.947C4140.2 640.947 4140.2 640.946 4140.2 640.947L4120.74 673.241C4105.09 699.203 4105.09 726.984 4120.74 752.926L4140.2 785.222C4140.2 785.222 4140.2 785.221 4140.2 785.222C4157.14 813.333 4157.14 843.417 4140.2 871.512C4140.2 871.512 4140.2 871.511 4140.2 871.512L4120.74 903.806C4105.09 929.767 4105.09 957.549 4120.74 983.491L4140.2 1015.79C4157.14 1043.9 4157.14 1073.98 4140.2 1102.08L4119.51 1098.77C4135.16 1072.83 4135.16 1045.05 4119.51 1019.09L4100.05 986.796C4100.05 986.795 4100.06 986.796 4100.05 986.796C4083.11 958.701 4083.11 928.615 4100.05 900.504L4119.51 868.21C4135.16 842.268 4135.16 814.486 4119.51 788.524L4100.05 756.231C4083.11 728.135 4083.11 698.052 4100.05 669.94C4100.05 669.939 4100.05 669.94 4100.05 669.94L4119.51 637.646C4135.16 611.703 4135.16 583.921 4119.51 557.959L4100.05 525.666C4083.11 497.571 4083.11 467.487 4100.05 439.375C4100.05 439.375 4100.05 439.375 4100.05 439.375L4119.51 407.079Z" fill="#A0CFFF"/>
<path fill-rule="evenodd" clip-rule="evenodd" d="M4039.6 407.079C4055.24 381.137 4055.25 353.356 4039.6 327.394L4060.28 324.092C4077.23 352.203 4077.23 382.287 4060.28 410.382C4060.28 410.382 4060.28 410.381 4060.28 410.382L4040.83 442.676C4025.18 468.638 4025.18 496.419 4040.83 522.362L4060.28 554.657C4060.28 554.657 4060.28 554.657 4060.28 554.657C4077.23 582.768 4077.23 612.852 4060.28 640.947C4060.28 640.947 4060.28 640.946 4060.28 640.947L4040.83 673.241C4025.18 699.203 4025.18 726.984 4040.83 752.926L4060.28 785.222C4060.28 785.222 4060.28 785.221 4060.28 785.222C4077.23 813.333 4077.23 843.417 4060.28 871.512C4060.28 871.512 4060.28 871.511 4060.28 871.512L4040.83 903.806C4025.18 929.767 4025.18 957.549 4040.83 983.491L4060.28 1015.79C4077.23 1043.9 4077.23 1073.98 4060.28 1102.08L4039.6 1098.77C4055.24 1072.83 4055.25 1045.05 4039.6 1019.09L4020.14 986.796C4020.14 986.795 4020.14 986.796 4020.14 986.796C4003.2 958.701 4003.2 928.615 4020.14 900.504L4039.6 868.21C4055.24 842.268 4055.25 814.486 4039.6 788.524L4020.14 756.231C4003.2 728.135 4003.2 698.052 4020.14 669.94C4020.14 669.939 4020.14 669.94 4020.14 669.94L4039.6 637.646C4055.24 611.703 4055.25 583.921 4039.6 557.959L4020.14 525.666C4003.2 497.571 4003.2 467.487 4020.14 439.375C4020.14 439.375 4020.14 439.375 4020.14 439.375L4039.6 407.079Z" fill="#A0CFFF"/>
<path d="M3600 249.781V668.235H4018.45L3600 249.781Z" fill="#393A3D"/>
<path d="M4087 167.781V450.781H3804L4087 167.781Z" fill="#006C23"/>
<path d="M4381 599.781V316.781H4098L4381 599.781Z" fill="#5BEF76"/>
<path fill-rule="evenodd" clip-rule="evenodd" d="M4706 604.781C4845.18 604.781 4958 491.957 4958 352.781C4958 213.606 4845.18 100.781 4706 100.781C4566.82 100.781 4454 213.606 4454 352.781C4454 491.957 4566.82 604.781 4706 604.781ZM4706 505.958C4790.6 505.958 4859.18 437.378 4859.18 352.781C4859.18 268.184 4790.6 199.605 4706 199.605C4621.4 199.605 4552.82 268.184 4552.82 352.781C4552.82 437.378 4621.4 505.958 4706 505.958Z" fill="#5BEF76"/>
<path fill-rule="evenodd" clip-rule="evenodd" d="M4553.5 703.781C4608.45 703.781 4653 659.234 4653 604.281C4653 549.329 4608.45 504.781 4553.5 504.781C4498.55 504.781 4454 549.329 4454 604.281C4454 659.234 4498.55 703.781 4553.5 703.781ZM4553.5 686.222C4598.75 686.222 4635.44 649.536 4635.44 604.281C4635.44 559.026 4598.75 522.34 4553.5 522.34C4508.25 522.34 4471.56 559.026 4471.56 604.281C4471.56 649.536 4508.25 686.222 4553.5 686.222Z" fill="#393A3D"/>
</g>
<g clip-path="url(#clip4_1_10067)">
<rect width="1200" height="675" transform="translate(4800 0.78125)" fill="#F4F4EF"/>
<rect x="4800" y="126.781" width="211.73" height="27.666" fill="#5BEF76"/>
<rect x="4800" y="182.113" width="211.73" height="27.666" fill="#5BEF76"/>
<rect x="4800" y="237.445" width="211.73" height="27.666" fill="#5BEF76"/>
<rect x="4800" y="292.777" width="211.73" height="27.666" fill="#5BEF76"/>
<rect x="4800" y="348.109" width="211.73" height="27.666" fill="#5BEF76"/>
<rect x="4800" y="403.441" width="211.73" height="27.666" fill="#5BEF76"/>
<rect x="4800" y="458.773" width="211.73" height="27.666" fill="#5BEF76"/>
<rect x="4800" y="514.105" width="211.73" height="27.666" fill="#5BEF76"/>
<rect x="5012" y="126.781" width="760" height="418" fill="#A0CFFF"/>
<rect x="5772" y="126.781" width="211.73" height="27.666" fill="#006C23"/>
<rect x="5772" y="182.113" width="211.73" height="27.666" fill="#006C23"/>
<rect x="5772" y="237.445" width="211.73" height="27.666" fill="#006C23"/>
<rect x="5772" y="292.777" width="211.73" height="27.666" fill="#006C23"/>
<rect x="5772" y="348.109" width="211.73" height="27.666" fill="#006C23"/>
<rect x="5772" y="403.441" width="211.73" height="27.666" fill="#006C23"/>
<rect x="5772" y="458.773" width="211.73" height="27.666" fill="#006C23"/>
<rect x="5772" y="514.105" width="211.73" height="27.666" fill="#006C23"/>
<path d="M5016.38 0.78125C5016.38 96.5367 5094 174.162 5189.76 174.162C5285.51 174.162 5363.14 96.5367 5363.14 0.78125H5295.14C5295.14 58.9856 5247.96 106.169 5189.76 106.169C5131.55 106.169 5084.37 58.9856 5084.37 0.78125H5016.38Z" fill="#006C23"/>
<path d="M5767.69 667.162C5767.69 571.407 5690.07 493.781 5594.31 493.781C5498.56 493.781 5420.93 571.407 5420.93 667.162L5488.92 667.162C5488.92 608.958 5536.11 561.774 5594.31 561.774C5652.52 561.774 5699.7 608.958 5699.7 667.162L5767.69 667.162Z" fill="#006C23"/>
<circle cx="5206.9" cy="333.678" r="23.8972" fill="#393A3D"/>
<circle cx="5281.24" cy="333.678" r="23.8972" fill="#393A3D"/>
<circle cx="5355.59" cy="333.678" r="23.8972" fill="#393A3D"/>
<circle cx="5429.94" cy="333.678" r="23.8972" fill="#393A3D"/>
<circle cx="5504.28" cy="333.678" r="23.8972" fill="#393A3D"/>
<circle cx="5578.63" cy="333.678" r="23.8972" fill="#393A3D"/>
</g>
<g clip-path="url(#clip5_1_10067)">
<rect width="1200" height="675" transform="translate(6000 0.78125)" fill="#F4F4EF"/>
<rect x="6383.41" y="666.781" width="666.531" height="27.839" transform="rotate(-90 6383.41 666.781)" fill="#393A3D"/>
<rect x="6439.09" y="666.781" width="666.531" height="27.839" transform="rotate(-90 6439.09 666.781)" fill="#393A3D"/>
<rect x="6494.77" y="666.781" width="666.531" height="27.839" transform="rotate(-90 6494.77 666.781)" fill="#393A3D"/>
<rect x="6550.45" y="666.781" width="666.531" height="27.839" transform="rotate(-90 6550.45 666.781)" fill="#393A3D"/>
<rect x="6606.12" y="666.781" width="666.531" height="27.839" transform="rotate(-90 6606.12 666.781)" fill="#393A3D"/>
<rect x="6661.8" y="666.781" width="666.531" height="27.839" transform="rotate(-90 6661.8 666.781)" fill="#393A3D"/>
<rect x="6717.48" y="666.781" width="666.531" height="27.839" transform="rotate(-90 6717.48 666.781)" fill="#393A3D"/>
<rect x="6773.16" y="666.781" width="666.531" height="27.839" transform="rotate(-90 6773.16 666.781)" fill="#393A3D"/>
<rect x="6000" y="126.781" width="211.73" height="27.666" fill="#5BEF76"/>
<rect x="6000" y="182.113" width="211.73" height="27.666" fill="#5BEF76"/>
<rect x="6000" y="237.445" width="211.73" height="27.666" fill="#5BEF76"/>
<rect x="6000" y="292.777" width="211.73" height="27.666" fill="#5BEF76"/>
<rect x="6000" y="348.109" width="211.73" height="27.666" fill="#5BEF76"/>
<rect x="6000" y="403.441" width="211.73" height="27.666" fill="#5BEF76"/>
<rect x="6000" y="458.773" width="211.73" height="27.666" fill="#5BEF76"/>
<rect x="6000" y="514.105" width="211.73" height="27.666" fill="#5BEF76"/>
<rect x="6972" y="126.781" width="211.73" height="27.666" fill="#5BEF76"/>
<rect x="6972" y="182.113" width="211.73" height="27.666" fill="#5BEF76"/>
<rect x="6972" y="237.445" width="211.73" height="27.666" fill="#5BEF76"/>
<rect x="6972" y="292.777" width="211.73" height="27.666" fill="#5BEF76"/>
<rect x="6972" y="348.109" width="211.73" height="27.666" fill="#5BEF76"/>
<rect x="6972" y="403.441" width="211.73" height="27.666" fill="#5BEF76"/>
<rect x="6972" y="458.773" width="211.73" height="27.666" fill="#5BEF76"/>
<rect x="6972" y="514.105" width="211.73" height="27.666" fill="#5BEF76"/>
<rect x="6383" y="126.781" width="418.454" height="418.454" fill="#A0CFFF"/>
<path d="M6216.38 126.781C6216.38 222.537 6294 300.162 6389.76 300.162C6485.51 300.162 6563.14 222.537 6563.14 126.781H6495.14C6495.14 184.986 6447.96 232.169 6389.76 232.169C6331.55 232.169 6284.37 184.986 6284.37 126.781H6216.38Z" fill="#006C23"/>
<path d="M6967.69 542.162C6967.69 446.407 6890.07 368.781 6794.31 368.781C6698.56 368.781 6620.93 446.407 6620.93 542.162L6688.92 542.162C6688.92 483.958 6736.11 436.774 6794.31 436.774C6852.52 436.774 6899.7 483.958 6899.7 542.162L6967.69 542.162Z" fill="#006C23"/>
</g>
<g clip-path="url(#clip6_1_10067)">
<rect width="1200" height="675" transform="translate(7200 0.78125)" fill="#F4F4EF"/>
<rect x="7200" y="333.781" width="591" height="174" fill="#A0CFFF"/>
<rect x="7994" y="0.78125" width="390" height="670" fill="#A0CFFF"/>
<rect x="7429" y="667.781" width="666.531" height="27.839" transform="rotate(-90 7429 667.781)" fill="#393A3D"/>
<rect x="7484.68" y="667.781" width="666.531" height="27.839" transform="rotate(-90 7484.68 667.781)" fill="#393A3D"/>
<rect x="7540.36" y="667.781" width="666.531" height="27.839" transform="rotate(-90 7540.36 667.781)" fill="#393A3D"/>
<rect x="7596.04" y="667.781" width="666.531" height="27.839" transform="rotate(-90 7596.04 667.781)" fill="#393A3D"/>
<rect x="7651.71" y="667.781" width="666.531" height="27.839" transform="rotate(-90 7651.71 667.781)" fill="#393A3D"/>
<rect x="7707.39" y="667.781" width="666.531" height="27.839" transform="rotate(-90 7707.39 667.781)" fill="#393A3D"/>
<rect x="7763.07" y="667.781" width="666.531" height="27.839" transform="rotate(-90 7763.07 667.781)" fill="#393A3D"/>
<rect x="7818.75" y="667.781" width="666.531" height="27.839" transform="rotate(-90 7818.75 667.781)" fill="#393A3D"/>
<path d="M7820.55 334.162C7820.55 429.918 7898.18 507.543 7993.94 507.543C8089.69 507.543 8167.32 429.918 8167.32 334.162H7820.55Z" fill="#006C23"/>
<path d="M7790.76 334.162C7790.76 238.407 7713.14 160.781 7617.38 160.781C7521.63 160.781 7444 238.407 7444 334.162L7790.76 334.162Z" fill="#5BEF76"/>
<path fill-rule="evenodd" clip-rule="evenodd" d="M7994 512.781C8091.2 512.781 8170 433.983 8170 336.781C8170 239.579 8091.2 160.781 7994 160.781C7896.8 160.781 7818 239.579 7818 336.781C7818 433.983 7896.8 512.781 7994 512.781ZM7994 443.762C8053.08 443.762 8100.98 395.865 8100.98 336.781C8100.98 277.698 8053.08 229.801 7994 229.801C7934.92 229.801 7887.02 277.698 7887.02 336.781C7887.02 395.865 7934.92 443.762 7994 443.762Z" fill="#006C23"/>
</g>
<g clip-path="url(#clip7_1_10067)">
<rect width="1200" height="675" transform="translate(8400 0.78125)" fill="#F4F4EF"/>
<path fill-rule="evenodd" clip-rule="evenodd" d="M9566.69 86.8096C9582.34 60.867 9582.34 33.0863 9566.69 7.12453L9587.38 3.82227C9604.32 31.9338 9604.32 62.0173 9587.38 90.1123C9587.38 90.1129 9587.38 90.1118 9587.38 90.1123L9567.92 122.406C9552.27 148.368 9552.27 176.149 9567.92 202.092L9587.38 234.387C9587.38 234.387 9587.38 234.387 9587.38 234.387C9604.32 262.499 9604.32 292.582 9587.38 320.677C9587.38 320.678 9587.38 320.677 9587.38 320.677L9567.92 352.971C9552.27 378.933 9552.27 406.714 9567.92 432.657L9587.38 464.952C9587.38 464.952 9587.38 464.952 9587.38 464.952C9604.32 493.063 9604.32 523.147 9587.38 551.242C9587.38 551.243 9587.38 551.242 9587.38 551.242L9567.92 583.536C9552.27 609.498 9552.27 637.279 9567.92 663.222L9587.38 695.517C9604.32 723.629 9604.32 753.713 9587.38 781.808L9566.69 778.504C9582.34 752.562 9582.34 724.781 9566.69 698.819L9547.23 666.526C9547.23 666.526 9547.23 666.527 9547.23 666.526C9530.29 638.431 9530.29 608.346 9547.23 580.234L9566.69 547.941C9582.34 521.998 9582.34 494.216 9566.69 468.254L9547.23 435.961C9530.29 407.866 9530.29 377.782 9547.23 349.67C9547.23 349.67 9547.23 349.67 9547.23 349.67L9566.69 317.376C9582.34 291.433 9582.34 263.651 9566.69 237.689L9547.23 205.396C9530.29 177.301 9530.29 147.217 9547.23 119.105C9547.23 119.105 9547.23 119.105 9547.23 119.105L9566.69 86.8096Z" fill="#A0CFFF"/>
<path fill-rule="evenodd" clip-rule="evenodd" d="M9486.78 86.8096C9502.42 60.867 9502.43 33.0863 9486.78 7.12453L9507.46 3.82227C9524.41 31.9338 9524.41 62.0173 9507.46 90.1123C9507.46 90.1129 9507.46 90.1118 9507.46 90.1123L9488.01 122.406C9472.36 148.368 9472.36 176.149 9488.01 202.092L9507.46 234.387C9507.46 234.387 9507.46 234.387 9507.46 234.387C9524.41 262.499 9524.41 292.582 9507.46 320.677C9507.46 320.678 9507.46 320.677 9507.46 320.677L9488.01 352.971C9472.36 378.933 9472.36 406.714 9488.01 432.657L9507.46 464.952C9507.46 464.952 9507.46 464.952 9507.46 464.952C9524.41 493.063 9524.41 523.147 9507.46 551.242C9507.46 551.243 9507.46 551.242 9507.46 551.242L9488.01 583.536C9472.36 609.498 9472.36 637.279 9488.01 663.222L9507.46 695.517C9524.41 723.629 9524.41 753.713 9507.46 781.808L9486.78 778.504C9502.42 752.562 9502.43 724.781 9486.78 698.819L9467.32 666.526C9467.32 666.526 9467.32 666.527 9467.32 666.526C9450.38 638.431 9450.38 608.346 9467.32 580.234L9486.78 547.941C9502.42 521.998 9502.43 494.216 9486.78 468.254L9467.32 435.961C9450.38 407.866 9450.38 377.782 9467.32 349.67C9467.32 349.67 9467.32 349.67 9467.32 349.67L9486.78 317.376C9502.42 291.433 9502.43 263.651 9486.78 237.689L9467.32 205.396C9450.38 177.301 9450.38 147.217 9467.32 119.105C9467.32 119.105 9467.32 119.105 9467.32 119.105L9486.78 86.8096Z" fill="#A0CFFF"/>
<path fill-rule="evenodd" clip-rule="evenodd" d="M9406.86 86.8096C9422.51 60.867 9422.51 33.0863 9406.86 7.12453L9427.55 3.82227C9444.49 31.9338 9444.49 62.0173 9427.55 90.1123C9427.55 90.1129 9427.55 90.1118 9427.55 90.1123L9408.09 122.406C9392.44 148.368 9392.45 176.149 9408.09 202.092L9427.55 234.387C9427.55 234.387 9427.55 234.387 9427.55 234.387C9444.49 262.499 9444.49 292.582 9427.55 320.677C9427.55 320.678 9427.55 320.677 9427.55 320.677L9408.09 352.971C9392.44 378.933 9392.45 406.714 9408.09 432.657L9427.55 464.952C9427.55 464.952 9427.55 464.952 9427.55 464.952C9444.49 493.063 9444.49 523.147 9427.55 551.242C9427.55 551.243 9427.55 551.242 9427.55 551.242L9408.09 583.536C9392.44 609.498 9392.45 637.279 9408.09 663.222L9427.55 695.517C9444.49 723.629 9444.49 753.713 9427.55 781.808L9406.86 778.504C9422.51 752.562 9422.51 724.781 9406.86 698.819L9387.41 666.526C9387.41 666.526 9387.41 666.527 9387.41 666.526C9370.46 638.431 9370.46 608.346 9387.41 580.234L9406.86 547.941C9422.51 521.998 9422.51 494.216 9406.86 468.254L9387.41 435.961C9370.46 407.866 9370.46 377.782 9387.41 349.67C9387.41 349.67 9387.41 349.67 9387.41 349.67L9406.86 317.376C9422.51 291.433 9422.51 263.651 9406.86 237.689L9387.41 205.396C9370.46 177.301 9370.46 147.217 9387.41 119.105C9387.41 119.105 9387.41 119.105 9387.41 119.105L9406.86 86.8096Z" fill="#A0CFFF"/>
<path fill-rule="evenodd" clip-rule="evenodd" d="M9326.95 86.8096C9342.59 60.867 9342.59 33.0863 9326.95 7.12453L9347.63 3.82227C9364.58 31.9338 9364.58 62.0173 9347.63 90.1123C9347.63 90.1129 9347.63 90.1118 9347.63 90.1123L9328.17 122.406C9312.53 148.368 9312.53 176.149 9328.17 202.092L9347.63 234.387C9347.63 234.387 9347.63 234.387 9347.63 234.387C9364.57 262.499 9364.58 292.582 9347.63 320.677C9347.63 320.678 9347.63 320.677 9347.63 320.677L9328.17 352.971C9312.53 378.933 9312.53 406.714 9328.17 432.657L9347.63 464.952C9347.63 464.952 9347.63 464.952 9347.63 464.952C9364.57 493.063 9364.58 523.147 9347.63 551.242C9347.63 551.243 9347.63 551.242 9347.63 551.242L9328.17 583.536C9312.53 609.498 9312.53 637.279 9328.17 663.222L9347.63 695.517C9364.58 723.629 9364.58 753.713 9347.63 781.808L9326.95 778.504C9342.59 752.562 9342.59 724.781 9326.95 698.819L9307.49 666.526C9307.49 666.526 9307.49 666.527 9307.49 666.526C9290.54 638.431 9290.54 608.346 9307.49 580.234L9326.95 547.941C9342.59 521.998 9342.59 494.216 9326.95 468.254L9307.49 435.961C9290.54 407.866 9290.54 377.782 9307.49 349.67C9307.49 349.67 9307.49 349.67 9307.49 349.67L9326.95 317.376C9342.59 291.433 9342.59 263.651 9326.95 237.689L9307.49 205.396C9290.54 177.301 9290.54 147.217 9307.49 119.105C9307.49 119.105 9307.49 119.105 9307.49 119.105L9326.95 86.8096Z" fill="#A0CFFF"/>
<path fill-rule="evenodd" clip-rule="evenodd" d="M9247.03 86.8096C9262.68 60.867 9262.68 33.0863 9247.03 7.12453L9267.72 3.82227C9284.66 31.9338 9284.66 62.0173 9267.72 90.1123C9267.72 90.1129 9267.72 90.1118 9267.72 90.1123L9248.26 122.406C9232.61 148.368 9232.61 176.149 9248.26 202.092L9267.72 234.387C9267.72 234.387 9267.72 234.387 9267.72 234.387C9284.66 262.499 9284.66 292.582 9267.72 320.677C9267.72 320.678 9267.72 320.677 9267.72 320.677L9248.26 352.971C9232.61 378.933 9232.61 406.714 9248.26 432.657L9267.72 464.952C9267.72 464.952 9267.72 464.952 9267.72 464.952C9284.66 493.063 9284.66 523.147 9267.72 551.242C9267.72 551.243 9267.72 551.242 9267.72 551.242L9248.26 583.536C9232.61 609.498 9232.61 637.279 9248.26 663.222L9267.72 695.517C9284.66 723.629 9284.66 753.713 9267.72 781.808L9247.03 778.504C9262.68 752.562 9262.68 724.781 9247.03 698.819L9227.57 666.526C9227.57 666.526 9227.57 666.527 9227.57 666.526C9210.63 638.431 9210.63 608.346 9227.57 580.234L9247.03 547.941C9262.68 521.998 9262.68 494.216 9247.03 468.254L9227.57 435.961C9210.63 407.866 9210.63 377.782 9227.57 349.67C9227.57 349.67 9227.57 349.67 9227.57 349.67L9247.03 317.376C9262.68 291.433 9262.68 263.651 9247.03 237.689L9227.57 205.396C9210.63 177.301 9210.63 147.217 9227.57 119.105C9227.57 119.105 9227.57 119.105 9227.57 119.105L9247.03 86.8096Z" fill="#A0CFFF"/>
<path fill-rule="evenodd" clip-rule="evenodd" d="M8433.39 589.362C8417.75 615.305 8417.75 643.086 8433.39 669.047L8412.71 672.35C8395.76 644.238 8395.76 614.155 8412.71 586.06C8412.71 586.059 8412.71 586.06 8412.71 586.06L8432.17 553.765C8447.81 527.804 8447.81 500.022 8432.17 474.08L8412.71 441.785C8412.71 441.785 8412.71 441.785 8412.71 441.785C8395.76 413.673 8395.76 383.59 8412.71 355.495C8412.71 355.494 8412.71 355.495 8412.71 355.495L8432.17 323.201C8447.81 297.239 8447.81 269.458 8432.17 243.515L8412.71 211.22C8412.71 211.22 8412.71 211.22 8412.71 211.22C8395.76 183.108 8395.76 153.025 8412.71 124.93C8412.71 124.929 8412.71 124.93 8412.71 124.93L8432.17 92.6357C8447.81 66.674 8447.81 38.8927 8432.17 12.9501L8412.71 -19.345C8395.76 -47.457 8395.76 -77.5411 8412.71 -105.637L8433.39 -102.332C8417.75 -76.3897 8417.75 -48.6091 8433.39 -22.6473L8452.85 9.64586C8452.85 9.64637 8452.85 9.64535 8452.85 9.64586C8469.8 37.7409 8469.8 67.826 8452.85 95.9375L8433.39 128.231C8417.75 154.174 8417.75 181.956 8433.39 207.918L8452.85 240.211C8469.8 268.306 8469.8 298.39 8452.85 326.502C8452.85 326.502 8452.85 326.502 8452.85 326.502L8433.39 358.796C8417.75 384.738 8417.75 412.521 8433.39 438.482L8452.85 470.776C8469.8 498.871 8469.8 528.955 8452.85 557.067C8452.85 557.067 8452.85 557.066 8452.85 557.067L8433.39 589.362Z" fill="#A0CFFF"/>
<path fill-rule="evenodd" clip-rule="evenodd" d="M8513.31 589.362C8497.66 615.305 8497.66 643.086 8513.31 669.047L8492.62 672.35C8475.68 644.238 8475.68 614.155 8492.62 586.06C8492.62 586.059 8492.62 586.06 8492.62 586.06L8512.08 553.765C8527.73 527.804 8527.73 500.022 8512.08 474.08L8492.62 441.785C8492.62 441.785 8492.62 441.785 8492.62 441.785C8475.68 413.673 8475.68 383.59 8492.62 355.495C8492.62 355.494 8492.62 355.495 8492.62 355.495L8512.08 323.201C8527.73 297.239 8527.73 269.458 8512.08 243.515L8492.62 211.22C8492.62 211.22 8492.62 211.22 8492.62 211.22C8475.68 183.108 8475.68 153.025 8492.62 124.93C8492.62 124.929 8492.62 124.93 8492.62 124.93L8512.08 92.6357C8527.73 66.674 8527.73 38.8927 8512.08 12.9501L8492.62 -19.345C8475.68 -47.457 8475.68 -77.5411 8492.62 -105.637L8513.31 -102.332C8497.66 -76.3897 8497.66 -48.6091 8513.31 -22.6473L8532.77 9.64586C8532.77 9.64637 8532.77 9.64535 8532.77 9.64586C8549.71 37.7409 8549.71 67.826 8532.77 95.9375L8513.31 128.231C8497.66 154.174 8497.66 181.956 8513.31 207.918L8532.77 240.211C8549.71 268.306 8549.71 298.39 8532.77 326.502C8532.77 326.502 8532.77 326.502 8532.77 326.502L8513.31 358.796C8497.66 384.738 8497.66 412.521 8513.31 438.482L8532.77 470.776C8549.71 498.871 8549.71 528.955 8532.77 557.067C8532.77 557.067 8532.77 557.066 8532.77 557.067L8513.31 589.362Z" fill="#A0CFFF"/>
<path fill-rule="evenodd" clip-rule="evenodd" d="M8593.22 589.362C8577.58 615.305 8577.57 643.086 8593.22 669.047L8572.54 672.35C8555.59 644.238 8555.59 614.155 8572.54 586.06C8572.54 586.059 8572.54 586.06 8572.54 586.06L8591.99 553.765C8607.64 527.804 8607.64 500.022 8591.99 474.08L8572.54 441.785C8572.54 441.785 8572.54 441.785 8572.54 441.785C8555.59 413.673 8555.59 383.59 8572.54 355.495C8572.54 355.494 8572.54 355.495 8572.54 355.495L8591.99 323.201C8607.64 297.239 8607.64 269.458 8591.99 243.515L8572.54 211.22C8572.54 211.22 8572.54 211.22 8572.54 211.22C8555.59 183.108 8555.59 153.025 8572.54 124.93C8572.54 124.929 8572.54 124.93 8572.54 124.93L8591.99 92.6357C8607.64 66.674 8607.64 38.8927 8591.99 12.9501L8572.54 -19.345C8555.59 -47.457 8555.59 -77.5411 8572.54 -105.637L8593.22 -102.332C8577.58 -76.3897 8577.57 -48.6091 8593.22 -22.6473L8612.68 9.64586C8612.68 9.64637 8612.68 9.64535 8612.68 9.64586C8629.62 37.7409 8629.62 67.826 8612.68 95.9375L8593.22 128.231C8577.58 154.174 8577.57 181.956 8593.22 207.918L8612.68 240.211C8629.62 268.306 8629.62 298.39 8612.68 326.502C8612.68 326.502 8612.68 326.502 8612.68 326.502L8593.22 358.796C8577.58 384.738 8577.57 412.521 8593.22 438.482L8612.68 470.776C8629.62 498.871 8629.62 528.955 8612.68 557.067C8612.68 557.067 8612.68 557.066 8612.68 557.067L8593.22 589.362Z" fill="#A0CFFF"/>
<path fill-rule="evenodd" clip-rule="evenodd" d="M8673.14 589.362C8657.49 615.305 8657.49 643.086 8673.14 669.047L8652.45 672.35C8635.51 644.238 8635.51 614.155 8652.45 586.06C8652.45 586.059 8652.45 586.06 8652.45 586.06L8671.91 553.765C8687.56 527.804 8687.56 500.022 8671.91 474.08L8652.45 441.785C8652.45 441.785 8652.45 441.785 8652.45 441.785C8635.51 413.673 8635.51 383.59 8652.45 355.495C8652.45 355.494 8652.45 355.495 8652.45 355.495L8671.91 323.201C8687.56 297.239 8687.56 269.458 8671.91 243.515L8652.45 211.22C8652.45 211.22 8652.45 211.22 8652.45 211.22C8635.51 183.108 8635.51 153.025 8652.45 124.93C8652.45 124.929 8652.45 124.93 8652.45 124.93L8671.91 92.6357C8687.56 66.674 8687.56 38.8927 8671.91 12.9501L8652.45 -19.345C8635.51 -47.457 8635.51 -77.5411 8652.45 -105.637L8673.14 -102.332C8657.49 -76.3897 8657.49 -48.6091 8673.14 -22.6473L8692.6 9.64586C8692.6 9.64637 8692.6 9.64535 8692.6 9.64586C8709.54 37.7409 8709.54 67.826 8692.6 95.9375L8673.14 128.231C8657.49 154.174 8657.49 181.956 8673.14 207.918L8692.6 240.211C8709.54 268.306 8709.54 298.39 8692.6 326.502C8692.6 326.502 8692.6 326.502 8692.6 326.502L8673.14 358.796C8657.49 384.738 8657.49 412.521 8673.14 438.482L8692.6 470.776C8709.54 498.871 8709.54 528.955 8692.6 557.067C8692.6 557.067 8692.6 557.066 8692.6 557.067L8673.14 589.362Z" fill="#A0CFFF"/>
<path fill-rule="evenodd" clip-rule="evenodd" d="M8753.05 589.362C8737.41 615.305 8737.41 643.086 8753.05 669.047L8732.37 672.35C8715.42 644.238 8715.42 614.155 8732.37 586.06C8732.37 586.059 8732.37 586.06 8732.37 586.06L8751.83 553.765C8767.47 527.804 8767.47 500.022 8751.83 474.08L8732.37 441.785C8732.37 441.785 8732.37 441.785 8732.37 441.785C8715.43 413.673 8715.42 383.59 8732.37 355.495C8732.37 355.494 8732.37 355.495 8732.37 355.495L8751.83 323.201C8767.47 297.239 8767.47 269.458 8751.83 243.515L8732.37 211.22C8732.37 211.22 8732.37 211.22 8732.37 211.22C8715.43 183.108 8715.42 153.025 8732.37 124.93C8732.37 124.929 8732.37 124.93 8732.37 124.93L8751.83 92.6357C8767.47 66.674 8767.47 38.8927 8751.83 12.9501L8732.37 -19.345C8715.42 -47.457 8715.42 -77.5411 8732.37 -105.637L8753.05 -102.332C8737.41 -76.3897 8737.41 -48.6091 8753.05 -22.6473L8772.51 9.64586C8772.51 9.64637 8772.51 9.64535 8772.51 9.64586C8789.46 37.7409 8789.46 67.826 8772.51 95.9375L8753.05 128.231C8737.41 154.174 8737.41 181.956 8753.05 207.918L8772.51 240.211C8789.46 268.306 8789.46 298.39 8772.51 326.502C8772.51 326.502 8772.51 326.502 8772.51 326.502L8753.05 358.796C8737.41 384.738 8737.41 412.521 8753.05 438.482L8772.51 470.776C8789.46 498.871 8789.46 528.955 8772.51 557.067C8772.51 557.067 8772.51 557.066 8772.51 557.067L8753.05 589.362Z" fill="#A0CFFF"/>
<path d="M9583 283.781V0.781245H9300L9583 283.781Z" fill="#5BEF76"/>
<path d="M8401.08 383.395L8401.08 666.395L8684.08 666.395L8401.08 383.395Z" fill="#5BEF76"/>
<path fill-rule="evenodd" clip-rule="evenodd" d="M8992 967.781C9131.18 967.781 9244 854.957 9244 715.781C9244 576.606 9131.18 463.781 8992 463.781C8852.82 463.781 8740 576.606 8740 715.781C8740 854.957 8852.82 967.781 8992 967.781ZM8992 868.958C9076.6 868.958 9145.18 800.378 9145.18 715.781C9145.18 631.184 9076.6 562.605 8992 562.605C8907.4 562.605 8838.82 631.184 8838.82 715.781C8838.82 800.378 8907.4 868.958 8992 868.958Z" fill="#006C23"/>
<path fill-rule="evenodd" clip-rule="evenodd" d="M8991.5 532.781C9046.45 532.781 9091 488.234 9091 433.281C9091 378.329 9046.45 333.781 8991.5 333.781C8936.55 333.781 8892 378.329 8892 433.281C8892 488.234 8936.55 532.781 8991.5 532.781ZM8991.5 515.222C9036.75 515.222 9073.44 478.536 9073.44 433.281C9073.44 388.026 9036.75 351.34 8991.5 351.34C8946.25 351.34 8909.56 388.026 8909.56 433.281C8909.56 478.536 8946.25 515.222 8991.5 515.222Z" fill="#393A3D"/>
<circle cx="8991.5" cy="125.281" r="39.6068" fill="#006C23" stroke="#5BEF76" stroke-width="9.78641"/>
</g>
<g clip-path="url(#clip8_1_10067)">
<rect width="1200" height="675" transform="translate(9600 0.78125)" fill="#F4F4EF"/>
<rect x="9600" y="0.78125" width="597" height="666" fill="#A0CFFF"/>
<path d="M9600 507.543C9695.76 507.543 9773.38 429.918 9773.38 334.162C9773.38 238.407 9695.76 160.782 9600 160.782L9600 507.543Z" fill="#006C23"/>
<path d="M10018.9 0.78125C10018.9 96.5367 10096.5 174.162 10192.3 174.162C10288 174.162 10365.7 96.5367 10365.7 0.78125L10018.9 0.78125Z" fill="#5BEF76"/>
<rect x="10197" y="259.781" width="587" height="27.1021" fill="#393A3D"/>
<rect x="10197" y="313.986" width="587" height="27.1021" fill="#393A3D"/>
<rect x="10197" y="368.189" width="587" height="27.1021" fill="#393A3D"/>
<rect x="10197" y="422.393" width="587" height="27.1021" fill="#393A3D"/>
<rect x="10197" y="476.598" width="587" height="27.1021" fill="#393A3D"/>
<rect x="10197" y="530.801" width="587" height="27.1021" fill="#393A3D"/>
<rect x="10197" y="585.006" width="587" height="27.1021" fill="#393A3D"/>
<rect x="10197" y="639.209" width="587" height="27.1021" fill="#393A3D"/>
<path d="M10365.7 667.162C10365.7 571.407 10288 493.781 10192.3 493.781C10096.5 493.781 10018.9 571.407 10018.9 667.162L10365.7 667.162Z" fill="#5BEF76"/>
<path d="M10784.4 160.781C10688.6 160.781 10611 238.406 10611 334.162C10611 429.917 10688.6 507.543 10784.4 507.543L10784.4 160.781Z" fill="#5BEF76"/>
</g>
<g clip-path="url(#clip9_1_10067)">
<rect width="1200" height="675" transform="translate(10800 0.78125)" fill="#F4F4EF"/>
<rect x="11874" y="0.78125" width="110" height="666" fill="#A0CFFF"/>
<rect x="10800" y="666.781" width="666" height="26.2" transform="rotate(-90 10800 666.781)" fill="#A0CFFF"/>
<rect x="10852.4" y="666.781" width="666" height="26.2" transform="rotate(-90 10852.4 666.781)" fill="#A0CFFF"/>
<rect x="10904.8" y="666.781" width="666" height="26.2" transform="rotate(-90 10904.8 666.781)" fill="#A0CFFF"/>
<rect x="10957.2" y="666.781" width="666" height="26.2" transform="rotate(-90 10957.2 666.781)" fill="#A0CFFF"/>
<rect x="11009.6" y="666.781" width="666" height="26.2" transform="rotate(-90 11009.6 666.781)" fill="#A0CFFF"/>
<rect x="11062" y="666.781" width="666" height="26.2" transform="rotate(-90 11062 666.781)" fill="#A0CFFF"/>
<rect x="11114.4" y="666.781" width="666" height="26.2" transform="rotate(-90 11114.4 666.781)" fill="#A0CFFF"/>
<rect x="11166.8" y="666.781" width="666" height="26.2" transform="rotate(-90 11166.8 666.781)" fill="#A0CFFF"/>
<path d="M11193 251.781L11609.6 968.031H10776.4L11193 251.781Z" fill="#006C23"/>
<path d="M11590 400.781L11173.4 -316.219L12006.6 -316.219L11590 400.781Z" fill="#5BEF76"/>
<path d="M11020 78.7812C11020 174.537 11097.6 252.162 11193.4 252.162C11289.1 252.162 11366.8 174.537 11366.8 78.7812H11298.8C11298.8 136.986 11251.6 184.169 11193.4 184.169C11135.2 184.169 11088 136.986 11088 78.7812H11020Z" fill="#393A3D"/>
<path d="M11763.8 574.162C11763.8 478.407 11686.1 400.781 11590.4 400.781C11494.6 400.781 11417 478.407 11417 574.162L11485 574.162C11485 515.958 11532.2 468.774 11590.4 468.774C11648.6 468.774 11695.8 515.958 11695.8 574.162L11763.8 574.162Z" fill="#393A3D"/>
</g>
<g clip-path="url(#clip10_1_10067)">
<rect width="1200" height="675" transform="translate(12000 0.78125)" fill="#F4F4EF"/>
<rect x="12001" y="0.78125" width="829" height="367" fill="#A0CFFF"/>
<path d="M12790 570.781L12373.4 -146.219L13206.6 -146.219L12790 570.781Z" fill="#5BEF76"/>
<ellipse cx="12789.5" cy="171.781" rx="84.5" ry="84" fill="#393A3D"/>
<rect x="12001" y="367.781" width="1184" height="27.1021" fill="#393A3D"/>
<rect x="12001" y="421.986" width="1184" height="27.1021" fill="#393A3D"/>
<rect x="12001" y="476.189" width="1184" height="27.1021" fill="#393A3D"/>
<rect x="12001" y="530.393" width="1184" height="27.1021" fill="#393A3D"/>
<rect x="12001" y="584.598" width="1184" height="27.1021" fill="#393A3D"/>
<rect x="12001" y="638.801" width="1184" height="27.1021" fill="#393A3D"/>
<path d="M12393 92.7812L12809.6 809.031H11976.4L12393 92.7812Z" fill="#006C23"/>
<path fill-rule="evenodd" clip-rule="evenodd" d="M12277 454.781C12277 518.846 12328.9 570.781 12393 570.781C12457.1 570.781 12509 518.846 12509 454.781C12509 390.716 12457.1 338.781 12393 338.781C12328.9 338.781 12277 390.716 12277 454.781ZM12322.5 454.781C12322.5 493.723 12354.1 525.291 12393 525.291C12431.9 525.291 12463.5 493.723 12463.5 454.781C12463.5 415.84 12431.9 384.271 12393 384.271C12354.1 384.271 12322.5 415.84 12322.5 454.781Z" fill="#5BEF76"/>
</g>
<g clip-path="url(#clip11_1_10067)">
<rect width="1200" height="675" transform="translate(13200 0.78125)" fill="#F4F4EF"/>
<path fill-rule="evenodd" clip-rule="evenodd" d="M14366.7 86.8096C14382.3 60.867 14382.3 33.0863 14366.7 7.12453L14387.4 3.82227C14404.3 31.9338 14404.3 62.0173 14387.4 90.1123C14387.4 90.1129 14387.4 90.1118 14387.4 90.1123L14367.9 122.406C14352.3 148.368 14352.3 176.149 14367.9 202.092L14387.4 234.387C14387.4 234.387 14387.4 234.387 14387.4 234.387C14404.3 262.499 14404.3 292.582 14387.4 320.677C14387.4 320.678 14387.4 320.677 14387.4 320.677L14367.9 352.971C14352.3 378.933 14352.3 406.714 14367.9 432.657L14387.4 464.952C14387.4 464.952 14387.4 464.952 14387.4 464.952C14404.3 493.063 14404.3 523.147 14387.4 551.242C14387.4 551.243 14387.4 551.242 14387.4 551.242L14367.9 583.536C14352.3 609.498 14352.3 637.279 14367.9 663.222L14387.4 695.517C14404.3 723.629 14404.3 753.713 14387.4 781.808L14366.7 778.504C14382.3 752.562 14382.3 724.781 14366.7 698.819L14347.2 666.526C14347.2 666.526 14347.2 666.527 14347.2 666.526C14330.3 638.431 14330.3 608.346 14347.2 580.234L14366.7 547.941C14382.3 521.998 14382.3 494.216 14366.7 468.254L14347.2 435.961C14330.3 407.866 14330.3 377.782 14347.2 349.67C14347.2 349.67 14347.2 349.67 14347.2 349.67L14366.7 317.376C14382.3 291.433 14382.3 263.651 14366.7 237.689L14347.2 205.396C14330.3 177.301 14330.3 147.217 14347.2 119.105C14347.2 119.105 14347.2 119.105 14347.2 119.105L14366.7 86.8096Z" fill="#A0CFFF"/>
<path fill-rule="evenodd" clip-rule="evenodd" d="M14286.8 86.8096C14302.4 60.867 14302.4 33.0863 14286.8 7.12453L14307.5 3.82227C14324.4 31.9338 14324.4 62.0173 14307.5 90.1123C14307.5 90.1129 14307.5 90.1118 14307.5 90.1123L14288 122.406C14272.4 148.368 14272.4 176.149 14288 202.092L14307.5 234.387C14307.5 234.387 14307.5 234.387 14307.5 234.387C14324.4 262.499 14324.4 292.582 14307.5 320.677C14307.5 320.678 14307.5 320.677 14307.5 320.677L14288 352.971C14272.4 378.933 14272.4 406.714 14288 432.657L14307.5 464.952C14307.5 464.952 14307.5 464.952 14307.5 464.952C14324.4 493.063 14324.4 523.147 14307.5 551.242C14307.5 551.243 14307.5 551.242 14307.5 551.242L14288 583.536C14272.4 609.498 14272.4 637.279 14288 663.222L14307.5 695.517C14324.4 723.629 14324.4 753.713 14307.5 781.808L14286.8 778.504C14302.4 752.562 14302.4 724.781 14286.8 698.819L14267.3 666.526C14267.3 666.526 14267.3 666.527 14267.3 666.526C14250.4 638.431 14250.4 608.346 14267.3 580.234L14286.8 547.941C14302.4 521.998 14302.4 494.216 14286.8 468.254L14267.3 435.961C14250.4 407.866 14250.4 377.782 14267.3 349.67C14267.3 349.67 14267.3 349.67 14267.3 349.67L14286.8 317.376C14302.4 291.433 14302.4 263.651 14286.8 237.689L14267.3 205.396C14250.4 177.301 14250.4 147.217 14267.3 119.105C14267.3 119.105 14267.3 119.105 14267.3 119.105L14286.8 86.8096Z" fill="#A0CFFF"/>
<path fill-rule="evenodd" clip-rule="evenodd" d="M14206.9 86.8096C14222.5 60.867 14222.5 33.0863 14206.9 7.12453L14227.5 3.82227C14244.5 31.9338 14244.5 62.0173 14227.6 90.1123C14227.5 90.1129 14227.6 90.1118 14227.6 90.1123L14208.1 122.406C14192.4 148.368 14192.4 176.149 14208.1 202.092L14227.5 234.387C14227.5 234.387 14227.5 234.387 14227.5 234.387C14244.5 262.499 14244.5 292.582 14227.6 320.677C14227.5 320.678 14227.6 320.677 14227.6 320.677L14208.1 352.971C14192.4 378.933 14192.4 406.714 14208.1 432.657L14227.5 464.952C14227.5 464.952 14227.5 464.952 14227.5 464.952C14244.5 493.063 14244.5 523.147 14227.6 551.242C14227.5 551.243 14227.6 551.242 14227.6 551.242L14208.1 583.536C14192.4 609.498 14192.4 637.279 14208.1 663.222L14227.5 695.517C14244.5 723.629 14244.5 753.713 14227.5 781.808L14206.9 778.504C14222.5 752.562 14222.5 724.781 14206.9 698.819L14187.4 666.526C14187.4 666.526 14187.4 666.527 14187.4 666.526C14170.5 638.431 14170.5 608.346 14187.4 580.234L14206.9 547.941C14222.5 521.998 14222.5 494.216 14206.9 468.254L14187.4 435.961C14170.5 407.866 14170.5 377.782 14187.4 349.67C14187.4 349.67 14187.4 349.67 14187.4 349.67L14206.9 317.376C14222.5 291.433 14222.5 263.651 14206.9 237.689L14187.4 205.396C14170.5 177.301 14170.5 147.217 14187.4 119.105C14187.4 119.105 14187.4 119.105 14187.4 119.105L14206.9 86.8096Z" fill="#A0CFFF"/>
<path fill-rule="evenodd" clip-rule="evenodd" d="M14126.9 86.8096C14142.6 60.867 14142.6 33.0863 14126.9 7.12453L14147.6 3.82227C14164.6 31.9338 14164.6 62.0173 14147.6 90.1123C14147.6 90.1129 14147.6 90.1118 14147.6 90.1123L14128.2 122.406C14112.5 148.368 14112.5 176.149 14128.2 202.092L14147.6 234.387C14147.6 234.387 14147.6 234.387 14147.6 234.387C14164.6 262.499 14164.6 292.582 14147.6 320.677C14147.6 320.678 14147.6 320.677 14147.6 320.677L14128.2 352.971C14112.5 378.933 14112.5 406.714 14128.2 432.657L14147.6 464.952C14147.6 464.952 14147.6 464.952 14147.6 464.952C14164.6 493.063 14164.6 523.147 14147.6 551.242C14147.6 551.243 14147.6 551.242 14147.6 551.242L14128.2 583.536C14112.5 609.498 14112.5 637.279 14128.2 663.222L14147.6 695.517C14164.6 723.629 14164.6 753.713 14147.6 781.808L14126.9 778.504C14142.6 752.562 14142.6 724.781 14126.9 698.819L14107.5 666.526C14107.5 666.526 14107.5 666.527 14107.5 666.526C14090.5 638.431 14090.5 608.346 14107.5 580.234L14126.9 547.941C14142.6 521.998 14142.6 494.216 14126.9 468.254L14107.5 435.961C14090.5 407.866 14090.5 377.782 14107.5 349.67C14107.5 349.67 14107.5 349.67 14107.5 349.67L14126.9 317.376C14142.6 291.433 14142.6 263.651 14126.9 237.689L14107.5 205.396C14090.5 177.301 14090.5 147.217 14107.5 119.105C14107.5 119.105 14107.5 119.105 14107.5 119.105L14126.9 86.8096Z" fill="#A0CFFF"/>
<path fill-rule="evenodd" clip-rule="evenodd" d="M14047 86.8096C14062.7 60.867 14062.7 33.0863 14047 7.12453L14067.7 3.82227C14084.7 31.9338 14084.7 62.0173 14067.7 90.1123C14067.7 90.1129 14067.7 90.1118 14067.7 90.1123L14048.3 122.406C14032.6 148.368 14032.6 176.149 14048.3 202.092L14067.7 234.387C14067.7 234.387 14067.7 234.387 14067.7 234.387C14084.7 262.499 14084.7 292.582 14067.7 320.677C14067.7 320.678 14067.7 320.677 14067.7 320.677L14048.3 352.971C14032.6 378.933 14032.6 406.714 14048.3 432.657L14067.7 464.952C14067.7 464.952 14067.7 464.952 14067.7 464.952C14084.7 493.063 14084.7 523.147 14067.7 551.242C14067.7 551.243 14067.7 551.242 14067.7 551.242L14048.3 583.536C14032.6 609.498 14032.6 637.279 14048.3 663.222L14067.7 695.517C14084.7 723.629 14084.7 753.713 14067.7 781.808L14047 778.504C14062.7 752.562 14062.7 724.781 14047 698.819L14027.6 666.526C14027.6 666.526 14027.6 666.527 14027.6 666.526C14010.6 638.431 14010.6 608.346 14027.6 580.234L14047 547.941C14062.7 521.998 14062.7 494.216 14047 468.254L14027.6 435.961C14010.6 407.866 14010.6 377.782 14027.6 349.67C14027.6 349.67 14027.6 349.67 14027.6 349.67L14047 317.376C14062.7 291.433 14062.7 263.651 14047 237.689L14027.6 205.396C14010.6 177.301 14010.6 147.217 14027.6 119.105C14027.6 119.105 14027.6 119.105 14027.6 119.105L14047 86.8096Z" fill="#A0CFFF"/>
<path fill-rule="evenodd" clip-rule="evenodd" d="M13806.8 86.8096C13822.5 60.867 13822.5 33.0863 13806.8 7.12453L13827.5 3.82227C13844.5 31.9338 13844.5 62.0173 13827.5 90.1123C13827.5 90.1129 13827.5 90.1118 13827.5 90.1123L13808.1 122.406C13792.4 148.368 13792.4 176.149 13808.1 202.092L13827.5 234.387C13827.5 234.387 13827.5 234.387 13827.5 234.387C13844.5 262.499 13844.5 292.582 13827.5 320.677C13827.5 320.678 13827.5 320.677 13827.5 320.677L13808.1 352.971C13792.4 378.933 13792.4 406.714 13808.1 432.657L13827.5 464.952C13827.5 464.952 13827.5 464.952 13827.5 464.952C13844.5 493.063 13844.5 523.147 13827.5 551.242C13827.5 551.243 13827.5 551.242 13827.5 551.242L13808.1 583.536C13792.4 609.498 13792.4 637.279 13808.1 663.222L13827.5 695.517C13844.5 723.629 13844.5 753.713 13827.5 781.808L13806.8 778.504C13822.5 752.562 13822.5 724.781 13806.8 698.819L13787.4 666.526C13787.4 666.526 13787.4 666.527 13787.4 666.526C13770.4 638.431 13770.4 608.346 13787.4 580.234L13806.8 547.941C13822.5 521.998 13822.5 494.216 13806.8 468.254L13787.4 435.961C13770.4 407.866 13770.4 377.782 13787.4 349.67C13787.4 349.67 13787.4 349.67 13787.4 349.67L13806.8 317.376C13822.5 291.433 13822.5 263.651 13806.8 237.689L13787.4 205.396C13770.4 177.301 13770.4 147.217 13787.4 119.105C13787.4 119.105 13787.4 119.105 13787.4 119.105L13806.8 86.8096Z" fill="#A0CFFF"/>
<path fill-rule="evenodd" clip-rule="evenodd" d="M13233.4 589.362C13217.7 615.305 13217.7 643.086 13233.4 669.047L13212.7 672.35C13195.8 644.238 13195.8 614.155 13212.7 586.06C13212.7 586.059 13212.7 586.06 13212.7 586.06L13232.2 553.765C13247.8 527.804 13247.8 500.022 13232.2 474.08L13212.7 441.785C13212.7 441.785 13212.7 441.785 13212.7 441.785C13195.8 413.673 13195.8 383.59 13212.7 355.495C13212.7 355.494 13212.7 355.495 13212.7 355.495L13232.2 323.201C13247.8 297.239 13247.8 269.458 13232.2 243.515L13212.7 211.22C13212.7 211.22 13212.7 211.22 13212.7 211.22C13195.8 183.108 13195.8 153.025 13212.7 124.93C13212.7 124.929 13212.7 124.93 13212.7 124.93L13232.2 92.6357C13247.8 66.674 13247.8 38.8927 13232.2 12.9501L13212.7 -19.345C13195.8 -47.457 13195.8 -77.5411 13212.7 -105.637L13233.4 -102.332C13217.7 -76.3897 13217.7 -48.6091 13233.4 -22.6473L13252.9 9.64586C13252.9 9.64637 13252.9 9.64535 13252.9 9.64586C13269.8 37.7409 13269.8 67.826 13252.9 95.9375L13233.4 128.231C13217.7 154.174 13217.7 181.956 13233.4 207.918L13252.9 240.211C13269.8 268.306 13269.8 298.39 13252.9 326.502C13252.9 326.502 13252.9 326.502 13252.9 326.502L13233.4 358.796C13217.7 384.738 13217.7 412.521 13233.4 438.482L13252.9 470.776C13269.8 498.871 13269.8 528.955 13252.9 557.067C13252.9 557.067 13252.9 557.066 13252.9 557.067L13233.4 589.362Z" fill="#A0CFFF"/>
<path fill-rule="evenodd" clip-rule="evenodd" d="M13313.3 589.362C13297.7 615.305 13297.7 643.086 13313.3 669.047L13292.6 672.35C13275.7 644.238 13275.7 614.155 13292.6 586.06C13292.6 586.059 13292.6 586.06 13292.6 586.06L13312.1 553.765C13327.7 527.804 13327.7 500.022 13312.1 474.08L13292.6 441.785C13292.6 441.785 13292.6 441.785 13292.6 441.785C13275.7 413.673 13275.7 383.59 13292.6 355.495C13292.6 355.494 13292.6 355.495 13292.6 355.495L13312.1 323.201C13327.7 297.239 13327.7 269.458 13312.1 243.515L13292.6 211.22C13292.6 211.22 13292.6 211.22 13292.6 211.22C13275.7 183.108 13275.7 153.025 13292.6 124.93C13292.6 124.929 13292.6 124.93 13292.6 124.93L13312.1 92.6357C13327.7 66.674 13327.7 38.8927 13312.1 12.9501L13292.6 -19.345C13275.7 -47.457 13275.7 -77.5411 13292.6 -105.637L13313.3 -102.332C13297.7 -76.3897 13297.7 -48.6091 13313.3 -22.6473L13332.8 9.64586C13332.8 9.64637 13332.8 9.64535 13332.8 9.64586C13349.7 37.7409 13349.7 67.826 13332.8 95.9375L13313.3 128.231C13297.7 154.174 13297.7 181.956 13313.3 207.918L13332.8 240.211C13349.7 268.306 13349.7 298.39 13332.8 326.502C13332.8 326.502 13332.8 326.502 13332.8 326.502L13313.3 358.796C13297.7 384.738 13297.7 412.521 13313.3 438.482L13332.8 470.776C13349.7 498.871 13349.7 528.955 13332.8 557.067C13332.8 557.067 13332.8 557.066 13332.8 557.067L13313.3 589.362Z" fill="#A0CFFF"/>
<path fill-rule="evenodd" clip-rule="evenodd" d="M13393.2 589.362C13377.6 615.305 13377.6 643.086 13393.2 669.047L13372.5 672.35C13355.6 644.238 13355.6 614.155 13372.5 586.06C13372.5 586.059 13372.5 586.06 13372.5 586.06L13392 553.765C13407.6 527.804 13407.6 500.022 13392 474.08L13372.5 441.785C13372.5 441.785 13372.5 441.785 13372.5 441.785C13355.6 413.673 13355.6 383.59 13372.5 355.495C13372.5 355.494 13372.5 355.495 13372.5 355.495L13392 323.201C13407.6 297.239 13407.6 269.458 13392 243.515L13372.5 211.22C13372.5 211.22 13372.5 211.22 13372.5 211.22C13355.6 183.108 13355.6 153.025 13372.5 124.93C13372.5 124.929 13372.5 124.93 13372.5 124.93L13392 92.6357C13407.6 66.674 13407.6 38.8927 13392 12.9501L13372.5 -19.345C13355.6 -47.457 13355.6 -77.5411 13372.5 -105.637L13393.2 -102.332C13377.6 -76.3897 13377.6 -48.6091 13393.2 -22.6473L13412.7 9.64586C13412.7 9.64637 13412.7 9.64535 13412.7 9.64586C13429.6 37.7409 13429.6 67.826 13412.7 95.9375L13393.2 128.231C13377.6 154.174 13377.6 181.956 13393.2 207.918L13412.7 240.211C13429.6 268.306 13429.6 298.39 13412.7 326.502C13412.7 326.502 13412.7 326.502 13412.7 326.502L13393.2 358.796C13377.6 384.738 13377.6 412.521 13393.2 438.482L13412.7 470.776C13429.6 498.871 13429.6 528.955 13412.7 557.067C13412.7 557.067 13412.7 557.066 13412.7 557.067L13393.2 589.362Z" fill="#A0CFFF"/>
<path fill-rule="evenodd" clip-rule="evenodd" d="M13473.1 589.362C13457.5 615.305 13457.5 643.086 13473.1 669.047L13452.5 672.35C13435.5 644.238 13435.5 614.155 13452.5 586.06C13452.5 586.059 13452.5 586.06 13452.5 586.06L13471.9 553.765C13487.6 527.804 13487.6 500.022 13471.9 474.08L13452.5 441.785C13452.5 441.785 13452.5 441.785 13452.5 441.785C13435.5 413.673 13435.5 383.59 13452.5 355.495C13452.5 355.494 13452.5 355.495 13452.5 355.495L13471.9 323.201C13487.6 297.239 13487.6 269.458 13471.9 243.515L13452.5 211.22C13452.5 211.22 13452.5 211.22 13452.5 211.22C13435.5 183.108 13435.5 153.025 13452.5 124.93C13452.5 124.929 13452.5 124.93 13452.5 124.93L13471.9 92.6357C13487.6 66.674 13487.6 38.8927 13471.9 12.9501L13452.5 -19.345C13435.5 -47.457 13435.5 -77.5411 13452.5 -105.637L13473.1 -102.332C13457.5 -76.3897 13457.5 -48.6091 13473.1 -22.6473L13492.6 9.64586C13492.6 9.64637 13492.6 9.64535 13492.6 9.64586C13509.5 37.7409 13509.5 67.826 13492.6 95.9375L13473.1 128.231C13457.5 154.174 13457.5 181.956 13473.1 207.918L13492.6 240.211C13509.5 268.306 13509.5 298.39 13492.6 326.502C13492.6 326.502 13492.6 326.502 13492.6 326.502L13473.1 358.796C13457.5 384.738 13457.5 412.521 13473.1 438.482L13492.6 470.776C13509.5 498.871 13509.5 528.955 13492.6 557.067C13492.6 557.067 13492.6 557.066 13492.6 557.067L13473.1 589.362Z" fill="#A0CFFF"/>
<path fill-rule="evenodd" clip-rule="evenodd" d="M13553.1 589.362C13537.4 615.305 13537.4 643.086 13553.1 669.047L13532.4 672.35C13515.4 644.238 13515.4 614.155 13532.4 586.06C13532.4 586.059 13532.4 586.06 13532.4 586.06L13551.8 553.765C13567.5 527.804 13567.5 500.022 13551.8 474.08L13532.4 441.785C13532.4 441.785 13532.4 441.785 13532.4 441.785C13515.4 413.673 13515.4 383.59 13532.4 355.495C13532.4 355.494 13532.4 355.495 13532.4 355.495L13551.8 323.201C13567.5 297.239 13567.5 269.458 13551.8 243.515L13532.4 211.22C13532.4 211.22 13532.4 211.22 13532.4 211.22C13515.4 183.108 13515.4 153.025 13532.4 124.93C13532.4 124.929 13532.4 124.93 13532.4 124.93L13551.8 92.6357C13567.5 66.674 13567.5 38.8927 13551.8 12.9501L13532.4 -19.345C13515.4 -47.457 13515.4 -77.5411 13532.4 -105.637L13553.1 -102.332C13537.4 -76.3897 13537.4 -48.6091 13553.1 -22.6473L13572.5 9.64586C13572.5 9.64637 13572.5 9.64535 13572.5 9.64586C13589.5 37.7409 13589.5 67.826 13572.5 95.9375L13553.1 128.231C13537.4 154.174 13537.4 181.956 13553.1 207.918L13572.5 240.211C13589.5 268.306 13589.5 298.39 13572.5 326.502C13572.5 326.502 13572.5 326.502 13572.5 326.502L13553.1 358.796C13537.4 384.738 13537.4 412.521 13553.1 438.482L13572.5 470.776C13589.5 498.871 13589.5 528.955 13572.5 557.067C13572.5 557.067 13572.5 557.066 13572.5 557.067L13553.1 589.362Z" fill="#A0CFFF"/>
<path d="M14383 283.781V0.781245H14100L14383 283.781Z" fill="#5BEF76"/>
<path d="M13201.1 383.395L13201.1 666.395L13484.1 666.395L13201.1 383.395Z" fill="#5BEF76"/>
<path fill-rule="evenodd" clip-rule="evenodd" d="M13547 333.781C13547 472.957 13659.8 585.781 13799 585.781C13938.2 585.781 14051 472.957 14051 333.781C14051 194.605 13938.2 81.7812 13799 81.7812C13659.8 81.7812 13547 194.605 13547 333.781ZM13645.8 333.781C13645.8 418.378 13714.4 486.958 13799 486.958C13883.6 486.958 13952.2 418.378 13952.2 333.781C13952.2 249.184 13883.6 180.605 13799 180.605C13714.4 180.605 13645.8 249.184 13645.8 333.781Z" fill="#006C23"/>
<circle cx="13798.5" cy="333.281" r="39.6068" transform="rotate(90 13798.5 333.281)" fill="#006C23" stroke="#5BEF76" stroke-width="9.78641"/>
</g>
<g clip-path="url(#clip12_1_10067)">
<rect width="1200" height="675" transform="translate(14400 0.78125)" fill="#F4F4EF"/>
<rect x="14400" y="126.781" width="211.73" height="27.666" fill="#5BEF76"/>
<rect x="14571" y="182.113" width="211.73" height="27.666" fill="#006C23"/>
<rect x="14359" y="237.445" width="211.73" height="27.666" fill="#5BEF76"/>
<rect x="14400" y="292.777" width="211.73" height="27.666" fill="#006C23"/>
<rect x="14571" y="348.109" width="211.73" height="27.666" fill="#5BEF76"/>
<rect x="14327" y="403.441" width="211.73" height="27.666" fill="#5BEF76"/>
<rect x="14400" y="458.773" width="211.73" height="27.666" fill="#5BEF76"/>
<rect x="14506" y="514.105" width="211.73" height="27.666" fill="#5BEF76"/>
<rect x="14400" y="370.781" width="1184" height="296" fill="#A0CFFF"/>
<rect x="15453" y="126.781" width="211.73" height="27.666" fill="#006C23"/>
<rect x="15372" y="182.113" width="211.73" height="27.666" fill="#5BEF76"/>
<rect x="15203" y="237.445" width="211.73" height="27.666" fill="#006C23"/>
<rect x="15372" y="292.777" width="211.73" height="27.666" fill="#5BEF76"/>
<rect x="15420" y="348.109" width="211.73" height="27.666" fill="#5BEF76"/>
<rect x="15203" y="403.441" width="211.73" height="27.666" fill="#006C23"/>
<rect x="15372" y="458.773" width="211.73" height="27.666" fill="#5BEF76"/>
<rect x="15526" y="514.105" width="211.73" height="27.666" fill="#006C23"/>
<rect x="14783" y="126.781" width="418.454" height="418.454" fill="#A0CFFF"/>
<rect x="14795" y="544.781" width="418" height="26.2" transform="rotate(-90 14795 544.781)" fill="#F4F4EF"/>
<rect x="14847.4" y="544.781" width="418" height="26.2" transform="rotate(-90 14847.4 544.781)" fill="#F4F4EF"/>
<rect x="14899.8" y="544.781" width="418" height="26.2" transform="rotate(-90 14899.8 544.781)" fill="#F4F4EF"/>
<rect x="14952.2" y="544.781" width="418" height="26.2" transform="rotate(-90 14952.2 544.781)" fill="#F4F4EF"/>
<rect x="15004.6" y="544.781" width="418" height="26.2" transform="rotate(-90 15004.6 544.781)" fill="#F4F4EF"/>
<rect x="15057" y="544.781" width="418" height="26.2" transform="rotate(-90 15057 544.781)" fill="#F4F4EF"/>
<rect x="15109.4" y="544.781" width="418" height="26.2" transform="rotate(-90 15109.4 544.781)" fill="#F4F4EF"/>
<rect x="15161.8" y="544.781" width="418" height="26.2" transform="rotate(-90 15161.8 544.781)" fill="#F4F4EF"/>
</g>
<g clip-path="url(#clip13_1_10067)">
<rect width="1200" height="675" transform="translate(15600 0.78125)" fill="#F4F4EF"/>
<rect x="15600" y="126.781" width="211.73" height="27.666" fill="#5BEF76"/>
<rect x="15771" y="182.113" width="211.73" height="27.666" fill="#5BEF76"/>
<rect x="15559" y="237.445" width="211.73" height="27.666" fill="#5BEF76"/>
<rect x="15600" y="292.777" width="211.73" height="27.666" fill="#5BEF76"/>
<rect x="15771" y="348.109" width="211.73" height="27.666" fill="#5BEF76"/>
<rect x="15527" y="403.441" width="211.73" height="27.666" fill="#5BEF76"/>
<rect x="15600" y="458.773" width="211.73" height="27.666" fill="#5BEF76"/>
<rect x="15706" y="514.105" width="211.73" height="27.666" fill="#5BEF76"/>
<rect x="16653" y="126.781" width="211.73" height="27.666" fill="#5BEF76"/>
<rect x="16572" y="182.113" width="211.73" height="27.666" fill="#5BEF76"/>
<rect x="16403" y="237.445" width="211.73" height="27.666" fill="#5BEF76"/>
<rect x="16572" y="292.777" width="211.73" height="27.666" fill="#5BEF76"/>
<rect x="16620" y="348.109" width="211.73" height="27.666" fill="#5BEF76"/>
<rect x="16403" y="403.441" width="211.73" height="27.666" fill="#5BEF76"/>
<rect x="16572" y="458.773" width="211.73" height="27.666" fill="#5BEF76"/>
<rect x="16726" y="514.105" width="211.73" height="27.666" fill="#5BEF76"/>
<rect x="15983" y="126.781" width="418.454" height="418.454" fill="#A0CFFF"/>
<rect x="15995" y="666.781" width="662" height="26.2" transform="rotate(-90 15995 666.781)" fill="#A0CFFF"/>
<rect x="16047.4" y="666.781" width="662" height="26.2" transform="rotate(-90 16047.4 666.781)" fill="#A0CFFF"/>
<rect x="16099.8" y="666.781" width="662" height="26.2" transform="rotate(-90 16099.8 666.781)" fill="#A0CFFF"/>
<rect x="16152.2" y="666.781" width="662" height="26.2" transform="rotate(-90 16152.2 666.781)" fill="#A0CFFF"/>
<rect x="16204.6" y="666.781" width="662" height="26.2" transform="rotate(-90 16204.6 666.781)" fill="#A0CFFF"/>
<rect x="16257" y="666.781" width="662" height="26.2" transform="rotate(-90 16257 666.781)" fill="#A0CFFF"/>
<rect x="16309.4" y="666.781" width="662" height="26.2" transform="rotate(-90 16309.4 666.781)" fill="#A0CFFF"/>
<rect x="16361.8" y="666.781" width="662" height="26.2" transform="rotate(-90 16361.8 666.781)" fill="#A0CFFF"/>
<path d="M15816.4 0.78125C15816.4 96.5367 15894 174.162 15989.8 174.162C16085.5 174.162 16163.1 96.5367 16163.1 0.78125H16095.1C16095.1 58.9856 16048 106.169 15989.8 106.169C15931.6 106.169 15884.4 58.9856 15884.4 0.78125H15816.4Z" fill="#006C23"/>
<path d="M16567.7 667.162C16567.7 571.407 16490.1 493.781 16394.3 493.781C16298.6 493.781 16220.9 571.407 16220.9 667.162L16288.9 667.162C16288.9 608.958 16336.1 561.774 16394.3 561.774C16452.5 561.774 16499.7 608.958 16499.7 667.162L16567.7 667.162Z" fill="#006C23"/>
<path d="M15983 489.781C16022.2 489.781 16054 457.993 16054 418.781C16054 379.569 16022.2 347.781 15983 347.781L15983 375.624C16006.8 375.624 16026.2 394.946 16026.2 418.781C16026.2 442.616 16006.8 461.938 15983 461.938L15983 489.781Z" fill="#393A3D"/>
<path d="M16401 237.781C16361.8 237.781 16330 269.569 16330 308.781C16330 347.993 16361.8 379.781 16401 379.781L16401 351.938C16377.2 351.938 16357.8 332.616 16357.8 308.781C16357.8 284.946 16377.2 265.624 16401 265.624L16401 237.781Z" fill="#393A3D"/>
<ellipse cx="16393.5" cy="666.781" rx="72.5" ry="72" fill="#393A3D"/>
<ellipse cx="15990.5" cy="0.78125" rx="72.5" ry="72" fill="#393A3D"/>
</g>
<g clip-path="url(#clip14_1_10067)">
<rect width="1200" height="675" transform="translate(16800 0.78125)" fill="#F4F4EF"/>
<rect x="17957" y="428.781" width="27" height="238" fill="#A0CFFF"/>
<rect x="16872" y="417.781" width="417" height="27.2" transform="rotate(-90 16872 417.781)" fill="#A0CFFF"/>
<rect x="16926.4" y="417.781" width="417" height="27.2" transform="rotate(-90 16926.4 417.781)" fill="#A0CFFF"/>
<rect x="16980.8" y="417.781" width="417" height="27.2" transform="rotate(-90 16980.8 417.781)" fill="#A0CFFF"/>
<rect x="17035.2" y="417.781" width="417" height="27.2" transform="rotate(-90 17035.2 417.781)" fill="#A0CFFF"/>
<rect x="17089.6" y="417.781" width="417" height="27.2" transform="rotate(-90 17089.6 417.781)" fill="#A0CFFF"/>
<rect x="17144" y="417.781" width="417" height="27.2" transform="rotate(-90 17144 417.781)" fill="#A0CFFF"/>
<rect x="17198.4" y="417.781" width="417" height="27.2" transform="rotate(-90 17198.4 417.781)" fill="#A0CFFF"/>
<rect x="17252.8" y="417.781" width="417" height="27.2" transform="rotate(-90 17252.8 417.781)" fill="#A0CFFF"/>
<path d="M17265 428.781L17493.6 821.031H17036.4L17265 428.781Z" fill="#006C23"/>
<path d="M17590 400.781L17173.4 -316.219L18006.6 -316.219L17590 400.781Z" fill="#5BEF76"/>
<path d="M17763.8 574.162C17763.8 478.407 17686.1 400.781 17590.4 400.781C17494.6 400.781 17417 478.407 17417 574.162L17485 574.162C17485 515.958 17532.2 468.774 17590.4 468.774C17648.6 468.774 17695.8 515.958 17695.8 574.162L17763.8 574.162Z" fill="#393A3D"/>
<path d="M17185 347.781C17185 392.516 17221 428.781 17265.5 428.781C17310 428.781 17346 392.516 17346 347.781L17314.4 347.781C17314.4 374.973 17292.5 397.017 17265.5 397.017C17238.5 397.017 17216.6 374.973 17216.6 347.781L17185 347.781Z" fill="#393A3D"/>
<circle cx="17266" cy="112.781" r="50" fill="#006C23"/>
<circle cx="17305" cy="612.781" r="25" fill="#5BEF76"/>
<circle cx="17590" cy="612.781" r="25" fill="#5BEF76"/>
<circle cx="17540" cy="112.781" r="50" fill="#393A3D"/>
</g>
<g clip-path="url(#clip15_1_10067)">
<rect width="1200" height="675" transform="translate(18000 0.78125)" fill="#F4F4EF"/>
<path d="M18690 352.781L18471.8 -22.9687L18908.2 -22.9688L18690 352.781Z" fill="#5BEF76"/>
<rect x="19047.6" y="483.879" width="1119.19" height="27.2" transform="rotate(165 19047.6 483.879)" fill="#A0CFFF"/>
<rect x="19033.6" y="431.332" width="1119.19" height="27.2" transform="rotate(165 19033.6 431.332)" fill="#A0CFFF"/>
<rect x="19019.5" y="378.785" width="1119.19" height="27.2" transform="rotate(165 19019.5 378.785)" fill="#A0CFFF"/>
<rect x="19005.4" y="326.24" width="1119.19" height="27.2" transform="rotate(165 19005.4 326.24)" fill="#A0CFFF"/>
<rect x="18991.3" y="273.693" width="1119.19" height="27.2" transform="rotate(165 18991.3 273.693)" fill="#A0CFFF"/>
<rect x="18977.2" y="221.146" width="1119.19" height="27.2" transform="rotate(165 18977.2 221.146)" fill="#A0CFFF"/>
<rect x="18963.2" y="168.6" width="1119.19" height="27.2" transform="rotate(165 18963.2 168.6)" fill="#A0CFFF"/>
<rect x="18949.1" y="116.055" width="1119.19" height="27.2" transform="rotate(165 18949.1 116.055)" fill="#A0CFFF"/>
<path d="M18320 295.781C18320 446.555 18442 568.781 18592.5 568.781C18743 568.781 18865 446.555 18865 295.781L18758.1 295.781C18758.1 387.428 18684 461.722 18592.5 461.722C18501 461.722 18426.9 387.428 18426.9 295.781L18320 295.781Z" fill="#393A3D"/>
<ellipse cx="18479.5" cy="140.781" rx="50.5" ry="51" fill="#006C23"/>
<circle cx="18690" cy="140.781" r="51" fill="#393A3D"/>
</g>
<g clip-path="url(#clip16_1_10067)">
<rect width="1200" height="675" transform="translate(19200 0.78125)" fill="#F4F4EF"/>
<rect x="19200" y="0.78125" width="597" height="666" fill="#A0CFFF"/>
<path d="M19792 76.7812C19650.1 76.7813 19535 192.068 19535 334.281C19535 476.494 19650.1 591.781 19792 591.781L19792 76.7812Z" fill="#006C23"/>
<path d="M19792 76.7812C19933.9 76.7813 20049 192.068 20049 334.281C20049 476.494 19933.9 591.781 19792 591.781L19792 76.7812Z" fill="#5BEF76"/>
<path d="M19717 0.78125C19717 42.7549 19750.8 76.7813 19792.5 76.7813C19834.2 76.7813 19868 42.7549 19868 0.78125L19717 0.78125Z" fill="#393A3D"/>
<path d="M19717 667.781C19717 625.808 19750.8 591.781 19792.5 591.781C19834.2 591.781 19868 625.808 19868 667.781L19717 667.781Z" fill="#393A3D"/>
<circle cx="19415" cy="334.781" r="50" fill="#393A3D"/>
<circle cx="20169" cy="334.781" r="50" fill="#393A3D"/>
<circle cx="19278" cy="334.781" r="18" fill="#393A3D"/>
<circle cx="20306" cy="334.781" r="18" fill="#393A3D"/>
</g>
<g clip-path="url(#clip17_1_10067)">
<rect width="1200" height="675" transform="translate(20400 0.78125)" fill="#F4F4EF"/>
<rect x="20400" y="370.781" width="1184" height="296" fill="#A0CFFF"/>
<path d="M20696 370.781L20400 370.781L20400 74.7812L20696 370.781Z" fill="#5BEF76"/>
<path d="M20992 370.781L20696 370.781L20696 74.7812L20992 370.781Z" fill="#5BEF76"/>
<path d="M21288 370.781L20992 370.781L20992 74.7812L21288 370.781Z" fill="#5BEF76"/>
<path d="M21584 370.781L21288 370.781L21288 74.7812L21584 370.781Z" fill="#5BEF76"/>
<path d="M20696 370.781V666.781H20992L20696 370.781Z" fill="#006C23"/>
<path d="M21288 370.781V666.781H21584L21288 370.781Z" fill="#006C23"/>
<path d="M20400 370.781V666.781H20696L20400 370.781Z" fill="#006C23"/>
<path d="M20992 370.781V666.781H21288L20992 370.781Z" fill="#006C23"/>
<rect x="21288" y="296.781" width="71" height="71" fill="#393A3D"/>
<rect x="20696" y="296.781" width="71" height="71" fill="#393A3D"/>
</g>
<g clip-path="url(#clip18_1_10067)">
<rect width="1200" height="675" transform="translate(21600 0.78125)" fill="#F4F4EF"/>
<rect x="21600" y="370.781" width="1184" height="296" fill="#A0CFFF"/>
<path d="M21896 370.781L21600 370.781L21600 74.7812L21896 370.781Z" fill="#5BEF76"/>
<path d="M22192 370.781L21896 370.781L21896 74.7812L22192 370.781Z" fill="#5BEF76"/>
<path d="M22488 370.781L22192 370.781L22192 74.7812L22488 370.781Z" fill="#5BEF76"/>
<path d="M22784 370.781L22488 370.781L22488 74.7812L22784 370.781Z" fill="#5BEF76"/>
<path d="M22784 592.781L22784 296.781L22488 296.781L22784 592.781Z" fill="#006C23"/>
<path fill-rule="evenodd" clip-rule="evenodd" d="M22487.5 427.781C22560.1 427.781 22619 368.907 22619 296.281C22619 223.656 22560.1 164.781 22487.5 164.781C22414.9 164.781 22356 223.656 22356 296.281C22356 368.907 22414.9 427.781 22487.5 427.781ZM22487.5 376.213C22531.6 376.213 22567.4 340.426 22567.4 296.281C22567.4 252.136 22531.6 216.35 22487.5 216.35C22443.4 216.35 22407.6 252.136 22407.6 296.281C22407.6 340.426 22443.4 376.213 22487.5 376.213Z" fill="#393A3D"/>
<path d="M22488 592.781L22488 296.781L22192 296.781L22488 592.781Z" fill="#006C23"/>
<path d="M22192 592.781L22192 296.781L21896 296.781L22192 592.781Z" fill="#006C23"/>
<path fill-rule="evenodd" clip-rule="evenodd" d="M21895.5 427.781C21968.1 427.781 22027 368.907 22027 296.281C22027 223.656 21968.1 164.781 21895.5 164.781C21822.9 164.781 21764 223.656 21764 296.281C21764 368.907 21822.9 427.781 21895.5 427.781ZM21895.5 376.213C21939.6 376.213 21975.4 340.426 21975.4 296.281C21975.4 252.136 21939.6 216.35 21895.5 216.35C21851.4 216.35 21815.6 252.136 21815.6 296.281C21815.6 340.426 21851.4 376.213 21895.5 376.213Z" fill="#393A3D"/>
<path d="M21896 592.781L21896 296.781L21600 296.781L21896 592.781Z" fill="#006C23"/>
</g>
<g clip-path="url(#clip19_1_10067)">
<rect width="1200" height="675" transform="translate(22800 0.78125)" fill="#F4F4EF"/>
<rect x="22800" y="662.781" width="662" height="78.9334" transform="rotate(-90 22800 662.781)" fill="#A0CFFF"/>
<rect x="22957.9" y="662.781" width="662" height="78.9334" transform="rotate(-90 22957.9 662.781)" fill="#A0CFFF"/>
<rect x="23115.7" y="662.781" width="662" height="78.9334" transform="rotate(-90 23115.7 662.781)" fill="#A0CFFF"/>
<rect x="23273.6" y="662.781" width="662" height="78.9334" transform="rotate(-90 23273.6 662.781)" fill="#A0CFFF"/>
<rect x="23431.5" y="662.781" width="662" height="78.9334" transform="rotate(-90 23431.5 662.781)" fill="#A0CFFF"/>
<rect x="23589.3" y="662.781" width="662" height="78.9334" transform="rotate(-90 23589.3 662.781)" fill="#A0CFFF"/>
<rect x="23747.2" y="662.781" width="662" height="78.9334" transform="rotate(-90 23747.2 662.781)" fill="#A0CFFF"/>
<rect x="23905.1" y="662.781" width="662" height="78.9334" transform="rotate(-90 23905.1 662.781)" fill="#A0CFFF"/>
<path d="M23688 370.781L23392 370.781L23392 74.7812L23688 370.781Z" fill="#5BEF76"/>
<path d="M23984 370.781L23688 370.781L23688 74.7812L23984 370.781Z" fill="#5BEF76"/>
<path d="M24047 666.781L24047 370.781L23751 370.781L24047 666.781Z" fill="#5BEF76"/>
<path d="M23751 666.781L23751 370.781L23455 370.781L23751 666.781Z" fill="#5BEF76"/>
<path d="M23455 666.781L23455 370.781L23159 370.781L23455 666.781Z" fill="#5BEF76"/>
<path d="M23159 666.781L23159 370.781L22863 370.781L23159 666.781Z" fill="#5BEF76"/>
<path d="M23096 370.781V666.781H23392L23096 370.781Z" fill="#006C23"/>
<path d="M23688 370.781V666.781H23984L23688 370.781Z" fill="#006C23"/>
<path d="M22800 370.781V666.781H23096L22800 370.781Z" fill="#006C23"/>
<path d="M23392 370.781V666.781H23688L23392 370.781Z" fill="#006C23"/>
<circle cx="39.5" cy="39.5" r="39.5" transform="matrix(-1 0 0 1 23579 309.781)" fill="#393A3D"/>
<circle cx="157.5" cy="157.5" r="157.5" transform="matrix(-1 0 0 1 23274 -142.219)" fill="#393A3D"/>
</g>
<g clip-path="url(#clip20_1_10067)">
<rect width="1200" height="675" transform="translate(24000 0.78125)" fill="#F4F4EF"/>
<rect x="24592" y="667.781" width="667" height="40.1333" transform="rotate(-90 24592 667.781)" fill="#A0CFFF"/>
<rect x="24672.3" y="667.781" width="667" height="40.1333" transform="rotate(-90 24672.3 667.781)" fill="#A0CFFF"/>
<rect x="24752.5" y="667.781" width="667" height="40.1333" transform="rotate(-90 24752.5 667.781)" fill="#A0CFFF"/>
<rect x="24832.8" y="667.781" width="667" height="40.1333" transform="rotate(-90 24832.8 667.781)" fill="#A0CFFF"/>
<rect x="24913.1" y="667.781" width="667" height="40.1333" transform="rotate(-90 24913.1 667.781)" fill="#A0CFFF"/>
<rect x="24993.3" y="667.781" width="667" height="40.1333" transform="rotate(-90 24993.3 667.781)" fill="#A0CFFF"/>
<rect x="25073.6" y="667.781" width="667" height="40.1333" transform="rotate(-90 25073.6 667.781)" fill="#A0CFFF"/>
<rect x="25153.9" y="667.781" width="667" height="40.1333" transform="rotate(-90 25153.9 667.781)" fill="#A0CFFF"/>
<rect x="24000" y="0.78125" width="597" height="666" fill="#A0CFFF"/>
<path d="M24907 333.781C24907 160.364 24766 19.7813 24592 19.7813C24418 19.7813 24277 160.364 24277 333.781L24907 333.781Z" fill="#006C23"/>
<path d="M24907 333.781C24907 507.751 24766 648.781 24592 648.781C24418 648.781 24277 507.751 24277 333.781L24907 333.781Z" fill="#5BEF76"/>
<path d="M24334.5 334.281C24334.5 476.218 24449.8 591.281 24592 591.281C24734.2 591.281 24849.5 476.218 24849.5 334.281L24334.5 334.281Z" fill="#006C23"/>
<path d="M24334.5 334.281C24334.5 192.344 24449.8 77.2813 24592 77.2812C24734.2 77.2812 24849.5 192.344 24849.5 334.281L24334.5 334.281Z" fill="#5BEF76"/>
<path d="M24786 334.781C24786 227.638 24699.1 140.781 24592 140.781C24484.9 140.781 24398 227.638 24398 334.781L24786 334.781Z" fill="#006C23"/>
<path d="M24786 334.781C24786 441.372 24699.1 527.781 24592 527.781C24484.9 527.781 24398 441.372 24398 334.781L24786 334.781Z" fill="#5BEF76"/>
<path d="M24592 469.781C24666.6 469.781 24727 409.116 24727 334.281C24727 259.447 24666.6 198.781 24592 198.781L24592 469.781Z" fill="#006C23"/>
<path d="M24592 469.781C24517.4 469.781 24457 409.116 24457 334.281C24457 259.447 24517.4 198.781 24592 198.781L24592 469.781Z" fill="#5BEF76"/>
<path d="M24494 334.781C24494 388.353 24537.9 431.781 24592 431.781C24646.1 431.781 24690 388.353 24690 334.781L24494 334.781Z" fill="#006C23"/>
<path d="M24494 334.781C24494 280.657 24537.9 236.781 24592 236.781C24646.1 236.781 24690 280.657 24690 334.781L24494 334.781Z" fill="#5BEF76"/>
<path d="M24592 264.781C24553.9 264.781 24523 295.897 24523 334.281C24523 372.665 24553.9 403.781 24592 403.781L24592 264.781Z" fill="#006C23"/>
<path d="M24592 264.781C24630.1 264.781 24661 295.897 24661 334.281C24661 372.665 24630.1 403.781 24592 403.781L24592 264.781Z" fill="#5BEF76"/>
<path d="M24642 334.781C24642 307.167 24619.6 284.781 24592 284.781C24564.4 284.781 24542 307.167 24542 334.781L24642 334.781Z" fill="#006C23"/>
<path d="M24642 334.781C24642 361.843 24619.6 383.781 24592 383.781C24564.4 383.781 24542 361.843 24542 334.781L24642 334.781Z" fill="#5BEF76"/>
<path d="M24592 363.781C24608 363.781 24621 350.574 24621 334.281C24621 317.989 24608 304.781 24592 304.781L24592 363.781Z" fill="#006C23"/>
<path d="M24592 363.781C24576 363.781 24563 350.574 24563 334.281C24563 317.989 24576 304.781 24592 304.781L24592 363.781Z" fill="#5BEF76"/>
<path d="M24517 0.78125C24517 42.7549 24550.8 76.7813 24592.5 76.7813C24634.2 76.7813 24668 42.7549 24668 0.78125L24517 0.78125Z" fill="#393A3D"/>
<path d="M24517 667.781C24517 625.808 24550.8 591.781 24592.5 591.781C24634.2 591.781 24668 625.808 24668 667.781L24517 667.781Z" fill="#393A3D"/>
<circle cx="24261" cy="334.781" r="50" fill="#393A3D"/>
<circle cx="24923" cy="334.781" r="50" fill="#393A3D"/>
<circle cx="24078" cy="334.781" r="18" fill="#393A3D"/>
<circle cx="25106" cy="334.781" r="18" fill="#393A3D"/>
<circle cx="24592" cy="334.781" r="10" fill="#393A3D"/>
</g>
<defs>
<clipPath id="clip0_1_10067">
<rect width="1200" height="675" fill="white" transform="translate(0 0.78125)"/>
</clipPath>
<clipPath id="clip1_1_10067">
<rect width="1200" height="675" fill="white" transform="translate(1200 0.78125)"/>
</clipPath>
<clipPath id="clip2_1_10067">
<rect width="1200" height="675" fill="white" transform="translate(2400 0.78125)"/>
</clipPath>
<clipPath id="clip3_1_10067">
<rect width="1200" height="675" fill="white" transform="translate(3600 0.78125)"/>
</clipPath>
<clipPath id="clip4_1_10067">
<rect width="1200" height="675" fill="white" transform="translate(4800 0.78125)"/>
</clipPath>
<clipPath id="clip5_1_10067">
<rect width="1200" height="675" fill="white" transform="translate(6000 0.78125)"/>
</clipPath>
<clipPath id="clip6_1_10067">
<rect width="1200" height="675" fill="white" transform="translate(7200 0.78125)"/>
</clipPath>
<clipPath id="clip7_1_10067">
<rect width="1200" height="675" fill="white" transform="translate(8400 0.78125)"/>
</clipPath>
<clipPath id="clip8_1_10067">
<rect width="1200" height="675" fill="white" transform="translate(9600 0.78125)"/>
</clipPath>
<clipPath id="clip9_1_10067">
<rect width="1200" height="675" fill="white" transform="translate(10800 0.78125)"/>
</clipPath>
<clipPath id="clip10_1_10067">
<rect width="1200" height="675" fill="white" transform="translate(12000 0.78125)"/>
</clipPath>
<clipPath id="clip11_1_10067">
<rect width="1200" height="675" fill="white" transform="translate(13200 0.78125)"/>
</clipPath>
<clipPath id="clip12_1_10067">
<rect width="1200" height="675" fill="white" transform="translate(14400 0.78125)"/>
</clipPath>
<clipPath id="clip13_1_10067">
<rect width="1200" height="675" fill="white" transform="translate(15600 0.78125)"/>
</clipPath>
<clipPath id="clip14_1_10067">
<rect width="1200" height="675" fill="white" transform="translate(16800 0.78125)"/>
</clipPath>
<clipPath id="clip15_1_10067">
<rect width="1200" height="675" fill="white" transform="translate(18000 0.78125)"/>
</clipPath>
<clipPath id="clip16_1_10067">
<rect width="1200" height="675" fill="white" transform="translate(19200 0.78125)"/>
</clipPath>
<clipPath id="clip17_1_10067">
<rect width="1200" height="675" fill="white" transform="translate(20400 0.78125)"/>
</clipPath>
<clipPath id="clip18_1_10067">
<rect width="1200" height="675" fill="white" transform="translate(21600 0.78125)"/>
</clipPath>
<clipPath id="clip19_1_10067">
<rect width="1200" height="675" fill="white" transform="translate(22800 0.78125)"/>
</clipPath>
<clipPath id="clip20_1_10067">
<rect width="1200" height="675" fill="white" transform="translate(24000 0.78125)"/>
</clipPath>
</defs>
</svg>
