<svg width="18944" height="667" viewBox="0 0 18944 667" fill="none" xmlns="http://www.w3.org/2000/svg">
<g clip-path="url(#clip0_1_10884)">
<rect width="1184" height="666" transform="translate(0 0.78125)" fill="#BEE3E7"/>
<path d="M107 -151.219C107 116.639 324.142 333.781 592 333.781C859.858 333.781 1077 116.639 1077 -151.219H107Z" fill="#38E8F6"/>
<path d="M1077 818.781C1077 550.923 859.858 333.781 592 333.781C324.142 333.781 107 550.923 107 818.781L1077 818.781Z" fill="#006771"/>
</g>
<g clip-path="url(#clip1_1_10884)">
<rect width="1184" height="666" transform="translate(1184 0.78125)" fill="#F4F4EF"/>
<rect x="1184" y="493.781" width="1184" height="173" fill="#BEE3E7"/>
<path d="M2151 494.781C2151 290.436 1985.57 124.781 1781.5 124.781C1577.43 124.781 1412 290.436 1412 494.781L2151 494.781Z" fill="#006771"/>
<path d="M1730 360.781C1730 401.098 1762.68 433.781 1803 433.781C1843.32 433.781 1876 401.098 1876 360.781C1876 320.464 1843.32 287.781 1803 287.781C1762.68 287.781 1730 320.464 1730 360.781Z" fill="#38E8F6"/>
<path d="M1622 249.281C1622 269.44 1638.34 285.781 1658.5 285.781C1678.66 285.781 1695 269.44 1695 249.281C1695 229.123 1678.66 212.781 1658.5 212.781C1638.34 212.781 1622 229.123 1622 249.281Z" fill="#38E8F6"/>
<rect x="1515" y="360.781" width="144" height="84" fill="#F4F4EF"/>
<path d="M2044.17 451.656C2084.66 422.797 2094.1 366.573 2065.24 326.077C2036.38 285.581 1980.16 276.147 1939.66 305.007L1960.15 333.761C1984.77 316.219 2018.94 321.953 2036.48 346.569C2054.03 371.184 2048.29 405.359 2023.68 422.901L2044.17 451.656Z" fill="#F4F4EF"/>
<path fill-rule="evenodd" clip-rule="evenodd" d="M1864 252.781C1882.78 252.781 1898 237.559 1898 218.781C1898 200.004 1882.78 184.781 1864 184.781C1845.22 184.781 1830 200.004 1830 218.781C1830 237.559 1845.22 252.781 1864 252.781ZM1864 239.448C1875.41 239.448 1884.67 230.195 1884.67 218.781C1884.67 207.367 1875.41 198.115 1864 198.115C1852.59 198.115 1843.33 207.367 1843.33 218.781C1843.33 230.195 1852.59 239.448 1864 239.448Z" fill="#006771"/>
</g>
<rect width="1184" height="666" transform="translate(2368 0.78125)" fill="#BEE3E7"/>
<rect x="2751" y="124.781" width="418.454" height="418.454" fill="#F4F4EF"/>
<path fill-rule="evenodd" clip-rule="evenodd" d="M2894.4 234.442C2887.69 226.453 2887.69 217.898 2894.4 209.903L2875.9 207.781C2868.03 217.158 2868.03 227.192 2875.9 236.564C2875.9 236.564 2875.9 236.564 2875.9 236.564C2875.9 236.564 2875.9 236.565 2875.9 236.565L2884.6 246.939C2891.31 254.934 2891.31 263.489 2884.6 271.478L2884.6 271.479L2875.9 281.853C2875.9 281.854 2875.9 281.853 2875.9 281.853C2868.03 291.23 2868.03 301.265 2875.9 310.636C2875.9 310.636 2875.9 310.637 2875.9 310.637L2884.6 321.011C2891.31 329.006 2891.31 337.561 2884.6 345.55L2884.6 345.551L2875.9 355.926C2875.9 355.926 2875.9 355.925 2875.9 355.926C2868.03 365.302 2868.03 375.337 2875.9 384.708C2875.9 384.708 2875.9 384.709 2875.9 384.709L2884.6 395.083C2891.31 403.078 2891.31 411.634 2884.6 419.622L2884.6 419.623L2875.9 429.998C2875.9 429.998 2875.9 429.998 2875.9 429.998C2868.03 439.374 2868.03 449.409 2875.9 458.781L2894.4 456.658C2887.69 448.67 2887.69 440.115 2894.4 432.119L2903.1 421.745C2903.1 421.745 2903.1 421.745 2903.1 421.744C2910.97 412.373 2910.97 402.338 2903.1 392.962L2894.4 382.587L2894.4 382.586C2887.69 374.597 2887.69 366.043 2894.4 358.047L2903.1 347.673C2903.1 347.673 2903.1 347.672 2903.1 347.672C2910.97 338.301 2910.97 328.266 2903.1 318.89C2903.1 318.89 2903.1 318.89 2903.1 318.89L2894.4 308.514C2887.69 300.525 2887.69 291.97 2894.4 283.975L2903.1 273.601C2903.1 273.601 2903.1 273.6 2903.1 273.6C2910.97 264.228 2910.97 254.194 2903.1 244.818C2903.1 244.818 2903.1 244.818 2903.1 244.818L2894.4 234.442Z" fill="#38E8F6"/>
<path fill-rule="evenodd" clip-rule="evenodd" d="M2929.4 234.442C2922.69 226.453 2922.69 217.898 2929.4 209.903L2910.9 207.781C2903.03 217.158 2903.03 227.192 2910.9 236.564C2910.9 236.564 2910.9 236.564 2910.9 236.564C2910.9 236.564 2910.9 236.565 2910.9 236.565L2919.6 246.939C2926.31 254.934 2926.31 263.489 2919.6 271.478L2919.6 271.479L2910.9 281.853C2910.9 281.854 2910.9 281.853 2910.9 281.853C2903.03 291.23 2903.03 301.265 2910.9 310.636C2910.9 310.636 2910.9 310.637 2910.9 310.637L2919.6 321.011C2926.31 329.006 2926.31 337.561 2919.6 345.55L2919.6 345.551L2910.9 355.926C2910.9 355.926 2910.9 355.925 2910.9 355.926C2903.03 365.302 2903.03 375.337 2910.9 384.708C2910.9 384.708 2910.9 384.709 2910.9 384.709L2919.6 395.083C2926.31 403.078 2926.31 411.634 2919.6 419.622L2919.6 419.623L2910.9 429.998C2910.9 429.998 2910.9 429.998 2910.9 429.998C2903.03 439.374 2903.03 449.409 2910.9 458.781L2929.4 456.658C2922.69 448.67 2922.69 440.115 2929.4 432.119L2938.1 421.745C2938.1 421.745 2938.1 421.745 2938.1 421.744C2945.97 412.373 2945.97 402.338 2938.1 392.962L2929.4 382.587L2929.4 382.586C2922.69 374.597 2922.69 366.043 2929.4 358.047L2938.1 347.673C2938.1 347.673 2938.1 347.672 2938.1 347.672C2945.97 338.301 2945.97 328.266 2938.1 318.89C2938.1 318.89 2938.1 318.89 2938.1 318.89L2929.4 308.514C2922.69 300.525 2922.69 291.97 2929.4 283.975L2938.1 273.601C2938.1 273.601 2938.1 273.6 2938.1 273.6C2945.97 264.228 2945.97 254.194 2938.1 244.818C2938.1 244.818 2938.1 244.818 2938.1 244.818L2929.4 234.442Z" fill="#38E8F6"/>
<path fill-rule="evenodd" clip-rule="evenodd" d="M2964.4 234.442C2957.69 226.453 2957.69 217.898 2964.4 209.903L2945.9 207.781C2938.03 217.158 2938.03 227.192 2945.9 236.564C2945.9 236.564 2945.9 236.564 2945.9 236.564C2945.9 236.564 2945.9 236.565 2945.9 236.565L2954.6 246.939C2961.31 254.934 2961.31 263.489 2954.6 271.478L2954.6 271.479L2945.9 281.853C2945.9 281.854 2945.9 281.853 2945.9 281.853C2938.03 291.23 2938.03 301.265 2945.9 310.636C2945.9 310.636 2945.9 310.637 2945.9 310.637L2954.6 321.011C2961.31 329.006 2961.31 337.561 2954.6 345.55L2954.6 345.551L2945.9 355.926C2945.9 355.926 2945.9 355.925 2945.9 355.926C2938.03 365.302 2938.03 375.337 2945.9 384.708C2945.9 384.708 2945.9 384.709 2945.9 384.709L2954.6 395.083C2961.31 403.078 2961.31 411.634 2954.6 419.622L2954.6 419.623L2945.9 429.998C2945.9 429.998 2945.9 429.998 2945.9 429.998C2938.03 439.374 2938.03 449.409 2945.9 458.781L2964.4 456.658C2957.69 448.67 2957.69 440.115 2964.4 432.119L2973.1 421.745C2973.1 421.745 2973.1 421.745 2973.1 421.744C2980.97 412.373 2980.97 402.338 2973.1 392.962L2964.4 382.587L2964.4 382.586C2957.69 374.597 2957.69 366.043 2964.4 358.047L2973.1 347.673C2973.1 347.673 2973.1 347.672 2973.1 347.672C2980.97 338.301 2980.97 328.266 2973.1 318.89C2973.1 318.89 2973.1 318.89 2973.1 318.89L2964.4 308.514C2957.69 300.525 2957.69 291.97 2964.4 283.975L2973.1 273.601C2973.1 273.601 2973.1 273.6 2973.1 273.6C2980.97 264.228 2980.97 254.194 2973.1 244.818C2973.1 244.818 2973.1 244.818 2973.1 244.818L2964.4 234.442Z" fill="#393A3D"/>
<path fill-rule="evenodd" clip-rule="evenodd" d="M2999.4 234.442C2992.69 226.453 2992.69 217.898 2999.4 209.903L2980.9 207.781C2973.03 217.158 2973.03 227.192 2980.9 236.564C2980.9 236.564 2980.9 236.564 2980.9 236.564C2980.9 236.564 2980.9 236.565 2980.9 236.565L2989.6 246.939C2996.31 254.934 2996.31 263.489 2989.6 271.478L2989.6 271.479L2980.9 281.853C2980.9 281.854 2980.9 281.853 2980.9 281.853C2973.03 291.23 2973.03 301.265 2980.9 310.636C2980.9 310.636 2980.9 310.637 2980.9 310.637L2989.6 321.011C2996.31 329.006 2996.31 337.561 2989.6 345.55L2989.6 345.551L2980.9 355.926C2980.9 355.926 2980.9 355.925 2980.9 355.926C2973.03 365.302 2973.03 375.337 2980.9 384.708C2980.9 384.708 2980.9 384.709 2980.9 384.709L2989.6 395.083C2996.31 403.078 2996.31 411.634 2989.6 419.622L2989.6 419.623L2980.9 429.998C2980.9 429.998 2980.9 429.998 2980.9 429.998C2973.03 439.374 2973.03 449.409 2980.9 458.781L2999.4 456.658C2992.69 448.67 2992.69 440.115 2999.4 432.119L3008.1 421.745C3008.1 421.745 3008.1 421.745 3008.1 421.744C3015.97 412.373 3015.97 402.338 3008.1 392.962L2999.4 382.587L2999.4 382.586C2992.69 374.597 2992.69 366.043 2999.4 358.047L3008.1 347.673C3008.1 347.673 3008.1 347.672 3008.1 347.672C3015.97 338.301 3015.97 328.266 3008.1 318.89C3008.1 318.89 3008.1 318.89 3008.1 318.89L2999.4 308.514C2992.69 300.525 2992.69 291.97 2999.4 283.975L3008.1 273.601C3008.1 273.601 3008.1 273.6 3008.1 273.6C3015.97 264.228 3015.97 254.194 3008.1 244.818C3008.1 244.818 3008.1 244.818 3008.1 244.818L2999.4 234.442Z" fill="#38E8F6"/>
<path fill-rule="evenodd" clip-rule="evenodd" d="M3034.4 234.442C3027.69 226.453 3027.69 217.898 3034.4 209.903L3015.9 207.781C3008.03 217.158 3008.03 227.192 3015.9 236.564C3015.9 236.564 3015.9 236.564 3015.9 236.564C3015.9 236.564 3015.9 236.565 3015.9 236.565L3024.6 246.939C3031.31 254.934 3031.31 263.489 3024.6 271.478L3024.6 271.479L3015.9 281.853C3015.9 281.854 3015.9 281.853 3015.9 281.853C3008.03 291.23 3008.03 301.265 3015.9 310.636C3015.9 310.636 3015.9 310.637 3015.9 310.637L3024.6 321.011C3031.31 329.006 3031.31 337.561 3024.6 345.55L3024.6 345.551L3015.9 355.926C3015.9 355.926 3015.9 355.925 3015.9 355.926C3008.03 365.302 3008.03 375.337 3015.9 384.708C3015.9 384.708 3015.9 384.709 3015.9 384.709L3024.6 395.083C3031.31 403.078 3031.31 411.634 3024.6 419.622L3024.6 419.623L3015.9 429.998C3015.9 429.998 3015.9 429.998 3015.9 429.998C3008.03 439.374 3008.03 449.409 3015.9 458.781L3034.4 456.658C3027.69 448.67 3027.69 440.115 3034.4 432.119L3043.1 421.745C3043.1 421.745 3043.1 421.745 3043.1 421.744C3050.97 412.373 3050.97 402.338 3043.1 392.962L3034.4 382.587L3034.4 382.586C3027.69 374.597 3027.69 366.043 3034.4 358.047L3043.1 347.673C3043.1 347.673 3043.1 347.672 3043.1 347.672C3050.97 338.301 3050.97 328.266 3043.1 318.89C3043.1 318.89 3043.1 318.89 3043.1 318.89L3034.4 308.514C3027.69 300.525 3027.69 291.97 3034.4 283.975L3043.1 273.601C3043.1 273.601 3043.1 273.6 3043.1 273.6C3050.97 264.228 3050.97 254.194 3043.1 244.818C3043.1 244.818 3043.1 244.818 3043.1 244.818L3034.4 234.442Z" fill="#38E8F6"/>
<g clip-path="url(#clip2_1_10884)">
<rect width="1184" height="666" transform="translate(3552 0.78125)" fill="#F4F4EF"/>
<ellipse cx="4613" cy="115.281" rx="178" ry="177.5" fill="#F4F4EF"/>
<circle cx="4331" cy="72.7812" r="105" fill="#393A3D"/>
<circle cx="4056.5" cy="77.2812" r="34.5" fill="#393A3D"/>
<circle cx="4401.5" cy="245.281" r="34.5" fill="#393A3D"/>
<ellipse cx="4091" cy="398.281" rx="35" ry="34.5" fill="#F4F4EF"/>
<circle cx="4158" cy="192.781" r="105" fill="#F4F4EF"/>
<circle cx="3949" cy="185.781" r="105" fill="#F4F4EF"/>
<circle cx="3821" cy="19.7812" r="105" fill="#F4F4EF"/>
<rect x="3790" y="-43.2188" width="62" height="125" fill="#006771"/>
<g clip-path="url(#clip3_1_10884)">
<rect width="1184" height="491" transform="translate(3552 0.78125)" fill="#BEE3E7"/>
<ellipse cx="4613" cy="115.281" rx="178" ry="177.5" fill="#F4F4EF"/>
<circle cx="4331" cy="72.7812" r="105" fill="#393A3D"/>
<circle cx="4056.5" cy="77.2812" r="34.5" fill="#393A3D"/>
<circle cx="4401.5" cy="245.281" r="34.5" fill="#393A3D"/>
<ellipse cx="4091" cy="398.281" rx="35" ry="34.5" fill="#F4F4EF"/>
<circle cx="4158" cy="192.781" r="105" fill="#F4F4EF"/>
<circle cx="3949" cy="185.781" r="105" fill="#F4F4EF"/>
<circle cx="3821" cy="19.7812" r="105" fill="#F4F4EF"/>
<rect x="3790" y="-43.2188" width="62" height="125" fill="#006771"/>
</g>
<rect x="4557.91" y="60.1211" width="114" height="115" fill="#38E8F6"/>
<rect x="3893" y="188.008" width="81.4461" height="81.4461" transform="rotate(-45 3893 188.008)" fill="#38E8F6"/>
<rect x="4286.23" y="79.7812" width="65.0539" height="65.0539" transform="rotate(-45 4286.23 79.7812)" fill="#F4F4EF"/>
<path fill-rule="evenodd" clip-rule="evenodd" d="M4159.91 245.121C4132.3 245.121 4109.91 222.735 4109.91 195.121C4109.91 167.507 4132.3 145.121 4159.91 145.121C4187.52 145.121 4209.91 167.507 4209.91 195.121C4209.91 222.735 4187.52 245.121 4159.91 245.121ZM4159.91 236.298C4137.17 236.298 4118.73 217.862 4118.73 195.121C4118.73 172.38 4137.17 153.945 4159.91 153.945C4182.65 153.945 4201.09 172.38 4201.09 195.121C4201.09 217.862 4182.65 236.298 4159.91 236.298Z" fill="#006771"/>
</g>
<g clip-path="url(#clip4_1_10884)">
<rect width="1184" height="666" transform="translate(4736 0.78125)" fill="#F4F4EF"/>
<rect x="5210" y="0.78125" width="710" height="666" fill="#BEE3E7"/>
<path fill-rule="evenodd" clip-rule="evenodd" d="M4855.55 583.783C4993.38 583.783 5105.11 472.054 5105.11 334.229C5105.11 196.405 4993.38 84.6758 4855.55 84.6758C4717.73 84.6758 4606 196.405 4606 334.229C4606 472.054 4717.73 583.783 4855.55 583.783ZM4855.55 485.918C4939.33 485.918 5007.24 418.005 5007.24 334.229C5007.24 250.453 4939.33 182.54 4855.55 182.54C4771.78 182.54 4703.86 250.453 4703.86 334.229C4703.86 418.005 4771.78 485.918 4855.55 485.918Z" fill="#38E8F6"/>
<circle cx="5577.55" cy="333.335" r="249.553" fill="#006771"/>
</g>
<g clip-path="url(#clip5_1_10884)">
<rect width="1184" height="666" transform="translate(5920 0.78125)" fill="#F4F4EF"/>
<rect x="5920" y="0.78125" width="443" height="666" fill="#BEE3E7"/>
<circle cx="6365" cy="316.781" r="176.5" fill="#006771" stroke="#393A3D"/>
<circle cx="6365" cy="141.781" r="73" fill="#38E8F6"/>
<circle cx="6365" cy="492.781" r="73" fill="#38E8F6"/>
<circle cx="6540" cy="314.781" r="73" fill="#38E8F6"/>
<circle cx="6189" cy="314.781" r="73" fill="#38E8F6"/>
<circle cx="6668.9" cy="314.678" r="23.8972" fill="#38E8F6"/>
<circle cx="6743.24" cy="314.678" r="23.8972" fill="#38E8F6"/>
<circle cx="6817.59" cy="314.678" r="23.8972" fill="#38E8F6"/>
<circle cx="6891.94" cy="314.678" r="23.8972" fill="#38E8F6"/>
<circle cx="6966.28" cy="314.678" r="23.8972" fill="#38E8F6"/>
<circle cx="7040.63" cy="314.678" r="23.8972" fill="#393A3D"/>
</g>
<g clip-path="url(#clip6_1_10884)">
<rect width="1184" height="666" transform="translate(7104 0.78125)" fill="#BEE3E7"/>
<rect x="7771" y="0.78125" width="517" height="666" fill="#F4F4EF"/>
<rect x="7106.14" y="0.78125" width="221.618" height="221.618" fill="#38E8F6"/>
<rect x="7327.76" y="222.398" width="221.618" height="221.618" fill="#006771"/>
<rect x="8177" y="277.781" width="111" height="111" fill="#393A3D"/>
<rect x="8122" y="388.781" width="55" height="55" fill="#006771"/>
<rect x="8122" y="222.781" width="55" height="55" fill="#006771"/>
<rect x="7549.38" y="0.78125" width="221.618" height="221.618" fill="#38E8F6"/>
<rect x="7549.38" y="444.016" width="221.618" height="221.618" fill="#38E8F6"/>
</g>
<g clip-path="url(#clip7_1_10884)">
<rect width="1184" height="666" transform="translate(8288 0.78125)" fill="#BEE3E7"/>
<rect x="8288" y="0.78125" width="586" height="679" fill="#F4F4EF"/>
<rect x="9375" y="277.781" width="93" height="419" transform="rotate(-180 9375 277.781)" fill="#393A3D"/>
<rect x="9078" y="277.781" width="204" height="91" transform="rotate(-180 9078 277.781)" fill="#393A3D"/>
<rect x="8744" y="244.781" width="347" height="58" transform="rotate(-180 8744 244.781)" fill="#393A3D"/>
<rect x="8397" y="375.781" width="347" height="131" transform="rotate(-180 8397 375.781)" fill="#006771"/>
<rect x="8744" y="375.781" width="178" height="98" transform="rotate(-180 8744 375.781)" fill="#38E8F6"/>
<rect x="8566" y="686.781" width="169" height="311" transform="rotate(-180 8566 686.781)" fill="#38E8F6"/>
<rect x="8874" y="186.781" width="130" height="203" transform="rotate(-180 8874 186.781)" fill="#38E8F6"/>
<rect x="9078" y="512.781" width="204" height="137" transform="rotate(-180 9078 512.781)" fill="#393A3D"/>
<rect x="9282" y="375.781" width="204" height="98" transform="rotate(-180 9282 375.781)" fill="#38E8F6"/>
<rect x="9282" y="610.781" width="204" height="98" transform="rotate(-180 9282 610.781)" fill="#006771"/>
</g>
<rect width="1184" height="666" transform="translate(9472 0.78125)" fill="#BEE3E7"/>
<rect x="9633.5" y="390.609" width="249.14" height="249.14" transform="rotate(-74.715 9633.5 390.609)" fill="#38E8F6"/>
<circle cx="10321.5" cy="264.281" r="81.5" fill="#38E8F6"/>
<circle cx="10119" cy="391.781" r="163" fill="#393A3D"/>
<circle cx="10021.5" cy="169.281" r="81.5" fill="#006771"/>
<circle cx="10331.5" cy="264.281" r="81.5" fill="#38E8F6"/>
<circle cx="9923" cy="498.781" r="59" fill="#006771"/>
<g clip-path="url(#clip8_1_10884)">
<rect width="1184" height="666" transform="translate(10656 0.78125)" fill="#F4F4EF"/>
<rect x="10656" y="0.78125" width="569" height="679" fill="#BEE3E7"/>
<circle cx="10830" cy="576.781" r="258" fill="#38E8F6"/>
<circle cx="11166" cy="309.781" r="96" fill="#38E8F6"/>
<circle cx="11443" cy="603.781" r="96" fill="#38E8F6"/>
<circle cx="11696" cy="333.781" r="42" fill="#393A3D"/>
<circle cx="44" cy="44" r="44" transform="matrix(1 0 0 -1 10786 213.781)" fill="#006771"/>
<path fill-rule="evenodd" clip-rule="evenodd" d="M11216 699.781C11290.6 699.781 11351 639.34 11351 564.781C11351 490.223 11290.6 429.781 11216 429.781C11141.4 429.781 11081 490.223 11081 564.781C11081 639.34 11141.4 699.781 11216 699.781ZM11216 646.84C11261.3 646.84 11298.1 610.101 11298.1 564.781C11298.1 519.461 11261.3 482.722 11216 482.722C11170.7 482.722 11133.9 519.461 11133.9 564.781C11133.9 610.101 11170.7 646.84 11216 646.84Z" fill="#006771"/>
</g>
<g clip-path="url(#clip9_1_10884)">
<rect width="1184" height="666" transform="translate(11840 0.78125)" fill="#F4F4EF"/>
<rect x="11840" y="333.781" width="1184" height="333" fill="#BEE3E7"/>
<path d="M12297 221.944C12297 296.555 12297 371.155 12297 445.766C12297.2 468.479 12289.5 491.341 12274.8 510.312C12258.9 530.878 12235.5 547.049 12208.4 555.577C12171 567.49 12127.9 564.528 12093.5 547.439C12066.7 534.321 12045.5 513.365 12034.4 488.77C12026.9 472.759 12024.7 455.992 12025 438.868C12025.1 369.238 12025.1 299.62 12025 229.989C12024.9 222.3 12025.1 214.656 12026.3 207.013C12031.1 168.428 12060.4 133.503 12101.3 116.621C12139.9 100.209 12187.1 100.909 12225 118.411C12245.7 127.742 12263.4 141.973 12276 158.776C12289.9 177.54 12297.3 199.736 12297 221.944Z" fill="#393A3D"/>
<path d="M12567 221.944C12567 296.555 12567 371.155 12567 445.766C12567.2 468.479 12559.6 491.341 12545 510.312C12529.2 530.878 12505.9 547.049 12479 555.577C12442 567.49 12399.2 564.528 12365 547.439C12338.3 534.321 12317.4 513.365 12306.3 488.77C12298.9 472.759 12296.7 455.992 12297 438.868C12297.1 369.238 12297.1 299.62 12297 229.989C12296.9 222.3 12297.1 214.656 12298.2 207.013C12303 168.428 12332.2 133.503 12372.7 116.621C12411 100.209 12457.9 100.909 12495.5 118.411C12516.1 127.742 12533.6 141.973 12546.1 158.776C12559.9 177.54 12567.3 199.736 12567 221.944Z" fill="#006771"/>
<path d="M12839 221.944C12839 296.555 12839 371.155 12839 445.766C12839.2 468.479 12831.5 491.341 12816.8 510.312C12800.9 530.878 12777.5 547.049 12750.4 555.577C12713 567.49 12669.9 564.528 12635.5 547.439C12608.7 534.321 12587.5 513.365 12576.4 488.77C12568.9 472.759 12566.7 455.992 12567 438.868C12567.1 369.238 12567.1 299.62 12567 229.989C12566.9 222.3 12567.1 214.656 12568.3 207.013C12573.1 168.428 12602.4 133.503 12643.3 116.621C12681.9 100.209 12729.1 100.909 12767 118.411C12787.7 127.742 12805.4 141.973 12818 158.776C12831.9 177.54 12839.3 199.736 12839 221.944Z" fill="#38E8F6"/>
</g>
<rect width="1184" height="666" transform="translate(13024 0.78125)" fill="#BEE3E7"/>
<circle cx="13615.6" cy="333.335" r="249.553" fill="#F4F4EF"/>
<circle cx="13247.5" cy="152.281" r="68.5" fill="#006771"/>
<circle cx="13912" cy="535.781" r="47" fill="#006771"/>
<rect x="13929" y="316.453" width="204" height="98" transform="rotate(-120 13929 316.453)" fill="#F4F4EF"/>
<rect width="73.1871" height="73.1871" transform="matrix(0.263621 -0.964626 -0.964626 -0.263621 13315.6 431.672)" fill="#38E8F6"/>
<rect width="73.1871" height="73.1871" transform="matrix(0.263621 -0.964626 -0.964626 -0.263621 14013.6 431.672)" fill="#38E8F6"/>
<rect width="70.9134" height="9.26602" transform="matrix(-1 0 0 1 13775.9 264.781)" fill="#BABEC5"/>
<rect width="70.9134" height="9.26602" transform="matrix(-1 0 0 1 13775.9 283.312)" fill="#BABEC5"/>
<rect width="70.9134" height="9.26602" transform="matrix(-1 0 0 1 13775.9 301.844)" fill="#BABEC5"/>
<rect width="70.9134" height="9.26602" transform="matrix(-1 0 0 1 13775.9 320.379)" fill="#BABEC5"/>
<rect width="70.9134" height="9.26602" transform="matrix(-1 0 0 1 13775.9 338.91)" fill="#BABEC5"/>
<rect width="70.9134" height="9.26602" transform="matrix(-1 0 0 1 13775.9 357.441)" fill="#BABEC5"/>
<rect width="70.9134" height="9.26602" transform="matrix(-1 0 0 1 13775.9 375.973)" fill="#BABEC5"/>
<rect width="70.9134" height="9.26602" transform="matrix(-1 0 0 1 13775.9 394.504)" fill="#BABEC5"/>
<g clip-path="url(#clip10_1_10884)">
<rect width="1184" height="666" transform="translate(14208 0.78125)" fill="#F4F4EF"/>
<rect x="14208" y="0.78125" width="590" height="679" fill="#BEE3E7"/>
<rect x="14591" y="124.781" width="418.454" height="418.454" fill="#006771"/>
<path fill-rule="evenodd" clip-rule="evenodd" d="M14799.5 429.781C14852.8 429.781 14896 386.577 14896 333.281C14896 279.986 14852.8 236.781 14799.5 236.781C14746.2 236.781 14703 279.986 14703 333.281C14703 386.577 14746.2 429.781 14799.5 429.781ZM14799.5 391.938C14831.9 391.938 14858.2 365.677 14858.2 333.281C14858.2 300.886 14831.9 274.624 14799.5 274.624C14767.1 274.624 14740.8 300.886 14740.8 333.281C14740.8 365.677 14767.1 391.938 14799.5 391.938Z" fill="#38E8F6"/>
</g>
<g clip-path="url(#clip11_1_10884)">
<rect width="1184" height="666" transform="translate(15392 0.78125)" fill="#BEE3E7"/>
<rect x="15392" y="0.78125" width="590" height="679" fill="#F4F4EF"/>
<circle cx="15576" cy="151.781" r="69" fill="#393A3D"/>
<circle cx="15576" cy="333.781" r="69" fill="#006771"/>
<circle cx="15780" cy="515.781" r="69" fill="#393A3D"/>
<circle cx="15780" cy="333.781" r="69" fill="#006771"/>
<circle cx="15984" cy="515.781" r="69" fill="#393A3D"/>
<circle cx="15984" cy="333.781" r="69" fill="#006771"/>
<circle cx="16188" cy="333.781" r="69" fill="#006771"/>
<circle cx="16392" cy="333.781" r="69" fill="#006771"/>
<circle cx="16188" cy="515.781" r="69" fill="#393A3D"/>
<circle cx="16392" cy="515.781" r="69" fill="#393A3D"/>
<circle cx="15780" cy="151.781" r="69" fill="#393A3D"/>
<circle cx="15984" cy="151.781" r="69" fill="#393A3D"/>
<circle cx="16188" cy="151.781" r="69" fill="#38E8F6"/>
<circle cx="16392" cy="151.781" r="69" fill="#393A3D"/>
<path d="M15523 568.176C15552.1 597.28 15599.3 597.28 15628.4 568.176C15657.5 539.072 15657.5 491.885 15628.4 462.781L15523 568.176Z" fill="#38E8F6"/>
</g>
<g clip-path="url(#clip12_1_10884)">
<rect width="1184" height="666" transform="translate(16576 0.78125)" fill="#F4F4EF"/>
<rect x="16576" y="333.781" width="1184" height="333" fill="#BEE3E7"/>
<circle cx="16747.1" cy="333.922" r="54.1408" fill="#006771"/>
<circle cx="16915.6" cy="333.922" r="54.1408" fill="#38E8F6"/>
<circle cx="17084" cy="333.922" r="54.1408" fill="#006771"/>
<circle cx="17252.5" cy="333.922" r="54.1408" fill="#006771"/>
<circle cx="17420.9" cy="333.922" r="54.1408" fill="#38E8F6"/>
<circle cx="17589.3" cy="333.922" r="54.1408" fill="#006771"/>
<path d="M16994.4 0.78125C16994.4 96.5367 17072 174.162 17167.8 174.162C17263.5 174.162 17341.1 96.5367 17341.1 0.78125H17273.1C17273.1 58.9856 17226 106.169 17167.8 106.169C17109.6 106.169 17062.4 58.9856 17062.4 0.78125H16994.4Z" fill="#006771"/>
<path d="M17341.8 667.164C17341.8 571.409 17264.1 493.783 17168.4 493.783C17072.6 493.783 16995 571.409 16995 667.164L17063 667.164C17063 608.96 17110.2 561.776 17168.4 561.776C17226.6 561.776 17273.8 608.96 17273.8 667.164L17341.8 667.164Z" fill="#393A3D"/>
</g>
<g clip-path="url(#clip13_1_10884)">
<rect width="1184" height="666" transform="translate(17760 0.78125)" fill="#BEE3E7"/>
<ellipse cx="18821" cy="115.281" rx="178" ry="177.5" fill="#F4F4EF"/>
<circle cx="18539" cy="72.7812" r="105" fill="#393A3D"/>
<circle cx="18264.5" cy="77.2812" r="34.5" fill="#393A3D"/>
<circle cx="18609.5" cy="245.281" r="34.5" fill="#393A3D"/>
<ellipse cx="18299" cy="398.281" rx="35" ry="34.5" fill="#F4F4EF"/>
<circle cx="18366" cy="192.781" r="105" fill="#F4F4EF"/>
<circle cx="18157" cy="185.781" r="105" fill="#F4F4EF"/>
<circle cx="18029" cy="19.7812" r="105" fill="#F4F4EF"/>
<rect x="17998" y="-43.2188" width="62" height="125" fill="#006771"/>
<rect x="18764" y="57.7812" width="114" height="115" fill="#F4F4EF"/>
<rect x="18099" y="185.664" width="81.4461" height="81.4461" transform="rotate(-45 18099 185.664)" fill="#38E8F6"/>
<rect x="18491.3" y="362.441" width="65.0539" height="65.0539" transform="rotate(-45 18491.3 362.441)" fill="#F4F4EF"/>
<path fill-rule="evenodd" clip-rule="evenodd" d="M18366 532.781C18338.4 532.781 18316 510.395 18316 482.781C18316 455.167 18338.4 432.781 18366 432.781C18393.6 432.781 18416 455.167 18416 482.781C18416 510.395 18393.6 532.781 18366 532.781ZM18366 523.958C18343.3 523.958 18324.8 505.522 18324.8 482.781C18324.8 460.04 18343.3 441.605 18366 441.605C18388.7 441.605 18407.2 460.04 18407.2 482.781C18407.2 505.522 18388.7 523.958 18366 523.958Z" fill="#F4F4EF"/>
<path d="M18704 418.781L18760.3 515.531L18647.7 515.531L18704 418.781Z" fill="#BEE3E7"/>
</g>
<defs>
<clipPath id="clip0_1_10884">
<rect width="1184" height="666" fill="white" transform="translate(0 0.78125)"/>
</clipPath>
<clipPath id="clip1_1_10884">
<rect width="1184" height="666" fill="white" transform="translate(1184 0.78125)"/>
</clipPath>
<clipPath id="clip2_1_10884">
<rect width="1184" height="666" fill="white" transform="translate(3552 0.78125)"/>
</clipPath>
<clipPath id="clip3_1_10884">
<rect width="1184" height="491" fill="white" transform="translate(3552 0.78125)"/>
</clipPath>
<clipPath id="clip4_1_10884">
<rect width="1184" height="666" fill="white" transform="translate(4736 0.78125)"/>
</clipPath>
<clipPath id="clip5_1_10884">
<rect width="1184" height="666" fill="white" transform="translate(5920 0.78125)"/>
</clipPath>
<clipPath id="clip6_1_10884">
<rect width="1184" height="666" fill="white" transform="translate(7104 0.78125)"/>
</clipPath>
<clipPath id="clip7_1_10884">
<rect width="1184" height="666" fill="white" transform="translate(8288 0.78125)"/>
</clipPath>
<clipPath id="clip8_1_10884">
<rect width="1184" height="666" fill="white" transform="translate(10656 0.78125)"/>
</clipPath>
<clipPath id="clip9_1_10884">
<rect width="1184" height="666" fill="white" transform="translate(11840 0.78125)"/>
</clipPath>
<clipPath id="clip10_1_10884">
<rect width="1184" height="666" fill="white" transform="translate(14208 0.78125)"/>
</clipPath>
<clipPath id="clip11_1_10884">
<rect width="1184" height="666" fill="white" transform="translate(15392 0.78125)"/>
</clipPath>
<clipPath id="clip12_1_10884">
<rect width="1184" height="666" fill="white" transform="translate(16576 0.78125)"/>
</clipPath>
<clipPath id="clip13_1_10884">
<rect width="1184" height="666" fill="white" transform="translate(17760 0.78125)"/>
</clipPath>
</defs>
</svg>
