<svg width="19200" height="676" viewBox="0 0 19200 676" fill="none" xmlns="http://www.w3.org/2000/svg">
<g clip-path="url(#clip0_1_9599)">
<g filter="url(#filter0_d_1_9599)">
<g clip-path="url(#clip1_1_9599)">
<rect y="0.78125" width="1184" height="666" rx="12" fill="#F4F4EF"/>
<path d="M792 -60.2188C792 69.0158 896.989 173.781 1026.5 173.781C1156.01 173.781 1261 69.0158 1261 -60.2188H792Z" fill="#B9E15E"/>
</g>
</g>
<circle cx="248" cy="192.781" r="344" fill="#4C6600"/>
<path d="M873.816 347.418L1117.88 766.939H629.756L873.816 347.418Z" fill="#FFD8A0"/>
<path d="M1170.82 770.145L926.757 350.623L1414.88 350.623L1170.82 770.145Z" fill="#FFD8A0"/>
<path fill-rule="evenodd" clip-rule="evenodd" d="M130.257 151.781C132.745 160.448 136.533 169.041 141.621 177.483L164.486 215.433C182.873 245.919 182.873 278.565 164.485 309.073L141.62 347.022C121.709 380.037 121.711 415.389 141.621 448.423L164.486 486.373C182.873 516.859 182.873 549.505 164.485 580.013L141.62 617.962C121.709 650.977 121.71 686.328 141.621 719.362L165.93 715.482C147.542 684.974 147.543 652.328 165.929 621.843L188.795 583.892C208.705 550.857 208.706 515.505 188.794 482.49L165.93 444.542C147.542 414.034 147.544 381.387 165.93 350.901L188.795 312.952C208.705 279.918 208.706 244.566 188.794 211.551L165.93 173.603C161.606 166.428 158.299 159.136 156.008 151.781H130.257Z" fill="#B9E15E"/>
<path fill-rule="evenodd" clip-rule="evenodd" d="M206.757 151.781C209.245 160.448 213.033 169.041 218.121 177.483L240.986 215.433C259.373 245.919 259.373 278.565 240.985 309.073L218.12 347.022C198.209 380.037 198.211 415.389 218.121 448.423L240.986 486.373C259.373 516.858 259.373 549.505 240.985 580.013L218.12 617.962C198.209 650.977 198.21 686.328 218.121 719.362L242.43 715.482C224.042 684.974 224.043 652.328 242.429 621.843L265.295 583.892C285.205 550.857 285.206 515.505 265.294 482.49L242.43 444.542C224.042 414.034 224.044 381.387 242.43 350.901L265.295 312.952C285.205 279.918 285.206 244.566 265.294 211.55L242.43 173.602C238.106 166.428 234.799 159.136 232.508 151.781H206.757Z" fill="#B9E15E"/>
<path fill-rule="evenodd" clip-rule="evenodd" d="M283.257 151.781C285.745 160.448 289.533 169.041 294.621 177.483L317.486 215.433C335.873 245.919 335.873 278.565 317.485 309.073L294.62 347.022C274.709 380.037 274.711 415.389 294.621 448.423L317.486 486.373C335.873 516.858 335.873 549.505 317.485 580.013L294.62 617.962C274.709 650.977 274.71 686.328 294.621 719.362L318.93 715.482C300.542 684.974 300.543 652.328 318.929 621.843L341.795 583.892C361.705 550.857 361.706 515.505 341.794 482.49L318.93 444.542C300.542 414.034 300.544 381.387 318.93 350.901L341.795 312.952C361.705 279.918 361.706 244.566 341.794 211.55L318.93 173.602C314.606 166.428 311.299 159.136 309.008 151.781H283.257Z" fill="#B9E15E"/>
<path fill-rule="evenodd" clip-rule="evenodd" d="M359.769 151.781C362.257 160.448 366.044 169.041 371.132 177.483L393.998 215.433C412.384 245.919 412.385 278.565 393.997 309.073L371.132 347.022C351.221 380.037 351.222 415.389 371.132 448.423L393.998 486.373C412.384 516.858 412.385 549.505 393.997 580.013L371.132 617.962C351.221 650.977 351.222 686.328 371.132 719.362L395.441 715.482C377.054 684.974 377.054 652.328 395.441 621.843L418.307 583.892C438.217 550.857 438.218 515.505 418.306 482.49L395.441 444.542C377.054 414.034 377.055 381.387 395.442 350.901L418.307 312.952C438.217 279.918 438.218 244.566 418.306 211.55L395.441 173.602C391.117 166.428 387.81 159.136 385.52 151.781H359.769Z" fill="#B9E15E"/>
<path fill-rule="evenodd" clip-rule="evenodd" d="M436.269 151.781C438.757 160.448 442.544 169.041 447.632 177.483L470.498 215.433C488.884 245.919 488.885 278.565 470.497 309.073L447.632 347.022C427.721 380.037 427.722 415.389 447.632 448.423L470.498 486.373C488.884 516.858 488.885 549.505 470.497 580.013L447.632 617.962C427.721 650.977 427.722 686.328 447.632 719.362L471.941 715.482C453.554 684.974 453.554 652.328 471.941 621.843L494.807 583.892C514.717 550.857 514.718 515.505 494.806 482.49L471.941 444.542C453.554 414.034 453.555 381.387 471.942 350.901L494.807 312.952C514.717 279.918 514.718 244.566 494.806 211.55L471.941 173.602C467.617 166.428 464.31 159.136 462.02 151.781H436.269Z" fill="#B9E15E"/>
<rect x="686" y="192.781" width="89.2705" height="89.2705" fill="#393A3D"/>
<rect x="813" y="192.781" width="89.2705" height="89.2705" fill="#393A3D"/>
<rect x="940" y="192.781" width="89.2705" height="89.2705" fill="#393A3D"/>
<rect x="1067" y="192.781" width="89.2705" height="89.2705" fill="#393A3D"/>
</g>
<g clip-path="url(#clip2_1_9599)">
<g filter="url(#filter1_d_1_9599)">
<rect x="1200" y="0.78125" width="1184" height="666" rx="12" fill="#F4F4EF"/>
</g>
<path d="M1200 839.781L1200 -60.2187L2100 -60.2188L1200 839.781Z" fill="#FFD8A0"/>
<path fill-rule="evenodd" clip-rule="evenodd" d="M1955.55 583.783C2093.38 583.783 2205.11 472.054 2205.11 334.229C2205.11 196.405 2093.38 84.6758 1955.55 84.6758C1817.73 84.6758 1706 196.405 1706 334.229C1706 472.054 1817.73 583.783 1955.55 583.783ZM1955.55 485.918C2039.33 485.918 2107.24 418.005 2107.24 334.229C2107.24 250.453 2039.33 182.54 1955.55 182.54C1871.78 182.54 1803.86 250.453 1803.86 334.229C1803.86 418.005 1871.78 485.918 1955.55 485.918Z" fill="#B9E15E"/>
<path fill-rule="evenodd" clip-rule="evenodd" d="M2118.5 731.781C2224.81 731.781 2311 645.596 2311 539.281C2311 432.967 2224.81 346.781 2118.5 346.781C2012.19 346.781 1926 432.967 1926 539.281C1926 645.596 2012.19 731.781 2118.5 731.781ZM2118.5 697.811C2206.05 697.811 2277.03 626.835 2277.03 539.281C2277.03 451.728 2206.05 380.752 2118.5 380.752C2030.95 380.752 1959.97 451.728 1959.97 539.281C1959.97 626.835 2030.95 697.811 2118.5 697.811Z" fill="#393A3D"/>
<rect x="1200" y="84.7812" width="211.73" height="27.666" fill="#F4F4EF"/>
<rect x="1200" y="140.113" width="211.73" height="27.666" fill="#F4F4EF"/>
<rect x="1200" y="195.445" width="211.73" height="27.666" fill="#F4F4EF"/>
<rect x="1200" y="250.777" width="211.73" height="27.666" fill="#F4F4EF"/>
<rect x="1200" y="306.109" width="211.73" height="27.666" fill="#F4F4EF"/>
<rect x="1200" y="361.441" width="211.73" height="27.666" fill="#F4F4EF"/>
<rect x="1200" y="416.773" width="211.73" height="27.666" fill="#F4F4EF"/>
<rect x="1200" y="472.105" width="211.73" height="27.666" fill="#F4F4EF"/>
<rect x="1624" y="-12.2188" width="109.997" height="109.997" transform="rotate(90 1624 -12.2188)" fill="#393A3D"/>
<rect x="1624" y="144.27" width="109.997" height="109.997" transform="rotate(90 1624 144.27)" fill="#393A3D"/>
<rect x="1624" y="300.754" width="109.997" height="109.997" transform="rotate(90 1624 300.754)" fill="#393A3D"/>
<rect x="1624" y="457.242" width="109.997" height="109.997" transform="rotate(90 1624 457.242)" fill="#393A3D"/>
</g>
<g clip-path="url(#clip3_1_9599)">
<g filter="url(#filter2_d_1_9599)">
<rect x="2400" y="0.78125" width="1184" height="666" rx="12" fill="#F4F4EF"/>
</g>
<rect x="3072" y="-18.2188" width="796" height="796" fill="#FFD8A0"/>
<circle cx="2571.14" cy="483.922" r="54.1408" fill="#4C6600"/>
<circle cx="2739.58" cy="483.922" r="54.1408" fill="#4C6600"/>
<circle cx="2908.02" cy="483.922" r="54.1408" fill="#4C6600"/>
<circle cx="3076.45" cy="483.922" r="54.1408" fill="#4C6600"/>
<circle cx="3244.89" cy="483.922" r="54.1408" fill="#4C6600"/>
<circle cx="3413.33" cy="483.922" r="54.1408" fill="#4C6600"/>
<path d="M2574.71 190.008C2658.79 274.085 2795.1 274.085 2879.18 190.008C2963.26 105.931 2963.26 -30.3859 2879.18 -114.463L2574.71 190.008Z" fill="#393A3D"/>
<path d="M2693.71 -71.9844C2609.63 -156.062 2473.32 -156.062 2389.24 -71.9844C2305.16 12.0929 2305.16 148.409 2389.24 232.487L2693.71 -71.9844Z" fill="#393A3D"/>
<g opacity="0.9">
<path fill-rule="evenodd" clip-rule="evenodd" d="M3280.62 125.988C3255.76 110.99 3229.13 110.989 3204.24 125.989L3197.64 84.616C3226.82 67.0249 3258.06 67.023 3287.23 84.6153C3287.23 84.6155 3287.23 84.6152 3287.23 84.6153C3287.23 84.6158 3287.23 84.6167 3287.23 84.6172L3319.52 104.073C3344.41 119.073 3371.04 119.072 3395.91 104.075L3395.91 104.073L3428.2 84.616C3428.2 84.6158 3428.2 84.6162 3428.2 84.616C3457.39 67.0255 3488.62 67.0232 3517.79 84.6153C3517.79 84.616 3517.8 84.6166 3517.8 84.6172L3550.09 104.073C3574.97 119.073 3601.6 119.072 3626.47 104.075L3626.47 104.073L3658.77 84.616C3658.77 84.6158 3658.77 84.6162 3658.77 84.616C3687.95 67.0255 3719.19 67.0232 3748.36 84.6153C3748.36 84.616 3748.36 84.6166 3748.36 84.6172L3780.65 104.073C3805.54 119.073 3832.17 119.072 3857.04 104.075L3857.04 104.073L3889.33 84.616C3889.33 84.6158 3889.33 84.6162 3889.33 84.616C3918.52 67.0249 3949.75 67.0232 3978.93 84.6172L3972.32 125.988C3947.45 110.99 3920.82 110.989 3895.94 125.989L3863.64 145.445C3863.64 145.446 3863.64 145.446 3863.64 145.447C3834.47 163.039 3803.23 163.038 3774.05 145.446L3741.76 125.99L3741.75 125.988C3716.89 110.99 3690.26 110.989 3665.37 125.989L3633.08 145.445C3633.08 145.446 3633.08 145.446 3633.08 145.447C3603.91 163.039 3572.67 163.038 3543.49 145.447C3543.48 145.447 3543.49 145.447 3543.49 145.447L3511.19 125.988C3486.32 110.99 3459.69 110.989 3434.81 125.989L3402.51 145.445C3402.51 145.446 3402.51 145.446 3402.51 145.447C3373.34 163.039 3342.11 163.038 3312.92 145.447C3312.92 145.447 3312.92 145.447 3312.92 145.447L3280.62 125.988Z" fill="#F4F4EF"/>
<path fill-rule="evenodd" clip-rule="evenodd" d="M3280.62 205.902C3255.76 190.905 3229.13 190.903 3204.24 205.903L3197.64 164.53C3226.82 146.939 3258.06 146.937 3287.23 164.529C3287.23 164.53 3287.23 164.529 3287.23 164.529C3287.23 164.53 3287.23 164.531 3287.23 164.531L3319.52 183.987C3344.41 198.987 3371.04 198.986 3395.91 183.989L3395.91 183.987L3428.2 164.53C3428.2 164.53 3428.2 164.53 3428.2 164.53C3457.39 146.94 3488.62 146.937 3517.79 164.529C3517.79 164.53 3517.8 164.531 3517.8 164.531L3550.09 183.987C3574.97 198.987 3601.6 198.986 3626.47 183.989L3626.47 183.987L3658.77 164.53C3658.77 164.53 3658.77 164.53 3658.77 164.53C3687.95 146.94 3719.19 146.937 3748.36 164.529C3748.36 164.53 3748.36 164.531 3748.36 164.531L3780.65 183.987C3805.54 198.987 3832.17 198.986 3857.04 183.989L3857.04 183.987L3889.33 164.53C3889.33 164.53 3889.33 164.53 3889.33 164.53C3918.52 146.939 3949.75 146.937 3978.93 164.531L3972.32 205.902C3947.45 190.905 3920.82 190.903 3895.94 205.903L3863.64 225.359C3863.64 225.36 3863.64 225.361 3863.64 225.361C3834.47 242.953 3803.23 242.952 3774.05 225.361L3741.76 205.904L3741.75 205.902C3716.89 190.905 3690.26 190.903 3665.37 205.903L3633.08 225.359C3633.08 225.36 3633.08 225.361 3633.08 225.361C3603.91 242.953 3572.67 242.952 3543.49 225.361C3543.48 225.361 3543.49 225.361 3543.49 225.361L3511.19 205.902C3486.32 190.905 3459.69 190.903 3434.81 205.903L3402.51 225.359C3402.51 225.36 3402.51 225.361 3402.51 225.361C3373.34 242.953 3342.11 242.952 3312.92 225.361C3312.92 225.361 3312.92 225.361 3312.92 225.361L3280.62 205.902Z" fill="#F4F4EF"/>
<path fill-rule="evenodd" clip-rule="evenodd" d="M3280.62 285.816C3255.76 270.819 3229.13 270.817 3204.24 285.817L3197.64 244.444C3226.82 226.853 3258.06 226.851 3287.23 244.443C3287.23 244.444 3287.23 244.443 3287.23 244.443C3287.23 244.444 3287.23 244.445 3287.23 244.445L3319.52 263.901C3344.41 278.901 3371.04 278.9 3395.91 263.903L3395.91 263.901L3428.2 244.444C3428.2 244.444 3428.2 244.444 3428.2 244.444C3457.39 226.854 3488.62 226.851 3517.79 244.443C3517.79 244.444 3517.8 244.445 3517.8 244.445L3550.09 263.901C3574.97 278.901 3601.6 278.9 3626.47 263.903L3626.47 263.901L3658.77 244.444C3658.77 244.444 3658.77 244.444 3658.77 244.444C3687.95 226.854 3719.19 226.851 3748.36 244.443C3748.36 244.444 3748.36 244.445 3748.36 244.445L3780.65 263.901C3805.54 278.901 3832.17 278.9 3857.04 263.903L3857.04 263.901L3889.33 244.444C3889.33 244.444 3889.33 244.444 3889.33 244.444C3918.52 226.853 3949.75 226.851 3978.93 244.445L3972.32 285.816C3947.45 270.819 3920.82 270.817 3895.94 285.817L3863.64 305.273C3863.64 305.274 3863.64 305.275 3863.64 305.275C3834.47 322.868 3803.23 322.866 3774.05 305.275L3741.76 285.818L3741.75 285.816C3716.89 270.819 3690.26 270.817 3665.37 285.817L3633.08 305.273C3633.08 305.274 3633.08 305.275 3633.08 305.275C3603.91 322.867 3572.67 322.866 3543.49 305.275C3543.48 305.275 3543.49 305.275 3543.49 305.275L3511.19 285.816C3486.32 270.819 3459.69 270.817 3434.81 285.817L3402.51 305.273C3402.51 305.274 3402.51 305.275 3402.51 305.275C3373.34 322.867 3342.11 322.866 3312.92 305.275C3312.92 305.275 3312.92 305.275 3312.92 305.275L3280.62 285.816Z" fill="#F4F4EF"/>
</g>
</g>
<g clip-path="url(#clip4_1_9599)">
<g filter="url(#filter3_d_1_9599)">
<rect x="3600" y="0.78125" width="1184" height="666" rx="12" fill="#F4F4EF"/>
</g>
<rect x="3960" y="161.25" width="1244.97" height="27.1021" fill="#FFD8A0"/>
<rect x="3960" y="215.453" width="1244.97" height="27.1021" fill="#FFD8A0"/>
<rect x="3960" y="269.66" width="1244.97" height="27.1021" fill="#FFD8A0"/>
<rect x="3960" y="323.863" width="1244.97" height="27.1021" fill="#FFD8A0"/>
<rect x="3960" y="378.066" width="1244.97" height="27.1021" fill="#FFD8A0"/>
<rect x="3960" y="432.27" width="1244.97" height="27.1021" fill="#FFD8A0"/>
<rect x="3960" y="486.477" width="1244.97" height="27.1021" fill="#FFD8A0"/>
<rect x="3960" y="540.68" width="1244.97" height="27.1021" fill="#FFD8A0"/>
<path fill-rule="evenodd" clip-rule="evenodd" d="M3707 849.781C3892.57 849.781 4043 699.349 4043 513.781C4043 328.214 3892.57 177.781 3707 177.781C3521.43 177.781 3371 328.214 3371 513.781C3371 699.349 3521.43 849.781 3707 849.781ZM3707 718.017C3819.8 718.017 3911.24 626.577 3911.24 513.781C3911.24 400.985 3819.8 309.546 3707 309.546C3594.2 309.546 3502.76 400.985 3502.76 513.781C3502.76 626.577 3594.2 718.017 3707 718.017Z" fill="#B9E15E"/>
<rect x="3748" y="351.242" width="423.459" height="84.6919" transform="rotate(-90 3748 351.242)" fill="#393A3D"/>
<rect x="3917.38" y="351.242" width="423.459" height="84.6919" transform="rotate(-90 3917.38 351.242)" fill="#393A3D"/>
<rect x="4086.77" y="351.242" width="423.459" height="84.6919" transform="rotate(-90 4086.77 351.242)" fill="#393A3D"/>
<path d="M4505.45 290.781V709.235H4087L4505.45 290.781Z" fill="#4C6600"/>
<path d="M4555 290.781V709.235H4973.45L4555 290.781Z" fill="#4C6600"/>
</g>
<g clip-path="url(#clip5_1_9599)">
<g filter="url(#filter4_d_1_9599)">
<g clip-path="url(#clip6_1_9599)">
<rect x="4800" y="0.78125" width="1184" height="666" rx="12" fill="#F4F4EF"/>
<circle cx="5790.5" cy="334.281" r="448.5" fill="#FFD8A0"/>
</g>
</g>
<path fill-rule="evenodd" clip-rule="evenodd" d="M4800.89 237.781C4776.03 222.783 4749.4 222.782 4724.51 237.782L4717.91 196.409C4747.09 178.818 4778.33 178.816 4807.5 196.408C4807.5 196.408 4807.5 196.408 4807.5 196.408C4807.5 196.409 4807.5 196.41 4807.5 196.41L4839.79 215.866C4864.68 230.866 4891.31 230.865 4916.18 215.868L4916.18 215.866L4948.47 196.409C4948.47 196.409 4948.47 196.409 4948.47 196.409C4977.66 178.818 5008.89 178.816 5038.06 196.408C5038.06 196.409 5038.06 196.41 5038.07 196.41L5070.36 215.866C5095.24 230.866 5121.87 230.865 5146.74 215.868L5146.74 215.866L5179.04 196.409C5179.04 196.409 5179.04 196.409 5179.04 196.409C5208.22 178.818 5239.46 178.816 5268.63 196.408C5268.63 196.409 5268.63 196.41 5268.63 196.41L5300.92 215.866C5325.81 230.866 5352.44 230.865 5377.3 215.868L5377.31 215.866L5409.6 196.409C5409.6 196.409 5409.6 196.409 5409.6 196.409C5438.79 178.818 5470.02 178.816 5499.2 196.41L5492.59 237.781C5467.72 222.783 5441.09 222.782 5416.21 237.782L5383.91 257.238C5383.91 257.239 5383.91 257.239 5383.91 257.24C5354.74 274.832 5323.5 274.831 5294.32 257.239L5262.03 237.782L5262.02 237.781C5237.16 222.783 5210.53 222.782 5185.64 237.782L5153.35 257.238C5153.35 257.239 5153.35 257.239 5153.35 257.24C5124.17 274.832 5092.94 274.831 5063.75 257.24C5063.75 257.24 5063.75 257.24 5063.75 257.24L5031.46 237.781C5006.59 222.783 4979.96 222.782 4955.08 237.782L4922.78 257.238C4922.78 257.239 4922.78 257.239 4922.78 257.24C4893.61 274.832 4862.38 274.831 4833.19 257.24C4833.19 257.24 4833.19 257.24 4833.19 257.24L4800.89 237.781Z" fill="#B9E15E"/>
<path fill-rule="evenodd" clip-rule="evenodd" d="M4800.89 317.695C4776.03 302.697 4749.4 302.696 4724.51 317.696L4717.91 276.323C4747.09 258.732 4778.33 258.73 4807.5 276.322C4807.5 276.323 4807.5 276.322 4807.5 276.322C4807.5 276.323 4807.5 276.324 4807.5 276.324L4839.79 295.78C4864.68 310.78 4891.31 310.779 4916.18 295.782L4916.18 295.78L4948.47 276.323C4948.47 276.323 4948.47 276.323 4948.47 276.323C4977.66 258.733 5008.89 258.73 5038.06 276.322C5038.06 276.323 5038.06 276.324 5038.07 276.324L5070.36 295.78C5095.24 310.78 5121.87 310.779 5146.74 295.782L5146.74 295.78L5179.04 276.323C5179.04 276.323 5179.04 276.323 5179.04 276.323C5208.22 258.733 5239.46 258.73 5268.63 276.322C5268.63 276.323 5268.63 276.324 5268.63 276.324L5300.92 295.78C5325.81 310.78 5352.44 310.779 5377.3 295.782L5377.31 295.78L5409.6 276.323C5409.6 276.323 5409.6 276.323 5409.6 276.323C5438.79 258.732 5470.02 258.73 5499.2 276.324L5492.59 317.695C5467.72 302.697 5441.09 302.696 5416.21 317.696L5383.91 337.152C5383.91 337.153 5383.91 337.154 5383.91 337.154C5354.74 354.746 5323.5 354.745 5294.32 337.154L5262.03 317.697L5262.02 317.695C5237.16 302.697 5210.53 302.696 5185.64 317.696L5153.35 337.152C5153.35 337.153 5153.35 337.154 5153.35 337.154C5124.17 354.746 5092.94 354.745 5063.75 337.154C5063.75 337.154 5063.75 337.154 5063.75 337.154L5031.46 317.695C5006.59 302.697 4979.96 302.696 4955.08 317.696L4922.78 337.152C4922.78 337.153 4922.78 337.154 4922.78 337.154C4893.61 354.746 4862.38 354.745 4833.19 337.154C4833.19 337.154 4833.19 337.154 4833.19 337.154L4800.89 317.695Z" fill="#B9E15E"/>
<path fill-rule="evenodd" clip-rule="evenodd" d="M4800.89 397.609C4776.03 382.612 4749.4 382.61 4724.51 397.61L4717.91 356.237C4747.09 338.646 4778.33 338.644 4807.5 356.236C4807.5 356.237 4807.5 356.236 4807.5 356.236C4807.5 356.237 4807.5 356.238 4807.5 356.238L4839.79 375.694C4864.68 390.694 4891.31 390.693 4916.18 375.696L4916.18 375.694L4948.47 356.237C4948.47 356.237 4948.47 356.237 4948.47 356.237C4977.66 338.647 5008.89 338.644 5038.06 356.236C5038.06 356.237 5038.06 356.238 5038.07 356.238L5070.36 375.694C5095.24 390.694 5121.87 390.693 5146.74 375.696L5146.74 375.694L5179.04 356.237C5179.04 356.237 5179.04 356.237 5179.04 356.237C5208.22 338.647 5239.46 338.644 5268.63 356.236C5268.63 356.237 5268.63 356.238 5268.63 356.238L5300.92 375.694C5325.81 390.694 5352.44 390.693 5377.3 375.696L5377.31 375.694L5409.6 356.237C5409.6 356.237 5409.6 356.237 5409.6 356.237C5438.79 338.646 5470.02 338.644 5499.2 356.238L5492.59 397.609C5467.72 382.612 5441.09 382.61 5416.21 397.61L5383.91 417.066C5383.91 417.067 5383.91 417.068 5383.91 417.068C5354.74 434.661 5323.5 434.659 5294.32 417.068L5262.03 397.611L5262.02 397.609C5237.16 382.612 5210.53 382.61 5185.64 397.61L5153.35 417.066C5153.35 417.067 5153.35 417.068 5153.35 417.068C5124.17 434.66 5092.94 434.659 5063.75 417.068C5063.75 417.068 5063.75 417.068 5063.75 417.068L5031.46 397.609C5006.59 382.612 4979.96 382.61 4955.08 397.61L4922.78 417.066C4922.78 417.067 4922.78 417.068 4922.78 417.068C4893.61 434.66 4862.38 434.659 4833.19 417.068C4833.19 417.068 4833.19 417.068 4833.19 417.068L4800.89 397.609Z" fill="#B9E15E"/>
<path fill-rule="evenodd" clip-rule="evenodd" d="M4800.89 477.527C4776.03 462.53 4749.4 462.528 4724.51 477.528L4717.91 436.155C4747.09 418.564 4778.33 418.562 4807.5 436.154C4807.5 436.155 4807.5 436.154 4807.5 436.154C4807.5 436.155 4807.5 436.156 4807.5 436.156L4839.79 455.612C4864.68 470.612 4891.31 470.611 4916.18 455.614L4916.18 455.612L4948.47 436.155C4948.47 436.155 4948.47 436.155 4948.47 436.155C4977.66 418.565 5008.89 418.562 5038.06 436.154C5038.06 436.155 5038.06 436.156 5038.07 436.156L5070.36 455.612C5095.24 470.612 5121.87 470.611 5146.74 455.614L5146.74 455.612L5179.04 436.155C5179.04 436.155 5179.04 436.155 5179.04 436.155C5208.22 418.565 5239.46 418.562 5268.63 436.154C5268.63 436.155 5268.63 436.156 5268.63 436.156L5300.92 455.612C5325.81 470.612 5352.44 470.611 5377.3 455.614L5377.31 455.612L5409.6 436.155C5409.6 436.155 5409.6 436.155 5409.6 436.155C5438.79 418.564 5470.02 418.562 5499.2 436.156L5492.59 477.527C5467.72 462.53 5441.09 462.528 5416.21 477.528L5383.91 496.984C5383.91 496.985 5383.91 496.986 5383.91 496.986C5354.74 514.578 5323.5 514.577 5294.32 496.986L5262.03 477.529L5262.02 477.527C5237.16 462.53 5210.53 462.528 5185.64 477.528L5153.35 496.984C5153.35 496.985 5153.35 496.986 5153.35 496.986C5124.17 514.578 5092.94 514.577 5063.75 496.986C5063.75 496.986 5063.75 496.986 5063.75 496.986L5031.46 477.527C5006.59 462.53 4979.96 462.528 4955.08 477.528L4922.78 496.984C4922.78 496.985 4922.78 496.986 4922.78 496.986C4893.61 514.578 4862.38 514.577 4833.19 496.986C4833.19 496.986 4833.19 496.986 4833.19 496.986L4800.89 477.527Z" fill="#B9E15E"/>
<path fill-rule="evenodd" clip-rule="evenodd" d="M4800.89 557.441C4776.03 542.444 4749.4 542.442 4724.51 557.442L4717.91 516.069C4747.09 498.478 4778.33 498.476 4807.5 516.068C4807.5 516.069 4807.5 516.068 4807.5 516.068C4807.5 516.069 4807.5 516.07 4807.5 516.07L4839.79 535.526C4864.68 550.526 4891.31 550.525 4916.18 535.528L4916.18 535.526L4948.47 516.069C4948.47 516.069 4948.47 516.069 4948.47 516.069C4977.66 498.479 5008.89 498.476 5038.06 516.068C5038.06 516.069 5038.06 516.07 5038.07 516.07L5070.36 535.526C5095.24 550.526 5121.87 550.525 5146.74 535.528L5146.74 535.526L5179.04 516.069C5179.04 516.069 5179.04 516.069 5179.04 516.069C5208.22 498.479 5239.46 498.476 5268.63 516.068C5268.63 516.069 5268.63 516.07 5268.63 516.07L5300.92 535.526C5325.81 550.526 5352.44 550.525 5377.3 535.528L5377.31 535.526L5409.6 516.069C5409.6 516.069 5409.6 516.069 5409.6 516.069C5438.79 498.478 5470.02 498.476 5499.2 516.07L5492.59 557.441C5467.72 542.444 5441.09 542.442 5416.21 557.442L5383.91 576.898C5383.91 576.899 5383.91 576.9 5383.91 576.9C5354.74 594.493 5323.5 594.491 5294.32 576.9L5262.03 557.443L5262.02 557.441C5237.16 542.444 5210.53 542.442 5185.64 557.442L5153.35 576.898C5153.35 576.899 5153.35 576.9 5153.35 576.9C5124.17 594.492 5092.94 594.491 5063.75 576.9C5063.75 576.9 5063.75 576.9 5063.75 576.9L5031.46 557.441C5006.59 542.444 4979.96 542.442 4955.08 557.442L4922.78 576.898C4922.78 576.899 4922.78 576.9 4922.78 576.9C4893.61 594.492 4862.38 594.491 4833.19 576.9C4833.19 576.9 4833.19 576.9 4833.19 576.9L4800.89 557.441Z" fill="#B9E15E"/>
<rect x="5772" y="59.7812" width="211.73" height="27.666" fill="#F4F4EF"/>
<rect x="5772" y="115.113" width="211.73" height="27.666" fill="#F4F4EF"/>
<rect x="5772" y="170.445" width="211.73" height="27.666" fill="#F4F4EF"/>
<rect x="5772" y="225.777" width="211.73" height="27.666" fill="#F4F4EF"/>
<rect x="5772" y="281.109" width="211.73" height="27.666" fill="#F4F4EF"/>
<rect x="5772" y="336.441" width="211.73" height="27.666" fill="#F4F4EF"/>
<rect x="5772" y="391.773" width="211.73" height="27.666" fill="#F4F4EF"/>
<rect x="5772" y="447.105" width="211.73" height="27.666" fill="#F4F4EF"/>
<circle cx="5612.23" cy="207.828" r="54.1408" transform="rotate(90 5612.23 207.828)" fill="#393A3D"/>
<circle cx="5612.23" cy="376.266" r="54.1408" transform="rotate(90 5612.23 376.266)" fill="#393A3D"/>
<circle cx="5612.23" cy="544.703" r="54.1408" transform="rotate(90 5612.23 544.703)" fill="#393A3D"/>
</g>
<g clip-path="url(#clip7_1_9599)">
<g filter="url(#filter5_d_1_9599)">
<rect x="6000" y="0.78125" width="1184" height="666" rx="12" fill="#F4F4EF"/>
</g>
<path fill-rule="evenodd" clip-rule="evenodd" d="M6784.49 -136.528C6796.1 -150.657 6796.1 -165.787 6784.49 -179.927L6816.52 -183.68C6830.13 -167.096 6830.14 -149.349 6816.52 -132.775C6816.52 -132.775 6816.52 -132.775 6816.52 -132.775C6816.52 -132.774 6816.52 -132.773 6816.51 -132.773L6801.45 -114.426C6789.84 -100.285 6789.84 -85.1545 6801.45 -71.0258L6801.45 -71.0241L6816.52 -52.6756C6816.52 -52.6754 6816.52 -52.6758 6816.52 -52.6756C6830.13 -36.0926 6830.14 -18.3451 6816.52 -1.77063C6816.52 -1.77005 6816.52 -1.76948 6816.51 -1.7689L6801.45 16.5785C6789.84 30.7188 6789.84 45.8496 6801.45 59.9782L6801.45 59.98L6816.52 78.3285C6816.52 78.3287 6816.52 78.3283 6816.52 78.3285C6830.13 94.9115 6830.14 112.659 6816.52 129.233C6816.52 129.234 6816.52 129.235 6816.51 129.235L6801.45 147.583C6789.84 161.723 6789.84 176.854 6801.45 190.982L6801.45 190.984L6816.52 209.333C6816.52 209.333 6816.52 209.332 6816.52 209.333C6830.13 225.916 6830.14 243.664 6816.51 260.239L6784.49 256.484C6796.1 242.356 6796.1 227.226 6784.49 213.085L6769.42 194.737C6769.42 194.737 6769.42 194.736 6769.42 194.736C6755.8 178.161 6755.8 160.414 6769.42 143.831L6784.49 125.482L6784.49 125.48C6796.1 111.352 6796.1 96.2214 6784.49 82.0811L6769.42 63.7331C6769.42 63.7325 6769.42 63.732 6769.42 63.7314C6755.8 47.157 6755.8 29.4101 6769.42 12.827C6769.42 12.8268 6769.42 12.8272 6769.42 12.827L6784.49 -5.52378C6796.1 -19.6524 6796.1 -34.7827 6784.49 -48.923L6769.42 -67.271C6769.42 -67.2715 6769.42 -67.2721 6769.42 -67.2727C6755.8 -83.8471 6755.8 -101.594 6769.42 -118.177C6769.42 -118.177 6769.42 -118.177 6769.42 -118.177L6784.49 -136.528Z" fill="#FFD8A0"/>
<path fill-rule="evenodd" clip-rule="evenodd" d="M6722.62 -136.528C6734.23 -150.657 6734.23 -165.787 6722.61 -179.927L6754.64 -183.68C6768.26 -167.096 6768.26 -149.349 6754.65 -132.775C6754.65 -132.775 6754.65 -132.775 6754.65 -132.775C6754.64 -132.774 6754.64 -132.773 6754.64 -132.773L6739.58 -114.426C6727.97 -100.285 6727.97 -85.1545 6739.58 -71.0258L6739.58 -71.0241L6754.64 -52.6756C6754.64 -52.6754 6754.64 -52.6758 6754.64 -52.6756C6768.26 -36.0926 6768.26 -18.3451 6754.65 -1.77063C6754.64 -1.77005 6754.64 -1.76948 6754.64 -1.7689L6739.58 16.5785C6727.97 30.7188 6727.97 45.8496 6739.58 59.9782L6739.58 59.98L6754.64 78.3285C6754.64 78.3287 6754.64 78.3283 6754.64 78.3285C6768.26 94.9115 6768.26 112.659 6754.65 129.233C6754.64 129.234 6754.64 129.235 6754.64 129.235L6739.58 147.583C6727.97 161.723 6727.97 176.854 6739.58 190.982L6739.58 190.984L6754.64 209.333C6754.64 209.333 6754.64 209.332 6754.64 209.333C6768.26 225.916 6768.26 243.664 6754.64 260.239L6722.62 256.484C6734.23 242.356 6734.23 227.226 6722.61 213.085L6707.55 194.737C6707.55 194.737 6707.55 194.736 6707.55 194.736C6693.93 178.161 6693.93 160.414 6707.55 143.831L6722.61 125.482L6722.62 125.48C6734.23 111.352 6734.23 96.2214 6722.61 82.0811L6707.55 63.7331C6707.55 63.7325 6707.55 63.732 6707.55 63.7314C6693.93 47.157 6693.93 29.4101 6707.55 12.827C6707.55 12.8268 6707.55 12.8272 6707.55 12.827L6722.62 -5.52378C6734.23 -19.6524 6734.23 -34.7827 6722.61 -48.923L6707.55 -67.271C6707.55 -67.2715 6707.55 -67.2721 6707.55 -67.2727C6693.93 -83.8471 6693.93 -101.594 6707.55 -118.177C6707.55 -118.177 6707.55 -118.177 6707.55 -118.177L6722.62 -136.528Z" fill="#FFD8A0"/>
<path fill-rule="evenodd" clip-rule="evenodd" d="M6660.75 -136.528C6672.36 -150.657 6672.36 -165.787 6660.75 -179.927L6692.78 -183.68C6706.4 -167.096 6706.4 -149.349 6692.78 -132.775C6692.78 -132.775 6692.78 -132.775 6692.78 -132.775C6692.78 -132.774 6692.78 -132.773 6692.78 -132.773L6677.72 -114.426C6666.11 -100.285 6666.11 -85.1545 6677.72 -71.0258L6677.72 -71.0241L6692.78 -52.6756C6692.78 -52.6754 6692.78 -52.6758 6692.78 -52.6756C6706.4 -36.0926 6706.4 -18.3451 6692.78 -1.77063C6692.78 -1.77005 6692.78 -1.76948 6692.78 -1.7689L6677.72 16.5785C6666.11 30.7188 6666.11 45.8496 6677.72 59.9782L6677.72 59.98L6692.78 78.3285C6692.78 78.3287 6692.78 78.3283 6692.78 78.3285C6706.4 94.9115 6706.4 112.659 6692.78 129.233C6692.78 129.234 6692.78 129.235 6692.78 129.235L6677.72 147.583C6666.11 161.723 6666.11 176.854 6677.72 190.982L6677.72 190.984L6692.78 209.333C6692.78 209.333 6692.78 209.332 6692.78 209.333C6706.4 225.916 6706.4 243.664 6692.78 260.239L6660.75 256.484C6672.36 242.356 6672.36 227.226 6660.75 213.085L6645.69 194.737C6645.69 194.737 6645.69 194.736 6645.69 194.736C6632.07 178.161 6632.07 160.414 6645.69 143.831L6660.75 125.482L6660.75 125.48C6672.36 111.352 6672.36 96.2214 6660.75 82.0811L6645.69 63.7331C6645.69 63.7325 6645.69 63.732 6645.69 63.7314C6632.07 47.157 6632.07 29.4101 6645.69 12.827C6645.69 12.8268 6645.69 12.8272 6645.69 12.827L6660.75 -5.52378C6672.36 -19.6524 6672.36 -34.7827 6660.75 -48.923L6645.69 -67.271C6645.69 -67.2715 6645.69 -67.2721 6645.69 -67.2727C6632.07 -83.8471 6632.07 -101.594 6645.69 -118.177C6645.69 -118.177 6645.69 -118.177 6645.69 -118.177L6660.75 -136.528Z" fill="#FFD8A0"/>
<path d="M5957 -45.2188V835.781H6838L5957 -45.2188Z" fill="#FFD8A0"/>
<path d="M6529.99 283.781C6529.99 379.537 6607.62 457.162 6703.37 457.162C6799.13 457.162 6876.75 379.537 6876.75 283.781H6529.99Z" fill="#393A3D"/>
<path d="M6463.76 283.559C6463.76 187.803 6386.13 110.178 6290.38 110.178C6194.62 110.178 6117 187.803 6117 283.559L6463.76 283.559Z" fill="#4C6600"/>
<rect x="6545" y="545.48" width="121.3" height="121.3" fill="#B9E15E"/>
<rect x="6717.57" y="545.48" width="121.3" height="121.3" fill="#B9E15E"/>
<rect x="6890.13" y="545.48" width="121.3" height="121.3" fill="#B9E15E"/>
<rect x="7062.7" y="545.48" width="121.3" height="121.3" fill="#B9E15E"/>
<path fill-rule="evenodd" clip-rule="evenodd" d="M6895.32 -8.21875C6897.52 -1.17102 6900.7 5.81689 6904.84 12.6919L6925.17 46.4255C6941.51 73.5237 6941.51 102.542 6925.16 129.661L6904.84 163.393C6887.14 192.74 6887.14 224.163 6904.84 253.527L6925.17 287.261C6941.51 314.359 6941.51 343.378 6925.16 370.496L6904.84 404.229C6887.14 433.575 6887.14 464.999 6904.84 494.362L6926.45 490.913C6910.1 463.795 6910.1 434.777 6926.45 407.678L6946.77 373.944C6964.47 344.58 6964.47 313.156 6946.77 283.809L6926.45 250.078C6910.1 222.959 6910.11 193.94 6926.45 166.842L6946.77 133.109C6964.47 103.745 6964.47 72.3209 6946.77 42.9741L6926.45 9.24248C6922.98 3.49534 6920.25 -2.3372 6918.26 -8.21875H6895.32Z" fill="#B9E15E"/>
<path fill-rule="evenodd" clip-rule="evenodd" d="M6963.33 -8.21875C6965.53 -1.17102 6968.7 5.81689 6972.85 12.6919L6993.17 46.4255C7009.52 73.5237 7009.52 102.542 6993.17 129.661L6972.85 163.393C6955.15 192.74 6955.15 224.163 6972.85 253.527L6993.17 287.261C7009.52 314.359 7009.52 343.378 6993.17 370.496L6972.85 404.229C6955.15 433.575 6955.15 464.999 6972.85 494.362L6994.46 490.913C6978.11 463.795 6978.11 434.777 6994.46 407.678L7014.78 373.944C7032.48 344.58 7032.48 313.156 7014.78 283.809L6994.46 250.078C6978.11 222.959 6978.11 193.94 6994.46 166.842L7014.78 133.109C7032.48 103.745 7032.48 72.3209 7014.78 42.9741L6994.46 9.24248C6990.99 3.49534 6988.26 -2.3372 6986.27 -8.21875H6963.33Z" fill="#B9E15E"/>
<path fill-rule="evenodd" clip-rule="evenodd" d="M7031.32 -8.21875C7033.52 -1.17102 7036.69 5.81689 7040.84 12.6919L7061.16 46.4255C7077.5 73.5237 7077.51 102.542 7061.16 129.661L7040.84 163.393C7023.14 192.74 7023.14 224.163 7040.84 253.527L7061.16 287.261C7077.5 314.359 7077.51 343.378 7061.16 370.496L7040.84 404.229C7023.14 433.575 7023.14 464.999 7040.84 494.362L7062.44 490.913C7046.1 463.795 7046.1 434.777 7062.44 407.678L7082.77 373.944C7100.47 344.58 7100.47 313.156 7082.77 283.809L7062.44 250.078C7046.1 222.959 7046.1 193.94 7062.44 166.842L7082.77 133.109C7100.47 103.745 7100.47 72.3209 7082.77 42.9741L7062.44 9.24248C7058.98 3.49534 7056.25 -2.3372 7054.26 -8.21875H7031.32Z" fill="#B9E15E"/>
<path fill-rule="evenodd" clip-rule="evenodd" d="M7099.32 -8.21875C7101.53 -1.17102 7104.7 5.81689 7108.84 12.6919L7129.17 46.4255C7145.51 73.5237 7145.51 102.542 7129.17 129.661L7108.84 163.393C7091.15 192.74 7091.15 224.163 7108.84 253.527L7129.17 287.261C7145.51 314.359 7145.51 343.378 7129.17 370.496L7108.84 404.229C7091.15 433.575 7091.15 464.999 7108.84 494.362L7130.45 490.913C7114.11 463.795 7114.11 434.777 7130.45 407.678L7150.78 373.944C7168.47 344.58 7168.48 313.156 7150.78 283.809L7130.45 250.078C7114.11 222.959 7114.11 193.94 7130.45 166.842L7150.78 133.109C7168.47 103.745 7168.48 72.3209 7150.78 42.9741L7130.45 9.24248C7126.99 3.49534 7124.26 -2.3372 7122.26 -8.21875H7099.32Z" fill="#B9E15E"/>
</g>
<g clip-path="url(#clip8_1_9599)">
<g filter="url(#filter6_d_1_9599)">
<g clip-path="url(#clip9_1_9599)">
<rect x="7200" y="0.78125" width="1184" height="666" rx="12" fill="#F4F4EF"/>
<path fill-rule="evenodd" clip-rule="evenodd" d="M7972.5 443.781C8133.49 443.781 8264 313.272 8264 152.281C8264 -8.70965 8133.49 -139.219 7972.5 -139.219C7811.51 -139.219 7681 -8.70965 7681 152.281C7681 313.272 7811.51 443.781 7972.5 443.781ZM7972.5 392.34C8105.08 392.34 8212.56 284.863 8212.56 152.281C8212.56 19.6999 8105.08 -87.7776 7972.5 -87.7776C7839.92 -87.7776 7732.44 19.6999 7732.44 152.281C7732.44 284.863 7839.92 392.34 7972.5 392.34Z" fill="#FFD8A0"/>
<path fill-rule="evenodd" clip-rule="evenodd" d="M7783.5 935.781C8021.26 935.781 8214 743.04 8214 505.281C8214 267.523 8021.26 74.7812 7783.5 74.7812C7545.74 74.7812 7353 267.523 7353 505.281C7353 743.04 7545.74 935.781 7783.5 935.781ZM7783.5 766.958C7928.02 766.958 8045.18 649.801 8045.18 505.281C8045.18 360.761 7928.02 243.605 7783.5 243.605C7638.98 243.605 7521.82 360.761 7521.82 505.281C7521.82 649.801 7638.98 766.958 7783.5 766.958Z" fill="#FFD8A0"/>
</g>
</g>
<path fill-rule="evenodd" clip-rule="evenodd" d="M7199.5 807.781C7362.7 807.781 7495 675.481 7495 512.281C7495 349.081 7362.7 216.781 7199.5 216.781C7036.3 216.781 6904 349.081 6904 512.281C6904 675.481 7036.3 807.781 7199.5 807.781ZM7199.5 755.634C7333.9 755.634 7442.85 646.682 7442.85 512.281C7442.85 377.881 7333.9 268.928 7199.5 268.928C7065.1 268.928 6956.15 377.881 6956.15 512.281C6956.15 646.682 7065.1 755.634 7199.5 755.634Z" fill="#B9E15E"/>
<path d="M7927 216.781L8202.4 690.031H7651.6L7927 216.781Z" fill="#4C6600"/>
<path d="M8247 608.781L8014.04 208.281L8479.96 208.281L8247 608.781Z" fill="#B9E15E"/>
<rect x="6904" y="-9.21875" width="418.454" height="418.454" fill="#393A3D"/>
<circle cx="7417.9" cy="139.678" r="23.8972" fill="#393A3D"/>
<circle cx="7492.24" cy="139.678" r="23.8972" fill="#393A3D"/>
<circle cx="7566.59" cy="139.678" r="23.8972" fill="#393A3D"/>
<circle cx="7640.94" cy="139.678" r="23.8972" fill="#393A3D"/>
<circle cx="7715.28" cy="139.678" r="23.8972" fill="#393A3D"/>
<circle cx="7789.63" cy="139.678" r="23.8972" fill="#393A3D"/>
</g>
<g clip-path="url(#clip10_1_9599)">
<g filter="url(#filter7_d_1_9599)">
<g clip-path="url(#clip11_1_9599)">
<rect x="8400" y="0.78125" width="1184" height="666" rx="12" fill="#F4F4EF"/>
<path d="M9351.97 383.367C9419.68 451.076 9529.46 451.077 9597.17 383.367C9664.88 315.658 9664.88 205.879 9597.17 138.17L9351.97 383.367Z" fill="#FFD8A0"/>
<path d="M9447.8 172.379C9380.09 104.67 9270.31 104.67 9202.6 172.379C9134.89 240.088 9134.89 349.867 9202.6 417.576L9447.8 172.379Z" fill="#FFD8A0"/>
<path d="M8074 393.781C8074 662.191 8291.59 879.781 8560 879.781C8828.41 879.781 9046 662.191 9046 393.781H8074Z" fill="#B9E15E"/>
</g>
</g>
<rect x="8490" y="520.781" width="594" height="25.4076" transform="rotate(-90 8490 520.781)" fill="#393A3D"/>
<rect x="8540.81" y="520.781" width="594" height="25.4076" transform="rotate(-90 8540.81 520.781)" fill="#393A3D"/>
<rect x="8591.63" y="520.781" width="594" height="25.4076" transform="rotate(-90 8591.63 520.781)" fill="#393A3D"/>
<rect x="8642.45" y="520.781" width="594" height="25.4076" transform="rotate(-90 8642.45 520.781)" fill="#393A3D"/>
<rect x="8693.26" y="520.781" width="594" height="25.4076" transform="rotate(-90 8693.26 520.781)" fill="#393A3D"/>
<rect x="8744.08" y="520.781" width="594" height="25.4076" transform="rotate(-90 8744.08 520.781)" fill="#393A3D"/>
<rect x="8794.89" y="520.781" width="594" height="25.4076" transform="rotate(-90 8794.89 520.781)" fill="#393A3D"/>
<rect x="8845.7" y="520.781" width="594" height="25.4076" transform="rotate(-90 8845.7 520.781)" fill="#393A3D"/>
<circle cx="9018.46" cy="556.237" r="45.4558" fill="#4C6600"/>
<circle cx="9159.87" cy="556.237" r="45.4558" fill="#4C6600"/>
<circle cx="9301.29" cy="556.237" r="45.4558" fill="#4C6600"/>
<circle cx="9442.71" cy="556.237" r="45.4558" fill="#4C6600"/>
<circle cx="9584.12" cy="556.237" r="45.4558" fill="#4C6600"/>
</g>
<g clip-path="url(#clip12_1_9599)">
<g filter="url(#filter8_d_1_9599)">
<g clip-path="url(#clip13_1_9599)">
<rect x="9600" y="0.78125" width="1184" height="666" rx="12" fill="#F4F4EF"/>
<rect x="9518" y="121.781" width="1012.07" height="84.6919" fill="#FFD8A0"/>
<rect x="9518" y="290.781" width="1331" height="85" fill="#FFD8A0"/>
<rect x="9518" y="460.551" width="1012.07" height="84.6919" fill="#FFD8A0"/>
</g>
</g>
<path d="M10107 574.781C10240.1 574.781 10348 466.658 10348 333.281C10348 199.905 10240.1 91.7812 10107 91.7812L10107 186.487C10187.9 186.487 10253.5 252.209 10253.5 333.281C10253.5 414.353 10187.9 480.075 10107 480.075L10107 574.781Z" fill="#4C6600"/>
<path d="M10617 91.7812C10483.9 91.7813 10376 199.905 10376 333.281C10376 466.658 10483.9 574.781 10617 574.781L10617 480.075C10536.1 480.075 10470.5 414.354 10470.5 333.281C10470.5 252.209 10536.1 186.487 10617 186.487L10617 91.7812Z" fill="#393A3D"/>
<path d="M9558 333.781C9664.04 333.781 9750 247.596 9750 141.281C9750 34.9665 9664.04 -51.2188 9558 -51.2188L9558 333.781Z" fill="#B9E15E"/>
<path d="M10007 -51.2188C9900.96 -51.2187 9815 34.9664 9815 141.281C9815 247.596 9900.96 333.781 10007 333.781L10007 -51.2188Z" fill="#B9E15E"/>
<rect x="9567" y="362.781" width="211.73" height="27.666" fill="#393A3D"/>
<rect x="9567" y="418.113" width="211.73" height="27.666" fill="#393A3D"/>
<rect x="9567" y="473.445" width="211.73" height="27.666" fill="#393A3D"/>
<rect x="9567" y="528.777" width="211.73" height="27.666" fill="#393A3D"/>
<rect x="9567" y="584.109" width="211.73" height="27.666" fill="#393A3D"/>
<rect x="9567" y="639.441" width="211.73" height="27.666" fill="#393A3D"/>
<circle cx="10695.8" cy="179.328" r="41.5468" transform="rotate(90 10695.8 179.328)" fill="#B9E15E"/>
<circle cx="10695.8" cy="308.586" r="41.5468" transform="rotate(90 10695.8 308.586)" fill="#B9E15E"/>
<circle cx="10695.8" cy="437.84" r="41.5468" transform="rotate(90 10695.8 437.84)" fill="#B9E15E"/>
<circle cx="10695.8" cy="567.098" r="41.5468" transform="rotate(90 10695.8 567.098)" fill="#B9E15E"/>
</g>
<g clip-path="url(#clip14_1_9599)">
<g filter="url(#filter9_d_1_9599)">
<rect x="10800" y="0.78125" width="1184" height="666" rx="12" fill="#F4F4EF"/>
</g>
<rect x="11163" y="205.781" width="418" height="511" fill="#FFD8A0"/>
<rect x="11657" y="205.781" width="209" height="511" fill="#FFD8A0"/>
<path fill-rule="evenodd" clip-rule="evenodd" d="M10758.7 57.4269C10739.9 46.1063 10719.8 46.1058 10701 57.4273L10698.6 42.4601C10719 30.2012 10740.8 30.2005 10761.1 42.4599C10761.1 42.4601 10761.1 42.4597 10761.1 42.4599L10784.4 56.538C10803.2 67.8595 10823.3 67.8593 10842.1 56.5386L10865.5 42.4601C10865.5 42.4601 10865.5 42.4602 10865.5 42.4601C10885.8 30.2014 10907.6 30.2006 10927.9 42.4599C10927.9 42.4601 10927.9 42.4597 10927.9 42.4599L10951.3 56.538C10970.1 67.8595 10990.2 67.8593 11008.9 56.5386L11032.3 42.4601C11032.3 42.4601 11032.3 42.4602 11032.3 42.4601C11052.6 30.2014 11074.4 30.2005 11094.7 42.4599C11094.7 42.4601 11094.7 42.4597 11094.7 42.4599L11118.1 56.538C11136.9 67.8595 11157 67.8593 11175.7 56.5386L11199.1 42.4601C11219.4 30.2009 11241.2 30.2005 11261.5 42.4606L11259.2 57.4269C11240.4 46.1063 11220.3 46.1058 11201.5 57.4273L11178.1 71.505C11178.1 71.5052 11178.1 71.5047 11178.1 71.505C11157.8 83.7644 11136 83.7644 11115.7 71.5054L11092.3 57.4276C11073.6 46.1069 11053.5 46.1058 11034.7 57.4273L11011.3 71.505C10991 83.765 10969.2 83.7646 10948.9 71.5056C10948.9 71.5055 10948.9 71.5057 10948.9 71.5056L10925.5 57.4276C10906.7 46.1069 10886.6 46.1058 10867.9 57.4273L10844.5 71.505C10824.2 83.765 10802.4 83.7646 10782.1 71.5056C10782.1 71.5055 10782.1 71.5057 10782.1 71.5056L10758.7 57.4269Z" fill="#B9E15E"/>
<path fill-rule="evenodd" clip-rule="evenodd" d="M10758.7 115.247C10739.9 103.927 10719.8 103.926 10701 115.248L10698.6 100.28C10719 88.0215 10740.8 88.0208 10761.1 100.28C10761.1 100.28 10761.1 100.28 10761.1 100.28L10784.4 114.358C10803.2 125.68 10823.3 125.68 10842.1 114.359L10865.5 100.28C10865.5 100.28 10865.5 100.281 10865.5 100.28C10885.8 88.0217 10907.6 88.0209 10927.9 100.28C10927.9 100.28 10927.9 100.28 10927.9 100.28L10951.3 114.358C10970.1 125.68 10990.2 125.68 11008.9 114.359L11032.3 100.28C11032.3 100.28 11032.3 100.281 11032.3 100.28C11052.6 88.0217 11074.4 88.0209 11094.7 100.28C11094.7 100.28 11094.7 100.28 11094.7 100.28L11118.1 114.358C11136.9 125.68 11157 125.68 11175.7 114.359L11199.1 100.28C11219.4 88.0213 11241.2 88.0208 11261.5 100.281L11259.2 115.247C11240.4 103.927 11220.3 103.926 11201.5 115.248L11178.1 129.325C11178.1 129.325 11178.1 129.325 11178.1 129.325C11157.8 141.585 11136 141.585 11115.7 129.326L11092.3 115.248C11073.6 103.927 11053.5 103.926 11034.7 115.248L11011.3 129.325C10991 141.585 10969.2 141.585 10948.9 129.326C10948.9 129.326 10948.9 129.326 10948.9 129.326L10925.5 115.248C10906.7 103.927 10886.6 103.926 10867.9 115.248L10844.5 129.325C10824.2 141.585 10802.4 141.585 10782.1 129.326C10782.1 129.326 10782.1 129.326 10782.1 129.326L10758.7 115.247Z" fill="#B9E15E"/>
<path fill-rule="evenodd" clip-rule="evenodd" d="M10758.7 173.068C10739.9 161.747 10719.8 161.746 10701 173.068L10698.6 158.101C10719 145.842 10740.8 145.841 10761.1 158.101C10761.1 158.101 10761.1 158.1 10761.1 158.101L10784.4 172.179C10803.2 183.5 10823.3 183.5 10842.1 172.179L10865.5 158.101C10865.5 158.101 10865.5 158.101 10865.5 158.101C10885.8 145.842 10907.6 145.841 10927.9 158.101C10927.9 158.101 10927.9 158.1 10927.9 158.101L10951.3 172.179C10970.1 183.5 10990.2 183.5 11008.9 172.179L11032.3 158.101C11032.3 158.101 11032.3 158.101 11032.3 158.101C11052.6 145.842 11074.4 145.841 11094.7 158.101C11094.7 158.101 11094.7 158.1 11094.7 158.101L11118.1 172.179C11136.9 183.5 11157 183.5 11175.7 172.179L11199.1 158.101C11219.4 145.842 11241.2 145.841 11261.5 158.101L11259.2 173.068C11240.4 161.747 11220.3 161.746 11201.5 173.068L11178.1 187.146C11178.1 187.146 11178.1 187.145 11178.1 187.146C11157.8 199.405 11136 199.405 11115.7 187.146L11092.3 173.068C11073.6 161.748 11053.5 161.746 11034.7 173.068L11011.3 187.146C10991 199.406 10969.2 199.405 10948.9 187.146C10948.9 187.146 10948.9 187.146 10948.9 187.146L10925.5 173.068C10906.7 161.748 10886.6 161.746 10867.9 173.068L10844.5 187.146C10824.2 199.406 10802.4 199.405 10782.1 187.146C10782.1 187.146 10782.1 187.146 10782.1 187.146L10758.7 173.068Z" fill="#B9E15E"/>
<path fill-rule="evenodd" clip-rule="evenodd" d="M10758.7 230.888C10739.9 219.567 10719.8 219.567 10701 230.888L10698.6 215.921C10719 203.662 10740.8 203.661 10761.1 215.921C10761.1 215.921 10761.1 215.921 10761.1 215.921L10784.4 229.999C10803.2 241.32 10823.3 241.32 10842.1 230L10865.5 215.921C10865.5 215.921 10865.5 215.921 10865.5 215.921C10885.8 203.662 10907.6 203.661 10927.9 215.921C10927.9 215.921 10927.9 215.921 10927.9 215.921L10951.3 229.999C10970.1 241.32 10990.2 241.32 11008.9 230L11032.3 215.921C11032.3 215.921 11032.3 215.921 11032.3 215.921C11052.6 203.662 11074.4 203.661 11094.7 215.921C11094.7 215.921 11094.7 215.921 11094.7 215.921L11118.1 229.999C11136.9 241.32 11157 241.32 11175.7 230L11199.1 215.921C11219.4 203.662 11241.2 203.661 11261.5 215.922L11259.2 230.888C11240.4 219.567 11220.3 219.567 11201.5 230.888L11178.1 244.966C11178.1 244.966 11178.1 244.966 11178.1 244.966C11157.8 257.225 11136 257.225 11115.7 244.966L11092.3 230.888C11073.6 219.568 11053.5 219.567 11034.7 230.888L11011.3 244.966C10991 257.226 10969.2 257.226 10948.9 244.967C10948.9 244.966 10948.9 244.967 10948.9 244.967L10925.5 230.888C10906.7 219.568 10886.6 219.567 10867.9 230.888L10844.5 244.966C10824.2 257.226 10802.4 257.226 10782.1 244.967C10782.1 244.966 10782.1 244.967 10782.1 244.967L10758.7 230.888Z" fill="#B9E15E"/>
<rect x="10991" y="269.25" width="127.469" height="25.4076" transform="rotate(-90 10991 269.25)" fill="#393A3D"/>
<rect x="11041.8" y="269.25" width="127.469" height="25.4076" transform="rotate(-90 11041.8 269.25)" fill="#393A3D"/>
<rect x="11092.6" y="269.25" width="127.469" height="25.4076" transform="rotate(-90 11092.6 269.25)" fill="#393A3D"/>
<rect x="11143.4" y="269.25" width="127.469" height="25.4076" transform="rotate(-90 11143.4 269.25)" fill="#393A3D"/>
<rect x="11194.3" y="269.25" width="127.469" height="25.4076" transform="rotate(-90 11194.3 269.25)" fill="#393A3D"/>
<rect x="11245.1" y="269.25" width="127.469" height="25.4076" transform="rotate(-90 11245.1 269.25)" fill="#393A3D"/>
<rect x="11295.9" y="269.25" width="127.469" height="25.4076" transform="rotate(-90 11295.9 269.25)" fill="#393A3D"/>
<rect x="11346.7" y="269.25" width="127.469" height="25.4076" transform="rotate(-90 11346.7 269.25)" fill="#393A3D"/>
<rect x="10485" y="333.781" width="1012.07" height="84.6919" fill="#4C6600"/>
<rect x="10485" y="503.164" width="1012.07" height="84.6919" fill="#4C6600"/>
<rect x="10485" y="672.551" width="1012.07" height="84.6919" fill="#4C6600"/>
<path fill-rule="evenodd" clip-rule="evenodd" d="M11912.5 413.781C12083.4 413.781 12222 275.213 12222 104.281C12222 -66.6508 12083.4 -205.219 11912.5 -205.219C11741.6 -205.219 11603 -66.6508 11603 104.281C11603 275.213 11741.6 413.781 11912.5 413.781ZM11912.5 359.164C12053.3 359.164 12167.4 245.049 12167.4 104.281C12167.4 -36.4869 12053.3 -150.601 11912.5 -150.601C11771.7 -150.601 11657.6 -36.4869 11657.6 104.281C11657.6 245.049 11771.7 359.164 11912.5 359.164Z" fill="#B9E15E"/>
<rect x="11901" y="-114.219" width="197" height="702" fill="#393A3D"/>
</g>
<g clip-path="url(#clip15_1_9599)">
<g filter="url(#filter10_d_1_9599)">
<rect x="12000" y="0.78125" width="1184" height="666" rx="12" fill="#F4F4EF"/>
</g>
<circle cx="12082.5" cy="230.281" r="30.5" fill="#FFD8A0"/>
<circle cx="12176.5" cy="230.281" r="30.5" fill="#FFD8A0"/>
<circle cx="12271.5" cy="230.281" r="30.5" fill="#FFD8A0"/>
<circle cx="12365.5" cy="230.281" r="30.5" fill="#FFD8A0"/>
<circle cx="12460.5" cy="230.281" r="30.5" fill="#FFD8A0"/>
<circle cx="12554.5" cy="230.281" r="30.5" fill="#FFD8A0"/>
<circle cx="12649.5" cy="230.281" r="30.5" fill="#FFD8A0"/>
<circle cx="12743.5" cy="230.281" r="30.5" fill="#FFD8A0"/>
<rect x="11950" y="315.781" width="418.454" height="418.454" fill="#B9E15E"/>
<rect x="12444" y="315.781" width="209.227" height="418.454" fill="#B9E15E"/>
<circle cx="12669.6" cy="423.922" r="54.1408" fill="#FFD8A0"/>
<circle cx="12838" cy="423.922" r="54.1408" fill="#FFD8A0"/>
<circle cx="13006.5" cy="423.922" r="54.1408" fill="#FFD8A0"/>
<circle cx="13174.9" cy="423.922" r="54.1408" fill="#FFD8A0"/>
<path fill-rule="evenodd" clip-rule="evenodd" d="M12939.4 179.109C12913.5 163.462 12885.7 163.462 12859.7 179.109L12856.4 158.423C12884.5 141.479 12914.6 141.478 12942.7 158.422C12942.7 158.423 12942.7 158.422 12942.7 158.422L12975 177.88C13001 193.528 13028.7 193.527 13054.7 177.881L13087 158.423C13087 158.423 13087 158.423 13087 158.423C13115.1 141.48 13145.2 141.479 13173.3 158.422C13173.3 158.423 13173.3 158.422 13173.3 158.422L13205.6 177.88C13231.5 193.528 13259.3 193.527 13285.3 177.881L13317.5 158.423C13317.5 158.423 13317.5 158.423 13317.5 158.423C13345.7 141.48 13375.7 141.479 13403.8 158.422C13403.8 158.423 13403.8 158.422 13403.8 158.422L13436.1 177.88C13462.1 193.528 13489.9 193.527 13515.8 177.881L13548.1 158.423C13576.2 141.479 13606.3 141.478 13634.4 158.423L13631.1 179.109C13605.2 163.462 13577.4 163.462 13551.4 179.109L13519.1 198.566C13519.1 198.567 13519.1 198.566 13519.1 198.566C13491 215.51 13460.9 215.51 13432.8 198.567L13400.5 179.11C13374.6 163.463 13346.8 163.462 13320.8 179.109L13288.6 198.566C13260.5 215.511 13230.4 215.511 13202.3 198.567C13202.3 198.567 13202.3 198.567 13202.3 198.567L13170 179.11C13144 163.463 13116.2 163.462 13090.3 179.109L13058 198.566C13029.9 215.511 12999.8 215.511 12971.7 198.567C12971.7 198.567 12971.7 198.567 12971.7 198.567L12939.4 179.109Z" fill="#B9E15E"/>
<path fill-rule="evenodd" clip-rule="evenodd" d="M12939.4 259.023C12913.5 243.376 12885.7 243.376 12859.7 259.023L12856.4 238.337C12884.5 221.393 12914.6 221.393 12942.7 238.337C12942.7 238.337 12942.7 238.336 12942.7 238.337L12975 257.794C13001 273.442 13028.7 273.441 13054.7 257.795L13087 238.337C13087 238.337 13087 238.337 13087 238.337C13115.1 221.394 13145.2 221.393 13173.3 238.337C13173.3 238.337 13173.3 238.336 13173.3 238.337L13205.6 257.794C13231.5 273.442 13259.3 273.441 13285.3 257.795L13317.5 238.337C13317.5 238.337 13317.5 238.337 13317.5 238.337C13345.7 221.394 13375.7 221.393 13403.8 238.337C13403.8 238.337 13403.8 238.336 13403.8 238.337L13436.1 257.794C13462.1 273.442 13489.9 273.441 13515.8 257.795L13548.1 238.337C13576.2 221.393 13606.3 221.393 13634.4 238.337L13631.1 259.023C13605.2 243.376 13577.4 243.376 13551.4 259.023L13519.1 278.48C13519.1 278.481 13519.1 278.48 13519.1 278.48C13491 295.424 13460.9 295.424 13432.8 278.481L13400.5 259.024C13374.6 243.377 13346.8 243.376 13320.8 259.023L13288.6 278.48C13260.5 295.425 13230.4 295.425 13202.3 278.481C13202.3 278.481 13202.3 278.481 13202.3 278.481L13170 259.024C13144 243.377 13116.2 243.376 13090.3 259.023L13058 278.48C13029.9 295.425 12999.8 295.425 12971.7 278.481C12971.7 278.481 12971.7 278.481 12971.7 278.481L12939.4 259.023Z" fill="#B9E15E"/>
<path fill-rule="evenodd" clip-rule="evenodd" d="M12939.4 338.937C12913.5 323.29 12885.7 323.29 12859.7 338.937L12856.4 318.251C12884.5 301.308 12914.6 301.307 12942.7 318.251C12942.7 318.251 12942.7 318.25 12942.7 318.251L12975 337.708C13001 353.356 13028.7 353.356 13054.7 337.709L13087 318.251C13087 318.251 13087 318.251 13087 318.251C13115.1 301.308 13145.2 301.307 13173.3 318.251C13173.3 318.251 13173.3 318.25 13173.3 318.251L13205.6 337.708C13231.5 353.356 13259.3 353.356 13285.3 337.709L13317.5 318.251C13317.5 318.251 13317.5 318.251 13317.5 318.251C13345.7 301.308 13375.7 301.307 13403.8 318.251C13403.8 318.251 13403.8 318.25 13403.8 318.251L13436.1 337.708C13462.1 353.356 13489.9 353.356 13515.8 337.709L13548.1 318.251C13576.2 301.307 13606.3 301.307 13634.4 318.252L13631.1 338.937C13605.2 323.29 13577.4 323.29 13551.4 338.937L13519.1 358.394C13519.1 358.395 13519.1 358.394 13519.1 358.394C13491 375.338 13460.9 375.338 13432.8 358.395L13400.5 338.938C13374.6 323.291 13346.8 323.29 13320.8 338.937L13288.6 358.394C13260.5 375.339 13230.4 375.339 13202.3 358.395C13202.3 358.395 13202.3 358.395 13202.3 358.395L13170 338.938C13144 323.291 13116.2 323.29 13090.3 338.937L13058 358.394C13029.9 375.339 12999.8 375.339 12971.7 358.395C12971.7 358.395 12971.7 358.395 12971.7 358.395L12939.4 338.937Z" fill="#B9E15E"/>
<path fill-rule="evenodd" clip-rule="evenodd" d="M12939.4 418.855C12913.5 403.208 12885.7 403.208 12859.7 418.855L12856.4 398.169C12884.5 381.225 12914.6 381.225 12942.7 398.169C12942.7 398.169 12942.7 398.168 12942.7 398.169L12975 417.626C13001 433.274 13028.7 433.274 13054.7 417.627L13087 398.169C13087 398.169 13087 398.169 13087 398.169C13115.1 381.226 13145.2 381.225 13173.3 398.169C13173.3 398.169 13173.3 398.168 13173.3 398.169L13205.6 417.626C13231.5 433.274 13259.3 433.274 13285.3 417.627L13317.5 398.169C13317.5 398.169 13317.5 398.169 13317.5 398.169C13345.7 381.226 13375.7 381.225 13403.8 398.169C13403.8 398.169 13403.8 398.168 13403.8 398.169L13436.1 417.626C13462.1 433.274 13489.9 433.274 13515.8 417.627L13548.1 398.169C13576.2 381.225 13606.3 381.225 13634.4 398.169L13631.1 418.855C13605.2 403.208 13577.4 403.208 13551.4 418.855L13519.1 438.312C13519.1 438.313 13519.1 438.312 13519.1 438.312C13491 455.256 13460.9 455.256 13432.8 438.313L13400.5 418.856C13374.6 403.209 13346.8 403.208 13320.8 418.855L13288.6 438.312C13260.5 455.257 13230.4 455.257 13202.3 438.313C13202.3 438.313 13202.3 438.313 13202.3 438.313L13170 418.856C13144 403.209 13116.2 403.208 13090.3 418.855L13058 438.312C13029.9 455.257 12999.8 455.257 12971.7 438.313C12971.7 438.313 12971.7 438.313 12971.7 438.313L12939.4 418.855Z" fill="#B9E15E"/>
<path d="M12278.7 328.883C12342.9 393.043 12446.9 393.043 12511 328.883C12575.2 264.722 12575.2 160.697 12511 96.5368L12278.7 328.883Z" fill="#4C6600"/>
<path d="M12369.5 128.953C12305.4 64.7926 12201.3 64.7925 12137.2 128.953C12073 193.114 12073 297.139 12137.2 361.299L12369.5 128.953Z" fill="#393A3D"/>
<rect x="12146" y="543.781" width="1244.97" height="27.1021" fill="#393A3D"/>
<rect x="12146" y="599.781" width="1245" height="79" fill="#393A3D"/>
</g>
<g clip-path="url(#clip16_1_9599)">
<g filter="url(#filter11_d_1_9599)">
<g clip-path="url(#clip17_1_9599)">
<rect x="13200" y="0.78125" width="1184" height="666" rx="12" fill="#F4F4EF"/>
<path d="M13137 472.781C13137 629.63 13264.2 756.781 13421 756.781C13577.8 756.781 13705 629.63 13705 472.781H13137Z" fill="#FFD8A0"/>
</g>
</g>
<path fill-rule="evenodd" clip-rule="evenodd" d="M14053.3 330.011C14028.4 315.014 14001.8 315.013 13976.9 330.012L13970.3 288.639C13999.5 271.048 14030.7 271.046 14059.9 288.639C14059.9 288.639 14059.9 288.639 14059.9 288.639C14059.9 288.639 14059.9 288.64 14059.9 288.641L14092.2 308.096C14117 323.096 14143.7 323.095 14168.5 308.098L14168.5 308.096L14200.8 288.639C14200.8 288.639 14200.8 288.64 14200.8 288.639C14230 271.049 14261.3 271.047 14290.4 288.639C14290.4 288.639 14290.4 288.64 14290.4 288.641L14322.7 308.096C14347.6 323.096 14374.2 323.095 14399.1 308.098L14399.1 308.096L14431.4 288.639C14431.4 288.639 14431.4 288.64 14431.4 288.639C14460.6 271.049 14491.8 271.047 14521 288.639C14521 288.639 14521 288.64 14521 288.641L14553.3 308.096C14578.2 323.096 14604.8 323.095 14629.7 308.098L14629.7 308.096L14662 288.639C14662 288.639 14662 288.64 14662 288.639C14691.2 271.048 14722.4 271.047 14751.6 288.641L14745 330.011C14720.1 315.014 14693.5 315.013 14668.6 330.012L14636.3 349.469C14636.3 349.469 14636.3 349.47 14636.3 349.471C14607.1 367.063 14575.9 367.061 14546.7 349.47L14514.4 330.013L14514.4 330.011C14489.5 315.014 14462.9 315.013 14438 330.012L14405.7 349.469C14405.7 349.469 14405.7 349.47 14405.7 349.471C14376.5 367.063 14345.3 367.061 14316.1 349.471C14316.1 349.47 14316.1 349.471 14316.1 349.471L14283.8 330.011C14259 315.014 14232.3 315.013 14207.4 330.012L14175.1 349.469C14175.1 349.469 14175.1 349.47 14175.1 349.471C14146 367.063 14114.7 367.061 14085.6 349.471C14085.6 349.47 14085.6 349.471 14085.6 349.471L14053.3 330.011Z" fill="#B9E15E"/>
<path fill-rule="evenodd" clip-rule="evenodd" d="M14053.3 409.925C14028.4 394.928 14001.8 394.927 13976.9 409.926L13970.3 368.553C13999.5 350.962 14030.7 350.961 14059.9 368.553C14059.9 368.553 14059.9 368.553 14059.9 368.553C14059.9 368.553 14059.9 368.554 14059.9 368.555L14092.2 388.01C14117 403.01 14143.7 403.009 14168.5 388.012L14168.5 388.01L14200.8 368.553C14200.8 368.553 14200.8 368.554 14200.8 368.553C14230 350.963 14261.3 350.961 14290.4 368.553C14290.4 368.553 14290.4 368.554 14290.4 368.555L14322.7 388.01C14347.6 403.01 14374.2 403.009 14399.1 388.012L14399.1 388.01L14431.4 368.553C14431.4 368.553 14431.4 368.554 14431.4 368.553C14460.6 350.963 14491.8 350.961 14521 368.553C14521 368.553 14521 368.554 14521 368.555L14553.3 388.01C14578.2 403.01 14604.8 403.009 14629.7 388.012L14629.7 388.01L14662 368.553C14662 368.553 14662 368.554 14662 368.553C14691.2 350.962 14722.4 350.961 14751.6 368.555L14745 409.925C14720.1 394.928 14693.5 394.927 14668.6 409.926L14636.3 429.383C14636.3 429.383 14636.3 429.384 14636.3 429.385C14607.1 446.977 14575.9 446.975 14546.7 429.384L14514.4 409.927L14514.4 409.925C14489.5 394.928 14462.9 394.927 14438 409.926L14405.7 429.383C14405.7 429.383 14405.7 429.384 14405.7 429.385C14376.5 446.977 14345.3 446.975 14316.1 429.385C14316.1 429.384 14316.1 429.385 14316.1 429.385L14283.8 409.925C14259 394.928 14232.3 394.927 14207.4 409.926L14175.1 429.383C14175.1 429.383 14175.1 429.384 14175.1 429.385C14146 446.977 14114.7 446.975 14085.6 429.385C14085.6 429.384 14085.6 429.385 14085.6 429.385L14053.3 409.925Z" fill="#B9E15E"/>
<path fill-rule="evenodd" clip-rule="evenodd" d="M14053.3 489.839C14028.4 474.842 14001.8 474.841 13976.9 489.84L13970.3 448.468C13999.5 430.876 14030.7 430.875 14059.9 448.467C14059.9 448.467 14059.9 448.467 14059.9 448.467C14059.9 448.467 14059.9 448.468 14059.9 448.469L14092.2 467.924C14117 482.924 14143.7 482.924 14168.5 467.926L14168.5 467.924L14200.8 448.468C14200.8 448.467 14200.8 448.468 14200.8 448.468C14230 430.877 14261.3 430.875 14290.4 448.467C14290.4 448.468 14290.4 448.468 14290.4 448.469L14322.7 467.924C14347.6 482.924 14374.2 482.924 14399.1 467.926L14399.1 467.924L14431.4 448.468C14431.4 448.467 14431.4 448.468 14431.4 448.468C14460.6 430.877 14491.8 430.875 14521 448.467C14521 448.468 14521 448.468 14521 448.469L14553.3 467.924C14578.2 482.924 14604.8 482.924 14629.7 467.926L14629.7 467.924L14662 448.468C14662 448.467 14662 448.468 14662 448.468C14691.2 430.876 14722.4 430.875 14751.6 448.469L14745 489.839C14720.1 474.842 14693.5 474.841 14668.6 489.84L14636.3 509.297C14636.3 509.297 14636.3 509.298 14636.3 509.299C14607.1 526.891 14575.9 526.889 14546.7 509.298L14514.4 489.841L14514.4 489.839C14489.5 474.842 14462.9 474.841 14438 489.84L14405.7 509.297C14405.7 509.297 14405.7 509.298 14405.7 509.299C14376.5 526.891 14345.3 526.889 14316.1 509.299C14316.1 509.298 14316.1 509.299 14316.1 509.299L14283.8 489.839C14259 474.842 14232.3 474.841 14207.4 489.84L14175.1 509.297C14175.1 509.297 14175.1 509.298 14175.1 509.299C14146 526.891 14114.7 526.889 14085.6 509.299C14085.6 509.298 14085.6 509.299 14085.6 509.299L14053.3 489.839Z" fill="#B9E15E"/>
<path fill-rule="evenodd" clip-rule="evenodd" d="M14053.3 569.757C14028.4 554.76 14001.8 554.759 13976.9 569.758L13970.3 528.386C13999.5 510.794 14030.7 510.793 14059.9 528.385C14059.9 528.385 14059.9 528.385 14059.9 528.385C14059.9 528.385 14059.9 528.386 14059.9 528.387L14092.2 547.842C14117 562.842 14143.7 562.842 14168.5 547.844L14168.5 547.842L14200.8 528.386C14200.8 528.385 14200.8 528.386 14200.8 528.386C14230 510.795 14261.3 510.793 14290.4 528.385C14290.4 528.385 14290.4 528.386 14290.4 528.387L14322.7 547.842C14347.6 562.842 14374.2 562.842 14399.1 547.844L14399.1 547.842L14431.4 528.386C14431.4 528.385 14431.4 528.386 14431.4 528.386C14460.6 510.795 14491.8 510.793 14521 528.385C14521 528.385 14521 528.386 14521 528.387L14553.3 547.842C14578.2 562.842 14604.8 562.842 14629.7 547.844L14629.7 547.842L14662 528.386C14662 528.385 14662 528.386 14662 528.386C14691.2 510.794 14722.4 510.793 14751.6 528.387L14745 569.757C14720.1 554.76 14693.5 554.759 14668.6 569.758L14636.3 589.215C14636.3 589.215 14636.3 589.216 14636.3 589.217C14607.1 606.809 14575.9 606.807 14546.7 589.216L14514.4 569.759L14514.4 569.757C14489.5 554.76 14462.9 554.759 14438 569.758L14405.7 589.215C14405.7 589.215 14405.7 589.216 14405.7 589.217C14376.5 606.809 14345.3 606.807 14316.1 589.217C14316.1 589.216 14316.1 589.217 14316.1 589.217L14283.8 569.757C14259 554.76 14232.3 554.759 14207.4 569.758L14175.1 589.215C14175.1 589.215 14175.1 589.216 14175.1 589.217C14146 606.809 14114.7 606.807 14085.6 589.217C14085.6 589.216 14085.6 589.217 14085.6 589.217L14053.3 569.757Z" fill="#B9E15E"/>
<path d="M14306.8 225.16C14306.8 129.405 14229.1 51.7795 14133.4 51.7795C14037.6 51.7795 13960 129.405 13960 225.16L14306.8 225.16Z" fill="#FFD8A0"/>
<path d="M13312 -122.219V399.781H12790L13312 -122.219Z" fill="#4C6600"/>
<path d="M13375 -122.219V399.781H13897L13375 -122.219Z" fill="#B9E15E"/>
<circle cx="13398.9" cy="551.678" r="23.8972" fill="#393A3D"/>
<circle cx="13473.2" cy="551.678" r="23.8972" fill="#393A3D"/>
<circle cx="13547.6" cy="551.678" r="23.8972" fill="#393A3D"/>
<circle cx="13621.9" cy="551.678" r="23.8972" fill="#393A3D"/>
<circle cx="13696.3" cy="551.678" r="23.8972" fill="#393A3D"/>
<circle cx="13770.6" cy="551.678" r="23.8972" fill="#393A3D"/>
<path fill-rule="evenodd" clip-rule="evenodd" d="M14062.1 224.781C14064.2 232.594 14067.6 240.341 14072.2 247.944L14091.6 280.239C14107.3 306.181 14107.3 333.962 14091.6 359.924L14072.2 392.218C14055.2 420.313 14055.2 450.397 14072.2 478.508L14091.6 510.804C14107.3 536.746 14107.3 564.527 14091.6 590.489L14072.2 622.783C14055.2 650.878 14055.2 680.962 14072.2 709.073L14092.9 705.771C14077.2 679.809 14077.2 652.029 14092.9 626.086L14112.3 593.79C14129.3 565.678 14129.3 535.595 14112.3 507.499L14092.9 475.206C14077.2 449.244 14077.2 421.462 14092.9 395.52L14112.3 363.225C14129.3 335.114 14129.3 305.03 14112.3 276.934L14092.9 244.641C14088.9 238.117 14086 231.478 14084 224.781H14062.1Z" fill="#393A3D"/>
<path fill-rule="evenodd" clip-rule="evenodd" d="M14127.2 224.781C14129.3 232.594 14132.7 240.341 14137.3 247.944L14156.7 280.239C14172.4 306.181 14172.4 333.962 14156.7 359.924L14137.3 392.218C14120.3 420.313 14120.3 450.397 14137.3 478.508L14156.7 510.804C14172.4 536.746 14172.4 564.527 14156.7 590.489L14137.3 622.783C14120.3 650.878 14120.3 680.962 14137.3 709.073L14158 705.771C14142.3 679.809 14142.3 652.029 14158 626.086L14177.4 593.79C14194.4 565.678 14194.4 535.595 14177.4 507.499L14158 475.206C14142.3 449.244 14142.3 421.462 14158 395.52L14177.4 363.225C14194.4 335.114 14194.4 305.03 14177.4 276.934L14158 244.641C14154 238.117 14151.1 231.478 14149.1 224.781H14127.2Z" fill="#393A3D"/>
<path fill-rule="evenodd" clip-rule="evenodd" d="M14192.3 224.781C14194.5 232.594 14197.8 240.341 14202.4 247.944L14221.8 280.239C14237.5 306.181 14237.5 333.962 14221.8 359.924L14202.4 392.218C14185.4 420.313 14185.4 450.397 14202.4 478.508L14221.8 510.804C14237.5 536.746 14237.5 564.527 14221.8 590.489L14202.4 622.783C14185.4 650.878 14185.4 680.962 14202.4 709.073L14223.1 705.771C14207.4 679.809 14207.4 652.029 14223.1 626.086L14242.5 593.79C14259.5 565.678 14259.5 535.595 14242.5 507.499L14223.1 475.206C14207.4 449.244 14207.4 421.462 14223.1 395.52L14242.5 363.225C14259.5 335.114 14259.5 305.03 14242.5 276.934L14223.1 244.641C14219.1 238.117 14216.2 231.478 14214.2 224.781H14192.3Z" fill="#393A3D"/>
</g>
<g clip-path="url(#clip18_1_9599)">
<g filter="url(#filter12_d_1_9599)">
<g clip-path="url(#clip19_1_9599)">
<rect x="14400" y="0.78125" width="1184" height="666" rx="12" fill="#F4F4EF"/>
<path d="M15538 -68.2188V721.781H14748L15538 -68.2188Z" fill="#FFD8A0"/>
</g>
</g>
<circle cx="14445" cy="333.781" r="412" fill="#B9E15E"/>
<path fill-rule="evenodd" clip-rule="evenodd" d="M14721.2 189.132C14696.3 174.135 14669.7 174.134 14644.8 189.133L14638.2 147.761C14667.4 130.169 14698.6 130.168 14727.8 147.76C14727.8 147.76 14727.8 147.76 14727.8 147.76C14727.8 147.76 14727.8 147.761 14727.8 147.762L14760.1 167.217C14784.9 182.217 14811.6 182.217 14836.4 167.219L14836.4 167.217L14868.7 147.761C14868.7 147.76 14868.7 147.761 14868.7 147.761C14897.9 130.17 14929.2 130.168 14958.3 147.76C14958.3 147.76 14958.3 147.761 14958.3 147.762L14990.6 167.217C15015.5 182.217 15042.1 182.217 15067 167.219L15067 167.217L15099.3 147.761C15099.3 147.76 15099.3 147.761 15099.3 147.761C15128.5 130.17 15159.7 130.168 15188.9 147.76C15188.9 147.76 15188.9 147.761 15188.9 147.762L15221.2 167.217C15246.1 182.217 15272.7 182.217 15297.6 167.219L15297.6 167.217L15329.9 147.761C15329.9 147.76 15329.9 147.761 15329.9 147.761C15359.1 130.169 15390.3 130.168 15419.5 147.762L15412.9 189.132C15388 174.135 15361.4 174.134 15336.5 189.133L15304.2 208.59C15304.2 208.59 15304.2 208.591 15304.2 208.592C15275 226.184 15243.8 226.182 15214.6 208.591L15182.3 189.134L15182.3 189.132C15157.4 174.135 15130.8 174.134 15105.9 189.133L15073.6 208.59C15073.6 208.59 15073.6 208.591 15073.6 208.592C15044.4 226.184 15013.2 226.182 14984 208.592C14984 208.591 14984 208.592 14984 208.592L14951.7 189.132C14926.9 174.135 14900.2 174.134 14875.3 189.133L14843.1 208.59C14843.1 208.59 14843.1 208.591 14843.1 208.592C14813.9 226.184 14782.6 226.182 14753.5 208.592C14753.5 208.591 14753.5 208.592 14753.5 208.592L14721.2 189.132Z" fill="#4C6600"/>
<path fill-rule="evenodd" clip-rule="evenodd" d="M14721.2 269.046C14696.3 254.049 14669.7 254.048 14644.8 269.047L14638.2 227.675C14667.4 210.083 14698.6 210.082 14727.8 227.674C14727.8 227.674 14727.8 227.674 14727.8 227.674C14727.8 227.674 14727.8 227.675 14727.8 227.676L14760.1 247.132C14784.9 262.131 14811.6 262.131 14836.4 247.133L14836.4 247.132L14868.7 227.675C14868.7 227.674 14868.7 227.675 14868.7 227.675C14897.9 210.084 14929.2 210.082 14958.3 227.674C14958.3 227.675 14958.3 227.675 14958.3 227.676L14990.6 247.132C15015.5 262.131 15042.1 262.131 15067 247.133L15067 247.132L15099.3 227.675C15099.3 227.674 15099.3 227.675 15099.3 227.675C15128.5 210.084 15159.7 210.082 15188.9 227.674C15188.9 227.675 15188.9 227.675 15188.9 227.676L15221.2 247.132C15246.1 262.131 15272.7 262.131 15297.6 247.133L15297.6 247.132L15329.9 227.675C15329.9 227.674 15329.9 227.675 15329.9 227.675C15359.1 210.083 15390.3 210.082 15419.5 227.676L15412.9 269.046C15388 254.049 15361.4 254.048 15336.5 269.047L15304.2 288.504C15304.2 288.504 15304.2 288.505 15304.2 288.506C15275 306.098 15243.8 306.096 15214.6 288.505L15182.3 269.048L15182.3 269.046C15157.4 254.049 15130.8 254.048 15105.9 269.047L15073.6 288.504C15073.6 288.504 15073.6 288.505 15073.6 288.506C15044.4 306.098 15013.2 306.096 14984 288.506C14984 288.505 14984 288.506 14984 288.506L14951.7 269.046C14926.9 254.049 14900.2 254.048 14875.3 269.047L14843.1 288.504C14843.1 288.504 14843.1 288.505 14843.1 288.506C14813.9 306.098 14782.6 306.096 14753.5 288.506C14753.5 288.505 14753.5 288.506 14753.5 288.506L14721.2 269.046Z" fill="#4C6600"/>
<path fill-rule="evenodd" clip-rule="evenodd" d="M14721.2 348.96C14696.3 333.963 14669.7 333.962 14644.8 348.962L14638.2 307.589C14667.4 289.998 14698.6 289.996 14727.8 307.588C14727.8 307.588 14727.8 307.588 14727.8 307.588C14727.8 307.588 14727.8 307.589 14727.8 307.59L14760.1 327.046C14784.9 342.045 14811.6 342.045 14836.4 327.047L14836.4 327.046L14868.7 307.589C14868.7 307.588 14868.7 307.589 14868.7 307.589C14897.9 289.998 14929.2 289.996 14958.3 307.588C14958.3 307.589 14958.3 307.589 14958.3 307.59L14990.6 327.046C15015.5 342.045 15042.1 342.045 15067 327.047L15067 327.046L15099.3 307.589C15099.3 307.588 15099.3 307.589 15099.3 307.589C15128.5 289.998 15159.7 289.996 15188.9 307.588C15188.9 307.589 15188.9 307.589 15188.9 307.59L15221.2 327.046C15246.1 342.045 15272.7 342.045 15297.6 327.047L15297.6 327.046L15329.9 307.589C15329.9 307.588 15329.9 307.589 15329.9 307.589C15359.1 289.998 15390.3 289.996 15419.5 307.59L15412.9 348.96C15388 333.963 15361.4 333.962 15336.5 348.962L15304.2 368.418C15304.2 368.419 15304.2 368.419 15304.2 368.42C15275 386.012 15243.8 386.01 15214.6 368.419L15182.3 348.962L15182.3 348.96C15157.4 333.963 15130.8 333.962 15105.9 348.962L15073.6 368.418C15073.6 368.419 15073.6 368.419 15073.6 368.42C15044.4 386.012 15013.2 386.01 14984 368.42C14984 368.42 14984 368.42 14984 368.42L14951.7 348.96C14926.9 333.963 14900.2 333.962 14875.3 348.962L14843.1 368.418C14843.1 368.419 14843.1 368.419 14843.1 368.42C14813.9 386.012 14782.6 386.01 14753.5 368.42C14753.5 368.42 14753.5 368.42 14753.5 368.42L14721.2 348.96Z" fill="#4C6600"/>
<path fill-rule="evenodd" clip-rule="evenodd" d="M14721.2 428.878C14696.3 413.881 14669.7 413.88 14644.8 428.88L14638.2 387.507C14667.4 369.916 14698.6 369.914 14727.8 387.506C14727.8 387.506 14727.8 387.506 14727.8 387.506C14727.8 387.506 14727.8 387.507 14727.8 387.508L14760.1 406.964C14784.9 421.963 14811.6 421.963 14836.4 406.965L14836.4 406.964L14868.7 387.507C14868.7 387.506 14868.7 387.507 14868.7 387.507C14897.9 369.916 14929.2 369.914 14958.3 387.506C14958.3 387.507 14958.3 387.507 14958.3 387.508L14990.6 406.964C15015.5 421.963 15042.1 421.963 15067 406.965L15067 406.964L15099.3 387.507C15099.3 387.506 15099.3 387.507 15099.3 387.507C15128.5 369.916 15159.7 369.914 15188.9 387.506C15188.9 387.507 15188.9 387.507 15188.9 387.508L15221.2 406.964C15246.1 421.963 15272.7 421.963 15297.6 406.965L15297.6 406.964L15329.9 387.507C15329.9 387.506 15329.9 387.507 15329.9 387.507C15359.1 369.916 15390.3 369.914 15419.5 387.508L15412.9 428.878C15388 413.881 15361.4 413.88 15336.5 428.88L15304.2 448.336C15304.2 448.337 15304.2 448.337 15304.2 448.338C15275 465.93 15243.8 465.928 15214.6 448.337L15182.3 428.88L15182.3 428.878C15157.4 413.881 15130.8 413.88 15105.9 428.88L15073.6 448.336C15073.6 448.337 15073.6 448.337 15073.6 448.338C15044.4 465.93 15013.2 465.928 14984 448.338C14984 448.338 14984 448.338 14984 448.338L14951.7 428.878C14926.9 413.881 14900.2 413.88 14875.3 428.88L14843.1 448.336C14843.1 448.337 14843.1 448.337 14843.1 448.338C14813.9 465.93 14782.6 465.928 14753.5 448.338C14753.5 448.338 14753.5 448.338 14753.5 448.338L14721.2 428.878Z" fill="#4C6600"/>
<path fill-rule="evenodd" clip-rule="evenodd" d="M14721.2 508.792C14696.3 493.795 14669.7 493.794 14644.8 508.794L14638.2 467.421C14667.4 449.83 14698.6 449.828 14727.8 467.42C14727.8 467.42 14727.8 467.42 14727.8 467.42C14727.8 467.421 14727.8 467.421 14727.8 467.422L14760.1 486.878C14784.9 501.877 14811.6 501.877 14836.4 486.879L14836.4 486.878L14868.7 467.421C14868.7 467.42 14868.7 467.421 14868.7 467.421C14897.9 449.83 14929.2 449.828 14958.3 467.42C14958.3 467.421 14958.3 467.421 14958.3 467.422L14990.6 486.878C15015.5 501.877 15042.1 501.877 15067 486.879L15067 486.878L15099.3 467.421C15099.3 467.42 15099.3 467.421 15099.3 467.421C15128.5 449.83 15159.7 449.828 15188.9 467.42C15188.9 467.421 15188.9 467.421 15188.9 467.422L15221.2 486.878C15246.1 501.877 15272.7 501.877 15297.6 486.879L15297.6 486.878L15329.9 467.421C15329.9 467.42 15329.9 467.421 15329.9 467.421C15359.1 449.83 15390.3 449.828 15419.5 467.422L15412.9 508.792C15388 493.795 15361.4 493.794 15336.5 508.794L15304.2 528.25C15304.2 528.251 15304.2 528.251 15304.2 528.252C15275 545.844 15243.8 545.842 15214.6 528.251L15182.3 508.794L15182.3 508.792C15157.4 493.795 15130.8 493.794 15105.9 508.794L15073.6 528.25C15073.6 528.251 15073.6 528.251 15073.6 528.252C15044.4 545.844 15013.2 545.842 14984 528.252C14984 528.252 14984 528.252 14984 528.252L14951.7 508.792C14926.9 493.795 14900.2 493.794 14875.3 508.794L14843.1 528.25C14843.1 528.251 14843.1 528.251 14843.1 528.252C14813.9 545.844 14782.6 545.842 14753.5 528.252C14753.5 528.252 14753.5 528.252 14753.5 528.252L14721.2 508.792Z" fill="#4C6600"/>
<rect x="15485" y="-9.21875" width="418" height="517" fill="#393A3D"/>
<rect x="14180" y="38.7812" width="301.531" height="39.4" fill="#F4F4EF"/>
<rect x="14180" y="117.582" width="301.531" height="39.4" fill="#F4F4EF"/>
<rect x="14180" y="196.383" width="301.531" height="39.4" fill="#F4F4EF"/>
<rect x="14180" y="275.18" width="301.531" height="39.4" fill="#F4F4EF"/>
<rect x="14180" y="353.98" width="301.531" height="39.4" fill="#F4F4EF"/>
<rect x="14180" y="432.781" width="301.531" height="39.4" fill="#F4F4EF"/>
<rect x="14180" y="511.582" width="301.531" height="39.4" fill="#F4F4EF"/>
<rect x="14180" y="590.383" width="301.531" height="39.4" fill="#F4F4EF"/>
</g>
<g clip-path="url(#clip20_1_9599)">
<rect x="15600" y="0.78125" width="1184" height="666" rx="12" fill="#F4F4EF"/>
<path d="M16784 0.78125V666.781H16126L16784 0.78125Z" fill="#FFD8A0"/>
<path d="M15600 666.781L15600 0.781298L16258 0.78124L15600 666.781Z" fill="#B9E15E"/>
<circle cx="16005.9" cy="333.678" r="23.8972" fill="#393A3D"/>
<circle cx="16080.2" cy="333.678" r="23.8972" fill="#393A3D"/>
<circle cx="16154.6" cy="333.678" r="23.8972" fill="#393A3D"/>
<circle cx="16228.9" cy="333.678" r="23.8972" fill="#393A3D"/>
<circle cx="16303.3" cy="333.678" r="23.8972" fill="#393A3D"/>
<circle cx="16377.6" cy="333.678" r="23.8972" fill="#393A3D"/>
<path d="M16096.9 162.184C16002.3 68.601 15849.6 69.623 15755.8 164.466C15662 259.31 15662.7 412.059 15757.3 505.642L15823.9 438.297C15766.4 381.414 15766 288.566 15823 230.916C15880 173.266 15972.8 172.645 16030.4 229.528L16096.9 162.184Z" fill="#4C6600"/>
</g>
<rect width="1200" height="675" transform="translate(16800 0.78125)" fill="#F4F4EF"/>
<path d="M17811.1 0.78125C17811.1 273.111 17590.3 493.877 17318 493.877V666.781C17685.8 666.781 17984 368.603 17984 0.78125H17811.1Z" fill="#B9E15E"/>
<rect x="16800" y="0.78125" width="612" height="666" fill="#FFD8A0"/>
<circle cx="17106" cy="333.781" r="162" fill="#B9E15E"/>
<path fill-rule="evenodd" clip-rule="evenodd" d="M16866.2 218.636C16845.5 202.99 16823.3 202.989 16802.6 218.637L16800 197.95C16822.4 181.007 16846.4 181.006 16868.8 197.95C16868.8 197.95 16868.8 197.95 16868.8 197.95L16894.5 217.407C16915.2 233.055 16937.4 233.055 16958.1 217.408L16983.8 197.95C16983.8 197.95 16983.8 197.95 16983.8 197.95C17006.2 181.007 17030.2 181.006 17052.6 197.95C17052.6 197.95 17052.6 197.95 17052.6 197.95L17078.4 217.407C17099.1 233.055 17121.2 233.055 17141.9 217.408L17167.6 197.95C17167.6 197.95 17167.6 197.95 17167.6 197.95C17190.1 181.007 17214 181.006 17236.4 197.95C17236.4 197.95 17236.4 197.95 17236.4 197.95L17262.2 217.407C17282.9 233.055 17305 233.055 17325.7 217.408L17351.5 197.95C17373.9 181.006 17397.9 181.006 17420.3 197.951L17417.6 218.636C17397 202.99 17374.8 202.989 17354.1 218.637L17328.4 238.094C17328.4 238.094 17328.4 238.093 17328.4 238.094C17306 255.038 17282 255.038 17259.6 238.094L17233.8 218.637C17213.1 202.99 17191 202.989 17170.3 218.637L17144.5 238.094C17122.1 255.038 17098.1 255.038 17075.7 238.094C17075.7 238.094 17075.7 238.095 17075.7 238.094L17050 218.637C17029.3 202.99 17007.2 202.989 16986.5 218.637L16960.7 238.094C16938.3 255.038 16914.3 255.038 16891.9 238.094C16891.9 238.094 16891.9 238.095 16891.9 238.094L16866.2 218.636Z" fill="#4C6600"/>
<path fill-rule="evenodd" clip-rule="evenodd" d="M16866.2 298.55C16845.5 282.904 16823.3 282.903 16802.6 298.551L16800 277.864C16822.4 260.921 16846.4 260.92 16868.8 277.864C16868.8 277.864 16868.8 277.864 16868.8 277.864L16894.5 297.321C16915.2 312.969 16937.4 312.969 16958.1 297.322L16983.8 277.864C16983.8 277.864 16983.8 277.864 16983.8 277.864C17006.2 260.921 17030.2 260.92 17052.6 277.864C17052.6 277.864 17052.6 277.864 17052.6 277.864L17078.4 297.321C17099.1 312.969 17121.2 312.969 17141.9 297.322L17167.6 277.864C17167.6 277.864 17167.6 277.864 17167.6 277.864C17190.1 260.921 17214 260.92 17236.4 277.864C17236.4 277.864 17236.4 277.864 17236.4 277.864L17262.2 297.321C17282.9 312.969 17305 312.969 17325.7 297.322L17351.5 277.864C17373.9 260.92 17397.9 260.92 17420.3 277.865L17417.6 298.55C17397 282.904 17374.8 282.903 17354.1 298.551L17328.4 318.008C17328.4 318.008 17328.4 318.007 17328.4 318.008C17306 334.952 17282 334.952 17259.6 318.008L17233.8 298.551C17213.1 282.904 17191 282.903 17170.3 298.551L17144.5 318.008C17122.1 334.952 17098.1 334.952 17075.7 318.009C17075.7 318.008 17075.7 318.009 17075.7 318.009L17050 298.551C17029.3 282.904 17007.2 282.903 16986.5 298.551L16960.7 318.008C16938.3 334.952 16914.3 334.952 16891.9 318.009C16891.9 318.008 16891.9 318.009 16891.9 318.009L16866.2 298.55Z" fill="#4C6600"/>
<path fill-rule="evenodd" clip-rule="evenodd" d="M16866.2 378.464C16845.5 362.818 16823.3 362.817 16802.6 378.465L16800 357.778C16822.4 340.835 16846.4 340.834 16868.8 357.778C16868.8 357.778 16868.8 357.778 16868.8 357.778L16894.5 377.236C16915.2 392.883 16937.4 392.883 16958.1 377.236L16983.8 357.778C16983.8 357.778 16983.8 357.778 16983.8 357.778C17006.2 340.835 17030.2 340.834 17052.6 357.778C17052.6 357.778 17052.6 357.778 17052.6 357.778L17078.4 377.236C17099.1 392.883 17121.2 392.883 17141.9 377.236L17167.6 357.778C17167.6 357.778 17167.6 357.778 17167.6 357.778C17190.1 340.835 17214 340.834 17236.4 357.778C17236.4 357.778 17236.4 357.778 17236.4 357.778L17262.2 377.236C17282.9 392.883 17305 392.883 17325.7 377.236L17351.5 357.778C17373.9 340.835 17397.9 340.834 17420.3 357.779L17417.6 378.464C17397 362.818 17374.8 362.817 17354.1 378.465L17328.4 397.922C17328.4 397.922 17328.4 397.921 17328.4 397.922C17306 414.866 17282 414.866 17259.6 397.922L17233.8 378.465C17213.1 362.819 17191 362.817 17170.3 378.465L17144.5 397.922C17122.1 414.867 17098.1 414.866 17075.7 397.923C17075.7 397.922 17075.7 397.923 17075.7 397.923L17050 378.465C17029.3 362.819 17007.2 362.817 16986.5 378.465L16960.7 397.922C16938.3 414.867 16914.3 414.866 16891.9 397.923C16891.9 397.922 16891.9 397.923 16891.9 397.923L16866.2 378.464Z" fill="#4C6600"/>
<path fill-rule="evenodd" clip-rule="evenodd" d="M16866.2 458.382C16845.5 442.736 16823.3 442.735 16802.6 458.383L16800 437.696C16822.4 420.753 16846.4 420.752 16868.8 437.696C16868.8 437.696 16868.8 437.696 16868.8 437.696L16894.5 457.153C16915.2 472.801 16937.4 472.801 16958.1 457.154L16983.8 437.696C16983.8 437.696 16983.8 437.696 16983.8 437.696C17006.2 420.753 17030.2 420.752 17052.6 437.696C17052.6 437.696 17052.6 437.696 17052.6 437.696L17078.4 457.153C17099.1 472.801 17121.2 472.801 17141.9 457.154L17167.6 437.696C17167.6 437.696 17167.6 437.696 17167.6 437.696C17190.1 420.753 17214 420.752 17236.4 437.696C17236.4 437.696 17236.4 437.696 17236.4 437.696L17262.2 457.153C17282.9 472.801 17305 472.801 17325.7 457.154L17351.5 437.696C17373.9 420.753 17397.9 420.752 17420.3 437.697L17417.6 458.382C17397 442.736 17374.8 442.735 17354.1 458.383L17328.4 477.84C17328.4 477.84 17328.4 477.839 17328.4 477.84C17306 494.784 17282 494.784 17259.6 477.84L17233.8 458.383C17213.1 442.737 17191 442.735 17170.3 458.383L17144.5 477.84C17122.1 494.784 17098.1 494.784 17075.7 477.841C17075.7 477.84 17075.7 477.841 17075.7 477.841L17050 458.383C17029.3 442.737 17007.2 442.735 16986.5 458.383L16960.7 477.84C16938.3 494.784 16914.3 494.784 16891.9 477.841C16891.9 477.84 16891.9 477.841 16891.9 477.841L16866.2 458.382Z" fill="#4C6600"/>
<path fill-rule="evenodd" clip-rule="evenodd" d="M17791.5 549.781C17833.2 549.781 17867 515.979 17867 474.281C17867 432.584 17833.2 398.781 17791.5 398.781C17749.8 398.781 17716 432.584 17716 474.281C17716 515.979 17749.8 549.781 17791.5 549.781ZM17791.5 536.458C17825.8 536.458 17853.7 508.62 17853.7 474.281C17853.7 439.942 17825.8 412.105 17791.5 412.105C17757.2 412.105 17729.3 439.942 17729.3 474.281C17729.3 508.62 17757.2 536.458 17791.5 536.458Z" fill="#393A3D"/>
<g clip-path="url(#clip21_1_9599)">
<rect x="18000" y="0.78125" width="1184" height="666" rx="12" fill="#F4F4EF"/>
<path fill-rule="evenodd" clip-rule="evenodd" d="M18030.9 186.62C18006.3 171.822 17980.1 171.821 17955.5 186.621L17949 145.799C17977.8 128.443 18008.6 128.441 18037.4 145.799C18037.4 145.799 18037.4 145.799 18037.4 145.799C18037.4 145.799 18037.4 145.8 18037.4 145.801L18069.3 164.997C18093.8 179.797 18120.1 179.796 18144.6 164.999L18144.6 164.997L18176.5 145.799C18176.5 145.799 18176.5 145.8 18176.5 145.799C18205.3 128.444 18236.1 128.441 18264.9 145.799C18264.9 145.799 18264.9 145.8 18264.9 145.801L18296.8 164.997C18321.3 179.797 18347.6 179.796 18372.1 164.999L18372.1 164.997L18404 145.799C18404 145.799 18404 145.8 18404 145.799C18432.8 128.443 18463.6 128.441 18492.4 145.799C18492.4 145.799 18492.4 145.8 18492.4 145.801L18524.2 164.997C18548.8 179.797 18575.1 179.796 18599.6 164.999L18599.6 164.997L18631.5 145.799C18631.5 145.799 18631.5 145.8 18631.5 145.799C18660.3 128.443 18691.1 128.441 18719.9 145.801L18713.4 186.62C18688.8 171.822 18662.5 171.821 18638 186.621L18606.1 205.818C18606.1 205.818 18606.1 205.819 18606.1 205.819C18577.3 223.177 18546.5 223.175 18517.7 205.819L18485.9 186.621L18485.9 186.62C18461.3 171.822 18435.1 171.821 18410.5 186.621L18378.6 205.818C18378.6 205.818 18378.6 205.819 18378.6 205.819C18349.9 223.177 18319 223.175 18290.2 205.819C18290.2 205.819 18290.2 205.82 18290.2 205.819L18258.4 186.62C18233.8 171.822 18207.6 171.821 18183 186.621L18151.1 205.818C18151.1 205.818 18151.1 205.819 18151.1 205.819C18122.4 223.177 18091.5 223.175 18062.7 205.819C18062.7 205.819 18062.7 205.82 18062.7 205.819L18030.9 186.62Z" fill="#4C6600"/>
<path fill-rule="evenodd" clip-rule="evenodd" d="M18030.9 265.467C18006.3 250.67 17980.1 250.669 17955.5 265.468L17949 224.647C17977.8 207.291 18008.6 207.289 18037.4 224.646C18037.4 224.647 18037.4 224.646 18037.4 224.646C18037.4 224.647 18037.4 224.648 18037.4 224.648L18069.3 243.845C18093.8 258.644 18120.1 258.644 18144.6 243.846L18144.6 243.845L18176.5 224.647C18176.5 224.647 18176.5 224.647 18176.5 224.647C18205.3 207.291 18236.1 207.289 18264.9 224.646C18264.9 224.647 18264.9 224.648 18264.9 224.648L18296.8 243.845C18321.3 258.644 18347.6 258.644 18372.1 243.846L18372.1 243.845L18404 224.647C18404 224.647 18404 224.647 18404 224.647C18432.8 207.291 18463.6 207.289 18492.4 224.646C18492.4 224.647 18492.4 224.648 18492.4 224.648L18524.2 243.845C18548.8 258.644 18575.1 258.644 18599.6 243.846L18599.6 243.845L18631.5 224.647C18631.5 224.647 18631.5 224.647 18631.5 224.647C18660.3 207.291 18691.1 207.289 18719.9 224.648L18713.4 265.467C18688.8 250.67 18662.5 250.669 18638 265.468L18606.1 284.665C18606.1 284.666 18606.1 284.667 18606.1 284.667C18577.3 302.025 18546.5 302.023 18517.7 284.667L18485.9 265.469L18485.9 265.467C18461.3 250.67 18435.1 250.669 18410.5 265.468L18378.6 284.665C18378.6 284.666 18378.6 284.667 18378.6 284.667C18349.9 302.025 18319 302.023 18290.2 284.667C18290.2 284.667 18290.2 284.667 18290.2 284.667L18258.4 265.467C18233.8 250.67 18207.6 250.669 18183 265.468L18151.1 284.665C18151.1 284.666 18151.1 284.667 18151.1 284.667C18122.4 302.025 18091.5 302.023 18062.7 284.667C18062.7 284.667 18062.7 284.667 18062.7 284.667L18030.9 265.467Z" fill="#4C6600"/>
<path fill-rule="evenodd" clip-rule="evenodd" d="M18030.9 344.319C18006.3 329.521 17980.1 329.52 17955.5 344.32L17949 303.499C17977.8 286.142 18008.6 286.14 18037.4 303.498C18037.4 303.498 18037.4 303.498 18037.4 303.498C18037.4 303.498 18037.4 303.499 18037.4 303.5L18069.3 322.696C18093.8 337.496 18120.1 337.495 18144.6 322.698L18144.6 322.696L18176.5 303.499C18176.5 303.498 18176.5 303.499 18176.5 303.499C18205.3 286.143 18236.1 286.14 18264.9 303.498C18264.9 303.499 18264.9 303.499 18264.9 303.5L18296.8 322.696C18321.3 337.496 18347.6 337.495 18372.1 322.698L18372.1 322.696L18404 303.499C18404 303.498 18404 303.499 18404 303.499C18432.8 286.143 18463.6 286.14 18492.4 303.498C18492.4 303.499 18492.4 303.499 18492.4 303.5L18524.2 322.696C18548.8 337.496 18575.1 337.495 18599.6 322.698L18599.6 322.696L18631.5 303.499C18631.5 303.498 18631.5 303.499 18631.5 303.499C18660.3 286.142 18691.1 286.14 18719.9 303.5L18713.4 344.319C18688.8 329.521 18662.5 329.52 18638 344.32L18606.1 363.517C18606.1 363.517 18606.1 363.518 18606.1 363.519C18577.3 380.876 18546.5 380.875 18517.7 363.518L18485.9 344.321L18485.9 344.319C18461.3 329.521 18435.1 329.52 18410.5 344.32L18378.6 363.517C18378.6 363.517 18378.6 363.518 18378.6 363.519C18349.9 380.876 18319 380.875 18290.2 363.519C18290.2 363.518 18290.2 363.519 18290.2 363.519L18258.4 344.319C18233.8 329.521 18207.6 329.52 18183 344.32L18151.1 363.517C18151.1 363.517 18151.1 363.518 18151.1 363.519C18122.4 380.876 18091.5 380.875 18062.7 363.519C18062.7 363.518 18062.7 363.519 18062.7 363.519L18030.9 344.319Z" fill="#4C6600"/>
<path fill-rule="evenodd" clip-rule="evenodd" d="M18030.9 423.166C18006.3 408.369 17980.1 408.368 17955.5 423.168L17949 382.346C17977.8 364.99 18008.6 364.988 18037.4 382.346C18037.4 382.346 18037.4 382.346 18037.4 382.346C18037.4 382.346 18037.4 382.347 18037.4 382.347L18069.3 401.544C18093.8 416.344 18120.1 416.343 18144.6 401.546L18144.6 401.544L18176.5 382.346C18176.5 382.346 18176.5 382.347 18176.5 382.346C18205.3 364.99 18236.1 364.988 18264.9 382.346C18264.9 382.346 18264.9 382.347 18264.9 382.347L18296.8 401.544C18321.3 416.344 18347.6 416.343 18372.1 401.546L18372.1 401.544L18404 382.346C18404 382.346 18404 382.347 18404 382.346C18432.8 364.99 18463.6 364.988 18492.4 382.346C18492.4 382.346 18492.4 382.347 18492.4 382.347L18524.2 401.544C18548.8 416.344 18575.1 416.343 18599.6 401.546L18599.6 401.544L18631.5 382.346C18631.5 382.346 18631.5 382.347 18631.5 382.346C18660.3 364.99 18691.1 364.988 18719.9 382.347L18713.4 423.166C18688.8 408.369 18662.5 408.368 18638 423.168L18606.1 442.365C18606.1 442.365 18606.1 442.366 18606.1 442.366C18577.3 459.724 18546.5 459.722 18517.7 442.366L18485.9 423.168L18485.9 423.166C18461.3 408.369 18435.1 408.368 18410.5 423.168L18378.6 442.365C18378.6 442.365 18378.6 442.366 18378.6 442.366C18349.9 459.724 18319 459.722 18290.2 442.366C18290.2 442.366 18290.2 442.367 18290.2 442.366L18258.4 423.166C18233.8 408.369 18207.6 408.368 18183 423.168L18151.1 442.365C18151.1 442.365 18151.1 442.366 18151.1 442.366C18122.4 459.724 18091.5 459.722 18062.7 442.366C18062.7 442.366 18062.7 442.367 18062.7 442.366L18030.9 423.166Z" fill="#4C6600"/>
<path fill-rule="evenodd" clip-rule="evenodd" d="M18030.9 502.018C18006.3 487.221 17980.1 487.219 17955.5 502.019L17949 461.198C17977.8 443.841 18008.6 443.839 18037.4 461.197C18037.4 461.197 18037.4 461.197 18037.4 461.197C18037.4 461.198 18037.4 461.199 18037.4 461.199L18069.3 480.395C18093.8 495.195 18120.1 495.194 18144.6 480.397L18144.6 480.395L18176.5 461.198C18176.5 461.198 18176.5 461.198 18176.5 461.198C18205.3 443.842 18236.1 443.84 18264.9 461.197C18264.9 461.198 18264.9 461.198 18264.9 461.199L18296.8 480.395C18321.3 495.195 18347.6 495.194 18372.1 480.397L18372.1 480.395L18404 461.198C18404 461.198 18404 461.198 18404 461.198C18432.8 443.842 18463.6 443.84 18492.4 461.197C18492.4 461.198 18492.4 461.198 18492.4 461.199L18524.2 480.395C18548.8 495.195 18575.1 495.194 18599.6 480.397L18599.6 480.395L18631.5 461.198C18631.5 461.198 18631.5 461.198 18631.5 461.198C18660.3 443.841 18691.1 443.84 18719.9 461.199L18713.4 502.018C18688.8 487.221 18662.5 487.219 18638 502.019L18606.1 521.216C18606.1 521.217 18606.1 521.217 18606.1 521.218C18577.3 538.576 18546.5 538.574 18517.7 521.217L18485.9 502.02L18485.9 502.018C18461.3 487.221 18435.1 487.219 18410.5 502.019L18378.6 521.216C18378.6 521.217 18378.6 521.217 18378.6 521.218C18349.9 538.575 18319 538.574 18290.2 521.218C18290.2 521.218 18290.2 521.218 18290.2 521.218L18258.4 502.018C18233.8 487.221 18207.6 487.219 18183 502.019L18151.1 521.216C18151.1 521.217 18151.1 521.217 18151.1 521.218C18122.4 538.575 18091.5 538.574 18062.7 521.218C18062.7 521.218 18062.7 521.218 18062.7 521.218L18030.9 502.018Z" fill="#4C6600"/>
<rect x="18672" y="0.78125" width="512" height="666" fill="#FFD8A0"/>
<circle cx="18928.1" cy="164.922" r="54.1408" transform="rotate(90 18928.1 164.922)" fill="#4C6600"/>
<circle cx="18928.1" cy="333.36" r="54.1408" transform="rotate(90 18928.1 333.36)" fill="#393A3D"/>
<circle cx="18928.1" cy="501.797" r="54.1408" transform="rotate(90 18928.1 501.797)" fill="#4C6600"/>
</g>
<path d="M18000 144.781V666.781H18522L18000 144.781Z" fill="#B9E15E"/>
<defs>
<filter id="filter0_d_1_9599" x="-16" y="-11.2188" width="1216" height="698" filterUnits="userSpaceOnUse" color-interpolation-filters="sRGB">
<feFlood flood-opacity="0" result="BackgroundImageFix"/>
<feColorMatrix in="SourceAlpha" type="matrix" values="0 0 0 0 0 0 0 0 0 0 0 0 0 0 0 0 0 0 127 0" result="hardAlpha"/>
<feOffset dy="4"/>
<feGaussianBlur stdDeviation="8"/>
<feColorMatrix type="matrix" values="0 0 0 0 0 0 0 0 0 0 0 0 0 0 0 0 0 0 0.2 0"/>
<feBlend mode="normal" in2="BackgroundImageFix" result="effect1_dropShadow_1_9599"/>
<feBlend mode="normal" in="SourceGraphic" in2="effect1_dropShadow_1_9599" result="shape"/>
</filter>
<filter id="filter1_d_1_9599" x="1184" y="-11.2188" width="1216" height="698" filterUnits="userSpaceOnUse" color-interpolation-filters="sRGB">
<feFlood flood-opacity="0" result="BackgroundImageFix"/>
<feColorMatrix in="SourceAlpha" type="matrix" values="0 0 0 0 0 0 0 0 0 0 0 0 0 0 0 0 0 0 127 0" result="hardAlpha"/>
<feOffset dy="4"/>
<feGaussianBlur stdDeviation="8"/>
<feColorMatrix type="matrix" values="0 0 0 0 0 0 0 0 0 0 0 0 0 0 0 0 0 0 0.2 0"/>
<feBlend mode="normal" in2="BackgroundImageFix" result="effect1_dropShadow_1_9599"/>
<feBlend mode="normal" in="SourceGraphic" in2="effect1_dropShadow_1_9599" result="shape"/>
</filter>
<filter id="filter2_d_1_9599" x="2384" y="-11.2188" width="1216" height="698" filterUnits="userSpaceOnUse" color-interpolation-filters="sRGB">
<feFlood flood-opacity="0" result="BackgroundImageFix"/>
<feColorMatrix in="SourceAlpha" type="matrix" values="0 0 0 0 0 0 0 0 0 0 0 0 0 0 0 0 0 0 127 0" result="hardAlpha"/>
<feOffset dy="4"/>
<feGaussianBlur stdDeviation="8"/>
<feColorMatrix type="matrix" values="0 0 0 0 0 0 0 0 0 0 0 0 0 0 0 0 0 0 0.2 0"/>
<feBlend mode="normal" in2="BackgroundImageFix" result="effect1_dropShadow_1_9599"/>
<feBlend mode="normal" in="SourceGraphic" in2="effect1_dropShadow_1_9599" result="shape"/>
</filter>
<filter id="filter3_d_1_9599" x="3584" y="-11.2188" width="1216" height="698" filterUnits="userSpaceOnUse" color-interpolation-filters="sRGB">
<feFlood flood-opacity="0" result="BackgroundImageFix"/>
<feColorMatrix in="SourceAlpha" type="matrix" values="0 0 0 0 0 0 0 0 0 0 0 0 0 0 0 0 0 0 127 0" result="hardAlpha"/>
<feOffset dy="4"/>
<feGaussianBlur stdDeviation="8"/>
<feColorMatrix type="matrix" values="0 0 0 0 0 0 0 0 0 0 0 0 0 0 0 0 0 0 0.2 0"/>
<feBlend mode="normal" in2="BackgroundImageFix" result="effect1_dropShadow_1_9599"/>
<feBlend mode="normal" in="SourceGraphic" in2="effect1_dropShadow_1_9599" result="shape"/>
</filter>
<filter id="filter4_d_1_9599" x="4784" y="-11.2188" width="1216" height="698" filterUnits="userSpaceOnUse" color-interpolation-filters="sRGB">
<feFlood flood-opacity="0" result="BackgroundImageFix"/>
<feColorMatrix in="SourceAlpha" type="matrix" values="0 0 0 0 0 0 0 0 0 0 0 0 0 0 0 0 0 0 127 0" result="hardAlpha"/>
<feOffset dy="4"/>
<feGaussianBlur stdDeviation="8"/>
<feColorMatrix type="matrix" values="0 0 0 0 0 0 0 0 0 0 0 0 0 0 0 0 0 0 0.2 0"/>
<feBlend mode="normal" in2="BackgroundImageFix" result="effect1_dropShadow_1_9599"/>
<feBlend mode="normal" in="SourceGraphic" in2="effect1_dropShadow_1_9599" result="shape"/>
</filter>
<filter id="filter5_d_1_9599" x="5984" y="-11.2188" width="1216" height="698" filterUnits="userSpaceOnUse" color-interpolation-filters="sRGB">
<feFlood flood-opacity="0" result="BackgroundImageFix"/>
<feColorMatrix in="SourceAlpha" type="matrix" values="0 0 0 0 0 0 0 0 0 0 0 0 0 0 0 0 0 0 127 0" result="hardAlpha"/>
<feOffset dy="4"/>
<feGaussianBlur stdDeviation="8"/>
<feColorMatrix type="matrix" values="0 0 0 0 0 0 0 0 0 0 0 0 0 0 0 0 0 0 0.2 0"/>
<feBlend mode="normal" in2="BackgroundImageFix" result="effect1_dropShadow_1_9599"/>
<feBlend mode="normal" in="SourceGraphic" in2="effect1_dropShadow_1_9599" result="shape"/>
</filter>
<filter id="filter6_d_1_9599" x="7184" y="-11.2188" width="1216" height="698" filterUnits="userSpaceOnUse" color-interpolation-filters="sRGB">
<feFlood flood-opacity="0" result="BackgroundImageFix"/>
<feColorMatrix in="SourceAlpha" type="matrix" values="0 0 0 0 0 0 0 0 0 0 0 0 0 0 0 0 0 0 127 0" result="hardAlpha"/>
<feOffset dy="4"/>
<feGaussianBlur stdDeviation="8"/>
<feColorMatrix type="matrix" values="0 0 0 0 0 0 0 0 0 0 0 0 0 0 0 0 0 0 0.2 0"/>
<feBlend mode="normal" in2="BackgroundImageFix" result="effect1_dropShadow_1_9599"/>
<feBlend mode="normal" in="SourceGraphic" in2="effect1_dropShadow_1_9599" result="shape"/>
</filter>
<filter id="filter7_d_1_9599" x="8384" y="-11.2188" width="1216" height="698" filterUnits="userSpaceOnUse" color-interpolation-filters="sRGB">
<feFlood flood-opacity="0" result="BackgroundImageFix"/>
<feColorMatrix in="SourceAlpha" type="matrix" values="0 0 0 0 0 0 0 0 0 0 0 0 0 0 0 0 0 0 127 0" result="hardAlpha"/>
<feOffset dy="4"/>
<feGaussianBlur stdDeviation="8"/>
<feColorMatrix type="matrix" values="0 0 0 0 0 0 0 0 0 0 0 0 0 0 0 0 0 0 0.2 0"/>
<feBlend mode="normal" in2="BackgroundImageFix" result="effect1_dropShadow_1_9599"/>
<feBlend mode="normal" in="SourceGraphic" in2="effect1_dropShadow_1_9599" result="shape"/>
</filter>
<filter id="filter8_d_1_9599" x="9584" y="-11.2188" width="1216" height="698" filterUnits="userSpaceOnUse" color-interpolation-filters="sRGB">
<feFlood flood-opacity="0" result="BackgroundImageFix"/>
<feColorMatrix in="SourceAlpha" type="matrix" values="0 0 0 0 0 0 0 0 0 0 0 0 0 0 0 0 0 0 127 0" result="hardAlpha"/>
<feOffset dy="4"/>
<feGaussianBlur stdDeviation="8"/>
<feColorMatrix type="matrix" values="0 0 0 0 0 0 0 0 0 0 0 0 0 0 0 0 0 0 0.2 0"/>
<feBlend mode="normal" in2="BackgroundImageFix" result="effect1_dropShadow_1_9599"/>
<feBlend mode="normal" in="SourceGraphic" in2="effect1_dropShadow_1_9599" result="shape"/>
</filter>
<filter id="filter9_d_1_9599" x="10784" y="-11.2188" width="1216" height="698" filterUnits="userSpaceOnUse" color-interpolation-filters="sRGB">
<feFlood flood-opacity="0" result="BackgroundImageFix"/>
<feColorMatrix in="SourceAlpha" type="matrix" values="0 0 0 0 0 0 0 0 0 0 0 0 0 0 0 0 0 0 127 0" result="hardAlpha"/>
<feOffset dy="4"/>
<feGaussianBlur stdDeviation="8"/>
<feColorMatrix type="matrix" values="0 0 0 0 0 0 0 0 0 0 0 0 0 0 0 0 0 0 0.2 0"/>
<feBlend mode="normal" in2="BackgroundImageFix" result="effect1_dropShadow_1_9599"/>
<feBlend mode="normal" in="SourceGraphic" in2="effect1_dropShadow_1_9599" result="shape"/>
</filter>
<filter id="filter10_d_1_9599" x="11984" y="-11.2188" width="1216" height="698" filterUnits="userSpaceOnUse" color-interpolation-filters="sRGB">
<feFlood flood-opacity="0" result="BackgroundImageFix"/>
<feColorMatrix in="SourceAlpha" type="matrix" values="0 0 0 0 0 0 0 0 0 0 0 0 0 0 0 0 0 0 127 0" result="hardAlpha"/>
<feOffset dy="4"/>
<feGaussianBlur stdDeviation="8"/>
<feColorMatrix type="matrix" values="0 0 0 0 0 0 0 0 0 0 0 0 0 0 0 0 0 0 0.2 0"/>
<feBlend mode="normal" in2="BackgroundImageFix" result="effect1_dropShadow_1_9599"/>
<feBlend mode="normal" in="SourceGraphic" in2="effect1_dropShadow_1_9599" result="shape"/>
</filter>
<filter id="filter11_d_1_9599" x="13184" y="-11.2188" width="1216" height="698" filterUnits="userSpaceOnUse" color-interpolation-filters="sRGB">
<feFlood flood-opacity="0" result="BackgroundImageFix"/>
<feColorMatrix in="SourceAlpha" type="matrix" values="0 0 0 0 0 0 0 0 0 0 0 0 0 0 0 0 0 0 127 0" result="hardAlpha"/>
<feOffset dy="4"/>
<feGaussianBlur stdDeviation="8"/>
<feColorMatrix type="matrix" values="0 0 0 0 0 0 0 0 0 0 0 0 0 0 0 0 0 0 0.2 0"/>
<feBlend mode="normal" in2="BackgroundImageFix" result="effect1_dropShadow_1_9599"/>
<feBlend mode="normal" in="SourceGraphic" in2="effect1_dropShadow_1_9599" result="shape"/>
</filter>
<filter id="filter12_d_1_9599" x="14384" y="-11.2188" width="1216" height="698" filterUnits="userSpaceOnUse" color-interpolation-filters="sRGB">
<feFlood flood-opacity="0" result="BackgroundImageFix"/>
<feColorMatrix in="SourceAlpha" type="matrix" values="0 0 0 0 0 0 0 0 0 0 0 0 0 0 0 0 0 0 127 0" result="hardAlpha"/>
<feOffset dy="4"/>
<feGaussianBlur stdDeviation="8"/>
<feColorMatrix type="matrix" values="0 0 0 0 0 0 0 0 0 0 0 0 0 0 0 0 0 0 0.2 0"/>
<feBlend mode="normal" in2="BackgroundImageFix" result="effect1_dropShadow_1_9599"/>
<feBlend mode="normal" in="SourceGraphic" in2="effect1_dropShadow_1_9599" result="shape"/>
</filter>
<clipPath id="clip0_1_9599">
<rect width="1200" height="675" fill="white" transform="translate(0 0.78125)"/>
</clipPath>
<clipPath id="clip1_1_9599">
<rect y="0.78125" width="1184" height="666" rx="12" fill="white"/>
</clipPath>
<clipPath id="clip2_1_9599">
<rect width="1200" height="675" fill="white" transform="translate(1200 0.78125)"/>
</clipPath>
<clipPath id="clip3_1_9599">
<rect width="1200" height="675" fill="white" transform="translate(2400 0.78125)"/>
</clipPath>
<clipPath id="clip4_1_9599">
<rect width="1200" height="675" fill="white" transform="translate(3600 0.78125)"/>
</clipPath>
<clipPath id="clip5_1_9599">
<rect width="1200" height="675" fill="white" transform="translate(4800 0.78125)"/>
</clipPath>
<clipPath id="clip6_1_9599">
<rect x="4800" y="0.78125" width="1184" height="666" rx="12" fill="white"/>
</clipPath>
<clipPath id="clip7_1_9599">
<rect width="1200" height="675" fill="white" transform="translate(6000 0.78125)"/>
</clipPath>
<clipPath id="clip8_1_9599">
<rect width="1200" height="675" fill="white" transform="translate(7200 0.78125)"/>
</clipPath>
<clipPath id="clip9_1_9599">
<rect x="7200" y="0.78125" width="1184" height="666" rx="12" fill="white"/>
</clipPath>
<clipPath id="clip10_1_9599">
<rect width="1200" height="675" fill="white" transform="translate(8400 0.78125)"/>
</clipPath>
<clipPath id="clip11_1_9599">
<rect x="8400" y="0.78125" width="1184" height="666" rx="12" fill="white"/>
</clipPath>
<clipPath id="clip12_1_9599">
<rect width="1200" height="675" fill="white" transform="translate(9600 0.78125)"/>
</clipPath>
<clipPath id="clip13_1_9599">
<rect x="9600" y="0.78125" width="1184" height="666" rx="12" fill="white"/>
</clipPath>
<clipPath id="clip14_1_9599">
<rect width="1200" height="675" fill="white" transform="translate(10800 0.78125)"/>
</clipPath>
<clipPath id="clip15_1_9599">
<rect width="1200" height="675" fill="white" transform="translate(12000 0.78125)"/>
</clipPath>
<clipPath id="clip16_1_9599">
<rect width="1200" height="675" fill="white" transform="translate(13200 0.78125)"/>
</clipPath>
<clipPath id="clip17_1_9599">
<rect x="13200" y="0.78125" width="1184" height="666" rx="12" fill="white"/>
</clipPath>
<clipPath id="clip18_1_9599">
<rect width="1200" height="675" fill="white" transform="translate(14400 0.78125)"/>
</clipPath>
<clipPath id="clip19_1_9599">
<rect x="14400" y="0.78125" width="1184" height="666" rx="12" fill="white"/>
</clipPath>
<clipPath id="clip20_1_9599">
<rect x="15600" y="0.78125" width="1184" height="666" rx="12" fill="white"/>
</clipPath>
<clipPath id="clip21_1_9599">
<rect x="18000" y="0.78125" width="1184" height="666" rx="12" fill="white"/>
</clipPath>
</defs>
</svg>
