<svg width="19200" height="676" viewBox="0 0 19200 676" fill="none" xmlns="http://www.w3.org/2000/svg">
<g clip-path="url(#clip0_1_8863)">
<rect width="1200" height="675" transform="translate(0 0.78125)" fill="#F4F4EF"/>
<rect y="0.78125" width="996" height="571" fill="#FFD4D8"/>
<path d="M961 338.781C907.981 338.781 865 381.762 865 434.781C865 487.801 907.981 530.781 961 530.781L961 493.134C928.773 493.134 902.647 467.009 902.647 434.781C902.647 402.554 928.773 376.428 961 376.428L961 338.781Z" fill="#393A3D"/>
<path d="M961 106.781C907.981 106.781 865 149.762 865 202.781C865 255.801 907.981 298.781 961 298.781L961 261.134C928.773 261.134 902.647 235.009 902.647 202.781C902.647 170.554 928.773 144.428 961 144.428L961 106.781Z" fill="#393A3D"/>
<path d="M961 570.781C907.981 570.781 865 613.762 865 666.781C865 719.801 907.981 762.781 961 762.781L961 725.134C928.773 725.134 902.647 699.009 902.647 666.781C902.647 634.554 928.773 608.428 961 608.428L961 570.781Z" fill="#393A3D"/>
<path d="M961 -125.219C907.981 -125.219 865 -82.2381 865 -29.2188C865 23.8005 907.981 66.7812 961 66.7813L961 29.1342C928.773 29.1342 902.647 3.00873 902.647 -29.2188C902.647 -61.4462 928.773 -87.5717 961 -87.5717L961 -125.219Z" fill="#393A3D"/>
<path d="M1027 221.781C1080.02 221.781 1123 178.801 1123 125.781C1123 72.762 1080.02 29.7813 1027 29.7812L1027 67.4283C1059.23 67.4283 1085.35 93.5538 1085.35 125.781C1085.35 158.009 1059.23 184.134 1027 184.134L1027 221.781Z" fill="#FCA354"/>
<path d="M1027 453.781C1080.02 453.781 1123 410.801 1123 357.781C1123 304.762 1080.02 261.781 1027 261.781L1027 299.428C1059.23 299.428 1085.35 325.554 1085.35 357.781C1085.35 390.009 1059.23 416.134 1027 416.134L1027 453.781Z" fill="#FCA354"/>
<path d="M1027 685.781C1080.02 685.781 1123 642.801 1123 589.781C1123 536.762 1080.02 493.781 1027 493.781L1027 531.428C1059.23 531.428 1085.35 557.554 1085.35 589.781C1085.35 622.009 1059.23 648.134 1027 648.134L1027 685.781Z" fill="#FCA354"/>
<path d="M1019 232.781C1072.02 232.781 1115 189.801 1115 136.781C1115 83.762 1072.02 40.7813 1019 40.7812L1019 78.4283C1051.23 78.4283 1077.35 104.554 1077.35 136.781C1077.35 169.009 1051.23 195.134 1019 195.134L1019 232.781Z" fill="#393A3D"/>
<path d="M1019 464.781C1072.02 464.781 1115 421.801 1115 368.781C1115 315.762 1072.02 272.781 1019 272.781L1019 310.428C1051.23 310.428 1077.35 336.554 1077.35 368.781C1077.35 401.009 1051.23 427.134 1019 427.134L1019 464.781Z" fill="#393A3D"/>
<path d="M1019 696.781C1072.02 696.781 1115 653.801 1115 600.781C1115 547.762 1072.02 504.781 1019 504.781L1019 542.428C1051.23 542.428 1077.35 568.554 1077.35 600.781C1077.35 633.009 1051.23 659.134 1019 659.134L1019 696.781Z" fill="#393A3D"/>
<path fill-rule="evenodd" clip-rule="evenodd" d="M-190.661 92.9602C-216.604 77.3137 -244.384 77.3131 -270.346 92.9608L-273.648 72.2743C-245.537 55.3309 -215.453 55.33 -187.358 72.274C-187.358 72.2743 -187.359 72.2737 -187.358 72.274L-155.064 91.7316C-129.102 107.379 -101.321 107.379 -75.3787 91.7325L-43.0836 72.2743C-43.0834 72.2742 -43.0837 72.2744 -43.0836 72.2743C-14.9722 55.3313 15.1116 55.3301 43.2065 72.274C43.207 72.2743 43.206 72.2737 43.2065 72.274L75.5006 91.7316C101.462 107.379 129.244 107.379 155.186 91.7325L187.481 72.2743C187.481 72.2742 187.481 72.2744 187.481 72.2743C215.593 55.3312 245.676 55.3301 273.771 72.274C273.772 72.2743 273.771 72.2737 273.771 72.274L306.065 91.7316C332.027 107.379 359.808 107.379 385.751 91.7325L418.046 72.2743C446.158 55.3306 476.242 55.33 504.338 72.2749L501.034 92.9602C475.091 77.3137 447.31 77.3131 421.348 92.9608L389.055 112.418C389.055 112.418 389.056 112.417 389.055 112.418C360.96 129.362 330.875 129.362 302.764 112.418L270.47 92.9611C244.528 77.3146 216.745 77.3131 190.784 92.9608L158.49 112.418C130.395 129.363 100.311 129.362 72.1994 112.419C72.1992 112.419 72.1995 112.419 72.1994 112.419L39.9053 92.9611C13.9627 77.3146 -13.8195 77.3131 -39.7813 92.9608L-72.0744 112.418C-100.17 129.363 -130.254 129.362 -158.365 112.419C-158.366 112.419 -158.365 112.419 -158.365 112.419L-190.661 92.9602Z" fill="#A53900"/>
<path fill-rule="evenodd" clip-rule="evenodd" d="M-190.661 172.874C-216.604 157.228 -244.384 157.227 -270.346 172.875L-273.648 152.188C-245.537 135.245 -215.453 135.244 -187.358 152.188C-187.358 152.188 -187.359 152.188 -187.358 152.188L-155.064 171.646C-129.102 187.293 -101.321 187.293 -75.3787 171.647L-43.0836 152.188C-43.0834 152.188 -43.0837 152.189 -43.0836 152.188C-14.9722 135.245 15.1116 135.244 43.2065 152.188C43.207 152.188 43.206 152.188 43.2065 152.188L75.5006 171.646C101.462 187.293 129.244 187.293 155.186 171.647L187.481 152.188C187.481 152.188 187.481 152.189 187.481 152.188C215.593 135.245 245.676 135.244 273.771 152.188C273.772 152.188 273.771 152.188 273.771 152.188L306.065 171.646C332.027 187.293 359.808 187.293 385.751 171.647L418.046 152.188C446.158 135.245 476.242 135.244 504.338 152.189L501.034 172.874C475.091 157.228 447.31 157.227 421.348 172.875L389.055 192.332C389.055 192.332 389.056 192.332 389.055 192.332C360.96 209.276 330.875 209.276 302.764 192.332L270.47 172.875C244.528 157.229 216.745 157.227 190.784 172.875L158.49 192.332C130.395 209.277 100.311 209.276 72.1994 192.333C72.1992 192.333 72.1995 192.333 72.1994 192.333L39.9053 172.875C13.9627 157.229 -13.8195 157.227 -39.7813 172.875L-72.0744 192.332C-100.17 209.277 -130.254 209.276 -158.365 192.333C-158.366 192.333 -158.365 192.333 -158.365 192.333L-190.661 172.874Z" fill="#A53900"/>
<path fill-rule="evenodd" clip-rule="evenodd" d="M-190.661 252.788C-216.604 237.142 -244.384 237.141 -270.346 252.789L-273.648 232.102C-245.537 215.159 -215.453 215.158 -187.358 232.102C-187.358 232.102 -187.359 232.102 -187.358 232.102L-155.064 251.56C-129.102 267.207 -101.321 267.207 -75.3787 251.561L-43.0836 232.102C-43.0834 232.102 -43.0837 232.103 -43.0836 232.102C-14.9722 215.159 15.1116 215.158 43.2065 232.102C43.207 232.102 43.206 232.102 43.2065 232.102L75.5006 251.56C101.462 267.207 129.244 267.207 155.186 251.561L187.481 232.102C187.481 232.102 187.481 232.103 187.481 232.102C215.593 215.159 245.676 215.158 273.771 232.102C273.772 232.102 273.771 232.102 273.771 232.102L306.065 251.56C332.027 267.207 359.808 267.207 385.751 251.561L418.046 232.102C446.158 215.159 476.242 215.158 504.338 232.103L501.034 252.788C475.091 237.142 447.31 237.141 421.348 252.789L389.055 272.246C389.055 272.246 389.056 272.246 389.055 272.246C360.96 289.19 330.875 289.19 302.764 272.247L270.47 252.789C244.528 237.143 216.745 237.141 190.784 252.789L158.49 272.246C130.395 289.191 100.311 289.19 72.1994 272.247C72.1992 272.247 72.1995 272.247 72.1994 272.247L39.9053 252.789C13.9627 237.143 -13.8195 237.141 -39.7813 252.789L-72.0744 272.246C-100.17 289.191 -130.254 289.19 -158.365 272.247C-158.366 272.247 -158.365 272.247 -158.365 272.247L-190.661 252.788Z" fill="#A53900"/>
<path fill-rule="evenodd" clip-rule="evenodd" d="M-190.661 332.706C-216.604 317.06 -244.384 317.059 -270.346 332.707L-273.648 312.02C-245.537 295.077 -215.453 295.076 -187.358 312.02C-187.358 312.02 -187.359 312.02 -187.358 312.02L-155.064 331.478C-129.102 347.125 -101.321 347.125 -75.3787 331.479L-43.0836 312.02C-43.0834 312.02 -43.0837 312.021 -43.0836 312.02C-14.9722 295.077 15.1116 295.076 43.2065 312.02C43.207 312.02 43.206 312.02 43.2065 312.02L75.5006 331.478C101.462 347.125 129.244 347.125 155.186 331.479L187.481 312.02C187.481 312.02 187.481 312.021 187.481 312.02C215.593 295.077 245.676 295.076 273.771 312.02C273.772 312.02 273.771 312.02 273.771 312.02L306.065 331.478C332.027 347.125 359.808 347.125 385.751 331.479L418.046 312.02C446.158 295.077 476.242 295.076 504.338 312.021L501.034 332.706C475.091 317.06 447.31 317.059 421.348 332.707L389.055 352.164C389.055 352.164 389.056 352.164 389.055 352.164C360.96 369.108 330.875 369.108 302.764 352.164L270.47 332.707C244.528 317.061 216.745 317.059 190.784 332.707L158.49 352.164C130.395 369.109 100.311 369.108 72.1994 352.165C72.1992 352.165 72.1995 352.165 72.1994 352.165L39.9053 332.707C13.9627 317.061 -13.8195 317.059 -39.7813 332.707L-72.0744 352.164C-100.17 369.109 -130.254 369.108 -158.365 352.165C-158.366 352.165 -158.365 352.165 -158.365 352.165L-190.661 332.706Z" fill="#A53900"/>
<path fill-rule="evenodd" clip-rule="evenodd" d="M-190.661 412.62C-216.604 396.974 -244.384 396.973 -270.346 412.621L-273.648 391.935C-245.537 374.991 -215.453 374.99 -187.358 391.934C-187.358 391.934 -187.359 391.934 -187.358 391.934L-155.064 411.392C-129.102 427.039 -101.321 427.039 -75.3787 411.393L-43.0836 391.935C-43.0834 391.934 -43.0837 391.935 -43.0836 391.935C-14.9722 374.991 15.1116 374.99 43.2065 391.934C43.207 391.934 43.206 391.934 43.2065 391.934L75.5006 411.392C101.462 427.039 129.244 427.039 155.186 411.393L187.481 391.935C187.481 391.934 187.481 391.935 187.481 391.935C215.593 374.991 245.676 374.99 273.771 391.934C273.772 391.934 273.771 391.934 273.771 391.934L306.065 411.392C332.027 427.039 359.808 427.039 385.751 411.393L418.046 391.935C446.158 374.991 476.242 374.99 504.338 391.935L501.034 412.62C475.091 396.974 447.31 396.973 421.348 412.621L389.055 432.078C389.055 432.078 389.056 432.078 389.055 432.078C360.96 449.022 330.875 449.022 302.764 432.079L270.47 412.621C244.528 396.975 216.745 396.973 190.784 412.621L158.49 432.078C130.395 449.023 100.311 449.022 72.1994 432.079C72.1992 432.079 72.1995 432.079 72.1994 432.079L39.9053 412.621C13.9627 396.975 -13.8195 396.973 -39.7813 412.621L-72.0744 432.078C-100.17 449.023 -130.254 449.022 -158.365 432.079C-158.366 432.079 -158.365 432.079 -158.365 432.079L-190.661 412.62Z" fill="#A53900"/>
<path fill-rule="evenodd" clip-rule="evenodd" d="M-190.661 109.175C-216.604 93.5286 -244.384 93.5279 -270.346 109.176L-273.648 88.4892C-245.537 71.5458 -215.453 71.5449 -187.358 88.4889C-187.358 88.4892 -187.359 88.4886 -187.358 88.4889L-155.064 107.946C-129.102 123.594 -101.321 123.594 -75.3787 107.947L-43.0836 88.4892C-43.0834 88.4891 -43.0837 88.4893 -43.0836 88.4892C-14.9722 71.5461 15.1116 71.545 43.2065 88.4889C43.207 88.4892 43.206 88.4886 43.2065 88.4889L75.5006 107.946C101.462 123.594 129.244 123.594 155.186 107.947L187.481 88.4892C187.481 88.4891 187.481 88.4893 187.481 88.4892C215.593 71.5461 245.676 71.5449 273.771 88.4889C273.772 88.4892 273.771 88.4886 273.771 88.4889L306.065 107.946C332.027 123.594 359.808 123.594 385.751 107.947L418.046 88.4892C446.158 71.5455 476.242 71.5449 504.338 88.4898L501.034 109.175C475.091 93.5286 447.31 93.5279 421.348 109.176L389.055 128.633C389.055 128.633 389.056 128.632 389.055 128.633C360.96 145.577 330.875 145.577 302.764 128.633L270.47 109.176C244.528 93.5295 216.745 93.5279 190.784 109.176L158.49 128.633C130.395 145.577 100.311 145.577 72.1994 128.634C72.1992 128.633 72.1995 128.634 72.1994 128.634L39.9053 109.176C13.9627 93.5295 -13.8195 93.5279 -39.7813 109.176L-72.0744 128.633C-100.17 145.577 -130.254 145.577 -158.365 128.634C-158.366 128.633 -158.365 128.634 -158.365 128.634L-190.661 109.175Z" fill="#F4F4EF"/>
<path fill-rule="evenodd" clip-rule="evenodd" d="M-190.661 189.089C-216.604 173.443 -244.384 173.442 -270.346 189.09L-273.648 168.403C-245.537 151.46 -215.453 151.459 -187.358 168.403C-187.358 168.403 -187.359 168.403 -187.358 168.403L-155.064 187.861C-129.102 203.508 -101.321 203.508 -75.3787 187.861L-43.0836 168.403C-43.0834 168.403 -43.0837 168.403 -43.0836 168.403C-14.9722 151.46 15.1116 151.459 43.2065 168.403C43.207 168.403 43.206 168.403 43.2065 168.403L75.5006 187.861C101.462 203.508 129.244 203.508 155.186 187.861L187.481 168.403C187.481 168.403 187.481 168.403 187.481 168.403C215.593 151.46 245.676 151.459 273.771 168.403C273.772 168.403 273.771 168.403 273.771 168.403L306.065 187.861C332.027 203.508 359.808 203.508 385.751 187.861L418.046 168.403C446.158 151.46 476.242 151.459 504.338 168.404L501.034 189.089C475.091 173.443 447.31 173.442 421.348 189.09L389.055 208.547C389.055 208.547 389.056 208.546 389.055 208.547C360.96 225.491 330.875 225.491 302.764 208.547L270.47 189.09C244.528 173.444 216.745 173.442 190.784 189.09L158.49 208.547C130.395 225.492 100.311 225.491 72.1994 208.548C72.1992 208.547 72.1995 208.548 72.1994 208.548L39.9053 189.09C13.9627 173.444 -13.8195 173.442 -39.7813 189.09L-72.0744 208.547C-100.17 225.492 -130.254 225.491 -158.365 208.548C-158.366 208.547 -158.365 208.548 -158.365 208.548L-190.661 189.089Z" fill="#F4F4EF"/>
<path fill-rule="evenodd" clip-rule="evenodd" d="M-190.661 269.003C-216.604 253.357 -244.384 253.356 -270.346 269.004L-273.648 248.317C-245.537 231.374 -215.453 231.373 -187.358 248.317C-187.358 248.317 -187.359 248.317 -187.358 248.317L-155.064 267.775C-129.102 283.422 -101.321 283.422 -75.3787 267.775L-43.0836 248.317C-43.0834 248.317 -43.0837 248.317 -43.0836 248.317C-14.9722 231.374 15.1116 231.373 43.2065 248.317C43.207 248.317 43.206 248.317 43.2065 248.317L75.5006 267.775C101.462 283.422 129.244 283.422 155.186 267.775L187.481 248.317C187.481 248.317 187.481 248.317 187.481 248.317C215.593 231.374 245.676 231.373 273.771 248.317C273.772 248.317 273.771 248.317 273.771 248.317L306.065 267.775C332.027 283.422 359.808 283.422 385.751 267.775L418.046 248.317C446.158 231.374 476.242 231.373 504.338 248.318L501.034 269.003C475.091 253.357 447.31 253.356 421.348 269.004L389.055 288.461C389.055 288.461 389.056 288.46 389.055 288.461C360.96 305.405 330.875 305.405 302.764 288.461L270.47 269.004C244.528 253.358 216.745 253.356 190.784 269.004L158.49 288.461C130.395 305.406 100.311 305.405 72.1994 288.462C72.1992 288.462 72.1995 288.462 72.1994 288.462L39.9053 269.004C13.9627 253.358 -13.8195 253.356 -39.7813 269.004L-72.0744 288.461C-100.17 305.406 -130.254 305.405 -158.365 288.462C-158.366 288.462 -158.365 288.462 -158.365 288.462L-190.661 269.003Z" fill="#F4F4EF"/>
<path fill-rule="evenodd" clip-rule="evenodd" d="M-190.661 348.921C-216.604 333.275 -244.384 333.274 -270.346 348.922L-273.648 328.235C-245.537 311.292 -215.453 311.291 -187.358 328.235C-187.358 328.235 -187.359 328.235 -187.358 328.235L-155.064 347.693C-129.102 363.34 -101.321 363.34 -75.3787 347.693L-43.0836 328.235C-43.0834 328.235 -43.0837 328.235 -43.0836 328.235C-14.9722 311.292 15.1116 311.291 43.2065 328.235C43.207 328.235 43.206 328.235 43.2065 328.235L75.5006 347.693C101.462 363.34 129.244 363.34 155.186 347.693L187.481 328.235C187.481 328.235 187.481 328.235 187.481 328.235C215.593 311.292 245.676 311.291 273.771 328.235C273.772 328.235 273.771 328.235 273.771 328.235L306.065 347.693C332.027 363.34 359.808 363.34 385.751 347.693L418.046 328.235C446.158 311.292 476.242 311.291 504.338 328.236L501.034 348.921C475.091 333.275 447.31 333.274 421.348 348.922L389.055 368.379C389.055 368.379 389.056 368.378 389.055 368.379C360.96 385.323 330.875 385.323 302.764 368.379L270.47 348.922C244.528 333.276 216.745 333.274 190.784 348.922L158.49 368.379C130.395 385.324 100.311 385.323 72.1994 368.38C72.1992 368.38 72.1995 368.38 72.1994 368.38L39.9053 348.922C13.9627 333.276 -13.8195 333.274 -39.7813 348.922L-72.0744 368.379C-100.17 385.324 -130.254 385.323 -158.365 368.38C-158.366 368.38 -158.365 368.38 -158.365 368.38L-190.661 348.921Z" fill="#F4F4EF"/>
<path fill-rule="evenodd" clip-rule="evenodd" d="M-190.661 428.835C-216.604 413.189 -244.384 413.188 -270.346 428.836L-273.648 408.149C-245.537 391.206 -215.453 391.205 -187.358 408.149C-187.358 408.149 -187.359 408.149 -187.358 408.149L-155.064 427.607C-129.102 443.254 -101.321 443.254 -75.3787 427.608L-43.0836 408.149C-43.0834 408.149 -43.0837 408.149 -43.0836 408.149C-14.9722 391.206 15.1116 391.205 43.2065 408.149C43.207 408.149 43.206 408.149 43.2065 408.149L75.5006 427.607C101.462 443.254 129.244 443.254 155.186 427.608L187.481 408.149C187.481 408.149 187.481 408.149 187.481 408.149C215.593 391.206 245.676 391.205 273.771 408.149C273.772 408.149 273.771 408.149 273.771 408.149L306.065 427.607C332.027 443.254 359.808 443.254 385.751 427.608L418.046 408.149C446.158 391.206 476.242 391.205 504.338 408.15L501.034 428.835C475.091 413.189 447.31 413.188 421.348 428.836L389.055 448.293C389.055 448.293 389.056 448.292 389.055 448.293C360.96 465.237 330.875 465.237 302.764 448.293L270.47 428.836C244.528 413.19 216.745 413.188 190.784 428.836L158.49 448.293C130.395 465.238 100.311 465.237 72.1994 448.294C72.1992 448.294 72.1995 448.294 72.1994 448.294L39.9053 428.836C13.9627 413.19 -13.8195 413.188 -39.7813 428.836L-72.0744 448.293C-100.17 465.238 -130.254 465.237 -158.365 448.294C-158.366 448.294 -158.365 448.294 -158.365 448.294L-190.661 428.835Z" fill="#F4F4EF"/>
<path d="M973 349.781C919.981 349.781 877 392.762 877 445.781C877 498.801 919.981 541.781 973 541.781L973 504.134C940.773 504.134 914.647 478.009 914.647 445.781C914.647 413.554 940.773 387.428 973 387.428L973 349.781Z" fill="#FCA354"/>
<path d="M973 117.781C919.981 117.781 877 160.762 877 213.781C877 266.801 919.981 309.781 973 309.781L973 272.134C940.773 272.134 914.647 246.009 914.647 213.781C914.647 181.554 940.773 155.428 973 155.428L973 117.781Z" fill="#FCA354"/>
<path d="M973 -114.219C919.981 -114.219 877 -71.2381 877 -18.2188C877 34.8005 919.981 77.7812 973 77.7813L973 40.1342C940.773 40.1342 914.647 14.0087 914.647 -18.2188C914.647 -50.4462 940.773 -76.5717 973 -76.5717L973 -114.219Z" fill="#FCA354"/>
<path d="M973 581.781C919.981 581.781 877 624.762 877 677.781C877 730.801 919.981 773.781 973 773.781L973 736.134C940.773 736.134 914.647 710.009 914.647 677.781C914.647 645.554 940.773 619.428 973 619.428L973 581.781Z" fill="#FCA354"/>
<circle cx="687.084" cy="624.17" r="36.0838" transform="rotate(-90 687.084 624.17)" fill="#A53900"/>
<circle cx="687.084" cy="511.908" r="36.0838" transform="rotate(-90 687.084 511.908)" fill="#A53900"/>
<circle cx="687.084" cy="399.651" r="36.0838" transform="rotate(-90 687.084 399.651)" fill="#A53900"/>
<circle cx="687.084" cy="287.389" r="36.0838" transform="rotate(-90 687.084 287.389)" fill="#A53900"/>
<circle cx="687.084" cy="175.127" r="36.0838" transform="rotate(-90 687.084 175.127)" fill="#A53900"/>
<circle cx="687.084" cy="62.8654" r="36.0838" transform="rotate(-90 687.084 62.8654)" fill="#A53900"/>
</g>
<g clip-path="url(#clip1_1_8863)">
<rect width="1200" height="675" transform="translate(1200 0.78125)" fill="#F4F4EF"/>
<g filter="url(#filter0_d_1_8863)">
<g clip-path="url(#clip2_1_8863)">
<rect x="1200" y="0.78125" width="1184" height="666" rx="12" fill="#F4F4EF"/>
<rect x="1143" y="39.7812" width="996" height="571" fill="#FFD4D8"/>
<circle cx="2259.9" cy="146.678" r="23.8972" transform="rotate(90 2259.9 146.678)" fill="#A53900"/>
<circle cx="2259.9" cy="221.026" r="23.8972" transform="rotate(90 2259.9 221.026)" fill="#A53900"/>
<circle cx="2259.9" cy="295.374" r="23.8972" transform="rotate(90 2259.9 295.374)" fill="#A53900"/>
<circle cx="2259.9" cy="369.717" r="23.8972" transform="rotate(90 2259.9 369.717)" fill="#A53900"/>
<circle cx="2259.9" cy="444.065" r="23.8972" transform="rotate(90 2259.9 444.065)" fill="#A53900"/>
<circle cx="2259.9" cy="518.413" r="23.8972" transform="rotate(90 2259.9 518.413)" fill="#A53900"/>
<rect x="587" y="33.7812" width="1402.59" height="30.5333" fill="#393A3D"/>
<rect x="587" y="94.8477" width="1402.59" height="30.5333" fill="#393A3D"/>
<rect x="587" y="155.914" width="1402.59" height="30.5333" fill="#393A3D"/>
<rect x="587" y="216.98" width="1402.59" height="30.5333" fill="#393A3D"/>
<rect x="587" y="278.047" width="1402.59" height="30.5333" fill="#393A3D"/>
<rect x="587" y="339.113" width="1402.59" height="30.5333" fill="#393A3D"/>
<rect x="587" y="400.18" width="1402.59" height="30.5333" fill="#393A3D"/>
<rect x="587" y="461.246" width="1402.59" height="30.5333" fill="#393A3D"/>
<rect x="598" y="15.7812" width="1402.59" height="30.5333" fill="#FCA354"/>
<rect x="598" y="76.8477" width="1402.59" height="30.5333" fill="#FCA354"/>
<rect x="598" y="137.914" width="1402.59" height="30.5333" fill="#FCA354"/>
<rect x="598" y="198.98" width="1402.59" height="30.5333" fill="#FCA354"/>
<rect x="598" y="260.047" width="1402.59" height="30.5333" fill="#FCA354"/>
<rect x="598" y="321.113" width="1402.59" height="30.5333" fill="#FCA354"/>
<rect x="598" y="382.18" width="1402.59" height="30.5333" fill="#FCA354"/>
<rect x="598" y="443.246" width="1402.59" height="30.5333" fill="#FCA354"/>
</g>
</g>
</g>
<g clip-path="url(#clip3_1_8863)">
<rect width="1200" height="675" transform="translate(2400 0.78125)" fill="#F4F4EF"/>
<g filter="url(#filter1_d_1_8863)">
<g clip-path="url(#clip4_1_8863)">
<rect x="2400" y="0.78125" width="1184" height="666" rx="12" fill="#F4F4EF"/>
<rect x="2457" y="177.781" width="326" height="571" fill="#FFD4D8"/>
<rect x="2829" y="-73.2188" width="326" height="571" fill="#FFD4D8"/>
<rect x="3201" y="177.781" width="326" height="571" fill="#FFD4D8"/>
<circle cx="2916.56" cy="557.976" r="18.5555" transform="rotate(-90 2916.56 557.976)" fill="#A53900"/>
<circle cx="2916.56" cy="500.245" r="18.5555" transform="rotate(-90 2916.56 500.245)" fill="#A53900"/>
<circle cx="2916.56" cy="442.519" r="18.5555" transform="rotate(-90 2916.56 442.519)" fill="#A53900"/>
<circle cx="2916.56" cy="384.792" r="18.5555" transform="rotate(-90 2916.56 384.792)" fill="#A53900"/>
<circle cx="2916.56" cy="327.062" r="18.5555" transform="rotate(-90 2916.56 327.062)" fill="#A53900"/>
<circle cx="2916.56" cy="269.335" r="18.5555" transform="rotate(-90 2916.56 269.335)" fill="#A53900"/>
<circle cx="2474.56" cy="141.337" r="18.5555" fill="#A53900"/>
<circle cx="2532.29" cy="141.337" r="18.5555" fill="#A53900"/>
<circle cx="2590.01" cy="141.337" r="18.5555" fill="#A53900"/>
<circle cx="2647.74" cy="141.337" r="18.5555" fill="#A53900"/>
<circle cx="2705.47" cy="141.337" r="18.5555" fill="#A53900"/>
<circle cx="2763.2" cy="141.337" r="18.5555" fill="#A53900"/>
<circle cx="18.5555" cy="18.5555" r="18.5555" transform="matrix(-1 0 0 1 3526.75 122.781)" fill="#FCA354"/>
<circle cx="18.5555" cy="18.5555" r="18.5555" transform="matrix(-1 0 0 1 3469.02 122.781)" fill="#FCA354"/>
<circle cx="18.5555" cy="18.5555" r="18.5555" transform="matrix(-1 0 0 1 3411.29 122.781)" fill="#FCA354"/>
<circle cx="18.5555" cy="18.5555" r="18.5555" transform="matrix(-1 0 0 1 3353.57 122.781)" fill="#FCA354"/>
<circle cx="18.5555" cy="18.5555" r="18.5555" transform="matrix(-1 0 0 1 3295.84 122.781)" fill="#FCA354"/>
<circle cx="18.5555" cy="18.5555" r="18.5555" transform="matrix(-1 0 0 1 3238.11 122.781)" fill="#FCA354"/>
<circle cx="2973.56" cy="413.976" r="16.4938" transform="rotate(-90 2973.56 413.976)" fill="#FCA354" stroke="#A53900" stroke-width="4.12344"/>
<circle cx="2973.56" cy="356.245" r="16.4938" transform="rotate(-90 2973.56 356.245)" fill="#FCA354" stroke="#A53900" stroke-width="4.12344"/>
<circle cx="2973.56" cy="298.519" r="16.4938" transform="rotate(-90 2973.56 298.519)" fill="#FCA354" stroke="#A53900" stroke-width="4.12344"/>
<circle cx="2973.56" cy="240.792" r="16.4938" transform="rotate(-90 2973.56 240.792)" fill="#FCA354" stroke="#A53900" stroke-width="4.12344"/>
<circle cx="2973.56" cy="183.062" r="16.4938" transform="rotate(-90 2973.56 183.062)" fill="#FCA354" stroke="#A53900" stroke-width="4.12344"/>
<circle cx="2973.56" cy="125.335" r="16.4938" transform="rotate(-90 2973.56 125.335)" fill="#FCA354" stroke="#A53900" stroke-width="4.12344"/>
<circle cx="2397.56" cy="237.337" r="16.4938" fill="#FCA354" stroke="#A53900" stroke-width="4.12344"/>
<circle cx="2455.29" cy="237.337" r="16.4938" fill="#FCA354" stroke="#A53900" stroke-width="4.12344"/>
<circle cx="2513.01" cy="237.337" r="16.4938" fill="#FCA354" stroke="#A53900" stroke-width="4.12344"/>
<circle cx="2570.74" cy="237.337" r="16.4938" fill="#FCA354" stroke="#A53900" stroke-width="4.12344"/>
<circle cx="2628.47" cy="237.337" r="16.4938" fill="#FCA354" stroke="#A53900" stroke-width="4.12344"/>
<circle cx="2686.2" cy="237.337" r="16.4938" fill="#FCA354" stroke="#A53900" stroke-width="4.12344"/>
<circle cx="18.5555" cy="18.5555" r="16.4938" transform="matrix(-1 0 0 1 3564.02 203.781)" fill="#FCA354" stroke="#A53900" stroke-width="4.12344"/>
<circle cx="18.5555" cy="18.5555" r="16.4938" transform="matrix(-1 0 0 1 3506.29 203.781)" fill="#FCA354" stroke="#A53900" stroke-width="4.12344"/>
<circle cx="18.5555" cy="18.5555" r="16.4938" transform="matrix(-1 0 0 1 3448.57 203.781)" fill="#FCA354" stroke="#A53900" stroke-width="4.12344"/>
<circle cx="18.5555" cy="18.5555" r="16.4938" transform="matrix(-1 0 0 1 3390.84 203.781)" fill="#FCA354" stroke="#A53900" stroke-width="4.12344"/>
<circle cx="18.5555" cy="18.5555" r="16.4938" transform="matrix(-1 0 0 1 3333.11 203.781)" fill="#FCA354" stroke="#A53900" stroke-width="4.12344"/>
<circle cx="3478.5" cy="423.281" r="124.5" fill="#393A3D"/>
<circle cx="3190.5" cy="-19.7188" r="124.5" fill="#393A3D"/>
<circle cx="2628.5" cy="632.281" r="124.5" fill="#393A3D"/>
<circle cx="3507.5" cy="480.281" r="124.5" fill="#FCA354"/>
<circle cx="3126.5" cy="-17.7188" r="124.5" fill="#FCA354"/>
<circle cx="2714.5" cy="645.281" r="124.5" fill="#FCA354"/>
</g>
</g>
</g>
<g clip-path="url(#clip5_1_8863)">
<rect width="1200" height="675" transform="translate(3600 0.78125)" fill="#F4F4EF"/>
<rect x="3842" y="121.781" width="996" height="771" fill="#FFD4D8"/>
<path d="M3875 434.543C3970.76 434.543 4048.38 356.918 4048.38 261.162C4048.38 165.407 3970.76 87.7817 3875 87.7817L3875 434.543Z" fill="#393A3D"/>
<path d="M3815.35 -104.219C3719.6 -104.219 3641.97 -26.5936 3641.97 69.1619C3641.97 164.917 3719.6 242.543 3815.35 242.543L3815.35 -104.219Z" fill="#393A3D"/>
<path d="M3815.35 306.59C3719.6 306.59 3641.97 384.215 3641.97 479.97C3641.97 575.726 3719.6 653.351 3815.35 653.351L3815.35 306.59Z" fill="#393A3D"/>
<path d="M3842.94 418.543C3938.69 418.543 4016.32 340.918 4016.32 245.162C4016.32 149.407 3938.69 71.7817 3842.94 71.7817L3842.94 418.543Z" fill="#A53900"/>
<path d="M3783.29 -120.219C3687.53 -120.219 3609.91 -42.5936 3609.91 53.1619C3609.91 148.917 3687.53 226.543 3783.29 226.543L3783.29 -120.219Z" fill="#A53900"/>
<path d="M3783.29 290.59C3687.53 290.59 3609.91 368.215 3609.91 463.97C3609.91 559.726 3687.53 637.351 3783.29 637.351L3783.29 290.59Z" fill="#A53900"/>
<rect x="4738.27" y="-252.219" width="989.971" height="21.5509" transform="rotate(90 4738.27 -252.219)" fill="#A53900"/>
<rect x="4695.16" y="-252.219" width="989.971" height="21.5509" transform="rotate(90 4695.16 -252.219)" fill="#A53900"/>
<rect x="4652.06" y="-252.219" width="989.971" height="21.5509" transform="rotate(90 4652.06 -252.219)" fill="#A53900"/>
<rect x="4608.96" y="-252.219" width="989.971" height="21.5509" transform="rotate(90 4608.96 -252.219)" fill="#A53900"/>
<rect x="4565.86" y="-252.219" width="989.971" height="21.5509" transform="rotate(90 4565.86 -252.219)" fill="#A53900"/>
<rect x="4522.76" y="-252.219" width="989.971" height="21.5509" transform="rotate(90 4522.76 -252.219)" fill="#A53900"/>
<rect x="4479.65" y="-252.219" width="989.971" height="21.5509" transform="rotate(90 4479.65 -252.219)" fill="#A53900"/>
<rect x="4436.55" y="-252.219" width="989.971" height="21.5509" transform="rotate(90 4436.55 -252.219)" fill="#A53900"/>
<rect x="4728.27" y="-252.219" width="989.971" height="21.5509" transform="rotate(90 4728.27 -252.219)" fill="#FCA354"/>
<rect x="4685.16" y="-252.219" width="989.971" height="21.5509" transform="rotate(90 4685.16 -252.219)" fill="#FCA354"/>
<rect x="4642.06" y="-252.219" width="989.971" height="21.5509" transform="rotate(90 4642.06 -252.219)" fill="#FCA354"/>
<rect x="4598.96" y="-252.219" width="989.971" height="21.5509" transform="rotate(90 4598.96 -252.219)" fill="#FCA354"/>
<rect x="4555.86" y="-252.219" width="989.971" height="21.5509" transform="rotate(90 4555.86 -252.219)" fill="#FCA354"/>
<rect x="4512.76" y="-252.219" width="989.971" height="21.5509" transform="rotate(90 4512.76 -252.219)" fill="#FCA354"/>
<rect x="4469.65" y="-252.219" width="989.971" height="21.5509" transform="rotate(90 4469.65 -252.219)" fill="#FCA354"/>
<rect x="4426.55" y="-252.219" width="989.971" height="21.5509" transform="rotate(90 4426.55 -252.219)" fill="#FCA354"/>
<circle cx="63.5" cy="63.5" r="63.5" transform="matrix(-1 0 0 1 4237 532.781)" fill="#FCA354"/>
<circle cx="63.5" cy="63.5" r="63.5" transform="matrix(-1 0 0 1 4386 532.781)" fill="#FCA354"/>
</g>
<g clip-path="url(#clip6_1_8863)">
<rect width="1200" height="675" transform="translate(4800 0.78125)" fill="#F4F4EF"/>
<rect x="4748" y="-99.2188" width="996" height="771" fill="#FFD4D8"/>
<path fill-rule="evenodd" clip-rule="evenodd" d="M5217.45 179.109C5191.51 163.462 5163.73 163.462 5137.76 179.109L5134.46 158.423C5162.57 141.479 5192.66 141.478 5220.75 158.422C5220.75 158.423 5220.75 158.422 5220.75 158.422L5253.05 177.88C5279.01 193.528 5306.79 193.527 5332.73 177.881L5365.03 158.423C5365.03 158.423 5365.03 158.423 5365.03 158.423C5393.14 141.48 5423.22 141.479 5451.32 158.422C5451.32 158.423 5451.32 158.422 5451.32 158.422L5483.61 177.88C5509.57 193.528 5537.35 193.527 5563.3 177.881L5595.59 158.423C5595.59 158.423 5595.59 158.423 5595.59 158.423C5623.7 141.48 5653.79 141.479 5681.88 158.422C5681.88 158.423 5681.88 158.422 5681.88 158.422L5714.17 177.88C5740.14 193.528 5767.92 193.527 5793.86 177.881L5826.16 158.423C5854.27 141.479 5884.35 141.478 5912.45 158.423L5909.14 179.109C5883.2 163.462 5855.42 163.462 5829.46 179.109L5797.16 198.566C5797.16 198.567 5797.17 198.566 5797.16 198.566C5769.07 215.51 5738.98 215.51 5710.87 198.567L5678.58 179.11C5652.64 163.463 5624.85 163.462 5598.89 179.109L5566.6 198.566C5538.5 215.511 5508.42 215.511 5480.31 198.567C5480.31 198.567 5480.31 198.567 5480.31 198.567L5448.01 179.11C5422.07 163.463 5394.29 163.462 5368.33 179.109L5336.03 198.566C5307.94 215.511 5277.86 215.511 5249.74 198.567C5249.74 198.567 5249.74 198.567 5249.74 198.567L5217.45 179.109Z" fill="#A53900"/>
<path fill-rule="evenodd" clip-rule="evenodd" d="M5217.45 259.023C5191.51 243.376 5163.73 243.376 5137.76 259.023L5134.46 238.337C5162.57 221.393 5192.66 221.393 5220.75 238.337C5220.75 238.337 5220.75 238.336 5220.75 238.337L5253.05 257.794C5279.01 273.442 5306.79 273.441 5332.73 257.795L5365.03 238.337C5365.03 238.337 5365.03 238.337 5365.03 238.337C5393.14 221.394 5423.22 221.393 5451.32 238.337C5451.32 238.337 5451.32 238.336 5451.32 238.337L5483.61 257.794C5509.57 273.442 5537.35 273.441 5563.3 257.795L5595.59 238.337C5595.59 238.337 5595.59 238.337 5595.59 238.337C5623.7 221.394 5653.79 221.393 5681.88 238.337C5681.88 238.337 5681.88 238.336 5681.88 238.337L5714.17 257.794C5740.14 273.442 5767.92 273.441 5793.86 257.795L5826.16 238.337C5854.27 221.393 5884.35 221.393 5912.45 238.337L5909.14 259.023C5883.2 243.376 5855.42 243.376 5829.46 259.023L5797.16 278.48C5797.16 278.481 5797.17 278.48 5797.16 278.48C5769.07 295.424 5738.98 295.424 5710.87 278.481L5678.58 259.024C5652.64 243.377 5624.85 243.376 5598.89 259.023L5566.6 278.48C5538.5 295.425 5508.42 295.425 5480.31 278.481C5480.31 278.481 5480.31 278.481 5480.31 278.481L5448.01 259.024C5422.07 243.377 5394.29 243.376 5368.33 259.023L5336.03 278.48C5307.94 295.425 5277.86 295.425 5249.74 278.481C5249.74 278.481 5249.74 278.481 5249.74 278.481L5217.45 259.023Z" fill="#A53900"/>
<path fill-rule="evenodd" clip-rule="evenodd" d="M5217.45 338.937C5191.51 323.29 5163.73 323.29 5137.76 338.937L5134.46 318.251C5162.57 301.308 5192.66 301.307 5220.75 318.251C5220.75 318.251 5220.75 318.25 5220.75 318.251L5253.05 337.708C5279.01 353.356 5306.79 353.356 5332.73 337.709L5365.03 318.251C5365.03 318.251 5365.03 318.251 5365.03 318.251C5393.14 301.308 5423.22 301.307 5451.32 318.251C5451.32 318.251 5451.32 318.25 5451.32 318.251L5483.61 337.708C5509.57 353.356 5537.35 353.356 5563.3 337.709L5595.59 318.251C5595.59 318.251 5595.59 318.251 5595.59 318.251C5623.7 301.308 5653.79 301.307 5681.88 318.251C5681.88 318.251 5681.88 318.25 5681.88 318.251L5714.17 337.708C5740.14 353.356 5767.92 353.356 5793.86 337.709L5826.16 318.251C5854.27 301.307 5884.35 301.307 5912.45 318.252L5909.14 338.937C5883.2 323.29 5855.42 323.29 5829.46 338.937L5797.16 358.394C5797.16 358.395 5797.17 358.394 5797.16 358.394C5769.07 375.338 5738.98 375.338 5710.87 358.395L5678.58 338.938C5652.64 323.291 5624.85 323.29 5598.89 338.937L5566.6 358.394C5538.5 375.339 5508.42 375.339 5480.31 358.395C5480.31 358.395 5480.31 358.395 5480.31 358.395L5448.01 338.938C5422.07 323.291 5394.29 323.29 5368.33 338.937L5336.03 358.394C5307.94 375.339 5277.86 375.339 5249.74 358.395C5249.74 358.395 5249.74 358.395 5249.74 358.395L5217.45 338.937Z" fill="#A53900"/>
<path fill-rule="evenodd" clip-rule="evenodd" d="M5217.45 418.855C5191.51 403.208 5163.73 403.208 5137.76 418.855L5134.46 398.169C5162.57 381.225 5192.66 381.225 5220.75 398.169C5220.75 398.169 5220.75 398.168 5220.75 398.169L5253.05 417.626C5279.01 433.274 5306.79 433.274 5332.73 417.627L5365.03 398.169C5365.03 398.169 5365.03 398.169 5365.03 398.169C5393.14 381.226 5423.22 381.225 5451.32 398.169C5451.32 398.169 5451.32 398.168 5451.32 398.169L5483.61 417.626C5509.57 433.274 5537.35 433.274 5563.3 417.627L5595.59 398.169C5595.59 398.169 5595.59 398.169 5595.59 398.169C5623.7 381.226 5653.79 381.225 5681.88 398.169C5681.88 398.169 5681.88 398.168 5681.88 398.169L5714.17 417.626C5740.14 433.274 5767.92 433.274 5793.86 417.627L5826.16 398.169C5854.27 381.225 5884.35 381.225 5912.45 398.169L5909.14 418.855C5883.2 403.208 5855.42 403.208 5829.46 418.855L5797.16 438.312C5797.16 438.313 5797.17 438.312 5797.16 438.312C5769.07 455.256 5738.98 455.256 5710.87 438.313L5678.58 418.856C5652.64 403.209 5624.85 403.208 5598.89 418.855L5566.6 438.312C5538.5 455.257 5508.42 455.257 5480.31 438.313C5480.31 438.313 5480.31 438.313 5480.31 438.313L5448.01 418.856C5422.07 403.209 5394.29 403.208 5368.33 418.855L5336.03 438.312C5307.94 455.257 5277.86 455.257 5249.74 438.313C5249.74 438.313 5249.74 438.313 5249.74 438.313L5217.45 418.855Z" fill="#A53900"/>
<path fill-rule="evenodd" clip-rule="evenodd" d="M5217.45 498.769C5191.51 483.122 5163.73 483.122 5137.76 498.769L5134.46 478.083C5162.57 461.14 5192.66 461.139 5220.75 478.083C5220.75 478.083 5220.75 478.082 5220.75 478.083L5253.05 497.54C5279.01 513.188 5306.79 513.188 5332.73 497.541L5365.03 478.083C5365.03 478.083 5365.03 478.083 5365.03 478.083C5393.14 461.14 5423.22 461.139 5451.32 478.083C5451.32 478.083 5451.32 478.082 5451.32 478.083L5483.61 497.54C5509.57 513.188 5537.35 513.188 5563.3 497.541L5595.59 478.083C5595.59 478.083 5595.59 478.083 5595.59 478.083C5623.7 461.14 5653.79 461.139 5681.88 478.083C5681.88 478.083 5681.88 478.082 5681.88 478.083L5714.17 497.54C5740.14 513.188 5767.92 513.188 5793.86 497.541L5826.16 478.083C5854.27 461.139 5884.35 461.139 5912.45 478.084L5909.14 498.769C5883.2 483.122 5855.42 483.122 5829.46 498.769L5797.16 518.226C5797.16 518.227 5797.17 518.226 5797.16 518.226C5769.07 535.17 5738.98 535.17 5710.87 518.227L5678.58 498.77C5652.64 483.123 5624.85 483.122 5598.89 498.769L5566.6 518.226C5538.5 535.171 5508.42 535.171 5480.31 518.227C5480.31 518.227 5480.31 518.227 5480.31 518.227L5448.01 498.77C5422.07 483.123 5394.29 483.122 5368.33 498.769L5336.03 518.226C5307.94 535.171 5277.86 535.171 5249.74 518.227C5249.74 518.227 5249.74 518.227 5249.74 518.227L5217.45 498.769Z" fill="#A53900"/>
<path fill-rule="evenodd" clip-rule="evenodd" d="M4799.55 570.888C4937.38 570.888 5049.11 459.159 5049.11 321.335C5049.11 183.51 4937.38 71.7812 4799.55 71.7812C4661.73 71.7812 4550 183.51 4550 321.335C4550 459.159 4661.73 570.888 4799.55 570.888ZM4799.55 526.849C4913.06 526.849 5005.07 434.838 5005.07 321.335C5005.07 207.832 4913.06 115.82 4799.55 115.82C4686.05 115.82 4594.04 207.832 4594.04 321.335C4594.04 434.838 4686.05 526.849 4799.55 526.849Z" fill="#393A3D"/>
<circle cx="4800" cy="326.781" r="113" fill="#FCA354"/>
</g>
<g clip-path="url(#clip7_1_8863)">
<rect width="1200" height="675" transform="translate(6000 0.78125)" fill="#F4F4EF"/>
<rect x="6242" y="121.781" width="996" height="771" fill="#FFD4D8"/>
<path d="M6271.97 488.367C6339.68 556.076 6449.46 556.077 6517.17 488.367C6584.88 420.658 6584.88 310.879 6517.17 243.17L6271.97 488.367Z" fill="#A53900"/>
<path d="M6367.8 277.379C6300.09 209.67 6190.31 209.67 6122.6 277.379C6054.89 345.088 6054.89 454.867 6122.6 522.576L6367.8 277.379Z" fill="#393A3D"/>
<rect x="7109.53" y="-422.219" width="1244.97" height="27.1021" transform="rotate(90 7109.53 -422.219)" fill="#FCA354"/>
<rect x="7055.33" y="-422.219" width="1244.97" height="27.1021" transform="rotate(90 7055.33 -422.219)" fill="#FCA354"/>
<rect x="7001.12" y="-422.219" width="1244.97" height="27.1021" transform="rotate(90 7001.12 -422.219)" fill="#FCA354"/>
<rect x="6946.92" y="-422.219" width="1244.97" height="27.1021" transform="rotate(90 6946.92 -422.219)" fill="#FCA354"/>
<rect x="6892.71" y="-422.219" width="1244.97" height="27.1021" transform="rotate(90 6892.71 -422.219)" fill="#FCA354"/>
<rect x="6838.51" y="-422.219" width="1244.97" height="27.1021" transform="rotate(90 6838.51 -422.219)" fill="#FCA354"/>
<rect x="6784.3" y="-422.219" width="1244.97" height="27.1021" transform="rotate(90 6784.3 -422.219)" fill="#FCA354"/>
<rect x="6730.1" y="-422.219" width="1244.97" height="27.1021" transform="rotate(90 6730.1 -422.219)" fill="#FCA354"/>
</g>
<g clip-path="url(#clip8_1_8863)">
<rect width="1200" height="675" transform="translate(7200 0.78125)" fill="#F4F4EF"/>
<rect x="7052" y="-217.219" width="996" height="794" fill="#FFD4D8"/>
<rect x="8127" y="360.781" width="311" height="363" fill="#FFD4D8"/>
<line x1="8125.67" y1="641.781" x2="8125.67" y2="69.7812" stroke="#393A3D" stroke-width="2.65524"/>
<line x1="8172.02" y1="641.781" x2="8172.02" y2="69.7812" stroke="#393A3D" stroke-width="7.96573"/>
<line x1="8223.36" y1="641.781" x2="8223.36" y2="69.7812" stroke="#393A3D" stroke-width="13.2762"/>
<line x1="8279.71" y1="641.781" x2="8279.71" y2="69.7812" stroke="#393A3D" stroke-width="18.5867"/>
<path fill-rule="evenodd" clip-rule="evenodd" d="M7372 497.781C7570.82 497.781 7732 336.604 7732 137.781C7732 -61.0411 7570.82 -222.219 7372 -222.219C7173.18 -222.219 7012 -61.0411 7012 137.781C7012 336.604 7173.18 497.781 7372 497.781ZM7372 356.605C7492.85 356.605 7590.82 258.634 7590.82 137.781C7590.82 16.9282 7492.85 -81.0423 7372 -81.0423C7251.15 -81.0423 7153.18 16.9282 7153.18 137.781C7153.18 258.634 7251.15 356.605 7372 356.605Z" fill="#FCA354"/>
<path d="M8014 387.281L7789.75 517.618L7789.75 256.944L8014 387.281Z" fill="#A53900"/>
</g>
<g clip-path="url(#clip9_1_8863)">
<rect width="1200" height="675" transform="translate(8400 0.78125)" fill="#F4F4EF"/>
<rect x="8075" y="-327.219" width="765" height="794" fill="#FFD4D8"/>
<rect x="9049" y="69.7812" width="765" height="794" fill="#FFD4D8"/>
<rect x="8721" y="542.746" width="73.0344" height="73.0344" fill="#393A3D"/>
<rect x="8824.9" y="542.746" width="73.0344" height="73.0344" fill="#393A3D"/>
<rect x="8928.8" y="542.746" width="73.0344" height="73.0344" fill="#393A3D"/>
<rect x="9032.7" y="542.746" width="73.0344" height="73.0344" fill="#393A3D"/>
<path fill-rule="evenodd" clip-rule="evenodd" d="M9400.18 646.381C9385.18 671.247 9385.18 697.876 9400.18 722.763L9358.8 729.367C9341.21 700.181 9341.21 668.946 9358.8 639.775C9358.8 639.775 9358.8 639.776 9358.8 639.775C9358.8 639.775 9358.8 639.773 9358.8 639.772L9378.26 607.481C9393.26 582.595 9393.26 555.965 9378.26 531.098L9378.26 531.095L9358.8 498.802C9358.8 498.802 9358.8 498.803 9358.8 498.802C9341.21 469.616 9341.21 438.381 9358.8 409.21C9358.8 409.209 9358.8 409.208 9358.8 409.207L9378.26 376.916C9393.26 352.03 9393.26 325.4 9378.26 300.534L9378.26 300.531L9358.8 268.237C9358.8 268.237 9358.8 268.238 9358.8 268.237C9341.21 239.052 9341.21 207.816 9358.8 178.646C9358.8 178.645 9358.8 178.644 9358.8 178.643L9378.26 146.352C9393.26 121.465 9393.26 94.8348 9378.26 69.9687L9378.26 69.9657L9358.8 37.6726C9358.8 37.6723 9358.8 37.6729 9358.8 37.6726C9341.21 8.48567 9341.21 -22.7506 9358.8 -51.9222L9400.18 -45.3136C9385.18 -20.4475 9385.18 6.1814 9400.18 31.0681L9419.63 63.3602C9419.63 63.3612 9419.63 63.3622 9419.63 63.3632C9437.23 92.5343 9437.23 123.769 9419.63 152.955L9400.18 185.248L9400.18 185.251C9385.18 210.117 9385.18 236.746 9400.18 261.633L9419.63 293.925C9419.63 293.926 9419.63 293.927 9419.63 293.928C9437.23 323.099 9437.23 354.333 9419.63 383.519C9419.63 383.519 9419.63 383.519 9419.63 383.519L9400.18 415.816C9385.18 440.682 9385.18 467.311 9400.18 492.198L9419.63 524.49C9419.63 524.491 9419.63 524.492 9419.63 524.493C9437.23 553.664 9437.23 584.898 9419.63 614.084C9419.63 614.084 9419.63 614.083 9419.63 614.084L9400.18 646.381Z" fill="#FCA354"/>
<path fill-rule="evenodd" clip-rule="evenodd" d="M9480.09 646.381C9465.09 671.247 9465.09 697.876 9480.09 722.763L9438.72 729.367C9421.13 700.181 9421.12 668.946 9438.72 639.775C9438.72 639.775 9438.72 639.776 9438.72 639.775C9438.72 639.775 9438.72 639.773 9438.72 639.772L9458.17 607.481C9473.17 582.595 9473.17 555.965 9458.18 531.098L9458.17 531.095L9438.72 498.802C9438.72 498.802 9438.72 498.803 9438.72 498.802C9421.13 469.616 9421.12 438.381 9438.72 409.21C9438.72 409.209 9438.72 409.208 9438.72 409.207L9458.17 376.916C9473.17 352.03 9473.17 325.4 9458.18 300.534L9458.17 300.531L9438.72 268.237C9438.72 268.237 9438.72 268.238 9438.72 268.237C9421.13 239.052 9421.12 207.816 9438.72 178.646C9438.72 178.645 9438.72 178.644 9438.72 178.643L9458.17 146.352C9473.17 121.465 9473.17 94.8348 9458.18 69.9687L9458.17 69.9657L9438.72 37.6726C9438.72 37.6723 9438.72 37.6729 9438.72 37.6726C9421.13 8.48567 9421.12 -22.7506 9438.72 -51.9222L9480.09 -45.3136C9465.09 -20.4475 9465.09 6.1814 9480.09 31.0681L9499.55 63.3602C9499.55 63.3612 9499.55 63.3622 9499.55 63.3632C9517.14 92.5343 9517.14 123.769 9499.55 152.955L9480.09 185.248L9480.09 185.251C9465.09 210.117 9465.09 236.746 9480.09 261.633L9499.55 293.925C9499.55 293.926 9499.55 293.927 9499.55 293.928C9517.14 323.099 9517.14 354.333 9499.55 383.519C9499.55 383.519 9499.55 383.519 9499.55 383.519L9480.09 415.816C9465.09 440.682 9465.09 467.311 9480.09 492.198L9499.55 524.49C9499.55 524.491 9499.55 524.492 9499.55 524.493C9517.14 553.664 9517.14 584.898 9499.55 614.084C9499.55 614.084 9499.55 614.083 9499.55 614.084L9480.09 646.381Z" fill="#FCA354"/>
<path fill-rule="evenodd" clip-rule="evenodd" d="M9560 646.381C9545.01 671.247 9545 697.876 9560 722.763L9518.63 729.367C9501.04 700.181 9501.04 668.946 9518.63 639.775C9518.63 639.775 9518.63 639.776 9518.63 639.775C9518.63 639.775 9518.63 639.773 9518.63 639.772L9538.09 607.481C9553.09 582.595 9553.09 555.965 9538.09 531.098L9538.09 531.095L9518.63 498.802C9518.63 498.802 9518.63 498.803 9518.63 498.802C9501.04 469.616 9501.04 438.381 9518.63 409.21C9518.63 409.209 9518.63 409.208 9518.63 409.207L9538.09 376.916C9553.09 352.03 9553.09 325.4 9538.09 300.534L9538.09 300.531L9518.63 268.237C9518.63 268.237 9518.63 268.238 9518.63 268.237C9501.04 239.052 9501.04 207.816 9518.63 178.646C9518.63 178.645 9518.63 178.644 9518.63 178.643L9538.09 146.352C9553.09 121.465 9553.09 94.8348 9538.09 69.9687L9538.09 69.9657L9518.63 37.6726C9518.63 37.6723 9518.63 37.6729 9518.63 37.6726C9501.04 8.48567 9501.04 -22.7506 9518.63 -51.9222L9560 -45.3136C9545.01 -20.4475 9545 6.1814 9560 31.0681L9579.46 63.3602C9579.46 63.3612 9579.46 63.3622 9579.46 63.3632C9597.06 92.5343 9597.05 123.769 9579.46 152.955L9560.01 185.248L9560 185.251C9545.01 210.117 9545 236.746 9560 261.633L9579.46 293.925C9579.46 293.926 9579.46 293.927 9579.46 293.928C9597.05 323.099 9597.05 354.333 9579.46 383.519C9579.46 383.519 9579.46 383.519 9579.46 383.519L9560 415.816C9545.01 440.682 9545 467.311 9560 492.198L9579.46 524.49C9579.46 524.491 9579.46 524.492 9579.46 524.493C9597.05 553.664 9597.05 584.898 9579.46 614.084C9579.46 614.084 9579.46 614.083 9579.46 614.084L9560 646.381Z" fill="#FCA354"/>
<path fill-rule="evenodd" clip-rule="evenodd" d="M9639.92 646.381C9624.92 671.247 9624.92 697.876 9639.92 722.763L9598.55 729.367C9580.96 700.181 9580.96 668.946 9598.55 639.775C9598.55 639.775 9598.55 639.776 9598.55 639.775C9598.55 639.775 9598.55 639.773 9598.55 639.772L9618.01 607.481C9633.01 582.595 9633.01 555.965 9618.01 531.098L9618.01 531.095L9598.55 498.802C9598.55 498.802 9598.55 498.803 9598.55 498.802C9580.96 469.616 9580.96 438.381 9598.55 409.21C9598.55 409.209 9598.55 409.208 9598.55 409.207L9618.01 376.916C9633.01 352.03 9633.01 325.4 9618.01 300.534L9618.01 300.531L9598.55 268.237C9598.55 268.237 9598.55 268.238 9598.55 268.237C9580.96 239.052 9580.96 207.816 9598.55 178.646C9598.55 178.645 9598.55 178.644 9598.55 178.643L9618.01 146.352C9633.01 121.465 9633.01 94.8348 9618.01 69.9687L9618.01 69.9657L9598.55 37.6726C9598.55 37.6723 9598.55 37.6729 9598.55 37.6726C9580.96 8.48567 9580.96 -22.7506 9598.55 -51.9222L9639.92 -45.3136C9624.92 -20.4475 9624.92 6.1814 9639.92 31.0681L9659.38 63.3602C9659.38 63.3612 9659.38 63.3622 9659.38 63.3632C9676.97 92.5343 9676.97 123.769 9659.38 152.955L9639.92 185.248L9639.92 185.251C9624.92 210.117 9624.92 236.746 9639.92 261.633L9659.38 293.925C9659.38 293.926 9659.38 293.927 9659.38 293.928C9676.97 323.099 9676.97 354.333 9659.38 383.519C9659.38 383.519 9659.38 383.519 9659.38 383.519L9639.92 415.816C9624.92 440.682 9624.92 467.311 9639.92 492.198L9659.38 524.49C9659.38 524.491 9659.38 524.492 9659.38 524.493C9676.97 553.664 9676.97 584.898 9659.38 614.084C9659.38 614.084 9659.38 614.083 9659.38 614.084L9639.92 646.381Z" fill="#FCA354"/>
<circle cx="8794" cy="228.781" r="147" fill="#A53900"/>
</g>
<g clip-path="url(#clip10_1_8863)">
<rect width="1200" height="675" transform="translate(9600 0.78125)" fill="#F4F4EF"/>
<path d="M9939 826.781L9448.83 -15.4688L10429.2 -15.4689L9939 826.781Z" fill="#FFD4D8"/>
<path d="M10505 178.781L10212.3 681.281L10797.7 681.281L10505 178.781Z" fill="#FFD4D8"/>
<path d="M10166.8 560.145L9922.76 140.623L10410.9 140.623L10166.8 560.145Z" fill="#FCA354"/>
<path d="M10646 333.781L10768.1 543.031L10523.9 543.031L10646 333.781Z" fill="#393A3D"/>
<path fill-rule="evenodd" clip-rule="evenodd" d="M10744 255.781C10873.2 255.781 10978 151.016 10978 21.7813C10978 -107.453 10873.2 -212.219 10744 -212.219C10614.8 -212.219 10510 -107.453 10510 21.7813C10510 151.016 10614.8 255.781 10744 255.781ZM10744 164.017C10822.6 164.017 10886.2 100.336 10886.2 21.7813C10886.2 -56.7732 10822.6 -120.454 10744 -120.454C10665.4 -120.454 10601.8 -56.7732 10601.8 21.7813C10601.8 100.336 10665.4 164.017 10744 164.017Z" fill="#A53900"/>
<path fill-rule="evenodd" clip-rule="evenodd" d="M9599.55 570.888C9737.38 570.888 9849.11 459.159 9849.11 321.335C9849.11 183.51 9737.38 71.7812 9599.55 71.7812C9461.73 71.7812 9350 183.51 9350 321.335C9350 459.159 9461.73 570.888 9599.55 570.888ZM9599.55 526.849C9713.06 526.849 9805.07 434.838 9805.07 321.335C9805.07 207.832 9713.06 115.82 9599.55 115.82C9486.05 115.82 9394.04 207.832 9394.04 321.335C9394.04 434.838 9486.05 526.849 9599.55 526.849Z" fill="#393A3D"/>
</g>
<g clip-path="url(#clip11_1_8863)">
<rect x="10800" y="0.78125" width="1200" height="675" rx="12" fill="#F4F4EF"/>
<path d="M11921 668.781C11921 381.041 11687.7 147.781 11400 147.781C11112.3 147.781 10879 381.041 10879 668.781L11921 668.781Z" fill="#FFD4D8"/>
<circle cx="11392.5" cy="655.281" r="129.5" fill="#FCA354"/>
<path fill-rule="evenodd" clip-rule="evenodd" d="M11392 867.781C11512.4 867.781 11610 770.403 11610 650.281C11610 530.159 11512.4 432.781 11392 432.781C11271.6 432.781 11174 530.159 11174 650.281C11174 770.403 11271.6 867.781 11392 867.781ZM11392 829.399C11491.2 829.399 11571.5 749.206 11571.5 650.281C11571.5 551.357 11491.2 471.164 11392 471.164C11292.8 471.164 11212.5 551.357 11212.5 650.281C11212.5 749.206 11292.8 829.399 11392 829.399Z" fill="#393A3D"/>
<path fill-rule="evenodd" clip-rule="evenodd" d="M10663 378.508C10671.7 376.421 10680.4 373.514 10688.9 369.788L10733.4 350.33C10769.1 334.684 10807.4 334.683 10843.1 350.331L10887.6 369.788C10926.3 386.732 10967.7 386.731 11006.4 369.788L11050.9 350.33C11086.6 334.683 11124.9 334.683 11160.7 350.331L11205.1 369.788C11243.8 386.732 11285.3 386.732 11324 369.788L11319.4 349.102C11283.7 364.749 11245.4 364.749 11209.7 349.102L11165.2 329.644C11126.5 312.7 11085.1 312.7 11046.4 329.645L11001.9 349.102C10966.1 364.749 10927.9 364.748 10892.1 349.101L10847.7 329.644C10808.9 312.7 10767.5 312.7 10728.8 329.645L10684.3 349.102C10677.3 352.177 10670.2 354.647 10663 356.513L10663 378.508Z" fill="#FCA354"/>
<path fill-rule="evenodd" clip-rule="evenodd" d="M10663 313.407C10671.7 311.319 10680.4 308.413 10688.9 304.687L10733.4 285.228C10769.1 269.582 10807.4 269.582 10843.1 285.229L10887.6 304.687C10926.3 321.631 10967.7 321.63 11006.4 304.687L11050.9 285.228C11086.6 269.582 11124.9 269.582 11160.7 285.229L11205.1 304.687C11243.8 321.631 11285.3 321.63 11324 304.687L11319.4 284C11283.7 299.648 11245.4 299.647 11209.7 284.001L11165.2 264.542C11126.5 247.599 11085.1 247.598 11046.4 264.543L11001.9 284C10966.1 299.648 10927.9 299.646 10892.1 284L10847.7 264.542C10808.9 247.599 10767.5 247.598 10728.8 264.543L10684.3 284C10677.3 287.075 10670.2 289.546 10663 291.412L10663 313.407Z" fill="#FCA354"/>
<path fill-rule="evenodd" clip-rule="evenodd" d="M10663 248.301C10671.7 246.214 10680.4 243.307 10688.9 239.581L10733.4 220.123C10769.1 204.476 10807.4 204.476 10843.1 220.124L10887.6 239.581C10926.3 256.525 10967.7 256.524 11006.4 239.581L11050.9 220.123C11086.6 204.476 11124.9 204.476 11160.7 220.124L11205.1 239.581C11243.8 256.525 11285.3 256.524 11324 239.581L11319.4 218.895C11283.7 234.542 11245.4 234.542 11209.7 218.895L11165.2 199.437C11126.5 182.493 11085.1 182.493 11046.4 199.438L11001.9 218.895C10966.1 234.542 10927.9 234.541 10892.1 218.894L10847.7 199.437C10808.9 182.493 10767.5 182.493 10728.8 199.438L10684.3 218.895C10677.3 221.97 10670.2 224.44 10663 226.306L10663 248.301Z" fill="#FCA354"/>
<path fill-rule="evenodd" clip-rule="evenodd" d="M10663 183.2C10671.7 181.112 10680.4 178.206 10688.9 174.48L10733.4 155.021C10769.1 139.375 10807.4 139.375 10843.1 155.022L10887.6 174.48C10926.3 191.424 10967.7 191.423 11006.4 174.48L11050.9 155.021C11086.6 139.375 11124.9 139.375 11160.7 155.022L11205.1 174.48C11243.8 191.424 11285.3 191.423 11324 174.48L11319.4 153.793C11283.7 169.441 11245.4 169.44 11209.7 153.794L11165.2 134.335C11126.5 117.392 11085.1 117.391 11046.4 134.336L11001.9 153.793C10966.1 169.441 10927.9 169.439 10892.1 153.793L10847.7 134.335C10808.9 117.392 10767.5 117.391 10728.8 134.336L10684.3 153.793C10677.3 156.868 10670.2 159.339 10663 161.205L10663 183.2Z" fill="#FCA354"/>
<path fill-rule="evenodd" clip-rule="evenodd" d="M10663 118.098C10671.7 116.011 10680.4 113.104 10688.9 109.378L10733.4 89.9198C10769.1 74.2734 10807.4 74.273 10843.1 89.9207L10887.6 109.378C10926.3 126.322 10967.7 126.321 11006.4 109.378L11050.9 89.9198C11086.6 74.2733 11124.9 74.273 11160.7 89.9207L11205.1 109.378C11243.8 126.322 11285.3 126.321 11324 109.378L11319.4 88.6915C11283.7 104.339 11245.4 104.339 11209.7 88.6921L11165.2 69.2336C11126.5 52.2902 11085.1 52.2897 11046.4 69.2346L11001.9 88.6915C10966.1 104.339 10927.9 104.338 10892.1 88.6912L10847.7 69.2337C10808.9 52.2903 10767.5 52.2897 10728.8 69.2346L10684.3 88.6916C10677.3 91.7664 10670.2 94.2369 10663 96.1033L10663 118.098Z" fill="#FCA354"/>
<rect x="11752" y="547.863" width="89.2705" height="89.2705" transform="rotate(-90 11752 547.863)" fill="#A53900"/>
<rect x="11752" y="420.594" width="89.2705" height="89.2705" transform="rotate(-90 11752 420.594)" fill="#A53900"/>
<rect x="11752" y="293.32" width="89.2705" height="89.2705" transform="rotate(-90 11752 293.32)" fill="#A53900"/>
<rect x="11752" y="166.051" width="89.2705" height="89.2705" transform="rotate(-90 11752 166.051)" fill="#A53900"/>
</g>
<g clip-path="url(#clip12_1_8863)">
<rect width="1200" height="675" transform="translate(12000 0.78125)" fill="#F4F4EF"/>
<path d="M12694 666.781C12694 379.041 12460.7 145.781 12173 145.781C11885.3 145.781 11652 379.041 11652 666.781L12694 666.781Z" fill="#FFD4D8"/>
<path d="M12497 -51.2188C12497 236.521 12730.3 469.781 13018 469.781C13305.7 469.781 13539 236.521 13539 -51.2188L12497 -51.2188Z" fill="#FFD4D8"/>
<path fill-rule="evenodd" clip-rule="evenodd" d="M12030 -27.2188C12032.1 -20.5604 12035.1 -13.9584 12039.1 -7.46183L12058.5 24.8333C12074.2 50.7758 12074.2 78.557 12058.5 104.519L12039.1 136.813C12022.1 164.908 12022.1 194.992 12039.1 223.103L12058.5 255.398C12074.2 281.341 12074.2 309.122 12058.5 335.084L12039.1 367.378C12022.1 395.473 12022.1 425.556 12039.1 453.668L12059.7 450.366C12044.1 424.404 12044.1 396.623 12059.7 370.681L12079.2 338.385C12096.1 310.273 12096.1 280.189 12079.2 252.094L12059.7 219.801C12044.1 193.839 12044.1 166.057 12059.7 140.114L12079.2 107.82C12096.1 79.7082 12096.1 49.6243 12079.2 21.529L12059.7 -10.7641C12056.5 -16.1808 12053.9 -21.6768 12052 -27.2188H12030Z" fill="#FCA354"/>
<path fill-rule="evenodd" clip-rule="evenodd" d="M12095.1 -27.2188C12097.2 -20.5604 12100.2 -13.9584 12104.2 -7.46183L12123.6 24.8333C12139.3 50.7758 12139.3 78.557 12123.6 104.519L12104.2 136.813C12087.2 164.908 12087.2 194.992 12104.2 223.103L12123.6 255.398C12139.3 281.341 12139.3 309.122 12123.6 335.084L12104.2 367.378C12087.2 395.473 12087.2 425.556 12104.2 453.668L12124.8 450.366C12109.2 424.404 12109.2 396.623 12124.8 370.681L12144.3 338.385C12161.2 310.273 12161.2 280.189 12144.3 252.094L12124.8 219.801C12109.2 193.839 12109.2 166.057 12124.8 140.114L12144.3 107.82C12161.2 79.7082 12161.2 49.6243 12144.3 21.529L12124.8 -10.7641C12121.6 -16.1808 12119 -21.6768 12117.1 -27.2188H12095.1Z" fill="#FCA354"/>
<path fill-rule="evenodd" clip-rule="evenodd" d="M12160.2 -27.2188C12162.3 -20.5604 12165.4 -13.9584 12169.3 -7.46183L12188.7 24.8333C12204.4 50.7758 12204.4 78.557 12188.7 104.519L12169.3 136.813C12152.3 164.908 12152.3 194.992 12169.3 223.103L12188.7 255.398C12204.4 281.341 12204.4 309.122 12188.7 335.084L12169.3 367.378C12152.3 395.473 12152.3 425.556 12169.3 453.668L12190 450.366C12174.3 424.404 12174.3 396.623 12190 370.681L12209.4 338.385C12226.4 310.273 12226.4 280.189 12209.4 252.094L12190 219.801C12174.3 193.839 12174.3 166.057 12190 140.114L12209.4 107.82C12226.4 79.7082 12226.4 49.6243 12209.4 21.529L12190 -10.7641C12186.7 -16.1808 12184.1 -21.6768 12182.2 -27.2188H12160.2Z" fill="#FCA354"/>
<path fill-rule="evenodd" clip-rule="evenodd" d="M12225.3 -27.2188C12227.4 -20.5604 12230.5 -13.9584 12234.4 -7.46183L12253.8 24.8333C12269.5 50.7758 12269.5 78.557 12253.8 104.519L12234.4 136.813C12217.4 164.908 12217.4 194.992 12234.4 223.103L12253.8 255.398C12269.5 281.341 12269.5 309.122 12253.8 335.084L12234.4 367.378C12217.4 395.473 12217.4 425.556 12234.4 453.668L12255.1 450.366C12239.4 424.404 12239.4 396.623 12255.1 370.681L12274.5 338.385C12291.5 310.273 12291.5 280.189 12274.5 252.094L12255.1 219.801C12239.4 193.839 12239.4 166.057 12255.1 140.114L12274.5 107.82C12291.5 79.7082 12291.5 49.6243 12274.5 21.529L12255.1 -10.7641C12251.8 -16.1808 12249.2 -21.6768 12247.3 -27.2188H12225.3Z" fill="#FCA354"/>
<path fill-rule="evenodd" clip-rule="evenodd" d="M12290.4 -27.2188C12292.5 -20.5604 12295.6 -13.9584 12299.5 -7.46183L12318.9 24.8333C12334.6 50.7758 12334.6 78.557 12318.9 104.519L12299.5 136.813C12282.5 164.908 12282.5 194.992 12299.5 223.103L12318.9 255.398C12334.6 281.341 12334.6 309.122 12318.9 335.084L12299.5 367.378C12282.5 395.473 12282.5 425.556 12299.5 453.668L12320.2 450.366C12304.5 424.404 12304.5 396.623 12320.2 370.681L12339.6 338.385C12356.6 310.273 12356.6 280.189 12339.6 252.094L12320.2 219.801C12304.5 193.839 12304.5 166.057 12320.2 140.114L12339.6 107.82C12356.6 79.7082 12356.6 49.6243 12339.6 21.529L12320.2 -10.7641C12316.9 -16.1808 12314.3 -21.6768 12312.4 -27.2188H12290.4Z" fill="#FCA354"/>
<path d="M12980 567.781L12867.5 632.733L12867.5 502.829L12980 567.781Z" fill="#FCA354"/>
<path d="M12753 174.781L12640.5 239.733L12640.5 109.829L12753 174.781Z" fill="#393A3D"/>
<path d="M12489 406.781L12554 518.531H12424L12489 406.781Z" fill="#A53900"/>
<path fill-rule="evenodd" clip-rule="evenodd" d="M13214 567.781C13343.2 567.781 13448 463.016 13448 333.781C13448 204.547 13343.2 99.7812 13214 99.7812C13084.8 99.7812 12980 204.547 12980 333.781C12980 463.016 13084.8 567.781 13214 567.781ZM13214 476.017C13292.6 476.017 13356.2 412.336 13356.2 333.781C13356.2 255.227 13292.6 191.546 13214 191.546C13135.4 191.546 13071.8 255.227 13071.8 333.781C13071.8 412.336 13135.4 476.017 13214 476.017Z" fill="#A53900"/>
</g>
<g clip-path="url(#clip13_1_8863)">
<rect width="1200" height="675" transform="translate(13200 0.78125)" fill="#F4F4EF"/>
<path d="M14352 0.781311L13130.3 711.788L13130.3 -710.226L14352 0.781311Z" fill="#FFD4D8"/>
<path d="M13839 360.781L14433.8 707.191L14433.8 14.3711L13839 360.781Z" fill="#FFD4D8"/>
<path fill-rule="evenodd" clip-rule="evenodd" d="M13170.3 668.678C13155.3 693.544 13155.3 720.173 13170.3 745.06L13128.9 751.664C13111.3 722.478 13111.3 691.243 13128.9 662.072C13128.9 662.072 13128.9 662.072 13128.9 662.072C13128.9 662.071 13128.9 662.07 13128.9 662.069L13148.4 629.778C13163.4 604.891 13163.4 578.261 13148.4 553.395L13148.4 553.392L13128.9 521.099C13128.9 521.099 13128.9 521.1 13128.9 521.099C13111.3 491.913 13111.3 460.678 13128.9 431.507C13128.9 431.506 13128.9 431.505 13128.9 431.504L13148.4 399.213C13163.4 374.327 13163.4 347.697 13148.4 322.83L13148.4 322.827L13128.9 290.534C13128.9 290.534 13128.9 290.535 13128.9 290.534C13111.3 261.348 13111.3 230.113 13128.9 200.943C13128.9 200.942 13128.9 200.941 13128.9 200.94L13148.4 168.648C13163.4 143.762 13163.4 117.132 13148.4 92.2656L13148.4 92.2625L13128.9 59.9695C13128.9 59.9691 13128.9 59.9698 13128.9 59.9695C13111.3 30.7825 13111.3 -0.45371 13128.9 -29.6253L13170.3 -23.0168C13155.3 1.84937 13155.3 28.4783 13170.3 53.3649L13189.7 85.6571C13189.8 85.6581 13189.8 85.6591 13189.8 85.6601C13207.3 114.831 13207.3 146.066 13189.8 175.252L13170.3 207.545L13170.3 207.548C13155.3 232.414 13155.3 259.043 13170.3 283.93L13189.7 316.222C13189.8 316.223 13189.8 316.224 13189.8 316.225C13207.3 345.396 13207.3 376.63 13189.8 405.816C13189.8 405.816 13189.8 405.815 13189.8 405.816L13170.3 438.113C13155.3 462.979 13155.3 489.608 13170.3 514.495L13189.7 546.787C13189.8 546.788 13189.8 546.789 13189.8 546.79C13207.3 575.961 13207.3 607.195 13189.8 636.381C13189.8 636.381 13189.8 636.38 13189.8 636.381L13170.3 668.678Z" fill="#FCA354"/>
<path fill-rule="evenodd" clip-rule="evenodd" d="M13250.2 668.678C13235.2 693.544 13235.2 720.173 13250.2 745.06L13208.8 751.664C13191.2 722.478 13191.2 691.243 13208.8 662.072C13208.8 662.072 13208.8 662.072 13208.8 662.072C13208.8 662.071 13208.8 662.07 13208.8 662.069L13228.3 629.778C13243.3 604.891 13243.3 578.261 13228.3 553.395L13228.3 553.392L13208.8 521.099C13208.8 521.099 13208.8 521.1 13208.8 521.099C13191.2 491.913 13191.2 460.678 13208.8 431.507C13208.8 431.506 13208.8 431.505 13208.8 431.504L13228.3 399.213C13243.3 374.327 13243.3 347.697 13228.3 322.83L13228.3 322.827L13208.8 290.534C13208.8 290.534 13208.8 290.535 13208.8 290.534C13191.2 261.348 13191.2 230.113 13208.8 200.943C13208.8 200.942 13208.8 200.941 13208.8 200.94L13228.3 168.648C13243.3 143.762 13243.3 117.132 13228.3 92.2656L13228.3 92.2625L13208.8 59.9695C13208.8 59.9691 13208.8 59.9698 13208.8 59.9695C13191.2 30.7825 13191.2 -0.45371 13208.8 -29.6253L13250.2 -23.0168C13235.2 1.84937 13235.2 28.4783 13250.2 53.3649L13269.7 85.6571C13269.7 85.6581 13269.7 85.6591 13269.7 85.6601C13287.3 114.831 13287.3 146.066 13269.7 175.252L13250.2 207.545L13250.2 207.548C13235.2 232.414 13235.2 259.043 13250.2 283.93L13269.7 316.222C13269.7 316.223 13269.7 316.224 13269.7 316.225C13287.3 345.396 13287.3 376.63 13269.7 405.816C13269.7 405.816 13269.7 405.815 13269.7 405.816L13250.2 438.113C13235.2 462.979 13235.2 489.608 13250.2 514.495L13269.7 546.787C13269.7 546.788 13269.7 546.789 13269.7 546.79C13287.3 575.961 13287.3 607.195 13269.7 636.381C13269.7 636.381 13269.7 636.38 13269.7 636.381L13250.2 668.678Z" fill="#FCA354"/>
<path fill-rule="evenodd" clip-rule="evenodd" d="M13330.1 668.678C13315.1 693.544 13315.1 720.173 13330.1 745.06L13288.8 751.664C13271.2 722.478 13271.2 691.243 13288.8 662.072C13288.8 662.072 13288.8 662.072 13288.8 662.072C13288.8 662.071 13288.8 662.07 13288.8 662.069L13308.2 629.778C13323.2 604.891 13323.2 578.261 13308.2 553.395L13308.2 553.392L13288.8 521.099C13288.8 521.099 13288.8 521.1 13288.8 521.099C13271.2 491.913 13271.2 460.678 13288.8 431.507C13288.8 431.506 13288.8 431.505 13288.8 431.504L13308.2 399.213C13323.2 374.327 13323.2 347.697 13308.2 322.83L13308.2 322.827L13288.8 290.534C13288.8 290.534 13288.8 290.535 13288.8 290.534C13271.2 261.348 13271.2 230.113 13288.8 200.943C13288.8 200.942 13288.8 200.941 13288.8 200.94L13308.2 168.648C13323.2 143.762 13323.2 117.132 13308.2 92.2656L13308.2 92.2625L13288.8 59.9695C13288.8 59.9691 13288.8 59.9698 13288.8 59.9695C13271.2 30.7825 13271.2 -0.45371 13288.8 -29.6253L13330.1 -23.0168C13315.1 1.84937 13315.1 28.4783 13330.1 53.3649L13349.6 85.6571C13349.6 85.6581 13349.6 85.6591 13349.6 85.6601C13367.2 114.831 13367.2 146.066 13349.6 175.252L13330.1 207.545L13330.1 207.548C13315.1 232.414 13315.1 259.043 13330.1 283.93L13349.6 316.222C13349.6 316.223 13349.6 316.224 13349.6 316.225C13367.2 345.396 13367.2 376.63 13349.6 405.816C13349.6 405.816 13349.6 405.815 13349.6 405.816L13330.1 438.113C13315.1 462.979 13315.1 489.608 13330.1 514.495L13349.6 546.787C13349.6 546.788 13349.6 546.789 13349.6 546.79C13367.2 575.961 13367.2 607.195 13349.6 636.381C13349.6 636.381 13349.6 636.38 13349.6 636.381L13330.1 668.678Z" fill="#FCA354"/>
<path fill-rule="evenodd" clip-rule="evenodd" d="M13410 668.678C13395 693.544 13395 720.173 13410 745.06L13368.7 751.664C13351.1 722.478 13351.1 691.243 13368.7 662.072C13368.7 662.072 13368.7 662.072 13368.7 662.072C13368.7 662.071 13368.7 662.07 13368.7 662.069L13388.1 629.778C13403.1 604.891 13403.1 578.261 13388.1 553.395L13388.1 553.392L13368.7 521.099C13368.7 521.099 13368.7 521.1 13368.7 521.099C13351.1 491.913 13351.1 460.678 13368.7 431.507C13368.7 431.506 13368.7 431.505 13368.7 431.504L13388.1 399.213C13403.1 374.327 13403.1 347.697 13388.1 322.83L13388.1 322.827L13368.7 290.534C13368.7 290.534 13368.7 290.535 13368.7 290.534C13351.1 261.348 13351.1 230.113 13368.7 200.943C13368.7 200.942 13368.7 200.941 13368.7 200.94L13388.1 168.648C13403.1 143.762 13403.1 117.132 13388.1 92.2656L13388.1 92.2625L13368.7 59.9695C13368.7 59.9691 13368.7 59.9698 13368.7 59.9695C13351.1 30.7825 13351.1 -0.45371 13368.7 -29.6253L13410 -23.0168C13395 1.84937 13395 28.4783 13410 53.3649L13429.5 85.6571C13429.5 85.6581 13429.5 85.6591 13429.5 85.6601C13447.1 114.831 13447.1 146.066 13429.5 175.252L13410 207.545L13410 207.548C13395 232.414 13395 259.043 13410 283.93L13429.5 316.222C13429.5 316.223 13429.5 316.224 13429.5 316.225C13447.1 345.396 13447.1 376.63 13429.5 405.816C13429.5 405.816 13429.5 405.815 13429.5 405.816L13410 438.113C13395 462.979 13395 489.608 13410 514.495L13429.5 546.787C13429.5 546.788 13429.5 546.789 13429.5 546.79C13447.1 575.961 13447.1 607.195 13429.5 636.381C13429.5 636.381 13429.5 636.38 13429.5 636.381L13410 668.678Z" fill="#FCA354"/>
<path fill-rule="evenodd" clip-rule="evenodd" d="M13816 911.781C13945.2 911.781 14050 807.016 14050 677.781C14050 548.547 13945.2 443.781 13816 443.781C13686.8 443.781 13582 548.547 13582 677.781C13582 807.016 13686.8 911.781 13816 911.781ZM13816 820.017C13894.6 820.017 13958.2 756.336 13958.2 677.781C13958.2 599.227 13894.6 535.546 13816 535.546C13737.4 535.546 13673.8 599.227 13673.8 677.781C13673.8 756.336 13737.4 820.017 13816 820.017Z" fill="#A53900"/>
<path d="M14352.4 182.781C14256.6 182.781 14179 260.406 14179 356.162C14179 451.917 14256.6 529.543 14352.4 529.543L14352.4 182.781Z" fill="#393A3D"/>
</g>
<g clip-path="url(#clip14_1_8863)">
<rect width="1200" height="675" transform="translate(14400 0.78125)" fill="#F4F4EF"/>
<path fill-rule="evenodd" clip-rule="evenodd" d="M14400 567.781C14529.2 567.781 14634 463.016 14634 333.781C14634 204.547 14529.2 99.7812 14400 99.7812C14270.8 99.7812 14166 204.547 14166 333.781C14166 463.016 14270.8 567.781 14400 567.781ZM14400 476.017C14478.6 476.017 14542.2 412.336 14542.2 333.781C14542.2 255.227 14478.6 191.546 14400 191.546C14321.4 191.546 14257.8 255.227 14257.8 333.781C14257.8 412.336 14321.4 476.017 14400 476.017Z" fill="#A53900"/>
<rect x="14837" y="52.7812" width="996" height="771" fill="#FFD4D8"/>
<circle cx="14837" cy="338.781" r="113" fill="#FCA354"/>
<circle cx="15211" cy="338.781" r="113" fill="#A53900"/>
<circle cx="15585" cy="338.781" r="113" fill="#FCA354"/>
<path d="M14756.5 99.7812L14796.8 168.781H14716.2L14756.5 99.7812Z" fill="#393A3D"/>
<path d="M15081.5 501.781L15121.8 570.781H15041.2L15081.5 501.781Z" fill="#393A3D"/>
<path d="M15452.5 111.781L15492.8 180.781H15412.2L15452.5 111.781Z" fill="#393A3D"/>
</g>
<g clip-path="url(#clip15_1_8863)">
<rect width="1200" height="675" transform="translate(15600 0.78125)" fill="#F4F4EF"/>
<path fill-rule="evenodd" clip-rule="evenodd" d="M16192 514.781C16321.2 514.781 16426 410.016 16426 280.781C16426 151.547 16321.2 46.7812 16192 46.7812C16062.8 46.7812 15958 151.547 15958 280.781C15958 410.016 16062.8 514.781 16192 514.781ZM16192 423.017C16270.6 423.017 16334.2 359.336 16334.2 280.781C16334.2 202.227 16270.6 138.546 16192 138.546C16113.4 138.546 16049.8 202.227 16049.8 280.781C16049.8 359.336 16113.4 423.017 16192 423.017Z" fill="#A53900"/>
<rect x="15874" y="285.781" width="636" height="771" fill="#FFD4D8"/>
<path d="M16191.8 280.781L16435.9 700.303H15947.8L16191.8 280.781Z" fill="#FCA354"/>
<rect x="16156" y="177.781" width="71" height="71" fill="#393A3D"/>
<rect x="15600" y="0.78125" width="274" height="56.0001" fill="#FCA354"/>
<rect x="15600" y="112.781" width="274" height="56.0001" fill="#FCA354"/>
<rect x="15600" y="224.781" width="274" height="56.0001" fill="#FCA354"/>
<rect x="16510" y="0.78125" width="274" height="56.0001" fill="#FCA354"/>
<rect x="16510" y="112.781" width="274" height="56.0001" fill="#FCA354"/>
<rect x="16510" y="224.781" width="274" height="56.0001" fill="#FCA354"/>
</g>
<g clip-path="url(#clip16_1_8863)">
<rect width="1200" height="675" transform="translate(16800 0.78125)" fill="#F4F4EF"/>
<rect x="17402" y="-414.219" width="1244.97" height="40.1333" transform="rotate(90 17402 -414.219)" fill="#FCA354"/>
<rect x="17321.7" y="-414.219" width="1244.97" height="40.1333" transform="rotate(90 17321.7 -414.219)" fill="#FCA354"/>
<rect x="17241.5" y="-414.219" width="1244.97" height="40.1333" transform="rotate(90 17241.5 -414.219)" fill="#FCA354"/>
<rect x="17161.2" y="-414.219" width="1244.97" height="40.1333" transform="rotate(90 17161.2 -414.219)" fill="#FCA354"/>
<rect x="17080.9" y="-414.219" width="1244.97" height="40.1333" transform="rotate(90 17080.9 -414.219)" fill="#FCA354"/>
<rect x="17000.7" y="-414.219" width="1244.97" height="40.1333" transform="rotate(90 17000.7 -414.219)" fill="#FCA354"/>
<rect x="16920.4" y="-414.219" width="1244.97" height="40.1333" transform="rotate(90 16920.4 -414.219)" fill="#FCA354"/>
<rect x="16840.1" y="-414.219" width="1244.97" height="40.1333" transform="rotate(90 16840.1 -414.219)" fill="#FCA354"/>
<rect x="17674" y="5.78125" width="310" height="666" fill="#FFD4D8"/>
<rect x="17851" y="124.418" width="418.454" height="418.454" fill="#393A3D"/>
<circle cx="17101.5" cy="333.281" r="140.5" fill="#A53900"/>
<circle cx="17673.5" cy="333.281" r="55.5" fill="#FCA354"/>
</g>
<g clip-path="url(#clip17_1_8863)">
<rect width="1200" height="675" transform="translate(18000 0.78125)" fill="#F4F4EF"/>
<rect x="18000" y="5.78125" width="546" height="666" fill="#FFD4D8"/>
<rect x="18176" y="568.863" width="89.2705" height="89.2705" transform="rotate(-90 18176 568.863)" fill="#A53900"/>
<rect x="18176" y="441.594" width="89.2705" height="89.2705" transform="rotate(-90 18176 441.594)" fill="#A53900"/>
<rect x="18176" y="314.32" width="89.2705" height="89.2705" transform="rotate(-90 18176 314.32)" fill="#A53900"/>
<rect x="18176" y="187.051" width="89.2705" height="89.2705" transform="rotate(-90 18176 187.051)" fill="#A53900"/>
<rect x="18766" y="224.781" width="418" height="217" fill="#393A3D"/>
<path fill-rule="evenodd" clip-rule="evenodd" d="M19214 567.781C19343.2 567.781 19448 463.016 19448 333.781C19448 204.547 19343.2 99.7812 19214 99.7812C19084.8 99.7812 18980 204.547 18980 333.781C18980 463.016 19084.8 567.781 19214 567.781ZM19214 476.017C19292.6 476.017 19356.2 412.336 19356.2 333.781C19356.2 255.227 19292.6 191.546 19214 191.546C19135.4 191.546 19071.8 255.227 19071.8 333.781C19071.8 412.336 19135.4 476.017 19214 476.017Z" fill="#FCA354"/>
<path fill-rule="evenodd" clip-rule="evenodd" d="M18546 441.781C18605.6 441.781 18654 393.428 18654 333.781C18654 274.135 18605.6 225.781 18546 225.781C18486.4 225.781 18438 274.135 18438 333.781C18438 393.428 18486.4 441.781 18546 441.781ZM18546 399.428C18582.3 399.428 18611.6 370.037 18611.6 333.781C18611.6 297.525 18582.3 268.134 18546 268.134C18509.7 268.134 18480.4 297.525 18480.4 333.781C18480.4 370.037 18509.7 399.428 18546 399.428Z" fill="#FCA354"/>
</g>
<defs>
<filter id="filter0_d_1_8863" x="1184" y="-11.2188" width="1216" height="698" filterUnits="userSpaceOnUse" color-interpolation-filters="sRGB">
<feFlood flood-opacity="0" result="BackgroundImageFix"/>
<feColorMatrix in="SourceAlpha" type="matrix" values="0 0 0 0 0 0 0 0 0 0 0 0 0 0 0 0 0 0 127 0" result="hardAlpha"/>
<feOffset dy="4"/>
<feGaussianBlur stdDeviation="8"/>
<feColorMatrix type="matrix" values="0 0 0 0 0 0 0 0 0 0 0 0 0 0 0 0 0 0 0.2 0"/>
<feBlend mode="normal" in2="BackgroundImageFix" result="effect1_dropShadow_1_8863"/>
<feBlend mode="normal" in="SourceGraphic" in2="effect1_dropShadow_1_8863" result="shape"/>
</filter>
<filter id="filter1_d_1_8863" x="2384" y="-11.2188" width="1216" height="698" filterUnits="userSpaceOnUse" color-interpolation-filters="sRGB">
<feFlood flood-opacity="0" result="BackgroundImageFix"/>
<feColorMatrix in="SourceAlpha" type="matrix" values="0 0 0 0 0 0 0 0 0 0 0 0 0 0 0 0 0 0 127 0" result="hardAlpha"/>
<feOffset dy="4"/>
<feGaussianBlur stdDeviation="8"/>
<feColorMatrix type="matrix" values="0 0 0 0 0 0 0 0 0 0 0 0 0 0 0 0 0 0 0.2 0"/>
<feBlend mode="normal" in2="BackgroundImageFix" result="effect1_dropShadow_1_8863"/>
<feBlend mode="normal" in="SourceGraphic" in2="effect1_dropShadow_1_8863" result="shape"/>
</filter>
<clipPath id="clip0_1_8863">
<rect width="1200" height="675" fill="white" transform="translate(0 0.78125)"/>
</clipPath>
<clipPath id="clip1_1_8863">
<rect width="1200" height="675" fill="white" transform="translate(1200 0.78125)"/>
</clipPath>
<clipPath id="clip2_1_8863">
<rect x="1200" y="0.78125" width="1184" height="666" rx="12" fill="white"/>
</clipPath>
<clipPath id="clip3_1_8863">
<rect width="1200" height="675" fill="white" transform="translate(2400 0.78125)"/>
</clipPath>
<clipPath id="clip4_1_8863">
<rect x="2400" y="0.78125" width="1184" height="666" rx="12" fill="white"/>
</clipPath>
<clipPath id="clip5_1_8863">
<rect width="1200" height="675" fill="white" transform="translate(3600 0.78125)"/>
</clipPath>
<clipPath id="clip6_1_8863">
<rect width="1200" height="675" fill="white" transform="translate(4800 0.78125)"/>
</clipPath>
<clipPath id="clip7_1_8863">
<rect width="1200" height="675" fill="white" transform="translate(6000 0.78125)"/>
</clipPath>
<clipPath id="clip8_1_8863">
<rect width="1200" height="675" fill="white" transform="translate(7200 0.78125)"/>
</clipPath>
<clipPath id="clip9_1_8863">
<rect width="1200" height="675" fill="white" transform="translate(8400 0.78125)"/>
</clipPath>
<clipPath id="clip10_1_8863">
<rect width="1200" height="675" fill="white" transform="translate(9600 0.78125)"/>
</clipPath>
<clipPath id="clip11_1_8863">
<rect x="10800" y="0.78125" width="1200" height="675" rx="12" fill="white"/>
</clipPath>
<clipPath id="clip12_1_8863">
<rect width="1200" height="675" fill="white" transform="translate(12000 0.78125)"/>
</clipPath>
<clipPath id="clip13_1_8863">
<rect width="1200" height="675" fill="white" transform="translate(13200 0.78125)"/>
</clipPath>
<clipPath id="clip14_1_8863">
<rect width="1200" height="675" fill="white" transform="translate(14400 0.78125)"/>
</clipPath>
<clipPath id="clip15_1_8863">
<rect width="1200" height="675" fill="white" transform="translate(15600 0.78125)"/>
</clipPath>
<clipPath id="clip16_1_8863">
<rect width="1200" height="675" fill="white" transform="translate(16800 0.78125)"/>
</clipPath>
<clipPath id="clip17_1_8863">
<rect width="1200" height="675" fill="white" transform="translate(18000 0.78125)"/>
</clipPath>
</defs>
</svg>
