<svg width="19201" height="675" viewBox="0 0 19201 675" fill="none" xmlns="http://www.w3.org/2000/svg">
<g clip-path="url(#clip0_1_8466)">
<rect width="1200" height="675" fill="#F4F4EF"/>
<rect x="229" y="-105" width="1114" height="877" fill="#FDE68C"/>
<rect x="125" y="83" width="208.271" height="208.271" fill="#FF808C"/>
<circle cx="1183.55" cy="332.553" r="244.66" fill="#FF808C" stroke="#D9D9D9" stroke-width="9.78641"/>
<path d="M606.449 -105C467.423 34.0266 467.264 259.275 606.096 398.106C744.927 536.938 970.176 536.779 1109.2 397.753L1010.62 299.174C926.117 383.68 789.201 383.777 704.813 299.389C620.426 215.001 620.522 78.0855 705.028 -6.421L606.449 -105Z" fill="#393A3D"/>
<path d="M576.754 930.203C715.39 791.567 715.232 566.635 576.4 427.804C437.569 288.972 212.637 288.814 74.001 427.45L172.58 526.029C256.849 441.76 393.572 441.856 477.96 526.244C562.348 610.632 562.444 747.355 478.175 831.624L576.754 930.203Z" fill="#B61A37"/>
<circle cx="333.141" cy="636.141" r="54.1408" fill="#FF808C"/>
</g>
<g clip-path="url(#clip1_1_8466)">
<rect width="1200" height="675" transform="translate(1200)" fill="#F4F4EF"/>
<rect x="1372" y="333" width="839" height="326" rx="44" fill="#FDE68C"/>
<circle cx="1395.9" cy="104.897" r="21.2419" fill="#B61A37" stroke="#D9D9D9" stroke-width="5.31048"/>
<circle cx="1470.24" cy="104.897" r="21.2419" fill="#393A3D" stroke="#D9D9D9" stroke-width="5.31048"/>
<circle cx="1544.59" cy="104.897" r="21.2419" fill="#B61A37" stroke="#D9D9D9" stroke-width="5.31048"/>
<circle cx="1618.94" cy="104.897" r="21.2419" fill="#393A3D" stroke="#D9D9D9" stroke-width="5.31048"/>
<circle cx="1693.28" cy="104.897" r="21.2419" fill="#B61A37" stroke="#D9D9D9" stroke-width="5.31048"/>
<circle cx="1767.63" cy="104.897" r="21.2419" fill="#393A3D" stroke="#D9D9D9" stroke-width="5.31048"/>
<path fill-rule="evenodd" clip-rule="evenodd" d="M2240.5 550C2472.74 550 2661 361.736 2661 129.5C2661 -102.736 2472.74 -291 2240.5 -291C2008.26 -291 1820 -102.736 1820 129.5C1820 361.736 2008.26 550 2240.5 550ZM2240.5 385.098C2381.66 385.098 2496.1 270.663 2496.1 129.5C2496.1 -11.6631 2381.66 -126.098 2240.5 -126.098C2099.34 -126.098 1984.9 -11.6631 1984.9 129.5C1984.9 270.663 2099.34 385.098 2240.5 385.098Z" fill="#393A3D"/>
<path d="M1267.6 665.522L1508.89 244.4L1752.95 667.124L1267.6 665.522Z" fill="#FF808C"/>
<path d="M2363.8 6.59766C2296.09 -61.1117 2186.31 -61.1117 2118.6 6.59766C2050.89 74.307 2050.89 184.086 2118.6 251.795L2166.68 203.717C2125.52 162.56 2125.52 95.8323 2166.68 54.6756C2207.83 13.5188 2274.56 13.5188 2315.72 54.6756L2363.8 6.59766Z" fill="#FF808C"/>
<path d="M2119 252.195C2186.71 319.905 2296.49 319.905 2364.2 252.195C2431.91 184.486 2431.91 74.7074 2364.2 6.99805L2316.12 55.0759C2357.28 96.2327 2357.28 162.961 2316.12 204.117C2274.96 245.274 2208.23 245.274 2167.08 204.117L2119 252.195Z" fill="#B61A37"/>
<circle cx="1906.9" cy="611.897" r="21.2419" fill="#B61A37" stroke="#D9D9D9" stroke-width="5.31048"/>
<circle cx="1981.24" cy="611.897" r="21.2419" fill="#393A3D" stroke="#D9D9D9" stroke-width="5.31048"/>
<circle cx="2055.59" cy="611.897" r="21.2419" fill="#B61A37" stroke="#D9D9D9" stroke-width="5.31048"/>
<circle cx="2129.94" cy="611.897" r="21.2419" fill="#393A3D" stroke="#D9D9D9" stroke-width="5.31048"/>
<circle cx="2204.28" cy="611.897" r="21.2419" fill="#B61A37" stroke="#D9D9D9" stroke-width="5.31048"/>
<circle cx="2278.63" cy="611.897" r="21.2419" fill="#393A3D" stroke="#D9D9D9" stroke-width="5.31048"/>
</g>
<g clip-path="url(#clip2_1_8466)">
<rect width="1200" height="675" transform="translate(2400)" fill="#F4F4EF"/>
<rect x="3230" y="116" width="354" height="562" fill="#FDE68C"/>
<rect x="2609" y="-120" width="468" height="562" fill="#FDE68C"/>
<path d="M2886 359V850H2396L2886 359Z" fill="#393A3D"/>
<path d="M3093 57C3093 232.074 3234.93 374 3410 374C3585.07 374 3727 232.074 3727 57L3093 57Z" fill="#FF808C"/>
<rect x="2497.06" y="116" width="379.144" height="27.666" transform="rotate(45 2497.06 116)" fill="#FF808C"/>
<rect x="2457.93" y="155.129" width="379.144" height="27.666" transform="rotate(45 2457.93 155.129)" fill="#FF808C"/>
<rect x="2418.81" y="194.254" width="379.144" height="27.666" transform="rotate(45 2418.81 194.254)" fill="#FF808C"/>
<rect x="2379.68" y="233.379" width="379.144" height="27.666" transform="rotate(45 2379.68 233.379)" fill="#FF808C"/>
<rect x="2340.55" y="272.504" width="379.144" height="27.666" transform="rotate(45 2340.55 272.504)" fill="#FF808C"/>
<rect x="2301.43" y="311.629" width="379.144" height="27.666" transform="rotate(45 2301.43 311.629)" fill="#FF808C"/>
<rect x="2262.3" y="350.754" width="379.144" height="27.666" transform="rotate(45 2262.3 350.754)" fill="#FF808C"/>
<rect x="2223.18" y="389.883" width="379.144" height="27.666" transform="rotate(45 2223.18 389.883)" fill="#FF808C"/>
<rect x="3531" y="189" width="506" height="28" transform="rotate(90 3531 189)" fill="#393A3D"/>
<rect x="3476" y="189" width="506" height="28" transform="rotate(90 3476 189)" fill="#393A3D"/>
<rect x="3420" y="189" width="506" height="27" transform="rotate(90 3420 189)" fill="#393A3D"/>
<rect x="3365" y="189" width="506" height="28" transform="rotate(90 3365 189)" fill="#393A3D"/>
<rect x="3310" y="189" width="506" height="28" transform="rotate(90 3310 189)" fill="#393A3D"/>
<path d="M3165 10C3165 145.31 3274.69 255 3410 255C3545.31 255 3655 145.31 3655 10H3558.92C3558.92 92.2472 3492.25 158.922 3410 158.922C3327.75 158.922 3261.08 92.2472 3261.08 10H3165Z" fill="#B61A37"/>
<rect x="2676" y="127" width="89.2705" height="89.2705" fill="#FF808C"/>
<rect x="2960" y="534" width="89.2705" height="89.2705" fill="#B61A37"/>
</g>
<rect x="3600" width="1200" height="675" rx="12" fill="#FDE68C"/>
<rect x="3600" width="592" height="670" fill="#F4F4EF"/>
<path d="M4171.45 124V542.454H3753L4171.45 124Z" fill="#FF808C"/>
<path d="M4171.45 123.999L3753 123.999L3753 542.453L4171.45 123.999Z" fill="#BABEC5"/>
<path d="M4171.45 125V543.454H3753L4171.45 125Z" fill="#FF808C"/>
<path d="M4171.45 124.999L3753 124.999L3753 543.453L4171.45 124.999Z" fill="#B61A37"/>
<path d="M4212 124.363V542.817H4630.45L4212 124.363Z" fill="#B61A37"/>
<path d="M4630.45 542.453V123.999H4212L4630.45 542.453Z" fill="#BABEC5"/>
<path d="M4212 125.363V543.817H4630.45L4212 125.363Z" fill="#B61A37"/>
<path d="M4630.45 543.453V124.999H4212L4630.45 543.453Z" fill="#FF808C"/>
<g clip-path="url(#clip3_1_8466)">
<g filter="url(#filter0_d_1_8466)">
<g clip-path="url(#clip4_1_8466)">
<rect x="4800" width="1184" height="666" rx="12" fill="#F4F4EF"/>
<path d="M5079 158V576.454H5497.45L5079 158Z" fill="#FF808C"/>
<rect width="1328.7" height="678" transform="matrix(-0.707107 -0.707107 -0.707107 0.707107 6445.14 409.75)" fill="#FDE68C"/>
<path fill-rule="evenodd" clip-rule="evenodd" d="M5578.51 0C5580.59 6.69616 5583.6 13.3354 5587.54 19.8668L5606.74 51.7313C5622.18 77.328 5622.18 104.739 5606.74 130.354L5587.54 162.218C5570.82 189.938 5570.82 219.621 5587.54 247.357L5606.74 279.222C5622.18 304.819 5622.18 332.229 5606.74 357.845L5587.54 389.709C5570.82 417.429 5570.82 447.111 5587.54 474.848L5607.95 471.59C5592.51 445.974 5592.51 418.564 5607.95 392.967L5627.15 361.102C5643.87 333.365 5643.87 303.682 5627.15 275.962L5607.95 244.099C5592.51 218.484 5592.51 191.072 5607.95 165.475L5627.15 133.612C5643.87 105.875 5643.87 76.1919 5627.15 48.4711L5607.95 16.6086C5604.65 11.1425 5602.06 5.59459 5600.17 0H5578.51Z" fill="#393A3D"/>
<path fill-rule="evenodd" clip-rule="evenodd" d="M5642.74 0C5644.83 6.69616 5647.84 13.3354 5651.77 19.8668L5670.97 51.7313C5686.41 77.328 5686.41 104.739 5670.97 130.354L5651.77 162.218C5635.05 189.938 5635.06 219.621 5651.77 247.357L5670.97 279.222C5686.41 304.819 5686.41 332.229 5670.97 357.845L5651.77 389.709C5635.05 417.429 5635.06 447.111 5651.77 474.848L5672.18 471.59C5656.74 445.974 5656.75 418.564 5672.18 392.967L5691.38 361.102C5708.1 333.365 5708.1 303.682 5691.38 275.962L5672.18 244.099C5656.74 218.484 5656.75 191.072 5672.18 165.475L5691.38 133.612C5708.1 105.875 5708.1 76.1919 5691.38 48.4711L5672.18 16.6086C5668.89 11.1425 5666.3 5.59459 5664.41 0H5642.74Z" fill="#393A3D"/>
<path fill-rule="evenodd" clip-rule="evenodd" d="M5706.98 0C5709.06 6.69616 5712.07 13.3354 5716.01 19.8668L5735.21 51.7313C5750.64 77.328 5750.64 104.739 5735.21 130.354L5716.01 162.218C5699.29 189.938 5699.29 219.621 5716.01 247.357L5735.21 279.222C5750.64 304.819 5750.64 332.229 5735.21 357.845L5716.01 389.709C5699.29 417.429 5699.29 447.111 5716.01 474.848L5736.42 471.59C5720.98 445.974 5720.98 418.564 5736.42 392.967L5755.62 361.102C5772.33 333.365 5772.33 303.682 5755.62 275.962L5736.42 244.099C5720.98 218.484 5720.98 191.072 5736.42 165.475L5755.62 133.612C5772.33 105.875 5772.33 76.1919 5755.62 48.4711L5736.42 16.6086C5733.12 11.1425 5730.53 5.59459 5728.64 0H5706.98Z" fill="#393A3D"/>
<path fill-rule="evenodd" clip-rule="evenodd" d="M5771.21 0C5773.3 6.69616 5776.31 13.3354 5780.24 19.8668L5799.44 51.7313C5814.88 77.328 5814.88 104.739 5799.44 130.354L5780.24 162.218C5763.52 189.938 5763.52 219.621 5780.24 247.357L5799.44 279.222C5814.88 304.819 5814.88 332.229 5799.44 357.845L5780.24 389.709C5763.52 417.429 5763.52 447.111 5780.24 474.848L5800.65 471.59C5785.21 445.974 5785.21 418.564 5800.65 392.967L5819.85 361.102C5836.57 333.365 5836.57 303.682 5819.85 275.962L5800.65 244.099C5785.21 218.484 5785.21 191.072 5800.65 165.475L5819.85 133.612C5836.57 105.875 5836.57 76.1919 5819.85 48.4711L5800.65 16.6086C5797.36 11.1425 5794.77 5.59459 5792.88 0H5771.21Z" fill="#393A3D"/>
<path fill-rule="evenodd" clip-rule="evenodd" d="M5835.45 0C5837.53 6.69616 5840.54 13.3354 5844.48 19.8668L5863.67 51.7313C5879.11 77.328 5879.11 104.739 5863.67 130.354L5844.48 162.218C5827.76 189.938 5827.76 219.621 5844.48 247.357L5863.67 279.222C5879.11 304.819 5879.11 332.229 5863.67 357.845L5844.48 389.709C5827.76 417.429 5827.76 447.111 5844.48 474.848L5864.89 471.59C5849.45 445.974 5849.45 418.564 5864.89 392.967L5884.09 361.102C5900.8 333.365 5900.8 303.682 5884.08 275.962L5864.89 244.099C5849.45 218.484 5849.45 191.072 5864.89 165.475L5884.09 133.612C5900.8 105.875 5900.8 76.1919 5884.08 48.4711L5864.89 16.6086C5861.59 11.1425 5859 5.59459 5857.11 0H5835.45Z" fill="#393A3D"/>
<rect x="5289" y="125" width="208.271" height="208.271" fill="#B61A37"/>
</g>
</g>
</g>
<g clip-path="url(#clip5_1_8466)">
<rect width="1200" height="675" transform="translate(6000)" fill="#F4F4EF"/>
<rect x="6000" width="1184" height="678" fill="#FDE68C"/>
<rect x="6000" y="-374" width="1196" height="695" fill="#F4F4EF"/>
<rect x="6646.46" width="209.227" height="418.454" transform="rotate(90 6646.46 0)" fill="#393A3D"/>
<rect x="5999.64" y="831" width="540" height="25.4076" transform="rotate(-90 5999.64 831)" fill="#B61A37"/>
<rect x="6050.45" y="831" width="540" height="25.4076" transform="rotate(-90 6050.45 831)" fill="#B61A37"/>
<rect x="6101.27" y="831" width="540" height="25.4076" transform="rotate(-90 6101.27 831)" fill="#B61A37"/>
<rect x="6152.08" y="831" width="540" height="25.4076" transform="rotate(-90 6152.08 831)" fill="#B61A37"/>
<rect x="6202.89" y="831" width="540" height="25.4076" transform="rotate(-90 6202.89 831)" fill="#B61A37"/>
<rect x="6253.71" y="831" width="540" height="25.4076" transform="rotate(-90 6253.71 831)" fill="#B61A37"/>
<rect x="6702" y="713.227" width="209.227" height="418.454" transform="rotate(-90 6702 713.227)" fill="#FF808C"/>
<rect x="7221.67" y="-112" width="540" height="25.4076" transform="rotate(90 7221.67 -112)" fill="#393A3D"/>
<rect x="7170.86" y="-112" width="540" height="25.4076" transform="rotate(90 7170.86 -112)" fill="#393A3D"/>
<rect x="7120.04" y="-112" width="540" height="25.4076" transform="rotate(90 7120.04 -112)" fill="#393A3D"/>
<rect x="7069.23" y="-112" width="540" height="25.4076" transform="rotate(90 7069.23 -112)" fill="#393A3D"/>
<rect x="7018.41" y="-112" width="540" height="25.4076" transform="rotate(90 7018.41 -112)" fill="#393A3D"/>
<path d="M6322 831C6471.12 831 6592 709.893 6592 560.5C6592 411.107 6471.12 290 6322 290L6322 831Z" fill="#B61A37"/>
<rect x="6687" width="89.2705" height="89.2705" fill="#FF808C"/>
</g>
<g clip-path="url(#clip6_1_8466)">
<rect width="1200" height="675" transform="translate(7200)" fill="#FDE68C"/>
<rect x="7722" y="-212" width="922" height="922" fill="#F4F4EF"/>
<rect x="7487" y="414" width="89.2705" height="89.2705" fill="#B61A37"/>
<rect x="7614" y="414" width="89.2705" height="89.2705" fill="#B61A37"/>
<rect x="7741" y="414" width="89.2705" height="89.2705" fill="#B61A37"/>
<rect x="7868" y="414" width="89.2705" height="89.2705" fill="#B61A37"/>
<path fill-rule="evenodd" clip-rule="evenodd" d="M8170.12 0C8173.08 9.51858 8177.36 18.9563 8182.96 28.2407L8210.25 73.5363C8232.19 109.922 8232.19 148.887 8210.25 185.3L8182.96 230.594C8159.19 269.998 8159.19 312.193 8182.96 351.62L8210.25 396.916C8232.19 433.302 8232.19 472.266 8210.25 508.679L8182.96 553.974C8159.19 593.378 8159.19 635.572 8182.96 675L8211.97 670.368C8190.02 633.956 8190.02 594.992 8211.97 558.606L8239.26 513.309C8263.03 473.881 8263.03 431.687 8239.26 392.281L8211.97 346.989C8190.02 310.576 8190.03 271.61 8211.97 235.224L8239.26 189.93C8263.03 150.501 8263.03 108.307 8239.26 68.9019L8211.97 23.609C8207.29 15.839 8203.6 7.95268 8200.92 0H8170.12Z" fill="#393A3D"/>
<path fill-rule="evenodd" clip-rule="evenodd" d="M8261.43 0C8264.39 9.51858 8268.67 18.9563 8274.27 28.2407L8301.56 73.5363C8323.51 109.922 8323.51 148.887 8301.56 185.3L8274.27 230.594C8250.5 269.998 8250.51 312.193 8274.27 351.62L8301.56 396.916C8323.51 433.302 8323.51 472.266 8301.56 508.679L8274.27 553.974C8250.5 593.378 8250.5 635.572 8274.27 675L8303.28 670.368C8281.34 633.956 8281.34 594.992 8303.28 558.606L8330.57 513.309C8354.34 473.881 8354.34 431.687 8330.57 392.281L8303.28 346.989C8281.34 310.576 8281.34 271.61 8303.28 235.224L8330.57 189.93C8354.34 150.501 8354.34 108.307 8330.57 68.9019L8303.28 23.609C8298.6 15.839 8294.92 7.95268 8292.23 0H8261.43Z" fill="#393A3D"/>
<path fill-rule="evenodd" clip-rule="evenodd" d="M8352.74 0C8355.7 9.51858 8359.98 18.9563 8365.58 28.2407L8392.87 73.5363C8414.81 109.922 8414.81 148.887 8392.87 185.3L8365.58 230.594C8341.81 269.998 8341.81 312.193 8365.58 351.62L8392.87 396.916C8414.81 433.302 8414.81 472.266 8392.87 508.679L8365.58 553.974C8341.81 593.378 8341.81 635.572 8365.58 675L8394.59 670.368C8372.64 633.956 8372.65 594.992 8394.59 558.606L8421.88 513.309C8445.65 473.881 8445.65 431.687 8421.88 392.281L8394.59 346.989C8372.64 310.576 8372.65 271.61 8394.59 235.224L8421.88 189.93C8445.65 150.501 8445.65 108.307 8421.88 68.9019L8394.59 23.609C8389.91 15.839 8386.22 7.95268 8383.54 0H8352.74Z" fill="#393A3D"/>
<rect x="7487" y="575" width="470" height="470" fill="#393A3D"/>
<path fill-rule="evenodd" clip-rule="evenodd" d="M7703 342C7927.78 342 8110 159.78 8110 -65C8110 -289.78 7927.78 -472 7703 -472C7478.22 -472 7296 -289.78 7296 -65C7296 159.78 7478.22 342 7703 342ZM7703 182.392C7839.63 182.392 7950.4 71.6311 7950.4 -65C7950.4 -201.631 7839.63 -312.392 7703 -312.392C7566.37 -312.392 7455.61 -201.631 7455.61 -65C7455.61 71.6311 7566.37 182.392 7703 182.392Z" fill="#FF808C"/>
</g>
<g clip-path="url(#clip7_1_8466)">
<rect x="8400" width="1200" height="675" rx="12" fill="#F4F4EF"/>
<path d="M8992 98V333H8757L8992 98Z" fill="#B61A37"/>
<path d="M8992 568L8992 333L9227 333L8992 568Z" fill="#B61A37"/>
<path d="M8992 98V333H9227L8992 98Z" fill="#FF808C"/>
<path d="M8992 568L8992 333L8757 333L8992 568Z" fill="#FF808C"/>
<rect x="8400" width="592" height="670" fill="#FDE68C"/>
<path d="M8992 98V333H8757L8992 98Z" fill="#B61A37"/>
<path d="M8992 568L8992 333L9227 333L8992 568Z" fill="#B61A37"/>
<path d="M8992 98V333H9227L8992 98Z" fill="#FF808C"/>
<path d="M8992 568L8992 333L8757 333L8992 568Z" fill="#FF808C"/>
<path d="M9327 233V333H9427L9327 233Z" fill="#B61A37"/>
<path d="M9327 433L9327 333L9227 333L9327 433Z" fill="#B61A37"/>
<path d="M9327 233V333H9227L9327 233Z" fill="#FF808C"/>
<path d="M9327 433L9327 333L9427 333L9327 433Z" fill="#FF808C"/>
<path d="M8657 233V333H8757L8657 233Z" fill="#B61A37"/>
<path d="M8657 433L8657 333L8557 333L8657 433Z" fill="#B61A37"/>
<path d="M8657 233V333H8557L8657 233Z" fill="#FF808C"/>
<path d="M8657 433L8657 333L8757 333L8657 433Z" fill="#FF808C"/>
</g>
<g clip-path="url(#clip8_1_8466)">
<rect width="1200" height="675" transform="translate(9600)" fill="#FDE68C"/>
<path d="M9755.82 333L9999.88 752.521H9511.76L9755.82 333Z" fill="#B61A37"/>
<path d="M10584.8 333L10828.9 752.521H10340.8L10584.8 333Z" fill="#B61A37"/>
<path d="M9927.91 -104.939L10413.3 -106.54L10169.2 316.184L9927.91 -104.939Z" fill="#FF808C"/>
<circle cx="10170" cy="673" r="40" transform="rotate(-180 10170 673)" fill="#393A3D"/>
<circle cx="10170" cy="557" r="36" transform="rotate(-180 10170 557)" fill="#393A3D"/>
<circle cx="10170" cy="453" r="28" transform="rotate(-180 10170 453)" fill="#393A3D"/>
<circle cx="10170" cy="367" r="18" transform="rotate(-180 10170 367)" fill="#393A3D"/>
<circle cx="9747" cy="64" r="36" fill="#393A3D"/>
<circle cx="9747" cy="168" r="28" fill="#393A3D"/>
<circle cx="9747" cy="254" r="18" fill="#393A3D"/>
<circle cx="10585" cy="64" r="36" fill="#393A3D"/>
<circle cx="10585" cy="168" r="28" fill="#393A3D"/>
<circle cx="10585" cy="254" r="18" fill="#393A3D"/>
</g>
<g clip-path="url(#clip9_1_8466)">
<rect width="1200" height="675" transform="translate(10800)" fill="#F4F4EF"/>
<rect x="10800" y="337" width="1184" height="326" fill="#FDE68C"/>
<path d="M11725 873.281C11725 689.371 11575.7 540.281 11391.5 540.281C11207.3 540.281 11058 689.371 11058 873.281L11725 873.281Z" fill="#393A3D"/>
<path d="M11189 337.281C11189 449.395 11280.1 540.281 11392.5 540.281C11504.9 540.281 11596 449.395 11596 337.281L11189 337.281Z" fill="#FF808C"/>
<path d="M11596 338C11596 225.334 11504.7 134 11392 134C11279.3 134 11188 225.334 11188 338L11268 338C11268 269.517 11323.5 214 11392 214C11460.5 214 11516 269.517 11516 338L11596 338Z" fill="#B61A37"/>
<circle cx="11392.1" cy="67.1405" r="54.1408" transform="rotate(-90 11392.1 67.1405)" fill="#393A3D"/>
<path d="M10738 659C10915.8 659 11060 514.836 11060 337C11060 159.164 10915.8 15 10738 15L10738 141.275C10846.1 141.275 10933.7 228.904 10933.7 337C10933.7 445.096 10846.1 532.725 10738 532.725L10738 659Z" fill="#FF808C"/>
<path d="M12047 644C11869.2 644 11725 499.836 11725 322C11725 144.164 11869.2 -5.86609e-06 12047 1.90735e-06L12047 126.275C11938.9 126.275 11851.3 213.904 11851.3 322C11851.3 430.096 11938.9 517.725 12047 517.725L12047 644Z" fill="#FF808C"/>
</g>
<g clip-path="url(#clip10_1_8466)">
<rect width="1200" height="675" transform="translate(12000)" fill="#F4F4EF"/>
<rect x="12209" y="340" width="1184" height="326" fill="#FDE68C"/>
<rect x="11689" y="-83" width="1184" height="326" fill="#FDE68C"/>
<path d="M12387.5 186V604.454H11969L12387.5 186Z" fill="#FF808C"/>
<path d="M13001 480.453V61.9991H13419.5L13001 480.453Z" fill="#FF808C"/>
<path d="M12893.5 480.453V61.9991H12475L12893.5 480.453Z" fill="#393A3D"/>
<path d="M12495 186V604.454H12913.5L12495 186Z" fill="#B61A37"/>
<path d="M13408.5 186V604.454H12990L13408.5 186Z" fill="#B61A37"/>
</g>
<g clip-path="url(#clip11_1_8466)">
<rect x="13200" width="1200" height="675" rx="12" fill="#F4F4EF"/>
<rect x="13200" width="592" height="670" fill="#FDE68C"/>
<path fill-rule="evenodd" clip-rule="evenodd" d="M13792 742C14016.8 742 14199 559.78 14199 335C14199 110.22 14016.8 -72 13792 -72C13567.2 -72 13385 110.22 13385 335C13385 559.78 13567.2 742 13792 742ZM13792 582.392C13928.6 582.392 14039.4 471.631 14039.4 335C14039.4 198.369 13928.6 87.6078 13792 87.6078C13655.4 87.6078 13544.6 198.369 13544.6 335C13544.6 471.631 13655.4 582.392 13792 582.392Z" fill="#FF808C"/>
<circle cx="13916.1" cy="333.14" r="54.1408" transform="rotate(-90 13916.1 333.14)" fill="#393A3D"/>
<circle cx="14288.1" cy="333.14" r="54.1408" transform="rotate(-90 14288.1 333.14)" fill="#B61A37"/>
</g>
<g clip-path="url(#clip12_1_8466)">
<rect x="14400" width="1200" height="675" rx="12" fill="#F4F4EF"/>
<rect x="15282" width="302" height="670" fill="#FDE68C"/>
<rect x="14780" y="544.461" width="423.459" height="84.6919" transform="rotate(-90 14780 544.461)" fill="#B61A37"/>
<rect x="14949.4" y="544.461" width="423.459" height="84.6919" transform="rotate(-90 14949.4 544.461)" fill="#FF808C"/>
<rect x="15118.8" y="544.461" width="423.459" height="84.6919" transform="rotate(-90 15118.8 544.461)" fill="#B61A37"/>
<path d="M14400 544C14517.1 544 14612 449.308 14612 332.5C14612 215.692 14517.1 121 14400 121L14400 203.941C14471.2 203.941 14528.9 261.499 14528.9 332.5C14528.9 403.501 14471.2 461.059 14400 461.059L14400 544Z" fill="#B61A37"/>
<circle cx="15433.1" cy="335.14" r="54.1408" transform="rotate(-90 15433.1 335.14)" fill="#393A3D"/>
</g>
<g clip-path="url(#clip13_1_8466)">
<rect x="15600" width="1200" height="675" rx="12" fill="#F4F4EF"/>
<rect x="15600" y="0.46875" width="1244.97" height="27.1021" fill="#B61A37"/>
<rect x="15600" y="54.6719" width="1244.97" height="27.1021" fill="#B61A37"/>
<rect x="15600" y="108.879" width="1244.97" height="27.1021" fill="#B61A37"/>
<rect x="15600" y="163.082" width="1244.97" height="27.1021" fill="#B61A37"/>
<rect x="15600" y="217.285" width="1244.97" height="27.1021" fill="#B61A37"/>
<rect x="15600" y="271.488" width="1244.97" height="27.1021" fill="#B61A37"/>
<rect x="15600" y="325.695" width="1244.97" height="27.1021" fill="#B61A37"/>
<rect x="15600" y="379.898" width="1244.97" height="27.1021" fill="#393A3D"/>
<ellipse cx="16192" cy="67" rx="204" ry="204" transform="rotate(-90 16192 67)" fill="#FF808C"/>
<rect x="15600" y="407" width="1184" height="263" fill="#FDE68C"/>
<ellipse cx="16192" cy="644" rx="204" ry="204" transform="rotate(-90 16192 644)" fill="#B61A37"/>
</g>
<g clip-path="url(#clip14_1_8466)">
<rect x="16800" width="1200" height="675" rx="12" fill="#F4F4EF"/>
<rect x="17202" width="782" height="670" fill="#FDE68C"/>
<path fill-rule="evenodd" clip-rule="evenodd" d="M17530 576C17663.1 576 17771 468.101 17771 335C17771 201.899 17663.1 94 17530 94C17396.9 94 17289 201.899 17289 335C17289 468.101 17396.9 576 17530 576ZM17530 481.49C17610.9 481.49 17676.5 415.904 17676.5 335C17676.5 254.096 17610.9 188.51 17530 188.51C17449.1 188.51 17383.5 254.096 17383.5 335C17383.5 415.904 17449.1 481.49 17530 481.49Z" fill="#FF808C"/>
<path d="M17201.9 38.9989L16906 334.891L17201.9 630.782V38.9989Z" fill="#B61A37"/>
<rect x="17834" y="130" width="210.971" height="27.1021" fill="#B61A37"/>
<rect x="17834" y="184.203" width="210.971" height="27.1021" fill="#B61A37"/>
<rect x="17834" y="238.41" width="210.971" height="27.1021" fill="#B61A37"/>
<rect x="17834" y="292.613" width="210.971" height="27.1021" fill="#B61A37"/>
<rect x="17834" y="346.816" width="210.971" height="27.1021" fill="#B61A37"/>
<rect x="17834" y="401.02" width="210.971" height="27.1021" fill="#B61A37"/>
<rect x="17834" y="455.227" width="210.971" height="27.1021" fill="#B61A37"/>
<rect x="17834" y="509.43" width="210.971" height="27.1021" fill="#B61A37"/>
<circle cx="17530.1" cy="333.14" r="54.1408" transform="rotate(-90 17530.1 333.14)" fill="#393A3D"/>
</g>
<g clip-path="url(#clip15_1_8466)">
<rect x="18000" width="1200" height="675" rx="12" fill="#F4F4EF"/>
<path fill-rule="evenodd" clip-rule="evenodd" d="M18395.5 238.04C18378.9 228.049 18361.2 228.048 18344.6 238.041L18340.2 210.478C18359.6 198.758 18380.4 198.757 18399.9 210.477C18399.9 210.477 18399.9 210.477 18399.9 210.477C18399.9 210.477 18399.9 210.478 18399.9 210.478L18421.4 223.44C18438 233.433 18455.7 233.433 18472.3 223.441L18472.3 223.44L18493.8 210.478C18493.8 210.477 18493.8 210.478 18493.8 210.478C18513.2 198.759 18534.1 198.757 18553.5 210.477C18553.5 210.478 18553.5 210.478 18553.5 210.478L18575 223.44C18591.6 233.433 18609.3 233.433 18625.9 223.441L18625.9 223.44L18647.4 210.478C18647.4 210.477 18647.4 210.478 18647.4 210.478C18666.8 198.759 18687.7 198.757 18707.1 210.477C18707.1 210.478 18707.1 210.478 18707.1 210.478L18728.6 223.44C18745.2 233.433 18762.9 233.433 18779.5 223.441L18779.5 223.44L18801 210.478C18801 210.477 18801 210.478 18801 210.478C18820.5 198.758 18841.3 198.757 18860.7 210.478L18856.3 238.04C18839.7 228.049 18822 228.048 18805.4 238.041L18783.9 251.003C18783.9 251.003 18783.9 251.004 18783.9 251.004C18764.5 262.724 18743.7 262.723 18724.2 251.004L18702.7 238.041L18702.7 238.04C18686.1 228.049 18668.4 228.048 18651.8 238.041L18630.3 251.003C18630.3 251.003 18630.3 251.004 18630.3 251.004C18610.9 262.724 18590 262.723 18570.6 251.004C18570.6 251.004 18570.6 251.004 18570.6 251.004L18549.1 238.04C18532.5 228.049 18514.8 228.048 18498.2 238.041L18476.7 251.003C18476.7 251.003 18476.7 251.004 18476.7 251.004C18457.3 262.724 18436.4 262.723 18417 251.004C18417 251.004 18417 251.004 18417 251.004L18395.5 238.04Z" fill="#B61A37"/>
<path fill-rule="evenodd" clip-rule="evenodd" d="M18395.5 291.282C18378.9 281.291 18361.2 281.29 18344.6 291.283L18340.2 263.72C18359.6 252 18380.4 251.999 18399.9 263.719C18399.9 263.719 18399.9 263.719 18399.9 263.719C18399.9 263.72 18399.9 263.72 18399.9 263.721L18421.4 276.682C18438 286.675 18455.7 286.675 18472.3 276.683L18472.3 276.682L18493.8 263.72C18493.8 263.72 18493.8 263.72 18493.8 263.72C18513.2 252.001 18534.1 251.999 18553.5 263.719C18553.5 263.72 18553.5 263.72 18553.5 263.721L18575 276.682C18591.6 286.675 18609.3 286.675 18625.9 276.683L18625.9 276.682L18647.4 263.72C18647.4 263.72 18647.4 263.72 18647.4 263.72C18666.8 252.001 18687.7 251.999 18707.1 263.719C18707.1 263.72 18707.1 263.72 18707.1 263.721L18728.6 276.682C18745.2 286.675 18762.9 286.675 18779.5 276.683L18779.5 276.682L18801 263.72C18801 263.72 18801 263.72 18801 263.72C18820.5 252 18841.3 251.999 18860.7 263.721L18856.3 291.282C18839.7 281.291 18822 281.29 18805.4 291.283L18783.9 304.245C18783.9 304.245 18783.9 304.246 18783.9 304.246C18764.5 315.966 18743.7 315.965 18724.2 304.246L18702.7 291.283L18702.7 291.282C18686.1 281.291 18668.4 281.29 18651.8 291.283L18630.3 304.245C18630.3 304.245 18630.3 304.246 18630.3 304.246C18610.9 315.966 18590 315.965 18570.6 304.246C18570.6 304.246 18570.6 304.246 18570.6 304.246L18549.1 291.282C18532.5 281.291 18514.8 281.29 18498.2 291.283L18476.7 304.245C18476.7 304.245 18476.7 304.246 18476.7 304.246C18457.3 315.966 18436.4 315.965 18417 304.246C18417 304.246 18417 304.246 18417 304.246L18395.5 291.282Z" fill="#B61A37"/>
<path fill-rule="evenodd" clip-rule="evenodd" d="M18395.5 344.52C18378.9 334.529 18361.2 334.528 18344.6 344.521L18340.2 316.958C18359.6 305.239 18380.4 305.237 18399.9 316.958C18399.9 316.958 18399.9 316.958 18399.9 316.958C18399.9 316.958 18399.9 316.959 18399.9 316.959L18421.4 329.921C18438 339.914 18455.7 339.913 18472.3 329.922L18472.3 329.921L18493.8 316.958C18493.8 316.958 18493.8 316.958 18493.8 316.958C18513.2 305.239 18534.1 305.238 18553.5 316.958C18553.5 316.958 18553.5 316.958 18553.5 316.959L18575 329.921C18591.6 339.914 18609.3 339.913 18625.9 329.922L18625.9 329.921L18647.4 316.958C18647.4 316.958 18647.4 316.958 18647.4 316.958C18666.8 305.239 18687.7 305.238 18707.1 316.958C18707.1 316.958 18707.1 316.958 18707.1 316.959L18728.6 329.921C18745.2 339.914 18762.9 339.913 18779.5 329.922L18779.5 329.921L18801 316.958C18801 316.958 18801 316.958 18801 316.958C18820.5 305.239 18841.3 305.238 18860.7 316.959L18856.3 344.52C18839.7 334.529 18822 334.528 18805.4 344.521L18783.9 357.483C18783.9 357.484 18783.9 357.484 18783.9 357.485C18764.5 369.205 18743.7 369.203 18724.2 357.484L18702.7 344.522L18702.7 344.52C18686.1 334.529 18668.4 334.528 18651.8 344.521L18630.3 357.483C18630.3 357.484 18630.3 357.484 18630.3 357.485C18610.9 369.205 18590 369.203 18570.6 357.485C18570.6 357.484 18570.6 357.485 18570.6 357.485L18549.1 344.52C18532.5 334.529 18514.8 334.528 18498.2 344.521L18476.7 357.483C18476.7 357.484 18476.7 357.484 18476.7 357.485C18457.3 369.205 18436.4 369.203 18417 357.485C18417 357.484 18417 357.485 18417 357.485L18395.5 344.52Z" fill="#B61A37"/>
<path fill-rule="evenodd" clip-rule="evenodd" d="M18395.5 397.763C18378.9 387.771 18361.2 387.77 18344.6 397.763L18340.2 370.2C18359.6 358.481 18380.4 358.48 18399.9 370.2C18399.9 370.2 18399.9 370.2 18399.9 370.2C18399.9 370.2 18399.9 370.201 18399.9 370.201L18421.4 383.163C18438 393.156 18455.7 393.155 18472.3 383.164L18472.3 383.163L18493.8 370.2C18493.8 370.2 18493.8 370.2 18493.8 370.2C18513.2 358.481 18534.1 358.48 18553.5 370.2C18553.5 370.2 18553.5 370.201 18553.5 370.201L18575 383.163C18591.6 393.156 18609.3 393.155 18625.9 383.164L18625.9 383.163L18647.4 370.2C18647.4 370.2 18647.4 370.2 18647.4 370.2C18666.8 358.481 18687.7 358.48 18707.1 370.2C18707.1 370.2 18707.1 370.201 18707.1 370.201L18728.6 383.163C18745.2 393.156 18762.9 393.155 18779.5 383.164L18779.5 383.163L18801 370.2C18801 370.2 18801 370.2 18801 370.2C18820.5 358.481 18841.3 358.48 18860.7 370.201L18856.3 397.763C18839.7 387.771 18822 387.77 18805.4 397.763L18783.9 410.725C18783.9 410.726 18783.9 410.726 18783.9 410.727C18764.5 422.447 18743.7 422.446 18724.2 410.726L18702.7 397.764L18702.7 397.763C18686.1 387.771 18668.4 387.77 18651.8 397.763L18630.3 410.725C18630.3 410.726 18630.3 410.726 18630.3 410.727C18610.9 422.447 18590 422.446 18570.6 410.727C18570.6 410.727 18570.6 410.727 18570.6 410.727L18549.1 397.763C18532.5 387.771 18514.8 387.77 18498.2 397.763L18476.7 410.725C18476.7 410.726 18476.7 410.726 18476.7 410.727C18457.3 422.447 18436.4 422.446 18417 410.727C18417 410.727 18417 410.727 18417 410.727L18395.5 397.763Z" fill="#B61A37"/>
<path fill-rule="evenodd" clip-rule="evenodd" d="M18395.5 451.001C18378.9 441.01 18361.2 441.009 18344.6 451.002L18340.2 423.439C18359.6 411.719 18380.4 411.718 18399.9 423.438C18399.9 423.438 18399.9 423.438 18399.9 423.438C18399.9 423.438 18399.9 423.439 18399.9 423.439L18421.4 436.401C18438 446.394 18455.7 446.394 18472.3 436.402L18472.3 436.401L18493.8 423.439C18493.8 423.438 18493.8 423.439 18493.8 423.439C18513.2 411.72 18534.1 411.718 18553.5 423.438C18553.5 423.439 18553.5 423.439 18553.5 423.439L18575 436.401C18591.6 446.394 18609.3 446.394 18625.9 436.402L18625.9 436.401L18647.4 423.439C18647.4 423.438 18647.4 423.439 18647.4 423.439C18666.8 411.72 18687.7 411.718 18707.1 423.438C18707.1 423.438 18707.1 423.439 18707.1 423.439L18728.6 436.401C18745.2 446.394 18762.9 446.394 18779.5 436.402L18779.5 436.401L18801 423.439C18801 423.438 18801 423.439 18801 423.439C18820.5 411.719 18841.3 411.718 18860.7 423.439L18856.3 451.001C18839.7 441.01 18822 441.009 18805.4 451.002L18783.9 463.964C18783.9 463.964 18783.9 463.965 18783.9 463.965C18764.5 475.685 18743.7 475.684 18724.2 463.965L18702.7 451.002L18702.7 451.001C18686.1 441.01 18668.4 441.009 18651.8 451.002L18630.3 463.964C18630.3 463.964 18630.3 463.965 18630.3 463.965C18610.9 475.685 18590 475.684 18570.6 463.965C18570.6 463.965 18570.6 463.965 18570.6 463.965L18549.1 451.001C18532.5 441.01 18514.8 441.009 18498.2 451.002L18476.7 463.964C18476.7 463.964 18476.7 463.965 18476.7 463.965C18457.3 475.685 18436.4 475.684 18417 463.965C18417 463.965 18417 463.965 18417 463.965L18395.5 451.001Z" fill="#B61A37"/>
<rect x="18000" width="592" height="670" fill="#FDE68C"/>
<circle cx="18127.1" cy="333.141" r="54.1408" fill="#B61A37"/>
<circle cx="18295.6" cy="333.141" r="54.1408" fill="#FF808C"/>
<circle cx="18464" cy="333.141" r="54.1408" fill="#B61A37"/>
<circle cx="19016.1" cy="333.141" r="54.1408" fill="#393A3D"/>
</g>
<defs>
<filter id="filter0_d_1_8466" x="4784" y="-12" width="1216" height="698" filterUnits="userSpaceOnUse" color-interpolation-filters="sRGB">
<feFlood flood-opacity="0" result="BackgroundImageFix"/>
<feColorMatrix in="SourceAlpha" type="matrix" values="0 0 0 0 0 0 0 0 0 0 0 0 0 0 0 0 0 0 127 0" result="hardAlpha"/>
<feOffset dy="4"/>
<feGaussianBlur stdDeviation="8"/>
<feColorMatrix type="matrix" values="0 0 0 0 0 0 0 0 0 0 0 0 0 0 0 0 0 0 0.2 0"/>
<feBlend mode="normal" in2="BackgroundImageFix" result="effect1_dropShadow_1_8466"/>
<feBlend mode="normal" in="SourceGraphic" in2="effect1_dropShadow_1_8466" result="shape"/>
</filter>
<clipPath id="clip0_1_8466">
<rect width="1200" height="675" fill="white"/>
</clipPath>
<clipPath id="clip1_1_8466">
<rect width="1200" height="675" fill="white" transform="translate(1200)"/>
</clipPath>
<clipPath id="clip2_1_8466">
<rect width="1200" height="675" fill="white" transform="translate(2400)"/>
</clipPath>
<clipPath id="clip3_1_8466">
<rect width="1200" height="675" fill="white" transform="translate(4800)"/>
</clipPath>
<clipPath id="clip4_1_8466">
<rect x="4800" width="1184" height="666" rx="12" fill="white"/>
</clipPath>
<clipPath id="clip5_1_8466">
<rect width="1200" height="675" fill="white" transform="translate(6000)"/>
</clipPath>
<clipPath id="clip6_1_8466">
<rect width="1200" height="675" fill="white" transform="translate(7200)"/>
</clipPath>
<clipPath id="clip7_1_8466">
<rect x="8400" width="1200" height="675" rx="12" fill="white"/>
</clipPath>
<clipPath id="clip8_1_8466">
<rect width="1200" height="675" fill="white" transform="translate(9600)"/>
</clipPath>
<clipPath id="clip9_1_8466">
<rect width="1200" height="675" fill="white" transform="translate(10800)"/>
</clipPath>
<clipPath id="clip10_1_8466">
<rect width="1200" height="675" fill="white" transform="translate(12000)"/>
</clipPath>
<clipPath id="clip11_1_8466">
<rect x="13200" width="1200" height="675" rx="12" fill="white"/>
</clipPath>
<clipPath id="clip12_1_8466">
<rect x="14400" width="1200" height="675" rx="12" fill="white"/>
</clipPath>
<clipPath id="clip13_1_8466">
<rect x="15600" width="1200" height="675" rx="12" fill="white"/>
</clipPath>
<clipPath id="clip14_1_8466">
<rect x="16800" width="1200" height="675" rx="12" fill="white"/>
</clipPath>
<clipPath id="clip15_1_8466">
<rect x="18000" width="1200" height="675" rx="12" fill="white"/>
</clipPath>
</defs>
</svg>
