<svg width="1184" height="666" viewBox="0 0 1184 666" fill="none" xmlns="http://www.w3.org/2000/svg">
<g clip-path="url(#clip0_525_6111)">
<rect width="1184" height="666" fill="#F4F4EF"/>
<path d="M718 332.773C718 428.529 795.625 506.154 891.381 506.154C987.136 506.154 1064.76 428.529 1064.76 332.773H718Z" fill="#5DABFF"/>
<rect width="593" height="666" transform="matrix(-1 0 0 1 593 0)" fill="#DFD4D8"/>
<path fill-rule="evenodd" clip-rule="evenodd" d="M745.955 -170C748.038 -163.304 751.048 -156.665 754.984 -150.133L774.183 -118.269C789.621 -92.672 789.621 -65.2612 774.182 -39.6456L754.984 -7.78209C738.266 19.9382 738.267 49.6209 754.984 77.3575L774.183 109.222C789.621 134.819 789.621 162.229 774.182 187.845L754.984 219.709C738.266 247.429 738.267 277.111 754.984 304.848L775.395 301.59C759.956 275.974 759.956 248.564 775.394 222.967L794.593 191.102C811.311 163.365 811.311 133.682 794.592 105.962L775.395 74.0992C759.956 48.4836 759.957 21.0718 775.395 -4.52487L794.593 -36.3884C811.311 -64.1255 811.311 -93.8081 794.592 -121.529L775.395 -153.391C772.1 -158.858 769.509 -164.405 767.621 -170H745.955Z" fill="#393A3D"/>
<path fill-rule="evenodd" clip-rule="evenodd" d="M810.19 -170C812.273 -163.304 815.283 -156.665 819.219 -150.133L838.418 -118.269C853.856 -92.672 853.856 -65.2612 838.417 -39.6456L819.219 -7.78209C802.501 19.9382 802.502 49.6209 819.219 77.3575L838.418 109.222C853.856 134.819 853.856 162.229 838.417 187.845L819.219 219.709C802.501 247.429 802.502 277.111 819.219 304.848L839.63 301.59C824.191 275.974 824.191 248.564 839.629 222.967L858.828 191.102C875.546 163.365 875.546 133.682 858.827 105.962L839.63 74.0992C824.191 48.4836 824.192 21.0718 839.63 -4.52487L858.828 -36.3884C875.546 -64.1255 875.546 -93.8081 858.827 -121.529L839.63 -153.391C836.335 -158.858 833.744 -164.405 831.855 -170H810.19Z" fill="#393A3D"/>
<path fill-rule="evenodd" clip-rule="evenodd" d="M874.425 -170C876.508 -163.304 879.517 -156.665 883.454 -150.133L902.653 -118.269C918.091 -92.672 918.091 -65.2612 902.652 -39.6456L883.454 -7.78209C866.736 19.9382 866.737 49.6209 883.454 77.3575L902.653 109.222C918.091 134.819 918.091 162.229 902.652 187.845L883.454 219.709C866.736 247.429 866.737 277.111 883.454 304.848L903.865 301.59C888.426 275.974 888.426 248.564 903.864 222.967L923.063 191.102C939.781 163.365 939.781 133.682 923.062 105.962L903.865 74.0992C888.426 48.4836 888.427 21.0718 903.865 -4.52487L923.063 -36.3884C939.781 -64.1255 939.781 -93.8081 923.062 -121.529L903.865 -153.391C900.57 -158.858 897.979 -164.405 896.09 -170H874.425Z" fill="#393A3D"/>
<path fill-rule="evenodd" clip-rule="evenodd" d="M938.66 -170C940.743 -163.304 943.752 -156.665 947.689 -150.133L966.888 -118.269C982.325 -92.672 982.326 -65.2612 966.887 -39.6456L947.689 -7.78209C930.971 19.9382 930.972 49.6209 947.689 77.3575L966.888 109.222C982.325 134.819 982.326 162.229 966.887 187.845L947.689 219.709C930.97 247.429 930.971 277.111 947.689 304.848L968.1 301.59C952.66 275.974 952.661 248.564 968.099 222.967L987.298 191.102C1004.02 163.365 1004.02 133.682 987.297 105.962L968.1 74.0992C952.66 48.4836 952.662 21.0718 968.1 -4.52487L987.298 -36.3884C1004.02 -64.1255 1004.02 -93.8081 987.297 -121.529L968.1 -153.391C964.805 -158.858 962.214 -164.405 960.325 -170H938.66Z" fill="#393A3D"/>
<path fill-rule="evenodd" clip-rule="evenodd" d="M1002.89 -170C1004.98 -163.304 1007.99 -156.665 1011.92 -150.133L1031.12 -118.269C1046.56 -92.672 1046.56 -65.2612 1031.12 -39.6456L1011.92 -7.78209C995.205 19.9382 995.207 49.6209 1011.92 77.3575L1031.12 109.222C1046.56 134.819 1046.56 162.229 1031.12 187.845L1011.92 219.709C995.205 247.429 995.206 277.111 1011.92 304.848L1032.33 301.59C1016.9 275.974 1016.9 248.564 1032.33 222.967L1051.53 191.102C1068.25 163.365 1068.25 133.682 1051.53 105.962L1032.33 74.0992C1016.9 48.4836 1016.9 21.0718 1032.33 -4.52487L1051.53 -36.3884C1068.25 -64.1255 1068.25 -93.8081 1051.53 -121.529L1032.33 -153.391C1029.04 -158.858 1026.45 -164.405 1024.56 -170H1002.89Z" fill="#393A3D"/>
<path d="M470.761 332.773C470.761 237.018 393.136 159.393 297.381 159.393C201.625 159.393 124 237.018 124 332.773L470.761 332.773Z" fill="#490097"/>
<path fill-rule="evenodd" clip-rule="evenodd" d="M152.51 363C154.592 369.696 157.602 376.335 161.538 382.867L180.737 414.731C196.175 440.328 196.175 467.739 180.736 493.354L161.538 525.218C144.82 552.938 144.821 582.621 161.538 610.357L180.737 642.222C196.175 667.819 196.175 695.229 180.736 720.845L161.538 752.709C144.82 780.429 144.821 810.111 161.539 837.848L181.949 834.59C166.51 808.974 166.511 781.564 181.949 755.967L201.148 724.102C217.865 696.365 217.866 666.682 201.147 638.962L181.949 607.099C166.51 581.484 166.512 554.072 181.949 528.475L201.148 496.612C217.865 468.875 217.866 439.192 201.147 411.471L181.949 379.609C178.655 374.142 176.063 368.595 174.175 363H152.51Z" fill="#393A3D"/>
<path fill-rule="evenodd" clip-rule="evenodd" d="M216.744 363C218.827 369.696 221.837 376.335 225.773 382.867L244.972 414.731C260.41 440.328 260.41 467.739 244.971 493.354L225.773 525.218C209.055 552.938 209.056 582.621 225.773 610.357L244.972 642.222C260.41 667.819 260.41 695.229 244.971 720.845L225.773 752.709C209.055 780.429 209.056 810.111 225.773 837.848L246.184 834.59C230.745 808.974 230.746 781.564 246.183 755.967L265.382 724.102C282.1 696.365 282.1 666.682 265.382 638.962L246.184 607.099C230.745 581.484 230.746 554.072 246.184 528.475L265.382 496.612C282.1 468.875 282.1 439.192 265.382 411.471L246.184 379.609C242.889 374.142 240.298 368.595 238.41 363H216.744Z" fill="#393A3D"/>
<path fill-rule="evenodd" clip-rule="evenodd" d="M280.979 363C283.062 369.696 286.072 376.335 290.008 382.867L309.207 414.731C324.645 440.328 324.645 467.739 309.206 493.354L290.008 525.218C273.29 552.938 273.291 582.621 290.008 610.357L309.207 642.222C324.645 667.819 324.645 695.229 309.206 720.845L290.008 752.709C273.29 780.429 273.291 810.111 290.008 837.848L310.419 834.59C294.98 808.974 294.98 781.564 310.418 755.967L329.617 724.102C346.335 696.365 346.335 666.682 329.616 638.962L310.419 607.099C294.98 581.484 294.981 554.072 310.419 528.475L329.617 496.612C346.335 468.875 346.335 439.192 329.616 411.471L310.419 379.609C307.124 374.142 304.533 368.595 302.644 363H280.979Z" fill="#393A3D"/>
<path fill-rule="evenodd" clip-rule="evenodd" d="M345.214 363C347.297 369.696 350.307 376.335 354.243 382.867L373.442 414.731C388.88 440.328 388.88 467.739 373.441 493.354L354.243 525.218C337.525 552.938 337.526 582.621 354.243 610.357L373.442 642.222C388.88 667.819 388.88 695.229 373.441 720.845L354.243 752.709C337.525 780.429 337.526 810.111 354.243 837.848L374.654 834.59C359.215 808.974 359.215 781.564 374.653 755.967L393.852 724.102C410.57 696.365 410.57 666.682 393.851 638.962L374.654 607.099C359.215 581.484 359.216 554.072 374.654 528.475L393.852 496.612C410.57 468.875 410.57 439.192 393.851 411.471L374.654 379.609C371.359 374.142 368.768 368.595 366.879 363H345.214Z" fill="#393A3D"/>
<path fill-rule="evenodd" clip-rule="evenodd" d="M409.449 363C411.532 369.696 414.541 376.335 418.478 382.867L437.677 414.731C453.115 440.328 453.115 467.739 437.676 493.354L418.478 525.218C401.76 552.938 401.761 582.621 418.478 610.357L437.677 642.222C453.115 667.819 453.115 695.229 437.676 720.845L418.478 752.709C401.76 780.429 401.76 810.111 418.478 837.848L438.889 834.59C423.45 808.974 423.45 781.564 438.888 755.967L458.087 724.102C474.805 696.365 474.805 666.682 458.086 638.962L438.889 607.099C423.45 581.484 423.451 554.072 438.889 528.475L458.087 496.612C474.805 468.875 474.805 439.192 458.086 411.471L438.889 379.609C435.594 374.142 433.003 368.595 431.114 363H409.449Z" fill="#393A3D"/>
</g>
<defs>
<clipPath id="clip0_525_6111">
<rect width="1184" height="666" fill="white"/>
</clipPath>
</defs>
</svg>
