<svg width="1184" height="666" viewBox="0 0 1184 666" fill="none" xmlns="http://www.w3.org/2000/svg">
<g clip-path="url(#clip0_525_8354)">
<rect width="1184" height="666" fill="#F4F4EF"/>
<rect width="445" height="665" fill="#DFD4D8"/>
<path d="M702.839 176.186C529.873 3.2196 249.44 3.21961 76.4739 176.186C-96.4921 349.151 -96.4921 629.585 76.4739 802.551L199.291 679.734C94.1542 574.598 94.1542 404.139 199.291 299.002C304.427 193.866 474.886 193.866 580.023 299.002L702.839 176.186Z" fill="#5DABFF"/>
<path d="M480.575 489.365C653.541 662.331 933.974 662.331 1106.94 489.365C1279.91 316.399 1279.91 35.9657 1106.94 -137L984.123 -14.1835C1089.26 90.9528 1089.26 261.412 984.123 366.548C878.987 471.685 708.528 471.685 603.391 366.548L480.575 489.365Z" fill="#490097"/>
<rect x="233" y="416" width="211.73" height="27.666" fill="#393A3D"/>
<rect x="233" y="471.332" width="211.73" height="27.666" fill="#393A3D"/>
<rect x="233" y="526.664" width="211.73" height="27.666" fill="#393A3D"/>
<rect x="233" y="581.996" width="211.73" height="27.666" fill="#393A3D"/>
<rect x="233" y="637.328" width="211.73" height="27.666" fill="#393A3D"/>
<path fill-rule="evenodd" clip-rule="evenodd" d="M885 333C920.899 333 950 303.898 950 268C950 232.102 920.899 203 885 203C849.101 203 820 232.102 820 268C820 303.898 849.101 333 885 333ZM885 307.51C906.821 307.51 924.51 289.821 924.51 268C924.51 246.179 906.821 228.49 885 228.49C863.179 228.49 845.49 246.179 845.49 268C845.49 289.821 863.179 307.51 885 307.51Z" fill="#5DABFF"/>
</g>
<defs>
<clipPath id="clip0_525_8354">
<rect width="1184" height="666" fill="white"/>
</clipPath>
</defs>
</svg>
