<svg width="1184" height="666" viewBox="0 0 1184 666" fill="none" xmlns="http://www.w3.org/2000/svg">
<g clip-path="url(#clip0_6_1447)">
<rect width="1184" height="666" fill="#F4F4EF"/>
<rect y="333" width="1184" height="333" fill="#BEE3E7"/>
<circle cx="171.141" cy="333.141" r="54.1408" fill="#006771"/>
<circle cx="339.578" cy="333.141" r="54.1408" fill="#38E8F6"/>
<circle cx="508.016" cy="333.141" r="54.1408" fill="#006771"/>
<circle cx="676.453" cy="333.141" r="54.1408" fill="#006771"/>
<circle cx="844.895" cy="333.141" r="54.1408" fill="#38E8F6"/>
<circle cx="1013.33" cy="333.141" r="54.1408" fill="#006771"/>
<path d="M418.375 0C418.375 95.7554 496 173.381 591.756 173.381C687.511 173.381 765.136 95.7554 765.136 0H697.144C697.144 58.2044 649.96 105.388 591.756 105.388C533.551 105.388 486.367 58.2044 486.367 0H418.375Z" fill="#006771"/>
<path d="M765.762 666.383C765.762 570.627 688.136 493.002 592.381 493.002C496.626 493.002 419 570.627 419 666.383L486.993 666.383C486.993 608.178 534.177 560.995 592.381 560.995C650.585 560.995 697.769 608.178 697.769 666.383L765.762 666.383Z" fill="#393A3D"/>
</g>
<defs>
<clipPath id="clip0_6_1447">
<rect width="1184" height="666" fill="white"/>
</clipPath>
</defs>
</svg>
