<svg width="1184" height="666" viewBox="0 0 1184 666" fill="none" xmlns="http://www.w3.org/2000/svg">
<g clip-path="url(#clip0_6_1346)">
<rect width="1184" height="666" fill="#F4F4EF"/>
<rect x="474" width="710" height="666" fill="#BEE3E7"/>
<path fill-rule="evenodd" clip-rule="evenodd" d="M119.553 583.001C257.378 583.001 369.107 471.272 369.107 333.448C369.107 195.623 257.378 83.8945 119.553 83.8945C-18.2712 83.8945 -130 195.623 -130 333.448C-130 471.272 -18.2712 583.001 119.553 583.001ZM119.553 485.137C203.329 485.137 271.243 417.224 271.243 333.448C271.243 249.672 203.329 181.759 119.553 181.759C35.7777 181.759 -32.1359 249.672 -32.1359 333.448C-32.1359 417.224 35.7777 485.137 119.553 485.137Z" fill="#38E8F6"/>
<circle cx="841.553" cy="332.553" r="249.553" fill="#006771"/>
</g>
<defs>
<clipPath id="clip0_6_1346">
<rect width="1184" height="666" fill="white"/>
</clipPath>
</defs>
</svg>
