<svg width="1184" height="666" viewBox="0 0 1184 666" fill="none" xmlns="http://www.w3.org/2000/svg">
<rect width="1184" height="666" fill="#F4F4EF"/>
<rect y="493" width="1184" height="173" fill="#BEE3E7"/>
<path d="M967 494C967 289.655 801.569 124 597.5 124C393.431 124 228 289.655 228 494L967 494Z" fill="#006771"/>
<path d="M546 360C546 400.317 578.683 433 619 433C659.317 433 692 400.317 692 360C692 319.683 659.317 287 619 287C578.683 287 546 319.683 546 360Z" fill="#38E8F6"/>
<path d="M438 248.5C438 268.658 454.342 285 474.5 285C494.658 285 511 268.658 511 248.5C511 228.342 494.658 212 474.5 212C454.342 212 438 228.342 438 248.5Z" fill="#38E8F6"/>
<rect x="331" y="360" width="144" height="84" fill="#F4F4EF"/>
<path d="M860.168 450.875C900.664 422.016 910.098 365.792 881.238 325.296C852.379 284.799 796.155 275.366 755.659 304.225L776.151 332.98C800.766 315.438 834.941 321.172 852.483 345.788C870.025 370.403 864.291 404.578 839.676 422.12L860.168 450.875Z" fill="#F4F4EF"/>
<path fill-rule="evenodd" clip-rule="evenodd" d="M680 252C698.778 252 714 236.778 714 218C714 199.222 698.778 184 680 184C661.222 184 646 199.222 646 218C646 236.778 661.222 252 680 252ZM680 238.667C691.414 238.667 700.667 229.414 700.667 218C700.667 206.586 691.414 197.333 680 197.333C668.586 197.333 659.333 206.586 659.333 218C659.333 229.414 668.586 238.667 680 238.667Z" fill="#006771"/>
</svg>
