<svg width="1184" height="666" viewBox="0 0 1184 666" fill="none" xmlns="http://www.w3.org/2000/svg">
<g clip-path="url(#clip0_1_3555)">
<rect width="1184" height="666" fill="#BEE3E7"/>
<rect width="586" height="679" fill="#F4F4EF"/>
<rect x="1087" y="277" width="93" height="419" transform="rotate(-180 1087 277)" fill="#393A3D"/>
<rect x="790" y="277" width="204" height="91" transform="rotate(-180 790 277)" fill="#393A3D"/>
<rect x="456" y="244" width="347" height="58" transform="rotate(-180 456 244)" fill="#393A3D"/>
<rect x="109" y="375" width="347" height="131" transform="rotate(-180 109 375)" fill="#006771"/>
<rect x="456" y="375" width="178" height="98" transform="rotate(-180 456 375)" fill="#38E8F6"/>
<rect x="278" y="686" width="169" height="311" transform="rotate(-180 278 686)" fill="#38E8F6"/>
<rect x="586" y="186" width="130" height="203" transform="rotate(-180 586 186)" fill="#38E8F6"/>
<rect x="790" y="512" width="204" height="137" transform="rotate(-180 790 512)" fill="#393A3D"/>
<rect x="994" y="375" width="204" height="98" transform="rotate(-180 994 375)" fill="#38E8F6"/>
<rect x="994" y="610" width="204" height="98" transform="rotate(-180 994 610)" fill="#006771"/>
</g>
<defs>
<clipPath id="clip0_1_3555">
<rect width="1184" height="666" fill="white"/>
</clipPath>
</defs>
</svg>
