<svg width="1184" height="666" viewBox="0 0 1184 666" fill="none" xmlns="http://www.w3.org/2000/svg">
<rect width="1184" height="666" fill="#BEE3E7"/>
<circle cx="591.553" cy="332.553" r="249.553" fill="#F4F4EF"/>
<circle cx="223.5" cy="151.5" r="68.5" fill="#006771"/>
<circle cx="888" cy="535" r="47" fill="#006771"/>
<rect x="905" y="315.672" width="204" height="98" transform="rotate(-120 905 315.672)" fill="#F4F4EF"/>
<rect width="73.1871" height="73.1871" transform="matrix(0.263621 -0.964626 -0.964626 -0.263621 291.598 430.891)" fill="#38E8F6"/>
<rect width="73.1871" height="73.1871" transform="matrix(0.263621 -0.964626 -0.964626 -0.263621 989.598 430.891)" fill="#38E8F6"/>
<rect width="70.9134" height="9.26602" transform="matrix(-1 0 0 1 751.914 264)" fill="#BABEC5"/>
<rect width="70.9134" height="9.26602" transform="matrix(-1 0 0 1 751.914 282.531)" fill="#BABEC5"/>
<rect width="70.9134" height="9.26602" transform="matrix(-1 0 0 1 751.914 301.062)" fill="#BABEC5"/>
<rect width="70.9134" height="9.26602" transform="matrix(-1 0 0 1 751.914 319.598)" fill="#BABEC5"/>
<rect width="70.9134" height="9.26602" transform="matrix(-1 0 0 1 751.914 338.129)" fill="#BABEC5"/>
<rect width="70.9134" height="9.26602" transform="matrix(-1 0 0 1 751.914 356.66)" fill="#BABEC5"/>
<rect width="70.9134" height="9.26602" transform="matrix(-1 0 0 1 751.914 375.191)" fill="#BABEC5"/>
<rect width="70.9134" height="9.26602" transform="matrix(-1 0 0 1 751.914 393.723)" fill="#BABEC5"/>
</svg>
