<svg width="1184" height="666" viewBox="0 0 1184 666" fill="none" xmlns="http://www.w3.org/2000/svg">
<rect width="1184" height="666" fill="#F4F4EF"/>
<rect y="333" width="1184" height="333" fill="#BEE3E7"/>
<path d="M456.99 221.163C456.99 295.774 456.99 370.374 456.99 444.985C457.246 467.697 449.496 490.559 434.805 509.531C418.943 530.097 395.494 546.268 368.371 554.795C331.038 566.708 287.946 563.747 253.465 546.658C226.652 533.54 205.529 512.583 194.39 487.988C186.91 471.978 184.717 455.211 185.04 438.087C185.053 368.457 185.053 298.838 185.04 229.208C184.905 221.519 185.067 213.875 186.251 206.231C191.08 167.646 220.449 132.722 261.294 115.84C299.893 99.4278 347.074 100.128 385 117.63C405.678 126.961 423.396 141.192 435.962 157.994C449.886 176.759 457.313 198.955 456.99 221.163Z" fill="#393A3D"/>
<path d="M726.99 221.163C726.99 295.774 726.99 370.374 726.99 444.985C727.244 467.697 719.551 490.559 704.968 509.531C689.223 530.097 665.946 546.268 639.023 554.795C601.964 566.708 559.189 563.747 524.961 546.658C498.345 533.54 477.379 512.583 466.321 487.988C458.896 471.978 456.719 455.211 457.039 438.087C457.053 368.457 457.053 298.838 457.039 229.208C456.906 221.519 457.066 213.875 458.241 206.231C463.036 167.646 492.189 132.722 532.733 115.84C571.048 99.4278 617.883 100.128 655.529 117.63C676.055 126.961 693.643 141.192 706.117 157.994C719.939 176.759 727.31 198.955 726.99 221.163Z" fill="#006771"/>
<path d="M998.99 221.163C998.99 295.774 998.99 370.374 998.99 444.985C999.246 467.697 991.496 490.559 976.805 509.531C960.943 530.097 937.494 546.268 910.371 554.795C873.038 566.708 829.946 563.747 795.465 546.658C768.652 533.54 747.529 512.583 736.39 487.988C728.91 471.978 726.717 455.211 727.04 438.087C727.053 368.457 727.053 298.838 727.04 229.208C726.905 221.519 727.067 213.875 728.251 206.231C733.08 167.646 762.449 132.722 803.294 115.84C841.893 99.4278 889.074 100.128 927 117.63C947.678 126.961 965.396 141.192 977.962 157.994C991.886 176.759 999.313 198.955 998.99 221.163Z" fill="#38E8F6"/>
</svg>
