<svg width="1184" height="666" viewBox="0 0 1184 666" fill="none" xmlns="http://www.w3.org/2000/svg">
<rect width="1184" height="666" fill="#BEE3E7"/>
<rect x="383" y="124" width="418.454" height="418.454" fill="#F4F4EF"/>
<path fill-rule="evenodd" clip-rule="evenodd" d="M526.399 233.661C519.693 225.672 519.693 217.117 526.4 209.122L507.9 207C500.034 216.376 500.033 226.411 507.899 235.783C507.9 235.783 507.899 235.783 507.899 235.783C507.9 235.783 507.9 235.783 507.9 235.784L516.6 246.158C523.307 254.153 523.307 262.708 516.601 270.697L516.6 270.698L507.9 281.072C507.9 281.072 507.9 281.072 507.9 281.072C500.034 290.449 500.033 300.483 507.899 309.855C507.9 309.855 507.9 309.855 507.9 309.856L516.6 320.23C523.307 328.225 523.307 336.78 516.601 344.769L516.6 344.77L507.9 355.144C507.9 355.144 507.9 355.144 507.9 355.144C500.034 364.521 500.033 374.555 507.899 383.927C507.9 383.927 507.9 383.928 507.9 383.928L516.6 394.302C523.307 402.297 523.307 410.852 516.601 418.841L516.6 418.842L507.9 429.216C507.9 429.217 507.9 429.216 507.9 429.216C500.034 438.593 500.033 448.628 507.9 458L526.399 455.877C519.693 447.888 519.693 439.333 526.4 431.338L535.1 420.964C535.1 420.964 535.1 420.963 535.101 420.963C542.967 411.591 542.966 401.557 535.1 392.18L526.4 381.806L526.399 381.805C519.693 373.816 519.693 365.261 526.4 357.266L535.1 346.892C535.1 346.891 535.1 346.891 535.101 346.891C542.967 337.519 542.966 327.485 535.101 318.109C535.1 318.108 535.101 318.109 535.101 318.109L526.399 307.733C519.693 299.744 519.693 291.189 526.4 283.194L535.1 272.82C535.1 272.819 535.1 272.819 535.101 272.819C542.967 263.447 542.966 253.413 535.101 244.036C535.1 244.036 535.101 244.037 535.101 244.036L526.399 233.661Z" fill="#38E8F6"/>
<path fill-rule="evenodd" clip-rule="evenodd" d="M561.399 233.661C554.693 225.672 554.693 217.117 561.4 209.122L542.9 207C535.034 216.376 535.033 226.411 542.899 235.783C542.9 235.783 542.899 235.783 542.899 235.783C542.9 235.783 542.9 235.783 542.9 235.784L551.6 246.158C558.307 254.153 558.307 262.708 551.601 270.697L551.6 270.698L542.9 281.072C542.9 281.072 542.9 281.072 542.9 281.072C535.034 290.449 535.033 300.483 542.899 309.855C542.9 309.855 542.9 309.855 542.9 309.856L551.6 320.23C558.307 328.225 558.307 336.78 551.601 344.769L551.6 344.77L542.9 355.144C542.9 355.144 542.9 355.144 542.9 355.144C535.034 364.521 535.033 374.555 542.899 383.927C542.9 383.927 542.9 383.928 542.9 383.928L551.6 394.302C558.307 402.297 558.307 410.852 551.601 418.841L551.6 418.842L542.9 429.216C542.9 429.217 542.9 429.216 542.9 429.216C535.034 438.593 535.033 448.628 542.9 458L561.399 455.877C554.693 447.888 554.693 439.333 561.4 431.338L570.1 420.964C570.1 420.964 570.1 420.963 570.101 420.963C577.967 411.591 577.966 401.557 570.1 392.18L561.4 381.806L561.399 381.805C554.693 373.816 554.693 365.261 561.4 357.266L570.1 346.892C570.1 346.891 570.1 346.891 570.101 346.891C577.967 337.519 577.966 327.485 570.101 318.109C570.1 318.108 570.101 318.109 570.101 318.109L561.399 307.733C554.693 299.744 554.693 291.189 561.4 283.194L570.1 272.82C570.1 272.819 570.1 272.819 570.101 272.819C577.967 263.447 577.966 253.413 570.101 244.036C570.1 244.036 570.101 244.037 570.101 244.036L561.399 233.661Z" fill="#38E8F6"/>
<path fill-rule="evenodd" clip-rule="evenodd" d="M596.399 233.661C589.693 225.672 589.693 217.117 596.4 209.122L577.9 207C570.034 216.376 570.033 226.411 577.899 235.783C577.9 235.783 577.899 235.783 577.899 235.783C577.9 235.783 577.9 235.783 577.9 235.784L586.6 246.158C593.307 254.153 593.307 262.708 586.601 270.697L586.6 270.698L577.9 281.072C577.9 281.072 577.9 281.072 577.9 281.072C570.034 290.449 570.033 300.483 577.899 309.855C577.9 309.855 577.9 309.855 577.9 309.856L586.6 320.23C593.307 328.225 593.307 336.78 586.601 344.769L586.6 344.77L577.9 355.144C577.9 355.144 577.9 355.144 577.9 355.144C570.034 364.521 570.033 374.555 577.899 383.927C577.9 383.927 577.9 383.928 577.9 383.928L586.6 394.302C593.307 402.297 593.307 410.852 586.601 418.841L586.6 418.842L577.9 429.216C577.9 429.217 577.9 429.216 577.9 429.216C570.034 438.593 570.033 448.628 577.9 458L596.399 455.877C589.693 447.888 589.693 439.333 596.4 431.338L605.1 420.964C605.1 420.964 605.1 420.963 605.101 420.963C612.967 411.591 612.966 401.557 605.1 392.18L596.4 381.806L596.399 381.805C589.693 373.816 589.693 365.261 596.4 357.266L605.1 346.892C605.1 346.891 605.1 346.891 605.101 346.891C612.967 337.519 612.966 327.485 605.101 318.109C605.1 318.108 605.101 318.109 605.101 318.109L596.399 307.733C589.693 299.744 589.693 291.189 596.4 283.194L605.1 272.82C605.1 272.819 605.1 272.819 605.101 272.819C612.967 263.447 612.966 253.413 605.101 244.036C605.1 244.036 605.101 244.037 605.101 244.036L596.399 233.661Z" fill="#393A3D"/>
<path fill-rule="evenodd" clip-rule="evenodd" d="M631.399 233.661C624.693 225.672 624.693 217.117 631.4 209.122L612.9 207C605.034 216.376 605.033 226.411 612.899 235.783C612.9 235.783 612.899 235.783 612.899 235.783C612.9 235.783 612.9 235.783 612.9 235.784L621.6 246.158C628.307 254.153 628.307 262.708 621.601 270.697L621.6 270.698L612.9 281.072C612.9 281.072 612.9 281.072 612.9 281.072C605.034 290.449 605.033 300.483 612.899 309.855C612.9 309.855 612.9 309.855 612.9 309.856L621.6 320.23C628.307 328.225 628.307 336.78 621.601 344.769L621.6 344.77L612.9 355.144C612.9 355.144 612.9 355.144 612.9 355.144C605.034 364.521 605.033 374.555 612.899 383.927C612.9 383.927 612.9 383.928 612.9 383.928L621.6 394.302C628.307 402.297 628.307 410.852 621.601 418.841L621.6 418.842L612.9 429.216C612.9 429.217 612.9 429.216 612.9 429.216C605.034 438.593 605.033 448.628 612.9 458L631.399 455.877C624.693 447.888 624.693 439.333 631.4 431.338L640.1 420.964C640.1 420.964 640.1 420.963 640.101 420.963C647.967 411.591 647.966 401.557 640.1 392.18L631.4 381.806L631.399 381.805C624.693 373.816 624.693 365.261 631.4 357.266L640.1 346.892C640.1 346.891 640.1 346.891 640.101 346.891C647.967 337.519 647.966 327.485 640.101 318.109C640.1 318.108 640.101 318.109 640.101 318.109L631.399 307.733C624.693 299.744 624.693 291.189 631.4 283.194L640.1 272.82C640.1 272.819 640.1 272.819 640.101 272.819C647.967 263.447 647.966 253.413 640.101 244.036C640.1 244.036 640.101 244.037 640.101 244.036L631.399 233.661Z" fill="#38E8F6"/>
<path fill-rule="evenodd" clip-rule="evenodd" d="M666.399 233.661C659.693 225.672 659.693 217.117 666.4 209.122L647.9 207C640.034 216.376 640.033 226.411 647.899 235.783C647.9 235.783 647.899 235.783 647.899 235.783C647.9 235.783 647.9 235.783 647.9 235.784L656.6 246.158C663.307 254.153 663.307 262.708 656.601 270.697L656.6 270.698L647.9 281.072C647.9 281.072 647.9 281.072 647.9 281.072C640.034 290.449 640.033 300.483 647.899 309.855C647.9 309.855 647.9 309.855 647.9 309.856L656.6 320.23C663.307 328.225 663.307 336.78 656.601 344.769L656.6 344.77L647.9 355.144C647.9 355.144 647.9 355.144 647.9 355.144C640.034 364.521 640.033 374.555 647.899 383.927C647.9 383.927 647.9 383.928 647.9 383.928L656.6 394.302C663.307 402.297 663.307 410.852 656.601 418.841L656.6 418.842L647.9 429.216C647.9 429.217 647.9 429.216 647.9 429.216C640.034 438.593 640.033 448.628 647.9 458L666.399 455.877C659.693 447.888 659.693 439.333 666.4 431.338L675.1 420.964C675.1 420.964 675.1 420.963 675.101 420.963C682.967 411.591 682.966 401.557 675.1 392.18L666.4 381.806L666.399 381.805C659.693 373.816 659.693 365.261 666.4 357.266L675.1 346.892C675.1 346.891 675.1 346.891 675.101 346.891C682.967 337.519 682.966 327.485 675.101 318.109C675.1 318.108 675.101 318.109 675.101 318.109L666.399 307.733C659.693 299.744 659.693 291.189 666.4 283.194L675.1 272.82C675.1 272.819 675.1 272.819 675.101 272.819C682.967 263.447 682.966 253.413 675.101 244.036C675.1 244.036 675.101 244.037 675.101 244.036L666.399 233.661Z" fill="#38E8F6"/>
</svg>
