<svg width="1184" height="666" viewBox="0 0 1184 666" fill="none" xmlns="http://www.w3.org/2000/svg">
<g clip-path="url(#clip0_1_6922)">
<rect width="1184" height="666" fill="#F4F4EF"/>
<rect width="594" height="666" fill="#BEE3E7"/>
<path fill-rule="evenodd" clip-rule="evenodd" d="M592.5 590.381C734.925 590.381 850.382 474.924 850.382 332.499C850.382 190.075 734.925 74.6172 592.5 74.6172C450.076 74.6172 334.618 190.075 334.618 332.499C334.618 474.924 450.076 590.381 592.5 590.381ZM592.5 544.873C709.791 544.873 804.874 449.79 804.874 332.499C804.874 215.208 709.791 120.126 592.5 120.126C475.21 120.126 380.127 215.208 380.127 332.499C380.127 449.79 475.21 544.873 592.5 544.873Z" fill="#BABEC5"/>
<path fill-rule="evenodd" clip-rule="evenodd" d="M592.5 590.381C734.925 590.381 850.382 474.924 850.382 332.499C850.382 190.075 734.925 74.6172 592.5 74.6172C450.076 74.6172 334.618 190.075 334.618 332.499C334.618 474.924 450.076 590.381 592.5 590.381ZM592.5 544.873C709.791 544.873 804.874 449.79 804.874 332.499C804.874 215.208 709.791 120.126 592.5 120.126C475.21 120.126 380.127 215.208 380.127 332.499C380.127 449.79 475.21 544.873 592.5 544.873Z" fill="#7264A2"/>
<path fill-rule="evenodd" clip-rule="evenodd" d="M411.882 590.381C554.306 590.381 669.764 474.924 669.764 332.499C669.764 190.075 554.306 74.6172 411.882 74.6172C269.458 74.6172 154 190.075 154 332.499C154 474.924 269.458 590.381 411.882 590.381ZM411.882 544.873C529.173 544.873 624.256 449.79 624.256 332.499C624.256 215.208 529.173 120.126 411.882 120.126C294.591 120.126 199.509 215.208 199.509 332.499C199.509 449.79 294.591 544.873 411.882 544.873Z" fill="#342C4C"/>
<path fill-rule="evenodd" clip-rule="evenodd" d="M773.117 590.381C915.542 590.381 1031 474.924 1031 332.499C1031 190.075 915.542 74.6172 773.117 74.6172C630.693 74.6172 515.235 190.075 515.235 332.499C515.235 474.924 630.693 590.381 773.117 590.381ZM773.117 544.873C890.408 544.873 985.491 449.79 985.491 332.499C985.491 215.208 890.408 120.126 773.117 120.126C655.827 120.126 560.744 215.208 560.744 332.499C560.744 449.79 655.827 544.873 773.117 544.873Z" fill="#342C4C"/>
<path fill-rule="evenodd" clip-rule="evenodd" d="M592.5 771.001C734.925 771.001 850.382 655.543 850.382 513.118C850.382 370.694 734.925 255.236 592.5 255.236C450.076 255.236 334.618 370.694 334.618 513.118C334.618 655.543 450.076 771.001 592.5 771.001ZM592.5 725.492C709.791 725.492 804.874 630.41 804.874 513.118C804.874 395.827 709.791 300.745 592.5 300.745C475.21 300.745 380.127 395.827 380.127 513.118C380.127 630.41 475.21 725.492 592.5 725.492Z" fill="#393A3D"/>
<path fill-rule="evenodd" clip-rule="evenodd" d="M592.5 409.764C734.925 409.764 850.382 294.306 850.382 151.882C850.382 9.45786 734.925 -106 592.5 -106C450.076 -106 334.618 9.45786 334.618 151.882C334.618 294.306 450.076 409.764 592.5 409.764ZM592.5 364.256C709.791 364.256 804.874 269.173 804.874 151.882C804.874 34.591 709.791 -60.4914 592.5 -60.4914C475.21 -60.4914 380.127 34.591 380.127 151.882C380.127 269.173 475.21 364.256 592.5 364.256Z" fill="#393A3D"/>
</g>
<defs>
<clipPath id="clip0_1_6922">
<rect width="1184" height="666" fill="white"/>
</clipPath>
</defs>
</svg>
