<svg width="1184" height="666" viewBox="0 0 1184 666" fill="none" xmlns="http://www.w3.org/2000/svg">
<g clip-path="url(#clip0_1_6680)">
<rect width="1184" height="666" fill="#F4F4EF"/>
<rect width="731.768" height="666" fill="#BEE3E7"/>
<rect x="314" y="437" width="209" height="975" transform="rotate(-90 314 437)" fill="#7264A2"/>
<path fill-rule="evenodd" clip-rule="evenodd" d="M185 666C368.911 666 518 516.911 518 333C518 149.089 368.911 0 185 0C1.0893 0 -148 149.089 -148 333C-148 516.911 1.0893 666 185 666ZM185 607.235C336.456 607.235 459.235 484.457 459.235 333C459.235 181.543 336.456 58.7647 185 58.7647C33.5439 58.7647 -89.2353 181.543 -89.2353 333C-89.2353 484.457 33.5439 607.235 185 607.235Z" fill="#342C4C"/>
<path fill-rule="evenodd" clip-rule="evenodd" d="M185 1019C563.867 1019 871 711.867 871 333C871 -45.8671 563.867 -353 185 -353C-193.867 -353 -501 -45.8671 -501 333C-501 711.867 -193.867 1019 185 1019ZM185 897.941C497.009 897.941 749.941 645.01 749.941 333C749.941 20.9904 497.009 -231.941 185 -231.941C-127.009 -231.941 -379.941 20.9904 -379.941 333C-379.941 645.01 -127.009 897.941 185 897.941Z" fill="#342C4C"/>
<circle cx="184.5" cy="333.5" r="185.5" fill="#BEE3E7"/>
</g>
<defs>
<clipPath id="clip0_1_6680">
<rect width="1184" height="666" fill="white"/>
</clipPath>
</defs>
</svg>
