<svg width="1200" height="675" viewBox="0 0 1200 675" fill="none" xmlns="http://www.w3.org/2000/svg">
<g clip-path="url(#clip0_6_3575)">
<rect width="1200" height="675" fill="#F4F4EF"/>
<rect x="510" width="338" height="666" fill="#BEE3E7"/>
<path d="M170.039 672C263.616 672 339.475 596.141 339.475 502.564C339.475 408.987 263.616 333.128 170.039 333.128L170.039 399.574C226.919 399.574 273.029 445.684 273.029 502.564C273.029 559.444 226.919 605.555 170.039 605.555L170.039 672Z" fill="#7264A2"/>
<path d="M848.25 672C941.827 672 1017.69 596.141 1017.69 502.564C1017.69 408.987 941.827 333.128 848.25 333.128L848.25 399.574C905.13 399.574 951.24 445.684 951.24 502.564C951.24 559.444 905.13 605.555 848.25 605.555L848.25 672Z" fill="#342C4C"/>
<path d="M509.52 -5C415.943 -5 340.084 70.8591 340.084 164.436C340.084 258.013 415.943 333.872 509.52 333.872L509.52 267.426C452.639 267.426 406.529 221.316 406.529 164.436C406.529 107.556 452.639 61.4454 509.52 61.4454L509.52 -5Z" fill="#342C4C"/>
<path d="M1187.73 -5C1094.15 -5 1018.29 70.8591 1018.29 164.436C1018.29 258.013 1094.15 333.872 1187.73 333.872L1187.73 267.426C1130.85 267.426 1084.74 221.316 1084.74 164.436C1084.74 107.556 1130.85 61.4454 1187.73 61.4454L1187.73 -5Z" fill="#7264A2"/>
<path d="M169.438 164.064C75.8607 164.064 0.00161357 239.924 0.00161468 333.5C0.0016158 427.077 75.8607 502.936 169.438 502.936L169.438 436.491C112.557 436.491 66.4471 390.38 66.4471 333.5C66.4471 276.62 112.557 230.51 169.438 230.51L169.438 164.064Z" fill="#7264A2"/>
<path d="M847.648 164.064C754.072 164.064 678.213 239.924 678.213 333.5C678.213 427.077 754.072 502.936 847.648 502.936L847.648 436.491C790.768 436.491 744.658 390.38 744.658 333.5C744.658 276.62 790.768 230.51 847.648 230.51L847.648 164.064Z" fill="#393A3D"/>
<path d="M510.121 502.936C603.698 502.936 679.557 427.076 679.557 333.5C679.557 239.923 603.698 164.064 510.121 164.064L510.121 230.509C567.001 230.509 613.112 276.62 613.112 333.5C613.112 390.38 567.001 436.49 510.121 436.49L510.121 502.936Z" fill="#393A3D"/>
<path d="M1188.33 502.936C1281.91 502.936 1357.77 427.076 1357.77 333.5C1357.77 239.923 1281.91 164.064 1188.33 164.064L1188.33 230.509C1245.21 230.509 1291.32 276.62 1291.32 333.5C1291.32 390.38 1245.21 436.49 1188.33 436.49L1188.33 502.936Z" fill="#BABEC5"/>
<path d="M338.867 164.436C338.867 70.8588 263.008 -5.00033 169.431 -5.00033C75.8545 -5.00032 -0.00459535 70.8588 -0.00458717 164.436L66.4409 164.436C66.4409 107.555 112.551 61.4451 169.431 61.4451C226.311 61.4451 272.422 107.555 272.422 164.436L338.867 164.436Z" fill="#7264A2"/>
<path d="M1017.08 164.436C1017.08 70.8588 941.219 -5.00033 847.642 -5.00033C754.065 -5.00032 678.206 70.8588 678.206 164.436L744.652 164.436C744.652 107.555 790.762 61.4451 847.642 61.4451C904.522 61.4451 950.633 107.555 950.633 164.436L1017.08 164.436Z" fill="#342C4C"/>
<path d="M340.691 502.564C340.691 596.141 416.55 672 510.127 672C603.704 672 679.563 596.141 679.563 502.564L613.118 502.564C613.118 559.445 567.007 605.555 510.127 605.555C453.247 605.555 407.137 559.445 407.137 502.564L340.691 502.564Z" fill="#342C4C"/>
<path d="M1018.9 502.564C1018.9 596.141 1094.76 672 1188.34 672C1281.92 672 1357.77 596.141 1357.77 502.564L1291.33 502.564C1291.33 559.445 1245.22 605.555 1188.34 605.555C1131.46 605.555 1085.35 559.445 1085.35 502.564L1018.9 502.564Z" fill="#7264A2"/>
</g>
<defs>
<clipPath id="clip0_6_3575">
<rect width="1200" height="675" fill="white"/>
</clipPath>
</defs>
</svg>
