<svg width="1200" height="675" viewBox="0 0 1200 675" fill="none" xmlns="http://www.w3.org/2000/svg">
<g clip-path="url(#clip0_6_3555)">
<rect width="1200" height="675" fill="#F4F4EF"/>
<rect x="559" width="625" height="666" fill="#BEE3E7"/>
<path fill-rule="evenodd" clip-rule="evenodd" d="M371.464 98.3177C430.192 98.3177 477.8 50.7096 477.8 -8.01793C477.8 -66.7454 430.192 -114.354 371.464 -114.354C312.737 -114.354 265.129 -66.7454 265.129 -8.01793C265.129 50.7096 312.737 98.3177 371.464 98.3177ZM371.464 56.6174C407.162 56.6174 436.1 27.6792 436.1 -8.01793C436.1 -43.7151 407.162 -72.6533 371.464 -72.6533C335.767 -72.6533 306.829 -43.7151 306.829 -8.01793C306.829 27.6792 335.767 56.6174 371.464 56.6174Z" fill="#7264A2"/>
<path fill-rule="evenodd" clip-rule="evenodd" d="M221.277 363.287C236.477 420.013 294.784 453.677 351.511 438.478C408.237 423.278 441.901 364.97 426.701 308.244C411.502 251.517 353.194 217.853 296.467 233.053C239.741 248.253 206.077 306.56 221.277 363.287ZM261.556 352.494C270.795 386.975 306.237 407.437 340.718 398.198C375.199 388.959 395.661 353.517 386.422 319.036C377.183 284.556 341.741 264.093 307.26 273.332C272.779 282.571 252.317 318.013 261.556 352.494Z" fill="#7264A2"/>
<path fill-rule="evenodd" clip-rule="evenodd" d="M26.524 -97.2869C11.3242 -154.013 -46.9836 -187.677 -103.71 -172.477C-160.436 -157.278 -194.1 -98.97 -178.901 -42.2435C-163.701 14.4829 -105.393 48.1469 -48.6666 32.9471C8.05977 17.7473 41.7238 -40.5604 26.524 -97.2869ZM-13.7553 -86.4941C-22.9944 -120.975 -58.4363 -141.437 -92.9171 -132.198C-127.398 -122.959 -147.86 -87.5171 -138.621 -53.0363C-129.382 -18.5556 -93.9402 1.90686 -59.4594 -7.33225C-24.9786 -16.5714 -4.51624 -52.0133 -13.7553 -86.4941Z" fill="#393A3D"/>
<path d="M227.555 -45.75L331.55 133.01H123.561L227.555 -45.75Z" fill="#393A3D"/>
<path d="M20.2414 311.75L-83.7533 132.99L124.236 132.99L20.2414 311.75Z" fill="#393A3D"/>
<path d="M323.181 186.993L177.429 333.711L123.597 132.808L323.181 186.993Z" fill="#393A3D"/>
<path d="M-75.3844 79.007L70.3683 -67.7106L124.2 133.192L-75.3844 79.007Z" fill="#393A3D"/>
<path fill-rule="evenodd" clip-rule="evenodd" d="M1256.73 629.006C1306.05 660.882 1371.88 646.736 1403.75 597.412C1435.63 548.088 1421.48 482.263 1372.16 450.387C1322.83 418.512 1257.01 432.657 1225.13 481.981C1193.26 531.306 1207.4 597.131 1256.73 629.006ZM1279.36 593.983C1309.34 613.358 1349.35 604.76 1368.73 574.779C1388.1 544.797 1379.51 504.786 1349.52 485.411C1319.54 466.035 1279.53 474.633 1260.16 504.615C1240.78 534.596 1249.38 574.608 1279.36 593.983Z" fill="#7264A2"/>
<path fill-rule="evenodd" clip-rule="evenodd" d="M803.227 418.525C753.903 386.65 688.077 400.795 656.202 450.119C624.327 499.443 638.472 565.269 687.796 597.144C737.12 629.019 802.946 614.874 834.821 565.55C866.696 516.226 852.551 450.4 803.227 418.525ZM780.593 453.548C750.612 434.173 710.6 442.771 691.225 472.753C671.85 502.734 680.448 542.745 710.429 562.121C740.411 581.496 780.422 572.898 799.798 542.916C819.173 512.935 810.575 472.923 780.593 453.548Z" fill="#393A3D"/>
<path fill-rule="evenodd" clip-rule="evenodd" d="M986.77 770.032C968.747 825.926 999.447 885.847 1055.34 903.87C1111.23 921.893 1171.16 891.193 1189.18 835.3C1207.2 779.406 1176.5 719.485 1120.61 701.462C1064.71 683.439 1004.79 714.139 986.77 770.032ZM1026.46 782.83C1015.5 816.804 1034.16 853.227 1068.14 864.182C1102.11 875.138 1138.54 856.477 1149.49 822.502C1160.45 788.528 1141.79 752.105 1107.81 741.15C1073.84 730.195 1037.41 748.855 1026.46 782.83Z" fill="#7264A2"/>
<path fill-rule="evenodd" clip-rule="evenodd" d="M1073.19 277.499C1091.21 221.605 1060.51 161.684 1004.62 143.661C948.723 125.638 888.802 156.338 870.778 212.231C852.755 268.125 883.455 328.046 939.349 346.069C995.242 364.093 1055.16 333.393 1073.19 277.499ZM1033.5 264.701C1044.45 230.727 1025.79 194.304 991.819 183.349C957.844 172.394 921.422 191.054 910.466 225.029C899.511 259.003 918.172 295.426 952.146 306.381C986.121 317.337 1022.54 298.676 1033.5 264.701Z" fill="#393A3D"/>
<path d="M1214.05 429.898L1204.37 636.48L1029.69 523.59L1214.05 429.898Z" fill="#7264A2"/>
<path d="M845.898 617.634L855.58 411.051L1030.27 523.941L845.898 617.634Z" fill="#7264A2"/>
<path d="M1168.05 677.278L965.997 721.394L1029.83 523.442L1168.05 677.278Z" fill="#7264A2"/>
<path d="M891.907 370.253L1093.96 326.137L1030.13 524.09L891.907 370.253Z" fill="#7264A2"/>
</g>
<defs>
<clipPath id="clip0_6_3555">
<rect width="1200" height="675" fill="white"/>
</clipPath>
</defs>
</svg>
