<svg width="1200" height="675" viewBox="0 0 1200 675" fill="none" xmlns="http://www.w3.org/2000/svg">
<g clip-path="url(#clip0_6_3544)">
<rect width="1200" height="675" fill="#F4F4EF"/>
<rect x="503" width="681" height="666" fill="#BEE3E7"/>
<path d="M335.223 166.648C335.223 258.889 409.998 333.664 502.238 333.664C594.479 333.664 669.254 258.889 669.254 166.648H335.223Z" fill="#7264A2"/>
<path d="M0 166.648C0 258.889 74.7755 333.664 167.016 333.664C259.256 333.664 334.032 258.889 334.032 166.648H0Z" fill="#393A3D"/>
<path d="M334.027 499.352C334.027 407.111 259.252 332.336 167.012 332.336C74.7713 332.336 -0.00421615 407.111 -0.00420809 499.352L334.027 499.352Z" fill="#7264A2"/>
<path d="M668.289 499.352C668.289 407.111 593.514 332.336 501.273 332.336C409.033 332.336 334.258 407.111 334.258 499.352L668.289 499.352Z" fill="#393A3D"/>
<path d="M669.254 167.016C669.254 74.7754 594.478 -0.000157456 502.238 -0.00016552C409.998 -0.000173584 335.222 74.7754 335.222 167.016L400.719 167.016C400.719 110.948 446.17 65.4962 502.238 65.4962C558.306 65.4962 603.758 110.948 603.758 167.016L669.254 167.016Z" fill="#7264A2"/>
<path d="M669.254 666C669.254 573.76 594.478 498.984 502.238 498.984C409.998 498.984 335.222 573.76 335.222 666L400.719 666C400.719 609.932 446.17 564.481 502.238 564.481C558.306 564.481 603.758 609.932 603.758 666L669.254 666Z" fill="#7264A2"/>
<path d="M0 0C0 92.2402 74.7756 167.016 167.016 167.016C259.256 167.016 334.032 92.2402 334.032 0L268.535 0C268.535 56.0677 223.083 101.519 167.016 101.519C110.948 101.519 65.4964 56.0677 65.4964 0L0 0Z" fill="#7264A2"/>
<path d="M0 498.984C0 591.225 74.7756 666 167.016 666C259.256 666 334.032 591.225 334.032 498.984H268.535C268.535 555.052 223.083 600.504 167.016 600.504C110.948 600.504 65.4964 555.052 65.4964 498.984H0Z" fill="#7264A2"/>
</g>
<defs>
<clipPath id="clip0_6_3544">
<rect width="1200" height="675" fill="white"/>
</clipPath>
</defs>
</svg>
