<svg width="1184" height="666" viewBox="0 0 1184 666" fill="none" xmlns="http://www.w3.org/2000/svg">
<g clip-path="url(#clip0_1_6650)">
<rect width="1184" height="666" fill="#F4F4EF"/>
<rect y="333" width="655" height="333" fill="#BEE3E7"/>
<path d="M655 -196V333H1184L655 -196Z" fill="#7264A2"/>
<path fill-rule="evenodd" clip-rule="evenodd" d="M172.882 410.783C161.096 430.325 161.095 451.252 172.883 470.81L140.369 476C126.544 453.063 126.543 428.517 140.368 405.592C140.369 405.591 140.368 405.592 140.368 405.592C140.369 405.591 140.37 405.59 140.37 405.589L155.66 380.212C167.448 360.654 167.447 339.726 155.661 320.185L155.66 320.182L140.369 294.804C140.369 294.804 140.369 294.804 140.369 294.804C126.545 271.867 126.543 247.32 140.368 224.395C140.369 224.395 140.369 224.394 140.37 224.393L155.66 199.016C167.448 179.458 167.447 158.53 155.661 138.989L155.66 138.986L140.369 113.608C140.369 113.607 140.369 113.608 140.369 113.608C126.545 90.6711 126.543 66.124 140.368 43.1994C140.369 43.1986 140.369 43.1978 140.37 43.197L155.66 17.8201C167.448 -1.73779 167.447 -22.6659 155.661 -42.2076L155.66 -42.21L140.369 -67.5885C140.369 -67.5887 140.369 -67.5882 140.369 -67.5885C126.545 -90.5259 126.543 -115.074 140.37 -137.999L172.882 -132.806C161.096 -113.264 161.095 -92.3367 172.883 -72.7788L188.173 -47.4011C188.174 -47.4003 188.174 -47.3996 188.175 -47.3987C202 -24.4738 201.999 0.0728567 188.174 23.0097L172.884 48.3881L172.882 48.3905C161.096 67.9323 161.095 88.8594 172.883 108.417L188.173 133.795C188.174 133.796 188.174 133.797 188.175 133.797C202 156.722 201.999 181.268 188.175 204.205C188.175 204.205 188.175 204.205 188.175 204.205L172.882 229.587C161.096 249.128 161.095 270.056 172.883 289.613L188.173 314.991C188.174 314.992 188.174 314.993 188.175 314.994C202 337.918 201.999 362.465 188.175 385.401C188.175 385.401 188.175 385.401 188.175 385.401L172.882 410.783Z" fill="#393A3D"/>
<path fill-rule="evenodd" clip-rule="evenodd" d="M235.683 410.783C223.897 430.325 223.896 451.252 235.684 470.81L203.17 476C189.345 453.063 189.344 428.517 203.169 405.592C203.169 405.591 203.169 405.592 203.169 405.592C203.17 405.591 203.17 405.59 203.171 405.589L218.461 380.212C230.249 360.654 230.248 339.726 218.462 320.185L218.461 320.182L203.17 294.804C203.17 294.804 203.17 294.804 203.17 294.804C189.346 271.867 189.344 247.32 203.169 224.395C203.17 224.395 203.17 224.394 203.171 224.393L218.461 199.016C230.249 179.458 230.248 158.53 218.462 138.989L218.461 138.986L203.17 113.608C203.17 113.607 203.17 113.608 203.17 113.608C189.346 90.6711 189.344 66.124 203.169 43.1994C203.17 43.1986 203.17 43.1978 203.171 43.197L218.461 17.8201C230.249 -1.73779 230.248 -22.6659 218.462 -42.2076L218.461 -42.21L203.17 -67.5885C203.17 -67.5887 203.17 -67.5882 203.17 -67.5885C189.345 -90.5259 189.344 -115.074 203.171 -137.999L235.683 -132.806C223.897 -113.264 223.896 -92.3367 235.684 -72.7788L250.974 -47.4011C250.975 -47.4003 250.975 -47.3996 250.976 -47.3987C264.801 -24.4738 264.8 0.0728567 250.975 23.0097L235.684 48.3881L235.683 48.3905C223.897 67.9323 223.896 88.8594 235.684 108.417L250.974 133.795C250.975 133.796 250.975 133.797 250.976 133.797C264.801 156.722 264.8 181.268 250.976 204.205C250.976 204.205 250.976 204.205 250.976 204.205L235.683 229.587C223.897 249.128 223.896 270.056 235.684 289.613L250.974 314.991C250.975 314.992 250.975 314.993 250.976 314.994C264.801 337.918 264.8 362.465 250.976 385.401C250.976 385.401 250.976 385.401 250.976 385.401L235.683 410.783Z" fill="#393A3D"/>
<path fill-rule="evenodd" clip-rule="evenodd" d="M298.485 410.783C286.699 430.325 286.698 451.252 298.486 470.81L265.972 476C252.147 453.063 252.146 428.517 265.971 405.592C265.971 405.591 265.971 405.592 265.971 405.592C265.971 405.591 265.972 405.59 265.972 405.589L281.262 380.212C293.05 360.654 293.05 339.726 281.264 320.185L281.262 320.182L265.972 294.804C265.971 294.804 265.972 294.804 265.972 294.804C252.148 271.867 252.146 247.32 265.971 224.395C265.972 224.395 265.972 224.394 265.972 224.393L281.262 199.016C293.05 179.458 293.05 158.53 281.264 138.989L281.262 138.986L265.972 113.608C265.971 113.607 265.972 113.608 265.972 113.608C252.148 90.6711 252.146 66.124 265.971 43.1994C265.971 43.1986 265.972 43.1978 265.972 43.197L281.262 17.8201C293.05 -1.73779 293.05 -22.6659 281.264 -42.2076L281.262 -42.21L265.972 -67.5885C265.971 -67.5887 265.972 -67.5882 265.972 -67.5885C252.147 -90.5259 252.146 -115.074 265.972 -137.999L298.485 -132.806C286.699 -113.264 286.698 -92.3367 298.486 -72.7788L313.776 -47.4011C313.776 -47.4003 313.777 -47.3996 313.777 -47.3987C327.603 -24.4738 327.601 0.0728567 313.777 23.0097L298.486 48.3881L298.485 48.3905C286.699 67.9323 286.698 88.8594 298.486 108.417L313.776 133.795C313.776 133.796 313.777 133.797 313.777 133.797C327.603 156.722 327.601 181.268 313.777 204.205C313.777 204.205 313.778 204.205 313.777 204.205L298.485 229.587C286.699 249.128 286.698 270.056 298.486 289.613L313.776 314.991C313.776 314.992 313.777 314.993 313.777 314.994C327.603 337.918 327.601 362.465 313.777 385.401C313.777 385.401 313.778 385.401 313.777 385.401L298.485 410.783Z" fill="#393A3D"/>
<path fill-rule="evenodd" clip-rule="evenodd" d="M361.295 410.783C349.509 430.325 349.508 451.252 361.296 470.81L328.782 476C314.958 453.063 314.956 428.517 328.782 405.592C328.782 405.591 328.781 405.592 328.782 405.592C328.782 405.591 328.783 405.59 328.783 405.589L344.073 380.212C355.861 360.654 355.86 339.726 344.074 320.185L344.073 320.182L328.782 294.804C328.782 294.804 328.782 294.804 328.782 294.804C314.958 271.867 314.956 247.32 328.782 224.395C328.782 224.395 328.783 224.394 328.783 224.393L344.073 199.016C355.861 179.458 355.86 158.53 344.074 138.989L344.073 138.986L328.782 113.608C328.782 113.607 328.782 113.608 328.782 113.608C314.958 90.6711 314.956 66.124 328.782 43.1994C328.782 43.1986 328.783 43.1978 328.783 43.197L344.073 17.8201C355.861 -1.73779 355.86 -22.6659 344.074 -42.2076L344.073 -42.21L328.782 -67.5885C328.782 -67.5887 328.782 -67.5882 328.782 -67.5885C314.958 -90.5259 314.956 -115.074 328.783 -137.999L361.295 -132.806C349.509 -113.264 349.508 -92.3367 361.296 -72.7788L376.587 -47.4011C376.587 -47.4003 376.588 -47.3996 376.588 -47.3987C390.413 -24.4738 390.412 0.0728567 376.587 23.0097L361.297 48.3881L361.295 48.3905C349.509 67.9323 349.508 88.8594 361.296 108.417L376.587 133.795C376.587 133.796 376.588 133.797 376.588 133.797C390.413 156.722 390.412 181.268 376.588 204.205C376.588 204.205 376.588 204.205 376.588 204.205L361.295 229.587C349.509 249.128 349.508 270.056 361.296 289.613L376.587 314.991C376.587 314.992 376.587 314.993 376.588 314.994C390.413 337.918 390.412 362.465 376.588 385.401C376.588 385.401 376.588 385.401 376.588 385.401L361.295 410.783Z" fill="#393A3D"/>
<path fill-rule="evenodd" clip-rule="evenodd" d="M424.096 410.783C412.31 430.325 412.309 451.252 424.097 470.81L391.583 476C377.758 453.063 377.757 428.517 391.582 405.592C391.582 405.591 391.582 405.592 391.582 405.592C391.583 405.591 391.583 405.59 391.584 405.589L406.874 380.212C418.662 360.654 418.661 339.726 406.875 320.185L406.874 320.182L391.583 294.804C391.583 294.804 391.583 294.804 391.583 294.804C377.759 271.867 377.757 247.32 391.582 224.395C391.583 224.395 391.583 224.394 391.584 224.393L406.874 199.016C418.662 179.458 418.661 158.53 406.875 138.989L406.874 138.986L391.583 113.608C391.583 113.607 391.583 113.608 391.583 113.608C377.759 90.6711 377.757 66.124 391.582 43.1994C391.583 43.1986 391.583 43.1978 391.584 43.197L406.874 17.8201C418.662 -1.73779 418.661 -22.6659 406.875 -42.2076L406.874 -42.21L391.583 -67.5885C391.583 -67.5887 391.583 -67.5882 391.583 -67.5885C377.758 -90.5259 377.757 -115.074 391.584 -137.999L424.096 -132.806C412.31 -113.264 412.309 -92.3367 424.097 -72.7788L439.387 -47.4011C439.388 -47.4003 439.388 -47.3996 439.389 -47.3987C453.214 -24.4738 453.213 0.0728567 439.388 23.0097L424.097 48.3881L424.096 48.3905C412.31 67.9323 412.309 88.8594 424.097 108.417L439.387 133.795C439.388 133.796 439.388 133.797 439.389 133.797C453.214 156.722 453.213 181.268 439.389 204.205C439.389 204.205 439.389 204.205 439.389 204.205L424.096 229.587C412.31 249.128 412.309 270.056 424.097 289.613L439.387 314.991C439.388 314.992 439.388 314.993 439.389 314.994C453.214 337.918 453.213 362.465 439.389 385.401C439.389 385.401 439.389 385.401 439.389 385.401L424.096 410.783Z" fill="#393A3D"/>
<path d="M1093.76 673.383C1093.76 577.627 1016.13 500.002 920.377 500.002C824.622 500.002 746.997 577.627 746.997 673.383L1093.76 673.383Z" fill="#342C4C"/>
</g>
<defs>
<clipPath id="clip0_1_6650">
<rect width="1184" height="666" fill="white"/>
</clipPath>
</defs>
</svg>
