<svg width="1200" height="675" viewBox="0 0 1200 675" fill="none" xmlns="http://www.w3.org/2000/svg">
<g clip-path="url(#clip0_6_3528)">
<rect width="1200" height="675" fill="#F4F4EF"/>
<rect width="419" height="666" fill="#BEE3E7"/>
<path d="M593.004 174C593.004 269.755 670.629 347.381 766.385 347.381C862.14 347.381 939.765 269.755 939.765 174H593.004Z" fill="#7264A2"/>
<path d="M591.762 519.381C591.762 423.625 514.137 346 418.381 346C322.626 346 245 423.625 245 519.381L591.762 519.381Z" fill="#393A3D"/>
<path d="M419.105 346.762C514.861 346.762 592.486 269.137 592.486 173.381C592.486 77.6256 514.861 0.000420199 419.105 0.000424385L419.105 346.762Z" fill="#393A3D"/>
<path d="M766.387 347C670.631 347 593.006 424.625 593.006 520.381C593.006 616.136 670.631 693.761 766.387 693.761L766.387 347Z" fill="#342C4C"/>
<path d="M940.004 521C940.004 616.755 1017.63 694.381 1113.38 694.381C1209.14 694.381 1286.77 616.755 1286.77 521H940.004Z" fill="#342C4C"/>
<path d="M766.105 693.762C861.861 693.762 939.486 616.137 939.486 520.381C939.486 424.626 861.861 347 766.105 347L766.105 693.762Z" fill="#7264A2"/>
<line x1="-153" y1="8.70665" x2="419" y2="8.70665" stroke="#7264A2" stroke-width="18.5867"/>
<line x1="-153" y1="56.7067" x2="419" y2="56.7067" stroke="#342C4C" stroke-width="18.5867"/>
<line x1="-153" y1="104.707" x2="419" y2="104.707" stroke="#7264A2" stroke-width="18.5867"/>
<line x1="-153" y1="152.707" x2="419" y2="152.707" stroke="#342C4C" stroke-width="18.5867"/>
</g>
<defs>
<clipPath id="clip0_6_3528">
<rect width="1200" height="675" fill="white"/>
</clipPath>
</defs>
</svg>
