<svg width="1184" height="666" viewBox="0 0 1184 666" fill="none" xmlns="http://www.w3.org/2000/svg">
<g clip-path="url(#clip0_1_6627)">
<rect width="1184" height="666" fill="#F4F4EF"/>
<rect width="1184" height="666" fill="#BEE3E7"/>
<circle cx="592" cy="333" r="60" fill="#F4F4EF"/>
<path fill-rule="evenodd" clip-rule="evenodd" d="M592 438.283C650.146 438.283 697.283 391.146 697.283 333C697.283 274.854 650.146 227.717 592 227.717C533.854 227.717 486.717 274.854 486.717 333C486.717 391.146 533.854 438.283 592 438.283ZM592 419.703C639.885 419.703 678.703 380.885 678.703 333C678.703 285.114 639.885 246.296 592 246.296C544.115 246.296 505.296 285.114 505.296 333C505.296 380.885 544.115 419.703 592 419.703Z" fill="#342C4C"/>
<path fill-rule="evenodd" clip-rule="evenodd" d="M592 493.149C680.448 493.149 752.149 421.448 752.149 333C752.149 244.553 680.448 172.852 592 172.852C503.553 172.852 431.852 244.553 431.852 333C431.852 421.448 503.553 493.149 592 493.149ZM592 464.887C664.839 464.887 723.887 405.84 723.887 333C723.887 260.161 664.839 201.113 592 201.113C519.161 201.113 460.113 260.161 460.113 333C460.113 405.84 519.161 464.887 592 464.887Z" fill="#7264A2"/>
<path fill-rule="evenodd" clip-rule="evenodd" d="M592 576.188C726.309 576.188 835.189 467.308 835.189 332.999C835.189 198.69 726.309 89.8105 592 89.8105C457.691 89.8105 348.812 198.69 348.812 332.999C348.812 467.308 457.691 576.188 592 576.188ZM592 533.272C702.608 533.272 792.273 443.607 792.273 332.999C792.273 222.391 702.608 132.726 592 132.726C481.392 132.726 391.727 222.391 391.727 332.999C391.727 443.607 481.392 533.272 592 533.272Z" fill="#342C4C"/>
<path fill-rule="evenodd" clip-rule="evenodd" d="M592 687.403C787.731 687.403 946.402 528.732 946.402 333.001C946.402 137.269 787.731 -21.4023 592 -21.4023C396.268 -21.4023 237.597 137.269 237.597 333.001C237.597 528.732 396.268 687.403 592 687.403ZM592 624.862C753.19 624.862 883.861 494.192 883.861 333.001C883.861 171.809 753.19 41.1393 592 41.1393C430.809 41.1393 300.138 171.809 300.138 333.001C300.138 494.192 430.809 624.862 592 624.862Z" fill="#7264A2"/>
<path fill-rule="evenodd" clip-rule="evenodd" d="M592 852C878.636 852 1111 619.636 1111 333C1111 46.3644 878.636 -186 592 -186C305.364 -186 73 46.3644 73 333C73 619.636 305.364 852 592 852ZM592 760.412C828.053 760.412 1019.41 569.054 1019.41 333C1019.41 96.9461 828.053 -94.4118 592 -94.4118C355.947 -94.4118 164.588 96.9461 164.588 333C164.588 569.054 355.947 760.412 592 760.412Z" fill="#342C4C"/>
</g>
<defs>
<clipPath id="clip0_1_6627">
<rect width="1184" height="666" fill="white"/>
</clipPath>
</defs>
</svg>
