<svg width="1184" height="666" viewBox="0 0 1184 666" fill="none" xmlns="http://www.w3.org/2000/svg">
<g clip-path="url(#clip0_1_6612)">
<rect width="1184" height="666" fill="#F4F4EF"/>
<rect x="510" width="338" height="666" fill="#BEE3E7"/>
<path d="M170.042 672C263.619 672 339.478 596.141 339.478 502.564C339.478 408.987 263.619 333.128 170.042 333.128L170.042 399.574C226.922 399.574 273.032 445.684 273.032 502.564C273.032 559.444 226.922 605.555 170.042 605.555L170.042 672Z" fill="#7264A2"/>
<path d="M848.252 672C941.829 672 1017.69 596.141 1017.69 502.564C1017.69 408.987 941.829 333.128 848.252 333.128L848.252 399.574C905.132 399.574 951.242 445.684 951.242 502.564C951.242 559.444 905.132 605.555 848.252 605.555L848.252 672Z" fill="#342C4C"/>
<path d="M509.521 -5C415.944 -5 340.085 70.8591 340.085 164.436C340.085 258.013 415.944 333.872 509.52 333.872L509.52 267.426C452.64 267.426 406.53 221.316 406.53 164.436C406.53 107.556 452.64 61.4454 509.521 61.4454L509.521 -5Z" fill="#342C4C"/>
<path d="M1187.73 -5C1094.15 -5 1018.29 70.8591 1018.29 164.436C1018.29 258.013 1094.15 333.872 1187.73 333.872L1187.73 267.426C1130.85 267.426 1084.74 221.316 1084.74 164.436C1084.74 107.556 1130.85 61.4454 1187.73 61.4454L1187.73 -5Z" fill="#7264A2"/>
<path d="M169.438 164.064C75.8617 164.064 0.00259013 239.924 0.00259125 333.5C0.00259236 427.077 75.8617 502.936 169.438 502.936L169.438 436.491C112.558 436.491 66.448 390.38 66.448 333.5C66.448 276.62 112.558 230.51 169.438 230.51L169.438 164.064Z" fill="#7264A2"/>
<path d="M847.648 164.064C754.072 164.064 678.213 239.924 678.213 333.5C678.213 427.077 754.072 502.936 847.648 502.936L847.648 436.491C790.768 436.491 744.658 390.38 744.658 333.5C744.658 276.62 790.768 230.51 847.648 230.51L847.648 164.064Z" fill="#393A3D"/>
<path d="M510.124 502.936C603.701 502.936 679.56 427.076 679.56 333.5C679.56 239.923 603.701 164.064 510.124 164.064L510.124 230.509C567.004 230.509 613.114 276.62 613.114 333.5C613.114 390.38 567.004 436.49 510.124 436.49L510.124 502.936Z" fill="#393A3D"/>
<path d="M338.869 164.436C338.869 70.8588 263.01 -5.00033 169.433 -5.00033C75.8564 -5.00032 -0.00264223 70.8588 -0.00263405 164.436L66.4428 164.436C66.4428 107.555 112.553 61.4451 169.433 61.4451C226.313 61.4451 272.424 107.555 272.424 164.436L338.869 164.436Z" fill="#7264A2"/>
<path d="M1017.08 164.436C1017.08 70.8588 941.22 -5.00033 847.643 -5.00033C754.066 -5.00032 678.207 70.8588 678.207 164.436L744.653 164.436C744.653 107.555 790.763 61.4451 847.643 61.4451C904.523 61.4451 950.634 107.555 950.634 164.436L1017.08 164.436Z" fill="#342C4C"/>
<path d="M340.693 502.564C340.693 596.141 416.552 672 510.129 672C603.706 672 679.565 596.141 679.565 502.564L613.12 502.564C613.12 559.445 567.009 605.555 510.129 605.555C453.249 605.555 407.139 559.445 407.139 502.564L340.693 502.564Z" fill="#342C4C"/>
<path d="M1018.9 502.564C1018.9 596.141 1094.76 672 1188.34 672C1281.92 672 1357.78 596.141 1357.78 502.564L1291.33 502.564C1291.33 559.445 1245.22 605.555 1188.34 605.555C1131.46 605.555 1085.35 559.445 1085.35 502.564L1018.9 502.564Z" fill="#7264A2"/>
</g>
<defs>
<clipPath id="clip0_1_6612">
<rect width="1184" height="666" fill="white"/>
</clipPath>
</defs>
</svg>
