<svg width="1200" height="675" viewBox="0 0 1200 675" fill="none" xmlns="http://www.w3.org/2000/svg">
<g clip-path="url(#clip0_6_3500)">
<rect width="1200" height="675" fill="#F4F4EF"/>
<rect width="592" height="666" fill="#BEE3E7"/>
<path d="M592.031 333.031C592.031 453.421 689.626 551.016 810.016 551.016C930.406 551.016 1028 453.421 1028 333.031H592.031Z" fill="#342C4C"/>
<path d="M591.727 332.252C591.727 211.862 494.131 114.267 373.742 114.267C253.352 114.267 155.757 211.862 155.757 332.252L591.727 332.252Z" fill="#393A3D"/>
<path d="M592.16 332.732C712.55 332.732 810.145 235.137 810.145 114.748C810.145 -5.64215 712.55 -103.237 592.16 -103.237L592.16 332.732Z" fill="#7264A2"/>
<path d="M595.027 333.031C474.638 333.031 377.042 430.626 377.042 551.016C377.042 671.406 474.638 769.001 595.027 769.001L595.027 333.031Z" fill="#342C4C"/>
</g>
<defs>
<clipPath id="clip0_6_3500">
<rect width="1200" height="675" fill="white"/>
</clipPath>
</defs>
</svg>
