<svg width="1200" height="675" viewBox="0 0 1200 675" fill="none" xmlns="http://www.w3.org/2000/svg">
<g clip-path="url(#clip0_6_3490)">
<rect width="1200" height="675" fill="#F4F4EF"/>
<rect y="333" width="655" height="333" fill="#BEE3E7"/>
<path d="M655 -196V333H1184L655 -196Z" fill="#7264A2"/>
<path fill-rule="evenodd" clip-rule="evenodd" d="M175.219 416.333C163.274 436.139 163.273 457.349 175.22 477.171L142.267 482.432C128.256 459.185 128.254 434.307 142.266 411.072C142.267 411.072 142.266 411.072 142.266 411.072C142.267 411.071 142.267 411.07 142.268 411.069L157.764 385.35C169.712 365.527 169.711 344.317 157.766 324.511L157.764 324.508L142.267 298.787C142.267 298.787 142.267 298.787 142.267 298.787C128.256 275.54 128.254 250.662 142.266 227.427C142.267 227.426 142.267 227.425 142.268 227.425L157.764 201.705C169.712 181.883 169.711 160.672 157.766 140.866L157.764 140.864L142.267 115.142C142.267 115.142 142.267 115.142 142.267 115.142C128.256 91.8956 128.254 67.0168 142.266 43.7824C142.267 43.7815 142.267 43.7808 142.268 43.78L157.764 18.0601C169.712 -1.76206 169.711 -22.9729 157.766 -42.7788L157.764 -42.7812L142.267 -68.5026C142.267 -68.5029 142.267 -68.5023 142.267 -68.5026C128.256 -91.75 128.254 -116.63 142.268 -139.865L175.219 -134.601C163.274 -114.795 163.273 -93.5853 175.22 -73.7631L190.717 -48.0425C190.718 -48.0416 190.718 -48.0409 190.719 -48.0401C204.731 -24.8053 204.73 0.0730557 190.718 23.3198L175.221 49.0412L175.219 49.0436C163.274 68.8495 163.273 90.0594 175.22 109.882L190.717 135.602C190.718 135.603 190.718 135.604 190.719 135.605C204.731 158.839 204.73 183.717 190.719 206.964C190.719 206.964 190.719 206.963 190.719 206.964L175.219 232.688C163.274 252.494 163.273 273.704 175.22 293.526L190.717 319.247C190.718 319.248 190.718 319.249 190.719 319.249C204.731 342.484 204.73 367.362 190.719 390.608C190.719 390.609 190.719 390.608 190.719 390.608L175.219 416.333Z" fill="#393A3D"/>
<path fill-rule="evenodd" clip-rule="evenodd" d="M238.868 416.333C226.923 436.139 226.922 457.349 238.869 477.171L205.915 482.432C191.904 459.185 191.903 434.307 205.915 411.072C205.915 411.072 205.915 411.072 205.915 411.072C205.915 411.071 205.916 411.07 205.916 411.069L221.413 385.35C233.36 365.527 233.36 344.317 221.414 324.511L221.413 324.508L205.915 298.787C205.915 298.787 205.916 298.787 205.915 298.787C191.905 275.54 191.903 250.662 205.915 227.427C205.915 227.426 205.916 227.425 205.916 227.425L221.413 201.705C233.36 181.883 233.36 160.672 221.414 140.866L221.413 140.864L205.915 115.142C205.915 115.142 205.916 115.142 205.915 115.142C191.905 91.8956 191.903 67.0168 205.915 43.7824C205.915 43.7815 205.916 43.7808 205.916 43.78L221.413 18.0601C233.36 -1.76206 233.36 -22.9729 221.414 -42.7788L221.413 -42.7812L205.915 -68.5026C205.915 -68.5029 205.916 -68.5023 205.915 -68.5026C191.904 -91.75 191.903 -116.63 205.916 -139.865L238.868 -134.601C226.923 -114.795 226.922 -93.5853 238.869 -73.7631L254.366 -48.0425C254.366 -48.0416 254.367 -48.0409 254.367 -48.0401C268.38 -24.8053 268.378 0.0730557 254.367 23.3198L238.869 49.0412L238.868 49.0436C226.923 68.8495 226.922 90.0594 238.869 109.882L254.366 135.602C254.366 135.603 254.367 135.604 254.367 135.605C268.379 158.839 268.378 183.717 254.367 206.964C254.367 206.964 254.367 206.963 254.367 206.964L238.868 232.688C226.923 252.494 226.922 273.704 238.869 293.526L254.366 319.247C254.366 319.248 254.367 319.249 254.367 319.249C268.379 342.484 268.378 367.362 254.367 390.608C254.367 390.609 254.367 390.608 254.367 390.608L238.868 416.333Z" fill="#393A3D"/>
<path fill-rule="evenodd" clip-rule="evenodd" d="M302.52 416.333C290.575 436.139 290.574 457.349 302.521 477.171L269.568 482.432C255.556 459.185 255.555 434.307 269.567 411.072C269.567 411.072 269.567 411.072 269.567 411.072C269.568 411.071 269.568 411.07 269.569 411.069L285.065 385.35C297.012 365.527 297.012 344.317 285.067 324.511L285.065 324.508L269.568 298.787C269.568 298.787 269.568 298.787 269.568 298.787C255.557 275.54 255.555 250.662 269.567 227.427C269.568 227.426 269.568 227.425 269.569 227.425L285.065 201.705C297.012 181.883 297.012 160.672 285.067 140.866L285.065 140.864L269.568 115.142C269.568 115.142 269.568 115.142 269.568 115.142C255.557 91.8956 255.555 67.0168 269.567 43.7824C269.568 43.7815 269.568 43.7808 269.569 43.78L285.065 18.0601C297.012 -1.76206 297.012 -22.9729 285.067 -42.7788L285.065 -42.7812L269.568 -68.5026C269.568 -68.5029 269.568 -68.5023 269.568 -68.5026C255.556 -91.75 255.555 -116.63 269.569 -139.865L302.52 -134.601C290.575 -114.795 290.574 -93.5853 302.521 -73.7631L318.018 -48.0425C318.019 -48.0416 318.019 -48.0409 318.02 -48.0401C332.032 -24.8053 332.03 0.0730557 318.019 23.3198L302.522 49.0412L302.52 49.0436C290.575 68.8495 290.574 90.0594 302.521 109.882L318.018 135.602C318.019 135.603 318.019 135.604 318.02 135.605C332.032 158.839 332.03 183.717 318.02 206.964C318.019 206.964 318.02 206.963 318.02 206.964L302.52 232.688C290.575 252.494 290.574 273.704 302.521 293.526L318.018 319.247C318.019 319.248 318.019 319.249 318.02 319.249C332.032 342.484 332.03 367.362 318.02 390.608C318.019 390.609 318.02 390.608 318.02 390.608L302.52 416.333Z" fill="#393A3D"/>
<path fill-rule="evenodd" clip-rule="evenodd" d="M366.176 416.333C354.231 436.139 354.23 457.349 366.177 477.171L333.224 482.432C319.213 459.185 319.211 434.307 333.223 411.072C333.224 411.072 333.223 411.072 333.223 411.072C333.224 411.071 333.225 411.07 333.225 411.069L348.721 385.35C360.669 365.527 360.668 344.317 348.723 324.511L348.721 324.508L333.224 298.787C333.224 298.787 333.224 298.787 333.224 298.787C319.213 275.54 319.211 250.662 333.223 227.427C333.224 227.426 333.224 227.425 333.225 227.425L348.721 201.705C360.669 181.883 360.668 160.672 348.723 140.866L348.721 140.864L333.224 115.142C333.224 115.142 333.224 115.142 333.224 115.142C319.213 91.8956 319.211 67.0168 333.223 43.7824C333.224 43.7815 333.224 43.7808 333.225 43.78L348.721 18.0601C360.669 -1.76206 360.668 -22.9729 348.723 -42.7788L348.721 -42.7812L333.224 -68.5026C333.224 -68.5029 333.224 -68.5023 333.224 -68.5026C319.213 -91.75 319.211 -116.63 333.225 -139.865L366.176 -134.601C354.231 -114.795 354.23 -93.5853 366.177 -73.7631L381.674 -48.0425C381.675 -48.0416 381.675 -48.0409 381.676 -48.0401C395.688 -24.8053 395.687 0.0730557 381.675 23.3198L366.178 49.0412L366.176 49.0436C354.231 68.8495 354.23 90.0594 366.177 109.882L381.674 135.602C381.675 135.603 381.675 135.604 381.676 135.605C395.688 158.839 395.687 183.717 381.676 206.964C381.676 206.964 381.676 206.963 381.676 206.964L366.176 232.688C354.231 252.494 354.23 273.704 366.177 293.526L381.674 319.247C381.675 319.248 381.675 319.249 381.676 319.249C395.688 342.484 395.687 367.362 381.676 390.608C381.676 390.609 381.676 390.608 381.676 390.608L366.176 416.333Z" fill="#393A3D"/>
<path fill-rule="evenodd" clip-rule="evenodd" d="M429.829 416.333C417.884 436.139 417.883 457.349 429.83 477.171L396.876 482.432C382.865 459.185 382.863 434.307 396.876 411.072C396.876 411.072 396.876 411.072 396.876 411.072C396.876 411.071 396.877 411.07 396.877 411.069L412.374 385.35C424.321 365.527 424.32 344.317 412.375 324.511L412.374 324.508L396.876 298.787C396.876 298.787 396.876 298.787 396.876 298.787C382.865 275.54 382.864 250.662 396.876 227.427C396.876 227.426 396.877 227.425 396.877 227.425L412.374 201.705C424.321 181.883 424.32 160.672 412.375 140.866L412.374 140.864L396.876 115.142C396.876 115.142 396.876 115.142 396.876 115.142C382.865 91.8956 382.864 67.0168 396.876 43.7824C396.876 43.7815 396.877 43.7808 396.877 43.78L412.374 18.0601C424.321 -1.76206 424.32 -22.9729 412.375 -42.7788L412.374 -42.7812L396.876 -68.5026C396.876 -68.5029 396.876 -68.5023 396.876 -68.5026C382.865 -91.75 382.864 -116.63 396.877 -139.865L429.829 -134.601C417.884 -114.795 417.883 -93.5853 429.83 -73.7631L445.327 -48.0425C445.327 -48.0416 445.328 -48.0409 445.328 -48.0401C459.341 -24.8053 459.339 0.0730557 445.328 23.3198L429.83 49.0412L429.829 49.0436C417.884 68.8495 417.883 90.0594 429.83 109.882L445.327 135.602C445.327 135.603 445.328 135.604 445.328 135.605C459.34 158.839 459.339 183.717 445.328 206.964C445.328 206.964 445.328 206.963 445.328 206.964L429.829 232.688C417.884 252.494 417.883 273.704 429.83 293.526L445.327 319.247C445.327 319.248 445.328 319.249 445.328 319.249C459.34 342.484 459.339 367.362 445.328 390.608C445.328 390.609 445.328 390.608 445.328 390.608L429.829 416.333Z" fill="#393A3D"/>
<path d="M1093.76 673.381C1093.76 577.625 1016.13 500 920.377 500C824.622 500 746.997 577.625 746.997 673.381L1093.76 673.381Z" fill="#342C4C"/>
</g>
<defs>
<clipPath id="clip0_6_3490">
<rect width="1200" height="675" fill="white"/>
</clipPath>
</defs>
</svg>
