<svg width="1200" height="675" viewBox="0 0 1200 675" fill="none" xmlns="http://www.w3.org/2000/svg">
<rect width="1200" height="675" fill="#BEE3E7"/>
<rect width="296" height="666" fill="#F4F4EF"/>
<path d="M296 666C296 583.989 229.738 517.505 148 517.505C66.262 517.505 7.345e-05 583.989 6.62804e-05 666L296 666Z" fill="#393A3D"/>
<path d="M0 370C-1.42437e-05 451.465 66.2618 517.505 148 517.505C229.738 517.505 296 451.465 296 370L0 370Z" fill="#393A3D"/>
<path d="M592 370C592 287.989 525.738 221.505 444 221.505C362.262 221.505 296 287.989 296 370L592 370Z" fill="#342C4C"/>
<path d="M296 74C296 155.465 362.262 221.505 444 221.505C525.738 221.505 592 155.465 592 74.0001L296 74Z" fill="#342C4C"/>
<rect x="296" y="370" width="296" height="296" fill="#7264A2"/>
<path d="M888 333L1184 333L1184 629L888 333Z" fill="#7264A2"/>
<path d="M888 333L888 37L1184 37L888 333Z" fill="#7264A2"/>
<path d="M740 333C658.262 333 592 399.262 592 481C592 562.738 658.262 629 740 629L740 570.961C690.316 570.961 650.039 530.684 650.039 481C650.039 431.316 690.316 391.039 740 391.039L740 333Z" fill="#342C4C"/>
<path d="M888 333L740 333L740 481L888 333Z" fill="#393A3D"/>
</svg>
