<svg width="1200" height="675" viewBox="0 0 1200 675" fill="none" xmlns="http://www.w3.org/2000/svg">
<g clip-path="url(#clip0_6_3757)">
<rect width="1200" height="675" fill="#F4F4EF"/>
<rect width="468" height="666" fill="#BEE3E7"/>
<rect x="468" width="716" height="333" fill="#BEE3E7"/>
<circle cx="171.141" cy="167.141" r="54.1408" fill="#342C4C"/>
<circle cx="339.578" cy="167.141" r="54.1408" fill="#342C4C"/>
<circle cx="508.016" cy="167.141" r="54.1408" fill="#7264A2"/>
<circle cx="676.453" cy="167.141" r="54.1408" fill="#342C4C"/>
<circle cx="844.895" cy="167.141" r="54.1408" fill="#342C4C"/>
<circle cx="1013.33" cy="167.141" r="54.1408" fill="#393A3D"/>
<path fill-rule="evenodd" clip-rule="evenodd" d="M695.539 333C697.61 341.312 701.08 349.555 705.95 357.635L725.408 389.93C741.055 415.873 741.055 443.654 725.407 469.616L705.95 501.91C689.006 530.005 689.007 560.089 705.95 588.2L725.408 620.495C741.055 646.438 741.055 674.219 725.407 700.181L705.95 732.475C689.006 760.57 689.007 790.653 705.95 818.765L726.637 815.463C710.989 789.501 710.99 761.72 726.636 735.778L746.094 703.482C763.038 675.37 763.038 645.286 746.094 617.191L726.637 584.898C710.989 558.936 710.99 531.154 726.637 505.211L746.094 472.917C763.038 444.805 763.038 414.721 746.094 386.626L726.637 354.333C722.416 347.33 719.334 340.196 717.39 333H695.539Z" fill="#7264A2"/>
<path fill-rule="evenodd" clip-rule="evenodd" d="M760.641 333C762.711 341.312 766.182 349.555 771.052 357.635L790.51 389.93C806.156 415.873 806.157 443.654 790.509 469.616L771.051 501.91C754.107 530.005 754.109 560.089 771.052 588.2L790.51 620.495C806.156 646.438 806.157 674.219 790.509 700.181L771.051 732.475C754.107 760.57 754.108 790.653 771.052 818.765L791.738 815.463C776.09 789.501 776.091 761.72 791.738 735.778L811.196 703.482C828.139 675.37 828.14 645.286 811.195 617.191L791.738 584.898C776.09 558.936 776.092 531.154 791.738 505.211L811.196 472.917C828.139 444.805 828.14 414.721 811.195 386.626L791.738 354.333C787.518 347.33 784.436 340.196 782.492 333H760.641Z" fill="#7264A2"/>
<path fill-rule="evenodd" clip-rule="evenodd" d="M825.746 333C827.817 341.312 831.287 349.555 836.157 357.635L855.615 389.93C871.262 415.873 871.262 443.654 855.614 469.616L836.157 501.91C819.213 530.005 819.214 560.089 836.157 588.2L855.615 620.495C871.262 646.438 871.262 674.219 855.614 700.181L836.157 732.475C819.213 760.57 819.214 790.653 836.157 818.765L856.844 815.463C841.196 789.501 841.197 761.72 856.843 735.778L876.302 703.482C893.245 675.37 893.245 645.286 876.301 617.191L856.844 584.898C841.196 558.936 841.197 531.154 856.844 505.211L876.301 472.917C893.245 444.805 893.245 414.721 876.301 386.626L856.844 354.333C852.623 347.33 849.541 340.196 847.597 333H825.746Z" fill="#7264A2"/>
<path fill-rule="evenodd" clip-rule="evenodd" d="M890.848 333C892.918 341.312 896.389 349.555 901.259 357.635L920.717 389.93C936.363 415.873 936.364 443.654 920.716 469.616L901.258 501.91C884.314 530.005 884.316 560.089 901.259 588.2L920.717 620.495C936.363 646.438 936.364 674.219 920.716 700.181L901.258 732.475C884.314 760.57 884.315 790.653 901.259 818.765L921.945 815.463C906.297 789.501 906.298 761.72 921.945 735.778L941.403 703.482C958.346 675.37 958.347 645.286 941.402 617.191L921.945 584.898C906.297 558.936 906.299 531.154 921.945 505.211L941.403 472.917C958.346 444.805 958.347 414.721 941.402 386.626L921.945 354.333C917.725 347.33 914.643 340.196 912.699 333H890.848Z" fill="#7264A2"/>
<path fill-rule="evenodd" clip-rule="evenodd" d="M955.949 333C958.02 341.312 961.49 349.555 966.36 357.635L985.818 389.93C1001.46 415.873 1001.47 443.654 985.818 469.616L966.36 501.91C949.416 530.005 949.417 560.089 966.36 588.2L985.818 620.495C1001.46 646.438 1001.47 674.219 985.818 700.181L966.36 732.475C949.416 760.57 949.417 790.653 966.36 818.765L987.047 815.463C971.399 789.501 971.4 761.72 987.046 735.778L1006.5 703.482C1023.45 675.37 1023.45 645.286 1006.5 617.191L987.047 584.898C971.399 558.936 971.401 531.154 987.047 505.211L1006.5 472.917C1023.45 444.805 1023.45 414.721 1006.5 386.626L987.047 354.333C982.826 347.33 979.744 340.196 977.8 333H955.949Z" fill="#7264A2"/>
</g>
<defs>
<clipPath id="clip0_6_3757">
<rect width="1200" height="675" fill="white"/>
</clipPath>
</defs>
</svg>
