<svg width="1184" height="666" viewBox="0 0 1184 666" fill="none" xmlns="http://www.w3.org/2000/svg">
<g clip-path="url(#clip0_1_6885)">
<rect width="1184" height="666" fill="#F4F4EF"/>
<rect x="559" width="625" height="666" fill="#BEE3E7"/>
<path fill-rule="evenodd" clip-rule="evenodd" d="M371.463 98.3157C430.19 98.3157 477.798 50.7076 477.798 -8.01988C477.798 -66.7474 430.19 -114.355 371.463 -114.355C312.735 -114.355 265.127 -66.7474 265.127 -8.01988C265.127 50.7076 312.735 98.3157 371.463 98.3157ZM371.463 56.6155C407.16 56.6155 436.098 27.6773 436.098 -8.01988C436.098 -43.7171 407.16 -72.6552 371.463 -72.6552C335.765 -72.6552 306.827 -43.7171 306.827 -8.01988C306.827 27.6773 335.765 56.6155 371.463 56.6155Z" fill="#7264A2"/>
<path fill-rule="evenodd" clip-rule="evenodd" d="M221.275 363.287C236.475 420.013 294.782 453.677 351.509 438.478C408.235 423.278 441.899 364.97 426.699 308.244C411.5 251.517 353.192 217.853 296.465 233.053C239.739 248.253 206.075 306.56 221.275 363.287ZM261.554 352.494C270.793 386.975 306.235 407.437 340.716 398.198C375.197 388.959 395.659 353.517 386.42 319.036C377.181 284.556 341.739 264.093 307.258 273.332C272.777 282.571 252.315 318.013 261.554 352.494Z" fill="#7264A2"/>
<path fill-rule="evenodd" clip-rule="evenodd" d="M26.523 -97.2869C11.3232 -154.013 -46.9845 -187.677 -103.711 -172.477C-160.437 -157.278 -194.101 -98.97 -178.902 -42.2435C-163.702 14.4829 -105.394 48.1469 -48.6676 32.9471C8.0588 17.7473 41.7228 -40.5604 26.523 -97.2869ZM-13.7563 -86.4941C-22.9954 -120.975 -58.4373 -141.437 -92.9181 -132.198C-127.399 -122.959 -147.861 -87.5171 -138.622 -53.0363C-129.383 -18.5556 -93.9412 1.90686 -59.4604 -7.33225C-24.9796 -16.5714 -4.51722 -52.0133 -13.7563 -86.4941Z" fill="#393A3D"/>
<path d="M227.555 -45.75L331.55 133.01H123.561L227.555 -45.75Z" fill="#393A3D"/>
<path d="M20.2434 311.75L-83.7514 132.99L124.238 132.99L20.2434 311.75Z" fill="#393A3D"/>
<path d="M323.182 186.991L177.43 333.709L123.598 132.806L323.182 186.991Z" fill="#393A3D"/>
<path d="M-75.3844 79.0089L70.3683 -67.7087L124.2 133.194L-75.3844 79.0089Z" fill="#393A3D"/>
<path fill-rule="evenodd" clip-rule="evenodd" d="M1256.73 629.006C1306.05 660.882 1371.88 646.736 1403.75 597.412C1435.63 548.088 1421.48 482.263 1372.16 450.387C1322.83 418.512 1257.01 432.657 1225.13 481.981C1193.26 531.306 1207.4 597.131 1256.73 629.006ZM1279.36 593.983C1309.34 613.358 1349.35 604.76 1368.73 574.779C1388.1 544.797 1379.51 504.786 1349.52 485.411C1319.54 466.035 1279.53 474.633 1260.16 504.615C1240.78 534.596 1249.38 574.608 1279.36 593.983Z" fill="#7264A2"/>
<path fill-rule="evenodd" clip-rule="evenodd" d="M803.228 418.525C753.904 386.65 688.078 400.795 656.203 450.119C624.328 499.443 638.473 565.269 687.797 597.144C737.121 629.019 802.947 614.874 834.822 565.55C866.697 516.226 852.552 450.4 803.228 418.525ZM780.594 453.548C750.613 434.173 710.601 442.771 691.226 472.753C671.851 502.734 680.449 542.745 710.43 562.121C740.412 581.496 780.423 572.898 799.799 542.916C819.174 512.935 810.576 472.923 780.594 453.548Z" fill="#393A3D"/>
<path fill-rule="evenodd" clip-rule="evenodd" d="M1073.18 277.499C1091.21 221.605 1060.51 161.684 1004.61 143.661C948.721 125.638 888.8 156.338 870.776 212.231C852.753 268.125 883.453 328.046 939.347 346.069C995.24 364.093 1055.16 333.393 1073.18 277.499ZM1033.5 264.701C1044.45 230.727 1025.79 194.304 991.817 183.349C957.842 172.394 921.42 191.054 910.464 225.029C899.509 259.003 918.17 295.426 952.144 306.381C986.119 317.337 1022.54 298.676 1033.5 264.701Z" fill="#393A3D"/>
<path d="M1214.06 429.898L1204.37 636.48L1029.69 523.59L1214.06 429.898Z" fill="#7264A2"/>
<path d="M845.898 617.634L855.58 411.051L1030.27 523.941L845.898 617.634Z" fill="#7264A2"/>
<path d="M1168.05 677.278L965.998 721.394L1029.83 523.442L1168.05 677.278Z" fill="#7264A2"/>
<path d="M891.907 370.253L1093.96 326.137L1030.13 524.09L891.907 370.253Z" fill="#7264A2"/>
</g>
<defs>
<clipPath id="clip0_1_6885">
<rect width="1184" height="666" fill="white"/>
</clipPath>
</defs>
</svg>
