<svg width="1184" height="666" viewBox="0 0 1184 666" fill="none" xmlns="http://www.w3.org/2000/svg">
<g clip-path="url(#clip0_1_6823)">
<rect width="1184" height="666" fill="#F4F4EF"/>
<rect width="468" height="666" fill="#BEE3E7"/>
<rect x="468" width="716" height="333" fill="#BEE3E7"/>
<circle cx="171.141" cy="167.141" r="54.1408" fill="#342C4C"/>
<circle cx="339.578" cy="167.141" r="54.1408" fill="#342C4C"/>
<circle cx="508.017" cy="167.141" r="54.1408" fill="#7264A2"/>
<circle cx="676.455" cy="167.141" r="54.1408" fill="#342C4C"/>
<circle cx="844.893" cy="167.141" r="54.1408" fill="#342C4C"/>
<circle cx="1013.33" cy="167.141" r="54.1408" fill="#393A3D"/>
<path fill-rule="evenodd" clip-rule="evenodd" d="M687.51 333C689.592 339.696 692.602 346.335 696.538 352.867L715.737 384.731C731.175 410.328 731.175 437.739 715.736 463.354L696.538 495.218C679.82 522.938 679.821 552.621 696.538 580.357L715.737 612.222C731.175 637.819 731.175 665.229 715.736 690.845L696.538 722.709C679.82 750.429 679.821 780.111 696.539 807.848L716.949 804.59C701.51 778.974 701.511 751.564 716.949 725.967L736.148 694.102C752.865 666.365 752.866 636.682 736.147 608.962L716.949 577.099C701.51 551.484 701.512 524.072 716.949 498.475L736.148 466.612C752.865 438.875 752.866 409.192 736.147 381.471L716.949 349.609C713.655 344.142 711.063 338.595 709.175 333H687.51Z" fill="#7264A2"/>
<path fill-rule="evenodd" clip-rule="evenodd" d="M751.744 333C753.827 339.696 756.836 346.335 760.773 352.867L779.972 384.731C795.409 410.328 795.41 437.739 779.971 463.354L760.773 495.218C744.055 522.938 744.056 552.621 760.773 580.357L779.972 612.222C795.409 637.819 795.41 665.229 779.971 690.845L760.773 722.709C744.054 750.429 744.055 780.111 760.773 807.848L781.184 804.59C765.744 778.974 765.745 751.564 781.183 725.967L800.382 694.102C817.099 666.365 817.1 636.682 800.381 608.962L781.184 577.099C765.744 551.484 765.746 524.072 781.184 498.475L800.382 466.612C817.099 438.875 817.1 409.192 800.381 381.471L781.183 349.609C777.889 344.142 775.298 338.595 773.409 333H751.744Z" fill="#7264A2"/>
<path fill-rule="evenodd" clip-rule="evenodd" d="M815.979 333C818.062 339.696 821.072 346.335 825.008 352.867L844.207 384.731C859.645 410.328 859.645 437.739 844.206 463.354L825.008 495.218C808.29 522.938 808.291 552.621 825.008 580.357L844.207 612.222C859.645 637.819 859.645 665.229 844.206 690.845L825.008 722.709C808.29 750.429 808.291 780.111 825.008 807.848L845.419 804.59C829.98 778.974 829.98 751.564 845.418 725.967L864.617 694.102C881.335 666.365 881.335 636.682 864.616 608.962L845.419 577.099C829.98 551.484 829.981 524.072 845.419 498.475L864.617 466.612C881.335 438.875 881.335 409.192 864.616 381.471L845.419 349.609C842.124 344.142 839.533 338.595 837.644 333H815.979Z" fill="#7264A2"/>
<path fill-rule="evenodd" clip-rule="evenodd" d="M880.215 333C882.297 339.696 885.307 346.335 889.244 352.867L908.442 384.731C923.88 410.328 923.88 437.739 908.441 463.354L889.243 495.218C872.525 522.938 872.526 552.621 889.244 580.357L908.442 612.222C923.88 637.819 923.88 665.229 908.441 690.845L889.243 722.709C872.525 750.429 872.526 780.111 889.244 807.848L909.654 804.59C894.215 778.974 894.216 751.564 909.654 725.967L928.853 694.102C945.57 666.365 945.571 636.682 928.852 608.962L909.654 577.099C894.215 551.484 894.217 524.072 909.655 498.475L928.853 466.612C945.57 438.875 945.571 409.192 928.852 381.471L909.654 349.609C906.36 344.142 903.768 338.595 901.88 333H880.215Z" fill="#7264A2"/>
<path fill-rule="evenodd" clip-rule="evenodd" d="M944.449 333C946.532 339.696 949.541 346.335 953.478 352.867L972.677 384.731C988.115 410.328 988.115 437.739 972.676 463.354L953.478 495.218C936.76 522.938 936.761 552.621 953.478 580.357L972.677 612.222C988.115 637.819 988.115 665.229 972.676 690.845L953.478 722.709C936.76 750.429 936.76 780.111 953.478 807.848L973.889 804.59C958.45 778.974 958.45 751.564 973.888 725.967L993.087 694.102C1009.8 666.365 1009.81 636.682 993.086 608.962L973.889 577.099C958.45 551.484 958.451 524.072 973.889 498.475L993.087 466.612C1009.8 438.875 1009.81 409.192 993.086 381.471L973.889 349.609C970.594 344.142 968.003 338.595 966.114 333H944.449Z" fill="#7264A2"/>
</g>
<defs>
<clipPath id="clip0_1_6823">
<rect width="1184" height="666" fill="white"/>
</clipPath>
</defs>
</svg>
