<svg width="1184" height="666" viewBox="0 0 1184 666" fill="none" xmlns="http://www.w3.org/2000/svg">
<rect width="1184" height="666" fill="#F4F4EF"/>
<rect width="754" height="666" fill="#BEE3E7"/>
<circle cx="349.081" cy="314.49" r="28.0388" fill="#7264A2"/>
<circle cx="422.042" cy="342.039" r="28.0388" fill="#7264A2"/>
<circle cx="492.042" cy="360.039" r="28.0388" fill="#7264A2"/>
<circle cx="572.042" cy="369.039" r="28.0388" fill="#7264A2"/>
<circle cx="645.042" cy="361.039" r="28.0388" fill="#7264A2"/>
<circle cx="718.042" cy="341.039" r="28.0388" fill="#7264A2"/>
<circle cx="788.042" cy="312.039" r="28.0388" fill="#7264A2"/>
<circle cx="312.625" cy="252.803" r="25.2349" fill="#7264A2"/>
<circle cx="366.193" cy="384.702" r="25.2349" transform="rotate(-161.517 366.193 384.702)" fill="#7264A2"/>
<circle cx="410.757" cy="278.04" r="25.2349" transform="rotate(90 410.757 278.04)" fill="#7264A2"/>
<circle cx="281.117" cy="329.658" r="25.2349" transform="rotate(-71.5173 281.117 329.658)" fill="#342C4C"/>
<circle cx="309.821" cy="189.997" r="22.431" fill="#342C4C"/>
<circle cx="348.941" cy="445.156" r="22.431" transform="rotate(-161.517 348.941 445.156)" fill="#342C4C"/>
<circle cx="473.564" cy="275.238" r="22.431" transform="rotate(90 473.564 275.238)" fill="#7264A2"/>
<circle cx="880.431" cy="222.431" r="22.431" transform="rotate(90 880.431 222.431)" fill="#342C4C"/>
<circle cx="838.431" cy="268.431" r="22.431" transform="rotate(90 838.431 268.431)" fill="#342C4C"/>
<circle cx="220.663" cy="312.401" r="22.431" transform="rotate(-71.5173 220.663 312.401)" fill="#342C4C"/>
<circle cx="287.391" cy="132.797" r="19.6271" fill="#342C4C"/>
<circle cx="352.073" cy="506.517" r="19.6271" transform="rotate(-161.517 352.073 506.517)" fill="#342C4C"/>
<circle cx="530.759" cy="252.803" r="19.6271" transform="rotate(90 530.759 252.803)" fill="#342C4C"/>
<circle cx="925.634" cy="182.627" r="19.6271" transform="rotate(90 925.634 182.627)" fill="#342C4C"/>
<circle cx="159.303" cy="315.547" r="19.6271" transform="rotate(-71.5173 159.303 315.547)" fill="#342C4C"/>
<circle cx="250.937" cy="89.6201" r="16.8233" fill="#342C4C"/>
<circle cx="372.96" cy="559.026" r="16.8233" transform="rotate(-161.517 372.96 559.026)" fill="#342C4C"/>
<circle cx="573.945" cy="216.355" r="16.8233" transform="rotate(90 573.945 216.355)" fill="#342C4C"/>
<circle cx="978.828" cy="163.823" r="16.8233" transform="rotate(90 978.828 163.823)" fill="#342C4C"/>
<circle cx="106.793" cy="336.427" r="16.8233" transform="rotate(-71.5173 106.793 336.427)" fill="#7264A2"/>
<circle cx="206.075" cy="63.8233" r="16.8233" fill="#7264A2"/>
<circle cx="407.334" cy="597.711" r="16.8233" transform="rotate(-161.517 407.334 597.711)" fill="#7264A2"/>
<circle cx="599.734" cy="171.493" r="16.8233" transform="rotate(90 599.734 171.493)" fill="#342C4C"/>
<circle cx="1028.83" cy="175.823" r="16.8233" transform="rotate(90 1028.83 175.823)" fill="#7264A2"/>
<circle cx="68.1042" cy="370.798" r="16.8233" transform="rotate(-71.5173 68.1042 370.798)" fill="#7264A2"/>
<circle cx="161.214" cy="80.6483" r="14.0194" fill="#7264A2"/>
<circle cx="455.215" cy="595.976" r="14.0194" transform="rotate(-161.517 455.215 595.976)" fill="#7264A2"/>
<circle cx="582.921" cy="126.631" r="14.0194" transform="rotate(90 582.921 126.631)" fill="#7264A2"/>
<circle cx="1060.02" cy="219.019" r="14.0194" transform="rotate(90 1060.02 219.019)" fill="#7264A2"/>
<circle cx="69.8364" cy="418.679" r="14.0194" transform="rotate(-71.5173 69.8364 418.679)" fill="#7264A2"/>
<circle cx="153.364" cy="117.659" r="11.2155" fill="#7264A2"/>
<circle cx="474.39" cy="563.366" r="11.2155" transform="rotate(-161.517 474.39 563.366)" fill="#7264A2"/>
<circle cx="545.905" cy="118.78" r="11.2155" transform="rotate(90 545.905 118.78)" fill="#7264A2"/>
<circle cx="1026.22" cy="253.216" r="11.2155" transform="rotate(90 1026.22 253.216)" fill="#7264A2"/>
<circle cx="102.448" cy="437.858" r="11.2155" transform="rotate(-71.5173 102.448 437.858)" fill="#7264A2"/>
<circle cx="175.233" cy="147.378" r="8.41164" fill="#7264A2"/>
<circle cx="463.07" cy="528.244" r="8.41164" transform="rotate(-161.517 463.07 528.244)" fill="#7264A2"/>
<circle cx="516.185" cy="140.65" r="8.41164" transform="rotate(90 516.185 140.65)" fill="#7264A2"/>
<circle cx="987.412" cy="253.412" r="8.41164" transform="rotate(90 987.412 253.412)" fill="#7264A2"/>
<circle cx="137.568" cy="426.535" r="8.41164" transform="rotate(-71.5173 137.568 426.535)" fill="#7264A2"/>
<circle cx="211.681" cy="112.051" r="5.60776" fill="#7264A2"/>
<circle cx="417.301" cy="550.193" r="5.60776" transform="rotate(-161.517 417.301 550.193)" fill="#7264A2"/>
<circle cx="551.512" cy="177.102" r="5.60776" transform="rotate(90 551.512 177.102)" fill="#7264A2"/>
<circle cx="115.616" cy="380.766" r="5.60776" transform="rotate(-71.5173 115.616 380.766)" fill="#7264A2"/>
<circle cx="206.078" cy="138.409" r="5.60776" fill="#7264A2"/>
<circle cx="430.976" cy="526.974" r="5.60776" transform="rotate(-161.517 430.976 526.974)" fill="#7264A2"/>
<circle cx="525.161" cy="171.491" r="5.60776" transform="rotate(90 525.161 171.491)" fill="#7264A2"/>
<circle cx="978.614" cy="224.608" r="5.60776" transform="rotate(90 978.614 224.608)" fill="#7264A2"/>
<circle cx="138.844" cy="394.442" r="5.60776" transform="rotate(-71.5173 138.844 394.442)" fill="#7264A2"/>
<circle cx="194.861" cy="100.273" r="2.80388" fill="#7264A2"/>
<circle cx="429.519" cy="566.696" r="2.80388" transform="rotate(-161.517 429.519 566.696)" fill="#7264A2"/>
<circle cx="563.293" cy="160.277" r="2.80388" transform="rotate(90 563.293 160.277)" fill="#7264A2"/>
<circle cx="989.808" cy="209.804" r="2.80388" transform="rotate(90 989.808 209.804)" fill="#7264A2"/>
<circle cx="1008.81" cy="206.804" r="2.80388" transform="rotate(90 1008.81 206.804)" fill="#7264A2"/>
<circle cx="1022.81" cy="216.804" r="2.80388" transform="rotate(90 1022.81 216.804)" fill="#7264A2"/>
<circle cx="1019.81" cy="232.804" r="2.80388" transform="rotate(90 1019.81 232.804)" fill="#7264A2"/>
<circle cx="1002.81" cy="227.804" r="2.80388" transform="rotate(90 1002.81 227.804)" fill="#7264A2"/>
<circle cx="99.1175" cy="392.987" r="2.80388" transform="rotate(-71.5173 99.1175 392.987)" fill="#7264A2"/>
<circle cx="179.716" cy="103.077" r="2.80388" fill="#7264A2"/>
<circle cx="444.77" cy="568.837" r="2.80388" transform="rotate(-161.517 444.77 568.837)" fill="#7264A2"/>
<circle cx="560.487" cy="145.136" r="2.80388" transform="rotate(90 560.487 145.136)" fill="#7264A2"/>
<circle cx="96.9837" cy="408.237" r="2.80388" transform="rotate(-71.5173 96.9837 408.237)" fill="#7264A2"/>
<circle cx="178.032" cy="117.659" r="2.80388" fill="#7264A2"/>
<circle cx="450.99" cy="555.544" r="2.80388" transform="rotate(-161.517 450.99 555.544)" fill="#7264A2"/>
<circle cx="545.907" cy="143.454" r="2.80388" transform="rotate(90 545.907 143.454)" fill="#7264A2"/>
<circle cx="110.276" cy="414.454" r="2.80388" transform="rotate(-71.5173 110.276 414.454)" fill="#7264A2"/>
<circle cx="190.371" cy="124.388" r="2.80388" fill="#7264A2"/>
<circle cx="441.422" cy="545.251" r="2.80388" transform="rotate(-161.517 441.422 545.251)" fill="#7264A2"/>
<circle cx="539.171" cy="155.79" r="2.80388" transform="rotate(90 539.171 155.79)" fill="#7264A2"/>
<circle cx="120.569" cy="404.888" r="2.80388" transform="rotate(-71.5173 120.569 404.888)" fill="#7264A2"/>
</svg>
