<svg width="1200" height="675" viewBox="0 0 1200 675" fill="none" xmlns="http://www.w3.org/2000/svg">
<g clip-path="url(#clip0_6_3734)">
<rect width="1200" height="675" fill="#F4F4EF"/>
<rect width="594" height="666" fill="#BEE3E7"/>
<path fill-rule="evenodd" clip-rule="evenodd" d="M592.499 590.381C734.924 590.381 850.381 474.924 850.381 332.499C850.381 190.075 734.924 74.6172 592.499 74.6172C450.075 74.6172 334.617 190.075 334.617 332.499C334.617 474.924 450.075 590.381 592.499 590.381ZM592.499 544.873C709.79 544.873 804.873 449.79 804.873 332.499C804.873 215.208 709.79 120.126 592.499 120.126C475.209 120.126 380.126 215.208 380.126 332.499C380.126 449.79 475.209 544.873 592.499 544.873Z" fill="#BABEC5"/>
<path fill-rule="evenodd" clip-rule="evenodd" d="M592.499 590.381C734.924 590.381 850.381 474.924 850.381 332.499C850.381 190.075 734.924 74.6172 592.499 74.6172C450.075 74.6172 334.617 190.075 334.617 332.499C334.617 474.924 450.075 590.381 592.499 590.381ZM592.499 544.873C709.79 544.873 804.873 449.79 804.873 332.499C804.873 215.208 709.79 120.126 592.499 120.126C475.209 120.126 380.126 215.208 380.126 332.499C380.126 449.79 475.209 544.873 592.499 544.873Z" fill="#7264A2"/>
<path fill-rule="evenodd" clip-rule="evenodd" d="M411.882 590.381C554.306 590.381 669.764 474.924 669.764 332.499C669.764 190.075 554.306 74.6172 411.882 74.6172C269.458 74.6172 154 190.075 154 332.499C154 474.924 269.458 590.381 411.882 590.381ZM411.882 544.873C529.173 544.873 624.256 449.79 624.256 332.499C624.256 215.208 529.173 120.126 411.882 120.126C294.591 120.126 199.509 215.208 199.509 332.499C199.509 449.79 294.591 544.873 411.882 544.873Z" fill="#342C4C"/>
<path fill-rule="evenodd" clip-rule="evenodd" d="M773.117 590.381C915.541 590.381 1031 474.924 1031 332.499C1031 190.075 915.541 74.6172 773.117 74.6172C630.692 74.6172 515.234 190.075 515.234 332.499C515.234 474.924 630.692 590.381 773.117 590.381ZM773.117 544.873C890.407 544.873 985.49 449.79 985.49 332.499C985.49 215.208 890.407 120.126 773.117 120.126C655.826 120.126 560.743 215.208 560.743 332.499C560.743 449.79 655.826 544.873 773.117 544.873Z" fill="#342C4C"/>
<path fill-rule="evenodd" clip-rule="evenodd" d="M592.499 771.001C734.924 771.001 850.381 655.543 850.381 513.118C850.381 370.694 734.924 255.236 592.499 255.236C450.075 255.236 334.617 370.694 334.617 513.118C334.617 655.543 450.075 771.001 592.499 771.001ZM592.499 725.492C709.79 725.492 804.873 630.41 804.873 513.118C804.873 395.827 709.79 300.745 592.499 300.745C475.209 300.745 380.126 395.827 380.126 513.118C380.126 630.41 475.209 725.492 592.499 725.492Z" fill="#393A3D"/>
<path fill-rule="evenodd" clip-rule="evenodd" d="M592.499 409.764C734.924 409.764 850.381 294.306 850.381 151.882C850.381 9.45786 734.924 -106 592.499 -106C450.075 -106 334.617 9.45786 334.617 151.882C334.617 294.306 450.075 409.764 592.499 409.764ZM592.499 364.256C709.79 364.256 804.873 269.173 804.873 151.882C804.873 34.591 709.79 -60.4914 592.499 -60.4914C475.209 -60.4914 380.126 34.591 380.126 151.882C380.126 269.173 475.209 364.256 592.499 364.256Z" fill="#393A3D"/>
</g>
<defs>
<clipPath id="clip0_6_3734">
<rect width="1200" height="675" fill="white"/>
</clipPath>
</defs>
</svg>
