<svg width="1184" height="666" viewBox="0 0 1184 666" fill="none" xmlns="http://www.w3.org/2000/svg">
<g clip-path="url(#clip0_1_6697)">
<rect width="1184" height="666" fill="#F4F4EF"/>
<rect width="592" height="666" fill="#BEE3E7"/>
<path d="M592.03 333.031C592.03 453.421 689.625 551.016 810.015 551.016C930.405 551.016 1028 453.421 1028 333.031H592.03Z" fill="#342C4C"/>
<path d="M591.726 332.254C591.726 211.864 494.13 114.269 373.741 114.269C253.351 114.269 155.756 211.864 155.756 332.254L591.726 332.254Z" fill="#393A3D"/>
<path d="M592.158 332.73C712.548 332.73 810.143 235.135 810.143 114.746C810.143 -5.6441 712.548 -103.239 592.158 -103.239L592.158 332.73Z" fill="#7264A2"/>
<path d="M595.026 333.031C474.637 333.031 377.041 430.626 377.041 551.016C377.041 671.406 474.637 769.001 595.026 769.001L595.026 333.031Z" fill="#342C4C"/>
</g>
<defs>
<clipPath id="clip0_1_6697">
<rect width="1184" height="666" fill="white"/>
</clipPath>
</defs>
</svg>
