<svg width="1200" height="675" viewBox="0 0 1200 675" fill="none" xmlns="http://www.w3.org/2000/svg">
<g clip-path="url(#clip0_6_3639)">
<rect width="1200" height="675" fill="#F4F4EF"/>
<rect width="1184" height="666" fill="#BEE3E7"/>
<circle cx="592" cy="333" r="60" fill="#F4F4EF"/>
<path fill-rule="evenodd" clip-rule="evenodd" d="M592.002 438.283C650.148 438.283 697.284 391.146 697.284 333C697.284 274.854 650.148 227.717 592.002 227.717C533.856 227.717 486.719 274.854 486.719 333C486.719 391.146 533.856 438.283 592.002 438.283ZM592.002 419.703C639.887 419.703 678.705 380.885 678.705 333C678.705 285.114 639.887 246.296 592.002 246.296C544.117 246.296 505.298 285.114 505.298 333C505.298 380.885 544.117 419.703 592.002 419.703Z" fill="#342C4C"/>
<path fill-rule="evenodd" clip-rule="evenodd" d="M592 493.149C680.448 493.149 752.149 421.448 752.149 333C752.149 244.553 680.448 172.852 592 172.852C503.553 172.852 431.852 244.553 431.852 333C431.852 421.448 503.553 493.149 592 493.149ZM592 464.887C664.839 464.887 723.887 405.84 723.887 333C723.887 260.161 664.839 201.113 592 201.113C519.161 201.113 460.113 260.161 460.113 333C460.113 405.84 519.161 464.887 592 464.887Z" fill="#7264A2"/>
<path fill-rule="evenodd" clip-rule="evenodd" d="M592.001 576.188C726.31 576.188 835.19 467.308 835.19 332.999C835.19 198.69 726.31 89.8105 592.001 89.8105C457.692 89.8105 348.812 198.69 348.812 332.999C348.812 467.308 457.692 576.188 592.001 576.188ZM592.001 533.272C702.609 533.272 792.274 443.607 792.274 332.999C792.274 222.391 702.609 132.726 592.001 132.726C481.393 132.726 391.728 222.391 391.728 332.999C391.728 443.607 481.393 533.272 592.001 533.272Z" fill="#342C4C"/>
<path fill-rule="evenodd" clip-rule="evenodd" d="M592.001 687.403C787.732 687.403 946.403 528.732 946.403 333.001C946.403 137.269 787.732 -21.4023 592.001 -21.4023C396.269 -21.4023 237.598 137.269 237.598 333.001C237.598 528.732 396.269 687.403 592.001 687.403ZM592.001 624.862C753.191 624.862 883.862 494.192 883.862 333.001C883.862 171.809 753.191 41.1393 592.001 41.1393C430.81 41.1393 300.139 171.809 300.139 333.001C300.139 494.192 430.81 624.862 592.001 624.862Z" fill="#7264A2"/>
<path fill-rule="evenodd" clip-rule="evenodd" d="M592 852C878.636 852 1111 619.636 1111 333C1111 46.3644 878.636 -186 592 -186C305.364 -186 73 46.3644 73 333C73 619.636 305.364 852 592 852ZM592 760.412C828.053 760.412 1019.41 569.054 1019.41 333C1019.41 96.9461 828.053 -94.4118 592 -94.4118C355.947 -94.4118 164.588 96.9461 164.588 333C164.588 569.054 355.947 760.412 592 760.412Z" fill="#342C4C"/>
</g>
<defs>
<clipPath id="clip0_6_3639">
<rect width="1200" height="675" fill="white"/>
</clipPath>
</defs>
</svg>
