<svg width="1184" height="666" viewBox="0 0 1184 666" fill="none" xmlns="http://www.w3.org/2000/svg">
<g clip-path="url(#clip0_1_14338)">
<rect width="1184" height="666" fill="#F4F4EF"/>
<path fill-rule="evenodd" clip-rule="evenodd" d="M390.202 234.868C373.856 225.01 356.352 225.009 339.994 234.869L335.652 207.673C354.837 196.11 375.369 196.108 394.544 207.672C394.544 207.673 394.544 207.672 394.544 207.672C394.544 207.673 394.545 207.673 394.546 207.674L415.772 220.463C432.13 230.322 449.635 230.322 465.98 220.464L465.982 220.463L487.21 207.673C487.21 207.673 487.209 207.673 487.21 207.673C506.394 196.11 526.926 196.109 546.101 207.672C546.102 207.673 546.102 207.673 546.103 207.674L567.329 220.463C583.687 230.322 601.192 230.322 617.537 220.464L617.539 220.463L638.767 207.673C638.767 207.673 638.766 207.673 638.767 207.673C657.951 196.11 678.483 196.109 697.658 207.672C697.659 207.673 697.659 207.673 697.66 207.674L718.886 220.463C735.245 230.322 752.749 230.322 769.095 220.464L769.097 220.463L790.324 207.673C790.324 207.673 790.324 207.673 790.324 207.673C809.509 196.11 830.042 196.109 849.217 207.674L844.873 234.868C828.528 225.01 811.024 225.009 794.665 234.869L773.439 247.658C773.438 247.658 773.437 247.659 773.437 247.659C754.262 259.223 733.73 259.222 714.545 247.659L693.318 234.869L693.316 234.868C676.971 225.01 659.467 225.009 643.108 234.869L621.881 247.658C621.881 247.658 621.88 247.659 621.879 247.659C602.705 259.223 582.174 259.222 562.989 247.659C562.989 247.659 562.989 247.659 562.989 247.659L541.759 234.868C525.414 225.01 507.91 225.009 491.551 234.869L470.324 247.658C470.324 247.658 470.323 247.659 470.322 247.659C451.148 259.223 430.616 259.222 411.432 247.659C411.431 247.659 411.432 247.659 411.432 247.659L390.202 234.868Z" fill="#B61A37"/>
<path fill-rule="evenodd" clip-rule="evenodd" d="M390.202 287.399C373.856 277.541 356.352 277.54 339.994 287.4L335.652 260.204C354.837 248.641 375.369 248.64 394.544 260.204C394.544 260.204 394.544 260.204 394.544 260.204C394.544 260.204 394.545 260.205 394.546 260.205L415.772 272.994C432.13 282.854 449.635 282.853 465.98 272.995L465.982 272.994L487.21 260.204C487.21 260.204 487.209 260.204 487.21 260.204C506.394 248.641 526.926 248.64 546.101 260.204C546.102 260.204 546.102 260.205 546.103 260.205L567.329 272.994C583.687 282.854 601.192 282.853 617.537 272.995L617.539 272.994L638.767 260.204C638.767 260.204 638.766 260.204 638.767 260.204C657.951 248.641 678.483 248.64 697.658 260.204C697.659 260.204 697.659 260.205 697.66 260.205L718.886 272.994C735.245 282.854 752.749 282.853 769.095 272.995L769.097 272.994L790.324 260.204C790.324 260.204 790.324 260.204 790.324 260.204C809.509 248.641 830.042 248.64 849.217 260.205L844.873 287.399C828.528 277.541 811.024 277.54 794.665 287.4L773.439 300.189C773.438 300.189 773.437 300.19 773.437 300.19C754.262 311.754 733.73 311.753 714.545 300.19L693.318 287.4L693.316 287.399C676.971 277.541 659.467 277.54 643.108 287.4L621.881 300.189C621.881 300.189 621.88 300.19 621.879 300.19C602.705 311.754 582.174 311.753 562.989 300.19C562.989 300.19 562.989 300.19 562.989 300.19L541.759 287.399C525.414 277.541 507.91 277.54 491.551 287.4L470.324 300.189C470.324 300.189 470.323 300.19 470.322 300.19C451.148 311.754 430.616 311.753 411.432 300.19C411.431 300.19 411.432 300.19 411.432 300.19L390.202 287.399Z" fill="#B61A37"/>
<path fill-rule="evenodd" clip-rule="evenodd" d="M390.202 339.93C373.856 330.072 356.352 330.071 339.994 339.931L335.652 312.735C354.837 301.172 375.369 301.171 394.544 312.735C394.544 312.735 394.544 312.735 394.544 312.735C394.544 312.735 394.545 312.736 394.546 312.736L415.772 325.525C432.13 335.385 449.635 335.384 465.98 325.526L465.982 325.525L487.21 312.735C487.21 312.735 487.209 312.736 487.21 312.735C506.394 301.173 526.926 301.171 546.101 312.735C546.102 312.735 546.102 312.736 546.103 312.736L567.329 325.525C583.687 335.385 601.192 335.384 617.537 325.526L617.539 325.525L638.767 312.735C638.767 312.735 638.766 312.736 638.767 312.735C657.951 301.173 678.483 301.171 697.658 312.735C697.659 312.735 697.659 312.736 697.66 312.736L718.886 325.525C735.245 335.385 752.749 335.384 769.095 325.526L769.097 325.525L790.324 312.735C790.324 312.735 790.324 312.736 790.324 312.735C809.509 301.172 830.042 301.171 849.217 312.736L844.873 339.93C828.528 330.072 811.024 330.071 794.665 339.931L773.439 352.72C773.438 352.721 773.437 352.721 773.437 352.721C754.262 364.285 733.73 364.284 714.545 352.721L693.318 339.931L693.316 339.93C676.971 330.072 659.467 330.071 643.108 339.931L621.881 352.72C621.881 352.721 621.88 352.721 621.879 352.721C602.705 364.285 582.174 364.284 562.989 352.721C562.989 352.721 562.989 352.722 562.989 352.721L541.759 339.93C525.414 330.072 507.91 330.071 491.551 339.931L470.324 352.72C470.324 352.721 470.323 352.721 470.322 352.721C451.148 364.285 430.616 364.284 411.432 352.721C411.431 352.721 411.432 352.722 411.432 352.721L390.202 339.93Z" fill="#B61A37"/>
<path fill-rule="evenodd" clip-rule="evenodd" d="M390.202 392.458C373.856 382.599 356.352 382.599 339.994 392.458L335.652 365.263C354.837 353.7 375.369 353.698 394.544 365.262C394.544 365.262 394.544 365.262 394.544 365.262C394.544 365.263 394.545 365.263 394.546 365.264L415.772 378.052C432.13 387.912 449.635 387.912 465.98 378.054L465.982 378.052L487.21 365.263C487.21 365.263 487.209 365.263 487.21 365.263C506.394 353.7 526.926 353.698 546.101 365.262C546.102 365.263 546.102 365.263 546.103 365.264L567.329 378.052C583.687 387.912 601.192 387.912 617.537 378.054L617.539 378.052L638.767 365.263C638.767 365.263 638.766 365.263 638.767 365.263C657.951 353.7 678.483 353.698 697.658 365.262C697.659 365.263 697.659 365.263 697.66 365.264L718.886 378.052C735.245 387.912 752.749 387.912 769.095 378.054L769.097 378.052L790.324 365.263C790.324 365.263 790.324 365.263 790.324 365.263C809.509 353.7 830.042 353.698 849.217 365.264L844.873 392.458C828.528 382.599 811.024 382.599 794.665 392.458L773.439 405.248C773.438 405.248 773.437 405.248 773.437 405.249C754.262 416.813 733.73 416.812 714.545 405.248L693.318 392.459L693.316 392.458C676.971 382.599 659.467 382.599 643.108 392.458L621.881 405.248C621.881 405.248 621.88 405.248 621.879 405.249C602.705 416.813 582.174 416.812 562.989 405.249C562.989 405.249 562.989 405.249 562.989 405.249L541.759 392.458C525.414 382.599 507.91 382.599 491.551 392.458L470.324 405.248C470.324 405.248 470.323 405.248 470.322 405.249C451.148 416.813 430.616 416.812 411.432 405.249C411.431 405.249 411.432 405.249 411.432 405.249L390.202 392.458Z" fill="#B61A37"/>
<path fill-rule="evenodd" clip-rule="evenodd" d="M390.202 444.989C373.856 435.131 356.352 435.13 339.994 444.99L335.652 417.794C354.837 406.231 375.369 406.23 394.544 417.794C394.544 417.794 394.544 417.793 394.544 417.794C394.544 417.794 394.545 417.794 394.546 417.795L415.772 430.584C432.13 440.443 449.635 440.443 465.98 430.585L465.982 430.584L487.21 417.794C487.21 417.794 487.209 417.794 487.21 417.794C506.394 406.231 526.926 406.23 546.101 417.794C546.102 417.794 546.102 417.794 546.103 417.795L567.329 430.584C583.687 440.443 601.192 440.443 617.537 430.585L617.539 430.584L638.767 417.794C638.767 417.794 638.766 417.794 638.767 417.794C657.951 406.231 678.483 406.23 697.658 417.794C697.659 417.794 697.659 417.794 697.66 417.795L718.886 430.584C735.245 440.443 752.749 440.443 769.095 430.585L769.097 430.584L790.324 417.794C790.324 417.794 790.324 417.794 790.324 417.794C809.509 406.231 830.042 406.23 849.217 417.795L844.873 444.989C828.528 435.131 811.024 435.13 794.665 444.99L773.439 457.779C773.438 457.779 773.437 457.78 773.437 457.78C754.262 469.344 733.73 469.343 714.545 457.78L693.318 444.99L693.316 444.989C676.971 435.131 659.467 435.13 643.108 444.99L621.881 457.779C621.881 457.779 621.88 457.78 621.879 457.78C602.705 469.344 582.174 469.343 562.989 457.78C562.989 457.78 562.989 457.78 562.989 457.78L541.759 444.989C525.414 435.131 507.91 435.13 491.551 444.99L470.324 457.779C470.324 457.779 470.323 457.78 470.322 457.78C451.148 469.344 430.616 469.343 411.432 457.78C411.431 457.78 411.432 457.78 411.432 457.78L390.202 444.989Z" fill="#B61A37"/>
<rect width="592" height="670" fill="#FDE68C"/>
<circle cx="127.141" cy="333.141" r="54.1408" fill="#B61A37"/>
<circle cx="295.578" cy="333.141" r="54.1408" fill="#FF808C"/>
<circle cx="464.016" cy="333.141" r="54.1408" fill="#B61A37"/>
<circle cx="1016.14" cy="333.141" r="54.1408" fill="#393A3D"/>
</g>
<defs>
<clipPath id="clip0_1_14338">
<rect width="1184" height="666" fill="white"/>
</clipPath>
</defs>
</svg>
