<svg width="1200" height="675" viewBox="0 0 1200 675" fill="none" xmlns="http://www.w3.org/2000/svg">
<rect width="1200" height="675" fill="#F4F4EF"/>
<path fill-rule="evenodd" clip-rule="evenodd" d="M395.478 238.04C378.912 228.049 361.171 228.048 344.591 238.041L340.191 210.478C359.636 198.758 380.444 198.757 399.879 210.477C399.879 210.477 399.878 210.477 399.879 210.477C399.879 210.477 399.88 210.478 399.881 210.478L421.393 223.44C437.973 233.433 455.714 233.433 472.281 223.441L472.283 223.44L493.797 210.478C493.797 210.477 493.796 210.478 493.797 210.478C513.241 198.759 534.05 198.757 553.484 210.477C553.485 210.478 553.485 210.478 553.486 210.478L574.999 223.44C591.578 233.433 609.32 233.433 625.886 223.441L625.888 223.44L647.402 210.478C647.402 210.477 647.402 210.478 647.402 210.478C666.846 198.759 687.655 198.757 707.089 210.477C707.09 210.478 707.09 210.478 707.091 210.478L728.604 223.44C745.184 233.433 762.925 233.433 779.491 223.441L779.493 223.44L801.007 210.478C801.007 210.477 801.007 210.478 801.007 210.478C820.452 198.758 841.262 198.757 860.696 210.478L856.294 238.04C839.727 228.049 821.987 228.048 805.407 238.041L783.894 251.003C783.893 251.003 783.892 251.004 783.892 251.004C764.458 262.724 743.649 262.723 724.204 251.004L702.69 238.041L702.688 238.04C686.122 228.049 668.382 228.048 651.802 238.041L630.288 251.003C630.288 251.003 630.287 251.004 630.286 251.004C610.853 262.724 590.044 262.723 570.6 251.004C570.6 251.004 570.6 251.004 570.6 251.004L549.083 238.04C532.517 228.049 514.776 228.048 498.197 238.041L476.683 251.003C476.683 251.003 476.682 251.004 476.681 251.004C457.247 262.724 436.439 262.723 416.995 251.004C416.994 251.004 416.995 251.004 416.995 251.004L395.478 238.04Z" fill="#B61A37"/>
<path fill-rule="evenodd" clip-rule="evenodd" d="M395.478 291.282C378.912 281.291 361.171 281.29 344.591 291.283L340.191 263.72C359.636 252 380.444 251.999 399.879 263.719C399.879 263.719 399.878 263.719 399.879 263.719C399.879 263.72 399.88 263.72 399.881 263.721L421.393 276.682C437.973 286.675 455.714 286.675 472.281 276.683L472.283 276.682L493.797 263.72C493.797 263.72 493.796 263.72 493.797 263.72C513.241 252.001 534.05 251.999 553.484 263.719C553.485 263.72 553.485 263.72 553.486 263.721L574.999 276.682C591.578 286.675 609.32 286.675 625.886 276.683L625.888 276.682L647.402 263.72C647.402 263.72 647.402 263.72 647.402 263.72C666.846 252.001 687.655 251.999 707.089 263.719C707.09 263.72 707.09 263.72 707.091 263.721L728.604 276.682C745.184 286.675 762.925 286.675 779.491 276.683L779.493 276.682L801.007 263.72C801.007 263.72 801.007 263.72 801.007 263.72C820.452 252 841.262 251.999 860.696 263.721L856.294 291.282C839.727 281.291 821.987 281.29 805.407 291.283L783.894 304.245C783.893 304.245 783.892 304.246 783.892 304.246C764.458 315.966 743.649 315.965 724.204 304.246L702.69 291.283L702.688 291.282C686.122 281.291 668.382 281.29 651.802 291.283L630.288 304.245C630.288 304.245 630.287 304.246 630.286 304.246C610.853 315.966 590.044 315.965 570.6 304.246C570.6 304.246 570.6 304.246 570.6 304.246L549.083 291.282C532.517 281.291 514.776 281.29 498.197 291.283L476.683 304.245C476.683 304.245 476.682 304.246 476.681 304.246C457.247 315.966 436.439 315.965 416.995 304.246C416.994 304.246 416.995 304.246 416.995 304.246L395.478 291.282Z" fill="#B61A37"/>
<path fill-rule="evenodd" clip-rule="evenodd" d="M395.478 344.52C378.912 334.529 361.171 334.528 344.591 344.521L340.191 316.958C359.636 305.239 380.444 305.237 399.879 316.958C399.879 316.958 399.878 316.958 399.879 316.958C399.879 316.958 399.88 316.959 399.881 316.959L421.393 329.921C437.973 339.914 455.714 339.913 472.281 329.922L472.283 329.921L493.797 316.958C493.797 316.958 493.796 316.958 493.797 316.958C513.241 305.239 534.05 305.238 553.484 316.958C553.485 316.958 553.485 316.958 553.486 316.959L574.999 329.921C591.578 339.914 609.32 339.913 625.886 329.922L625.888 329.921L647.402 316.958C647.402 316.958 647.402 316.958 647.402 316.958C666.846 305.239 687.655 305.238 707.089 316.958C707.09 316.958 707.09 316.958 707.091 316.959L728.604 329.921C745.184 339.914 762.925 339.913 779.491 329.922L779.493 329.921L801.007 316.958C801.007 316.958 801.007 316.958 801.007 316.958C820.452 305.239 841.262 305.238 860.696 316.959L856.294 344.52C839.727 334.529 821.987 334.528 805.407 344.521L783.894 357.483C783.893 357.484 783.892 357.484 783.892 357.485C764.458 369.205 743.649 369.203 724.204 357.484L702.69 344.522L702.688 344.52C686.122 334.529 668.382 334.528 651.802 344.521L630.288 357.483C630.288 357.484 630.287 357.484 630.286 357.485C610.853 369.205 590.044 369.203 570.6 357.485C570.6 357.484 570.6 357.485 570.6 357.485L549.083 344.52C532.517 334.529 514.776 334.528 498.197 344.521L476.683 357.483C476.683 357.484 476.682 357.484 476.681 357.485C457.247 369.205 436.439 369.203 416.995 357.485C416.994 357.484 416.995 357.485 416.995 357.485L395.478 344.52Z" fill="#B61A37"/>
<path fill-rule="evenodd" clip-rule="evenodd" d="M395.478 397.763C378.912 387.771 361.171 387.77 344.591 397.763L340.191 370.2C359.636 358.481 380.444 358.48 399.879 370.2C399.879 370.2 399.878 370.2 399.879 370.2C399.879 370.2 399.88 370.201 399.881 370.201L421.393 383.163C437.973 393.156 455.714 393.155 472.281 383.164L472.283 383.163L493.797 370.2C493.797 370.2 493.796 370.2 493.797 370.2C513.241 358.481 534.05 358.48 553.484 370.2C553.485 370.2 553.485 370.201 553.486 370.201L574.999 383.163C591.578 393.156 609.32 393.155 625.886 383.164L625.888 383.163L647.402 370.2C647.402 370.2 647.402 370.2 647.402 370.2C666.846 358.481 687.655 358.48 707.089 370.2C707.09 370.2 707.09 370.201 707.091 370.201L728.604 383.163C745.184 393.156 762.925 393.155 779.491 383.164L779.493 383.163L801.007 370.2C801.007 370.2 801.007 370.2 801.007 370.2C820.452 358.481 841.262 358.48 860.696 370.201L856.294 397.763C839.727 387.771 821.987 387.77 805.407 397.763L783.894 410.725C783.893 410.726 783.892 410.726 783.892 410.727C764.458 422.447 743.649 422.446 724.204 410.726L702.69 397.764L702.688 397.763C686.122 387.771 668.382 387.77 651.802 397.763L630.288 410.725C630.288 410.726 630.287 410.726 630.286 410.727C610.853 422.447 590.044 422.446 570.6 410.727C570.6 410.727 570.6 410.727 570.6 410.727L549.083 397.763C532.517 387.771 514.776 387.77 498.197 397.763L476.683 410.725C476.683 410.726 476.682 410.726 476.681 410.727C457.247 422.447 436.439 422.446 416.995 410.727C416.994 410.727 416.995 410.727 416.995 410.727L395.478 397.763Z" fill="#B61A37"/>
<path fill-rule="evenodd" clip-rule="evenodd" d="M395.478 451.001C378.912 441.01 361.171 441.009 344.591 451.002L340.191 423.439C359.636 411.719 380.444 411.718 399.879 423.438C399.879 423.438 399.878 423.438 399.879 423.438C399.879 423.438 399.88 423.439 399.881 423.439L421.393 436.401C437.973 446.394 455.714 446.394 472.281 436.402L472.283 436.401L493.797 423.439C493.797 423.438 493.796 423.439 493.797 423.439C513.241 411.72 534.05 411.718 553.484 423.438C553.485 423.439 553.485 423.439 553.486 423.439L574.999 436.401C591.578 446.394 609.32 446.394 625.886 436.402L625.888 436.401L647.402 423.439C647.402 423.438 647.402 423.439 647.402 423.439C666.846 411.72 687.655 411.718 707.089 423.438C707.09 423.438 707.09 423.439 707.091 423.439L728.604 436.401C745.184 446.394 762.925 446.394 779.491 436.402L779.493 436.401L801.007 423.439C801.007 423.438 801.007 423.439 801.007 423.439C820.452 411.719 841.262 411.718 860.696 423.439L856.294 451.001C839.727 441.01 821.987 441.009 805.407 451.002L783.894 463.964C783.893 463.964 783.892 463.965 783.892 463.965C764.458 475.685 743.649 475.684 724.204 463.965L702.69 451.002L702.688 451.001C686.122 441.01 668.382 441.009 651.802 451.002L630.288 463.964C630.288 463.964 630.287 463.965 630.286 463.965C610.853 475.685 590.044 475.684 570.6 463.965C570.6 463.965 570.6 463.965 570.6 463.965L549.083 451.001C532.517 441.01 514.776 441.009 498.197 451.002L476.683 463.964C476.683 463.964 476.682 463.965 476.681 463.965C457.247 475.685 436.439 475.684 416.995 463.965C416.994 463.965 416.995 463.965 416.995 463.965L395.478 451.001Z" fill="#B61A37"/>
<rect width="592" height="670" fill="#FDE68C"/>
<circle cx="127.141" cy="333.141" r="54.1408" fill="#B61A37"/>
<circle cx="295.578" cy="333.141" r="54.1408" fill="#FF808C"/>
<circle cx="464.016" cy="333.141" r="54.1408" fill="#B61A37"/>
<circle cx="1016.14" cy="333.141" r="54.1408" fill="#393A3D"/>
</svg>
