<svg width="1200" height="675" viewBox="0 0 1200 675" fill="none" xmlns="http://www.w3.org/2000/svg">
<g clip-path="url(#clip0_3_3)">
<rect width="1200" height="675" fill="#F4F4EF"/>
<rect x="229" y="-105" width="1114" height="877" fill="#FDE68C"/>
<rect x="125" y="83" width="208.271" height="208.271" fill="#FF808C"/>
<circle cx="1183.55" cy="332.553" r="244.66" fill="#FF808C" stroke="#D9D9D9" stroke-width="9.78641"/>
<path d="M606.449 -105C467.423 34.0266 467.264 259.275 606.096 398.106C744.927 536.938 970.176 536.779 1109.2 397.753L1010.62 299.174C926.117 383.68 789.201 383.777 704.813 299.389C620.426 215.001 620.522 78.0855 705.028 -6.421L606.449 -105Z" fill="#393A3D"/>
<path d="M576.754 930.203C715.39 791.567 715.232 566.635 576.4 427.804C437.569 288.972 212.637 288.814 74.001 427.45L172.58 526.029C256.849 441.76 393.572 441.856 477.96 526.244C562.348 610.632 562.444 747.355 478.175 831.624L576.754 930.203Z" fill="#B61A37"/>
<circle cx="333.141" cy="636.141" r="54.1408" fill="#FF808C"/>
</g>
<defs>
<clipPath id="clip0_3_3">
<rect width="1200" height="675" fill="white"/>
</clipPath>
</defs>
</svg>
