<svg width="1200" height="675" viewBox="0 0 1200 675" fill="none" xmlns="http://www.w3.org/2000/svg">
<g clip-path="url(#clip0_3_138)">
<rect width="1200" height="675" fill="#FDE68C"/>
<rect x="522" y="-212" width="922" height="922" fill="#F4F4EF"/>
<rect x="287" y="414" width="89.2705" height="89.2705" fill="#B61A37"/>
<rect x="414" y="414" width="89.2705" height="89.2705" fill="#B61A37"/>
<rect x="541" y="414" width="89.2705" height="89.2705" fill="#B61A37"/>
<rect x="668" y="414" width="89.2705" height="89.2705" fill="#B61A37"/>
<path fill-rule="evenodd" clip-rule="evenodd" d="M970.118 0C973.078 9.51858 977.357 18.9563 982.952 28.2407L1010.24 73.5363C1032.19 109.922 1032.19 148.887 1010.24 185.3L982.952 230.594C959.187 269.998 959.189 312.193 982.952 351.62L1010.24 396.916C1032.19 433.302 1032.19 472.266 1010.24 508.679L982.952 553.974C959.187 593.378 959.188 635.572 982.952 675L1011.97 670.368C990.02 633.956 990.02 594.992 1011.97 558.606L1039.26 513.309C1063.02 473.881 1063.02 431.687 1039.26 392.281L1011.97 346.989C990.02 310.576 990.022 271.61 1011.97 235.224L1039.26 189.93C1063.02 150.501 1063.02 108.307 1039.26 68.9019L1011.97 23.609C1007.28 15.839 1003.6 7.95268 1000.92 0H970.118Z" fill="#393A3D"/>
<path fill-rule="evenodd" clip-rule="evenodd" d="M1061.43 0C1064.39 9.51858 1068.67 18.9563 1074.26 28.2407L1101.56 73.5363C1123.5 109.922 1123.5 148.887 1101.55 185.3L1074.26 230.594C1050.5 269.998 1050.5 312.193 1074.26 351.62L1101.56 396.916C1123.5 433.302 1123.5 472.266 1101.55 508.679L1074.26 553.974C1050.5 593.378 1050.5 635.572 1074.26 675L1103.28 670.368C1081.33 633.956 1081.33 594.992 1103.28 558.606L1130.57 513.309C1154.33 473.881 1154.33 431.687 1130.57 392.281L1103.28 346.989C1081.33 310.576 1081.33 271.61 1103.28 235.224L1130.57 189.93C1154.33 150.501 1154.33 108.307 1130.57 68.9019L1103.28 23.609C1098.6 15.839 1094.91 7.95268 1092.23 0H1061.43Z" fill="#393A3D"/>
<path fill-rule="evenodd" clip-rule="evenodd" d="M1152.74 0C1155.7 9.51858 1159.98 18.9563 1165.57 28.2407L1192.86 73.5363C1214.81 109.922 1214.81 148.887 1192.86 185.3L1165.57 230.594C1141.81 269.998 1141.81 312.193 1165.57 351.62L1192.86 396.916C1214.81 433.302 1214.81 472.266 1192.86 508.679L1165.57 553.974C1141.81 593.378 1141.81 635.572 1165.57 675L1194.59 670.368C1172.64 633.956 1172.64 594.992 1194.59 558.606L1221.88 513.309C1245.64 473.881 1245.64 431.687 1221.88 392.281L1194.59 346.989C1172.64 310.576 1172.64 271.61 1194.59 235.224L1221.88 189.93C1245.64 150.501 1245.64 108.307 1221.88 68.9019L1194.59 23.609C1189.9 15.839 1186.22 7.95268 1183.54 0H1152.74Z" fill="#393A3D"/>
<rect x="287" y="575" width="470" height="470" fill="#393A3D"/>
<path fill-rule="evenodd" clip-rule="evenodd" d="M503 342C727.78 342 910 159.78 910 -65C910 -289.78 727.78 -472 503 -472C278.22 -472 96 -289.78 96 -65C96 159.78 278.22 342 503 342ZM503 182.392C639.631 182.392 750.392 71.6311 750.392 -65C750.392 -201.631 639.631 -312.392 503 -312.392C366.369 -312.392 255.608 -201.631 255.608 -65C255.608 71.6311 366.369 182.392 503 182.392Z" fill="#FF808C"/>
</g>
<defs>
<clipPath id="clip0_3_138">
<rect width="1200" height="675" fill="white"/>
</clipPath>
</defs>
</svg>
