<svg width="1200" height="675" viewBox="0 0 1200 675" fill="none" xmlns="http://www.w3.org/2000/svg">
<g clip-path="url(#clip0_3_67)">
<g filter="url(#filter0_d_3_67)">
<g clip-path="url(#clip1_3_67)">
<rect width="1184" height="666" rx="12" fill="#F4F4EF"/>
<path d="M278.999 158V576.454H697.453L278.999 158Z" fill="#FF808C"/>
<rect width="1328.7" height="678" transform="matrix(-0.707107 -0.707107 -0.707107 0.707107 1645.14 409.75)" fill="#FDE68C"/>
<path fill-rule="evenodd" clip-rule="evenodd" d="M778.51 0C780.592 6.69616 783.602 13.3354 787.538 19.8668L806.737 51.7313C822.175 77.328 822.175 104.739 806.736 130.354L787.538 162.218C770.82 189.938 770.821 219.621 787.538 247.357L806.737 279.222C822.175 304.819 822.175 332.229 806.736 357.845L787.538 389.709C770.82 417.429 770.821 447.111 787.538 474.848L807.949 471.59C792.51 445.974 792.511 418.564 807.949 392.967L827.148 361.102C843.865 333.365 843.866 303.682 827.147 275.962L807.949 244.099C792.51 218.484 792.512 191.072 807.949 165.475L827.148 133.612C843.865 105.875 843.866 76.1919 827.147 48.4711L807.949 16.6086C804.655 11.1425 802.063 5.59459 800.175 0H778.51Z" fill="#393A3D"/>
<path fill-rule="evenodd" clip-rule="evenodd" d="M842.744 0C844.827 6.69616 847.836 13.3354 851.773 19.8668L870.972 51.7313C886.409 77.328 886.41 104.739 870.971 130.354L851.773 162.218C835.055 189.938 835.056 219.621 851.773 247.357L870.972 279.222C886.409 304.819 886.41 332.229 870.971 357.845L851.773 389.709C835.054 417.429 835.055 447.111 851.773 474.848L872.184 471.59C856.744 445.974 856.745 418.564 872.183 392.967L891.382 361.102C908.099 333.365 908.1 303.682 891.381 275.962L872.184 244.099C856.744 218.484 856.746 191.072 872.184 165.475L891.382 133.612C908.099 105.875 908.1 76.1919 891.381 48.4711L872.183 16.6086C868.889 11.1425 866.298 5.59459 864.409 0H842.744Z" fill="#393A3D"/>
<path fill-rule="evenodd" clip-rule="evenodd" d="M906.978 0C909.061 6.69616 912.071 13.3354 916.007 19.8668L935.206 51.7313C950.644 77.328 950.644 104.739 935.205 130.354L916.007 162.218C899.289 189.938 899.29 219.621 916.007 247.357L935.206 279.222C950.644 304.819 950.644 332.229 935.205 357.845L916.007 389.709C899.289 417.429 899.29 447.111 916.007 474.848L936.418 471.59C920.979 445.974 920.979 418.564 936.417 392.967L955.616 361.102C972.334 333.365 972.334 303.682 955.615 275.962L936.418 244.099C920.979 218.484 920.98 191.072 936.418 165.475L955.616 133.612C972.334 105.875 972.334 76.1919 955.615 48.4711L936.418 16.6086C933.123 11.1425 930.532 5.59459 928.643 0H906.978Z" fill="#393A3D"/>
<path fill-rule="evenodd" clip-rule="evenodd" d="M971.213 0C973.295 6.69616 976.305 13.3354 980.242 19.8668L999.44 51.7313C1014.88 77.328 1014.88 104.739 999.439 130.354L980.241 162.218C963.523 189.938 963.524 219.621 980.242 247.357L999.44 279.222C1014.88 304.819 1014.88 332.229 999.439 357.845L980.241 389.709C963.523 417.429 963.524 447.111 980.242 474.848L1000.65 471.59C985.213 445.974 985.214 418.564 1000.65 392.967L1019.85 361.102C1036.57 333.365 1036.57 303.682 1019.85 275.962L1000.65 244.099C985.213 218.484 985.215 191.072 1000.65 165.475L1019.85 133.612C1036.57 105.875 1036.57 76.1919 1019.85 48.4711L1000.65 16.6086C997.358 11.1425 994.766 5.59459 992.878 0H971.213Z" fill="#393A3D"/>
<path fill-rule="evenodd" clip-rule="evenodd" d="M1035.45 0C1037.53 6.69616 1040.54 13.3354 1044.48 19.8668L1063.67 51.7313C1079.11 77.328 1079.11 104.739 1063.67 130.354L1044.48 162.218C1027.76 189.938 1027.76 219.621 1044.48 247.357L1063.67 279.222C1079.11 304.819 1079.11 332.229 1063.67 357.845L1044.48 389.709C1027.76 417.429 1027.76 447.111 1044.48 474.848L1064.89 471.59C1049.45 445.974 1049.45 418.564 1064.89 392.967L1084.09 361.102C1100.8 333.365 1100.8 303.682 1084.08 275.962L1064.89 244.099C1049.45 218.484 1049.45 191.072 1064.89 165.475L1084.09 133.612C1100.8 105.875 1100.8 76.1919 1084.08 48.4711L1064.89 16.6086C1061.59 11.1425 1059 5.59459 1057.11 0H1035.45Z" fill="#393A3D"/>
<rect x="489" y="125" width="208.271" height="208.271" fill="#B61A37"/>
</g>
</g>
</g>
<defs>
<filter id="filter0_d_3_67" x="-16" y="-12" width="1216" height="698" filterUnits="userSpaceOnUse" color-interpolation-filters="sRGB">
<feFlood flood-opacity="0" result="BackgroundImageFix"/>
<feColorMatrix in="SourceAlpha" type="matrix" values="0 0 0 0 0 0 0 0 0 0 0 0 0 0 0 0 0 0 127 0" result="hardAlpha"/>
<feOffset dy="4"/>
<feGaussianBlur stdDeviation="8"/>
<feColorMatrix type="matrix" values="0 0 0 0 0 0 0 0 0 0 0 0 0 0 0 0 0 0 0.2 0"/>
<feBlend mode="normal" in2="BackgroundImageFix" result="effect1_dropShadow_3_67"/>
<feBlend mode="normal" in="SourceGraphic" in2="effect1_dropShadow_3_67" result="shape"/>
</filter>
<clipPath id="clip0_3_67">
<rect width="1200" height="675" fill="white"/>
</clipPath>
<clipPath id="clip1_3_67">
<rect width="1184" height="666" rx="12" fill="white"/>
</clipPath>
</defs>
</svg>
