<svg width="1200" height="675" viewBox="0 0 1200 675" fill="none" xmlns="http://www.w3.org/2000/svg">
<g clip-path="url(#clip0_3_10)">
<rect width="1200" height="675" fill="#F4F4EF"/>
<rect x="172" y="333" width="839" height="326" rx="44" fill="#FDE68C"/>
<circle cx="195.897" cy="104.897" r="21.2419" fill="#B61A37" stroke="#D9D9D9" stroke-width="5.31048"/>
<circle cx="270.245" cy="104.897" r="21.2419" fill="#393A3D" stroke="#D9D9D9" stroke-width="5.31048"/>
<circle cx="344.592" cy="104.897" r="21.2419" fill="#B61A37" stroke="#D9D9D9" stroke-width="5.31048"/>
<circle cx="418.936" cy="104.897" r="21.2419" fill="#393A3D" stroke="#D9D9D9" stroke-width="5.31048"/>
<circle cx="493.284" cy="104.897" r="21.2419" fill="#B61A37" stroke="#D9D9D9" stroke-width="5.31048"/>
<circle cx="567.632" cy="104.897" r="21.2419" fill="#393A3D" stroke="#D9D9D9" stroke-width="5.31048"/>
<path fill-rule="evenodd" clip-rule="evenodd" d="M1040.5 550C1272.74 550 1461 361.736 1461 129.5C1461 -102.736 1272.74 -291 1040.5 -291C808.264 -291 620 -102.736 620 129.5C620 361.736 808.264 550 1040.5 550ZM1040.5 385.098C1181.66 385.098 1296.1 270.663 1296.1 129.5C1296.1 -11.6631 1181.66 -126.098 1040.5 -126.098C899.337 -126.098 784.902 -11.6631 784.902 129.5C784.902 270.663 899.337 385.098 1040.5 385.098Z" fill="#393A3D"/>
<path d="M67.6038 665.522L308.89 244.4L552.95 667.124L67.6038 665.522Z" fill="#FF808C"/>
<path d="M1163.8 6.59766C1096.09 -61.1117 986.309 -61.1117 918.6 6.59766C850.89 74.307 850.89 184.086 918.6 251.795L966.678 203.717C925.521 162.56 925.521 95.8323 966.678 54.6756C1007.83 13.5188 1074.56 13.5188 1115.72 54.6756L1163.8 6.59766Z" fill="#FF808C"/>
<path d="M919 252.195C986.709 319.905 1096.49 319.905 1164.2 252.195C1231.91 184.486 1231.91 74.7074 1164.2 6.99805L1116.12 55.0759C1157.28 96.2327 1157.28 162.961 1116.12 204.117C1074.96 245.274 1008.23 245.274 967.078 204.117L919 252.195Z" fill="#B61A37"/>
<circle cx="706.897" cy="611.897" r="21.2419" fill="#B61A37" stroke="#D9D9D9" stroke-width="5.31048"/>
<circle cx="781.245" cy="611.897" r="21.2419" fill="#393A3D" stroke="#D9D9D9" stroke-width="5.31048"/>
<circle cx="855.592" cy="611.897" r="21.2419" fill="#B61A37" stroke="#D9D9D9" stroke-width="5.31048"/>
<circle cx="929.936" cy="611.897" r="21.2419" fill="#393A3D" stroke="#D9D9D9" stroke-width="5.31048"/>
<circle cx="1004.28" cy="611.897" r="21.2419" fill="#B61A37" stroke="#D9D9D9" stroke-width="5.31048"/>
<circle cx="1078.63" cy="611.897" r="21.2419" fill="#393A3D" stroke="#D9D9D9" stroke-width="5.31048"/>
</g>
<defs>
<clipPath id="clip0_3_10">
<rect width="1200" height="675" fill="white"/>
</clipPath>
</defs>
</svg>
