<svg width="1200" height="675" viewBox="0 0 1200 675" fill="none" xmlns="http://www.w3.org/2000/svg">
<g clip-path="url(#clip0_3_278)">
<rect width="1200" height="675" fill="#F4F4EF"/>
<rect x="402" width="782" height="670" fill="#FDE68C"/>
<path fill-rule="evenodd" clip-rule="evenodd" d="M730 576C863.101 576 971 468.101 971 335C971 201.899 863.101 94 730 94C596.899 94 489 201.899 489 335C489 468.101 596.899 576 730 576ZM730 481.49C810.904 481.49 876.49 415.904 876.49 335C876.49 254.096 810.904 188.51 730 188.51C649.096 188.51 583.51 254.096 583.51 335C583.51 415.904 649.096 481.49 730 481.49Z" fill="#FF808C"/>
<path d="M401.893 38.9989L106.002 334.891L401.893 630.782V38.9989Z" fill="#B61A37"/>
<rect x="1034" y="130" width="210.971" height="27.1021" fill="#B61A37"/>
<rect x="1034" y="184.203" width="210.971" height="27.1021" fill="#B61A37"/>
<rect x="1034" y="238.41" width="210.971" height="27.1021" fill="#B61A37"/>
<rect x="1034" y="292.613" width="210.971" height="27.1021" fill="#B61A37"/>
<rect x="1034" y="346.816" width="210.971" height="27.1021" fill="#B61A37"/>
<rect x="1034" y="401.02" width="210.971" height="27.1021" fill="#B61A37"/>
<rect x="1034" y="455.227" width="210.971" height="27.1021" fill="#B61A37"/>
<rect x="1034" y="509.43" width="210.971" height="27.1021" fill="#B61A37"/>
<circle cx="730.141" cy="333.14" r="54.1408" transform="rotate(-90 730.141 333.14)" fill="#393A3D"/>
</g>
<defs>
<clipPath id="clip0_3_278">
<rect width="1200" height="675" fill="white"/>
</clipPath>
</defs>
</svg>
