<svg width="1184" height="666" viewBox="0 0 1184 666" fill="none" xmlns="http://www.w3.org/2000/svg">
<g clip-path="url(#clip0_1_14311)">
<rect width="1184" height="666" fill="#F4F4EF"/>
<path d="M592 98V333H357L592 98Z" fill="#B61A37"/>
<path d="M592 568L592 333L827 333L592 568Z" fill="#B61A37"/>
<path d="M592 98V333H827L592 98Z" fill="#FF808C"/>
<path d="M592 568L592 333L357 333L592 568Z" fill="#FF808C"/>
<rect width="592" height="670" fill="#FDE68C"/>
<path d="M592 98V333H357L592 98Z" fill="#B61A37"/>
<path d="M592 568L592 333L827 333L592 568Z" fill="#B61A37"/>
<path d="M592 98V333H827L592 98Z" fill="#FF808C"/>
<path d="M592 568L592 333L357 333L592 568Z" fill="#FF808C"/>
<path d="M927 233V333H1027L927 233Z" fill="#B61A37"/>
<path d="M927 433L927 333L827 333L927 433Z" fill="#B61A37"/>
<path d="M927 233V333H827L927 233Z" fill="#FF808C"/>
<path d="M927 433L927 333L1027 333L927 433Z" fill="#FF808C"/>
<path d="M257 233V333H357L257 233Z" fill="#B61A37"/>
<path d="M257 433L257 333L157 333L257 433Z" fill="#B61A37"/>
<path d="M257 233V333H157L257 233Z" fill="#FF808C"/>
<path d="M257 433L257 333L357 333L257 433Z" fill="#FF808C"/>
</g>
<defs>
<clipPath id="clip0_1_14311">
<rect width="1184" height="666" fill="white"/>
</clipPath>
</defs>
</svg>
