<svg width="1184" height="666" viewBox="0 0 1184 666" fill="none" xmlns="http://www.w3.org/2000/svg">
<g clip-path="url(#clip0_1_14297)">
<rect width="1184" height="666" fill="#FDE68C"/>
<rect width="592" height="670" fill="#F4F4EF"/>
<path d="M571.454 124V542.454H153L571.454 124Z" fill="#FF808C"/>
<path d="M571.453 123.999L152.999 123.999L152.999 542.453L571.453 123.999Z" fill="#BABEC5"/>
<path d="M571.454 125V543.454H153L571.454 125Z" fill="#FF808C"/>
<path d="M571.453 124.999L152.999 124.999L152.999 543.453L571.453 124.999Z" fill="#B61A37"/>
<path d="M611.999 124.363V542.817H1030.45L611.999 124.363Z" fill="#B61A37"/>
<path d="M1030.45 542.453V123.999H612L1030.45 542.453Z" fill="#BABEC5"/>
<path d="M611.999 125.363V543.817H1030.45L611.999 125.363Z" fill="#B61A37"/>
<path d="M1030.45 543.453V124.999H612L1030.45 543.453Z" fill="#FF808C"/>
</g>
<defs>
<clipPath id="clip0_1_14297">
<rect width="1184" height="666" fill="white"/>
</clipPath>
</defs>
</svg>
