<svg width="1184" height="666" viewBox="0 0 1184 666" fill="none" xmlns="http://www.w3.org/2000/svg">
<g clip-path="url(#clip0_1_14218)">
<rect width="1184" height="666" fill="#FDE68C"/>
<rect x="522" y="-212" width="922" height="922" fill="#F4F4EF"/>
<rect x="287" y="414" width="89.2705" height="89.2705" fill="#B61A37"/>
<rect x="414" y="414" width="89.2705" height="89.2705" fill="#B61A37"/>
<rect x="541" y="414" width="89.2705" height="89.2705" fill="#B61A37"/>
<rect x="668" y="414" width="89.2705" height="89.2705" fill="#B61A37"/>
<path fill-rule="evenodd" clip-rule="evenodd" d="M957.184 0C960.105 9.39173 964.326 18.7037 969.848 27.8643L996.775 72.556C1018.43 108.457 1018.43 146.902 996.774 182.829L969.847 227.519C946.399 266.399 946.401 308.03 969.848 346.932L996.775 391.624C1018.43 427.525 1018.43 465.97 996.774 501.897L969.847 546.587C946.399 585.467 946.4 627.098 969.848 666L998.475 661.43C976.821 625.503 976.821 587.058 998.474 551.158L1025.4 506.465C1048.85 467.563 1048.85 425.931 1025.4 387.051L998.475 342.362C976.821 306.435 976.823 267.988 998.475 232.088L1025.4 187.398C1048.85 148.495 1048.85 106.863 1025.4 67.9833L998.475 23.2944C993.854 15.6279 990.219 7.84671 987.571 0H957.184Z" fill="#393A3D"/>
<path fill-rule="evenodd" clip-rule="evenodd" d="M1047.28 0C1050.2 9.39173 1054.42 18.7037 1059.95 27.8643L1086.87 72.556C1108.52 108.457 1108.53 146.902 1086.87 182.829L1059.94 227.519C1036.5 266.399 1036.5 308.03 1059.95 346.932L1086.87 391.624C1108.52 427.525 1108.53 465.97 1086.87 501.897L1059.94 546.587C1036.5 585.467 1036.5 627.098 1059.95 666L1088.57 661.43C1066.92 625.503 1066.92 587.058 1088.57 551.158L1115.5 506.465C1138.95 467.563 1138.95 425.931 1115.5 387.051L1088.57 342.362C1066.92 306.435 1066.92 267.988 1088.57 232.088L1115.5 187.398C1138.95 148.495 1138.95 106.863 1115.5 67.9833L1088.57 23.2944C1083.95 15.6279 1080.32 7.84671 1077.67 0H1047.28Z" fill="#393A3D"/>
<path fill-rule="evenodd" clip-rule="evenodd" d="M1137.37 0C1140.29 9.39173 1144.51 18.7037 1150.04 27.8643L1176.96 72.556C1198.61 108.457 1198.62 146.902 1176.96 182.829L1150.03 227.519C1126.59 266.399 1126.59 308.03 1150.04 346.932L1176.96 391.624C1198.61 427.525 1198.62 465.97 1176.96 501.897L1150.03 546.587C1126.59 585.467 1126.59 627.098 1150.04 666L1178.66 661.43C1157.01 625.503 1157.01 587.058 1178.66 551.158L1205.59 506.465C1229.04 467.563 1229.04 425.931 1205.59 387.051L1178.66 342.362C1157.01 306.435 1157.01 267.988 1178.66 232.088L1205.59 187.398C1229.04 148.495 1229.04 106.863 1205.59 67.9833L1178.66 23.2944C1174.04 15.6279 1170.41 7.84671 1167.76 0H1137.37Z" fill="#393A3D"/>
<rect x="287" y="575" width="470" height="470" fill="#393A3D"/>
<path fill-rule="evenodd" clip-rule="evenodd" d="M503 342C727.78 342 910 159.78 910 -65C910 -289.78 727.78 -472 503 -472C278.22 -472 96 -289.78 96 -65C96 159.78 278.22 342 503 342ZM503 182.392C639.631 182.392 750.392 71.6311 750.392 -65C750.392 -201.631 639.631 -312.392 503 -312.392C366.369 -312.392 255.608 -201.631 255.608 -65C255.608 71.6311 366.369 182.392 503 182.392Z" fill="#FF808C"/>
</g>
<defs>
<clipPath id="clip0_1_14218">
<rect width="1184" height="666" fill="white"/>
</clipPath>
</defs>
</svg>
