<svg width="1200" height="675" viewBox="0 0 1200 675" fill="none" xmlns="http://www.w3.org/2000/svg">
<g clip-path="url(#clip0_3_229)">
<rect width="1200" height="675" fill="#F4F4EF"/>
<rect y="337" width="1184" height="326" fill="#FDE68C"/>
<path d="M925 873.281C925 689.371 775.687 540.281 591.5 540.281C407.313 540.281 258 689.371 258 873.281L925 873.281Z" fill="#393A3D"/>
<path d="M389 337.281C389 449.395 480.11 540.281 592.5 540.281C704.89 540.281 796 449.395 796 337.281L389 337.281Z" fill="#FF808C"/>
<path d="M796 338C796 225.334 704.666 134 592 134C479.334 134 388 225.334 388 338L468 338C468 269.517 523.517 214 592 214C660.483 214 716 269.517 716 338L796 338Z" fill="#B61A37"/>
<circle cx="592.141" cy="67.1405" r="54.1408" transform="rotate(-90 592.141 67.1405)" fill="#393A3D"/>
<path d="M-62 659C115.836 659 260 514.836 260 337C260 159.164 115.836 15 -62 15L-62 141.275C46.0963 141.275 133.725 228.904 133.725 337C133.725 445.096 46.0963 532.725 -62 532.725L-62 659Z" fill="#FF808C"/>
<path d="M1247 644C1069.16 644 925 499.836 925 322C925 144.164 1069.16 -5.86609e-06 1247 1.90735e-06L1247 126.275C1138.9 126.275 1051.27 213.904 1051.27 322C1051.27 430.096 1138.9 517.725 1247 517.725L1247 644Z" fill="#FF808C"/>
</g>
<defs>
<clipPath id="clip0_3_229">
<rect width="1200" height="675" fill="white"/>
</clipPath>
</defs>
</svg>
