<svg width="1200" height="675" viewBox="0 0 1200 675" fill="none" xmlns="http://www.w3.org/2000/svg">
<g clip-path="url(#clip0_3_210)">
<rect width="1200" height="675" fill="#FDE68C"/>
<path d="M155.816 333L399.876 752.521H-88.2438L155.816 333Z" fill="#B61A37"/>
<path d="M984.816 333L1228.88 752.521H740.756L984.816 333Z" fill="#B61A37"/>
<path d="M327.908 -104.939L813.254 -106.54L569.194 316.184L327.908 -104.939Z" fill="#FF808C"/>
<circle cx="570" cy="673" r="40" transform="rotate(-180 570 673)" fill="#393A3D"/>
<circle cx="570" cy="557" r="36" transform="rotate(-180 570 557)" fill="#393A3D"/>
<circle cx="570" cy="453" r="28" transform="rotate(-180 570 453)" fill="#393A3D"/>
<circle cx="570" cy="367" r="18" transform="rotate(-180 570 367)" fill="#393A3D"/>
<circle cx="147" cy="64" r="36" fill="#393A3D"/>
<circle cx="147" cy="168" r="28" fill="#393A3D"/>
<circle cx="147" cy="254" r="18" fill="#393A3D"/>
<circle cx="985" cy="64" r="36" fill="#393A3D"/>
<circle cx="985" cy="168" r="28" fill="#393A3D"/>
<circle cx="985" cy="254" r="18" fill="#393A3D"/>
</g>
<defs>
<clipPath id="clip0_3_210">
<rect width="1200" height="675" fill="white"/>
</clipPath>
</defs>
</svg>
