<svg width="1184" height="666" viewBox="0 0 1184 666" fill="none" xmlns="http://www.w3.org/2000/svg">
<g clip-path="url(#clip0_1_14174)">
<rect width="1184" height="666" fill="#F4F4EF"/>
<rect y="337" width="1184" height="326" fill="#FDE68C"/>
<path d="M925 873.281C925 689.371 775.687 540.281 591.5 540.281C407.313 540.281 258 689.371 258 873.281L925 873.281Z" fill="#393A3D"/>
<path d="M389 337.281C389 449.395 480.11 540.281 592.5 540.281C704.89 540.281 796 449.395 796 337.281L389 337.281Z" fill="#FF808C"/>
<path d="M796 338C796 225.334 704.666 134 592 134C479.334 134 388 225.334 388 338L468 338C468 269.517 523.517 214 592 214C660.483 214 716 269.517 716 338L796 338Z" fill="#B61A37"/>
<circle cx="592.141" cy="67.1405" r="54.1408" transform="rotate(-90 592.141 67.1405)" fill="#393A3D"/>
<path d="M-62 652C115.836 652 260 507.836 260 330C260 152.164 115.836 7.99999 -62 8L-62 134.275C46.0963 134.275 133.725 221.904 133.725 330C133.725 438.096 46.0963 525.725 -62 525.725L-62 652Z" fill="#FF808C"/>
<path d="M1247 652C1069.16 652 925 507.836 925 330C925 152.164 1069.16 7.99999 1247 8L1247 134.275C1138.9 134.275 1051.27 221.904 1051.27 330C1051.27 438.096 1138.9 525.725 1247 525.725L1247 652Z" fill="#FF808C"/>
</g>
<defs>
<clipPath id="clip0_1_14174">
<rect width="1184" height="666" fill="white"/>
</clipPath>
</defs>
</svg>
