<svg width="136" height="74" viewBox="0 0 136 74" fill="none" xmlns="http://www.w3.org/2000/svg">
<g clip-path="url(#clip0_1_397)">
<g clip-path="url(#clip1_1_397)">
<path d="M4.678 42.7935C7.10569 43.0794 9.64791 43.4452 12.0837 43.6115C14.564 43.8289 17.0383 43.7816 19.5316 43.8076L19.5595 44.4584C17.0657 44.7928 14.5262 44.7395 12.0172 44.5922C9.82015 44.4422 7.60739 44.171 5.4825 43.6654C5.1753 43.5964 4.86972 43.5035 4.56414 43.4105L4.678 42.7935Z" fill="#CFE6F0"/>
<path d="M0.151949 44.7911C3.84206 45.2113 7.57181 45.7543 11.2798 45.9114C12.5232 45.9722 13.7698 45.9853 15.0116 46.0701L15.0156 46.7192C13.7592 46.8497 12.5109 46.8606 11.242 46.822C8.10389 46.7519 4.95491 46.4888 1.85417 45.8686C1.30979 45.7593 0.529848 45.5859 0.0125943 45.4305C0.0364748 45.4321 0.151949 44.7911 0.151949 44.7911Z" fill="#CFE6F0"/>
<path d="M34.6866 64.8578L38.5611 68.8045L42.5013 64.8578H34.6866Z" fill="#8D9096"/>
<path d="M73.3333 64.003V64.0688V66.0421H33.9648C29.4993 66.0421 25.8218 64.2661 23.589 62.7532C22.8667 62.2928 22.4727 61.5692 22.5383 60.8456C22.604 60.1879 22.998 59.5959 23.6547 59.267L24.1801 60.5825C24.0487 60.6483 23.8517 60.7799 23.8517 60.9772C23.8517 61.1088 23.9831 61.3719 24.3114 61.5692C26.4128 63.0163 29.8276 64.003 34.0305 64.003H73.3333Z" fill="#FFCA00"/>
<path d="M36.7224 60.3191H73.3333V64.2001H33.5703C29.1047 64.2001 25.4929 62.5556 23.3915 61.3058C22.4721 60.7796 22.6691 59.5298 23.7198 59.2009L24.5735 58.9378C25.1646 58.7405 25.8213 58.7405 26.4123 58.9378C28.054 59.3982 31.7972 60.3191 36.7224 60.3191Z" fill="#6B6C72"/>
<path d="M62.3994 61.9638C62.3994 63.4767 52.3519 63.082 47.1641 63.082C41.9762 63.082 37.839 62.5558 37.839 61.9638C37.839 61.3718 41.9762 60.8456 47.1641 60.8456C52.3519 60.8456 62.3994 60.8456 62.3994 61.9638Z" fill="#4F5661"/>
<path d="M38.5611 74.0015C40.701 74.0015 42.4357 72.264 42.4357 70.1206C42.4357 67.9772 40.701 66.2397 38.5611 66.2397C36.4213 66.2397 34.6866 67.9772 34.6866 70.1206C34.6866 72.264 36.4213 74.0015 38.5611 74.0015Z" fill="#6B6C72"/>
<path fill-rule="evenodd" clip-rule="evenodd" d="M38.5613 69.0347C37.9616 69.0347 37.4766 69.5215 37.4766 70.1206C37.4766 70.7196 37.9616 71.2064 38.5613 71.2064C39.161 71.2064 39.6461 70.7196 39.6461 70.1206C39.6461 69.5215 39.161 69.0347 38.5613 69.0347ZM36.4939 70.1206C36.4939 68.9759 37.4201 68.0491 38.5613 68.0491C39.7025 68.0491 40.6287 68.9759 40.6287 70.1206C40.6287 71.2652 39.7025 72.192 38.5613 72.192C37.4202 72.192 36.4939 71.2652 36.4939 70.1206Z" fill="white"/>
<path d="M58.1705 38.2008C44.7739 37.2142 34.6608 31.1626 17.0614 35.5697C14.8286 36.0959 15.2226 37.4115 21.0016 37.6088C26.7805 37.8062 35.9085 38.2008 44.3799 40.832C50.8155 42.8053 69.0716 42.2791 69.0716 42.2791" fill="#CE9367"/>
<path d="M44.1432 56.3941C44.1432 56.3941 46.376 63.6297 50.2505 63.6297C54.125 63.6297 55.4384 63.6297 55.4384 63.6297C55.4384 63.6297 55.8981 60.3408 52.0893 60.0119C52.0893 60.0119 58.0652 59.0252 58.0652 53.8287L44.1432 49.0269V56.3941" fill="#CE9367"/>
<path d="M26.8064 51.1978C26.8064 51.1978 38.4956 60.3409 51.4981 54.4867C51.4981 54.4867 57.7584 54.8976 73.5556 55.0589V35.7605C66.4083 35.6532 60.1698 35.1641 57.4084 34.8847C50.9071 34.227 39.1523 31.5958 34.6211 39.4234C31.8629 44.2253 28.3168 45.1461 26.0184 45.0804C23.9826 45.0804 22.0125 45.475 20.2394 46.3959L10.98 51.1978C10.98 51.1978 13.1471 55.1445 17.4157 53.8289C21.6185 52.5133 26.8064 51.1978 26.8064 51.1978Z" fill="#CE9367"/>
<path fill-rule="evenodd" clip-rule="evenodd" d="M51.7809 43.2489C51.9923 43.0783 52.3016 43.1118 52.4717 43.3239C53.9357 45.1483 54.5882 46.9069 54.5939 48.544C54.5995 50.1818 53.9574 51.6368 52.945 52.852C51.0753 55.0963 47.9062 56.5741 44.9368 57.0141C44.9618 57.0711 44.9887 57.1316 45.0172 57.1952C45.232 57.6736 45.5437 58.3293 45.9315 59.0386C46.7185 60.4782 47.7767 62.0586 48.9263 62.8767C49.1476 63.0342 49.1997 63.3419 49.0427 63.5638C48.8857 63.7858 48.579 63.838 48.3577 63.6805C47.0118 62.7227 45.8645 60.9659 45.0699 59.5125C44.6668 58.7752 44.3436 58.0953 44.1212 57.5998C44.0099 57.3519 43.9236 57.1495 43.8648 57.0084C43.8354 56.9379 43.8129 56.8826 43.7976 56.8446C43.7899 56.8256 43.784 56.811 43.78 56.8008L43.7754 56.7891L43.7737 56.7849C43.7737 56.7848 43.7735 56.7844 44.2309 56.6044L43.7735 56.7844C43.7173 56.6405 43.7315 56.4785 43.8121 56.3467C43.8927 56.215 44.0303 56.1288 44.1836 56.1139C47.1415 55.8272 50.3857 54.387 52.191 52.22C53.0857 51.146 53.6159 49.909 53.6113 48.5474C53.6066 47.1849 53.0661 45.6365 51.7062 43.9418C51.5361 43.7298 51.5696 43.4196 51.7809 43.2489Z" fill="#4F5661"/>
</g>
</g>
<defs>
<clipPath id="clip0_1_397">
<rect width="136" height="74" fill="white"/>
</clipPath>
<clipPath id="clip1_1_397">
<rect width="73.5902" height="40.0722" fill="white" transform="translate(-0.0346069 33.9293)"/>
</clipPath>
</defs>
</svg>
