<svg width="136" height="74" viewBox="0 0 136 74" fill="none" xmlns="http://www.w3.org/2000/svg">
<path d="M72.2399 4.30112C73.9837 3.65119 77.5524 2.43259 79.0934 3.89491C79.6206 4.50422 79.5394 5.35724 79.1745 6.04778L78.3634 5.15414C79.7828 4.58546 81.2832 4.01678 82.8242 4.38236C84.0408 4.70732 84.3247 6.00716 83.9597 7.06328C83.8381 7.55072 83.1081 7.38824 83.1487 6.9008C83.2703 5.84468 83.027 5.31662 81.8915 5.39786C80.8777 5.4791 79.8233 5.84468 78.8906 6.2915C78.404 6.53522 77.7957 5.96654 78.0795 5.4791C78.1606 5.276 78.3229 4.95104 78.1606 4.74794C77.674 4.38236 76.9035 4.4636 76.2952 4.4636C74.9975 4.58546 73.7404 4.8698 72.4427 5.0729C71.9966 5.19476 71.7938 4.50422 72.2399 4.30112Z" fill="#CFE6F0"/>
</svg>
