<svg width="136" height="74" viewBox="0 0 136 74" fill="none" xmlns="http://www.w3.org/2000/svg">
<path d="M70.9016 7.87561C71.7937 7.42879 72.8481 7.10383 73.8619 7.26631C74.7541 7.38817 75.2002 8.32243 74.7541 9.09421L73.943 8.20057C74.9568 7.75375 77.1873 7.22569 77.2278 8.93173C77.2278 9.13483 77.1467 9.29731 77.1061 9.45979C76.9439 9.90662 76.2951 9.78476 76.2951 9.33793C76.2951 9.13483 76.214 8.85049 76.1734 8.89111C75.849 8.85049 75.484 8.93173 75.1596 9.05359C74.9163 9.13483 74.673 9.25669 74.4702 9.33793L73.6592 8.44429C73.6592 8.44429 73.6592 8.40367 73.6592 8.36305V8.40367C73.6592 8.40367 73.6592 8.44429 73.6997 8.44429C73.6997 8.44429 73.7403 8.44429 73.6997 8.44429C72.9698 8.24119 71.8748 8.60677 71.0638 8.60677C70.6582 8.68801 70.496 8.03809 70.9016 7.87561Z" fill="#CFE6F0"/>
</svg>
