<svg width="136" height="74" viewBox="0 0 136 74" fill="none" xmlns="http://www.w3.org/2000/svg">
<g clip-path="url(#clip0_1_397)">
<path d="M135.79 31.5964C135.198 31.4647 134.705 31.1025 134.212 30.7733C133.489 30.2795 132.766 29.7856 131.714 29.8185C131.123 29.8515 130.86 30.2136 130.696 30.477C130.465 30.8062 130.334 30.9379 130.038 30.905C129.677 30.905 129.019 30.4112 128.428 29.9832C127.54 29.3576 126.521 28.6004 125.47 28.5346C124.845 28.5017 123.99 28.6333 123.465 29.5881C123.169 30.1148 123.07 30.7075 123.004 31.2342C122.972 31.3001 122.906 31.4317 122.676 31.5634C122.479 31.6951 122.216 31.761 122.018 31.7939C121.394 31.7939 120.835 31.7939 120.276 31.7939C120.079 31.7939 119.882 31.9256 119.882 32.0902C119.882 32.2548 120.046 32.3865 120.276 32.3865C120.276 32.3865 120.967 32.3865 122.018 32.3865H122.051H122.084C123.563 32.3865 125.765 32.3865 127.967 32.3536C135.987 32.2877 136.02 32.2219 136.086 31.9256C136.119 31.8268 136.053 31.6622 135.79 31.5964Z" fill="#CFE6F0"/>
</g>
<defs>
<clipPath id="clip0_1_397">
<rect width="136" height="74" fill="white"/>
</clipPath>
</defs>
</svg>
