<svg width="136" height="74" viewBox="0 0 136 74" fill="none" xmlns="http://www.w3.org/2000/svg">
<g clip-path="url(#clip0_1_397)">
<path d="M104.79 64.8578L100.85 68.8045L96.9753 64.8578H104.79Z" fill="#8D9096"/>
<path d="M115.428 60.7141L115.954 59.3986C116.61 59.7275 117.005 60.3195 117.005 60.9772C117.07 61.7008 116.676 62.4244 115.954 62.8848C113.655 64.3319 110.044 66.1079 105.512 66.1079H73.3668V64.0688H105.578C109.847 64.0688 113.261 63.0821 115.363 61.7008C115.625 61.5035 115.757 61.2403 115.757 61.1088C115.757 60.9115 115.56 60.7799 115.428 60.7141Z" fill="#FFCA00"/>
<path d="M114.903 58.9378L115.756 59.2009C116.873 59.5956 117.004 60.7796 116.085 61.3058C113.983 62.5556 110.371 64.2001 105.906 64.2001H73.3668V60.3191H102.754C107.679 60.3191 111.422 59.3982 113.064 58.9378C113.655 58.7405 114.312 58.7405 114.903 58.9378Z" fill="#6B6C72"/>
<path d="M90.671 63.4106C95.2045 63.4106 98.8797 62.9099 98.8797 62.2924C98.8797 61.6748 95.2045 61.1741 90.671 61.1741C86.1374 61.1741 82.4623 61.6748 82.4623 62.2924C82.4623 62.9099 86.1374 63.4106 90.671 63.4106Z" fill="#4F5661"/>
<path d="M100.85 74.0015C102.99 74.0015 104.724 72.264 104.724 70.1206C104.724 67.9772 102.99 66.2397 100.85 66.2397C98.71 66.2397 96.9753 67.9772 96.9753 70.1206C96.9753 72.264 98.71 74.0015 100.85 74.0015Z" fill="#6B6C72"/>
<path fill-rule="evenodd" clip-rule="evenodd" d="M100.849 69.0347C100.249 69.0347 99.7643 69.5215 99.7643 70.1206C99.7643 70.7196 100.249 71.2064 100.849 71.2064C101.449 71.2064 101.934 70.7196 101.934 70.1206C101.934 69.5215 101.449 69.0347 100.849 69.0347ZM98.7817 70.1206C98.7817 68.9759 99.7079 68.0491 100.849 68.0491C101.99 68.0491 102.916 68.9759 102.916 70.1206C102.916 71.2652 101.99 72.192 100.849 72.192C99.7079 72.192 98.7817 71.2652 98.7817 70.1206Z" fill="white"/>
<path d="M105.103 28.2226C102.871 27.8551 100.961 26.8697 99.5314 25.3813C98.4036 24.1824 97.0098 23.4228 95.3315 23.1621C95.0753 23.1477 94.8376 23.0738 94.5815 23.0594C94.1286 23.0492 93.6348 22.9609 93.2004 22.8911C89.3499 22.2813 86.3386 20.4316 84.7056 17.7054C84.3179 17.0629 84.2047 16.3752 84.407 15.7203C84.5499 15.047 84.99 14.466 85.6311 14.0781C86.1943 13.7311 86.8212 13.5998 87.4339 13.725C88.1839 13.8277 88.883 14.306 89.2707 14.9485C90.0872 16.3117 91.8787 17.2601 94.1103 17.6276C94.4258 17.6605 94.7414 17.6933 95.057 17.7262C95.432 17.7775 95.8848 17.7878 96.2598 17.8391C99.1819 18.2908 101.65 19.58 103.586 21.7479C104.17 22.3863 105.025 22.7825 106.013 22.9591C106.941 23.1172 108.002 23.0556 109.256 22.7929C109.59 22.7662 109.864 22.721 110.18 22.7539C111.305 22.9079 112.15 23.7578 112.39 24.8766C112.658 26.33 111.763 27.7485 110.313 28.0153C108.373 28.391 106.644 28.5059 105.103 28.2226Z" fill="#CE9367"/>
<path d="M104.264 46.6374C104.264 46.6374 114.64 48.6108 112.079 54.4651C109.518 60.3193 106.234 58.346 106.234 58.346L107.548 54.4651C107.548 54.4651 106.431 54.0704 99.7331 51.1761C95.2019 49.2686 98.4197 44.6641 104.264 46.6374Z" fill="#CE9367"/>
<path fill-rule="evenodd" clip-rule="evenodd" d="M101.233 52.5461C101.312 52.2856 101.586 52.1384 101.846 52.2173L107.69 53.9934C107.95 54.0723 108.097 54.3474 108.018 54.6079C107.939 54.8683 107.665 55.0155 107.405 54.9366L101.561 53.1606C101.301 53.0817 101.154 52.8066 101.233 52.5461Z" fill="#4F5661"/>
<path d="M126.329 36.2443C130.729 35.7181 135.195 33.3501 135.851 30.982C136.114 30.1927 135.917 29.4691 135.195 28.6798C134.275 27.6931 132.699 27.3642 130.729 27.1669C126.526 26.838 121.01 25.3909 115.297 23.1544C106.825 19.8655 103.279 26.5091 97.0405 32.6265C94.2451 35.3509 83.2689 35.9058 73.589 35.7605V55.0589C77.4435 55.0982 82.2839 55.1227 87.2558 55.1227C112.604 55.1227 112.013 40.783 112.013 40.783C115.953 40.5199 119.828 36.3759 119.828 36.3759C119.828 36.3759 120.485 36.9021 126.329 36.2443Z" fill="#CE9367"/>
<path d="M86.0739 54.4645C88.044 57.7535 87.3873 62.2922 87.3873 62.2922H95.1363C95.1363 62.2922 96.4497 59.661 91.9185 59.0032C91.9185 59.0032 99.0765 57.6877 97.7631 49.8601C96.4497 42.0324 82.7904 47.2947 86.0739 54.4645Z" fill="#CE9367"/>
<path fill-rule="evenodd" clip-rule="evenodd" d="M108.401 53.3549C108.65 53.4636 108.763 53.7539 108.655 54.0035L106.685 58.5422C106.577 58.7917 106.287 58.9059 106.038 58.7973C105.79 58.6887 105.676 58.3983 105.784 58.1488L107.754 53.61C107.862 53.3605 108.152 53.2463 108.401 53.3549Z" fill="#4F5661"/>
<path d="M111.784 40.898C112.9 45.7656 117.628 43.5949 117.628 43.5949C117.628 43.5949 115.724 38.9247 111.784 40.898Z" fill="#53C27C"/>
<path fill-rule="evenodd" clip-rule="evenodd" d="M114.057 28.4671C113.681 28.6083 113.227 29.1649 113.227 30.39C113.227 30.6622 113.007 30.8828 112.735 30.8828C112.464 30.8828 112.244 30.6622 112.244 30.39C112.244 28.9841 112.775 27.8962 113.712 27.5441C114.675 27.1825 115.708 27.7207 116.427 28.8009C116.578 29.0272 116.517 29.3332 116.292 29.4843C116.066 29.6354 115.761 29.5744 115.61 29.3481C115.016 28.4549 114.407 28.3353 114.057 28.4671Z" fill="#4F5661"/>
<path d="M136.039 30.942C132.493 31.3367 130.917 30.7447 130.917 27.1926C132.887 27.39 134.463 27.7188 135.382 28.7055C136.105 29.4291 136.302 30.1526 136.039 30.942Z" fill="#4F5661"/>
<path fill-rule="evenodd" clip-rule="evenodd" d="M135.638 30.5261C135.897 30.6079 136.04 30.8846 135.959 31.1442L135.49 30.9961C135.959 31.1442 135.959 31.1445 135.958 31.1449L135.958 31.1458L135.958 31.1478L135.956 31.1532L135.951 31.1687C135.946 31.1812 135.94 31.198 135.933 31.2187C135.917 31.2601 135.895 31.3175 135.864 31.3889C135.802 31.5315 135.707 31.7301 135.567 31.9681C135.288 32.4444 134.832 33.0783 134.119 33.7381C132.686 35.0627 130.244 36.4645 126.178 36.9358L126.177 36.9359C122.635 37.3414 119.681 36.6493 117.614 35.8556C116.58 35.4587 115.766 35.0359 115.208 34.7104C114.929 34.5476 114.714 34.4089 114.567 34.3098C114.493 34.2602 114.436 34.2204 114.397 34.1925C114.378 34.1785 114.363 34.1674 114.352 34.1596L114.339 34.1502L114.335 34.1473L114.334 34.1463L114.334 34.146C114.333 34.1458 114.333 34.1457 114.629 33.7525L114.333 34.1457C114.117 33.9816 114.074 33.6726 114.237 33.4554C114.401 33.2384 114.709 33.1953 114.925 33.359L114.925 33.3591C114.925 33.3591 114.925 33.3592 114.926 33.3593L114.926 33.3599L114.934 33.3654C114.941 33.3706 114.952 33.379 114.968 33.3904C115 33.413 115.049 33.4473 115.114 33.4915C115.245 33.5797 115.443 33.707 115.702 33.8584C116.222 34.1613 116.988 34.5599 117.965 34.9351C119.92 35.6856 122.713 36.3404 126.066 35.9567C129.945 35.507 132.187 34.1838 133.453 33.0135C134.088 32.4259 134.485 31.87 134.72 31.4683C134.838 31.2673 134.916 31.1048 134.963 30.9962C134.986 30.9419 135.002 30.9011 135.012 30.8757C135.016 30.863 135.019 30.8542 135.021 30.8495L135.022 30.8468L135.022 30.8474C135.022 30.8468 135.022 30.8463 135.022 30.8458C135.105 30.5876 135.38 30.4445 135.638 30.5261Z" fill="#4F5661"/>
<path d="M97.0412 32.6924C91.2623 32.9555 89.2517 31.366 82.7504 32.0238C76.2491 32.6815 84.4983 32.8239 87.9788 36.9022C91.3936 40.9804 97.7636 47.1636 106.169 46.3085C114.575 45.4534 112.868 40.7173 112.868 40.7173C112.868 40.7173 106.104 41.5067 97.0412 32.6924Z" fill="#53C27C"/>
<path fill-rule="evenodd" clip-rule="evenodd" d="M85.2825 35.2244C85.4161 34.9875 85.7159 34.9041 85.9521 35.0381L85.7102 35.467C85.9521 35.0381 85.9522 35.0382 85.9524 35.0383L85.9527 35.0385L85.9535 35.0389L85.9552 35.0399L85.9598 35.0426L85.9734 35.0506C85.9844 35.0571 85.9993 35.0662 86.0179 35.0779C86.0552 35.1013 86.1077 35.1354 86.1749 35.1818C86.3092 35.2746 86.5023 35.4164 86.7501 35.6201C87.2444 36.0264 87.9565 36.6787 88.8551 37.6781C92.6535 41.5691 97.9685 46.3261 106.201 45.7508L106.202 45.7508C108.121 45.6204 109.327 45.4258 110.045 45.2678C110.404 45.1888 110.639 45.1193 110.779 45.0722C110.849 45.0486 110.895 45.0307 110.921 45.0202C110.934 45.0149 110.942 45.0114 110.945 45.01C110.945 45.0099 110.945 45.0097 110.946 45.0096C111.187 44.892 111.479 44.9912 111.599 45.2329C111.721 45.4764 111.622 45.7724 111.379 45.894L111.16 45.4531C111.379 45.894 111.379 45.8941 111.379 45.8943L111.378 45.8946L111.377 45.8952L111.374 45.8965L111.368 45.8997C111.363 45.9021 111.357 45.9049 111.35 45.9081C111.335 45.9145 111.317 45.9227 111.293 45.9323C111.247 45.9515 111.18 45.9768 111.091 46.0067C110.913 46.0664 110.644 46.1449 110.256 46.2304C109.48 46.4013 108.224 46.6013 106.268 46.7341C97.5631 47.3422 91.9695 42.278 88.1459 38.3603C88.1411 38.3555 88.1365 38.3505 88.132 38.3455C87.2607 37.3758 86.5818 36.756 86.1272 36.3824C85.9 36.1956 85.7288 36.0704 85.6176 35.9936C85.5621 35.9552 85.5215 35.929 85.4964 35.9132C85.4839 35.9054 85.4752 35.9001 85.4705 35.8973L85.4665 35.8949C85.2316 35.7604 85.1492 35.4606 85.2825 35.2244Z" fill="#4F5661"/>
<path d="M112.342 41.1777C108.664 44.5981 112.933 47.5582 112.933 47.5582C112.933 47.5582 116.019 43.6115 112.342 41.1777Z" fill="#53C27C"/>
<path d="M124.819 31.5084C125.073 31.5084 125.278 31.3023 125.278 31.048C125.278 30.7937 125.073 30.5875 124.819 30.5875C124.565 30.5875 124.359 30.7937 124.359 31.048C124.359 31.3023 124.565 31.5084 124.819 31.5084Z" fill="#4F5661"/>
<path d="M128.759 30.8501C129.013 30.8501 129.218 30.6439 129.218 30.3896C129.218 30.1353 129.013 29.9292 128.759 29.9292C128.505 29.9292 128.299 30.1353 128.299 30.3896C128.299 30.6439 128.505 30.8501 128.759 30.8501Z" fill="#4F5661"/>
<path d="M127.052 32.6924C127.306 32.6924 127.511 32.4862 127.511 32.2319C127.511 31.9776 127.306 31.7715 127.052 31.7715C126.798 31.7715 126.592 31.9776 126.592 32.2319C126.592 32.4862 126.798 32.6924 127.052 32.6924Z" fill="#4F5661"/>
<path fill-rule="evenodd" clip-rule="evenodd" d="M85.5427 48.792C85.8051 48.8614 85.9618 49.1309 85.8927 49.3941C85.5823 50.5754 85.5863 51.4909 85.7458 52.3098C85.9035 53.1191 86.2145 53.8489 86.5746 54.6942C86.5857 54.7203 86.5969 54.7466 86.6082 54.773C87.3608 56.5405 88.216 58.6352 87.8769 62.3377C87.8521 62.6088 87.6129 62.8083 87.3427 62.7834C87.0725 62.7585 86.8736 62.5186 86.8984 62.2476C87.216 58.7803 86.4294 56.8625 85.7045 55.1602C85.6885 55.1227 85.6726 55.0852 85.6566 55.0478C85.3078 54.2297 84.9596 53.413 84.7814 52.4989C84.5922 51.5274 84.5961 50.4613 84.9425 49.143C85.0116 48.8798 85.2804 48.7227 85.5427 48.792Z" fill="#4F5661"/>
<path d="M102.522 32.7243C100.136 32.765 97.9669 32.1033 96.2029 30.8283C94.8062 29.7968 93.216 29.2719 91.4242 29.3187C91.1556 29.3523 90.8948 29.3205 90.6261 29.3541C90.154 29.4291 89.6245 29.4309 89.1603 29.4406C85.0473 29.5361 81.5725 28.1853 79.364 25.6635C78.8405 25.0696 78.5936 24.3769 78.6805 23.6587C78.7023 22.9324 79.05 22.2459 79.6427 21.7217C80.1622 21.2549 80.7885 20.9998 81.4483 21.0139C82.2464 20.9786 83.0622 21.343 83.5857 21.9368C84.69 23.1978 86.7287 23.8436 89.1151 23.8029C89.4489 23.7773 89.7828 23.7517 90.1166 23.7261C90.5157 23.7084 90.9878 23.6334 91.3869 23.6157C94.5062 23.5317 97.3113 24.4034 99.7293 26.2881C100.456 26.8405 101.418 27.0902 102.477 27.0866C103.471 27.0751 104.561 26.8103 105.814 26.3002C106.156 26.2093 106.432 26.1104 106.766 26.0848C107.963 26.0318 109 26.7545 109.46 27.8707C110.012 29.3293 109.35 30.9715 107.894 31.5231C105.95 32.2803 104.176 32.7269 102.522 32.7243Z" fill="#CE9367"/>
<path fill-rule="evenodd" clip-rule="evenodd" d="M80.4523 23.4414C80.6529 23.2581 80.9636 23.2726 81.1464 23.4737C82.8431 25.3413 85.5397 26.3704 88.8839 26.2485C89.0646 26.2395 89.2656 26.2173 89.4856 26.1928L89.4938 26.1919C89.703 26.1686 89.9301 26.1433 90.1424 26.1325L91.136 26.0514C91.1456 26.0506 91.1553 26.0501 91.1651 26.0499C93.6547 25.9952 95.803 26.6617 97.7215 28.0673L97.7287 28.0726C98.9599 29.0096 100.51 29.4467 102.278 29.401C102.549 29.3939 102.775 29.6088 102.782 29.8809C102.789 30.153 102.574 30.3792 102.303 30.3862C100.359 30.4365 98.5793 29.9556 97.1384 28.8606C95.4056 27.5921 93.4759 26.9877 91.201 27.0349L90.2145 27.1155C90.2092 27.1159 90.204 27.1162 90.1987 27.1165C90.0172 27.1254 89.8152 27.1477 89.594 27.1724L89.5858 27.1733C89.3739 27.1969 89.1437 27.2225 88.929 27.2331L88.9229 27.2334C85.3634 27.3639 82.3574 26.2699 80.4201 24.1376C80.2373 23.9364 80.2517 23.6247 80.4523 23.4414Z" fill="#4F5661"/>
</g>
<defs>
<clipPath id="clip0_1_397">
<rect width="136" height="74" fill="white"/>
</clipPath>
</defs>
</svg>
