<svg width="136" height="74" viewBox="0 0 136 74" fill="none" xmlns="http://www.w3.org/2000/svg">
<g clip-path="url(#clip0_1_397)">
<path d="M103.79 64.8578L99.8498 68.8045L95.9753 64.8578H103.79Z" fill="#8D9096"/>
<path d="M114.428 60.7141L114.954 59.3986C115.61 59.7275 116.005 60.3195 116.005 60.9772C116.07 61.7008 115.676 62.4244 114.954 62.8848C112.655 64.3319 109.044 66.1079 104.512 66.1079H72.3668V64.0688H104.578C108.847 64.0688 112.261 63.0821 114.363 61.7008C114.625 61.5035 114.757 61.2403 114.757 61.1088C114.757 60.9115 114.56 60.7799 114.428 60.7141Z" fill="#FFCA00"/>
<path d="M113.903 58.9378L114.756 59.2009C115.873 59.5956 116.004 60.7796 115.085 61.3058C112.983 62.5556 109.371 64.2001 104.906 64.2001H72.3668V60.3191H101.754C106.679 60.3191 110.422 59.3982 112.064 58.9378C112.655 58.7405 113.312 58.7405 113.903 58.9378Z" fill="#6B6C72"/>
<path d="M89.671 63.4106C94.2045 63.4106 97.8797 62.9099 97.8797 62.2924C97.8797 61.6748 94.2045 61.1741 89.671 61.1741C85.1374 61.1741 81.4623 61.6748 81.4623 62.2924C81.4623 62.9099 85.1374 63.4106 89.671 63.4106Z" fill="#4F5661"/>
<path d="M99.8498 74.0015C101.99 74.0015 103.724 72.264 103.724 70.1206C103.724 67.9772 101.99 66.2397 99.8498 66.2397C97.71 66.2397 95.9753 67.9772 95.9753 70.1206C95.9753 72.264 97.71 74.0015 99.8498 74.0015Z" fill="#6B6C72"/>
<path fill-rule="evenodd" clip-rule="evenodd" d="M99.8491 69.0347C99.2494 69.0347 98.7643 69.5215 98.7643 70.1206C98.7643 70.7196 99.2494 71.2064 99.8491 71.2064C100.449 71.2064 100.934 70.7196 100.934 70.1206C100.934 69.5215 100.449 69.0347 99.8491 69.0347ZM97.7817 70.1206C97.7817 68.9759 98.7079 68.0491 99.8491 68.0491C100.99 68.0491 101.916 68.9759 101.916 70.1206C101.916 71.2652 100.99 72.192 99.8491 72.192C98.7079 72.192 97.7817 71.2652 97.7817 70.1206Z" fill="white"/>
<path d="M104.103 28.2226C101.871 27.8551 99.9607 26.8697 98.5314 25.3813C97.4036 24.1824 96.0098 23.4228 94.3315 23.1621C94.0753 23.1477 93.8376 23.0738 93.5815 23.0594C93.1286 23.0492 92.6348 22.9609 92.2004 22.8911C88.3499 22.2813 85.3386 20.4316 83.7056 17.7054C83.3179 17.0629 83.2047 16.3752 83.407 15.7203C83.5499 15.047 83.99 14.466 84.6311 14.0781C85.1943 13.7311 85.8212 13.5998 86.4339 13.725C87.1839 13.8277 87.883 14.306 88.2707 14.9485C89.0872 16.3117 90.8787 17.2601 93.1103 17.6276C93.4258 17.6605 93.7414 17.6933 94.057 17.7262C94.432 17.7775 94.8848 17.7878 95.2598 17.8391C98.1819 18.2908 100.65 19.58 102.586 21.7479C103.17 22.3863 104.025 22.7825 105.013 22.9591C105.941 23.1172 107.002 23.0556 108.256 22.7929C108.59 22.7662 108.864 22.721 109.18 22.7539C110.305 22.9079 111.15 23.7578 111.39 24.8766C111.658 26.33 110.763 27.7485 109.313 28.0153C107.373 28.391 105.644 28.5059 104.103 28.2226Z" fill="#CE9367"/>
<path d="M103.264 46.6374C103.264 46.6374 113.64 48.6108 111.079 54.4651C108.518 60.3193 105.234 58.346 105.234 58.346L106.548 54.4651C106.548 54.4651 105.431 54.0704 98.7331 51.1761C94.2019 49.2686 97.4197 44.6641 103.264 46.6374Z" fill="#CE9367"/>
<path fill-rule="evenodd" clip-rule="evenodd" d="M100.233 52.5461C100.312 52.2856 100.586 52.1384 100.846 52.2173L106.69 53.9934C106.95 54.0723 107.097 54.3474 107.018 54.6079C106.939 54.8683 106.665 55.0155 106.405 54.9366L100.561 53.1606C100.301 53.0817 100.154 52.8066 100.233 52.5461Z" fill="#4F5661"/>
<path d="M125.329 36.2443C129.729 35.7181 134.195 33.3501 134.851 30.982C135.114 30.1927 134.917 29.4691 134.195 28.6798C133.275 27.6931 131.699 27.3642 129.729 27.1669C125.526 26.838 120.01 25.3909 114.297 23.1544C105.825 19.8655 102.279 26.5091 96.0405 32.6265C93.2451 35.3509 82.2689 35.9058 72.589 35.7605V55.0589C76.4435 55.0982 81.2839 55.1227 86.2558 55.1227C111.604 55.1227 111.013 40.783 111.013 40.783C114.953 40.5199 118.828 36.3759 118.828 36.3759C118.828 36.3759 119.485 36.9021 125.329 36.2443Z" fill="#CE9367"/>
<path d="M85.0739 54.4645C87.044 57.7535 86.3873 62.2922 86.3873 62.2922H94.1363C94.1363 62.2922 95.4497 59.661 90.9185 59.0032C90.9185 59.0032 98.0765 57.6877 96.7631 49.8601C95.4497 42.0324 81.7904 47.2947 85.0739 54.4645Z" fill="#CE9367"/>
<path fill-rule="evenodd" clip-rule="evenodd" d="M107.401 53.3549C107.65 53.4636 107.763 53.7539 107.655 54.0035L105.685 58.5422C105.577 58.7917 105.287 58.9059 105.038 58.7973C104.79 58.6887 104.676 58.3983 104.784 58.1488L106.754 53.61C106.862 53.3605 107.152 53.2463 107.401 53.3549Z" fill="#4F5661"/>
<path d="M110.784 40.898C111.9 45.7656 116.628 43.5949 116.628 43.5949C116.628 43.5949 114.724 38.9247 110.784 40.898Z" fill="#53C27C"/>
<path fill-rule="evenodd" clip-rule="evenodd" d="M113.057 28.4671C112.681 28.6083 112.227 29.1649 112.227 30.39C112.227 30.6622 112.007 30.8828 111.735 30.8828C111.464 30.8828 111.244 30.6622 111.244 30.39C111.244 28.9841 111.775 27.8962 112.712 27.5441C113.675 27.1825 114.708 27.7207 115.427 28.8009C115.578 29.0272 115.517 29.3332 115.292 29.4843C115.066 29.6354 114.761 29.5744 114.61 29.3481C114.016 28.4549 113.407 28.3353 113.057 28.4671Z" fill="#4F5661"/>
<path d="M135.039 30.942C131.493 31.3367 129.917 30.7447 129.917 27.1926C131.887 27.39 133.463 27.7188 134.382 28.7055C135.105 29.4291 135.302 30.1526 135.039 30.942Z" fill="#4F5661"/>
<path fill-rule="evenodd" clip-rule="evenodd" d="M134.638 30.5261C134.897 30.6079 135.04 30.8846 134.959 31.1442L134.49 30.9961C134.959 31.1442 134.959 31.1445 134.958 31.1449L134.958 31.1458L134.958 31.1478L134.956 31.1532L134.951 31.1687C134.946 31.1812 134.94 31.198 134.933 31.2187C134.917 31.2601 134.895 31.3175 134.864 31.3889C134.802 31.5315 134.707 31.7301 134.567 31.9681C134.288 32.4444 133.832 33.0783 133.119 33.7381C131.686 35.0627 129.244 36.4645 125.178 36.9358L125.177 36.9359C121.635 37.3414 118.681 36.6493 116.614 35.8556C115.58 35.4587 114.766 35.0359 114.208 34.7104C113.929 34.5476 113.714 34.4089 113.567 34.3098C113.493 34.2602 113.436 34.2204 113.397 34.1925C113.378 34.1785 113.363 34.1674 113.352 34.1596L113.339 34.1502L113.335 34.1473L113.334 34.1463L113.334 34.146C113.333 34.1458 113.333 34.1457 113.629 33.7525L113.333 34.1457C113.117 33.9816 113.074 33.6726 113.237 33.4554C113.401 33.2384 113.709 33.1953 113.925 33.359L113.925 33.3591C113.925 33.3591 113.925 33.3592 113.926 33.3593L113.926 33.3599L113.934 33.3654C113.941 33.3706 113.952 33.379 113.968 33.3904C114 33.413 114.049 33.4473 114.114 33.4915C114.245 33.5797 114.443 33.707 114.702 33.8584C115.222 34.1613 115.988 34.5599 116.965 34.9351C118.92 35.6856 121.713 36.3404 125.066 35.9567C128.945 35.507 131.187 34.1838 132.453 33.0135C133.088 32.4259 133.485 31.87 133.72 31.4683C133.838 31.2673 133.916 31.1048 133.963 30.9962C133.986 30.9419 134.002 30.9011 134.012 30.8757C134.016 30.863 134.019 30.8542 134.021 30.8495L134.022 30.8468L134.022 30.8474C134.022 30.8468 134.022 30.8463 134.022 30.8458C134.105 30.5876 134.38 30.4445 134.638 30.5261Z" fill="#4F5661"/>
<path d="M96.0412 32.6924C90.2623 32.9555 88.2517 31.366 81.7504 32.0238C75.2491 32.6815 83.4983 32.8239 86.9788 36.9022C90.3936 40.9804 96.7636 47.1636 105.169 46.3085C113.575 45.4534 111.868 40.7173 111.868 40.7173C111.868 40.7173 105.104 41.5067 96.0412 32.6924Z" fill="#53C27C"/>
<path fill-rule="evenodd" clip-rule="evenodd" d="M84.2825 35.2244C84.4161 34.9875 84.7159 34.9041 84.9521 35.0381L84.7102 35.467C84.9521 35.0381 84.9522 35.0382 84.9524 35.0383L84.9527 35.0385L84.9535 35.0389L84.9552 35.0399L84.9598 35.0426L84.9734 35.0506C84.9844 35.0571 84.9993 35.0662 85.0179 35.0779C85.0552 35.1013 85.1077 35.1354 85.1749 35.1818C85.3092 35.2746 85.5023 35.4164 85.7501 35.6201C86.2444 36.0264 86.9565 36.6787 87.8551 37.6781C91.6535 41.5691 96.9685 46.3261 105.201 45.7508L105.202 45.7508C107.121 45.6204 108.327 45.4258 109.045 45.2678C109.404 45.1888 109.639 45.1193 109.779 45.0722C109.849 45.0486 109.895 45.0307 109.921 45.0202C109.934 45.0149 109.942 45.0114 109.945 45.01C109.945 45.0099 109.945 45.0097 109.946 45.0096C110.187 44.892 110.479 44.9912 110.599 45.2329C110.721 45.4764 110.622 45.7724 110.379 45.894L110.16 45.4531C110.379 45.894 110.379 45.8941 110.379 45.8943L110.378 45.8946L110.377 45.8952L110.374 45.8965L110.368 45.8997C110.363 45.9021 110.357 45.9049 110.35 45.9081C110.335 45.9145 110.317 45.9227 110.293 45.9323C110.247 45.9515 110.18 45.9768 110.091 46.0067C109.913 46.0664 109.644 46.1449 109.256 46.2304C108.48 46.4013 107.224 46.6013 105.268 46.7341C96.5631 47.3422 90.9695 42.278 87.1459 38.3603C87.1411 38.3555 87.1365 38.3505 87.132 38.3455C86.2607 37.3758 85.5818 36.756 85.1272 36.3824C84.9 36.1956 84.7288 36.0704 84.6176 35.9936C84.5621 35.9552 84.5215 35.929 84.4964 35.9132C84.4839 35.9054 84.4752 35.9001 84.4705 35.8973L84.4665 35.8949C84.2316 35.7604 84.1492 35.4606 84.2825 35.2244Z" fill="#4F5661"/>
<path d="M111.342 41.1777C107.664 44.5981 111.933 47.5582 111.933 47.5582C111.933 47.5582 115.019 43.6115 111.342 41.1777Z" fill="#53C27C"/>
<path d="M123.819 31.5084C124.073 31.5084 124.278 31.3023 124.278 31.048C124.278 30.7937 124.073 30.5875 123.819 30.5875C123.565 30.5875 123.359 30.7937 123.359 31.048C123.359 31.3023 123.565 31.5084 123.819 31.5084Z" fill="#4F5661"/>
<path d="M127.759 30.8501C128.013 30.8501 128.218 30.6439 128.218 30.3896C128.218 30.1353 128.013 29.9292 127.759 29.9292C127.505 29.9292 127.299 30.1353 127.299 30.3896C127.299 30.6439 127.505 30.8501 127.759 30.8501Z" fill="#4F5661"/>
<path d="M126.052 32.6924C126.306 32.6924 126.511 32.4862 126.511 32.2319C126.511 31.9776 126.306 31.7715 126.052 31.7715C125.798 31.7715 125.592 31.9776 125.592 32.2319C125.592 32.4862 125.798 32.6924 126.052 32.6924Z" fill="#4F5661"/>
<path fill-rule="evenodd" clip-rule="evenodd" d="M84.5427 48.792C84.8051 48.8614 84.9618 49.1309 84.8927 49.3941C84.5823 50.5754 84.5863 51.4909 84.7458 52.3098C84.9035 53.1191 85.2145 53.8489 85.5746 54.6942C85.5857 54.7203 85.5969 54.7466 85.6082 54.773C86.3608 56.5405 87.216 58.6352 86.8769 62.3377C86.8521 62.6088 86.6129 62.8083 86.3427 62.7834C86.0725 62.7585 85.8736 62.5186 85.8984 62.2476C86.216 58.7803 85.4294 56.8625 84.7045 55.1602C84.6885 55.1227 84.6726 55.0852 84.6566 55.0478C84.3078 54.2297 83.9596 53.413 83.7814 52.4989C83.5922 51.5274 83.5961 50.4613 83.9425 49.143C84.0116 48.8798 84.2804 48.7227 84.5427 48.792Z" fill="#4F5661"/>
<path d="M101.522 32.7243C99.136 32.765 96.9669 32.1033 95.2029 30.8283C93.8062 29.7968 92.216 29.2719 90.4242 29.3187C90.1556 29.3523 89.8948 29.3205 89.6261 29.3541C89.154 29.4291 88.6245 29.4309 88.1603 29.4406C84.0473 29.5361 80.5725 28.1853 78.364 25.6635C77.8405 25.0696 77.5936 24.3769 77.6805 23.6587C77.7023 22.9324 78.05 22.2459 78.6427 21.7217C79.1622 21.2549 79.7885 20.9998 80.4483 21.0139C81.2464 20.9786 82.0622 21.343 82.5857 21.9368C83.69 23.1978 85.7287 23.8436 88.1151 23.8029C88.4489 23.7773 88.7828 23.7517 89.1166 23.7261C89.5157 23.7084 89.9878 23.6334 90.3869 23.6157C93.5062 23.5317 96.3113 24.4034 98.7293 26.2881C99.4562 26.8405 100.418 27.0902 101.477 27.0866C102.471 27.0751 103.561 26.8103 104.814 26.3002C105.156 26.2093 105.432 26.1104 105.766 26.0848C106.963 26.0318 108 26.7545 108.46 27.8707C109.012 29.3293 108.35 30.9715 106.894 31.5231C104.95 32.2803 103.176 32.7269 101.522 32.7243Z" fill="#CE9367"/>
<path fill-rule="evenodd" clip-rule="evenodd" d="M79.4523 23.4414C79.6529 23.2581 79.9636 23.2726 80.1464 23.4737C81.8431 25.3413 84.5397 26.3704 87.8839 26.2485C88.0646 26.2395 88.2656 26.2173 88.4856 26.1928L88.4938 26.1919C88.703 26.1686 88.9301 26.1433 89.1424 26.1325L90.136 26.0514C90.1456 26.0506 90.1553 26.0501 90.1651 26.0499C92.6547 25.9952 94.803 26.6617 96.7215 28.0673L96.7287 28.0726C97.9599 29.0096 99.5103 29.4467 101.278 29.401C101.549 29.3939 101.775 29.6088 101.782 29.8809C101.789 30.153 101.574 30.3792 101.303 30.3862C99.3588 30.4365 97.5793 29.9556 96.1384 28.8606C94.4056 27.5921 92.4759 26.9877 90.201 27.0349L89.2145 27.1155C89.2092 27.1159 89.204 27.1162 89.1987 27.1165C89.0172 27.1254 88.8152 27.1477 88.594 27.1724L88.5858 27.1733C88.3739 27.1969 88.1437 27.2225 87.929 27.2331L87.9229 27.2334C84.3634 27.3639 81.3574 26.2699 79.4201 24.1376C79.2373 23.9364 79.2517 23.6247 79.4523 23.4414Z" fill="#4F5661"/>
<g clip-path="url(#clip1_1_397)">
<path d="M4.678 42.7935C7.10569 43.0794 9.64791 43.4452 12.0837 43.6115C14.564 43.8289 17.0383 43.7816 19.5316 43.8076L19.5595 44.4584C17.0657 44.7928 14.5262 44.7395 12.0172 44.5922C9.82015 44.4422 7.60739 44.171 5.4825 43.6654C5.1753 43.5964 4.86972 43.5035 4.56414 43.4105L4.678 42.7935Z" fill="#CFE6F0"/>
<path d="M0.151949 44.7911C3.84206 45.2113 7.57181 45.7543 11.2798 45.9114C12.5232 45.9722 13.7698 45.9853 15.0116 46.0701L15.0156 46.7192C13.7592 46.8497 12.5109 46.8606 11.242 46.822C8.10389 46.7519 4.95491 46.4888 1.85417 45.8686C1.30979 45.7593 0.529848 45.5859 0.0125943 45.4305C0.0364748 45.4321 0.151949 44.7911 0.151949 44.7911Z" fill="#CFE6F0"/>
<path d="M34.6866 64.8578L38.5611 68.8045L42.5013 64.8578H34.6866Z" fill="#8D9096"/>
<path d="M73.3333 64.003V64.0688V66.0421H33.9648C29.4993 66.0421 25.8218 64.2661 23.589 62.7532C22.8667 62.2928 22.4727 61.5692 22.5383 60.8456C22.604 60.1879 22.998 59.5959 23.6547 59.267L24.1801 60.5825C24.0487 60.6483 23.8517 60.7799 23.8517 60.9772C23.8517 61.1088 23.9831 61.3719 24.3114 61.5692C26.4128 63.0163 29.8276 64.003 34.0305 64.003H73.3333Z" fill="#FFCA00"/>
<path d="M36.7224 60.3191H73.3333V64.2001H33.5703C29.1047 64.2001 25.4929 62.5556 23.3915 61.3058C22.4721 60.7796 22.6691 59.5298 23.7198 59.2009L24.5735 58.9378C25.1646 58.7405 25.8213 58.7405 26.4123 58.9378C28.054 59.3982 31.7972 60.3191 36.7224 60.3191Z" fill="#6B6C72"/>
<path d="M62.3994 61.9638C62.3994 63.4767 52.3519 63.082 47.1641 63.082C41.9762 63.082 37.839 62.5558 37.839 61.9638C37.839 61.3718 41.9762 60.8456 47.1641 60.8456C52.3519 60.8456 62.3994 60.8456 62.3994 61.9638Z" fill="#4F5661"/>
<path d="M38.5611 74.0015C40.701 74.0015 42.4357 72.264 42.4357 70.1206C42.4357 67.9772 40.701 66.2397 38.5611 66.2397C36.4213 66.2397 34.6866 67.9772 34.6866 70.1206C34.6866 72.264 36.4213 74.0015 38.5611 74.0015Z" fill="#6B6C72"/>
<path fill-rule="evenodd" clip-rule="evenodd" d="M38.5613 69.0347C37.9616 69.0347 37.4766 69.5215 37.4766 70.1206C37.4766 70.7196 37.9616 71.2064 38.5613 71.2064C39.161 71.2064 39.6461 70.7196 39.6461 70.1206C39.6461 69.5215 39.161 69.0347 38.5613 69.0347ZM36.4939 70.1206C36.4939 68.9759 37.4201 68.0491 38.5613 68.0491C39.7025 68.0491 40.6287 68.9759 40.6287 70.1206C40.6287 71.2652 39.7025 72.192 38.5613 72.192C37.4202 72.192 36.4939 71.2652 36.4939 70.1206Z" fill="white"/>
<path d="M58.1705 38.2008C44.7739 37.2142 34.6608 31.1626 17.0614 35.5697C14.8286 36.0959 15.2226 37.4115 21.0016 37.6088C26.7805 37.8062 35.9085 38.2008 44.3799 40.832C50.8155 42.8053 69.0716 42.2791 69.0716 42.2791" fill="#CE9367"/>
<path d="M44.1432 56.3941C44.1432 56.3941 46.376 63.6297 50.2505 63.6297C54.125 63.6297 55.4384 63.6297 55.4384 63.6297C55.4384 63.6297 55.8981 60.3408 52.0893 60.0119C52.0893 60.0119 58.0652 59.0252 58.0652 53.8287L44.1432 49.0269V56.3941" fill="#CE9367"/>
<path d="M26.8064 51.1978C26.8064 51.1978 38.4956 60.3409 51.4981 54.4867C51.4981 54.4867 57.7584 54.8976 73.5556 55.0589V35.7605C66.4083 35.6532 60.1698 35.1641 57.4084 34.8847C50.9071 34.227 39.1523 31.5958 34.6211 39.4234C31.8629 44.2253 28.3168 45.1461 26.0184 45.0804C23.9826 45.0804 22.0125 45.475 20.2394 46.3959L10.98 51.1978C10.98 51.1978 13.1471 55.1445 17.4157 53.8289C21.6185 52.5133 26.8064 51.1978 26.8064 51.1978Z" fill="#CE9367"/>
<path fill-rule="evenodd" clip-rule="evenodd" d="M51.7809 43.2489C51.9923 43.0783 52.3016 43.1118 52.4717 43.3239C53.9357 45.1483 54.5882 46.9069 54.5939 48.544C54.5995 50.1818 53.9574 51.6368 52.945 52.852C51.0753 55.0963 47.9062 56.5741 44.9368 57.0141C44.9618 57.0711 44.9887 57.1316 45.0172 57.1952C45.232 57.6736 45.5437 58.3293 45.9315 59.0386C46.7185 60.4782 47.7767 62.0586 48.9263 62.8767C49.1476 63.0342 49.1997 63.3419 49.0427 63.5638C48.8857 63.7858 48.579 63.838 48.3577 63.6805C47.0118 62.7227 45.8645 60.9659 45.0699 59.5125C44.6668 58.7752 44.3436 58.0953 44.1212 57.5998C44.0099 57.3519 43.9236 57.1495 43.8648 57.0084C43.8354 56.9379 43.8129 56.8826 43.7976 56.8446C43.7899 56.8256 43.784 56.811 43.78 56.8008L43.7754 56.7891L43.7737 56.7849C43.7737 56.7848 43.7735 56.7844 44.2309 56.6044L43.7735 56.7844C43.7173 56.6405 43.7315 56.4785 43.8121 56.3467C43.8927 56.215 44.0303 56.1288 44.1836 56.1139C47.1415 55.8272 50.3857 54.387 52.191 52.22C53.0857 51.146 53.6159 49.909 53.6113 48.5474C53.6066 47.1849 53.0661 45.6365 51.7062 43.9418C51.5361 43.7298 51.5696 43.4196 51.7809 43.2489Z" fill="#4F5661"/>
</g>
</g>
<defs>
<clipPath id="clip0_1_397">
<rect width="136" height="74" fill="white"/>
</clipPath>
<clipPath id="clip1_1_397">
<rect width="73.5902" height="40.0722" fill="white" transform="translate(-0.0346069 33.9293)"/>
</clipPath>
</defs>
</svg>
