<svg width="1" height="40" viewBox="0 0 1 40" fill="none" xmlns="http://www.w3.org/2000/svg">
<g clip-path="url(#clip0_1_416)">
<path d="M3.78258 30.0737V30.1394V32.1128H-34.7352C-39.1043 32.1128 -42.7023 30.3368 -44.8868 28.8239C-45.5936 28.3634 -45.9791 27.6399 -45.9148 26.9163C-45.8506 26.2585 -45.4651 25.6665 -44.8226 25.3376L-44.3086 26.6532C-44.4371 26.719 -44.6298 26.8505 -44.6298 27.0479C-44.6298 27.1794 -44.5013 27.4425 -44.1801 27.6399C-42.124 29.087 -38.783 30.0737 -34.671 30.0737H3.78258Z" fill="#FFCA00"/>
<path d="M-32.0373 26.3898H3.78259V30.2707H-35.1213C-39.4903 30.2707 -43.0241 28.6263 -45.0801 27.3765C-45.9796 26.8503 -45.7868 25.6005 -44.7588 25.2716L-43.9236 25.0085C-43.3453 24.8111 -42.7028 24.8111 -42.1246 25.0085C-40.5183 25.4689 -36.856 26.3898 -32.0373 26.3898Z" fill="#6B6C72"/>
<path d="M-41.739 17.2684C-41.739 17.2684 -30.3024 26.4116 -17.5808 20.5573C-17.5808 20.5573 -11.4558 20.9683 4 21.1295V1.83118C-2.99286 1.72387 -9.09652 1.2348 -11.7983 0.955412C-18.159 0.297629 -29.6599 -2.3335 -34.0932 5.49412C-36.7917 10.2959 -40.2612 11.2168 -42.51 11.151C-44.5018 11.151 -46.4293 11.5457 -48.164 12.4666L-57.2234 17.2684C-57.2234 17.2684 -55.1031 21.2151 -50.9268 19.8996C-46.8148 18.584 -41.739 17.2684 -41.739 17.2684Z" fill="#CE9367"/>
</g>
<defs>
<clipPath id="clip0_1_416">
<rect width="1" height="40" fill="white"/>
</clipPath>
</defs>
</svg>
