<svg width="136" height="74" viewBox="0 0 136 74" fill="none" xmlns="http://www.w3.org/2000/svg">
<path d="M45.7041 19.2924C48.0521 19.2924 49.9555 17.3858 49.9555 15.034C49.9555 12.6821 48.0521 10.7755 45.7041 10.7755C43.3561 10.7755 41.4527 12.6821 41.4527 15.034C41.4527 17.3858 43.3561 19.2924 45.7041 19.2924Z" fill="#CFE6F0"/>
<path d="M46.7669 9.53353C46.7669 8.256 47.192 7.04944 47.5109 5.80739C47.688 5.41704 47.8298 4.17499 48.4675 4.45889C48.5738 4.52986 48.6446 4.63632 48.6446 4.77827C48.6446 5.62996 48.3966 6.44616 48.2195 7.26236C48.0423 7.75918 47.688 10.2433 46.944 9.81743C46.8378 9.78194 46.7669 9.67548 46.7669 9.53353Z" fill="#CFE6F0"/>
<path d="M43.8619 9.74631C43.2242 8.57524 42.8699 7.2977 42.4448 6.02017C42.0551 4.74264 41.5945 3.50059 41.3819 2.18757C41.3111 1.79721 41.8779 1.61978 42.0551 1.97465C42.6574 3.18121 43.0117 4.45874 43.4722 5.70079C43.8974 6.97832 44.3579 8.22037 44.5351 9.53339C44.6059 9.92374 44.0745 10.1012 43.8619 9.74631Z" fill="#CFE6F0"/>
<path d="M41.4881 11.3791C40.7441 10.9887 40.1418 10.35 39.5396 9.78218C38.9373 9.1789 38.2996 8.61111 37.839 7.90137C37.7327 7.72393 37.8036 7.51101 37.9807 7.40455C38.087 7.33357 38.2287 7.33357 38.335 7.40455C38.7247 7.61747 39.0436 7.90137 39.3624 8.14978C40.0001 8.68208 40.6024 9.24988 41.2047 9.85315C41.4527 10.1725 42.4447 10.9887 41.8778 11.3436C41.7361 11.4146 41.5944 11.4146 41.4881 11.3791Z" fill="#CFE6F0"/>
<path d="M40.2484 13.8629C39.1855 13.8984 38.1581 13.6855 37.1307 13.5081C36.1032 13.2951 35.0758 13.1532 34.0838 12.7628C33.7296 12.6209 33.8358 12.0531 34.2255 12.0531C35.2884 12.0531 36.3158 12.266 37.3432 12.408C38.3707 12.5854 39.3981 12.7274 40.3901 13.1532C40.7444 13.3306 40.6381 13.8629 40.2484 13.8629Z" fill="#CFE6F0"/>
<path d="M51.1606 16.0985C52.6486 16.1695 54.0657 16.4889 55.5183 16.7728C56.9708 17.0921 58.4234 17.3406 59.8051 17.8374C60.1948 17.9793 60.0531 18.5826 59.6634 18.5471C57.4668 18.3342 55.3057 17.8374 53.1092 17.4115C52.4006 17.2341 51.692 17.0567 50.9834 16.8083C50.8063 16.7373 50.7 16.5244 50.7709 16.3469C50.8772 16.1695 51.0189 16.0985 51.1606 16.0985Z" fill="#CFE6F0"/>
<path d="M50.9831 13.2242C52.0814 12.5854 53.3568 12.337 54.5614 12.0176C54.9865 11.9466 56.1202 11.4853 56.1911 12.1596C56.1911 12.3015 56.1202 12.408 56.0139 12.4789C55.2699 12.9048 54.4551 13.0822 53.6402 13.3661C53.1442 13.4726 50.806 14.3952 50.806 13.5435C50.806 13.4016 50.8768 13.2951 50.9831 13.2242Z" fill="#CFE6F0"/>
<path d="M49.3532 10.811C50.3098 9.35602 51.4789 8.07849 52.6126 6.72998C53.6401 5.5944 55.0572 3.92651 56.1909 2.89738C56.5098 2.61349 56.9703 3.03933 56.7223 3.35871C55.2698 5.41696 53.3566 7.5107 51.7269 9.39151C51.1601 10.0303 50.5578 10.669 49.8847 11.2368C49.7429 11.3788 49.4949 11.3433 49.3887 11.2013C49.2824 11.1304 49.247 10.9529 49.3532 10.811Z" fill="#CFE6F0"/>
<path d="M50.1682 19.8957C49.7785 19.5053 48.503 18.2278 47.1922 18.0504C46.2356 17.9084 45.7751 18.2278 45.5271 18.3697C45.4916 18.3697 45.4562 18.4052 45.4562 18.4407C44.4642 17.66 43.6139 17.1987 42.8345 17.0922C41.5591 16.9148 41.0277 17.3406 40.7088 17.589C40.4962 17.7665 40.4962 17.7665 40.2128 17.731C39.9294 17.6955 39.6814 17.4826 39.2917 17.0567C38.7602 16.4889 38.0871 15.7792 36.7054 15.6018C34.8986 15.3533 34.4026 16.347 34.1546 16.8083C34.0837 16.9503 33.9774 17.1987 33.8711 17.2342C33.5169 17.2342 32.702 16.6309 32.1706 16.205C31.1077 15.4243 29.9386 14.5371 28.4506 14.3952C27.6357 14.3242 26.8918 14.5017 26.3249 14.892C25.0849 15.7082 24.6952 17.3761 24.5889 18.6182C24.5535 18.7956 24.4472 19.044 24.1638 19.2924C23.9512 19.4698 23.7032 19.5763 23.4906 19.6473H20.5147C20.0895 19.6473 19.7352 19.8957 19.7352 20.1796C19.7352 20.4635 20.0895 20.7119 20.5147 20.7119H49.495C49.8139 20.7119 50.0973 20.5699 50.2036 20.3925C50.3099 20.2506 50.3099 20.0376 50.1682 19.8957Z" fill="#CFE6F0"/>
</svg>
