<svg width="1200" height="675" viewBox="0 0 1200 675" fill="none" xmlns="http://www.w3.org/2000/svg">
<g clip-path="url(#clip0_6_2409)">
<rect width="1200" height="675" fill="#F4F4EF"/>
<rect width="592" height="666" fill="#DFD4D8"/>
<path d="M353 231C353 356.369 454.855 458 580.5 458C706.145 458 808 356.369 808 231H353Z" fill="#14324F"/>
<rect x="549.383" y="793.461" width="423.459" height="84.6919" transform="rotate(-90 549.383 793.461)" fill="#14324F"/>
<path d="M679 720C679 671.951 639.825 633 591.5 633C543.175 633 504 671.951 504 720L679 720Z" fill="#14324F"/>
<path d="M859.086 281.164C886.744 253.506 886.536 208.456 858.622 180.542C830.708 152.628 785.658 152.421 758.001 180.079L777.821 199.899C794.633 183.088 822.016 183.214 838.983 200.181C855.951 217.149 856.077 244.532 839.265 261.343L859.086 281.164Z" fill="#4E82B5"/>
</g>
<defs>
<clipPath id="clip0_6_2409">
<rect width="1200" height="675" fill="white"/>
</clipPath>
</defs>
</svg>
