<svg width="1184" height="666" viewBox="0 0 1184 666" fill="none" xmlns="http://www.w3.org/2000/svg">
<rect width="1184" height="666" fill="#DFD4D8"/>
<rect width="602" height="666" fill="#F4F4EF"/>
<path d="M173 333C173 428.755 250.625 506.381 346.381 506.381C442.136 506.381 519.761 428.755 519.761 333H173Z" fill="#4E82B5"/>
<path d="M1037.76 506.381C1037.76 410.625 960.133 333 864.377 333C768.622 333 690.997 410.625 690.997 506.381L1037.76 506.381Z" fill="#14324F"/>
<path d="M309 246C309 216.177 284.599 192 254.5 192C224.401 192 200 216.177 200 246L221.373 246C221.373 227.872 236.204 213.176 254.5 213.176C272.796 213.176 287.627 227.872 287.627 246L309 246Z" fill="#14324F"/>
<path d="M491 246C491 216.177 466.599 192 436.5 192C406.401 192 382 216.177 382 246L403.373 246C403.373 227.872 418.204 213.176 436.5 213.176C454.796 213.176 469.627 227.872 469.627 246L491 246Z" fill="#14324F"/>
<circle cx="47.5" cy="47.5" r="47.5" transform="matrix(-1 0 0 1 825 192)" fill="#4E82B5"/>
<circle cx="47.5" cy="47.5" r="47.5" transform="matrix(-1 0 0 1 985 192)" fill="#4E82B5"/>
</svg>
