<svg width="1200" height="675" viewBox="0 0 1200 675" fill="none" xmlns="http://www.w3.org/2000/svg">
<g clip-path="url(#clip0_6_2230)">
<rect width="1200" height="675" fill="#DFD4D8"/>
<rect width="387" height="666" fill="#F4F4EF"/>
<path d="M1024 674C1024 498.374 881.403 356 705.5 356C529.597 356 387 498.374 387 674L1024 674Z" fill="#14324F"/>
<path d="M159 674C159 611.04 210.04 560 273 560C335.96 560 387 611.04 387 674L159 674Z" fill="#393A3D"/>
<path d="M887 196L946.756 298.75H827.244L887 196Z" fill="#4E82B5"/>
<path d="M738 196L797.756 298.75H678.244L738 196Z" fill="#4E82B5"/>
<path d="M1036 196L1095.76 298.75H976.244L1036 196Z" fill="#4E82B5"/>
<path d="M1185 196L1244.76 298.75H1125.24L1185 196Z" fill="#4E82B5"/>
<path d="M960 300L900.244 197.25L1019.76 197.25L960 300Z" fill="#4E82B5"/>
<path d="M811 300L751.244 197.25L870.756 197.25L811 300Z" fill="#4E82B5"/>
<path d="M1109 300L1049.24 197.25L1168.76 197.25L1109 300Z" fill="#4E82B5"/>
<path d="M1258 300L1198.24 197.25L1317.76 197.25L1258 300Z" fill="#4E82B5"/>
<path d="M887 75L946.756 177.75H827.244L887 75Z" fill="#4E82B5"/>
<path d="M738 75L797.756 177.75H678.244L738 75Z" fill="#4E82B5"/>
<path d="M1036 75L1095.76 177.75H976.244L1036 75Z" fill="#4E82B5"/>
<path d="M1185 75L1244.76 177.75H1125.24L1185 75Z" fill="#4E82B5"/>
<path d="M960 179L900.244 76.25L1019.76 76.25L960 179Z" fill="#4E82B5"/>
<path d="M811 179L751.244 76.25L870.756 76.25L811 179Z" fill="#4E82B5"/>
<path d="M1109 179L1049.24 76.25L1168.76 76.25L1109 179Z" fill="#4E82B5"/>
<path d="M1258 179L1198.24 76.25L1317.76 76.25L1258 179Z" fill="#4E82B5"/>
<path fill-rule="evenodd" clip-rule="evenodd" d="M-418.7 84.0696C-444.643 68.4231 -472.423 68.4225 -498.385 84.0702L-501.688 63.3837C-473.576 46.4403 -443.492 46.4394 -415.397 63.3834C-415.397 63.3837 -415.398 63.3831 -415.397 63.3834L-383.103 82.841C-357.142 98.4887 -329.36 98.4884 -303.418 82.8419L-271.123 63.3837C-271.122 63.3836 -271.123 63.3838 -271.123 63.3837C-243.011 46.4406 -212.927 46.4395 -184.833 63.3834C-184.832 63.3837 -184.833 63.3831 -184.833 63.3834L-152.538 82.841C-126.577 98.4887 -98.7955 98.4884 -72.8529 82.8419L-40.5578 63.3837C-40.5576 63.3836 -40.5579 63.3838 -40.5578 63.3837C-12.4463 46.4406 17.6374 46.4395 45.7323 63.3834C45.7328 63.3837 45.7318 63.3831 45.7323 63.3834L78.0264 82.841C103.988 98.4887 131.769 98.4884 157.712 82.8419L190.007 63.3837C218.119 46.44 248.203 46.4394 276.299 63.3843L272.994 84.0696C247.052 68.4231 219.271 68.4225 193.309 84.0702L161.016 103.527C161.016 103.527 161.017 103.527 161.016 103.527C132.921 120.471 102.836 120.471 74.7246 103.528L42.431 84.0705C16.4884 68.424 -11.2937 68.4225 -37.2555 84.0702L-69.5486 103.527C-97.644 120.472 -127.728 120.471 -155.84 103.528C-155.84 103.528 -155.84 103.528 -155.84 103.528L-188.134 84.0705C-214.076 68.424 -241.859 68.4225 -267.82 84.0702L-300.113 103.527C-328.209 120.472 -358.293 120.471 -386.405 103.528C-386.405 103.528 -386.404 103.528 -386.405 103.528L-418.7 84.0696Z" fill="#4E82B5"/>
<path fill-rule="evenodd" clip-rule="evenodd" d="M-418.7 163.984C-444.643 148.337 -472.423 148.337 -498.385 163.984L-501.688 143.298C-473.576 126.354 -443.492 126.353 -415.397 143.297C-415.397 143.298 -415.398 143.297 -415.397 143.297L-383.103 162.755C-357.142 178.403 -329.36 178.402 -303.418 162.756L-271.123 143.298C-271.122 143.298 -271.123 143.298 -271.123 143.298C-243.011 126.355 -212.927 126.354 -184.833 143.297C-184.832 143.298 -184.833 143.297 -184.833 143.297L-152.538 162.755C-126.577 178.403 -98.7955 178.402 -72.8529 162.756L-40.5578 143.298C-40.5576 143.298 -40.5579 143.298 -40.5578 143.298C-12.4463 126.355 17.6374 126.354 45.7323 143.297C45.7328 143.298 45.7318 143.297 45.7323 143.297L78.0264 162.755C103.988 178.403 131.769 178.402 157.712 162.756L190.007 143.298C218.119 126.354 248.203 126.353 276.299 143.298L272.994 163.984C247.052 148.337 219.271 148.337 193.309 163.984L161.016 183.441C161.016 183.442 161.017 183.441 161.016 183.441C132.921 200.385 102.836 200.385 74.7246 183.442L42.431 163.985C16.4884 148.338 -11.2937 148.337 -37.2555 163.984L-69.5486 183.441C-97.644 200.386 -127.728 200.386 -155.84 183.442C-155.84 183.442 -155.84 183.442 -155.84 183.442L-188.134 163.985C-214.076 148.338 -241.859 148.337 -267.82 163.984L-300.113 183.441C-328.209 200.386 -358.293 200.386 -386.405 183.442C-386.405 183.442 -386.404 183.442 -386.405 183.442L-418.7 163.984Z" fill="#4E82B5"/>
<path fill-rule="evenodd" clip-rule="evenodd" d="M-418.7 243.898C-444.643 228.251 -472.423 228.251 -498.385 243.898L-501.688 223.212C-473.576 206.268 -443.492 206.268 -415.397 223.212C-415.397 223.212 -415.398 223.211 -415.397 223.212L-383.103 242.669C-357.142 258.317 -329.36 258.316 -303.418 242.67L-271.123 223.212C-271.122 223.212 -271.123 223.212 -271.123 223.212C-243.011 206.269 -212.927 206.268 -184.833 223.212C-184.832 223.212 -184.833 223.211 -184.833 223.212L-152.538 242.669C-126.577 258.317 -98.7955 258.316 -72.8529 242.67L-40.5578 223.212C-40.5576 223.212 -40.5579 223.212 -40.5578 223.212C-12.4463 206.269 17.6374 206.268 45.7323 223.212C45.7328 223.212 45.7318 223.211 45.7323 223.212L78.0264 242.669C103.988 258.317 131.769 258.316 157.712 242.67L190.007 223.212C218.119 206.268 248.203 206.268 276.299 223.212L272.994 243.898C247.052 228.251 219.271 228.251 193.309 243.898L161.016 263.355C161.016 263.356 161.017 263.355 161.016 263.355C132.921 280.299 102.836 280.299 74.7246 263.356L42.431 243.899C16.4884 228.252 -11.2937 228.251 -37.2555 243.898L-69.5486 263.355C-97.644 280.3 -127.728 280.3 -155.84 263.356C-155.84 263.356 -155.84 263.356 -155.84 263.356L-188.134 243.899C-214.076 228.252 -241.859 228.251 -267.82 243.898L-300.113 263.355C-328.209 280.3 -358.293 280.3 -386.405 263.356C-386.405 263.356 -386.404 263.356 -386.405 263.356L-418.7 243.898Z" fill="#4E82B5"/>
<path fill-rule="evenodd" clip-rule="evenodd" d="M-418.7 323.816C-444.643 308.169 -472.423 308.169 -498.385 323.816L-501.688 303.13C-473.576 286.186 -443.492 286.185 -415.397 303.129C-415.397 303.13 -415.398 303.129 -415.397 303.129L-383.103 322.587C-357.142 338.235 -329.36 338.234 -303.418 322.588L-271.123 303.13C-271.122 303.13 -271.123 303.13 -271.123 303.13C-243.011 286.187 -212.927 286.186 -184.833 303.13C-184.832 303.13 -184.833 303.129 -184.833 303.13L-152.538 322.587C-126.577 338.235 -98.7955 338.234 -72.8529 322.588L-40.5578 303.13C-40.5576 303.13 -40.5579 303.13 -40.5578 303.13C-12.4463 286.187 17.6374 286.186 45.7323 303.129C45.7328 303.13 45.7318 303.129 45.7323 303.129L78.0264 322.587C103.988 338.235 131.769 338.234 157.712 322.588L190.007 303.13C218.119 286.186 248.203 286.185 276.299 303.13L272.994 323.816C247.052 308.169 219.271 308.169 193.309 323.816L161.016 343.273C161.016 343.274 161.017 343.273 161.016 343.273C132.921 360.217 102.836 360.217 74.7246 343.274L42.431 323.817C16.4884 308.17 -11.2937 308.169 -37.2555 323.816L-69.5486 343.273C-97.644 360.218 -127.728 360.218 -155.84 343.274C-155.84 343.274 -155.84 343.274 -155.84 343.274L-188.134 323.817C-214.076 308.17 -241.859 308.169 -267.82 323.816L-300.113 343.273C-328.209 360.218 -358.293 360.218 -386.405 343.274C-386.405 343.274 -386.404 343.274 -386.405 343.274L-418.7 323.816Z" fill="#4E82B5"/>
<path fill-rule="evenodd" clip-rule="evenodd" d="M-418.7 403.73C-444.643 388.083 -472.423 388.083 -498.385 403.73L-501.688 383.044C-473.576 366.1 -443.492 366.1 -415.397 383.044C-415.397 383.044 -415.398 383.043 -415.397 383.044L-383.103 402.501C-357.142 418.149 -329.36 418.149 -303.418 402.502L-271.123 383.044C-271.122 383.044 -271.123 383.044 -271.123 383.044C-243.011 366.101 -212.927 366.1 -184.833 383.044C-184.832 383.044 -184.833 383.043 -184.833 383.044L-152.538 402.501C-126.577 418.149 -98.7955 418.149 -72.8529 402.502L-40.5578 383.044C-40.5576 383.044 -40.5579 383.044 -40.5578 383.044C-12.4463 366.101 17.6374 366.1 45.7323 383.044C45.7328 383.044 45.7318 383.043 45.7323 383.044L78.0264 402.501C103.988 418.149 131.769 418.149 157.712 402.502L190.007 383.044C218.119 366.1 248.203 366.1 276.299 383.044L272.994 403.73C247.052 388.083 219.271 388.083 193.309 403.73L161.016 423.187C161.016 423.188 161.017 423.187 161.016 423.187C132.921 440.131 102.836 440.131 74.7246 423.188L42.431 403.731C16.4884 388.084 -11.2937 388.083 -37.2555 403.73L-69.5486 423.187C-97.644 440.132 -127.728 440.132 -155.84 423.188C-155.84 423.188 -155.84 423.188 -155.84 423.188L-188.134 403.731C-214.076 388.084 -241.859 388.083 -267.82 403.73L-300.113 423.187C-328.209 440.132 -358.293 440.132 -386.405 423.188C-386.405 423.188 -386.404 423.188 -386.405 423.188L-418.7 403.73Z" fill="#4E82B5"/>
</g>
<defs>
<clipPath id="clip0_6_2230">
<rect width="1200" height="675" fill="white"/>
</clipPath>
</defs>
</svg>
