<svg width="1184" height="666" viewBox="0 0 1184 666" fill="none" xmlns="http://www.w3.org/2000/svg">
<g clip-path="url(#clip0_1_5572)">
<rect width="1184" height="666" fill="#DFD4D8"/>
<rect x="-30" y="292.611" width="1244.97" height="27.1021" fill="#4E82B5"/>
<rect x="-30" y="130" width="1244.97" height="27.1021" fill="#4E82B5"/>
<rect x="-30" y="184.205" width="1244.97" height="27.1021" fill="#4E82B5"/>
<rect x="-30" y="455.225" width="1244.97" height="27.1021" fill="#4E82B5"/>
<rect x="-30" y="509.43" width="1244.97" height="27.1021" fill="#4E82B5"/>
<rect x="-30" y="401.02" width="1244.97" height="27.1021" fill="#4E82B5"/>
<rect x="-30" y="238.408" width="1244.97" height="27.1021" fill="#4E82B5"/>
<rect x="-30" y="346.816" width="1244.97" height="27.1021" fill="#4E82B5"/>
<path d="M987 428C987 323.066 901.71 238 796.5 238C691.29 238 606 323.066 606 428L680.706 428C680.706 364.216 732.549 312.51 796.5 312.51C860.451 312.51 912.294 364.216 912.294 428L987 428Z" fill="#14324F"/>
<path d="M197 238C197 342.934 282.066 428 387 428C491.934 428 577 342.934 577 238H197Z" fill="#14324F"/>
</g>
<defs>
<clipPath id="clip0_1_5572">
<rect width="1184" height="666" fill="white"/>
</clipPath>
</defs>
</svg>
