<svg width="1200" height="675" viewBox="0 0 1200 675" fill="none" xmlns="http://www.w3.org/2000/svg">
<g clip-path="url(#clip0_6_2178)">
<rect width="1200" height="675" fill="#DFD4D8"/>
<rect y="326" width="1198" height="340" fill="#F4F4EF"/>
<path fill-rule="evenodd" clip-rule="evenodd" d="M96.2225 96.4064C55.5462 62.9459 11.9863 62.9431 -28.7236 96.4091L-39.5273 4.10156C8.21565 -35.1461 59.3095 -35.1503 107.028 4.10016C107.028 4.10048 107.027 4.09985 107.028 4.10016C107.029 4.10121 107.032 4.1032 107.033 4.10424L159.855 47.5122C200.565 80.9782 244.126 80.9768 284.803 47.5163L284.808 47.5122L337.633 4.10156C337.633 4.1011 337.632 4.10203 337.633 4.10156C385.375 -35.1447 436.47 -35.1498 484.188 4.10017C484.19 4.10153 484.191 4.10288 484.193 4.10424L537.015 47.5122C577.725 80.9782 621.286 80.9768 661.963 47.5163L661.968 47.5122L714.793 4.10156C714.794 4.1011 714.792 4.10202 714.793 4.10156C762.535 -35.1447 813.63 -35.1498 861.348 4.10016C861.35 4.10152 861.351 4.10289 861.353 4.10424L914.175 47.5122C954.885 80.9782 998.447 80.9768 1039.12 47.5163L1039.13 47.5122L1091.95 4.10156C1091.95 4.1011 1091.95 4.10202 1091.95 4.10156C1139.7 -35.1461 1190.79 -35.1498 1238.51 4.10424L1227.7 96.4064C1187.03 62.9459 1143.47 62.9431 1102.76 96.4091L1049.93 139.818C1049.93 139.82 1049.93 139.821 1049.93 139.823C1002.21 179.073 951.116 179.069 903.373 139.821L850.548 96.4105L850.543 96.4064C809.867 62.9459 766.307 62.9431 725.597 96.4091L672.773 139.818C672.771 139.82 672.77 139.821 672.768 139.823C625.05 179.073 573.957 179.069 526.215 139.823C526.214 139.822 526.215 139.823 526.215 139.823L473.383 96.4064C432.706 62.9459 389.146 62.9431 348.437 96.4091L295.613 139.818C295.611 139.82 295.61 139.821 295.608 139.823C247.89 179.073 196.797 179.069 149.054 139.823C149.054 139.822 149.055 139.823 149.054 139.823L96.2225 96.4064Z" fill="#4E82B5"/>
<path fill-rule="evenodd" clip-rule="evenodd" d="M96.2225 275.419C55.5462 241.785 11.9863 241.782 -28.7236 275.422L-39.5273 182.634C8.21565 143.182 59.3095 143.178 107.028 182.632C107.028 182.633 107.027 182.632 107.028 182.632C107.029 182.633 107.032 182.635 107.033 182.636L159.855 226.271C200.565 259.911 244.126 259.909 284.803 226.275L284.808 226.271L337.633 182.634C337.633 182.633 337.632 182.634 337.633 182.634C385.375 143.183 436.47 143.178 484.188 182.632C484.19 182.634 484.191 182.635 484.193 182.636L537.015 226.271C577.725 259.911 621.286 259.909 661.963 226.275L661.968 226.27L714.793 182.634C714.794 182.633 714.792 182.634 714.793 182.634C762.535 143.183 813.63 143.178 861.348 182.632C861.35 182.634 861.351 182.635 861.353 182.636L914.175 226.271C954.885 259.911 998.447 259.909 1039.12 226.275L1039.13 226.271L1091.95 182.634C1091.95 182.633 1091.95 182.634 1091.95 182.634C1139.7 143.182 1190.79 143.178 1238.51 182.636L1227.7 275.419C1187.03 241.785 1143.47 241.782 1102.76 275.422L1049.93 319.058C1049.93 319.059 1049.93 319.06 1049.93 319.062C1002.21 358.517 951.116 358.512 903.373 319.06L850.548 275.424L850.543 275.419C809.867 241.785 766.307 241.782 725.597 275.422L672.773 319.058C672.771 319.059 672.77 319.06 672.768 319.062C625.05 358.516 573.957 358.512 526.215 319.062C526.214 319.061 526.215 319.062 526.215 319.062L473.383 275.419C432.706 241.785 389.146 241.782 348.437 275.422L295.613 319.058C295.611 319.059 295.61 319.06 295.608 319.062C247.89 358.516 196.797 358.512 149.054 319.062C149.054 319.061 149.055 319.062 149.054 319.062L96.2225 275.419Z" fill="#4E82B5"/>
<path fill-rule="evenodd" clip-rule="evenodd" d="M96.2225 453.417C55.5462 419.608 11.9863 419.605 -28.7236 453.42L-39.5273 360.15C8.21565 320.494 59.3095 320.49 107.028 360.149C107.028 360.149 107.027 360.149 107.028 360.149C107.029 360.15 107.032 360.152 107.033 360.153L159.855 404.013C200.565 437.828 244.126 437.826 284.803 404.017L284.808 404.013L337.633 360.15C337.633 360.15 337.632 360.151 337.633 360.15C385.375 320.495 436.47 320.49 484.188 360.149C484.19 360.15 484.191 360.152 484.193 360.153L537.015 404.013C577.725 437.828 621.286 437.826 661.963 404.017L661.968 404.013L714.793 360.15C714.794 360.15 714.792 360.151 714.793 360.15C762.535 320.495 813.63 320.49 861.348 360.149C861.35 360.15 861.351 360.152 861.353 360.153L914.175 404.013C954.885 437.828 998.447 437.826 1039.12 404.017L1039.13 404.013L1091.95 360.15C1091.95 360.15 1091.95 360.151 1091.95 360.15C1139.7 320.494 1190.79 320.49 1238.51 360.153L1227.7 453.417C1187.03 419.608 1143.47 419.605 1102.76 453.42L1049.93 497.281C1049.93 497.282 1049.93 497.284 1049.93 497.285C1002.21 536.944 951.116 536.94 903.373 497.284L850.548 453.421L850.543 453.417C809.867 419.608 766.307 419.605 725.597 453.42L672.773 497.281C672.771 497.282 672.77 497.284 672.768 497.285C625.05 536.944 573.957 536.94 526.215 497.285C526.214 497.285 526.215 497.286 526.215 497.285L473.383 453.417C432.706 419.608 389.146 419.605 348.437 453.42L295.613 497.281C295.611 497.282 295.61 497.284 295.608 497.285C247.89 536.944 196.797 536.94 149.054 497.285C149.054 497.285 149.055 497.286 149.054 497.285L96.2225 453.417Z" fill="#4E82B5"/>
<path fill-rule="evenodd" clip-rule="evenodd" d="M96.2225 631.921C55.5462 598.635 11.9863 598.632 -28.7236 631.923L-39.5273 540.097C8.21565 501.053 59.3095 501.049 107.028 540.095C107.028 540.096 107.027 540.095 107.028 540.095C107.029 540.096 107.032 540.098 107.033 540.099L159.855 583.281C200.565 616.573 244.126 616.572 284.803 583.285L284.808 583.281L337.633 540.097C337.633 540.096 337.632 540.097 337.633 540.097C385.375 501.055 436.47 501.05 484.188 540.095C484.19 540.097 484.191 540.098 484.193 540.099L537.015 583.281C577.725 616.573 621.286 616.572 661.963 583.285L661.968 583.281L714.793 540.097C714.794 540.096 714.792 540.097 714.793 540.097C762.535 501.055 813.63 501.05 861.348 540.095C861.35 540.097 861.351 540.098 861.353 540.099L914.175 583.281C954.885 616.573 998.447 616.572 1039.12 583.285L1039.13 583.281L1091.95 540.097C1091.95 540.096 1091.95 540.097 1091.95 540.097C1139.7 501.053 1190.79 501.05 1238.51 540.099L1227.7 631.921C1187.03 598.635 1143.47 598.632 1102.76 631.923L1049.93 675.107C1049.93 675.108 1049.93 675.109 1049.93 675.111C1002.21 714.157 951.116 714.153 903.373 675.109L850.548 631.925L850.543 631.921C809.867 598.635 766.307 598.632 725.597 631.923L672.773 675.107C672.771 675.108 672.77 675.109 672.768 675.111C625.05 714.156 573.957 714.153 526.215 675.111C526.214 675.11 526.215 675.111 526.215 675.111L473.383 631.921C432.706 598.635 389.146 598.632 348.437 631.923L295.613 675.107C295.611 675.108 295.61 675.109 295.608 675.111C247.89 714.156 196.797 714.153 149.054 675.111C149.054 675.11 149.055 675.111 149.054 675.111L96.2225 631.921Z" fill="#4E82B5"/>
<circle cx="181" cy="106" r="327" fill="#14324F"/>
<rect width="109.689" height="14.3327" transform="matrix(-1 0 0 1 865.711 451)" fill="#393A3D"/>
<rect width="109.689" height="14.3327" transform="matrix(-1 0 0 1 865.711 479.664)" fill="#393A3D"/>
<rect width="109.689" height="14.3327" transform="matrix(-1 0 0 1 865.711 508.332)" fill="#393A3D"/>
<rect width="109.689" height="14.3327" transform="matrix(-1 0 0 1 865.711 536.996)" fill="#393A3D"/>
<rect width="109.689" height="14.3327" transform="matrix(-1 0 0 1 865.711 565.66)" fill="#393A3D"/>
<rect width="109.689" height="14.3327" transform="matrix(-1 0 0 1 865.711 594.328)" fill="#393A3D"/>
<rect width="109.689" height="14.3327" transform="matrix(-1 0 0 1 865.711 622.992)" fill="#393A3D"/>
<rect width="109.689" height="14.3327" transform="matrix(-1 0 0 1 865.711 651.656)" fill="#393A3D"/>
<path d="M903 435C903 491.333 948.219 537 1004 537C1059.78 537 1105 491.333 1105 435H903Z" fill="#393A3D"/>
<path d="M869 435C869 379.219 823.557 334 767.5 334C711.443 334 666 379.219 666 435L869 435Z" fill="#393A3D"/>
</g>
<defs>
<clipPath id="clip0_6_2178">
<rect width="1200" height="675" fill="white"/>
</clipPath>
</defs>
</svg>
