<svg width="1184" height="666" viewBox="0 0 1184 666" fill="none" xmlns="http://www.w3.org/2000/svg">
<g clip-path="url(#clip0_1_5539)">
<rect width="1184" height="666" fill="#F4F4EF"/>
<rect width="1197" height="223" fill="#DFD4D8"/>
<path fill-rule="evenodd" clip-rule="evenodd" d="M108.638 173.838C67.6758 150.018 23.8117 150.017 -17.1804 173.839L-22.3945 142.346C21.9919 116.552 69.492 116.551 113.852 142.346C113.853 142.346 113.852 142.345 113.852 142.346L164.843 171.968C205.835 195.789 249.7 195.789 290.662 171.969L341.654 142.346C341.654 142.346 341.654 142.346 341.654 142.346C386.04 116.553 433.541 116.551 477.901 142.346C477.902 142.346 477.9 142.345 477.901 142.346L528.891 171.968C569.883 195.789 613.748 195.789 654.71 171.969L705.702 142.346C705.702 142.346 705.702 142.346 705.702 142.346C750.088 116.552 797.589 116.551 841.949 142.346C841.95 142.346 841.948 142.345 841.949 142.346L892.94 171.968C933.932 195.789 977.797 195.789 1018.76 171.969L1069.75 142.346C1114.14 116.552 1161.64 116.551 1206 142.347L1200.78 173.838C1159.82 150.018 1115.96 150.017 1074.96 173.839L1023.98 203.46C1023.97 203.46 1023.98 203.459 1023.98 203.46C979.615 229.255 932.113 229.255 887.726 203.461L836.737 173.839C795.775 150.019 751.908 150.017 710.916 173.839L659.927 203.46C615.566 229.256 568.066 229.255 523.679 203.461C523.679 203.461 523.679 203.461 523.679 203.461L472.688 173.839C431.727 150.019 387.86 150.017 346.868 173.839L295.879 203.46C251.518 229.256 204.018 229.255 159.63 203.461C159.63 203.461 159.631 203.461 159.63 203.461L108.638 173.838Z" fill="#4E82B5"/>
<path fill-rule="evenodd" clip-rule="evenodd" d="M108.638 295.498C67.6758 271.678 23.8117 271.677 -17.1804 295.499L-22.3945 264.006C21.9919 238.212 69.492 238.211 113.852 264.006C113.853 264.006 113.852 264.005 113.852 264.006L164.843 293.628C205.835 317.449 249.7 317.449 290.662 293.629L341.654 264.006C341.654 264.006 341.654 264.007 341.654 264.006C386.04 238.213 433.541 238.211 477.901 264.006C477.902 264.006 477.9 264.005 477.901 264.006L528.891 293.628C569.883 317.449 613.748 317.449 654.71 293.629L705.702 264.006C705.702 264.006 705.702 264.007 705.702 264.006C750.088 238.213 797.589 238.211 841.949 264.006C841.95 264.006 841.948 264.005 841.949 264.006L892.94 293.628C933.932 317.449 977.797 317.449 1018.76 293.629L1069.75 264.006C1114.14 238.212 1161.64 238.211 1206 264.007L1200.78 295.498C1159.82 271.678 1115.96 271.677 1074.96 295.499L1023.98 325.12C1023.97 325.12 1023.98 325.119 1023.98 325.12C979.615 350.915 932.113 350.915 887.726 325.121L836.737 295.499C795.775 271.68 751.908 271.677 710.916 295.499L659.927 325.12C615.566 350.916 568.066 350.915 523.679 325.121C523.679 325.121 523.679 325.121 523.679 325.121L472.688 295.499C431.727 271.68 387.86 271.677 346.868 295.499L295.879 325.12C251.518 350.916 204.018 350.915 159.63 325.121C159.63 325.121 159.631 325.121 159.63 325.121L108.638 295.498Z" fill="#4E82B5"/>
<path fill-rule="evenodd" clip-rule="evenodd" d="M108.638 417.158C67.6758 393.338 23.8117 393.337 -17.1804 417.159L-22.3945 385.667C21.9919 359.872 69.492 359.871 113.852 385.666C113.853 385.667 113.852 385.666 113.852 385.666L164.843 415.288C205.835 439.11 249.7 439.109 290.662 415.289L341.654 385.667C341.654 385.666 341.654 385.667 341.654 385.667C386.04 359.873 433.541 359.871 477.901 385.666C477.902 385.667 477.9 385.666 477.901 385.666L528.891 415.288C569.883 439.11 613.748 439.109 654.71 415.289L705.702 385.667C705.702 385.666 705.702 385.667 705.702 385.667C750.088 359.873 797.589 359.871 841.949 385.666C841.95 385.667 841.948 385.666 841.949 385.666L892.94 415.288C933.932 439.11 977.797 439.109 1018.76 415.289L1069.75 385.667C1114.14 359.872 1161.64 359.871 1206 385.667L1200.78 417.158C1159.82 393.338 1115.96 393.337 1074.96 417.159L1023.98 446.78C1023.97 446.78 1023.98 446.779 1023.98 446.78C979.615 472.575 932.113 472.575 887.726 446.781L836.737 417.16C795.775 393.34 751.908 393.337 710.916 417.159L659.927 446.78C615.566 472.576 568.066 472.576 523.679 446.781C523.679 446.781 523.679 446.781 523.679 446.781L472.688 417.16C431.727 393.34 387.86 393.337 346.868 417.159L295.879 446.78C251.518 472.576 204.018 472.576 159.63 446.781C159.63 446.781 159.631 446.781 159.63 446.781L108.638 417.158Z" fill="#4E82B5"/>
<path fill-rule="evenodd" clip-rule="evenodd" d="M108.638 538.818C67.6758 514.999 23.8117 514.998 -17.1804 538.819L-22.3945 507.327C21.9919 481.533 69.492 481.531 113.852 507.326C113.853 507.327 113.852 507.326 113.852 507.326L164.843 536.948C205.835 560.77 249.7 560.769 290.662 536.949L341.654 507.327C341.654 507.327 341.654 507.327 341.654 507.327C386.04 481.533 433.541 481.531 477.901 507.326C477.902 507.327 477.9 507.326 477.901 507.326L528.891 536.948C569.883 560.77 613.748 560.769 654.71 536.949L705.702 507.327C705.702 507.327 705.702 507.327 705.702 507.327C750.088 481.533 797.589 481.531 841.949 507.326C841.95 507.327 841.948 507.326 841.949 507.326L892.94 536.948C933.932 560.77 977.797 560.769 1018.76 536.949L1069.75 507.327C1114.14 481.532 1161.64 481.531 1206 507.328L1200.78 538.818C1159.82 514.999 1115.96 514.998 1074.96 538.819L1023.98 568.44C1023.97 568.441 1023.98 568.44 1023.98 568.44C979.615 594.235 932.113 594.235 887.726 568.441L836.737 538.82C795.775 515 751.908 514.998 710.916 538.819L659.927 568.44C615.566 594.236 568.066 594.236 523.679 568.441C523.679 568.441 523.679 568.442 523.679 568.441L472.688 538.82C431.727 515 387.86 514.998 346.868 538.819L295.879 568.44C251.518 594.236 204.018 594.236 159.63 568.441C159.63 568.441 159.631 568.442 159.63 568.441L108.638 538.818Z" fill="#4E82B5"/>
<path fill-rule="evenodd" clip-rule="evenodd" d="M108.638 660.479C67.6758 636.659 23.8117 636.658 -17.1804 660.479L-22.3945 628.987C21.9919 603.193 69.492 603.191 113.852 628.986C113.853 628.987 113.852 628.986 113.852 628.986L164.843 658.608C205.835 682.43 249.7 682.429 290.662 658.61L341.654 628.987C341.654 628.987 341.654 628.987 341.654 628.987C386.04 603.193 433.541 603.191 477.901 628.986C477.902 628.987 477.9 628.986 477.901 628.986L528.891 658.608C569.883 682.43 613.748 682.429 654.71 658.61L705.702 628.987C705.702 628.987 705.702 628.987 705.702 628.987C750.088 603.193 797.589 603.191 841.949 628.986C841.95 628.987 841.948 628.986 841.949 628.986L892.94 658.608C933.932 682.43 977.797 682.429 1018.76 658.61L1069.75 628.987C1114.14 603.192 1161.64 603.191 1206 628.988L1200.78 660.479C1159.82 636.659 1115.96 636.658 1074.96 660.479L1023.98 690.1C1023.97 690.101 1023.98 690.1 1023.98 690.1C979.615 715.895 932.113 715.895 887.726 690.101L836.737 660.48C795.775 636.66 751.908 636.658 710.916 660.479L659.927 690.1C615.566 715.897 568.066 715.896 523.679 690.102C523.679 690.101 523.679 690.102 523.679 690.102L472.688 660.48C431.727 636.66 387.86 636.658 346.868 660.479L295.879 690.1C251.518 715.897 204.018 715.896 159.63 690.102C159.63 690.101 159.631 690.102 159.63 690.102L108.638 660.479Z" fill="#4E82B5"/>
<circle cx="591.553" cy="665.553" r="249.553" fill="#14324F"/>
</g>
<defs>
<clipPath id="clip0_1_5539">
<rect width="1184" height="666" fill="white"/>
</clipPath>
</defs>
</svg>
