<svg width="1200" height="675" viewBox="0 0 1200 675" fill="none" xmlns="http://www.w3.org/2000/svg">
<g clip-path="url(#clip0_6_2160)">
<rect width="1200" height="675" fill="#F4F4EF"/>
<rect width="502" height="666" fill="#DFD4D8"/>
<path fill-rule="evenodd" clip-rule="evenodd" d="M-186.606 391.163C-212.549 375.517 -240.33 375.516 -266.291 391.164L-269.594 370.477C-241.482 353.534 -211.399 353.533 -183.304 370.477C-183.303 370.477 -183.304 370.477 -183.304 370.477L-151.01 389.935C-125.048 405.582 -97.2665 405.582 -71.324 389.936L-39.0289 370.477C-39.0287 370.477 -39.029 370.478 -39.0289 370.477C-10.9175 353.534 19.1663 353.533 47.2612 370.477C47.2617 370.477 47.2607 370.477 47.2612 370.477L79.5553 389.935C105.517 405.582 133.298 405.582 159.241 389.936L191.536 370.477C191.536 370.477 191.536 370.478 191.536 370.477C219.647 353.534 249.731 353.533 277.826 370.477C277.827 370.477 277.826 370.477 277.826 370.477L310.12 389.935C336.082 405.582 363.863 405.582 389.806 389.936L422.101 370.477C450.213 353.534 480.297 353.533 508.392 370.478L505.088 391.163C479.146 375.517 451.365 375.516 425.403 391.164L393.11 410.621C393.11 410.621 393.111 410.621 393.11 410.621C365.015 427.565 334.93 427.565 306.818 410.622L274.525 391.164C248.582 375.518 220.8 375.516 194.838 391.164L162.545 410.621C134.45 427.566 104.366 427.565 76.2541 410.622C76.2539 410.622 76.2542 410.622 76.2541 410.622L43.96 391.164C18.0174 375.518 -9.76481 375.516 -35.7266 391.164L-68.0197 410.621C-96.115 427.566 -126.199 427.565 -154.311 410.622C-154.311 410.622 -154.311 410.622 -154.311 410.622L-186.606 391.163Z" fill="#4E82B5"/>
<path fill-rule="evenodd" clip-rule="evenodd" d="M-186.606 471.077C-212.549 455.431 -240.33 455.43 -266.291 471.078L-269.594 450.392C-241.482 433.448 -211.399 433.447 -183.304 450.391C-183.303 450.392 -183.304 450.391 -183.304 450.391L-151.01 469.849C-125.048 485.496 -97.2665 485.496 -71.324 469.85L-39.0289 450.392C-39.0287 450.391 -39.029 450.392 -39.0289 450.392C-10.9175 433.448 19.1663 433.447 47.2612 450.391C47.2617 450.392 47.2607 450.391 47.2612 450.391L79.5553 469.849C105.517 485.496 133.298 485.496 159.241 469.85L191.536 450.392C191.536 450.391 191.536 450.392 191.536 450.392C219.647 433.448 249.731 433.447 277.826 450.391C277.827 450.392 277.826 450.391 277.826 450.391L310.12 469.849C336.082 485.496 363.863 485.496 389.806 469.85L422.101 450.392C450.213 433.448 480.297 433.447 508.392 450.392L505.088 471.077C479.146 455.431 451.365 455.43 425.403 471.078L393.11 490.535C393.11 490.535 393.111 490.535 393.11 490.535C365.015 507.479 334.93 507.479 306.818 490.536L274.525 471.078C248.582 455.432 220.8 455.43 194.838 471.078L162.545 490.535C134.45 507.48 104.366 507.479 76.2541 490.536C76.2539 490.536 76.2542 490.536 76.2541 490.536L43.96 471.078C18.0174 455.432 -9.76481 455.43 -35.7266 471.078L-68.0197 490.535C-96.115 507.48 -126.199 507.479 -154.311 490.536C-154.311 490.536 -154.311 490.536 -154.311 490.536L-186.606 471.077Z" fill="#4E82B5"/>
<path fill-rule="evenodd" clip-rule="evenodd" d="M-186.606 550.991C-212.549 535.345 -240.33 535.344 -266.291 550.992L-269.594 530.306C-241.482 513.362 -211.399 513.361 -183.304 530.305C-183.303 530.306 -183.304 530.305 -183.304 530.305L-151.01 549.763C-125.048 565.411 -97.2665 565.41 -71.324 549.764L-39.0289 530.306C-39.0287 530.305 -39.029 530.306 -39.0289 530.306C-10.9175 513.363 19.1663 513.361 47.2612 530.305C47.2617 530.306 47.2607 530.305 47.2612 530.305L79.5553 549.763C105.517 565.411 133.298 565.41 159.241 549.764L191.536 530.306C191.536 530.305 191.536 530.306 191.536 530.306C219.647 513.362 249.731 513.361 277.826 530.305C277.827 530.306 277.826 530.305 277.826 530.305L310.12 549.763C336.082 565.411 363.863 565.41 389.806 549.764L422.101 530.306C450.213 513.362 480.297 513.361 508.392 530.306L505.088 550.991C479.146 535.345 451.365 535.344 425.403 550.992L393.11 570.449C393.11 570.449 393.111 570.449 393.11 570.449C365.015 587.393 334.93 587.393 306.818 570.45L274.525 550.992C248.582 535.346 220.8 535.344 194.838 550.992L162.545 570.449C134.45 587.394 104.366 587.393 76.2541 570.45C76.2539 570.45 76.2542 570.45 76.2541 570.45L43.96 550.992C18.0174 535.346 -9.76481 535.344 -35.7266 550.992L-68.0197 570.449C-96.115 587.394 -126.199 587.393 -154.311 570.45C-154.311 570.45 -154.311 570.45 -154.311 570.45L-186.606 550.991Z" fill="#4E82B5"/>
<path fill-rule="evenodd" clip-rule="evenodd" d="M-186.606 630.909C-212.549 615.263 -240.33 615.262 -266.291 630.91L-269.594 610.224C-241.482 593.28 -211.399 593.279 -183.304 610.223C-183.303 610.224 -183.304 610.223 -183.304 610.223L-151.01 629.681C-125.048 645.329 -97.2665 645.328 -71.324 629.682L-39.0289 610.224C-39.0287 610.223 -39.029 610.224 -39.0289 610.224C-10.9175 593.28 19.1663 593.279 47.2612 610.223C47.2617 610.224 47.2607 610.223 47.2612 610.223L79.5553 629.681C105.517 645.329 133.298 645.328 159.241 629.682L191.536 610.224C191.536 610.223 191.536 610.224 191.536 610.224C219.647 593.28 249.731 593.279 277.826 610.223C277.827 610.224 277.826 610.223 277.826 610.223L310.12 629.681C336.082 645.329 363.863 645.328 389.806 629.682L422.101 610.224C450.213 593.28 480.297 593.279 508.392 610.224L505.088 630.909C479.146 615.263 451.365 615.262 425.403 630.91L393.11 650.367C393.11 650.367 393.111 650.367 393.11 650.367C365.015 667.311 334.93 667.311 306.818 650.368L274.525 630.91C248.582 615.264 220.8 615.262 194.838 630.91L162.545 650.367C134.45 667.312 104.366 667.311 76.2541 650.368C76.2539 650.368 76.2542 650.368 76.2541 650.368L43.96 630.91C18.0174 615.264 -9.76481 615.262 -35.7266 630.91L-68.0197 650.367C-96.115 667.312 -126.199 667.311 -154.311 650.368C-154.311 650.368 -154.311 650.368 -154.311 650.368L-186.606 630.909Z" fill="#4E82B5"/>
<path fill-rule="evenodd" clip-rule="evenodd" d="M-186.606 710.823C-212.549 695.177 -240.33 695.176 -266.291 710.824L-269.594 690.138C-241.482 673.194 -211.399 673.193 -183.304 690.137C-183.303 690.138 -183.304 690.137 -183.304 690.137L-151.01 709.595C-125.048 725.243 -97.2665 725.242 -71.324 709.596L-39.0289 690.138C-39.0287 690.138 -39.029 690.138 -39.0289 690.138C-10.9175 673.195 19.1663 673.193 47.2612 690.137C47.2617 690.138 47.2607 690.137 47.2612 690.137L79.5553 709.595C105.517 725.243 133.298 725.242 159.241 709.596L191.536 690.138C191.536 690.138 191.536 690.138 191.536 690.138C219.647 673.195 249.731 673.193 277.826 690.137C277.827 690.138 277.826 690.137 277.826 690.137L310.12 709.595C336.082 725.243 363.863 725.242 389.806 709.596L422.101 690.138C450.213 673.194 480.297 673.193 508.392 690.138L505.088 710.823C479.146 695.177 451.365 695.176 425.403 710.824L393.11 730.281C393.11 730.281 393.111 730.281 393.11 730.281C365.015 747.225 334.93 747.225 306.818 730.282L274.525 710.824C248.582 695.178 220.8 695.176 194.838 710.824L162.545 730.281C134.45 747.226 104.366 747.225 76.2541 730.282C76.2539 730.282 76.2542 730.282 76.2541 730.282L43.96 710.824C18.0174 695.178 -9.76481 695.176 -35.7266 710.824L-68.0197 730.281C-96.115 747.226 -126.199 747.225 -154.311 730.282C-154.311 730.282 -154.311 730.282 -154.311 730.282L-186.606 710.823Z" fill="#4E82B5"/>
<path d="M493 0V666H1159L493 0Z" fill="#393A3D"/>
<path fill-rule="evenodd" clip-rule="evenodd" d="M987.5 317C1058.47 317 1116 259.469 1116 188.5C1116 117.531 1058.47 60 987.5 60C916.531 60 859 117.531 859 188.5C859 259.469 916.531 317 987.5 317ZM987.5 266.608C1030.64 266.608 1065.61 231.638 1065.61 188.5C1065.61 145.362 1030.64 110.392 987.5 110.392C944.362 110.392 909.392 145.362 909.392 188.5C909.392 231.638 944.362 266.608 987.5 266.608Z" fill="#14324F"/>
</g>
<defs>
<clipPath id="clip0_6_2160">
<rect width="1200" height="675" fill="white"/>
</clipPath>
</defs>
</svg>
