<svg width="1184" height="666" viewBox="0 0 1184 666" fill="none" xmlns="http://www.w3.org/2000/svg">
<g clip-path="url(#clip0_1_5527)">
<rect width="1184" height="666" fill="#F4F4EF"/>
<rect x="1" width="1182" height="336" fill="#DFD4D8"/>
<path d="M813 160V688H285L813 160Z" fill="#14324F"/>
<path fill-rule="evenodd" clip-rule="evenodd" d="M86.9398 699.494C46.8059 666.651 3.82677 666.648 -36.3403 699.496L-47 608.894C0.106419 570.371 50.519 570.367 97.6011 608.892C97.6015 608.893 97.6007 608.892 97.6011 608.892C97.6023 608.893 97.6047 608.895 97.606 608.896L149.724 651.502C189.891 684.35 232.872 684.349 273.006 651.506L273.01 651.502L325.131 608.894C325.132 608.893 325.131 608.894 325.131 608.894C372.237 570.372 422.651 570.367 469.732 608.892C469.734 608.894 469.736 608.895 469.737 608.896L521.855 651.502C562.022 684.35 605.003 684.349 645.137 651.506L645.142 651.502L697.263 608.894C697.263 608.893 697.262 608.894 697.263 608.894C744.369 570.372 794.782 570.367 841.864 608.892C841.865 608.894 841.867 608.895 841.869 608.896L893.986 651.502C934.153 684.35 977.134 684.349 1017.27 651.506L1017.27 651.502L1069.39 608.894C1069.39 608.893 1069.39 608.894 1069.39 608.894C1116.5 570.371 1166.92 570.367 1214 608.896L1203.33 699.494C1163.2 666.651 1120.22 666.648 1080.05 699.496L1027.93 742.104C1027.93 742.105 1027.93 742.106 1027.93 742.108C980.847 780.633 930.435 780.629 883.328 742.106L831.207 699.498L831.202 699.494C791.069 666.651 748.09 666.648 707.922 699.496L655.803 742.104C655.801 742.105 655.8 742.106 655.798 742.108C608.717 780.633 558.305 780.629 511.199 742.108C511.198 742.107 511.199 742.108 511.199 742.108L459.071 699.494C418.937 666.651 375.958 666.648 335.791 699.496L283.672 742.104C283.67 742.105 283.668 742.106 283.667 742.108C236.585 780.633 186.173 780.629 139.067 742.108C139.067 742.107 139.068 742.108 139.067 742.108L86.9398 699.494Z" fill="#4E82B5"/>
</g>
<defs>
<clipPath id="clip0_1_5527">
<rect width="1184" height="666" fill="white"/>
</clipPath>
</defs>
</svg>
