<svg width="1184" height="666" viewBox="0 0 1184 666" fill="none" xmlns="http://www.w3.org/2000/svg">
<g clip-path="url(#clip0_1_5500)">
<rect width="1184" height="666" fill="#DFD4D8"/>
<rect width="387" height="666" fill="#F4F4EF"/>
<path d="M1024 674C1024 498.374 881.403 356 705.5 356C529.597 356 387 498.374 387 674L1024 674Z" fill="#14324F"/>
<path d="M159 674C159 611.04 210.04 560 273 560C335.96 560 387 611.04 387 674L159 674Z" fill="#393A3D"/>
<path d="M887 196L946.756 298.75H827.244L887 196Z" fill="#4E82B5"/>
<path d="M738 196L797.756 298.75H678.244L738 196Z" fill="#4E82B5"/>
<path d="M1036 196L1095.76 298.75H976.244L1036 196Z" fill="#4E82B5"/>
<path d="M1185 196L1244.76 298.75H1125.24L1185 196Z" fill="#4E82B5"/>
<path d="M960 300L900.244 197.25L1019.76 197.25L960 300Z" fill="#4E82B5"/>
<path d="M811 300L751.244 197.25L870.756 197.25L811 300Z" fill="#4E82B5"/>
<path d="M1109 300L1049.24 197.25L1168.76 197.25L1109 300Z" fill="#4E82B5"/>
<path d="M887 75L946.756 177.75H827.244L887 75Z" fill="#4E82B5"/>
<path d="M738 75L797.756 177.75H678.244L738 75Z" fill="#4E82B5"/>
<path d="M1036 75L1095.76 177.75H976.244L1036 75Z" fill="#4E82B5"/>
<path d="M1185 75L1244.76 177.75H1125.24L1185 75Z" fill="#4E82B5"/>
<path d="M960 179L900.244 76.25L1019.76 76.25L960 179Z" fill="#4E82B5"/>
<path d="M811 179L751.244 76.25L870.756 76.25L811 179Z" fill="#4E82B5"/>
<path d="M1109 179L1049.24 76.25L1168.76 76.25L1109 179Z" fill="#4E82B5"/>
<path fill-rule="evenodd" clip-rule="evenodd" d="M-413.119 82.9485C-438.716 67.5107 -466.126 67.5101 -491.742 82.9491L-495 62.5385C-467.263 45.821 -437.581 45.8201 -409.86 62.5382C-409.86 62.5385 -409.861 62.5379 -409.86 62.5382L-377.997 81.7363C-352.381 97.1754 -324.971 97.1751 -299.374 81.7372L-267.509 62.5385C-267.509 62.5384 -267.509 62.5386 -267.509 62.5385C-239.773 45.8213 -210.09 45.8202 -182.37 62.5382C-182.369 62.5385 -182.37 62.5379 -182.37 62.5382L-150.506 81.7363C-124.891 97.1754 -97.4799 97.1751 -71.8832 81.7372L-40.0187 62.5385C-40.0185 62.5384 -40.0189 62.5386 -40.0187 62.5385C-12.2821 45.8213 17.4005 45.8202 45.1208 62.5382C45.1213 62.5385 45.1203 62.5379 45.1208 62.5382L76.9843 81.7363C102.6 97.1754 130.011 97.1751 155.608 81.7372L187.472 62.5385C215.209 45.8207 244.892 45.8201 272.613 62.5391L269.353 82.9485C243.756 67.5107 216.346 67.5101 190.73 82.9491L158.868 102.147C158.867 102.147 158.868 102.146 158.868 102.147C131.147 118.865 101.463 118.865 73.7266 102.147L41.8636 82.9494C16.2669 67.5116 -11.1448 67.5101 -36.7604 82.9491L-68.623 102.147C-96.3437 118.866 -126.026 118.865 -153.764 102.148C-153.764 102.147 -153.763 102.148 -153.764 102.148L-185.627 82.9494C-211.224 67.5116 -238.635 67.5101 -264.251 82.9491L-296.114 102.147C-323.834 118.866 -353.517 118.865 -381.254 102.148C-381.254 102.147 -381.254 102.148 -381.254 102.148L-413.119 82.9485Z" fill="#4E82B5"/>
<path fill-rule="evenodd" clip-rule="evenodd" d="M-413.119 161.798C-438.716 146.36 -466.126 146.36 -491.742 161.799L-495 141.388C-467.263 124.671 -437.581 124.67 -409.86 141.388C-409.86 141.388 -409.861 141.387 -409.86 141.388L-377.997 160.586C-352.381 176.025 -324.971 176.025 -299.374 160.587L-267.509 141.388C-267.509 141.388 -267.509 141.388 -267.509 141.388C-239.773 124.671 -210.09 124.67 -182.37 141.388C-182.369 141.388 -182.37 141.388 -182.37 141.388L-150.506 160.586C-124.891 176.025 -97.4799 176.025 -71.8832 160.587L-40.0187 141.388C-40.0185 141.388 -40.0189 141.388 -40.0187 141.388C-12.2821 124.671 17.4005 124.67 45.1208 141.388C45.1213 141.388 45.1203 141.388 45.1208 141.388L76.9843 160.586C102.6 176.025 130.011 176.025 155.608 160.587L187.472 141.388C215.209 124.67 244.892 124.67 272.613 141.389L269.353 161.798C243.756 146.36 216.346 146.36 190.73 161.799L158.868 180.996C158.867 180.997 158.868 180.996 158.868 180.996C131.147 197.714 101.463 197.714 73.7266 180.997L41.8636 161.799C16.2669 146.361 -11.1448 146.36 -36.7604 161.799L-68.623 180.996C-96.3437 197.715 -126.026 197.715 -153.764 180.997C-153.764 180.997 -153.763 180.997 -153.764 180.997L-185.627 161.799C-211.224 146.361 -238.635 146.36 -264.251 161.799L-296.114 180.996C-323.834 197.715 -353.517 197.715 -381.254 180.997C-381.254 180.997 -381.254 180.997 -381.254 180.997L-413.119 161.798Z" fill="#4E82B5"/>
<path fill-rule="evenodd" clip-rule="evenodd" d="M-413.119 240.648C-438.716 225.21 -466.126 225.209 -491.742 240.648L-495 220.238C-467.263 203.52 -437.581 203.519 -409.86 220.237C-409.86 220.238 -409.861 220.237 -409.86 220.237L-377.997 239.436C-352.381 254.875 -324.971 254.874 -299.374 239.436L-267.509 220.238C-267.509 220.238 -267.509 220.238 -267.509 220.238C-239.773 203.521 -210.09 203.519 -182.37 220.237C-182.369 220.238 -182.37 220.237 -182.37 220.237L-150.506 239.436C-124.891 254.875 -97.4799 254.874 -71.8832 239.436L-40.0187 220.238C-40.0185 220.238 -40.0189 220.238 -40.0187 220.238C-12.2821 203.521 17.4005 203.519 45.1208 220.237C45.1213 220.238 45.1203 220.237 45.1208 220.237L76.9843 239.436C102.6 254.875 130.011 254.874 155.608 239.436L187.472 220.238C215.209 203.52 244.892 203.519 272.613 220.238L269.353 240.648C243.756 225.21 216.346 225.209 190.73 240.648L158.868 259.846C158.867 259.846 158.868 259.846 158.868 259.846C131.147 276.564 101.463 276.564 73.7266 259.847L41.8636 240.649C16.2669 225.211 -11.1448 225.209 -36.7604 240.648L-68.623 259.846C-96.3437 276.565 -126.026 276.564 -153.764 259.847C-153.764 259.847 -153.763 259.847 -153.764 259.847L-185.627 240.649C-211.224 225.211 -238.635 225.209 -264.251 240.648L-296.114 259.846C-323.834 276.565 -353.517 276.564 -381.254 259.847C-381.254 259.847 -381.254 259.847 -381.254 259.847L-413.119 240.648Z" fill="#4E82B5"/>
<path fill-rule="evenodd" clip-rule="evenodd" d="M-413.119 319.497C-438.716 304.06 -466.126 304.059 -491.742 319.498L-495 299.087C-467.263 282.37 -437.581 282.369 -409.86 299.087C-409.86 299.087 -409.861 299.087 -409.86 299.087L-377.997 318.285C-352.381 333.724 -324.971 333.724 -299.374 318.286L-267.509 299.087C-267.509 299.087 -267.509 299.087 -267.509 299.087C-239.773 282.37 -210.09 282.369 -182.37 299.087C-182.369 299.087 -182.37 299.087 -182.37 299.087L-150.506 318.285C-124.891 333.724 -97.4799 333.724 -71.8832 318.286L-40.0187 299.087C-40.0185 299.087 -40.0189 299.087 -40.0187 299.087C-12.2821 282.37 17.4005 282.369 45.1208 299.087C45.1213 299.087 45.1203 299.087 45.1208 299.087L76.9843 318.285C102.6 333.724 130.011 333.724 155.608 318.286L187.472 299.087C215.209 282.37 244.892 282.369 272.613 299.088L269.353 319.497C243.756 304.06 216.346 304.059 190.73 319.498L158.868 338.696C158.867 338.696 158.868 338.695 158.868 338.696C131.147 355.414 101.463 355.414 73.7266 338.696L41.8636 319.498C16.2669 304.06 -11.1448 304.059 -36.7604 319.498L-68.623 338.696C-96.3437 355.414 -126.026 355.414 -153.764 338.696C-153.764 338.696 -153.763 338.697 -153.764 338.696L-185.627 319.498C-211.224 304.06 -238.635 304.059 -264.251 319.498L-296.114 338.696C-323.834 355.414 -353.517 355.414 -381.254 338.696C-381.254 338.696 -381.254 338.697 -381.254 338.696L-413.119 319.497Z" fill="#4E82B5"/>
<path fill-rule="evenodd" clip-rule="evenodd" d="M-413.119 398.345C-438.716 382.907 -466.126 382.907 -491.742 398.346L-495 377.935C-467.263 361.217 -437.581 361.217 -409.86 377.935C-409.86 377.935 -409.861 377.934 -409.86 377.935L-377.997 397.133C-352.381 412.572 -324.971 412.572 -299.374 397.134L-267.509 377.935C-267.509 377.935 -267.509 377.935 -267.509 377.935C-239.773 361.218 -210.09 361.217 -182.37 377.935C-182.369 377.935 -182.37 377.934 -182.37 377.935L-150.506 397.133C-124.891 412.572 -97.4799 412.572 -71.8832 397.134L-40.0187 377.935C-40.0185 377.935 -40.0189 377.935 -40.0187 377.935C-12.2821 361.218 17.4005 361.217 45.1208 377.935C45.1213 377.935 45.1203 377.934 45.1208 377.935L76.9843 397.133C102.6 412.572 130.011 412.572 155.608 397.134L187.472 377.935C215.209 361.217 244.892 361.217 272.613 377.936L269.353 398.345C243.756 382.907 216.346 382.907 190.73 398.346L158.868 417.543C158.867 417.543 158.868 417.543 158.868 417.543C131.147 434.261 101.463 434.261 73.7266 417.544L41.8636 398.346C16.2669 382.908 -11.1448 382.907 -36.7604 398.346L-68.623 417.543C-96.3437 434.262 -126.026 434.262 -153.764 417.544C-153.764 417.544 -153.763 417.544 -153.764 417.544L-185.627 398.346C-211.224 382.908 -238.635 382.907 -264.251 398.346L-296.114 417.543C-323.834 434.262 -353.517 434.262 -381.254 417.544C-381.254 417.544 -381.254 417.544 -381.254 417.544L-413.119 398.345Z" fill="#4E82B5"/>
</g>
<defs>
<clipPath id="clip0_1_5500">
<rect width="1184" height="666" fill="white"/>
</clipPath>
</defs>
</svg>
