<svg width="1184" height="666" viewBox="0 0 1184 666" fill="none" xmlns="http://www.w3.org/2000/svg">
<g clip-path="url(#clip0_1_5490)">
<rect width="1184" height="666" fill="#F4F4EF"/>
<rect width="502" height="666" fill="#DFD4D8"/>
<path fill-rule="evenodd" clip-rule="evenodd" d="M-184.119 385.949C-209.716 370.511 -237.126 370.51 -262.742 385.949L-266 365.538C-238.263 348.821 -208.581 348.82 -180.86 365.538C-180.86 365.538 -180.861 365.538 -180.86 365.538L-148.997 384.736C-123.381 400.175 -95.9705 400.175 -70.3738 384.737L-38.5093 365.538C-38.5092 365.538 -38.5095 365.539 -38.5093 365.538C-10.7728 348.821 18.9099 348.82 46.6302 365.538C46.6307 365.538 46.6297 365.538 46.6302 365.538L78.4937 384.736C104.109 400.175 131.52 400.175 157.117 384.737L188.981 365.538C188.981 365.538 188.981 365.539 188.981 365.538C216.718 348.821 246.401 348.82 274.121 365.538C274.121 365.538 274.12 365.538 274.121 365.538L305.984 384.736C331.6 400.175 359.011 400.175 384.608 384.737L416.472 365.538C444.209 348.821 473.892 348.82 501.613 365.539L498.353 385.949C472.756 370.511 445.346 370.51 419.73 385.949L387.868 405.147C387.867 405.147 387.868 405.146 387.868 405.147C360.147 421.865 330.463 421.865 302.727 405.147L270.864 385.949C245.267 370.512 217.855 370.51 192.24 385.949L160.377 405.147C132.656 421.866 102.974 421.865 75.2365 405.148C75.2363 405.147 75.2367 405.148 75.2365 405.148L43.373 385.949C17.7763 370.512 -9.63546 370.51 -35.2511 385.949L-67.1136 405.147C-94.8343 421.866 -124.517 421.865 -152.254 405.148C-152.254 405.147 -152.254 405.148 -152.254 405.148L-184.119 385.949Z" fill="#4E82B5"/>
<path fill-rule="evenodd" clip-rule="evenodd" d="M-184.119 464.796C-209.716 449.358 -237.126 449.358 -262.742 464.797L-266 444.386C-238.263 427.669 -208.581 427.668 -180.86 444.386C-180.86 444.386 -180.861 444.386 -180.86 444.386L-148.997 463.584C-123.381 479.023 -95.9705 479.023 -70.3738 463.585L-38.5093 444.386C-38.5092 444.386 -38.5095 444.386 -38.5093 444.386C-10.7728 427.669 18.9099 427.668 46.6302 444.386C46.6307 444.386 46.6297 444.386 46.6302 444.386L78.4937 463.584C104.109 479.023 131.52 479.023 157.117 463.585L188.981 444.386C188.981 444.386 188.981 444.386 188.981 444.386C216.718 427.669 246.401 427.668 274.121 444.386C274.121 444.386 274.12 444.386 274.121 444.386L305.984 463.584C331.6 479.023 359.011 479.023 384.608 463.585L416.472 444.386C444.209 427.668 473.892 427.668 501.613 444.387L498.353 464.796C472.756 449.358 445.346 449.358 419.73 464.797L387.868 483.994C387.867 483.995 387.868 483.994 387.868 483.994C360.147 500.712 330.463 500.712 302.727 483.995L270.864 464.797C245.267 449.359 217.855 449.358 192.24 464.797L160.377 483.994C132.656 500.713 102.974 500.713 75.2365 483.995C75.2363 483.995 75.2367 483.995 75.2365 483.995L43.373 464.797C17.7763 449.359 -9.63546 449.358 -35.2511 464.797L-67.1136 483.994C-94.8343 500.713 -124.517 500.713 -152.254 483.995C-152.254 483.995 -152.254 483.995 -152.254 483.995L-184.119 464.796Z" fill="#4E82B5"/>
<path fill-rule="evenodd" clip-rule="evenodd" d="M-184.119 543.648C-209.716 528.21 -237.126 528.209 -262.742 543.648L-266 523.238C-238.263 506.52 -208.581 506.519 -180.86 523.237C-180.86 523.238 -180.861 523.237 -180.86 523.237L-148.997 542.436C-123.381 557.875 -95.9705 557.874 -70.3738 542.436L-38.5093 523.238C-38.5092 523.238 -38.5095 523.238 -38.5093 523.238C-10.7728 506.521 18.9099 506.519 46.6302 523.237C46.6307 523.238 46.6297 523.237 46.6302 523.237L78.4937 542.436C104.109 557.875 131.52 557.874 157.117 542.436L188.981 523.238C188.981 523.238 188.981 523.238 188.981 523.238C216.718 506.521 246.401 506.519 274.121 523.237C274.121 523.238 274.12 523.237 274.121 523.237L305.984 542.436C331.6 557.875 359.011 557.874 384.608 542.436L416.472 523.238C444.209 506.52 473.892 506.519 501.613 523.238L498.353 543.648C472.756 528.21 445.346 528.209 419.73 543.648L387.868 562.846C387.867 562.846 387.868 562.846 387.868 562.846C360.147 579.564 330.463 579.564 302.727 562.847L270.864 543.649C245.267 528.211 217.855 528.209 192.24 543.648L160.377 562.846C132.656 579.565 102.974 579.564 75.2365 562.847C75.2363 562.847 75.2367 562.847 75.2365 562.847L43.373 543.649C17.7763 528.211 -9.63546 528.209 -35.2511 543.648L-67.1136 562.846C-94.8343 579.565 -124.517 579.564 -152.254 562.847C-152.254 562.847 -152.254 562.847 -152.254 562.847L-184.119 543.648Z" fill="#4E82B5"/>
<path fill-rule="evenodd" clip-rule="evenodd" d="M-184.119 622.497C-209.716 607.06 -237.126 607.059 -262.742 622.498L-266 602.087C-238.263 585.37 -208.581 585.369 -180.86 602.087C-180.86 602.087 -180.861 602.087 -180.86 602.087L-148.997 621.285C-123.381 636.724 -95.9705 636.724 -70.3738 621.286L-38.5093 602.087C-38.5092 602.087 -38.5095 602.087 -38.5093 602.087C-10.7728 585.37 18.9099 585.369 46.6302 602.087C46.6307 602.087 46.6297 602.087 46.6302 602.087L78.4937 621.285C104.109 636.724 131.52 636.724 157.117 621.286L188.981 602.087C188.981 602.087 188.981 602.087 188.981 602.087C216.718 585.37 246.401 585.369 274.121 602.087C274.121 602.087 274.12 602.087 274.121 602.087L305.984 621.285C331.6 636.724 359.011 636.724 384.608 621.286L416.472 602.087C444.209 585.37 473.892 585.369 501.613 602.088L498.353 622.497C472.756 607.06 445.346 607.059 419.73 622.498L387.868 641.696C387.867 641.696 387.868 641.695 387.868 641.696C360.147 658.414 330.463 658.414 302.727 641.696L270.864 622.498C245.267 607.06 217.855 607.059 192.24 622.498L160.377 641.696C132.656 658.414 102.974 658.414 75.2365 641.696C75.2363 641.696 75.2367 641.697 75.2365 641.696L43.373 622.498C17.7763 607.06 -9.63546 607.059 -35.2511 622.498L-67.1136 641.696C-94.8343 658.414 -124.517 658.414 -152.254 641.696C-152.254 641.696 -152.254 641.697 -152.254 641.696L-184.119 622.497Z" fill="#4E82B5"/>
<path fill-rule="evenodd" clip-rule="evenodd" d="M-184.119 701.345C-209.716 685.907 -237.126 685.907 -262.742 701.346L-266 680.935C-238.263 664.217 -208.581 664.217 -180.86 680.935C-180.86 680.935 -180.861 680.934 -180.86 680.935L-148.997 700.133C-123.381 715.572 -95.9705 715.572 -70.3738 700.134L-38.5093 680.935C-38.5092 680.935 -38.5095 680.935 -38.5093 680.935C-10.7728 664.218 18.9099 664.217 46.6302 680.935C46.6307 680.935 46.6297 680.934 46.6302 680.935L78.4937 700.133C104.109 715.572 131.52 715.572 157.117 700.134L188.981 680.935C188.981 680.935 188.981 680.935 188.981 680.935C216.718 664.218 246.401 664.217 274.121 680.935C274.121 680.935 274.12 680.934 274.121 680.935L305.984 700.133C331.6 715.572 359.011 715.572 384.608 700.134L416.472 680.935C444.209 664.217 473.892 664.217 501.613 680.936L498.353 701.345C472.756 685.907 445.346 685.907 419.73 701.346L387.868 720.543C387.867 720.543 387.868 720.543 387.868 720.543C360.147 737.261 330.463 737.261 302.727 720.544L270.864 701.346C245.267 685.908 217.855 685.907 192.24 701.346L160.377 720.543C132.656 737.262 102.974 737.262 75.2365 720.544C75.2363 720.544 75.2367 720.544 75.2365 720.544L43.373 701.346C17.7763 685.908 -9.63546 685.907 -35.2511 701.346L-67.1136 720.543C-94.8343 737.262 -124.517 737.262 -152.254 720.544C-152.254 720.544 -152.254 720.544 -152.254 720.544L-184.119 701.345Z" fill="#4E82B5"/>
<path d="M493 0V666H1159L493 0Z" fill="#4E82B5"/>
<path fill-rule="evenodd" clip-rule="evenodd" d="M987.5 317C1058.47 317 1116 259.469 1116 188.5C1116 117.531 1058.47 60 987.5 60C916.531 60 859 117.531 859 188.5C859 259.469 916.531 317 987.5 317ZM987.5 266.608C1030.64 266.608 1065.61 231.638 1065.61 188.5C1065.61 145.362 1030.64 110.392 987.5 110.392C944.362 110.392 909.392 145.362 909.392 188.5C909.392 231.638 944.362 266.608 987.5 266.608Z" fill="#14324F"/>
</g>
<defs>
<clipPath id="clip0_1_5490">
<rect width="1184" height="666" fill="white"/>
</clipPath>
</defs>
</svg>
