<svg width="1200" height="675" viewBox="0 0 1200 675" fill="none" xmlns="http://www.w3.org/2000/svg">
<g clip-path="url(#clip0_6_2125)">
<rect width="1200" height="675" fill="#F4F4EF"/>
<rect width="1197" height="223" fill="#DFD4D8"/>
<path fill-rule="evenodd" clip-rule="evenodd" d="M127.651 176.189C87.6226 152.047 44.7584 152.046 4.7007 176.19L-0.394531 144.272C42.9801 118.129 89.3974 118.128 132.747 144.271C132.747 144.272 132.746 144.271 132.747 144.271L182.575 174.293C222.632 198.437 265.497 198.436 305.525 174.295L355.355 144.272C355.355 144.272 355.355 144.272 355.355 144.272C398.729 118.129 445.147 118.128 488.496 144.271C488.497 144.272 488.495 144.271 488.496 144.271L538.324 174.293C578.382 198.437 621.247 198.436 661.275 174.295L711.105 144.272C711.105 144.272 711.104 144.272 711.105 144.272C754.479 118.129 800.897 118.128 844.246 144.271C844.247 144.272 844.245 144.271 844.246 144.271L894.074 174.293C934.132 198.437 976.997 198.436 1017.02 174.295L1066.85 144.272C1110.23 118.128 1156.65 118.128 1200 144.273L1194.9 176.189C1154.87 152.047 1112.01 152.046 1071.95 176.19L1022.12 206.211C1022.12 206.211 1022.12 206.211 1022.12 206.211C978.774 232.355 932.354 232.355 888.979 206.212L839.152 176.19C799.124 152.049 756.258 152.046 716.2 176.19L666.373 206.211C623.024 232.356 576.606 232.355 533.231 206.212C533.23 206.212 533.231 206.213 533.231 206.212L483.403 176.19C443.375 152.049 400.508 152.046 360.45 176.19L310.624 206.211C267.274 232.356 220.856 232.355 177.481 206.212C177.481 206.212 177.481 206.213 177.481 206.212L127.651 176.189Z" fill="#4E82B5"/>
<path fill-rule="evenodd" clip-rule="evenodd" d="M127.651 299.494C87.6226 275.352 44.7584 275.351 4.7007 299.495L-0.394531 267.576C42.9801 241.434 89.3974 241.432 132.747 267.576C132.747 267.576 132.746 267.575 132.747 267.576L182.575 297.598C222.632 321.742 265.497 321.741 305.525 297.599L355.355 267.576C355.355 267.576 355.355 267.577 355.355 267.576C398.729 241.434 445.147 241.432 488.496 267.576C488.497 267.576 488.495 267.575 488.496 267.576L538.324 297.598C578.382 321.742 621.247 321.741 661.275 297.599L711.105 267.576C711.105 267.576 711.104 267.577 711.105 267.576C754.479 241.434 800.897 241.432 844.246 267.576C844.247 267.576 844.245 267.575 844.246 267.576L894.074 297.598C934.132 321.742 976.997 321.741 1017.02 297.599L1066.85 267.576C1110.23 241.433 1156.65 241.432 1200 267.577L1194.9 299.494C1154.87 275.352 1112.01 275.351 1071.95 299.495L1022.12 329.516C1022.12 329.516 1022.12 329.515 1022.12 329.516C978.774 355.659 932.354 355.659 888.979 329.517L839.152 299.495C799.124 275.353 756.258 275.351 716.2 299.495L666.373 329.516C623.024 355.661 576.606 355.66 533.231 329.517C533.23 329.517 533.231 329.517 533.231 329.517L483.403 299.495C443.375 275.353 400.508 275.351 360.45 299.495L310.624 329.516C267.274 355.661 220.856 355.66 177.481 329.517C177.481 329.517 177.481 329.517 177.481 329.517L127.651 299.494Z" fill="#4E82B5"/>
<path fill-rule="evenodd" clip-rule="evenodd" d="M127.651 422.798C87.6226 398.657 44.7584 398.656 4.7007 422.799L-0.394531 390.881C42.9801 364.738 89.3974 364.737 132.747 390.881C132.747 390.881 132.746 390.88 132.747 390.881L182.575 420.903C222.632 445.046 265.497 445.046 305.525 420.904L355.355 390.881C355.355 390.881 355.355 390.881 355.355 390.881C398.729 364.739 445.147 364.737 488.496 390.881C488.497 390.881 488.495 390.88 488.496 390.881L538.324 420.903C578.382 445.046 621.247 445.046 661.275 420.904L711.105 390.881C711.105 390.881 711.104 390.881 711.105 390.881C754.479 364.739 800.897 364.737 844.246 390.881C844.247 390.881 844.245 390.88 844.246 390.881L894.074 420.903C934.132 445.046 976.997 445.046 1017.02 420.904L1066.85 390.881C1110.23 364.738 1156.65 364.737 1200 390.882L1194.9 422.798C1154.87 398.657 1112.01 398.656 1071.95 422.799L1022.12 452.82C1022.12 452.821 1022.12 452.82 1022.12 452.82C978.774 478.964 932.354 478.964 888.979 452.821L839.152 422.8C799.124 398.658 756.258 398.656 716.2 422.799L666.373 452.82C623.024 478.965 576.606 478.965 533.231 452.822C533.23 452.822 533.231 452.822 533.231 452.822L483.403 422.8C443.375 398.658 400.508 398.656 360.45 422.799L310.624 452.82C267.274 478.965 220.856 478.965 177.481 452.822C177.481 452.822 177.481 452.822 177.481 452.822L127.651 422.798Z" fill="#4E82B5"/>
<path fill-rule="evenodd" clip-rule="evenodd" d="M127.651 546.103C87.6226 521.961 44.7584 521.96 4.7007 546.104L-0.394531 514.186C42.9801 488.043 89.3974 488.042 132.747 514.185C132.747 514.186 132.746 514.185 132.747 514.185L182.575 544.207C222.632 568.351 265.497 568.35 305.525 544.209L355.355 514.186C355.355 514.186 355.355 514.186 355.355 514.186C398.729 488.044 445.147 488.042 488.496 514.185C488.497 514.186 488.495 514.185 488.496 514.185L538.324 544.207C578.382 568.351 621.247 568.35 661.275 544.209L711.105 514.186C711.105 514.186 711.104 514.186 711.105 514.186C754.479 488.043 800.897 488.042 844.246 514.185C844.247 514.186 844.245 514.185 844.246 514.185L894.074 544.207C934.132 568.351 976.997 568.35 1017.02 544.209L1066.85 514.186C1110.23 488.043 1156.65 488.042 1200 514.187L1194.9 546.103C1154.87 521.961 1112.01 521.96 1071.95 546.104L1022.12 576.125C1022.12 576.126 1022.12 576.125 1022.12 576.125C978.774 602.269 932.354 602.269 888.979 576.126L839.152 546.104C799.124 521.963 756.258 521.96 716.2 546.104L666.373 576.125C623.024 602.27 576.606 602.269 533.231 576.126C533.23 576.126 533.231 576.127 533.231 576.126L483.403 546.104C443.375 521.963 400.508 521.96 360.45 546.104L310.624 576.125C267.274 602.27 220.856 602.269 177.481 576.126C177.481 576.126 177.481 576.127 177.481 576.126L127.651 546.103Z" fill="#4E82B5"/>
<path fill-rule="evenodd" clip-rule="evenodd" d="M127.651 669.408C87.6226 645.266 44.7584 645.265 4.7007 669.409L-0.394531 637.491C42.9801 611.348 89.3974 611.346 132.747 637.49C132.747 637.49 132.746 637.49 132.747 637.49L182.575 667.512C222.632 691.656 265.497 691.655 305.525 667.513L355.355 637.491C355.355 637.49 355.355 637.491 355.355 637.491C398.729 611.348 445.147 611.346 488.496 637.49C488.497 637.49 488.495 637.49 488.496 637.49L538.324 667.512C578.382 691.656 621.247 691.655 661.275 667.513L711.105 637.491C711.105 637.49 711.104 637.491 711.105 637.491C754.479 611.348 800.897 611.346 844.246 637.49C844.247 637.49 844.245 637.49 844.246 637.49L894.074 667.512C934.132 691.656 976.997 691.655 1017.02 667.513L1066.85 637.491C1110.23 611.347 1156.65 611.346 1200 637.491L1194.9 669.408C1154.87 645.266 1112.01 645.265 1071.95 669.409L1022.12 699.43C1022.12 699.43 1022.12 699.429 1022.12 699.43C978.774 725.574 932.354 725.573 888.979 699.431L839.152 669.409C799.124 645.267 756.258 645.265 716.2 669.409L666.373 699.43C623.024 725.575 576.606 725.574 533.231 699.431C533.23 699.431 533.231 699.431 533.231 699.431L483.403 669.409C443.375 645.267 400.508 645.265 360.45 669.409L310.624 699.43C267.274 725.575 220.856 725.574 177.481 699.431C177.481 699.431 177.481 699.431 177.481 699.431L127.651 669.408Z" fill="#4E82B5"/>
<circle cx="591.553" cy="665.553" r="249.553" fill="#14324F"/>
</g>
<defs>
<clipPath id="clip0_6_2125">
<rect width="1200" height="675" fill="white"/>
</clipPath>
</defs>
</svg>
