<svg width="1184" height="666" viewBox="0 0 1184 666" fill="none" xmlns="http://www.w3.org/2000/svg">
<g clip-path="url(#clip0_1_5712)">
<rect width="1184" height="666" fill="#DFD4D8"/>
<rect width="397" height="666" fill="#F4F4EF"/>
<path fill-rule="evenodd" clip-rule="evenodd" d="M1.87986 466.357C-22.6547 446.195 -48.9287 446.194 -73.4835 466.359L-80 410.738C-51.203 387.089 -20.3849 387.086 8.39727 410.737C8.3975 410.737 8.39704 410.737 8.39727 410.737C8.39804 410.738 8.39951 410.739 8.40027 410.74L40.2608 436.895C64.8156 457.061 91.0906 457.06 115.625 436.898L115.628 436.895L147.491 410.738C147.491 410.738 147.49 410.738 147.491 410.738C176.287 387.09 207.106 387.087 235.888 410.737C235.889 410.738 235.89 410.739 235.891 410.74L267.751 436.895C292.306 457.061 318.581 457.06 343.116 436.898L343.119 436.895L374.981 410.738C374.982 410.738 374.981 410.738 374.981 410.738C403.778 387.09 434.597 387.087 463.379 410.737C463.38 410.738 463.381 410.739 463.382 410.74L495.242 436.895C519.797 457.061 546.072 457.06 570.607 436.898L570.61 436.895L602.472 410.738C602.472 410.738 602.472 410.738 602.472 410.738C631.27 387.089 662.09 387.087 690.872 410.74L684.352 466.357C659.817 446.195 633.543 446.194 608.989 466.359L577.127 492.516C577.126 492.517 577.125 492.517 577.124 492.518C548.342 516.169 517.524 516.167 488.727 492.517L456.864 466.36L456.861 466.357C432.327 446.195 406.053 446.194 381.498 466.359L349.636 492.516C349.635 492.517 349.634 492.517 349.633 492.518C320.851 516.169 290.034 516.167 261.237 492.518C261.237 492.518 261.237 492.518 261.237 492.518L229.371 466.357C204.836 446.195 178.562 446.194 154.007 466.359L122.146 492.516C122.145 492.517 122.144 492.517 122.143 492.518C93.3608 516.169 62.5431 516.167 33.7464 492.518C33.746 492.518 33.7467 492.518 33.7464 492.518L1.87986 466.357Z" fill="#4E82B5"/>
<path fill-rule="evenodd" clip-rule="evenodd" d="M1.87986 573.793C-22.6547 553.631 -48.9287 553.629 -73.4835 573.794L-80 518.173C-51.203 494.524 -20.3849 494.522 8.39727 518.173C8.3975 518.173 8.39704 518.172 8.39727 518.173C8.39804 518.173 8.39951 518.174 8.40027 518.175L40.2608 544.331C64.8156 564.496 91.0906 564.496 115.625 544.334L115.628 544.331L147.491 518.173C147.491 518.173 147.49 518.174 147.491 518.173C176.287 494.525 207.106 494.522 235.888 518.173C235.889 518.173 235.89 518.174 235.891 518.175L267.751 544.331C292.306 564.496 318.581 564.496 343.116 544.334L343.119 544.331L374.981 518.173C374.982 518.173 374.981 518.174 374.981 518.173C403.778 494.525 434.597 494.522 463.379 518.173C463.38 518.173 463.381 518.174 463.382 518.175L495.242 544.331C519.797 564.496 546.072 564.496 570.607 544.334L570.61 544.331L602.472 518.173C602.472 518.173 602.472 518.174 602.472 518.173C631.27 494.524 662.09 494.522 690.872 518.175L684.352 573.793C659.817 553.631 633.543 553.629 608.989 573.794L577.127 599.951C577.126 599.952 577.125 599.953 577.124 599.954C548.342 623.605 517.524 623.602 488.727 599.953L456.864 573.795L456.861 573.793C432.327 553.631 406.053 553.629 381.498 573.794L349.636 599.951C349.635 599.952 349.634 599.953 349.633 599.954C320.851 623.604 290.034 623.602 261.237 599.954C261.237 599.953 261.237 599.954 261.237 599.954L229.371 573.793C204.836 553.631 178.562 553.629 154.007 573.794L122.146 599.951C122.145 599.952 122.144 599.953 122.143 599.954C93.3608 623.604 62.5431 623.602 33.7464 599.954C33.746 599.953 33.7467 599.954 33.7464 599.954L1.87986 573.793Z" fill="#4E82B5"/>
<path fill-rule="evenodd" clip-rule="evenodd" d="M1.87986 681.23C-22.6547 661.068 -48.9287 661.067 -73.4835 681.232L-80 625.611C-51.203 601.962 -20.3849 601.959 8.39727 625.61C8.3975 625.61 8.39704 625.61 8.39727 625.61C8.39804 625.611 8.39951 625.612 8.40027 625.613L40.2608 651.769C64.8156 671.934 91.0906 671.933 115.625 651.771L115.628 651.769L147.491 625.611C147.491 625.611 147.49 625.611 147.491 625.611C176.287 601.963 207.106 601.96 235.888 625.61C235.889 625.611 235.89 625.612 235.891 625.613L267.751 651.769C292.306 671.934 318.581 671.933 343.116 651.771L343.119 651.769L374.981 625.611C374.982 625.611 374.981 625.611 374.981 625.611C403.778 601.963 434.597 601.96 463.379 625.61C463.38 625.611 463.381 625.612 463.382 625.613L495.242 651.769C519.797 671.934 546.072 671.933 570.607 651.771L570.61 651.769L602.472 625.611C602.472 625.611 602.472 625.611 602.472 625.611C631.27 601.962 662.09 601.96 690.872 625.613L684.352 681.23C659.817 661.068 633.543 661.067 608.989 681.232L577.127 707.389C577.126 707.39 577.125 707.39 577.124 707.391C548.342 731.042 517.524 731.04 488.727 707.39L456.864 681.233L456.861 681.23C432.327 661.068 406.053 661.067 381.498 681.232L349.636 707.389C349.635 707.39 349.634 707.39 349.633 707.391C320.851 731.042 290.034 731.04 261.237 707.391C261.237 707.391 261.237 707.392 261.237 707.391L229.371 681.23C204.836 661.068 178.562 661.067 154.007 681.232L122.146 707.389C122.145 707.39 122.144 707.39 122.143 707.391C93.3608 731.042 62.5431 731.04 33.7464 707.391C33.746 707.391 33.7467 707.392 33.7464 707.391L1.87986 681.23Z" fill="#4E82B5"/>
<path fill-rule="evenodd" clip-rule="evenodd" d="M783.388 264.838C759.9 250.041 734.746 250.04 711.239 264.839L705 224.018C732.569 206.662 762.073 206.66 789.628 224.018C789.628 224.018 789.628 224.017 789.628 224.018C789.628 224.018 789.63 224.019 789.631 224.019L820.133 243.216C843.64 258.015 868.795 258.015 892.283 243.218L892.286 243.216L922.79 224.018C922.79 224.018 922.79 224.018 922.79 224.018C950.359 206.662 979.863 206.66 1007.42 224.018C1007.42 224.018 1007.42 224.019 1007.42 224.019L1037.92 243.216C1061.43 258.015 1086.58 258.015 1110.07 243.218L1110.08 243.216L1140.58 224.018C1140.58 224.018 1140.58 224.018 1140.58 224.018C1168.15 206.662 1197.65 206.66 1225.21 224.018C1225.21 224.018 1225.21 224.019 1225.21 224.019L1255.71 243.216C1279.22 258.015 1304.37 258.015 1327.86 243.218L1327.87 243.216L1358.37 224.018C1358.37 224.018 1358.37 224.018 1358.37 224.018C1385.94 206.662 1415.44 206.66 1443 224.019L1436.76 264.838C1413.27 250.041 1388.12 250.04 1364.61 264.839L1334.11 284.036C1334.1 284.037 1334.1 284.038 1334.1 284.038C1306.55 301.396 1277.04 301.394 1249.47 284.038L1218.97 264.84L1218.97 264.838C1195.48 250.041 1170.33 250.04 1146.82 264.839L1116.32 284.036C1116.31 284.037 1116.31 284.038 1116.31 284.038C1088.76 301.396 1059.25 301.394 1031.69 284.038C1031.69 284.038 1031.69 284.038 1031.69 284.038L1001.18 264.838C977.69 250.041 952.536 250.04 929.028 264.839L898.526 284.036C898.525 284.037 898.524 284.038 898.523 284.038C870.968 301.396 841.465 301.394 813.896 284.038C813.896 284.038 813.896 284.038 813.896 284.038L783.388 264.838Z" fill="#14324F"/>
<path fill-rule="evenodd" clip-rule="evenodd" d="M783.388 343.688C759.9 328.891 734.746 328.889 711.239 343.689L705 302.868C732.569 285.511 762.073 285.509 789.628 302.867C789.628 302.867 789.628 302.867 789.628 302.867C789.628 302.868 789.63 302.869 789.631 302.869L820.133 322.065C843.64 336.865 868.795 336.864 892.283 322.067L892.286 322.065L922.79 302.868C922.79 302.868 922.79 302.868 922.79 302.868C950.359 285.512 979.863 285.51 1007.42 302.867C1007.42 302.868 1007.42 302.868 1007.42 302.869L1037.92 322.065C1061.43 336.865 1086.58 336.864 1110.07 322.067L1110.08 322.065L1140.58 302.868C1140.58 302.868 1140.58 302.868 1140.58 302.868C1168.15 285.512 1197.65 285.51 1225.21 302.867C1225.21 302.868 1225.21 302.868 1225.21 302.869L1255.71 322.065C1279.22 336.865 1304.37 336.864 1327.86 322.067L1327.87 322.065L1358.37 302.868C1358.37 302.868 1358.37 302.868 1358.37 302.868C1385.94 285.511 1415.44 285.51 1443 302.869L1436.76 343.688C1413.27 328.891 1388.12 328.889 1364.61 343.689L1334.11 362.886C1334.1 362.887 1334.1 362.887 1334.1 362.888C1306.55 380.246 1277.04 380.244 1249.47 362.887L1218.97 343.69L1218.97 343.688C1195.48 328.891 1170.33 328.889 1146.82 343.689L1116.32 362.886C1116.31 362.887 1116.31 362.887 1116.31 362.888C1088.76 380.245 1059.25 380.244 1031.69 362.888C1031.69 362.888 1031.69 362.888 1031.69 362.888L1001.18 343.688C977.69 328.891 952.536 328.889 929.028 343.689L898.526 362.886C898.525 362.887 898.524 362.887 898.523 362.888C870.968 380.245 841.465 380.244 813.896 362.888C813.896 362.888 813.896 362.888 813.896 362.888L783.388 343.688Z" fill="#14324F"/>
<path fill-rule="evenodd" clip-rule="evenodd" d="M783.388 422.537C759.9 407.74 734.746 407.739 711.239 422.539L705 381.717C732.569 364.361 762.073 364.359 789.628 381.717C789.628 381.717 789.628 381.717 789.628 381.717C789.628 381.717 789.63 381.718 789.631 381.719L820.133 400.915C843.64 415.715 868.795 415.714 892.283 400.917L892.286 400.915L922.79 381.717C922.79 381.717 922.79 381.718 922.79 381.717C950.359 364.361 979.863 364.359 1007.42 381.717C1007.42 381.717 1007.42 381.718 1007.42 381.719L1037.92 400.915C1061.43 415.715 1086.58 415.714 1110.07 400.917L1110.08 400.915L1140.58 381.717C1140.58 381.717 1140.58 381.718 1140.58 381.717C1168.15 364.361 1197.65 364.359 1225.21 381.717C1225.21 381.717 1225.21 381.718 1225.21 381.719L1255.71 400.915C1279.22 415.715 1304.37 415.714 1327.86 400.917L1327.87 400.915L1358.37 381.717C1358.37 381.717 1358.37 381.718 1358.37 381.717C1385.94 364.361 1415.44 364.359 1443 381.719L1436.76 422.537C1413.27 407.74 1388.12 407.739 1364.61 422.539L1334.11 441.736C1334.1 441.736 1334.1 441.737 1334.1 441.737C1306.55 459.095 1277.04 459.093 1249.47 441.737L1218.97 422.539L1218.97 422.537C1195.48 407.74 1170.33 407.739 1146.82 422.539L1116.32 441.736C1116.31 441.736 1116.31 441.737 1116.31 441.737C1088.76 459.095 1059.25 459.093 1031.69 441.737C1031.69 441.737 1031.69 441.738 1031.69 441.737L1001.18 422.537C977.69 407.74 952.536 407.739 929.028 422.539L898.526 441.736C898.525 441.736 898.524 441.737 898.523 441.737C870.968 459.095 841.465 459.093 813.896 441.737C813.896 441.737 813.896 441.738 813.896 441.737L783.388 422.537Z" fill="#14324F"/>
<path fill-rule="evenodd" clip-rule="evenodd" d="M434.51 -264C436.592 -257.304 439.602 -250.665 443.538 -244.133L462.737 -212.269C478.175 -186.672 478.175 -159.261 462.736 -133.646L443.538 -101.782C426.82 -74.0618 426.821 -44.3791 443.538 -16.6425L462.737 15.222C478.175 40.8186 478.175 68.2294 462.736 93.8451L443.538 125.709C426.82 153.429 426.821 183.111 443.539 210.848L463.949 207.59C448.51 181.974 448.511 154.564 463.949 128.967L483.148 97.1023C499.865 69.3652 499.866 39.6825 483.147 11.9618L463.949 -19.9008C448.51 -45.5164 448.512 -72.9282 463.949 -98.5249L483.148 -130.388C499.865 -158.125 499.866 -187.808 483.147 -215.529L463.949 -247.391C460.655 -252.858 458.063 -258.405 456.175 -264H434.51Z" fill="#4E82B5"/>
<path fill-rule="evenodd" clip-rule="evenodd" d="M498.744 -264C500.827 -257.304 503.836 -250.665 507.773 -244.133L526.972 -212.269C542.409 -186.672 542.41 -159.261 526.971 -133.646L507.773 -101.782C491.055 -74.0618 491.056 -44.3791 507.773 -16.6425L526.972 15.222C542.409 40.8186 542.41 68.2294 526.971 93.8451L507.773 125.709C491.054 153.429 491.055 183.111 507.773 210.848L528.184 207.59C512.744 181.974 512.745 154.564 528.183 128.967L547.382 97.1023C564.099 69.3652 564.1 39.6825 547.381 11.9618L528.184 -19.9008C512.744 -45.5164 512.746 -72.9282 528.184 -98.5249L547.382 -130.388C564.099 -158.125 564.1 -187.808 547.381 -215.529L528.183 -247.391C524.889 -252.858 522.298 -258.405 520.409 -264H498.744Z" fill="#4E82B5"/>
<path fill-rule="evenodd" clip-rule="evenodd" d="M562.978 -264C565.061 -257.304 568.071 -250.665 572.007 -244.133L591.206 -212.269C606.644 -186.672 606.644 -159.261 591.205 -133.646L572.007 -101.782C555.289 -74.0618 555.29 -44.3791 572.007 -16.6425L591.206 15.222C606.644 40.8186 606.644 68.2294 591.205 93.8451L572.007 125.709C555.289 153.429 555.29 183.111 572.007 210.848L592.418 207.59C576.979 181.974 576.979 154.564 592.417 128.967L611.616 97.1023C628.334 69.3652 628.334 39.6825 611.615 11.9618L592.418 -19.9008C576.979 -45.5164 576.98 -72.9282 592.418 -98.5249L611.616 -130.388C628.334 -158.125 628.334 -187.808 611.615 -215.529L592.418 -247.391C589.123 -252.858 586.532 -258.405 584.643 -264H562.978Z" fill="#4E82B5"/>
<path fill-rule="evenodd" clip-rule="evenodd" d="M627.215 -264C629.297 -257.304 632.307 -250.665 636.244 -244.133L655.442 -212.269C670.88 -186.672 670.88 -159.261 655.441 -133.646L636.243 -101.782C619.525 -74.0618 619.526 -44.3791 636.244 -16.6425L655.442 15.222C670.88 40.8186 670.88 68.2294 655.441 93.8451L636.243 125.709C619.525 153.429 619.526 183.111 636.244 210.848L656.654 207.59C641.215 181.974 641.216 154.564 656.654 128.967L675.853 97.1023C692.57 69.3652 692.571 39.6825 675.852 11.9618L656.654 -19.9008C641.215 -45.5164 641.217 -72.9282 656.655 -98.5249L675.853 -130.388C692.57 -158.125 692.571 -187.808 675.852 -215.529L656.654 -247.391C653.36 -252.858 650.768 -258.405 648.88 -264H627.215Z" fill="#4E82B5"/>
<path fill-rule="evenodd" clip-rule="evenodd" d="M691.449 -264C693.532 -257.304 696.541 -250.665 700.478 -244.133L719.677 -212.269C735.115 -186.672 735.115 -159.261 719.676 -133.646L700.478 -101.782C683.76 -74.0618 683.761 -44.3791 700.478 -16.6425L719.677 15.222C735.115 40.8186 735.115 68.2294 719.676 93.8451L700.478 125.709C683.76 153.429 683.76 183.111 700.478 210.848L720.889 207.59C705.45 181.974 705.45 154.564 720.888 128.967L740.087 97.1023C756.805 69.3652 756.805 39.6825 740.086 11.9618L720.889 -19.9008C705.45 -45.5164 705.451 -72.9282 720.889 -98.5249L740.087 -130.388C756.805 -158.125 756.805 -187.808 740.086 -215.529L720.889 -247.391C717.594 -252.858 715.003 -258.405 713.114 -264H691.449Z" fill="#4E82B5"/>
</g>
<defs>
<clipPath id="clip0_1_5712">
<rect width="1184" height="666" fill="white"/>
</clipPath>
</defs>
</svg>
