<svg width="1184" height="666" viewBox="0 0 1184 666" fill="none" xmlns="http://www.w3.org/2000/svg">
<g clip-path="url(#clip0_1_5680)">
<rect width="1184" height="666" fill="#DFD4D8"/>
<rect width="402" height="666" fill="#F4F4EF"/>
<path d="M748.797 281.602C681.088 213.892 571.309 213.892 503.6 281.602C435.89 349.311 435.89 459.09 503.6 526.799L551.678 478.721C510.521 437.564 510.521 370.836 551.678 329.679C592.834 288.523 659.562 288.523 700.719 329.679L748.797 281.602Z" fill="#4E82B5"/>
<path d="M1277.8 281.602C1210.09 213.892 1100.31 213.892 1032.6 281.602C964.89 349.311 964.89 459.09 1032.6 526.799L1080.68 478.721C1039.52 437.564 1039.52 370.836 1080.68 329.679C1121.83 288.523 1188.56 288.523 1229.72 329.679L1277.8 281.602Z" fill="#4E82B5"/>
<path d="M661.789 404.195C729.498 471.905 839.277 471.905 906.986 404.195C974.696 336.486 974.696 226.707 906.986 158.998L858.908 207.076C900.065 248.233 900.065 314.961 858.908 356.117C817.752 397.274 751.024 397.274 709.867 356.117L661.789 404.195Z" fill="#4E82B5"/>
<path d="M748.797 69.6016C681.088 1.89225 571.309 1.89225 503.6 69.6016C435.89 137.311 435.89 247.09 503.6 314.799L551.678 266.721C510.521 225.564 510.521 158.836 551.678 117.679C592.834 76.5227 659.562 76.5227 700.719 117.679L748.797 69.6016Z" fill="#4E82B5"/>
<path d="M1277.8 69.6016C1210.09 1.89225 1100.31 1.89225 1032.6 69.6016C964.89 137.311 964.89 247.09 1032.6 314.799L1080.68 266.721C1039.52 225.564 1039.52 158.836 1080.68 117.679C1121.83 76.5227 1188.56 76.5227 1229.72 117.679L1277.8 69.6016Z" fill="#4E82B5"/>
<path d="M661.789 192.195C729.498 259.905 839.277 259.905 906.986 192.195C974.696 124.486 974.696 14.7074 906.986 -53.0019L858.908 -4.92405C900.065 36.2327 900.065 102.961 858.908 144.117C817.752 185.274 751.024 185.274 709.867 144.117L661.789 192.195Z" fill="#4E82B5"/>
<path d="M748.797 505.602C681.088 437.892 571.309 437.892 503.6 505.602C435.89 573.311 435.89 683.09 503.6 750.799L551.678 702.721C510.521 661.564 510.521 594.836 551.678 553.679C592.834 512.523 659.562 512.523 700.719 553.679L748.797 505.602Z" fill="#4E82B5"/>
<path d="M1277.8 505.602C1210.09 437.892 1100.31 437.892 1032.6 505.602C964.89 573.311 964.89 683.09 1032.6 750.799L1080.68 702.721C1039.52 661.564 1039.52 594.836 1080.68 553.679C1121.83 512.523 1188.56 512.523 1229.72 553.679L1277.8 505.602Z" fill="#4E82B5"/>
<path d="M661.789 628.197C729.498 695.907 839.277 695.907 906.986 628.197C974.696 560.488 974.696 450.709 906.986 383L858.908 431.078C900.065 472.235 900.065 538.963 858.908 580.119C817.752 621.276 751.024 621.276 709.867 580.119L661.789 628.197Z" fill="#4E82B5"/>
<circle cx="275.5" cy="49.5" r="60.5" fill="#14324F"/>
<circle cx="109.5" cy="170.5" r="60.5" fill="#14324F"/>
<circle cx="1154.5" cy="191.5" r="60.5" fill="#14324F"/>
<circle cx="625.5" cy="185.5" r="60.5" fill="#14324F"/>
<circle cx="791.5" cy="70.5" r="60.5" fill="#14324F"/>
<circle cx="275.5" cy="269.5" r="60.5" fill="#14324F"/>
<circle cx="109.5" cy="390.5" r="60.5" fill="#14324F"/>
<circle cx="1154.5" cy="411.5" r="60.5" fill="#14324F"/>
<circle cx="625.5" cy="405.5" r="60.5" fill="#14324F"/>
<circle cx="791.5" cy="290.5" r="60.5" fill="#14324F"/>
<circle cx="275.5" cy="495.5" r="60.5" fill="#14324F"/>
<circle cx="109.5" cy="616.5" r="60.5" fill="#14324F"/>
<circle cx="1154.5" cy="637.5" r="60.5" fill="#14324F"/>
<circle cx="625.5" cy="631.5" r="60.5" fill="#14324F"/>
<circle cx="791.5" cy="516.5" r="60.5" fill="#14324F"/>
</g>
<defs>
<clipPath id="clip0_1_5680">
<rect width="1184" height="666" fill="white"/>
</clipPath>
</defs>
</svg>
