<svg width="1200" height="675" viewBox="0 0 1200 675" fill="none" xmlns="http://www.w3.org/2000/svg">
<g clip-path="url(#clip0_6_2361)">
<rect width="1200" height="675" fill="#F4F4EF"/>
<rect x="1" width="499" height="666" fill="#DFD4D8"/>
<rect x="967" y="267" width="278" height="27" fill="#4E82B5"/>
<rect x="967" y="161" width="278" height="26" fill="#4E82B5"/>
<rect x="962" y="586" width="278" height="26" fill="#4E82B5"/>
<rect x="967" width="278" height="27" fill="#4E82B5"/>
<rect x="962" y="425" width="278" height="27" fill="#4E82B5"/>
<rect x="967" y="53" width="278" height="27" fill="#4E82B5"/>
<rect x="962" y="478" width="278" height="27" fill="#4E82B5"/>
<rect x="967" y="374" width="278" height="27" fill="#4E82B5"/>
<path d="M907.758 417.383C907.758 321.627 830.133 244.002 734.377 244.002C638.622 244.002 560.997 321.627 560.997 417.383L628.989 417.383C628.989 359.178 676.173 311.995 734.377 311.995C792.582 311.995 839.765 359.178 839.765 417.383L907.758 417.383Z" fill="#14324F"/>
<path d="M71 475C71 570.755 148.625 648.381 244.381 648.381C340.136 648.381 417.761 570.755 417.761 475L349.769 475C349.769 533.204 302.585 580.388 244.381 580.388C186.176 580.388 138.992 533.204 138.992 475L71 475Z" fill="#14324F"/>
<path d="M71 244C71 339.755 148.625 417.381 244.381 417.381C340.136 417.381 417.761 339.755 417.761 244H71Z" fill="#14324F"/>
<path d="M71 27C71 122.755 148.625 200.381 244.381 200.381C340.136 200.381 417.761 122.755 417.761 27L349.769 27C349.769 85.2044 302.585 132.388 244.381 132.388C186.176 132.388 138.992 85.2044 138.992 27L71 27Z" fill="#14324F"/>
<path d="M907.758 200.383C907.758 104.627 830.133 27.0022 734.377 27.0022C638.622 27.0021 560.997 104.627 560.997 200.383L907.758 200.383Z" fill="#14324F"/>
<path d="M907.758 648.383C907.758 552.627 830.133 475.002 734.377 475.002C638.622 475.002 560.997 552.627 560.997 648.383L907.758 648.383Z" fill="#14324F"/>
<rect x="967" y="106" width="278" height="28" fill="#4E82B5"/>
<rect x="962" y="531" width="278" height="28" fill="#4E82B5"/>
<rect x="967" y="214" width="278" height="27" fill="#4E82B5"/>
<rect x="962" y="639" width="278" height="27" fill="#4E82B5"/>
<rect x="967" y="320" width="278" height="27" fill="#4E82B5"/>
</g>
<defs>
<clipPath id="clip0_6_2361">
<rect width="1200" height="675" fill="white"/>
</clipPath>
</defs>
</svg>
