<svg width="1184" height="666" viewBox="0 0 1184 666" fill="none" xmlns="http://www.w3.org/2000/svg">
<g clip-path="url(#clip0_1_5660)">
<rect width="1184" height="666" fill="#F4F4EF"/>
<rect x="769.602" width="769.6" height="336" fill="#4E82B5"/>
<rect y="-4.79688" width="1244.97" height="27.1021" fill="#DFD4D8"/>
<rect y="49.4102" width="1244.97" height="27.1021" fill="#DFD4D8"/>
<rect y="103.613" width="1244.97" height="27.1021" fill="#DFD4D8"/>
<rect y="157.816" width="1244.97" height="27.1021" fill="#DFD4D8"/>
<rect y="212.02" width="1244.97" height="27.1021" fill="#DFD4D8"/>
<rect y="266.227" width="1244.97" height="27.1021" fill="#DFD4D8"/>
<rect y="320.43" width="1244.97" height="27.1021" fill="#DFD4D8"/>
<path d="M472.758 666.383C472.758 570.627 395.133 493.002 299.377 493.002C203.622 493.002 125.997 570.627 125.997 666.383L472.758 666.383Z" fill="#393A3D"/>
<circle cx="416.897" cy="603.897" r="23.8972" fill="#4E82B5"/>
<circle cx="491.245" cy="603.897" r="23.8972" fill="#4E82B5"/>
<circle cx="565.591" cy="603.897" r="23.8972" fill="#4E82B5"/>
<circle cx="639.938" cy="603.897" r="23.8972" fill="#4E82B5"/>
<circle cx="714.284" cy="603.897" r="23.8972" fill="#4E82B5"/>
<circle cx="788.632" cy="603.897" r="23.8972" fill="#4E82B5"/>
</g>
<defs>
<clipPath id="clip0_1_5660">
<rect width="1184" height="666" fill="white"/>
</clipPath>
</defs>
</svg>
