<svg width="1184" height="666" viewBox="0 0 1184 666" fill="none" xmlns="http://www.w3.org/2000/svg">
<g clip-path="url(#clip0_1_5635)">
<rect width="1184" height="666" fill="#F4F4EF"/>
<rect x="1" width="499" height="666" fill="#DFD4D8"/>
<rect x="967" y="267" width="278" height="27" fill="#4E82B5"/>
<rect x="967" y="161" width="278" height="26" fill="#4E82B5"/>
<rect x="962" y="586" width="278" height="26" fill="#4E82B5"/>
<rect x="967" width="278" height="27" fill="#4E82B5"/>
<rect x="962" y="425" width="278" height="27" fill="#4E82B5"/>
<rect x="967" y="53" width="278" height="27" fill="#4E82B5"/>
<rect x="962" y="478" width="278" height="27" fill="#4E82B5"/>
<rect x="967" y="374" width="278" height="27" fill="#4E82B5"/>
<path d="M907.758 417.381C907.758 321.625 830.133 244 734.377 244C638.622 244 560.997 321.625 560.997 417.381L628.989 417.381C628.989 359.176 676.173 311.993 734.377 311.993C792.582 311.993 839.765 359.176 839.765 417.381L907.758 417.381Z" fill="#14324F"/>
<path d="M71 475C71 570.755 148.625 648.381 244.381 648.381C340.136 648.381 417.761 570.755 417.761 475L349.769 475C349.769 533.204 302.585 580.388 244.381 580.388C186.176 580.388 138.992 533.204 138.992 475L71 475Z" fill="#14324F"/>
<path d="M71 244C71 339.755 148.625 417.381 244.381 417.381C340.136 417.381 417.761 339.755 417.761 244H71Z" fill="#14324F"/>
<path d="M71 27C71 122.755 148.625 200.381 244.381 200.381C340.136 200.381 417.761 122.755 417.761 27L349.769 27C349.769 85.2044 302.585 132.388 244.381 132.388C186.176 132.388 138.992 85.2044 138.992 27L71 27Z" fill="#14324F"/>
<path d="M907.758 200.381C907.758 104.625 830.133 27.0002 734.377 27.0002C638.622 27.0002 560.997 104.625 560.997 200.381L907.758 200.381Z" fill="#14324F"/>
<path d="M907.758 648.381C907.758 552.625 830.133 475 734.377 475C638.622 475 560.997 552.625 560.997 648.381L907.758 648.381Z" fill="#14324F"/>
<rect x="967" y="106" width="278" height="28" fill="#4E82B5"/>
<rect x="962" y="531" width="278" height="28" fill="#4E82B5"/>
<rect x="967" y="214" width="278" height="27" fill="#4E82B5"/>
<rect x="962" y="639" width="278" height="27" fill="#4E82B5"/>
<rect x="967" y="320" width="278" height="27" fill="#4E82B5"/>
</g>
<defs>
<clipPath id="clip0_1_5635">
<rect width="1184" height="666" fill="white"/>
</clipPath>
</defs>
</svg>
