<svg width="1200" height="675" viewBox="0 0 1200 675" fill="none" xmlns="http://www.w3.org/2000/svg">
<g clip-path="url(#clip0_6_2347)">
<rect width="1200" height="675" fill="#DFD4D8"/>
<rect x="-30" y="292.609" width="1244.97" height="27.1021" fill="#4E82B5"/>
<rect x="-30" y="130" width="1244.97" height="27.1021" fill="#4E82B5"/>
<rect x="-30" y="184.203" width="1244.97" height="27.1021" fill="#4E82B5"/>
<rect x="-30" y="455.227" width="1244.97" height="27.1021" fill="#4E82B5"/>
<rect x="-30" y="509.43" width="1244.97" height="27.1021" fill="#4E82B5"/>
<rect x="-30" y="401.02" width="1244.97" height="27.1021" fill="#4E82B5"/>
<rect x="-30" y="238.406" width="1244.97" height="27.1021" fill="#4E82B5"/>
<rect x="-30" y="346.816" width="1244.97" height="27.1021" fill="#4E82B5"/>
<path d="M969.758 419.383C969.758 323.627 892.133 246.002 796.377 246.002C700.622 246.002 622.997 323.627 622.997 419.383L690.989 419.383C690.989 361.178 738.173 313.995 796.377 313.995C854.582 313.995 901.765 361.178 901.765 419.383L969.758 419.383Z" fill="#14324F"/>
<path d="M214 246C214 341.755 291.625 419.381 387.381 419.381C483.136 419.381 560.761 341.755 560.761 246H214Z" fill="#14324F"/>
</g>
<defs>
<clipPath id="clip0_6_2347">
<rect width="1200" height="675" fill="white"/>
</clipPath>
</defs>
</svg>
