<svg width="1200" height="675" viewBox="0 0 1200 675" fill="none" xmlns="http://www.w3.org/2000/svg">
<g clip-path="url(#clip0_6_2343)">
<rect width="1200" height="675" fill="#F4F4EF"/>
<rect x="1" width="1182" height="336" fill="#DFD4D8"/>
<path d="M813 160V688H285L813 160Z" fill="#393A3D"/>
<path fill-rule="evenodd" clip-rule="evenodd" d="M135.75 698.811C95.0736 665.525 51.5136 665.522 10.8038 698.814L0 606.987C47.743 567.944 98.8368 567.94 146.555 606.986C146.556 606.986 146.555 606.986 146.555 606.986C146.556 606.987 146.559 606.989 146.56 606.99L199.382 650.172C240.092 683.464 283.654 683.462 324.33 650.176L324.335 650.172L377.16 606.987C377.161 606.987 377.16 606.988 377.16 606.987C424.903 567.945 475.998 567.94 523.715 606.986C523.717 606.987 523.719 606.989 523.72 606.99L576.542 650.172C617.252 683.464 660.814 683.462 701.49 650.176L701.495 650.172L754.32 606.987C754.321 606.987 754.32 606.988 754.32 606.987C802.063 567.945 853.158 567.94 900.875 606.986C900.877 606.987 900.879 606.989 900.88 606.99L953.702 650.172C994.412 683.464 1037.97 683.462 1078.65 650.176L1078.66 650.172L1131.48 606.987C1131.48 606.987 1131.48 606.988 1131.48 606.987C1179.22 567.944 1230.32 567.94 1278.04 606.99L1267.23 698.811C1226.55 665.525 1182.99 665.522 1142.28 698.814L1089.46 741.997C1089.46 741.999 1089.46 742 1089.46 742.001C1041.74 781.047 990.643 781.043 942.9 742L890.075 698.816L890.07 698.811C849.394 665.525 805.834 665.522 765.124 698.814L712.3 741.997C712.299 741.999 712.297 742 712.295 742.001C664.578 781.047 613.484 781.043 565.742 742.001C565.741 742.001 565.742 742.002 565.742 742.001L512.91 698.811C472.234 665.525 428.674 665.522 387.964 698.814L335.14 741.997C335.139 741.999 335.137 742 335.135 742.001C287.418 781.047 236.324 781.043 188.582 742.001C188.581 742.001 188.582 742.002 188.582 742.001L135.75 698.811Z" fill="#4E82B5"/>
</g>
<defs>
<clipPath id="clip0_6_2343">
<rect width="1200" height="675" fill="white"/>
</clipPath>
</defs>
</svg>
