<svg width="1184" height="666" viewBox="0 0 1184 666" fill="none" xmlns="http://www.w3.org/2000/svg">
<g clip-path="url(#clip0_1_5618)">
<rect width="1184" height="666" fill="#F4F4EF"/>
<rect width="397" height="666" fill="#DFD4D8"/>
<path d="M187.281 134V321.459H-1L187.281 134Z" fill="#4E82B5"/>
<path d="M209.477 134V321.459H396.936L209.477 134Z" fill="#4E82B5"/>
<path d="M208.655 531.115L208.655 343.657L396.936 343.657L208.655 531.115Z" fill="#4E82B5"/>
<path d="M186.459 531.115L186.459 343.657L-0.999984 343.657L186.459 531.115Z" fill="#4E82B5"/>
<path d="M576.999 134V321.459H388.719L576.999 134Z" fill="#393A3D"/>
<path d="M599.198 134V321.459H786.656L599.198 134Z" fill="#393A3D"/>
<path d="M598.376 531.115L598.376 343.657L786.656 343.657L598.376 531.115Z" fill="#393A3D"/>
<path d="M576.177 531.115L576.177 343.657L388.719 343.657L576.177 531.115Z" fill="#393A3D"/>
<path d="M974.937 134V321.459H786.656L974.937 134Z" fill="#4E82B5"/>
<path d="M997.133 134V321.459H1184.59L997.133 134Z" fill="#4E82B5"/>
<path d="M996.311 531.115L996.311 343.657L1184.59 343.657L996.311 531.115Z" fill="#4E82B5"/>
<path d="M974.115 531.115L974.115 343.657L786.656 343.657L974.115 531.115Z" fill="#4E82B5"/>
</g>
<defs>
<clipPath id="clip0_1_5618">
<rect width="1184" height="666" fill="white"/>
</clipPath>
</defs>
</svg>
