<svg width="1200" height="675" viewBox="0 0 1200 675" fill="none" xmlns="http://www.w3.org/2000/svg">
<g clip-path="url(#clip0_6_2290)">
<rect width="1200" height="675" fill="#DFD4D8"/>
<rect width="397" height="666" fill="#F4F4EF"/>
<path fill-rule="evenodd" clip-rule="evenodd" d="M1.90431 472.661C-22.9618 452.227 -49.5908 452.225 -74.4775 472.663L-81.082 416.29C-51.8959 392.321 -20.6613 392.319 8.50979 416.289C8.51003 416.289 8.50956 416.289 8.50979 416.289C8.51057 416.29 8.51206 416.291 8.51284 416.292L40.8039 442.801C65.6906 463.239 92.3206 463.238 117.187 442.804L117.19 442.801L149.483 416.29C149.483 416.29 149.482 416.29 149.483 416.29C178.669 392.322 209.904 392.319 239.075 416.289C239.076 416.29 239.077 416.291 239.078 416.292L271.369 442.801C296.255 463.239 322.885 463.238 347.752 442.804L347.755 442.801L380.048 416.29C380.048 416.29 380.047 416.29 380.048 416.29C409.234 392.322 440.469 392.319 469.639 416.289C469.64 416.29 469.641 416.291 469.642 416.292L501.934 442.801C526.82 463.239 553.45 463.238 578.316 442.804L578.319 442.801L610.613 416.29C610.613 416.29 610.612 416.29 610.613 416.29C639.799 392.321 671.036 392.319 700.207 416.292L693.599 472.661C668.733 452.227 642.104 452.225 617.217 472.663L584.925 499.173C584.924 499.174 584.923 499.175 584.922 499.176C555.751 523.146 524.516 523.143 495.33 499.175L463.037 472.664L463.034 472.661C438.168 452.227 411.539 452.225 386.652 472.663L354.36 499.173C354.359 499.174 354.358 499.175 354.357 499.176C325.186 523.146 293.952 523.143 264.766 499.176C264.766 499.175 264.767 499.176 264.766 499.176L232.469 472.661C207.603 452.227 180.974 452.225 156.087 472.663L123.795 499.173C123.794 499.174 123.793 499.175 123.792 499.176C94.6215 523.146 63.3873 523.143 34.2014 499.176C34.2011 499.175 34.2018 499.176 34.2014 499.176L1.90431 472.661Z" fill="#4E82B5"/>
<path fill-rule="evenodd" clip-rule="evenodd" d="M1.90431 581.548C-22.9618 561.113 -49.5908 561.112 -74.4775 581.549L-81.082 525.177C-51.8959 501.208 -20.6613 501.206 8.50979 525.176C8.51003 525.176 8.50956 525.176 8.50979 525.176C8.51057 525.177 8.51206 525.178 8.51284 525.178L40.8039 551.688C65.6906 572.126 92.3206 572.125 117.187 551.69L117.19 551.688L149.483 525.177C149.483 525.177 149.482 525.177 149.483 525.177C178.669 501.209 209.904 501.206 239.075 525.176C239.076 525.177 239.077 525.178 239.078 525.178L271.369 551.688C296.255 572.126 322.885 572.125 347.752 551.69L347.755 551.688L380.048 525.177C380.048 525.177 380.047 525.177 380.048 525.177C409.234 501.209 440.469 501.206 469.639 525.176C469.64 525.177 469.641 525.178 469.642 525.178L501.934 551.688C526.82 572.126 553.45 572.125 578.316 551.69L578.319 551.688L610.613 525.177C610.613 525.177 610.612 525.177 610.613 525.177C639.799 501.208 671.036 501.206 700.207 525.178L693.599 581.548C668.733 561.113 642.104 561.112 617.217 581.549L584.925 608.06C584.924 608.061 584.923 608.061 584.922 608.062C555.751 632.033 524.516 632.03 495.33 608.061L463.037 581.55L463.034 581.548C438.168 561.113 411.539 561.112 386.652 581.549L354.36 608.06C354.359 608.061 354.358 608.061 354.357 608.062C325.186 632.032 293.952 632.03 264.766 608.062C264.766 608.062 264.767 608.063 264.766 608.062L232.469 581.548C207.603 561.113 180.974 561.112 156.087 581.549L123.795 608.06C123.794 608.061 123.793 608.061 123.792 608.062C94.6215 632.032 63.3873 632.03 34.2014 608.062C34.2011 608.062 34.2018 608.063 34.2014 608.062L1.90431 581.548Z" fill="#4E82B5"/>
<path fill-rule="evenodd" clip-rule="evenodd" d="M1.90431 690.438C-22.9618 670.004 -49.5908 670.002 -74.4775 690.44L-81.082 634.067C-51.8959 610.099 -20.6613 610.096 8.50979 634.067C8.51003 634.067 8.50956 634.066 8.50979 634.067C8.51057 634.067 8.51206 634.068 8.51284 634.069L40.8039 660.579C65.6906 681.016 92.3206 681.016 117.187 660.581L117.19 660.579L149.483 634.067C149.483 634.067 149.482 634.068 149.483 634.067C178.669 610.1 209.904 610.096 239.075 634.067C239.076 634.067 239.077 634.068 239.078 634.069L271.369 660.579C296.255 681.016 322.885 681.016 347.752 660.581L347.755 660.579L380.048 634.067C380.048 634.067 380.047 634.068 380.048 634.067C409.234 610.1 440.469 610.096 469.639 634.067C469.64 634.067 469.641 634.068 469.642 634.069L501.934 660.579C526.82 681.016 553.45 681.016 578.316 660.581L578.319 660.579L610.613 634.067C610.613 634.067 610.612 634.068 610.613 634.067C639.799 610.099 671.036 610.096 700.207 634.069L693.599 690.438C668.733 670.004 642.104 670.002 617.217 690.44L584.925 716.95C584.924 716.951 584.923 716.952 584.922 716.953C555.751 740.923 524.516 740.921 495.33 716.952L463.037 690.441L463.034 690.438C438.168 670.004 411.539 670.002 386.652 690.44L354.36 716.95C354.359 716.951 354.358 716.952 354.357 716.953C325.186 740.923 293.952 740.921 264.766 716.953C264.766 716.953 264.767 716.953 264.766 716.953L232.469 690.438C207.603 670.004 180.974 670.002 156.087 690.44L123.795 716.95C123.794 716.951 123.793 716.952 123.792 716.953C94.6215 740.923 63.3873 740.921 34.2014 716.953C34.2011 716.953 34.2018 716.953 34.2014 716.953L1.90431 690.438Z" fill="#4E82B5"/>
<path fill-rule="evenodd" clip-rule="evenodd" d="M793.975 268.417C770.169 253.42 744.676 253.419 720.85 268.419L714.527 227.046C742.469 209.455 772.372 209.453 800.299 227.045C800.299 227.045 800.298 227.045 800.299 227.045C800.299 227.046 800.301 227.046 800.302 227.047L831.216 246.503C855.041 261.502 880.536 261.502 904.341 246.504L904.344 246.503L935.26 227.046C935.261 227.045 935.26 227.046 935.26 227.046C963.202 209.455 993.105 209.453 1021.03 227.045C1021.03 227.046 1021.03 227.046 1021.03 227.047L1051.95 246.503C1075.77 261.502 1101.27 261.502 1125.07 246.504L1125.08 246.503L1155.99 227.046C1155.99 227.045 1155.99 227.046 1155.99 227.046C1183.93 209.455 1213.84 209.453 1241.76 227.045C1241.77 227.046 1241.77 227.046 1241.77 227.047L1272.68 246.503C1296.51 261.502 1322 261.502 1345.81 246.504L1345.81 246.503L1376.73 227.046C1376.73 227.045 1376.73 227.046 1376.73 227.046C1404.67 209.455 1434.57 209.453 1462.5 227.047L1456.17 268.417C1432.37 253.42 1406.87 253.419 1383.05 268.419L1352.13 287.875C1352.13 287.876 1352.13 287.876 1352.13 287.877C1324.2 305.469 1294.3 305.467 1266.36 287.876L1235.44 268.419L1235.44 268.417C1211.63 253.42 1186.14 253.419 1162.32 268.419L1131.4 287.875C1131.4 287.876 1131.4 287.876 1131.4 287.877C1103.47 305.469 1073.57 305.467 1045.63 287.877C1045.63 287.877 1045.63 287.877 1045.63 287.877L1014.71 268.417C990.902 253.42 965.409 253.419 941.583 268.419L910.668 287.875C910.667 287.876 910.666 287.876 910.665 287.877C882.738 305.469 852.836 305.467 824.895 287.877C824.894 287.877 824.895 287.877 824.895 287.877L793.975 268.417Z" fill="#14324F"/>
<path fill-rule="evenodd" clip-rule="evenodd" d="M793.975 348.331C770.169 333.334 744.676 333.333 720.85 348.333L714.527 306.96C742.469 289.369 772.372 289.367 800.299 306.959C800.299 306.959 800.298 306.959 800.299 306.959C800.299 306.96 800.301 306.96 800.302 306.961L831.216 326.417C855.041 341.416 880.536 341.416 904.341 326.419L904.344 326.417L935.26 306.96C935.261 306.96 935.26 306.96 935.26 306.96C963.202 289.369 993.105 289.367 1021.03 306.959C1021.03 306.96 1021.03 306.96 1021.03 306.961L1051.95 326.417C1075.77 341.416 1101.27 341.416 1125.07 326.419L1125.08 326.417L1155.99 306.96C1155.99 306.96 1155.99 306.96 1155.99 306.96C1183.93 289.369 1213.84 289.367 1241.76 306.959C1241.77 306.96 1241.77 306.96 1241.77 306.961L1272.68 326.417C1296.51 341.416 1322 341.416 1345.81 326.419L1345.81 326.417L1376.73 306.96C1376.73 306.96 1376.73 306.96 1376.73 306.96C1404.67 289.369 1434.57 289.367 1462.5 306.961L1456.17 348.331C1432.37 333.334 1406.87 333.333 1383.05 348.333L1352.13 367.789C1352.13 367.79 1352.13 367.79 1352.13 367.791C1324.2 385.383 1294.3 385.381 1266.36 367.79L1235.44 348.333L1235.44 348.331C1211.63 333.334 1186.14 333.333 1162.32 348.333L1131.4 367.789C1131.4 367.79 1131.4 367.79 1131.4 367.791C1103.47 385.383 1073.57 385.381 1045.63 367.791C1045.63 367.791 1045.63 367.791 1045.63 367.791L1014.71 348.331C990.902 333.334 965.409 333.333 941.583 348.333L910.668 367.789C910.667 367.79 910.666 367.79 910.665 367.791C882.738 385.383 852.836 385.381 824.895 367.791C824.894 367.791 824.895 367.791 824.895 367.791L793.975 348.331Z" fill="#14324F"/>
<path fill-rule="evenodd" clip-rule="evenodd" d="M793.975 428.249C770.169 413.252 744.676 413.251 720.85 428.251L714.527 386.878C742.469 369.287 772.372 369.285 800.299 386.877C800.299 386.877 800.298 386.877 800.299 386.877C800.299 386.878 800.301 386.878 800.302 386.879L831.216 406.335C855.041 421.334 880.536 421.334 904.341 406.336L904.344 406.335L935.26 386.878C935.261 386.877 935.26 386.878 935.26 386.878C963.202 369.287 993.105 369.285 1021.03 386.877C1021.03 386.878 1021.03 386.878 1021.03 386.879L1051.95 406.335C1075.77 421.334 1101.27 421.334 1125.07 406.336L1125.08 406.335L1155.99 386.878C1155.99 386.877 1155.99 386.878 1155.99 386.878C1183.93 369.287 1213.84 369.285 1241.76 386.877C1241.77 386.878 1241.77 386.878 1241.77 386.879L1272.68 406.335C1296.51 421.334 1322 421.334 1345.81 406.336L1345.81 406.335L1376.73 386.878C1376.73 386.877 1376.73 386.878 1376.73 386.878C1404.67 369.287 1434.57 369.285 1462.5 386.879L1456.17 428.249C1432.37 413.252 1406.87 413.251 1383.05 428.251L1352.13 447.707C1352.13 447.708 1352.13 447.708 1352.13 447.709C1324.2 465.301 1294.3 465.299 1266.36 447.708L1235.44 428.251L1235.44 428.249C1211.63 413.252 1186.14 413.251 1162.32 428.251L1131.4 447.707C1131.4 447.708 1131.4 447.708 1131.4 447.709C1103.47 465.301 1073.57 465.299 1045.63 447.709C1045.63 447.709 1045.63 447.709 1045.63 447.709L1014.71 428.249C990.902 413.252 965.409 413.251 941.583 428.251L910.668 447.707C910.667 447.708 910.666 447.708 910.665 447.709C882.738 465.301 852.836 465.299 824.895 447.709C824.894 447.709 824.895 447.709 824.895 447.709L793.975 428.249Z" fill="#14324F"/>
<path fill-rule="evenodd" clip-rule="evenodd" d="M441.579 -264C443.592 -258.422 446.243 -252.89 449.532 -247.432L468.99 -215.137C484.637 -189.195 484.637 -161.413 468.989 -135.452L449.532 -103.158C432.588 -75.0626 432.589 -44.9788 449.532 -16.8674L468.99 15.4277C484.637 41.3702 484.637 69.1515 468.989 95.1133L449.532 127.407C432.588 155.502 432.589 185.586 449.532 213.697L470.219 210.395C454.571 184.433 454.572 156.653 470.218 130.71L489.677 98.4145C506.62 70.3026 506.62 40.2187 489.676 12.1234L470.219 -20.1697C454.571 -46.1315 454.572 -73.9137 470.219 -99.8563L489.676 -132.15C506.62 -160.262 506.62 -190.346 489.676 -218.441L470.219 -250.735C467.581 -255.111 465.388 -259.538 463.64 -264H441.579Z" fill="#4E82B5"/>
<path fill-rule="evenodd" clip-rule="evenodd" d="M506.681 -264C508.693 -258.422 511.344 -252.89 514.634 -247.432L534.092 -215.137C549.738 -189.195 549.739 -161.413 534.091 -135.452L514.633 -103.158C497.689 -75.0626 497.691 -44.9788 514.634 -16.8674L534.092 15.4277C549.738 41.3702 549.739 69.1515 534.091 95.1133L514.633 127.407C497.689 155.502 497.69 185.586 514.634 213.697L535.32 210.395C519.672 184.433 519.673 156.653 535.32 130.71L554.778 98.4145C571.721 70.3026 571.722 40.2187 554.777 12.1234L535.32 -20.1697C519.672 -46.1315 519.674 -73.9137 535.32 -99.8563L554.778 -132.15C571.721 -160.262 571.722 -190.346 554.777 -218.441L535.32 -250.735C532.683 -255.111 530.49 -259.538 528.742 -264H506.681Z" fill="#4E82B5"/>
<path fill-rule="evenodd" clip-rule="evenodd" d="M571.786 -264C573.799 -258.422 576.45 -252.89 579.739 -247.432L599.197 -215.137C614.844 -189.195 614.844 -161.413 599.196 -135.452L579.739 -103.158C562.795 -75.0626 562.796 -44.9788 579.739 -16.8674L599.197 15.4277C614.844 41.3702 614.844 69.1515 599.196 95.1133L579.739 127.407C562.795 155.502 562.796 185.586 579.739 213.697L600.426 210.395C584.778 184.433 584.779 156.653 600.425 130.71L619.884 98.4145C636.827 70.3026 636.827 40.2187 619.883 12.1234L600.426 -20.1697C584.778 -46.1315 584.779 -73.9137 600.426 -99.8563L619.884 -132.15C636.827 -160.262 636.827 -190.346 619.883 -218.441L600.426 -250.735C597.788 -255.111 595.595 -259.538 593.847 -264H571.786Z" fill="#4E82B5"/>
<path fill-rule="evenodd" clip-rule="evenodd" d="M636.888 -264C638.9 -258.422 641.551 -252.89 644.841 -247.432L664.299 -215.137C679.945 -189.195 679.946 -161.413 664.298 -135.452L644.84 -103.158C627.897 -75.0626 627.898 -44.9788 644.841 -16.8674L664.299 15.4277C679.945 41.3702 679.946 69.1515 664.298 95.1133L644.84 127.407C627.896 155.502 627.897 185.586 644.841 213.697L665.527 210.395C649.88 184.433 649.88 156.653 665.527 130.71L684.985 98.4145C701.928 70.3026 701.929 40.2187 684.984 12.1234L665.527 -20.1697C649.879 -46.1315 649.881 -73.9137 665.528 -99.8563L684.985 -132.15C701.928 -160.262 701.929 -190.346 684.984 -218.441L665.527 -250.735C662.89 -255.111 660.697 -259.538 658.949 -264H636.888Z" fill="#4E82B5"/>
<path fill-rule="evenodd" clip-rule="evenodd" d="M701.99 -264C704.002 -258.422 706.653 -252.89 709.942 -247.432L729.4 -215.137C745.047 -189.195 745.047 -161.413 729.4 -135.452L709.942 -103.158C692.998 -75.0626 692.999 -44.9788 709.942 -16.8674L729.4 15.4277C745.047 41.3702 745.047 69.1515 729.4 95.1133L709.942 127.407C692.998 155.502 692.999 185.586 709.942 213.697L730.629 210.395C714.981 184.433 714.982 156.653 730.628 130.71L750.087 98.4145C767.03 70.3026 767.031 40.2187 750.086 12.1234L730.629 -20.1697C714.981 -46.1315 714.983 -73.9137 730.629 -99.8563L750.087 -132.15C767.03 -160.262 767.031 -190.346 750.086 -218.441L730.629 -250.735C727.991 -255.111 725.798 -259.538 724.05 -264H701.99Z" fill="#4E82B5"/>
</g>
<defs>
<clipPath id="clip0_6_2290">
<rect width="1200" height="675" fill="white"/>
</clipPath>
</defs>
</svg>
