<svg width="1184" height="666" viewBox="0 0 1184 666" fill="none" xmlns="http://www.w3.org/2000/svg">
<g clip-path="url(#clip0_1_5600)">
<rect width="1184" height="666" fill="#DFD4D8"/>
<rect y="326" width="1198" height="340" fill="#F4F4EF"/>
<path fill-rule="evenodd" clip-rule="evenodd" d="M94.9398 95.1192C54.8059 62.1048 11.8268 62.102 -28.3403 95.1218L-39 4.045C8.10642 -34.6794 58.519 -34.6835 105.601 4.04362C105.601 4.04393 105.601 4.04331 105.601 4.04362C105.602 4.04465 105.605 4.04662 105.606 4.04765L157.724 46.8768C197.891 79.8966 240.872 79.8952 281.006 46.8808L281.01 46.8768L333.131 4.045C333.132 4.04454 333.131 4.04546 333.131 4.045C380.237 -34.678 430.651 -34.683 477.732 4.04362C477.734 4.04497 477.736 4.0463 477.737 4.04765L529.855 46.8768C570.022 79.8966 613.003 79.8952 653.137 46.8808L653.142 46.8768L705.263 4.045C705.263 4.04455 705.262 4.04545 705.263 4.045C752.369 -34.678 802.782 -34.6831 849.864 4.04362C849.865 4.04496 849.867 4.04631 849.869 4.04765L901.986 46.8768C942.153 79.8966 985.134 79.8952 1025.27 46.8808L1025.27 46.8768L1077.39 4.045C1077.39 4.04455 1077.39 4.04545 1077.39 4.045C1124.5 -34.6794 1174.92 -34.683 1222 4.04765L1211.33 95.1192C1171.2 62.1048 1128.22 62.102 1088.05 95.1218L1035.93 137.952C1035.93 137.954 1035.93 137.955 1035.93 137.956C988.847 176.683 938.435 176.679 891.328 137.955L839.207 95.1232L839.202 95.1192C799.069 62.1048 756.09 62.102 715.922 95.1218L663.803 137.952C663.801 137.954 663.8 137.955 663.798 137.956C616.717 176.683 566.305 176.679 519.199 137.956C519.198 137.956 519.199 137.957 519.199 137.956L467.071 95.1192C426.937 62.1048 383.958 62.102 343.791 95.1218L291.672 137.952C291.67 137.954 291.668 137.955 291.667 137.956C244.585 176.683 194.173 176.679 147.067 137.956C147.067 137.956 147.068 137.957 147.067 137.956L94.9398 95.1192Z" fill="#4E82B5"/>
<path fill-rule="evenodd" clip-rule="evenodd" d="M94.9398 271.745C54.8059 238.558 11.8268 238.556 -28.3403 271.747L-39 180.196C8.10642 141.27 58.519 141.266 105.601 180.195C105.601 180.195 105.601 180.195 105.601 180.195C105.602 180.196 105.605 180.198 105.606 180.199L157.724 223.251C197.891 256.443 240.872 256.442 281.006 223.255L281.01 223.251L333.131 180.196C333.132 180.196 333.131 180.197 333.131 180.196C380.237 141.272 430.651 141.267 477.732 180.195C477.734 180.196 477.736 180.198 477.737 180.199L529.855 223.251C570.022 256.443 613.003 256.442 653.137 223.255L653.142 223.251L705.263 180.196C705.263 180.196 705.262 180.197 705.263 180.196C752.369 141.272 802.782 141.267 849.864 180.195C849.865 180.196 849.867 180.198 849.869 180.199L901.986 223.251C942.153 256.443 985.134 256.442 1025.27 223.255L1025.27 223.251L1077.39 180.196C1077.39 180.196 1077.39 180.197 1077.39 180.196C1124.5 141.27 1174.92 141.267 1222 180.199L1211.33 271.745C1171.2 238.558 1128.22 238.556 1088.05 271.747L1035.93 314.801C1035.93 314.802 1035.93 314.804 1035.93 314.805C988.847 353.734 938.435 353.73 891.328 314.804L839.207 271.749L839.202 271.745C799.069 238.558 756.09 238.556 715.922 271.747L663.803 314.801C663.801 314.802 663.8 314.804 663.798 314.805C616.717 353.733 566.305 353.73 519.199 314.805C519.198 314.805 519.199 314.806 519.199 314.805L467.071 271.745C426.937 238.558 383.958 238.556 343.791 271.747L291.672 314.801C291.67 314.802 291.668 314.804 291.667 314.805C244.585 353.733 194.173 353.73 147.067 314.805C147.067 314.805 147.068 314.806 147.067 314.805L94.9398 271.745Z" fill="#4E82B5"/>
<circle cx="181" cy="106" r="327" fill="#14324F"/>
<rect width="109.689" height="14.3327" transform="matrix(-1 0 0 1 871.711 508)" fill="#393A3D"/>
<rect width="109.689" height="14.3327" transform="matrix(-1 0 0 1 871.711 536.664)" fill="#393A3D"/>
<rect width="109.689" height="14.3327" transform="matrix(-1 0 0 1 871.711 565.33)" fill="#393A3D"/>
<rect width="109.689" height="14.3327" transform="matrix(-1 0 0 1 871.711 593.996)" fill="#393A3D"/>
<rect width="109.689" height="14.3327" transform="matrix(-1 0 0 1 871.711 622.662)" fill="#393A3D"/>
<rect width="109.689" height="14.3327" transform="matrix(-1 0 0 1 871.711 651.326)" fill="#393A3D"/>
<path d="M909 492C909 548.333 954.219 594 1010 594C1065.78 594 1111 548.333 1111 492H909Z" fill="#393A3D"/>
<path d="M875 492C875 436.219 829.557 391 773.5 391C717.443 391 672 436.219 672 492L875 492Z" fill="#393A3D"/>
</g>
<defs>
<clipPath id="clip0_1_5600">
<rect width="1184" height="666" fill="white"/>
</clipPath>
</defs>
</svg>
