<svg width="1200" height="675" viewBox="0 0 1200 675" fill="none" xmlns="http://www.w3.org/2000/svg">
<g clip-path="url(#clip0_6_2273)">
<rect width="1200" height="675" fill="#F4F4EF"/>
<rect width="397" height="666" fill="#DFD4D8"/>
<path d="M187.281 134V321.459H-1L187.281 134Z" fill="#4E82B5"/>
<path d="M209.479 134V321.459H396.938L209.479 134Z" fill="#4E82B5"/>
<path d="M208.657 531.117L208.657 343.659L396.938 343.659L208.657 531.117Z" fill="#4E82B5"/>
<path d="M186.459 531.117L186.459 343.659L-0.999984 343.659L186.459 531.117Z" fill="#4E82B5"/>
<path d="M576.999 134V321.459H388.719L576.999 134Z" fill="#393A3D"/>
<path d="M599.198 134V321.459H786.656L599.198 134Z" fill="#393A3D"/>
<path d="M598.376 531.117L598.376 343.659L786.656 343.659L598.376 531.117Z" fill="#393A3D"/>
<path d="M576.177 531.117L576.177 343.659L388.719 343.659L576.177 531.117Z" fill="#393A3D"/>
<path d="M974.937 134V321.459H786.656L974.937 134Z" fill="#4E82B5"/>
<path d="M997.135 134V321.459H1184.59L997.135 134Z" fill="#4E82B5"/>
<path d="M996.313 531.117L996.313 343.659L1184.59 343.659L996.313 531.117Z" fill="#4E82B5"/>
<path d="M974.115 531.117L974.115 343.659L786.656 343.659L974.115 531.117Z" fill="#4E82B5"/>
</g>
<defs>
<clipPath id="clip0_6_2273">
<rect width="1200" height="675" fill="white"/>
</clipPath>
</defs>
</svg>
