<svg width="1200" height="675" viewBox="0 0 1200 675" fill="none" xmlns="http://www.w3.org/2000/svg">
<g clip-path="url(#clip0_6_1737)">
<rect width="1200" height="675" fill="#F4F4EF"/>
<rect x="738" y="184" width="482" height="738" transform="rotate(90 738 184)" fill="#D3FA90"/>
<rect x="738" y="6" width="178" height="49.2" transform="rotate(90 738 6)" fill="#AC6500"/>
<rect x="639.602" y="6" width="178" height="49.2" transform="rotate(90 639.602 6)" fill="#AC6500"/>
<rect x="541.199" y="6" width="178" height="49.2" transform="rotate(90 541.199 6)" fill="#AC6500"/>
<rect x="442.801" y="6" width="178" height="49.2" transform="rotate(90 442.801 6)" fill="#AC6500"/>
<rect x="344.398" y="6" width="178" height="49.2" transform="rotate(90 344.398 6)" fill="#AC6500"/>
<rect x="246.172" y="6" width="178" height="49.2" transform="rotate(90 246.172 6)" fill="#AC6500"/>
<rect x="147.602" y="6" width="178" height="49.2" transform="rotate(90 147.602 6)" fill="#AC6500"/>
<rect x="49.1992" y="6" width="178" height="49.2" transform="rotate(90 49.1992 6)" fill="#AC6500"/>
<path d="M738.383 274C642.627 274 565.002 351.625 565.002 447.381C565.002 543.136 642.627 620.761 738.383 620.761L738.383 552.769C680.178 552.769 632.995 505.585 632.995 447.381C632.995 389.176 680.178 341.992 738.383 341.992L738.383 274Z" fill="#F9C741"/>
<path d="M738 620.762C833.755 620.762 911.381 543.136 911.381 447.381C911.381 351.626 833.755 274 738 274L738 341.993C796.204 341.993 843.388 389.177 843.388 447.381C843.388 505.585 796.204 552.769 738 552.769L738 620.762Z" fill="#AC6500"/>
<path fill-rule="evenodd" clip-rule="evenodd" d="M1046.84 308.19C1020.9 293.906 993.116 293.905 967.154 308.191L963.852 289.305C991.963 273.836 1022.05 273.835 1050.14 289.305C1050.14 289.305 1050.14 289.304 1050.14 289.305L1082.44 307.069C1108.4 321.354 1136.18 321.354 1162.12 307.069L1194.42 289.305C1194.42 289.305 1194.42 289.305 1194.42 289.305C1222.53 273.837 1252.61 273.836 1280.71 289.305C1280.71 289.305 1280.71 289.304 1280.71 289.305L1313 307.069C1338.96 321.354 1366.74 321.354 1392.69 307.069L1424.98 289.305C1424.98 289.305 1424.98 289.305 1424.98 289.305C1453.09 273.837 1483.18 273.836 1511.27 289.305C1511.27 289.305 1511.27 289.304 1511.27 289.305L1543.57 307.069C1569.53 321.354 1597.31 321.354 1623.25 307.069L1655.55 289.305C1683.66 273.836 1713.74 273.835 1741.84 289.305L1738.53 308.19C1712.59 293.906 1684.81 293.905 1658.85 308.191L1626.56 325.954C1626.55 325.954 1626.56 325.954 1626.56 325.954C1598.46 341.423 1568.38 341.423 1540.26 325.955L1507.97 308.191C1482.03 293.907 1454.25 293.905 1428.28 308.191L1395.99 325.954C1367.9 341.424 1337.81 341.424 1309.7 325.955C1309.7 325.955 1309.7 325.955 1309.7 325.955L1277.41 308.191C1251.46 293.907 1223.68 293.905 1197.72 308.191L1165.43 325.954C1137.33 341.424 1107.25 341.424 1079.13 325.955C1079.13 325.955 1079.13 325.955 1079.13 325.955L1046.84 308.19Z" fill="#393A3D"/>
<path fill-rule="evenodd" clip-rule="evenodd" d="M1046.84 381.151C1020.9 366.867 993.116 366.866 967.154 381.152L963.852 362.266C991.963 346.797 1022.05 346.796 1050.14 362.266C1050.14 362.266 1050.14 362.265 1050.14 362.266L1082.44 380.03C1108.4 394.315 1136.18 394.315 1162.12 380.03L1194.42 362.266C1194.42 362.266 1194.42 362.266 1194.42 362.266C1222.53 346.798 1252.61 346.797 1280.71 362.266C1280.71 362.266 1280.71 362.265 1280.71 362.266L1313 380.03C1338.96 394.315 1366.74 394.315 1392.69 380.03L1424.98 362.266C1424.98 362.266 1424.98 362.266 1424.98 362.266C1453.09 346.798 1483.18 346.796 1511.27 362.266C1511.27 362.266 1511.27 362.265 1511.27 362.266L1543.57 380.03C1569.53 394.315 1597.31 394.315 1623.25 380.03L1655.55 362.266C1683.66 346.797 1713.74 346.796 1741.84 362.266L1738.53 381.151C1712.59 366.867 1684.81 366.866 1658.85 381.152L1626.56 398.915C1626.55 398.915 1626.56 398.915 1626.56 398.915C1598.46 414.384 1568.38 414.384 1540.26 398.916L1507.97 381.152C1482.03 366.867 1454.25 366.866 1428.28 381.152L1395.99 398.915C1367.9 414.385 1337.81 414.385 1309.7 398.916C1309.7 398.916 1309.7 398.916 1309.7 398.916L1277.41 381.152C1251.46 366.867 1223.68 366.866 1197.72 381.152L1165.43 398.915C1137.33 414.385 1107.25 414.385 1079.13 398.916C1079.13 398.916 1079.13 398.916 1079.13 398.916L1046.84 381.151Z" fill="#393A3D"/>
<path fill-rule="evenodd" clip-rule="evenodd" d="M1046.84 454.108C1020.9 439.824 993.116 439.823 967.154 454.109L963.852 435.223C991.963 419.754 1022.05 419.753 1050.14 435.223C1050.14 435.223 1050.14 435.222 1050.14 435.223L1082.44 452.987C1108.4 467.272 1136.18 467.272 1162.12 452.987L1194.42 435.223C1194.42 435.223 1194.42 435.223 1194.42 435.223C1222.53 419.755 1252.61 419.754 1280.71 435.223C1280.71 435.223 1280.71 435.222 1280.71 435.223L1313 452.987C1338.96 467.272 1366.74 467.272 1392.69 452.987L1424.98 435.223C1424.98 435.223 1424.98 435.223 1424.98 435.223C1453.09 419.755 1483.18 419.754 1511.27 435.223C1511.27 435.223 1511.27 435.222 1511.27 435.223L1543.57 452.987C1569.53 467.272 1597.31 467.272 1623.25 452.987L1655.55 435.223C1683.66 419.754 1713.74 419.753 1741.84 435.223L1738.53 454.108C1712.59 439.824 1684.81 439.823 1658.85 454.109L1626.56 471.872C1626.55 471.872 1626.56 471.872 1626.56 471.872C1598.46 487.341 1568.38 487.341 1540.26 471.873L1507.97 454.109C1482.03 439.824 1454.25 439.823 1428.28 454.109L1395.99 471.872C1367.9 487.342 1337.81 487.342 1309.7 471.873C1309.7 471.873 1309.7 471.873 1309.7 471.873L1277.41 454.109C1251.46 439.824 1223.68 439.823 1197.72 454.109L1165.43 471.872C1137.33 487.342 1107.25 487.342 1079.13 471.873C1079.13 471.873 1079.13 471.873 1079.13 471.873L1046.84 454.108Z" fill="#393A3D"/>
<path fill-rule="evenodd" clip-rule="evenodd" d="M1046.84 527.065C1020.9 512.781 993.116 512.78 967.154 527.066L963.852 508.18C991.963 492.711 1022.05 492.71 1050.14 508.18C1050.14 508.18 1050.14 508.179 1050.14 508.18L1082.44 525.944C1108.4 540.229 1136.18 540.229 1162.12 525.944L1194.42 508.18C1194.42 508.18 1194.42 508.18 1194.42 508.18C1222.53 492.712 1252.61 492.711 1280.71 508.18C1280.71 508.18 1280.71 508.179 1280.71 508.18L1313 525.944C1338.96 540.229 1366.74 540.229 1392.69 525.944L1424.98 508.18C1424.98 508.18 1424.98 508.18 1424.98 508.18C1453.09 492.712 1483.18 492.711 1511.27 508.18C1511.27 508.18 1511.27 508.179 1511.27 508.18L1543.57 525.944C1569.53 540.229 1597.31 540.229 1623.25 525.944L1655.55 508.18C1683.66 492.711 1713.74 492.71 1741.84 508.18L1738.53 527.065C1712.59 512.781 1684.81 512.78 1658.85 527.066L1626.56 544.829C1626.55 544.829 1626.56 544.829 1626.56 544.829C1598.46 560.298 1568.38 560.298 1540.26 544.83L1507.97 527.066C1482.03 512.782 1454.25 512.78 1428.28 527.066L1395.99 544.829C1367.9 560.299 1337.81 560.299 1309.7 544.83C1309.7 544.83 1309.7 544.83 1309.7 544.83L1277.41 527.066C1251.46 512.782 1223.68 512.78 1197.72 527.066L1165.43 544.829C1137.33 560.299 1107.25 560.299 1079.13 544.83C1079.13 544.83 1079.13 544.83 1079.13 544.83L1046.84 527.065Z" fill="#393A3D"/>
<path fill-rule="evenodd" clip-rule="evenodd" d="M1046.84 600.026C1020.9 585.742 993.116 585.741 967.154 600.027L963.852 581.141C991.963 565.672 1022.05 565.671 1050.14 581.141C1050.14 581.141 1050.14 581.14 1050.14 581.141L1082.44 598.905C1108.4 613.19 1136.18 613.19 1162.12 598.905L1194.42 581.141C1194.42 581.141 1194.42 581.141 1194.42 581.141C1222.53 565.673 1252.61 565.672 1280.71 581.141C1280.71 581.141 1280.71 581.14 1280.71 581.141L1313 598.905C1338.96 613.19 1366.74 613.19 1392.69 598.905L1424.98 581.141C1424.98 581.141 1424.98 581.141 1424.98 581.141C1453.09 565.673 1483.18 565.671 1511.27 581.141C1511.27 581.141 1511.27 581.14 1511.27 581.141L1543.57 598.905C1569.53 613.19 1597.31 613.19 1623.25 598.905L1655.55 581.141C1683.66 565.672 1713.74 565.671 1741.84 581.141L1738.53 600.026C1712.59 585.742 1684.81 585.741 1658.85 600.027L1626.56 617.79C1626.55 617.79 1626.56 617.79 1626.56 617.79C1598.46 633.259 1568.38 633.259 1540.26 617.791L1507.97 600.027C1482.03 585.742 1454.25 585.741 1428.28 600.027L1395.99 617.79C1367.9 633.26 1337.81 633.26 1309.7 617.791C1309.7 617.791 1309.7 617.791 1309.7 617.791L1277.41 600.027C1251.46 585.742 1223.68 585.741 1197.72 600.027L1165.43 617.79C1137.33 633.26 1107.25 633.26 1079.13 617.791C1079.13 617.791 1079.13 617.791 1079.13 617.791L1046.84 600.026Z" fill="#393A3D"/>
</g>
<defs>
<clipPath id="clip0_6_1737">
<rect width="1200" height="675" fill="white"/>
</clipPath>
</defs>
</svg>
