<svg width="1184" height="666" viewBox="0 0 1184 666" fill="none" xmlns="http://www.w3.org/2000/svg">
<g clip-path="url(#clip0_1_5258)">
<rect width="1184" height="666" fill="#F4F4EF"/>
<rect x="738" y="184" width="482" height="738" transform="rotate(90 738 184)" fill="#D3FA90"/>
<rect x="738" width="184" height="49.2" transform="rotate(90 738 0)" fill="#AC6500"/>
<rect x="639.602" width="184" height="49.2" transform="rotate(90 639.602 0)" fill="#AC6500"/>
<rect x="541.195" width="184" height="49.2" transform="rotate(90 541.195 0)" fill="#AC6500"/>
<rect x="442.805" width="184" height="49.2" transform="rotate(90 442.805 0)" fill="#AC6500"/>
<rect x="344.398" width="184" height="49.2" transform="rotate(90 344.398 0)" fill="#AC6500"/>
<rect x="246.172" width="184" height="49.2" transform="rotate(90 246.172 0)" fill="#AC6500"/>
<rect x="147.602" width="184" height="49.2" transform="rotate(90 147.602 0)" fill="#AC6500"/>
<rect x="49.1953" width="184" height="49.2" transform="rotate(90 49.1953 0)" fill="#AC6500"/>
<path d="M738.383 274C642.627 274 565.002 351.625 565.002 447.381C565.002 543.136 642.627 620.761 738.383 620.761L738.383 552.769C680.178 552.769 632.995 505.585 632.995 447.381C632.995 389.176 680.178 341.992 738.383 341.992L738.383 274Z" fill="#F9C741"/>
<path d="M738 620.762C833.755 620.762 911.381 543.136 911.381 447.381C911.381 351.626 833.755 274 738 274L738 341.993C796.204 341.993 843.388 389.177 843.388 447.381C843.388 505.585 796.204 552.769 738 552.769L738 620.762Z" fill="#AC6500"/>
<path fill-rule="evenodd" clip-rule="evenodd" d="M1032.88 304.081C1007.28 289.987 979.874 289.986 954.258 304.081L951 285.447C978.737 270.185 1008.42 270.184 1036.14 285.447C1036.14 285.447 1036.14 285.447 1036.14 285.447L1068 302.974C1093.62 317.069 1121.03 317.069 1146.63 302.975L1178.49 285.447C1178.49 285.447 1178.49 285.447 1178.49 285.447C1206.23 270.185 1235.91 270.184 1263.63 285.447C1263.63 285.447 1263.63 285.447 1263.63 285.447L1295.49 302.974C1321.11 317.069 1348.52 317.069 1374.12 302.975L1405.98 285.447C1405.98 285.447 1405.98 285.447 1405.98 285.447C1433.72 270.185 1463.4 270.184 1491.12 285.447C1491.12 285.447 1491.12 285.447 1491.12 285.447L1522.98 302.974C1548.6 317.069 1576.01 317.069 1601.61 302.975L1633.47 285.447C1661.21 270.184 1690.89 270.184 1718.61 285.448L1715.35 304.081C1689.76 289.987 1662.35 289.986 1636.73 304.081L1604.87 321.608C1604.87 321.608 1604.87 321.607 1604.87 321.608C1577.15 336.871 1547.46 336.871 1519.73 321.608L1487.86 304.081C1462.27 289.987 1434.86 289.986 1409.24 304.081L1377.38 321.608C1349.66 336.871 1319.97 336.871 1292.24 321.609C1292.24 321.608 1292.24 321.609 1292.24 321.609L1260.37 304.081C1234.78 289.987 1207.36 289.986 1181.75 304.081L1149.89 321.608C1122.17 336.871 1092.48 336.871 1064.75 321.609C1064.75 321.608 1064.75 321.609 1064.75 321.609L1032.88 304.081Z" fill="#393A3D"/>
<path fill-rule="evenodd" clip-rule="evenodd" d="M1032.88 376.065C1007.28 361.971 979.874 361.97 954.258 376.066L951 357.431C978.737 342.169 1008.42 342.168 1036.14 357.431C1036.14 357.431 1036.14 357.431 1036.14 357.431L1068 374.958C1093.62 389.054 1121.03 389.053 1146.63 374.959L1178.49 357.431C1178.49 357.431 1178.49 357.432 1178.49 357.431C1206.23 342.169 1235.91 342.168 1263.63 357.431C1263.63 357.431 1263.63 357.431 1263.63 357.431L1295.49 374.958C1321.11 389.054 1348.52 389.053 1374.12 374.959L1405.98 357.431C1405.98 357.431 1405.98 357.432 1405.98 357.431C1433.72 342.169 1463.4 342.168 1491.12 357.431C1491.12 357.431 1491.12 357.431 1491.12 357.431L1522.98 374.958C1548.6 389.054 1576.01 389.053 1601.61 374.959L1633.47 357.431C1661.21 342.169 1690.89 342.168 1718.61 357.432L1715.35 376.065C1689.76 361.971 1662.35 361.97 1636.73 376.066L1604.87 393.592C1604.87 393.592 1604.87 393.592 1604.87 393.592C1577.15 408.855 1547.46 408.855 1519.73 393.593L1487.86 376.066C1462.27 361.972 1434.86 361.97 1409.24 376.066L1377.38 393.592C1349.66 408.856 1319.97 408.855 1292.24 393.593C1292.24 393.593 1292.24 393.593 1292.24 393.593L1260.37 376.066C1234.78 361.972 1207.36 361.97 1181.75 376.066L1149.89 393.592C1122.17 408.856 1092.48 408.855 1064.75 393.593C1064.75 393.593 1064.75 393.593 1064.75 393.593L1032.88 376.065Z" fill="#393A3D"/>
<path fill-rule="evenodd" clip-rule="evenodd" d="M1032.88 448.053C1007.28 433.959 979.874 433.959 954.258 448.054L951 429.42C978.737 414.157 1008.42 414.157 1036.14 429.419C1036.14 429.42 1036.14 429.419 1036.14 429.419L1068 446.947C1093.62 461.042 1121.03 461.042 1146.63 446.947L1178.49 429.42C1178.49 429.42 1178.49 429.42 1178.49 429.42C1206.23 414.158 1235.91 414.157 1263.63 429.419C1263.63 429.42 1263.63 429.419 1263.63 429.419L1295.49 446.947C1321.11 461.042 1348.52 461.042 1374.12 446.947L1405.98 429.42C1405.98 429.42 1405.98 429.42 1405.98 429.42C1433.72 414.158 1463.4 414.157 1491.12 429.419C1491.12 429.42 1491.12 429.419 1491.12 429.419L1522.98 446.947C1548.6 461.042 1576.01 461.042 1601.61 446.947L1633.47 429.42C1661.21 414.157 1690.89 414.157 1718.61 429.42L1715.35 448.053C1689.76 433.959 1662.35 433.959 1636.73 448.054L1604.87 465.58C1604.87 465.581 1604.87 465.58 1604.87 465.58C1577.15 480.843 1547.46 480.843 1519.73 465.581L1487.86 448.054C1462.27 433.96 1434.86 433.959 1409.24 448.054L1377.38 465.58C1349.66 480.844 1319.97 480.844 1292.24 465.581C1292.24 465.581 1292.24 465.581 1292.24 465.581L1260.37 448.054C1234.78 433.96 1207.36 433.959 1181.75 448.054L1149.89 465.58C1122.17 480.844 1092.48 480.844 1064.75 465.581C1064.75 465.581 1064.75 465.581 1064.75 465.581L1032.88 448.053Z" fill="#393A3D"/>
<path fill-rule="evenodd" clip-rule="evenodd" d="M1032.88 520.038C1007.28 505.944 979.874 505.943 954.258 520.038L951 501.404C978.737 486.142 1008.42 486.141 1036.14 501.404C1036.14 501.404 1036.14 501.404 1036.14 501.404L1068 518.931C1093.62 533.026 1121.03 533.026 1146.63 518.932L1178.49 501.404C1178.49 501.404 1178.49 501.404 1178.49 501.404C1206.23 486.142 1235.91 486.141 1263.63 501.404C1263.63 501.404 1263.63 501.404 1263.63 501.404L1295.49 518.931C1321.11 533.026 1348.52 533.026 1374.12 518.932L1405.98 501.404C1405.98 501.404 1405.98 501.404 1405.98 501.404C1433.72 486.142 1463.4 486.141 1491.12 501.404C1491.12 501.404 1491.12 501.404 1491.12 501.404L1522.98 518.931C1548.6 533.026 1576.01 533.026 1601.61 518.932L1633.47 501.404C1661.21 486.142 1690.89 486.141 1718.61 501.405L1715.35 520.038C1689.76 505.944 1662.35 505.943 1636.73 520.038L1604.87 537.565C1604.87 537.565 1604.87 537.564 1604.87 537.565C1577.15 552.828 1547.46 552.828 1519.73 537.565L1487.86 520.038C1462.27 505.944 1434.86 505.943 1409.24 520.038L1377.38 537.565C1349.66 552.828 1319.97 552.828 1292.24 537.566C1292.24 537.565 1292.24 537.566 1292.24 537.566L1260.37 520.038C1234.78 505.944 1207.36 505.943 1181.75 520.038L1149.89 537.565C1122.17 552.828 1092.48 552.828 1064.75 537.566C1064.75 537.565 1064.75 537.566 1064.75 537.566L1032.88 520.038Z" fill="#393A3D"/>
<path fill-rule="evenodd" clip-rule="evenodd" d="M1032.88 592.026C1007.28 577.932 979.874 577.931 954.258 592.026L951 573.392C978.737 558.13 1008.42 558.129 1036.14 573.392C1036.14 573.392 1036.14 573.392 1036.14 573.392L1068 590.919C1093.62 605.014 1121.03 605.014 1146.63 590.92L1178.49 573.392C1178.49 573.392 1178.49 573.393 1178.49 573.392C1206.23 558.13 1235.91 558.129 1263.63 573.392C1263.63 573.392 1263.63 573.392 1263.63 573.392L1295.49 590.919C1321.11 605.014 1348.52 605.014 1374.12 590.92L1405.98 573.392C1405.98 573.392 1405.98 573.393 1405.98 573.392C1433.72 558.13 1463.4 558.129 1491.12 573.392C1491.12 573.392 1491.12 573.392 1491.12 573.392L1522.98 590.919C1548.6 605.014 1576.01 605.014 1601.61 590.92L1633.47 573.392C1661.21 558.13 1690.89 558.129 1718.61 573.393L1715.35 592.026C1689.76 577.932 1662.35 577.931 1636.73 592.026L1604.87 609.553C1604.87 609.553 1604.87 609.553 1604.87 609.553C1577.15 624.816 1547.46 624.816 1519.73 609.554L1487.86 592.027C1462.27 577.933 1434.86 577.931 1409.24 592.026L1377.38 609.553C1349.66 624.817 1319.97 624.816 1292.24 609.554C1292.24 609.554 1292.24 609.554 1292.24 609.554L1260.37 592.027C1234.78 577.933 1207.36 577.931 1181.75 592.026L1149.89 609.553C1122.17 624.817 1092.48 624.816 1064.75 609.554C1064.75 609.554 1064.75 609.554 1064.75 609.554L1032.88 592.026Z" fill="#393A3D"/>
</g>
<defs>
<clipPath id="clip0_1_5258">
<rect width="1184" height="666" fill="white"/>
</clipPath>
</defs>
</svg>
