<svg width="1184" height="666" viewBox="0 0 1184 666" fill="none" xmlns="http://www.w3.org/2000/svg">
<g clip-path="url(#clip0_1_5075)">
<rect width="1184" height="666" fill="#F4F4EF"/>
<rect x="595" width="666" height="595" transform="rotate(90 595 0)" fill="#D3FA90"/>
<rect x="366" y="126" width="211.73" height="27.666" fill="#F9C741"/>
<rect x="366" y="181.332" width="211.73" height="27.666" fill="#AC6500"/>
<rect x="366" y="236.664" width="211.73" height="27.666" fill="#393A3D"/>
<rect x="366" y="291.996" width="211.73" height="27.666" fill="#AC6500"/>
<rect x="366" y="347.328" width="211.73" height="27.666" fill="#F9C741"/>
<rect x="366" y="402.66" width="211.73" height="27.666" fill="#AC6500"/>
<rect x="366" y="457.992" width="211.73" height="27.666" fill="#F9C741"/>
<rect x="366" y="513.324" width="211.73" height="27.666" fill="#393A3D"/>
<rect x="856" y="126" width="211.73" height="27.666" fill="#BABEC5"/>
<rect x="856" y="181.332" width="211.73" height="27.666" fill="#BABEC5"/>
<rect x="856" y="236.664" width="211.73" height="27.666" fill="#BABEC5"/>
<rect x="856" y="291.996" width="211.73" height="27.666" fill="#BABEC5"/>
<rect x="856" y="347.328" width="211.73" height="27.666" fill="#BABEC5"/>
<rect x="856" y="402.66" width="211.73" height="27.666" fill="#BABEC5"/>
<rect x="856" y="457.992" width="211.73" height="27.666" fill="#BABEC5"/>
<rect x="856" y="513.324" width="211.73" height="27.666" fill="#BABEC5"/>
<rect x="856" y="126" width="211.73" height="27.666" fill="#F9C741"/>
<rect x="856" y="181.332" width="211.73" height="27.666" fill="#AC6500"/>
<rect x="856" y="236.664" width="211.73" height="27.666" fill="#393A3D"/>
<rect x="856" y="291.996" width="211.73" height="27.666" fill="#AC6500"/>
<rect x="856" y="347.328" width="211.73" height="27.666" fill="#393A3D"/>
<rect x="856" y="402.66" width="211.73" height="27.666" fill="#AC6500"/>
<rect x="856" y="457.992" width="211.73" height="27.666" fill="#F9C741"/>
<rect x="856" y="513.324" width="211.73" height="27.666" fill="#AC6500"/>
<rect x="611" y="209" width="211.73" height="27.666" fill="#F9C741"/>
<rect x="611" y="264.332" width="211.73" height="27.666" fill="#AC6500"/>
<rect x="611" y="319.664" width="211.73" height="27.666" fill="#393A3D"/>
<rect x="611" y="374.996" width="211.73" height="27.666" fill="#F9C741"/>
<rect x="611" y="430.328" width="211.73" height="27.666" fill="#AC6500"/>
<rect x="611" y="485.66" width="211.73" height="27.666" fill="#F9C741"/>
<rect x="611" y="540.992" width="211.73" height="27.666" fill="#393A3D"/>
<rect x="611" y="596.324" width="211.73" height="27.666" fill="#AC6500"/>
<rect x="121" y="43" width="211.73" height="27.666" fill="#F9C741"/>
<rect x="121" y="98.332" width="211.73" height="27.666" fill="#393A3D"/>
<rect x="121" y="153.664" width="211.73" height="27.666" fill="#F9C741"/>
<rect x="121" y="208.996" width="211.73" height="27.666" fill="#393A3D"/>
<rect x="121" y="264.328" width="211.73" height="27.666" fill="#AC6500"/>
<rect x="121" y="319.66" width="211.73" height="27.666" fill="#F9C741"/>
<rect x="121" y="374.992" width="211.73" height="27.666" fill="#393A3D"/>
<rect x="121" y="430.324" width="211.73" height="27.666" fill="#AC6500"/>
</g>
<defs>
<clipPath id="clip0_1_5075">
<rect width="1184" height="666" fill="white"/>
</clipPath>
</defs>
</svg>
