<svg width="1200" height="675" viewBox="0 0 1200 675" fill="none" xmlns="http://www.w3.org/2000/svg">
<g clip-path="url(#clip0_6_1475)">
<rect width="1200" height="675" fill="#F4F4EF"/>
<rect x="560" width="666" height="560" transform="rotate(90 560 0)" fill="#D3FA90"/>
<path fill-rule="evenodd" clip-rule="evenodd" d="M550.6 823.001C688.425 823.001 800.154 711.272 800.154 573.448C800.154 435.623 688.425 323.895 550.6 323.895C412.776 323.895 301.047 435.623 301.047 573.448C301.047 711.272 412.776 823.001 550.6 823.001ZM550.6 725.137C634.376 725.137 702.29 657.224 702.29 573.448C702.29 489.672 634.376 421.759 550.6 421.759C466.825 421.759 398.911 489.672 398.911 573.448C398.911 657.224 466.825 725.137 550.6 725.137Z" fill="#AC6500"/>
<path fill-rule="evenodd" clip-rule="evenodd" d="M307.858 -75C309.304 -70.6378 311.31 -66.3122 313.878 -62.0519L327.37 -39.6592C338.219 -21.6711 338.219 -2.40825 327.369 15.5931L313.878 37.9852C302.129 57.4656 302.13 78.3251 313.878 97.8169L327.37 120.21C338.219 138.198 338.219 157.461 327.369 175.462L313.878 197.854C302.129 217.335 302.13 238.194 313.878 257.686L328.221 255.396C317.372 237.395 317.372 218.132 328.221 200.144L341.713 177.751C353.461 158.259 353.462 137.399 341.712 117.919L328.221 95.5272C317.372 77.5258 317.373 58.2622 328.222 40.2742L341.713 17.8821C353.461 -1.61009 353.462 -22.4696 341.712 -41.9503L328.221 -64.3417C326.105 -67.8527 324.402 -71.4118 323.111 -75H307.858Z" fill="#393A3D"/>
<path fill-rule="evenodd" clip-rule="evenodd" d="M352.995 -75C354.44 -70.6378 356.447 -66.3123 359.015 -62.052L372.506 -39.6593C383.355 -21.6712 383.356 -2.40836 372.506 15.593L359.014 37.9851C347.266 57.4655 347.267 78.325 359.015 97.8168L372.506 120.21C383.355 138.198 383.356 157.461 372.506 175.462L359.014 197.854C347.266 217.334 347.266 238.194 359.015 257.686L373.358 255.396C362.508 237.395 362.509 218.132 373.358 200.144L386.85 177.751C398.598 158.259 398.598 137.399 386.849 117.918L373.358 95.5271C362.508 77.5257 362.509 58.2621 373.358 40.2741L386.85 17.882C398.598 -1.61019 398.598 -22.4697 386.849 -41.9504L373.358 -64.3418C371.242 -67.8528 369.539 -71.4118 368.248 -75H352.995Z" fill="#393A3D"/>
<path fill-rule="evenodd" clip-rule="evenodd" d="M398.14 -75C399.585 -70.6378 401.591 -66.3123 404.159 -62.052L417.651 -39.6593C428.5 -21.6712 428.5 -2.40836 417.65 15.593L404.159 37.9851C392.41 57.4655 392.411 78.325 404.159 97.8168L417.651 120.21C428.5 138.198 428.5 157.461 417.65 175.462L404.159 197.854C392.41 217.334 392.411 238.194 404.159 257.686L418.503 255.396C407.653 237.395 407.653 218.132 418.502 200.144L431.994 177.751C443.743 158.259 443.743 137.399 431.994 117.918L418.503 95.5271C407.653 77.5257 407.654 58.2621 418.503 40.2741L431.994 17.882C443.743 -1.61019 443.743 -22.4697 431.994 -41.9504L418.503 -64.3418C416.386 -67.8528 414.683 -71.4118 413.392 -75H398.14Z" fill="#393A3D"/>
<path fill-rule="evenodd" clip-rule="evenodd" d="M443.292 -75C444.737 -70.6378 446.744 -66.3123 449.311 -62.052L462.803 -39.6593C473.652 -21.6712 473.652 -2.40836 462.803 15.593L449.311 37.9851C437.563 57.4655 437.563 78.325 449.311 97.8168L462.803 120.21C473.652 138.198 473.652 157.461 462.803 175.462L449.311 197.854C437.563 217.334 437.563 238.194 449.311 257.686L463.655 255.396C452.805 237.395 452.806 218.132 463.655 200.144L477.147 177.751C488.895 158.259 488.895 137.399 477.146 117.918L463.655 95.5271C452.805 77.5257 452.806 58.2621 463.655 40.2741L477.147 17.882C488.895 -1.61019 488.895 -22.4697 477.146 -41.9504L463.655 -64.3418C461.539 -67.8528 459.835 -71.4118 458.545 -75H443.292Z" fill="#393A3D"/>
<path fill-rule="evenodd" clip-rule="evenodd" d="M488.421 -75C489.866 -70.6378 491.873 -66.3123 494.44 -62.052L507.932 -39.6593C518.781 -21.6712 518.781 -2.40836 507.932 15.593L494.44 37.9851C482.692 57.4655 482.692 78.325 494.44 97.8168L507.932 120.21C518.781 138.198 518.781 157.461 507.932 175.462L494.44 197.854C482.691 217.334 482.692 238.194 494.44 257.686L508.784 255.396C497.934 237.395 497.935 218.132 508.783 200.144L522.276 177.751C534.024 158.259 534.024 137.399 522.275 117.918L508.784 95.5271C497.934 77.5257 497.935 58.2621 508.784 40.2741L522.276 17.882C534.024 -1.61019 534.024 -22.4697 522.275 -41.9504L508.784 -64.3418C506.668 -67.8528 504.964 -71.4118 503.674 -75H488.421Z" fill="#393A3D"/>
<circle cx="813.141" cy="254.141" r="54.1408" fill="#F9C741"/>
</g>
<defs>
<clipPath id="clip0_6_1475">
<rect width="1200" height="675" fill="white"/>
</clipPath>
</defs>
</svg>
