<svg width="1184" height="666" viewBox="0 0 1184 666" fill="none" xmlns="http://www.w3.org/2000/svg">
<g clip-path="url(#clip0_1_4996)">
<rect width="1184" height="666" fill="#F4F4EF"/>
<rect x="560" width="666" height="560" transform="rotate(90 560 0)" fill="#D3FA90"/>
<path fill-rule="evenodd" clip-rule="evenodd" d="M550.6 823.001C688.425 823.001 800.154 711.272 800.154 573.448C800.154 435.623 688.425 323.895 550.6 323.895C412.776 323.895 301.047 435.623 301.047 573.448C301.047 711.272 412.776 823.001 550.6 823.001ZM550.6 725.137C634.376 725.137 702.29 657.224 702.29 573.448C702.29 489.672 634.376 421.759 550.6 421.759C466.825 421.759 398.911 489.672 398.911 573.448C398.911 657.224 466.825 725.137 550.6 725.137Z" fill="#AC6500"/>
<path fill-rule="evenodd" clip-rule="evenodd" d="M303.433 -75C304.878 -70.357 306.964 -65.7534 309.694 -61.2246L323.006 -39.1304C333.71 -21.3822 333.71 -2.37615 323.005 15.3852L309.694 37.4787C298.102 56.6994 298.103 77.2807 309.694 96.5127L323.006 118.607C333.71 136.355 333.71 155.361 323.005 173.122L309.694 195.216C298.102 214.437 298.102 235.018 309.694 254.25L323.846 251.991C313.141 234.229 313.142 215.224 323.846 197.476L337.158 175.381C348.75 156.149 348.75 135.567 337.157 116.346L323.846 94.2535C313.141 76.4921 313.142 57.4854 323.846 39.7372L337.158 17.6437C348.75 -1.58863 348.75 -22.17 337.157 -41.391L323.846 -63.4838C321.562 -67.2739 319.765 -71.1208 318.456 -75H303.433Z" fill="#393A3D"/>
<path fill-rule="evenodd" clip-rule="evenodd" d="M347.969 -75C349.413 -70.357 351.5 -65.7534 354.229 -61.2247L367.541 -39.1305C378.245 -21.3823 378.246 -2.37627 367.54 15.3851L354.229 37.4786C342.637 56.6992 342.638 77.2806 354.229 96.5126L367.541 118.607C378.245 136.355 378.246 155.361 367.54 173.122L354.229 195.216C342.637 214.437 342.638 235.018 354.229 254.25L368.381 251.991C357.676 234.229 357.677 215.224 368.381 197.475L381.693 175.381C393.285 156.149 393.285 135.567 381.693 116.346L368.381 94.2534C357.676 76.492 357.677 57.4853 368.382 39.7371L381.693 17.6436C393.285 -1.58875 393.285 -22.1701 381.693 -41.3911L368.381 -63.4839C366.097 -67.274 364.3 -71.1208 362.991 -75H347.969Z" fill="#393A3D"/>
<path fill-rule="evenodd" clip-rule="evenodd" d="M392.512 -75C393.956 -70.357 396.043 -65.7534 398.772 -61.2247L412.084 -39.1305C422.788 -21.3823 422.789 -2.37627 412.083 15.3851L398.772 37.4786C387.18 56.6992 387.181 77.2806 398.772 96.5126L412.084 118.607C422.788 136.355 422.789 155.361 412.083 173.122L398.772 195.216C387.18 214.437 387.181 235.018 398.772 254.25L412.924 251.991C402.219 234.229 402.22 215.224 412.924 197.475L426.236 175.381C437.828 156.149 437.828 135.567 426.236 116.346L412.924 94.2534C402.219 76.492 402.22 57.4853 412.925 39.7371L426.236 17.6436C437.828 -1.58875 437.828 -22.1701 426.236 -41.3911L412.924 -63.4839C410.64 -67.274 408.843 -71.1208 407.534 -75H392.512Z" fill="#393A3D"/>
<path fill-rule="evenodd" clip-rule="evenodd" d="M437.062 -75C438.506 -70.357 440.593 -65.7534 443.323 -61.2247L456.635 -39.1305C467.339 -21.3823 467.339 -2.37627 456.634 15.3851L443.323 37.4786C431.731 56.6992 431.731 77.2806 443.323 96.5126L456.635 118.607C467.339 136.355 467.339 155.361 456.634 173.122L443.323 195.216C431.731 214.437 431.731 235.018 443.323 254.25L457.475 251.991C446.77 234.229 446.77 215.224 457.475 197.475L470.787 175.381C482.379 156.149 482.379 135.567 470.786 116.346L457.475 94.2534C446.77 76.492 446.771 57.4853 457.475 39.7371L470.787 17.6436C482.379 -1.58875 482.379 -22.1701 470.786 -41.3911L457.475 -63.4839C455.191 -67.274 453.394 -71.1208 452.085 -75H437.062Z" fill="#393A3D"/>
<path fill-rule="evenodd" clip-rule="evenodd" d="M481.59 -75C483.034 -70.357 485.121 -65.7534 487.85 -61.2247L501.162 -39.1305C511.866 -21.3823 511.867 -2.37627 501.162 15.3851L487.85 37.4786C476.258 56.6992 476.259 77.2806 487.85 96.5126L501.162 118.607C511.866 136.355 511.867 155.361 501.162 173.122L487.85 195.216C476.258 214.437 476.259 235.018 487.85 254.25L502.003 251.991C491.297 234.229 491.298 215.224 502.002 197.475L515.314 175.381C526.906 156.149 526.906 135.567 515.314 116.346L502.002 94.2534C491.297 76.492 491.298 57.4853 502.003 39.7371L515.314 17.6436C526.906 -1.58875 526.906 -22.1701 515.314 -41.3911L502.002 -63.4839C499.718 -67.274 497.921 -71.1208 496.612 -75H481.59Z" fill="#393A3D"/>
<circle cx="813.141" cy="254.141" r="54.1408" fill="#F9C741"/>
</g>
<defs>
<clipPath id="clip0_1_4996">
<rect width="1184" height="666" fill="white"/>
</clipPath>
</defs>
</svg>
