<svg width="1184" height="666" viewBox="0 0 1184 666" fill="none" xmlns="http://www.w3.org/2000/svg">
<g clip-path="url(#clip0_1_5235)">
<rect width="1184" height="666" fill="#F4F4EF"/>
<rect x="1198" width="666" height="636" transform="rotate(90 1198 0)" fill="#D3FA90"/>
<path d="M719 167.945C811.493 192.729 906.564 137.839 931.347 45.3467C956.13 -47.1459 901.241 -142.217 808.748 -167L791.151 -101.325C847.372 -86.2603 880.736 -28.4722 865.671 27.749C850.607 83.9701 792.819 117.334 736.598 102.27L719 167.945Z" fill="#393A3D"/>
<path d="M1103.6 502C1035.89 569.709 1035.89 679.488 1103.6 747.197C1171.31 814.907 1281.09 814.907 1348.8 747.197L1300.72 699.119C1259.56 740.276 1192.84 740.276 1151.68 699.119C1110.52 657.963 1110.52 591.235 1151.68 550.078L1103.6 502Z" fill="#393A3D"/>
<path d="M820.195 393.797C887.905 326.088 887.905 216.309 820.195 148.6C752.486 80.8903 642.707 80.8903 574.998 148.6L623.076 196.678C664.233 155.521 730.961 155.521 772.117 196.678C813.274 237.834 813.274 304.562 772.117 345.719L820.195 393.797Z" fill="#F9C741"/>
<path d="M532.992 126.152C485.114 43.2257 379.076 14.8129 296.15 62.6906C213.223 110.568 184.81 216.606 232.688 299.533L291.571 265.537C262.469 215.13 279.74 150.676 330.146 121.574C380.553 92.4716 445.007 109.742 474.109 160.149L532.992 126.152Z" fill="#F9C741"/>
<path d="M677.945 333.223C702.729 240.73 647.839 145.659 555.347 120.876C462.854 96.0922 367.783 150.982 343 243.474L408.675 261.072C423.74 204.851 481.528 171.487 537.749 186.551C593.97 201.616 627.334 259.404 612.27 315.625L677.945 333.223Z" fill="#F9C741"/>
<path d="M1029.8 332.598C962.088 264.888 852.309 264.888 784.6 332.598C716.89 400.307 716.89 510.086 784.6 577.795L832.678 529.717C791.521 488.56 791.521 421.832 832.678 380.676C873.834 339.519 940.562 339.519 981.719 380.676L1029.8 332.598Z" fill="#AC6500"/>
<path d="M914.383 735.996C997.309 688.118 1025.72 582.08 977.845 499.154C929.967 416.227 823.929 387.814 741.002 435.692L774.998 494.575C825.405 465.473 889.859 482.743 918.961 533.15C948.064 583.556 930.793 648.011 880.387 677.113L914.383 735.996Z" fill="#AC6500"/>
<path d="M1316.99 113.152C1269.11 30.2257 1163.08 1.81292 1080.15 49.6906C997.223 97.5684 968.81 203.606 1016.69 286.533L1075.57 252.537C1046.47 202.13 1063.74 137.676 1114.15 108.574C1164.55 79.4716 1229.01 96.7421 1258.11 147.149L1316.99 113.152Z" fill="#F9C741"/>
<path d="M1068.15 238C985.222 285.878 956.809 391.916 1004.69 474.842C1052.56 557.769 1158.6 586.182 1241.53 538.304L1207.53 479.421C1157.13 508.523 1092.67 491.253 1063.57 440.846C1034.47 390.44 1051.74 325.985 1102.14 296.883L1068.15 238Z" fill="#F9C741"/>
<path d="M338.945 638.223C363.729 545.73 308.839 450.659 216.347 425.876C123.854 401.092 28.783 455.982 3.99963 548.474L69.6753 566.072C84.7397 509.851 142.528 476.487 198.749 491.551C254.97 506.616 288.334 564.404 273.27 620.625L338.945 638.223Z" fill="#AC6500"/>
<path d="M223.383 493.996C306.309 446.118 334.722 340.08 286.845 257.154C238.967 174.227 132.929 145.814 50.0021 193.692L83.9984 252.575C134.405 223.473 198.859 240.743 227.961 291.15C257.064 341.556 239.793 406.011 189.387 435.113L223.383 493.996Z" fill="#AC6500"/>
<path d="M-174 289.195C-106.291 356.905 3.48796 356.905 71.1973 289.195C138.907 221.486 138.907 111.707 71.1973 43.998L23.1194 92.0759C64.2761 133.233 64.2761 199.961 23.1194 241.117C-18.0373 282.274 -84.7654 282.274 -125.922 241.117L-174 289.195Z" fill="#393A3D"/>
<path d="M71.1953 779.797C138.905 712.088 138.905 602.309 71.1953 534.6C3.48598 466.89 -106.293 466.89 -174.002 534.6L-125.924 582.678C-84.7674 541.521 -18.0393 541.521 23.1174 582.678C64.2741 623.834 64.2741 690.562 23.1174 731.719L71.1953 779.797Z" fill="#F9C741"/>
<path d="M-106 -24.25C-81.2167 68.2426 13.8544 123.132 106.347 98.3486C198.84 73.5653 253.729 -21.5058 228.946 -113.998L163.27 -96.4007C178.334 -40.1796 144.97 17.6086 88.7493 32.673C32.5282 47.7374 -25.26 14.3734 -40.3244 -41.8477L-106 -24.25Z" fill="#393A3D"/>
<path d="M153 538.75C177.783 631.243 272.854 686.132 365.347 661.349C457.84 636.565 512.729 541.494 487.946 449.002L422.27 466.599C437.334 522.82 403.97 580.609 347.749 595.673C291.528 610.737 233.74 577.373 218.676 521.152L153 538.75Z" fill="#393A3D"/>
<path d="M677.945 599.219C702.729 506.726 647.839 411.655 555.347 386.872C462.854 362.088 367.783 416.978 343 509.47L408.675 527.068C423.74 470.847 481.528 437.483 537.749 452.547C593.97 467.612 627.334 525.4 612.27 581.621L677.945 599.219Z" fill="#393A3D"/>
</g>
<defs>
<clipPath id="clip0_1_5235">
<rect width="1184" height="666" fill="white"/>
</clipPath>
</defs>
</svg>
