<svg width="1184" height="666" viewBox="0 0 1184 666" fill="none" xmlns="http://www.w3.org/2000/svg">
<g clip-path="url(#clip0_1_5196)">
<rect width="1184" height="666" fill="#F4F4EF"/>
<rect x="594" y="-6" width="672" height="594" transform="rotate(90 594 -6)" fill="#D3FA90"/>
<path d="M532.117 36.0859C594.998 144.999 557.682 284.265 448.769 347.146C339.856 410.027 200.589 372.711 137.708 263.798L532.117 36.0859Z" fill="#393A3D"/>
<path d="M661.797 629.418C598.916 520.505 636.232 381.239 745.145 318.358C854.058 255.477 993.325 292.793 1056.21 401.706L661.797 629.418Z" fill="#393A3D"/>
<path d="M600.127 671.348C423.727 773.192 198.165 712.753 96.3209 536.353C-5.5236 359.954 54.9155 134.392 231.315 32.5473L600.127 671.348Z" fill="#AC6500"/>
<path d="M593.789 -5.84375C770.189 -107.688 995.751 -47.2493 1097.6 129.151C1199.44 305.55 1139 531.112 962.601 632.957L593.789 -5.84375Z" fill="#F9C741"/>
</g>
<defs>
<clipPath id="clip0_1_5196">
<rect width="1184" height="666" fill="white"/>
</clipPath>
</defs>
</svg>
