<svg width="1184" height="666" viewBox="0 0 1184 666" fill="none" xmlns="http://www.w3.org/2000/svg">
<g clip-path="url(#clip0_1_5182)">
<rect width="1184" height="666" fill="#F4F4EF"/>
<rect x="658" y="-44" width="673" height="711" fill="#D3FA90"/>
<rect x="-84.125" y="400" width="1362.78" height="29.6667" fill="#AC6500"/>
<rect x="-84.125" y="459.332" width="1362.78" height="29.6667" fill="#393A3D"/>
<rect x="-84.125" y="518.668" width="1362.78" height="29.6667" fill="#AC6500"/>
<rect x="-84.125" y="578" width="1362.78" height="29.6667" fill="#393A3D"/>
<rect x="-84.125" y="637.332" width="1362.78" height="29.6667" fill="#AC6500"/>
<path d="M-0.000938416 248V666.454H418.453L-0.000938416 248Z" fill="#AC6500"/>
<path d="M-5.5 522C138.646 522 255.5 405.146 255.5 261C255.5 116.854 138.646 -6.63823e-05 -5.50002 -6.00815e-05L-5.50002 102.353C82.1184 102.353 153.147 173.381 153.147 261C153.147 348.618 82.1184 419.647 -5.5 419.647L-5.5 522Z" fill="#F9C741"/>
<path d="M483 0C483 95.7554 560.625 173.381 656.381 173.381C752.136 173.381 829.761 95.7554 829.761 0L483 0Z" fill="#F9C741"/>
</g>
<defs>
<clipPath id="clip0_1_5182">
<rect width="1184" height="666" fill="white"/>
</clipPath>
</defs>
</svg>
