<svg width="1184" height="666" viewBox="0 0 1184 666" fill="none" xmlns="http://www.w3.org/2000/svg">
<g clip-path="url(#clip0_1_5174)">
<rect width="1184" height="666" fill="#F4F4EF"/>
<rect x="1184" y="442" width="224" height="1184" transform="rotate(90 1184 442)" fill="#D3FA90"/>
<path d="M355 393L212.106 145.5L497.894 145.5L355 393Z" fill="#F9C741"/>
<path d="M828 393L685.106 145.5L970.894 145.5L828 393Z" fill="#F9C741"/>
<path d="M592 264L636.167 340.5L547.833 340.5L592 264Z" fill="#393A3D"/>
<path d="M419 442C419 537.755 496.625 615.381 592.381 615.381C688.136 615.381 765.761 537.755 765.761 442H697.769C697.769 500.204 650.585 547.388 592.381 547.388C534.176 547.388 486.992 500.204 486.992 442H419Z" fill="#AC6500"/>
<circle cx="165" cy="344" r="49" fill="#D3FA90"/>
<circle cx="1020" cy="344" r="49" fill="#D3FA90"/>
</g>
<defs>
<clipPath id="clip0_1_5174">
<rect width="1184" height="666" fill="white"/>
</clipPath>
</defs>
</svg>
