<svg width="1184" height="666" viewBox="0 0 1184 666" fill="none" xmlns="http://www.w3.org/2000/svg">
<g clip-path="url(#clip0_1_5167)">
<rect width="1184" height="666" fill="#F4F4EF"/>
<rect x="-986" y="226" width="2094" height="914" transform="rotate(-30 -986 226)" fill="#D3FA90"/>
<path d="M1204.38 -121C1108.63 -121 1031 -43.3749 1031 52.3806C1031 148.136 1108.63 225.761 1204.38 225.761L1204.38 -121Z" fill="#AC6500"/>
<path d="M301.758 668.379C301.758 572.623 224.133 494.998 128.377 494.998C32.6218 494.998 -45.0035 572.623 -45.0035 668.379L301.758 668.379Z" fill="#AC6500"/>
<path d="M1184 342C971.923 342 800 514.146 800 726.5C800 938.853 971.923 1111 1184 1111L1184 342Z" fill="#F9C741"/>
<path d="M-592 -147C-592 124.172 -371.948 344 -100.5 344C170.948 344 391 124.172 391 -147L-592 -147Z" fill="#F9C741"/>
<circle cx="616.5" cy="273.5" r="210.5" fill="#393A3D"/>
</g>
<defs>
<clipPath id="clip0_1_5167">
<rect width="1184" height="666" fill="white"/>
</clipPath>
</defs>
</svg>
