<svg width="485" height="71" viewBox="0 0 485 71" fill="none" xmlns="http://www.w3.org/2000/svg">
<path d="M0.179196 35.899C0.179196 14.6731 16.1687 0.927797 36.1789 0.927797C46.371 0.927797 56.0021 4.48101 62.08 10.0914L48.4282 26.5484C45.997 23.2757 42.0698 21.5926 37.488 21.5926C30.101 21.5926 24.1167 27.1094 24.1167 35.899C24.1167 44.5015 30.2881 50.0183 37.488 50.0183C42.5373 50.0183 46.371 47.5872 48.4282 44.6885L62.08 61.052C56.1892 66.9429 47.2126 70.8701 36.1789 70.8701C16.1687 70.8701 0.179196 56.7507 0.179196 35.899ZM68.8658 35.5249C68.8658 14.2991 84.6682 0.927797 105.614 0.927797C126.559 0.927797 142.455 14.2991 142.455 35.5249C142.455 56.7507 126.559 70.8701 105.614 70.8701C84.6682 70.8701 68.8658 56.7507 68.8658 35.5249ZM92.5227 35.5249C92.5227 44.1275 98.0396 50.2988 105.614 50.2988C113.094 50.2988 118.704 44.1275 118.704 35.5249C118.704 26.9224 113.094 21.3121 105.614 21.3121C98.0396 21.3121 92.5227 26.9224 92.5227 35.5249ZM156.524 69V2.79792H178.685L197.574 36.3665H197.948L197.012 2.79792H218.145V69H195.423L177.096 37.395H176.722L177.657 69H156.524ZM268.172 21.5926V69H245.917V21.5926H229.647V2.79792H284.442V21.5926H268.172ZM295.907 69V2.79792H341.444V21.3121H316.852V27.0159H339.948V44.3145H316.852V50.4859H343.033V69H295.907ZM356.923 69V2.79792H379.084L397.972 36.3665H398.346L397.411 2.79792H418.543V69H395.821L377.494 37.395H377.12L378.055 69H356.923ZM468.57 21.5926V69H446.316V21.5926H430.046V2.79792H484.84V21.5926H468.57Z" fill="white"/>
</svg>
