<svg width="428" height="71" viewBox="0 0 428 71" fill="none" xmlns="http://www.w3.org/2000/svg">
<path d="M20.3686 31.5977L32.5244 69H48.2333L60.5761 31.6912L61.1371 31.7847L60.4826 69H82.0824V2.79792H52.0671L41.6879 38.4236H41.2204L29.2517 2.79792H0.171381V69H20.9297L19.9011 31.5977H20.3686ZM96.0908 35.5249C96.0908 56.7507 111.893 70.8701 132.839 70.8701C153.784 70.8701 169.68 56.7507 169.68 35.5249C169.68 14.2991 153.784 0.927797 132.839 0.927797C111.893 0.927797 96.0908 14.2991 96.0908 35.5249ZM119.748 35.5249C119.748 26.9224 125.265 21.3121 132.839 21.3121C140.319 21.3121 145.929 26.9224 145.929 35.5249C145.929 44.1275 140.319 50.2988 132.839 50.2988C125.265 50.2988 119.748 44.1275 119.748 35.5249ZM213.926 21.5926H230.196V2.79792H175.402V21.5926H191.672V69H213.926V21.5926ZM241.661 69H264.102V2.79792H241.661V69ZM278.135 35.5249C278.135 56.7507 293.937 70.8701 314.883 70.8701C335.828 70.8701 351.724 56.7507 351.724 35.5249C351.724 14.2991 335.828 0.927797 314.883 0.927797C293.937 0.927797 278.135 14.2991 278.135 35.5249ZM301.792 35.5249C301.792 26.9224 307.309 21.3121 314.883 21.3121C322.363 21.3121 327.973 26.9224 327.973 35.5249C327.973 44.1275 322.363 50.2988 314.883 50.2988C307.309 50.2988 301.792 44.1275 301.792 35.5249ZM365.794 69H386.926L385.991 37.395H386.365L404.692 69H427.414V2.79792H406.282L407.217 36.3665H406.843L387.954 2.79792H365.794V69Z" fill="white"/>
</svg>
