<svg width="474" height="71" viewBox="0 0 474 71" fill="none" xmlns="http://www.w3.org/2000/svg">
<path d="M27.8647 70.8701C41.236 70.8701 55.1684 63.2026 55.1684 47.2132C55.1684 33.5613 42.3581 29.3536 32.8205 26.2679C28.2387 24.7718 26.2751 24.1172 26.2751 22.1536C26.2751 20.003 28.4258 19.1614 31.6985 19.1614C35.1582 19.1614 40.114 21.125 43.1062 24.8653L56.945 10.7459C50.1191 4.48101 40.3945 0.927797 31.6985 0.927797C18.7012 0.927797 3.92724 7.19269 3.92724 23.6497C3.92724 35.2444 12.0622 40.0132 21.0388 43.0054C30.3894 46.0911 32.727 47.0261 32.727 49.4573C32.727 51.7949 30.2959 52.543 27.7712 52.543C22.3479 52.543 16.644 49.4573 13.5583 46.0911L0 60.865C6.73242 66.8494 17.2051 70.8701 27.8647 70.8701ZM106.266 41.8833L132.542 2.79792H106.36L96.3548 22.2471L85.8821 2.79792H59.046L84.012 41.8833V69H106.266V41.8833ZM162.864 70.8701C176.235 70.8701 190.167 63.2026 190.167 47.2132C190.167 33.5613 177.357 29.3536 167.819 26.2679C163.238 24.7718 161.274 24.1172 161.274 22.1536C161.274 20.003 163.425 19.1614 166.697 19.1614C170.157 19.1614 175.113 21.125 178.105 24.8653L191.944 10.7459C185.118 4.48101 175.393 0.927797 166.697 0.927797C153.7 0.927797 138.926 7.19269 138.926 23.6497C138.926 35.2444 147.061 40.0132 156.038 43.0054C165.388 46.0911 167.726 47.0261 167.726 49.4573C167.726 51.7949 165.295 52.543 162.77 52.543C157.347 52.543 151.643 49.4573 148.557 46.0911L134.999 60.865C141.731 66.8494 152.204 70.8701 162.864 70.8701ZM235.468 21.5926H251.738V2.79792H196.944V21.5926H213.214V69H235.468V21.5926ZM263.203 69H310.33V50.4859H284.148V44.3145H307.244V27.0159H284.148V21.3121H308.74V2.79792H263.203V69ZM344.416 31.5977L356.572 69H372.281L384.624 31.6912L385.185 31.7847L384.53 69H406.13V2.79792H376.115L365.735 38.4236H365.268L353.299 2.79792H324.219V69H344.977L343.949 31.5977H344.416ZM444.824 70.8701C458.195 70.8701 472.127 63.2026 472.127 47.2132C472.127 33.5613 459.317 29.3536 449.78 26.2679C445.198 24.7718 443.234 24.1172 443.234 22.1536C443.234 20.003 445.385 19.1614 448.657 19.1614C452.117 19.1614 457.073 21.125 460.065 24.8653L473.904 10.7459C467.078 4.48101 457.354 0.927797 448.657 0.927797C435.66 0.927797 420.886 7.19269 420.886 23.6497C420.886 35.2444 429.021 40.0132 437.998 43.0054C447.348 46.0911 449.686 47.0261 449.686 49.4573C449.686 51.7949 447.255 52.543 444.73 52.543C439.307 52.543 433.603 49.4573 430.517 46.0911L416.959 60.865C423.691 66.8494 434.164 70.8701 444.824 70.8701Z" fill="white"/>
</svg>
