<svg width="786" height="249" viewBox="0 0 786 249" fill="none" xmlns="http://www.w3.org/2000/svg">
<path d="M50.1191 31.5977H50.4931L59.8437 69H82.2851L100.706 2.79792H77.8903L70.6904 40.0132H70.3163L61.9943 2.79792H38.7114L31.0439 40.0132H30.6699L23.5635 2.79792H0L18.0466 69H40.488L50.1191 31.5977ZM111.566 69H158.693V50.4859H132.512V44.3145H155.607V27.0159H132.512V21.3121H157.104V2.79792H111.566V69ZM172.582 69H216.998V49.9248H195.024V2.79792H172.582V69ZM222.753 35.899C222.753 56.7507 238.743 70.8701 258.753 70.8701C269.787 70.8701 278.763 66.9429 284.654 61.052L271.002 44.6885C268.945 47.5872 265.111 50.0183 260.062 50.0183C252.862 50.0183 246.691 44.5015 246.691 35.899C246.691 27.1094 252.675 21.5926 260.062 21.5926C264.644 21.5926 268.571 23.2757 271.002 26.5484L284.654 10.0914C278.576 4.48101 268.945 0.927797 258.753 0.927797C238.743 0.927797 222.753 14.6731 222.753 35.899ZM291.44 35.5249C291.44 56.7507 307.242 70.8701 328.188 70.8701C349.133 70.8701 365.029 56.7507 365.029 35.5249C365.029 14.2991 349.133 0.927797 328.188 0.927797C307.242 0.927797 291.44 14.2991 291.44 35.5249ZM315.097 35.5249C315.097 26.9224 320.614 21.3121 328.188 21.3121C335.668 21.3121 341.279 26.9224 341.279 35.5249C341.279 44.1275 335.668 50.2988 328.188 50.2988C320.614 50.2988 315.097 44.1275 315.097 35.5249ZM399.296 31.5977L411.452 69H427.161L439.503 31.6912L440.064 31.7847L439.41 69H461.01V2.79792H430.994L420.615 38.4236H420.148L408.179 2.79792H379.099V69H399.857L398.828 31.5977H399.296ZM478.01 69H525.137V50.4859H498.956V44.3145H522.051V27.0159H498.956V21.3121H523.548V2.79792H478.01V69ZM39.1789 110.593H55.4489V91.7979H0.65454V110.593H16.9245V158H39.1789V110.593ZM61.0907 124.525C61.0907 145.751 76.8932 159.87 97.8384 159.87C118.784 159.87 134.68 145.751 134.68 124.525C134.68 103.299 118.784 89.9278 97.8384 89.9278C76.8932 89.9278 61.0907 103.299 61.0907 124.525ZM84.7476 124.525C84.7476 115.922 90.2645 110.312 97.8384 110.312C105.319 110.312 110.929 115.922 110.929 124.525C110.929 133.127 105.319 139.299 97.8384 139.299C90.2645 139.299 84.7476 133.127 84.7476 124.525ZM207.526 110.593H223.796V91.7979H169.001V110.593H185.271V158H207.526V110.593ZM275.655 158H297.909V91.7979H275.562V114.239H257.421V91.7979H235.261V158H257.515V132.847H275.655V158ZM314.905 158H362.032V139.486H335.85V133.314H358.946V116.016H335.85V110.312H360.442V91.7979H314.905V158ZM6.17138 247H50.5866V227.925H28.6128V180.798H6.17138V247ZM62.1653 247H109.292V228.486H83.1106V222.314H106.206V205.016H83.1106V199.312H107.703V180.798H62.1653V247ZM115.514 247H139.077L142.35 237.275H163.389L166.849 247H191.067L165.259 180.798H141.602L115.514 247ZM158.433 220.257H147.68L153.103 203.894L158.433 220.257ZM200.452 247H221.958V223.343H222.612L235.329 247H260.95L244.119 220.164C251.506 216.798 255.713 210.346 255.713 202.304C255.713 185.473 242.062 180.798 228.971 180.798H200.452V247ZM221.771 198.096H227.101C229.906 198.096 233.927 198.564 233.927 203.239C233.927 208.008 229.251 208.756 226.166 208.756H221.771V198.096ZM271.878 247H293.01L292.075 215.395H292.449L310.776 247H333.498V180.798H312.366L313.301 214.366H312.927L294.038 180.798H271.878V247ZM350.517 247H372.959V180.798H350.517V247ZM389.983 247H411.116L410.181 215.395H410.555L428.882 247H451.604V180.798H430.471L431.406 214.366H431.032L412.144 180.798H389.983V247ZM502.285 248.683C512.197 248.683 522.576 245.878 528.747 242.231V206.044H498.358V223.53H509.018V228.579C507.896 229.14 505.651 229.514 503.781 229.514C493.215 229.514 488.633 223.156 488.633 213.899C488.633 204.735 495.553 198.658 502.846 198.658C508.27 198.658 511.916 200.715 514.628 203.987L527.625 188.372C521.828 182.575 511.823 178.928 501.537 178.928C481.62 178.928 465.631 192.673 465.631 213.899C465.631 235.125 481.433 248.683 502.285 248.683ZM612.97 247H635.224V180.798H612.876V203.239H594.736V180.798H572.575V247H594.83V221.847H612.97V247ZM681.954 248.87C702.619 248.87 713.279 236.714 713.279 221.005V180.798H691.118V218.574C691.118 224.839 687.939 228.673 682.328 228.673C676.718 228.673 673.539 224.839 673.539 218.574V180.798H651.284V221.005C651.284 236.714 661.29 248.87 681.954 248.87ZM755.673 198.096C759.133 198.096 761.471 199.312 761.471 201.837C761.471 204.829 759.227 206.231 756.141 206.231H750.157V198.096H755.673ZM755.86 220.538C758.572 220.538 762.686 221.379 762.686 224.933C762.686 227.925 760.255 229.514 756.796 229.514H750.157V220.538H755.86ZM772.691 212.309C778.489 210.065 782.416 205.483 782.416 198.377C782.416 183.042 767.362 180.798 756.608 180.798H729.398V247H759.414C772.317 247 785.128 242.138 785.128 227.644C785.128 219.416 779.05 214.086 772.691 212.59V212.309Z" fill="white"/>
</svg>
